<?xml version="1.0" encoding="UTF-8"?><svg id="a" xmlns="http://www.w3.org/2000/svg" viewBox="0 0 24 24"><path d="M10.46896,5.74707c0-.8457.68573-1.53125,1.53156-1.53125.8457,0,1.53143.68555,1.53143,1.53125s-.68573,1.53223-1.53143,1.53223c-.84583,0-1.53156-.68652-1.53156-1.53223ZM22.75003,12c0,5.92773-4.82227,10.75-10.75,10.75S1.25003,17.92773,1.25003,12,6.0723,1.25,12.00003,1.25s10.75,4.82227,10.75,10.75ZM21.25003,12c0-5.10059-4.14941-9.25-9.25-9.25S2.75003,6.89941,2.75003,12s4.14941,9.25,9.25,9.25,9.25-4.14941,9.25-9.25ZM18.61819,8.65625l-.29297-1.4707-4.90365.97656h-2.85887l-4.9035-.97656-.29297,1.4707,4.91016.97852v3.26172l-1.6875,6.63965,1.45312.36914,1.3327-5.24316h1.26935l1.31494,5.24316,1.45312-.36914-1.6875-6.63965v-3.26562l4.89355-.97461Z"/></svg>