<?xml version="1.0" encoding="UTF-8"?><svg id="a" xmlns="http://www.w3.org/2000/svg" viewBox="0 0 24 24"><path d="M2.75024,14.75016h19.99951v5.25h-1.5v-3.75H2.75024v3.75h-1.5V5.50016h1.5v9.25ZM22.74976,10.80485v3.1709h-12.87842v-3.13281c-.0213,1.73047-1.43219,3.13281-3.16748,3.13281-1.74854,0-3.1709-1.42285-3.1709-3.1709,0-1.74902,1.42236-3.17188,3.1709-3.17188,1.73529,0,3.14618,1.40234,3.16748,3.13281v-3.13281h9.70703c1.74854,0,3.17139,1.42285,3.17139,3.17188ZM8.37524,10.80485c0-.92188-.75-1.67188-1.67139-1.67188s-1.6709.75-1.6709,1.67188c0,.9209.74951,1.6709,1.6709,1.6709s1.67139-.75,1.67139-1.6709ZM21.24976,10.80485c0-.92188-.75-1.67188-1.67139-1.67188h-8.20703v3.34277h9.87842v-1.6709Z"/></svg>