<?xml version="1.0" encoding="UTF-8"?><svg id="a" xmlns="http://www.w3.org/2000/svg" viewBox="0 0 24 24"><path d="M6.72155,13.98845c1.74805,0,3.1709-1.42285,3.1709-3.17188,0-1.74805-1.42285-3.1709-3.1709-3.1709-1.74902,0-3.17188,1.42285-3.17188,3.1709,0,1.74902,1.42285,3.17188,3.17188,3.17188ZM6.72155,9.14567c.9209,0,1.6709.75,1.6709,1.6709,0,.92188-.75,1.67188-1.6709,1.67188-.92188,0-1.67188-.75-1.67188-1.67188,0-.9209.75-1.6709,1.67188-1.6709ZM19.59265,8.61833h-8.86426v6.13184H2.74987V6.47673h-1.5v13.52344h1.5v-3.75h18.5v3.75h1.5v-4.25879h.00195v-3.96484c0-1.74121-1.41699-3.1582-3.15918-3.1582ZM21.25183,14.75016h-9.02344v-4.63184h7.36426c.91504,0,1.65918.74414,1.65918,1.6582v2.97363Z"/></svg>