<svg xmlns="http://www.w3.org/2000/svg" viewBox="0 0 24.75 24.75"><defs><style>.cls-1{fill:none;stroke:#171717;stroke-miterlimit:10;stroke-width:0.75px;}</style></defs><title>AddressBook</title><g id="Ebene_2" data-name="Ebene 2"><g id="Ebene_1-2" data-name="Ebene 1"><rect class="cls-1" x="0.375" y="0.375" width="24" height="24"/><path d="M7.13128,4.0835V7.01807H5.59906v3.4043H7.13128v.25H5.59906v3.40527H7.13128v.25H5.59906v3.4043H7.13128v2.93457H19.10736V4.0835ZM6.34906,9.67237V7.76807h.78222v1.9043Zm0,3.65527V11.42237h.78222v1.90527Zm0,3.6543v-1.9043h.78222v1.9043Zm12.0083,2.93457H7.88128V4.8335H18.35736Z"/><path d="M9.94036,14.37451a1.825,1.825,0,0,1,1.82325-1.82324h2.7705a1.825,1.825,0,0,1,1.82325,1.82324v3.92676h.75V14.37451a2.57609,2.57609,0,0,0-2.57325-2.57324h-2.7705a2.57609,2.57609,0,0,0-2.57325,2.57324v3.92676h.75Z"/><path d="M13.14886,11.67627a2.875,2.875,0,1,0-2.875-2.875A2.87835,2.87835,0,0,0,13.14886,11.67627Zm0-5a2.125,2.125,0,1,1-2.125,2.125A2.12722,2.12722,0,0,1,13.14886,6.67627Z"/></g></g></svg>
