<svg xmlns="http://www.w3.org/2000/svg" viewBox="0 0 13.5083 16.58301"><title>AddressBook</title>
	<path
		d="M1.53223,0V2.93457H0v3.4043H1.53223v.25H0V9.99414H1.53223v.25H0v3.4043H1.53223V16.583H13.5083V0ZM.75,5.58887V3.68457h.78223v1.9043Zm0,3.65527V7.33887h.78223V9.24414Zm0,3.6543v-1.9043h.78223v1.9043ZM12.7583,15.833H2.28223V.75H12.7583Z"
		fill="#171717"/>
	<path
		d="M4.34131,10.291A1.825,1.825,0,0,1,6.16455,8.46777H8.93506A1.825,1.825,0,0,1,10.7583,10.291v3.92675h.75V10.291A2.57609,2.57609,0,0,0,8.93506,7.71777H6.16455A2.57609,2.57609,0,0,0,3.59131,10.291v3.92675h.75Z"
		fill="#171717"/>
	<path
		d="M7.5498,7.59277a2.875,2.875,0,1,0-2.875-2.875A2.87835,2.87835,0,0,0,7.5498,7.59277Zm0-5a2.125,2.125,0,1,1-2.125,2.125A2.12722,2.12722,0,0,1,7.5498,2.59277Z"
		fill="#171717"/>
</svg>
