<svg xmlns="http://www.w3.org/2000/svg" viewBox="0 0 24 24"><title>AddressBook</title><path d="M6.773,3.7085V6.64307H5.24072v3.4043H6.773v.25H5.24072v3.40527H6.773v.25H5.24072v3.4043H6.773v2.93457H18.749V3.7085ZM5.99072,9.29737V7.39307H6.773v1.9043Zm0,3.65527V11.04737H6.773v1.90527Zm0,3.6543v-1.9043H6.773v1.9043ZM17.999,19.54151H7.523V4.4585H17.999Z" fill="#171717"/><path d="M9.582,13.99951a1.825,1.825,0,0,1,1.82324-1.82324h2.77051A1.825,1.825,0,0,1,15.999,13.99951v3.92676h.75V13.99951a2.57608,2.57608,0,0,0-2.57324-2.57324H11.40527A2.57609,2.57609,0,0,0,8.832,13.99951v3.92676h.75Z" fill="#171717"/><path d="M12.79053,11.30127a2.875,2.875,0,1,0-2.875-2.875A2.87835,2.87835,0,0,0,12.79053,11.30127Zm0-5a2.125,2.125,0,1,1-2.125,2.125A2.12723,2.12723,0,0,1,12.79053,6.30127Z" fill="#171717"/></svg>