<?xml version="1.0" encoding="UTF-8"?><svg id="a" xmlns="http://www.w3.org/2000/svg" viewBox="0 0 24 24"><path d="M5.18555,1.25016v2.08203h-2.25537v4.85352h2.25537v1.36523h-2.25537v4.85352h2.25537v1.36621h-2.25537v4.85254h2.25537v2.12695h15.56445V1.25016H5.18555ZM5.18555,19.12321h-.75537v-1.85254h.75537v1.85254ZM5.18555,12.90446h-.75537v-1.85352h.75537v1.85352ZM5.18555,6.68571h-.75537v-1.85352h.75537v1.85352ZM19.25,21.25016H6.68555V2.75016h12.56445v18.5ZM9.70117,19.69059h-1.5v-4.19141c0-1.77246,1.44189-3.21387,3.21387-3.21387h3.10596c1.77197,0,3.21338,1.44141,3.21338,3.21387v4.19141h-1.5v-4.19141c0-.94531-.76855-1.71387-1.71338-1.71387h-3.10596c-.94482,0-1.71387.76855-1.71387,1.71387v4.19141ZM12.96777,11.49821c2.04395,0,3.70654-1.66211,3.70654-3.70605s-1.6626-3.70605-3.70654-3.70605c-2.04346,0-3.70605,1.66211-3.70605,3.70605s1.6626,3.70605,3.70605,3.70605ZM12.96777,5.5861c1.2168,0,2.20654.98926,2.20654,2.20605s-.98975,2.20605-2.20654,2.20605c-1.21631,0-2.20605-.98926-2.20605-2.20605s.98975-2.20605,2.20605-2.20605Z"/></svg>