<?xml version="1.0" encoding="UTF-8"?><svg id="a" xmlns="http://www.w3.org/2000/svg" viewBox="0 0 24 24"><path d="M5.18555,1.25049v2.08203h-1.93555v4.85352h1.93555v1.3877h-1.93555v4.85254h1.93555v1.38867h-1.93555v4.85254h1.93555v2.08301h15.56445V1.25049H5.18555ZM5.18555,19.16748h-.43555v-1.85254h.43555v1.85254ZM5.18555,12.92627h-.43555v-1.85254h.43555v1.85254ZM5.18555,6.68604h-.43555v-1.85352h.43555v1.85352ZM19.25,21.25049H6.68555V2.75049h12.56445v18.5ZM9.20654,20.37549h-1.5v-4.79199c0-1.93945,1.57764-3.51758,3.51709-3.51758h3.48828c1.93945,0,3.51709,1.57812,3.51709,3.51758v4.79199h-1.5v-4.79199c0-1.1123-.90479-2.01758-2.01709-2.01758h-3.48828c-1.1123,0-2.01709.90527-2.01709,2.01758v4.79199ZM12.96777,11.76612c2.24414,0,4.07031-1.82617,4.07031-4.07031s-1.82617-4.07031-4.07031-4.07031-4.07031,1.82617-4.07031,4.07031,1.82617,4.07031,4.07031,4.07031ZM12.96777,5.12549c1.41748,0,2.57031,1.15234,2.57031,2.57031,0,1.41699-1.15283,2.57031-2.57031,2.57031s-2.57031-1.15332-2.57031-2.57031c0-1.41797,1.15283-2.57031,2.57031-2.57031Z"/></svg>