<?xml version="1.0" encoding="UTF-8"?><svg id="a" xmlns="http://www.w3.org/2000/svg" viewBox="0 0 24 24"><path d="M17.75062,23.05624l-5.73828-1.99902-5.76172,1.99658-.00488-5.1875,2.60449-.88232v-2.74072l-7.60059,2.54688v-4.74854l7.60059-4.39258v-3.24902c0-1.73682,1.41309-3.14941,3.1499-3.14941s3.1499,1.4126,3.1499,3.14941v3.25l7.59961,4.3916v4.74805l-7.59961-2.5459v2.73926l2.5957.88379.00488,5.18945ZM7.74671,18.9415l.00195,2.00586,4.26465-1.47803,4.23535,1.47559-.00195-2.00391-2.59668-.88379v-5.89746l7.59961,2.5459v-1.79883l-7.59961-4.3916v-4.11523c0-.90967-.74023-1.64941-1.6499-1.64941s-1.6499.73975-1.6499,1.64941v4.11426l-7.60059,4.39258v1.79834l7.60059-2.54688v5.90186l-2.60352.88135Z"/></svg>