<?xml version="1.0" encoding="UTF-8"?><svg id="a" xmlns="http://www.w3.org/2000/svg" viewBox="0 0 24 24"><path d="M1.91302,20.24988v1.5h20.17383v-1.5H1.91302ZM4.34954,13.8866l13.86816,3.4668c.23291.05859.46631.08691.6958.08594,1.28467,0,2.45703-.87012,2.7832-2.17285.18604-.74316.0708-1.51465-.32324-2.17188-.39453-.65723-1.021-1.12109-1.76416-1.30664l-3.95508-.98926-2.46777-7.7666-4.12451-1.0293.37354,7.24121-2.56934-.64258-.98682-2.75293-4.07471-1.01758.35791,6.41113c.07129,1.27246.94922,2.33496,2.18701,2.64453ZM4.73772,7.10925l.98682,2.75293,5.31348,1.32812-.37354-7.24121,1.34619.33594,2.46777,7.76562,4.76709,1.19238h.00049c.35449.08887.65332.31055.84131.62402s.24268.68164.1543,1.03613c-.18359.73242-.93164,1.17773-1.65967.99512l-13.87012-3.46777c-.59473-.14844-1.01709-.66016-1.05127-1.27246l-.24463-4.37891,1.32178.33008Z"/></svg>