<?xml version="1.0" encoding="UTF-8"?><svg id="a" xmlns="http://www.w3.org/2000/svg" viewBox="0 0 24 24"><path d="M22.61902,8.5205c-.24951-.72461-.76562-1.30957-1.4541-1.64551-.68896-.33691-1.4668-.38379-2.19141-.13477l-3.67773,1.26367-6.30029-5.1709-4.01855,1.38477,4.25635,5.86816-2.14062.73535-2.32715-1.77051-3.97217,1.36328,3.79297,5.18359c.55762.76172,1.42432,1.18555,2.32617,1.18555.31543,0,.63477-.05176.94678-.15918l12.97852-4.45801c.72461-.24902,1.30908-.76562,1.64551-1.4541.33594-.68848.38428-1.4668.13574-2.19141ZM21.13513,10.0537c-.16016.32812-.43896.57422-.78467.69336l-12.979,4.45898c-.5791.2002-1.21289,0-1.57471-.49414l-2.59033-3.54004,1.28857-.44238,2.32715,1.77051,4.81543-1.65332-4.25732-5.87012,1.31152-.45215,6.29932,5.16992,4.47021-1.53613c.3457-.11816.71631-.0957,1.04541.06445.32812.16016.57471.43945.69336.78516s.0957.7168-.06494,1.0459ZM1.91297,21.74999h20.17383v-1.5H1.91297v1.5Z"/></svg>