<svg xmlns="http://www.w3.org/2000/svg" viewBox="0 0 24 24"><title>Ald</title><path d="M12,8.12451a3.31112,3.31112,0,0,1,3.396,3.21094h1.5A4.81154,4.81154,0,0,0,12,6.62451a4.87055,4.87055,0,0,0-4.896,4.71094h1.5A3.35192,3.35192,0,0,1,12,8.12451Z" fill="#171717"/><path d="M12,4.37451a6.9689,6.9689,0,0,0-6.96045,6.96094h1.5a5.46045,5.46045,0,1,1,10.9209,0,6.3056,6.3056,0,0,1-.8877,2.38965A7.28062,7.28062,0,0,0,15.50537,16.852,3.40422,3.40422,0,0,1,12.105,20.25244v1.5A4.90586,4.90586,0,0,0,17.00537,16.852a6.3748,6.3748,0,0,1,.90186-2.4414,7.20349,7.20349,0,0,0,1.05322-3.0752A6.9689,6.9689,0,0,0,12,4.37451Z" fill="#171717"/><path d="M16.84961,2.25049v1.5A3.40422,3.40422,0,0,1,20.25,7.15088h1.5A4.90586,4.90586,0,0,0,16.84961,2.25049Z" fill="#171717"/><path d="M16.84131,4.26319v1.5a1.43458,1.43458,0,0,1,1.4082,1.38671h1.5A2.93669,2.93669,0,0,0,16.84131,4.26319Z" fill="#171717"/><rect x="11.24813" y="11.25252" width="1.49984" height="1.49984" transform="translate(-4.97286 11.99933) rotate(-45)" fill="#171717"/><rect x="4.72005" y="17.77969" width="1.49984" height="1.50019" transform="translate(-11.50255 9.29901) rotate(-45.01319)" fill="#171717"/><rect x="2.7806" y="19.71929" width="1.49984" height="1.50088" transform="translate(-13.43746 8.48799) rotate(-44.98682)" fill="#171717"/><rect x="8.95394" y="13.5463" width="1.49984" height="1.50019" transform="translate(-7.26763 11.05288) rotate(-45.01319)" fill="#171717"/><rect x="6.65975" y="15.09049" width="1.49984" height="2.99968" transform="translate(-9.5609 10.09862) rotate(-45)" fill="#171717"/></svg>