<svg xmlns="http://www.w3.org/2000/svg" viewBox="0 0 14.93945 15.19922"><title>ALD</title>
	<path d="M7.37256,4.05957A2.91377,2.91377,0,0,1,10.2832,6.96973h.75a3.66065,3.66065,0,0,0-7.32129,0h.75A2.91378,2.91378,0,0,1,7.37256,4.05957Z"
		  fill="#171717"/>
	<path
		d="M7.38281,1.87891a5.298,5.298,0,0,0-5.292,5.292h.75a4.542,4.542,0,0,1,9.084,0,5.10046,5.10046,0,0,1-.72705,1.99121,5.6242,5.6242,0,0,0-.8208,2.376,2.9144,2.9144,0,0,1-2.91113,2.91113v.75A3.66553,3.66553,0,0,0,11.127,11.53809a5.16023,5.16023,0,0,1,.7378-2.03321,5.54353,5.54353,0,0,0,.81-2.334A5.298,5.298,0,0,0,7.38281,1.87891Z"
		fill="#171717"/>
	<path d="M11.27881,0V.75a2.914,2.914,0,0,1,2.91064,2.91113h.75A3.66512,3.66512,0,0,0,11.27881,0Z" fill="#171717"/>
	<path d="M11.27881,1.39453v.75a1.54363,1.54363,0,0,1,1.542,1.542h.75A2.29476,2.29476,0,0,0,11.27881,1.39453Z" fill="#171717"/>
	<rect x="7.05766" y="7.29399" width="0.74992" height="0.74992" transform="translate(-3.2458 7.50184) rotate(-45)" fill="#171717"/>
	<rect x="5.33402" y="9.01762" width="0.74992" height="0.74992" transform="translate(-4.96943 6.78788) rotate(-45)" fill="#171717"/>
	<rect x="1.88725" y="12.46488" width="0.74992" height="0.74992" transform="translate(-8.41656 5.36033) rotate(-45)" fill="#171717"/>
	<rect x="0.15531" y="14.17973" width="0.74992" height="0.74992" transform="translate(-10.1364 4.63793) rotate(-45)" fill="#171717"/>
	<rect x="3.61064" y="9.99116" width="0.74992" height="2.2501" transform="translate(-6.69377 6.07574) rotate(-45.00879)" fill="#171717"/>
</svg>
