<svg xmlns="http://www.w3.org/2000/svg" viewBox="0 0 24 24"><title>ALD</title><path d="M11.9585,8.38623a2.91378,2.91378,0,0,1,2.91064,2.91016h.75a3.66065,3.66065,0,0,0-7.32129,0h.75A2.91379,2.91379,0,0,1,11.9585,8.38623Z" fill="#171717"/><path d="M11.96875,6.20557a5.298,5.298,0,0,0-5.292,5.292h.75a4.542,4.542,0,1,1,9.084,0,5.10062,5.10062,0,0,1-.727,1.99121,5.6242,5.6242,0,0,0-.8208,2.376,2.9144,2.9144,0,0,1-2.91113,2.91113v.75a3.66554,3.66554,0,0,0,3.66113-3.66113,5.16035,5.16035,0,0,1,.73779-2.03321,5.54342,5.54342,0,0,0,.81006-2.334A5.298,5.298,0,0,0,11.96875,6.20557Z" fill="#171717"/><path d="M15.86475,4.32666v.75a2.914,2.914,0,0,1,2.91064,2.91113h.75A3.66512,3.66512,0,0,0,15.86475,4.32666Z" fill="#171717"/><path d="M15.86475,5.72119v.75a1.54364,1.54364,0,0,1,1.542,1.542h.75A2.29476,2.29476,0,0,0,15.86475,5.72119Z" fill="#171717"/><rect x="11.64359" y="11.62065" width="0.74992" height="0.74992" transform="translate(-4.96202 12.01183) rotate(-45)" fill="#171717"/><rect x="9.91996" y="13.34428" width="0.74992" height="0.74992" transform="translate(-6.68565 11.29788) rotate(-45)" fill="#171717"/><rect x="6.47318" y="16.79155" width="0.74992" height="0.74992" transform="translate(-10.13278 9.87032) rotate(-45)" fill="#171717"/><rect x="4.74125" y="18.50639" width="0.74992" height="0.74992" transform="translate(-11.85263 9.14793) rotate(-45)" fill="#171717"/><rect x="8.19657" y="14.31782" width="0.74992" height="2.2501" transform="translate(-8.40996 10.58671) rotate(-45.00879)" fill="#171717"/></svg>