<?xml version="1.0" encoding="UTF-8"?><svg id="a" xmlns="http://www.w3.org/2000/svg" viewBox="0 0 24 24"><path d="M8.604,11.33545h-1.5c0-2.55371,2.24219-4.71094,4.896-4.71094,2.69971,0,4.896,2.11328,4.896,4.71094h-1.5c0-1.77051-1.52344-3.21094-3.396-3.21094-1.84082,0-3.396,1.4707-3.396,3.21094ZM12,4.37451c-3.83789,0-6.96045,3.12305-6.96045,6.96094h1.5c0-3.01074,2.44971-5.46094,5.46045-5.46094s5.46045,2.4502,5.46045,5.46094c0,.66211-.45117,1.54004-.8877,2.38965-.5249,1.02148-1.06738,2.07715-1.06738,3.12695,0,1.875-1.52539,3.40039-3.40039,3.40039v1.5c2.70215,0,4.90039-2.19824,4.90039-4.90039,0-.68652.4585-1.5791.90186-2.44141.51758-1.00879,1.05322-2.05078,1.05322-3.0752,0-3.83789-3.12256-6.96094-6.96045-6.96094ZM16.84961,2.25049v1.5c1.875,0,3.40039,1.52539,3.40039,3.40039h1.5c0-2.70215-2.19824-4.90039-4.90039-4.90039ZM16.84131,4.26319v1.5c.75,0,1.4082.64844,1.4082,1.38672h1.5c0-1.56445-1.33203-2.88672-2.9082-2.88672ZM11.99805,10.9419l-1.06055,1.06055,1.06055,1.06055,1.06055-1.06055-1.06055-1.06055ZM4.40918,18.52979l1.06104,1.06055,1.06055-1.06055-1.06104-1.06055-1.06055,1.06055ZM2.46973,20.46924l1.06104,1.06152,1.06055-1.06055-1.06104-1.06152-1.06055,1.06055ZM8.64307,14.29639l1.06104,1.06055,1.06055-1.06055-1.06104-1.06055-1.06055,1.06055ZM5.81885,16.06006l2.12109,2.12109,1.06055-1.06055-2.12109-2.12109-1.06055,1.06055Z"/></svg>