<svg xmlns="http://www.w3.org/2000/svg" viewBox="0 0 24.75 24.75"><defs><style>.cls-1{fill:none;stroke:#171717;stroke-miterlimit:10;stroke-width:0.75px;}.cls-2{fill:#171717;}</style></defs><title>ALD</title><g id="Ebene_2" data-name="Ebene 2"><g id="Ebene_1-2" data-name="Ebene 1"><rect class="cls-1" x="0.375" y="0.375" width="24" height="24"/><path class="cls-2" d="M12.31683,8.76123a2.91378,2.91378,0,0,1,2.91064,2.91016h.75a3.66065,3.66065,0,0,0-7.32129,0h.75A2.91379,2.91379,0,0,1,12.31683,8.76123Z"/><path class="cls-2" d="M12.32708,6.58057a5.298,5.298,0,0,0-5.292,5.292h.75a4.542,4.542,0,0,1,9.084,0,5.1005,5.1005,0,0,1-.72706,1.99121,5.6242,5.6242,0,0,0-.8208,2.376,2.9144,2.9144,0,0,1-2.91113,2.91113v.75a3.66553,3.66553,0,0,0,3.66113-3.66113,5.16023,5.16023,0,0,1,.7378-2.03321,5.54355,5.54355,0,0,0,.81006-2.334A5.298,5.298,0,0,0,12.32708,6.58057Z"/><path class="cls-2" d="M16.22308,4.70166v.75a2.914,2.914,0,0,1,2.91064,2.91113h.75A3.66512,3.66512,0,0,0,16.22308,4.70166Z"/><path class="cls-2" d="M16.22308,6.09619v.75a1.54363,1.54363,0,0,1,1.542,1.542h.75A2.29476,2.29476,0,0,0,16.22308,6.09619Z"/><rect class="cls-2" x="12.00193" y="11.99565" width="0.74992" height="0.74992" transform="translate(-5.12223 12.37505) rotate(-45)"/><rect class="cls-2" x="10.27829" y="13.71928" width="0.74992" height="0.74992" transform="translate(-6.84587 11.6611) rotate(-45)"/><rect class="cls-2" x="6.83152" y="17.16655" width="0.74992" height="0.74992" transform="translate(-10.29299 10.23354) rotate(-45)"/><rect class="cls-2" x="5.09958" y="18.88139" width="0.74992" height="0.74992" transform="translate(-12.01284 9.51114) rotate(-45)"/><rect class="cls-2" x="8.55491" y="14.69282" width="0.74992" height="2.2501" transform="translate(-8.57018 10.95) rotate(-45.00879)"/></g></g></svg>
