<?xml version="1.0" encoding="UTF-8"?><svg id="a" xmlns="http://www.w3.org/2000/svg" viewBox="0 0 24 24"><path d="M20.28516,16.35108l-7.52625,4.34473-.01587-11.16309h3.40735v-1.5h-3.40942l-.00079-.53613c1.39105-.33594,2.43121-1.58301,2.43121-3.0752,0-1.74902-1.42285-3.1709-3.17139-3.1709s-3.17139,1.42188-3.17139,3.1709c0,1.48535,1.03064,2.72559,2.41156,3.06836l.00079.54297h-3.39136v1.5h3.39343l.01587,11.17383-7.54407-4.35547-.75,1.29883,9.03516,5.2168,9.03516-5.2168-.75-1.29883ZM10.32861,4.42139c0-.92188.75-1.6709,1.67139-1.6709s1.67139.74902,1.67139,1.6709c0,.9209-.75,1.6709-1.67139,1.6709s-1.67139-.75-1.67139-1.6709Z"/></svg>