<?xml version="1.0" encoding="UTF-8"?><svg id="a" xmlns="http://www.w3.org/2000/svg" viewBox="0 0 24 24"><path d="M13.05982,9.99989l3.50781,12.14551h-1.56152l-3.0061-10.40918-3.0061,10.40918h-1.56152l3.50781-12.14551c-.38855-.3125-.64258-.78613-.64258-1.32227,0-.93848.76318-1.70215,1.70239-1.70215s1.70239.76367,1.70239,1.70215c0,.53613-.25403,1.00977-.64258,1.32227ZM7.45374,13.24891l1.06287-1.0625c-.84753-.875-1.375-2.06152-1.375-3.37305,0-1.375.58069-2.6123,1.50293-3.49707l-1.06372-1.06348c-1.1936,1.15625-1.93921,2.77148-1.93921,4.56055,0,1.72461.69287,3.28906,1.81213,4.43555ZM15.4983,12.16785l1.06372,1.06348c1.10901-1.14453,1.79541-2.70117,1.79541-4.41797,0-1.78027-.73779-3.38965-1.9209-4.54492l-1.06287,1.0625c.91174.88379,1.48376,2.11621,1.48376,3.48242,0,1.30273-.52173,2.48145-1.35913,3.35449ZM6.24366,2.91492l-1.06018-1.06055c-1.8075,1.77148-2.93347,4.23535-2.93347,6.95898,0,2.66016,1.07324,5.07227,2.80615,6.83301l1.0603-1.05957c-1.46143-1.49023-2.36646-3.52734-2.36646-5.77344,0-2.31055.95776-4.39941,2.49365-5.89844ZM18.83411,1.87098l-1.06018,1.05957c1.52588,1.49805,2.47607,3.58105,2.47607,5.88281,0,2.23828-.89893,4.26758-2.35059,5.75586l1.0603,1.05957c1.72327-1.75977,2.79028-4.16406,2.79028-6.81543,0-2.71582-1.11841-5.17285-2.91589-6.94238Z"/></svg>