<?xml version="1.0" encoding="UTF-8"?><svg id="a" xmlns="http://www.w3.org/2000/svg" viewBox="0 0 24 24"><path d="M3.0001,20.30811h18v1.5H3.0001v-1.5ZM4.43955,19.80811h15.12207v-1.5H4.43955v1.5ZM19.56162,9.49756H4.43955v1.5h15.12207v-1.5ZM10.90537,17.80225v-6.2998h-1.5v6.2998h1.5ZM18.59287,17.80225v-6.2998h-1.5v6.2998h1.5ZM14.74912,17.80225v-6.2998h-1.5v6.2998h1.5ZM7.06162,17.79736v-6.2998h-1.5v6.2998h1.5ZM21.72471,8.43994c-.08691.3291-.38477.55762-.72461.55762H3.0001c-.33984,0-.63672-.22754-.72461-.55566s.05566-.67383.34961-.84375l3.3125-1.91406,6.0498-3.49219,6.97449,4.02661.00012-.00024,2.41016,1.37793c.29492.16895.44043.51562.35254.84375ZM18.17771,7.49756l-6.19031-3.57324-5.2998,3.05859-.89065.51465h12.38076Z"/></svg>