<svg xmlns="http://www.w3.org/2000/svg" viewBox="0 0 24.75 24.75"><defs><style>.cls-1{fill:none;stroke:#171717;stroke-miterlimit:10;stroke-width:0.75px;}</style></defs><title>Apps</title><g id="Ebene_2" data-name="Ebene 2"><g id="Ebene_1-2" data-name="Ebene 1"><path d="M12.375,14.66691a2.29187,2.29187,0,1,1,2.2915-2.292A2.2946,2.2946,0,0,1,12.375,14.66691Zm0-3.83374a1.54187,1.54187,0,1,0,1.5415,1.54175A1.54373,1.54373,0,0,0,12.375,10.83317Z"/><path d="M7.14111,9.433a2.29175,2.29175,0,1,1,2.292-2.29175A2.29414,2.29414,0,0,1,7.14111,9.433Zm0-3.8335a1.54175,1.54175,0,1,0,1.542,1.54175A1.54332,1.54332,0,0,0,7.14111,5.59953Z"/><path d="M12.375,9.433a2.29175,2.29175,0,1,1,2.292-2.29175A2.29456,2.29456,0,0,1,12.375,9.433Zm0-3.8335a1.54175,1.54175,0,1,0,1.542,1.54175A1.54373,1.54373,0,0,0,12.375,5.59953Z"/><path d="M17.60889,9.433a2.29175,2.29175,0,1,1,2.2915-2.29175A2.29456,2.29456,0,0,1,17.60889,9.433Zm0-3.8335a1.54175,1.54175,0,1,0,1.5415,1.54175A1.54374,1.54374,0,0,0,17.60889,5.59953Z"/><path d="M7.14111,14.66691a2.29187,2.29187,0,1,1,2.292-2.292A2.29418,2.29418,0,0,1,7.14111,14.66691Zm0-3.83374a1.54187,1.54187,0,1,0,1.542,1.54175A1.54332,1.54332,0,0,0,7.14111,10.83317Z"/><path d="M17.60889,14.66691a2.29187,2.29187,0,1,1,2.2915-2.292A2.2946,2.2946,0,0,1,17.60889,14.66691Zm0-3.83374a1.54187,1.54187,0,1,0,1.5415,1.54175A1.54374,1.54374,0,0,0,17.60889,10.83317Z"/><path d="M7.14111,19.90056a2.29188,2.29188,0,1,1,2.292-2.29175A2.29414,2.29414,0,0,1,7.14111,19.90056Zm0-3.83375a1.54188,1.54188,0,1,0,1.542,1.542A1.54338,1.54338,0,0,0,7.14111,16.06681Z"/><path d="M12.375,19.90056a2.29188,2.29188,0,1,1,2.292-2.29175A2.29456,2.29456,0,0,1,12.375,19.90056Zm0-3.83375a1.54188,1.54188,0,1,0,1.542,1.542A1.54379,1.54379,0,0,0,12.375,16.06681Z"/><path d="M17.60889,19.90056a2.29188,2.29188,0,1,1,2.2915-2.29175A2.29456,2.29456,0,0,1,17.60889,19.90056Zm0-3.83375a1.54188,1.54188,0,1,0,1.5415,1.542A1.5438,1.5438,0,0,0,17.60889,16.06681Z"/><rect class="cls-1" x="0.375" y="0.375" width="24" height="24"/></g></g></svg>
