<svg xmlns="http://www.w3.org/2000/svg" viewBox="0 0 24 24"><title>Apps</title><path d="M12,14.29228a2.292,2.292,0,1,0-2.292-2.292A2.29434,2.29434,0,0,0,12,14.29228Zm0-3.834a1.542,1.542,0,1,1-1.542,1.542A1.54321,1.54321,0,0,1,12,10.4583Z" fill="#171717"/><path d="M6.76611,4.4749a2.29151,2.29151,0,1,0,2.292,2.291A2.29351,2.29351,0,0,0,6.76611,4.4749Zm0,3.833a1.54151,1.54151,0,1,1,1.542-1.542A1.54322,1.54322,0,0,1,6.76611,8.30791Z" fill="#171717"/><path d="M12,4.4749a2.29151,2.29151,0,1,0,2.292,2.291A2.29393,2.29393,0,0,0,12,4.4749Zm0,3.833a1.54151,1.54151,0,1,1,1.542-1.542A1.54363,1.54363,0,0,1,12,8.30791Z" fill="#171717"/><path d="M17.23389,9.05791a2.29151,2.29151,0,1,0-2.292-2.292A2.29434,2.29434,0,0,0,17.23389,9.05791Zm0-3.833a1.54151,1.54151,0,1,1-1.542,1.541A1.543,1.543,0,0,1,17.23389,5.2249Z" fill="#171717"/><path d="M6.76611,9.7083a2.292,2.292,0,1,0,2.292,2.292A2.29434,2.29434,0,0,0,6.76611,9.7083Zm0,3.834a1.542,1.542,0,1,1,1.542-1.542A1.54384,1.54384,0,0,1,6.76611,13.54228Z" fill="#171717"/><path d="M17.23389,9.7083a2.292,2.292,0,1,0,2.2915,2.292A2.29476,2.29476,0,0,0,17.23389,9.7083Zm0,3.834a1.542,1.542,0,1,1,1.5415-1.542A1.54426,1.54426,0,0,1,17.23389,13.54228Z" fill="#171717"/><path d="M6.76611,14.9417a2.292,2.292,0,1,0,2.292,2.292A2.29434,2.29434,0,0,0,6.76611,14.9417Zm0,3.834a1.542,1.542,0,1,1,1.542-1.542A1.54321,1.54321,0,0,1,6.76611,18.77568Z" fill="#171717"/><path d="M12,14.9417a2.292,2.292,0,1,0,2.292,2.292A2.29476,2.29476,0,0,0,12,14.9417Zm0,3.834a1.542,1.542,0,1,1,1.542-1.542A1.54362,1.54362,0,0,1,12,18.77568Z" fill="#171717"/><path d="M17.23389,14.9417a2.292,2.292,0,1,0,2.2915,2.292A2.29476,2.29476,0,0,0,17.23389,14.9417Zm0,3.834a1.542,1.542,0,1,1,1.5415-1.542A1.54363,1.54363,0,0,1,17.23389,18.77568Z" fill="#171717"/></svg>