<?xml version="1.0" encoding="UTF-8"?><svg id="a" xmlns="http://www.w3.org/2000/svg" viewBox="0 0 24 24"><path d="M4.42138,7.59229c-1.74854,0-3.17139-1.42236-3.17139-3.1709s1.42285-3.17139,3.17139-3.17139,3.1709,1.42285,3.1709,3.17139-1.42236,3.1709-3.1709,3.1709ZM4.42138,2.75c-.92139,0-1.67139.75-1.67139,1.67139s.75,1.6709,1.67139,1.6709,1.6709-.74951,1.6709-1.6709-.74951-1.67139-1.6709-1.67139ZM11.99999,7.59229c-1.74854,0-3.17139-1.42236-3.17139-3.1709s1.42285-3.17139,3.17139-3.17139,3.17139,1.42285,3.17139,3.17139-1.42285,3.1709-3.17139,3.1709ZM11.99999,2.75c-.92139,0-1.67139.75-1.67139,1.67139s.75,1.6709,1.67139,1.6709,1.67139-.74951,1.67139-1.6709-.75-1.67139-1.67139-1.67139ZM19.5786,7.59229c-1.74854,0-3.1709-1.42236-3.1709-3.1709s1.42236-3.17139,3.1709-3.17139,3.17139,1.42285,3.17139,3.17139-1.42285,3.1709-3.17139,3.1709ZM19.5786,2.75c-.92139,0-1.6709.75-1.6709,1.67139s.74951,1.6709,1.6709,1.6709,1.67139-.74951,1.67139-1.6709-.75-1.67139-1.67139-1.67139ZM4.42138,15.17139c-1.74854,0-3.17139-1.42285-3.17139-3.17139s1.42285-3.1709,3.17139-3.1709,3.1709,1.42236,3.1709,3.1709-1.42236,3.17139-3.1709,3.17139ZM4.42138,10.3291c-.92139,0-1.67139.74951-1.67139,1.6709s.75,1.67139,1.67139,1.67139,1.6709-.75,1.6709-1.67139-.74951-1.6709-1.6709-1.6709ZM11.99999,15.17139c-1.74854,0-3.17139-1.42285-3.17139-3.17139s1.42285-3.1709,3.17139-3.1709,3.17139,1.42236,3.17139,3.1709-1.42285,3.17139-3.17139,3.17139ZM11.99999,10.3291c-.92139,0-1.67139.74951-1.67139,1.6709s.75,1.67139,1.67139,1.67139,1.67139-.75,1.67139-1.67139-.75-1.6709-1.67139-1.6709ZM19.5786,15.17139c-1.74854,0-3.1709-1.42285-3.1709-3.17139s1.42236-3.1709,3.1709-3.1709,3.17139,1.42236,3.17139,3.1709-1.42285,3.17139-3.17139,3.17139ZM19.5786,10.3291c-.92139,0-1.6709.74951-1.6709,1.6709s.74951,1.67139,1.6709,1.67139,1.67139-.75,1.67139-1.67139-.75-1.6709-1.67139-1.6709ZM4.42138,22.75c-1.74854,0-3.17139-1.42236-3.17139-3.1709s1.42285-3.17139,3.17139-3.17139,3.1709,1.42285,3.1709,3.17139-1.42236,3.1709-3.1709,3.1709ZM4.42138,17.90771c-.92139,0-1.67139.75-1.67139,1.67139s.75,1.6709,1.67139,1.6709,1.6709-.74951,1.6709-1.6709-.74951-1.67139-1.6709-1.67139ZM11.99999,22.75c-1.74854,0-3.17139-1.42236-3.17139-3.1709s1.42285-3.17139,3.17139-3.17139,3.17139,1.42285,3.17139,3.17139-1.42285,3.1709-3.17139,3.1709ZM11.99999,17.90771c-.92139,0-1.67139.75-1.67139,1.67139s.75,1.6709,1.67139,1.6709,1.67139-.74951,1.67139-1.6709-.75-1.67139-1.67139-1.67139ZM19.5786,22.75c-1.74854,0-3.1709-1.42236-3.1709-3.1709s1.42236-3.17139,3.1709-3.17139,3.17139,1.42285,3.17139,3.17139-1.42285,3.1709-3.17139,3.1709ZM19.5786,17.90771c-.92139,0-1.6709.75-1.6709,1.67139s.74951,1.6709,1.6709,1.6709,1.67139-.74951,1.67139-1.6709-.75-1.67139-1.67139-1.67139Z"/></svg>