<?xml version="1.0" encoding="UTF-8"?><svg id="a" xmlns="http://www.w3.org/2000/svg" viewBox="0 0 24 24"><path d="M5.42139,2.25049c-1.74854,0-3.17139,1.42188-3.17139,3.1709,0,1.74805,1.42285,3.1709,3.17139,3.1709s3.1709-1.42285,3.1709-3.1709c0-1.74902-1.42236-3.1709-3.1709-3.1709ZM5.42139,7.09229c-.92139,0-1.67139-.75-1.67139-1.6709,0-.92188.75-1.6709,1.67139-1.6709s1.6709.74902,1.6709,1.6709c0,.9209-.74951,1.6709-1.6709,1.6709ZM12,2.25049c-1.74854,0-3.17139,1.42188-3.17139,3.1709,0,1.74805,1.42285,3.1709,3.17139,3.1709s3.17139-1.42285,3.17139-3.1709c0-1.74902-1.42285-3.1709-3.17139-3.1709ZM12,7.09229c-.92139,0-1.67139-.75-1.67139-1.6709,0-.92188.75-1.6709,1.67139-1.6709s1.67139.74902,1.67139,1.6709c0,.9209-.75,1.6709-1.67139,1.6709ZM18.57861,8.59229c1.74854,0,3.17139-1.42285,3.17139-3.1709,0-1.74902-1.42285-3.1709-3.17139-3.1709s-3.1709,1.42188-3.1709,3.1709c0,1.74805,1.42236,3.1709,3.1709,3.1709ZM18.57861,3.75049c.92139,0,1.67139.74902,1.67139,1.6709,0,.9209-.75,1.6709-1.67139,1.6709s-1.6709-.75-1.6709-1.6709c0-.92188.74951-1.6709,1.6709-1.6709ZM5.42139,8.82862c-1.74854,0-3.17139,1.42285-3.17139,3.17188,0,1.74805,1.42285,3.1709,3.17139,3.1709s3.1709-1.42285,3.1709-3.1709c0-1.74902-1.42236-3.17188-3.1709-3.17188ZM5.42139,13.67139c-.92139,0-1.67139-.75-1.67139-1.6709,0-.92188.75-1.67188,1.67139-1.67188s1.6709.75,1.6709,1.67188c0,.9209-.74951,1.6709-1.6709,1.6709ZM12,8.82862c-1.74854,0-3.17139,1.42285-3.17139,3.17188,0,1.74805,1.42285,3.1709,3.17139,3.1709s3.17139-1.42285,3.17139-3.1709c0-1.74902-1.42285-3.17188-3.17139-3.17188ZM12,13.67139c-.92139,0-1.67139-.75-1.67139-1.6709,0-.92188.75-1.67188,1.67139-1.67188s1.67139.75,1.67139,1.67188c0,.9209-.75,1.6709-1.67139,1.6709ZM18.57861,8.82862c-1.74854,0-3.1709,1.42285-3.1709,3.17188,0,1.74805,1.42236,3.1709,3.1709,3.1709s3.17139-1.42285,3.17139-3.1709c0-1.74902-1.42285-3.17188-3.17139-3.17188ZM18.57861,13.67139c-.92139,0-1.6709-.75-1.6709-1.6709,0-.92188.74951-1.67188,1.6709-1.67188s1.67139.75,1.67139,1.67188c0,.9209-.75,1.6709-1.67139,1.6709ZM5.42139,15.40772c-1.74854,0-3.17139,1.42285-3.17139,3.1709,0,1.74902,1.42285,3.17188,3.17139,3.17188s3.1709-1.42285,3.1709-3.17188c0-1.74805-1.42236-3.1709-3.1709-3.1709ZM5.42139,20.25049c-.92139,0-1.67139-.75-1.67139-1.67188,0-.9209.75-1.6709,1.67139-1.6709s1.6709.75,1.6709,1.6709c0,.92188-.74951,1.67188-1.6709,1.67188ZM12,15.43994c-1.74854,0-3.17139,1.42188-3.17139,3.1709,0,1.74805,1.42285,3.1709,3.17139,3.1709s3.17139-1.42285,3.17139-3.1709c0-1.74902-1.42285-3.1709-3.17139-3.1709ZM12,20.28174c-.92139,0-1.67139-.75-1.67139-1.6709,0-.92188.75-1.6709,1.67139-1.6709s1.67139.74902,1.67139,1.6709c0,.9209-.75,1.6709-1.67139,1.6709ZM18.57861,15.40772c-1.74854,0-3.1709,1.42285-3.1709,3.1709,0,1.74902,1.42236,3.17188,3.1709,3.17188s3.17139-1.42285,3.17139-3.17188c0-1.74805-1.42285-3.1709-3.17139-3.1709ZM18.57861,20.25049c-.92139,0-1.6709-.75-1.6709-1.67188,0-.9209.74951-1.6709,1.6709-1.6709s1.67139.75,1.67139,1.6709c0,.92188-.75,1.67188-1.67139,1.67188Z"/></svg>