<svg xmlns="http://www.w3.org/2000/svg" viewBox="0 0 15.05078 15.05078"><title>Apps</title>
	<path
		d="M7.52539,9.81738a2.292,2.292,0,1,0-2.292-2.292A2.29434,2.29434,0,0,0,7.52539,9.81738Zm0-3.834a1.542,1.542,0,1,1-1.542,1.542A1.5432,1.5432,0,0,1,7.52539,5.9834Z"
		fill="#171717"/>
	<path
		d="M2.2915,0a2.29151,2.29151,0,1,0,2.292,2.291A2.29351,2.29351,0,0,0,2.2915,0Zm0,3.833a1.54151,1.54151,0,1,1,1.542-1.542A1.54322,1.54322,0,0,1,2.2915,3.833Z"
		fill="#171717"/>
	<path
		d="M7.52539,0a2.29151,2.29151,0,1,0,2.292,2.291A2.29393,2.29393,0,0,0,7.52539,0Zm0,3.833a1.54151,1.54151,0,1,1,1.542-1.542A1.54363,1.54363,0,0,1,7.52539,3.833Z"
		fill="#171717"/>
	<path
		d="M12.75928,4.583a2.29151,2.29151,0,1,0-2.292-2.292A2.29434,2.29434,0,0,0,12.75928,4.583Zm0-3.833a1.54151,1.54151,0,1,1-1.542,1.541A1.543,1.543,0,0,1,12.75928.75Z"
		fill="#171717"/>
	<path
		d="M2.2915,5.2334a2.292,2.292,0,1,0,2.292,2.292A2.29434,2.29434,0,0,0,2.2915,5.2334Zm0,3.834a1.542,1.542,0,1,1,1.542-1.542A1.54384,1.54384,0,0,1,2.2915,9.06738Z"
		fill="#171717"/>
	<path
		d="M12.75928,5.2334a2.292,2.292,0,1,0,2.2915,2.292A2.29476,2.29476,0,0,0,12.75928,5.2334Zm0,3.834a1.542,1.542,0,1,1,1.5415-1.542A1.54425,1.54425,0,0,1,12.75928,9.06738Z"
		fill="#171717"/>
	<path
		d="M2.2915,10.4668a2.292,2.292,0,1,0,2.292,2.292A2.29434,2.29434,0,0,0,2.2915,10.4668Zm0,3.834a1.542,1.542,0,1,1,1.542-1.542A1.54321,1.54321,0,0,1,2.2915,14.30078Z"
		fill="#171717"/>
	<path
		d="M7.52539,10.4668a2.292,2.292,0,1,0,2.292,2.292A2.29476,2.29476,0,0,0,7.52539,10.4668Zm0,3.834a1.542,1.542,0,1,1,1.542-1.542A1.54362,1.54362,0,0,1,7.52539,14.30078Z"
		fill="#171717"/>
	<path
		d="M12.75928,10.4668a2.292,2.292,0,1,0,2.2915,2.292A2.29476,2.29476,0,0,0,12.75928,10.4668Zm0,3.834a1.542,1.542,0,1,1,1.5415-1.542A1.54362,1.54362,0,0,1,12.75928,14.30078Z"
		fill="#171717"/>
</svg>
