<svg xmlns="http://www.w3.org/2000/svg" viewBox="0 0 24 24"><title>Apps</title><path d="M5.42139,2.25049a3.1709,3.1709,0,1,0,3.1709,3.1709A3.17447,3.17447,0,0,0,5.42139,2.25049Zm0,4.8418a1.6709,1.6709,0,1,1,1.6709-1.6709A1.67346,1.67346,0,0,1,5.42139,7.09229Z" fill="#171717"/><path d="M12,2.25049a3.1709,3.1709,0,1,0,3.17139,3.1709A3.17447,3.17447,0,0,0,12,2.25049Zm0,4.8418a1.6709,1.6709,0,1,1,1.67139-1.6709A1.67346,1.67346,0,0,1,12,7.09229Z" fill="#171717"/><path d="M18.57861,8.59229a3.1709,3.1709,0,1,0-3.1709-3.1709A3.1751,3.1751,0,0,0,18.57861,8.59229Zm0-4.8418a1.6709,1.6709,0,1,1-1.6709,1.6709A1.67283,1.67283,0,0,1,18.57861,3.75049Z" fill="#171717"/><path d="M5.42139,8.82862a3.17139,3.17139,0,1,0,3.1709,3.17187A3.1753,3.1753,0,0,0,5.42139,8.82862Zm0,4.84277a1.67139,1.67139,0,1,1,1.6709-1.6709A1.67346,1.67346,0,0,1,5.42139,13.67139Z" fill="#171717"/><path d="M12,8.82862a3.17139,3.17139,0,1,0,3.17139,3.17187A3.1753,3.1753,0,0,0,12,8.82862Zm0,4.84277a1.67139,1.67139,0,1,1,1.67139-1.6709A1.67346,1.67346,0,0,1,12,13.67139Z" fill="#171717"/><path d="M18.57861,8.82862A3.17139,3.17139,0,1,0,21.75,12.00049,3.17489,3.17489,0,0,0,18.57861,8.82862Zm0,4.84277A1.67139,1.67139,0,1,1,20.25,12.00049,1.673,1.673,0,0,1,18.57861,13.67139Z" fill="#171717"/><path d="M5.42139,15.40772a3.17139,3.17139,0,1,0,3.1709,3.1709A3.1751,3.1751,0,0,0,5.42139,15.40772Zm0,4.84277a1.67139,1.67139,0,1,1,1.6709-1.67187A1.67366,1.67366,0,0,1,5.42139,20.25049Z" fill="#171717"/><path d="M12,15.43994a3.1709,3.1709,0,1,0,3.17139,3.1709A3.17447,3.17447,0,0,0,12,15.43994Zm0,4.8418a1.6709,1.6709,0,1,1,1.67139-1.6709A1.67346,1.67346,0,0,1,12,20.28174Z" fill="#171717"/><path d="M18.57861,15.40772A3.17139,3.17139,0,1,0,21.75,18.57862,3.17468,3.17468,0,0,0,18.57861,15.40772Zm0,4.84277A1.67139,1.67139,0,1,1,20.25,18.57862,1.67325,1.67325,0,0,1,18.57861,20.25049Z" fill="#171717"/></svg>