<?xml version="1.0" encoding="UTF-8"?><svg id="a" xmlns="http://www.w3.org/2000/svg" viewBox="0 0 24 24"><path d="M16.81689,8.98194l-.53027-.20898-.34326.45508c-.31866.42188-1.12146.8623-2.27509,1.09082l5.90009-5.91895-2.4624-2.45215-7.98297,8.00879c-.48566-.20703-.86584-.46289-1.06635-.72852l-.34326-.45508-.53027.20898c-3.0625,1.20605-4.96484,3.49316-4.96484,5.9707,0,3.77637,4.38818,6.84863,9.78174,6.84863,2.00977,0,3.93848-.41895,5.57715-1.21094,2.63281-1.27246,4.20459-3.37988,4.20459-5.6377,0-2.47754-1.90234-4.76465-4.96484-5.9707ZM17.10986,4.06885l.33594.33496-4.3252,4.33496h.00049l-4.19531,4.21289-.33594-.33496,8.52002-8.54785ZM8.19092,14.33643c-.01172.26855-.10156.48633-.2749.67188-.25.26855-.68848.47559-1.23438.60059.05469-.27246.06592-.53418.07568-.75879.02637-.60547.04297-.98633.6167-1.32715l.81689.81348ZM16.9248,19.23975c-1.43701.69434-3.13965,1.06152-4.9248,1.06152-4.56641,0-8.28174-2.39941-8.28174-5.34863,0-1.72949,1.34912-3.37695,3.55371-4.37988.20917.18457.45679.35254.73267.50586l-.9021.90527c-1.75537.76562-1.80811,1.98633-1.84375,2.80176-.02734.63672-.05371.83008-.45703,1.03418l.31104,1.41895c.0835.00293.1792.00488.28564.00488.92383,0,2.63086-.15625,3.61523-1.21289.43799-.46973.66895-1.05957.67822-1.72266l2.32013-2.32715c1.95715-.00293,3.72247-.54199,4.71454-1.40918,2.20557,1.00293,3.55518,2.65039,3.55518,4.38086,0,1.66797-1.25488,3.27148-3.35693,4.28711ZM12.01514,15.23487c-1.10254-.04004-2.01514.89844-2.01709,2.00879-.00146,1.10938.8999,2.01465,2.00928,2.0166h.00439c1.10791,0,2.01025-.90039,2.0127-2.00879.00146-1.10938-.8999-2.01465-2.00928-2.0166ZM12.37354,17.61084c-.09717.09668-.22559.14941-.3623.14941h-.00098c-.28271,0-.5127-.23145-.51221-.51367.00049-.13672.05371-.26562.15088-.3623s.22559-.14941.3623-.14941h.00098c.28271,0,.5127.23145.51221.51367-.00049.13672-.05371.26562-.15088.3623ZM16.58691,14.09229h-.00439c-1.10791,0-2.01025.90039-2.0127,2.00879-.00098.53809.20752,1.04395.58691,1.4248s.88428.5918,1.42236.59277h.00439c.53564,0,1.04004-.20898,1.41992-.58691.38135-.37988.59131-.88477.59229-1.42285.00098-.53711-.20703-1.04297-.58691-1.42383-.37939-.38086-.88428-.5918-1.42188-.59277ZM16.94482,16.46924c-.09668.0957-.2251.14941-.36182.14941h-.00098c-.13721-.00098-.26611-.05371-.36279-.15137-.09668-.09668-.1499-.22559-.14941-.36328.00049-.28223.23047-.51172.51318-.51172h.00098c.13672.00098.26562.05371.3623.15137.09668.09668.1499.22559.14941.36328,0,.13672-.05371.26562-.15088.3623Z"/></svg>