<svg xmlns="http://www.w3.org/2000/svg" viewBox="0 0 15.05078 15.35449"><title>Art</title>
	<path
		d="M11.2583,5.62793l-.26514-.10449-.17138.22754a3.50035,3.50035,0,0,1-2.19336.99218l5.08935-5.11035L12.07861,0,5.86035,6.24414a3.11136,3.11136,0,0,0-.46112.24219A2.55471,2.55471,0,0,1,4.229,5.751l-.17138-.22754-.26514.10449C1.45313,6.54785,0,8.28125,0,10.15039c0,2.86914,3.376,5.2041,7.52539,5.2041a9.974,9.974,0,0,0,4.32031-.9375c2.00684-.96972,3.20508-2.56445,3.20508-4.2666C15.05078,8.28125,13.59766,6.54785,11.2583,5.62793Zm.82227-4.56738.57666.57422-5.47754,5.501L6.603,6.56152ZM5.98975,7.00879l.82666.82324a1.0402,1.0402,0,0,1-.27686.77149,2.46342,2.46342,0,0,1-1.4458.60449,2.54384,2.54384,0,0,0,.1499-.88867A1.22033,1.22033,0,0,1,5.98975,7.00879Zm5.52978,6.7334a9.23526,9.23526,0,0,1-3.99414.8623c-3.73584,0-6.77539-1.998-6.77539-4.4541C.75,8.6582,1.92139,7.24805,3.82568,6.4248a3.25682,3.25682,0,0,0,.98078.63477,2.32643,2.32643,0,0,0-.31232,1.22754c-.02246.52539-.05273.78809-.48193,1.00488l.15576.709c.06445.00293.13867.0039.2207.0039a3.81536,3.81536,0,0,0,2.69922-.89062,1.79429,1.79429,0,0,0,.478-1.30371l.23846-.23926A5.31553,5.31553,0,0,0,11.22461,6.4248c1.9043.82227,3.07617,2.2334,3.07617,3.72559C14.30078,11.55762,13.26123,12.90039,11.51953,13.74219Z"
		fill="#171717"/>
	<path
		d="M5.52734,11.26465H5.52539A1.11768,1.11768,0,0,0,5.52344,13.5h.00195a1.11768,1.11768,0,0,0,.00195-2.23535ZM5.52539,12.75a.3895.3895,0,0,1-.26074-.1084.36718.36718,0,0,1,.26074-.627h.00049a.36768.36768,0,0,1-.00049.73535Z"
		fill="#171717"/>
	<path
		d="M9.33105,11.27148H9.3291a1.11768,1.11768,0,0,0-.00244,2.23536h.00293a1.11768,1.11768,0,0,0,.00146-2.23536Zm.25733,1.37891a.36662.36662,0,0,1-.25879.10645H9.32813a.36768.36768,0,0,1,.001-.73536.38878.38878,0,0,1,.26074.1084.36838.36838,0,0,1-.00146.52051Z"
		fill="#171717"/>
	<path
		d="M11.96484,9.43652h-.002a1.11768,1.11768,0,0,0-.00195,2.23536h.00244a1.11768,1.11768,0,0,0,.00146-2.23536Zm.25782,1.37793a.36459.36459,0,0,1-.25928.10743h-.00147a.37.37,0,0,1-.25976-.1084.36771.36771,0,0,1,.26074-.627.38463.38463,0,0,1,.26074.10743.369.369,0,0,1-.001.5205Z"
		fill="#171717"/>
	<path
		d="M2.93848,9.418h-.002a1.11817,1.11817,0,0,0-.00195,2.23633h.00195a1.11817,1.11817,0,0,0,.002-2.23633Zm-.002,1.48633a.34235.34235,0,0,1-.26074-.1084.36817.36817,0,0,1,.26074-.62793H2.937a.36817.36817,0,0,1-.00049.73633Z"
		fill="#171717"/>
</svg>
