<svg xmlns="http://www.w3.org/2000/svg" viewBox="0 0 24 24"><title>Art</title><path d="M16.81689,8.98194l-.53027-.209-.34326.45508a3.91539,3.91539,0,0,1-2.27509,1.09082L19.56836,4.3999,17.106,1.94776,9.123,9.95654A2.66059,2.66059,0,0,1,8.05664,9.228L7.71338,8.773l-.53027.209c-3.0625,1.206-4.96485,3.49316-4.96485,5.9707,0,3.77637,4.38819,6.84863,9.78174,6.84863a12.88415,12.88415,0,0,0,5.57715-1.21094c2.63281-1.27246,4.20459-3.37988,4.20459-5.63769C21.78174,12.4751,19.87939,10.188,16.81689,8.98194Zm.293-4.91309.33594.335-4.32519,4.335h.00048L8.92578,12.95166l-.33594-.335ZM8.19092,14.33643a1.0041,1.0041,0,0,1-.2749.67187,2.44914,2.44914,0,0,1-1.23438.60059,4.84549,4.84549,0,0,0,.07568-.75879c.02637-.60547.043-.98633.6167-1.32715Zm8.73388,4.90332A11.38059,11.38059,0,0,1,12,20.30127c-4.56641,0-8.28174-2.39941-8.28174-5.34863,0-1.72949,1.34912-3.377,3.55371-4.37988a4.16182,4.16182,0,0,0,.73267.50586l-.9021.90527a2.75221,2.75221,0,0,0-1.84375,2.80176c-.02734.63672-.05371.83007-.457,1.03418l.311,1.41894c.0835.00293.1792.00488.28565.00488a5.0901,5.0901,0,0,0,3.61523-1.21289,2.52,2.52,0,0,0,.67822-1.72265L12.012,11.981a7.4412,7.4412,0,0,0,4.71454-1.40918c2.20557,1.00293,3.55518,2.65039,3.55518,4.38086C20.28174,16.62061,19.02686,18.22412,16.9248,19.23975Z" fill="#171717"/><path d="M12.01514,15.23487A1.99542,1.99542,0,0,0,9.998,17.24365a2.01626,2.01626,0,0,0,2.00927,2.01661h.0044a2.0127,2.0127,0,0,0,.00342-4.02539Zm.3584,2.376a.50973.50973,0,0,1-.36231.14942h-.001a.5127.5127,0,1,1,.001-1.02539h.001a.51272.51272,0,0,1,.36133.876Z" fill="#171717"/><path d="M16.58691,14.09229h-.00439a2.01318,2.01318,0,0,0-.00342,4.02636h.0044a2.01318,2.01318,0,0,0,.00341-4.02636Zm.35791,2.37695a.51181.51181,0,0,1-.36181.14941h-.001a.51318.51318,0,0,1,.001-1.02636h.001a.51341.51341,0,0,1,.36084.87695Z" fill="#171717"/></svg>