<?xml version="1.0" encoding="UTF-8"?><svg id="a" xmlns="http://www.w3.org/2000/svg" viewBox="0 0 24 24"><path d="M22.84644,18.55696l-2.54028.80762c-.44836.1416-.79956.49316-.94202.94141l-.80701,2.54004c-.11072.34863-.60352.34863-.71411,0l-.80713-2.54004c-.14246-.44824-.49365-.7998-.94202-.94141l-2.54016-.80762c-.34839-.11035-.34839-.60352,0-.71387l2.54016-.80762c.44836-.1416.79956-.49316.94202-.94141l.80713-2.54004c.1106-.34863.60339-.34863.71411,0l.80701,2.54004c.14246.44824.49365.7998.94202.94141l2.54028.80762c.34814.11035.34814.60352,0,.71387ZM2.74976,2.75032h15.3623v9.25293h1.5V1.25032H1.24976v18.36133h10.74707v-1.5H2.74976V2.75032ZM9.57886,6.41243l2.92773,7.82031h-1.71387l-.54199-1.61133h-2.8252l-.53711,1.61133h-1.71387l2.91113-7.82031h1.49316ZM9.81519,11.31575l-.98242-2.92676-.97266,2.92676h1.95508ZM15.04175,14.23275v-7.82031h-1.61133v7.82031h1.61133Z"/></svg>