<?xml version="1.0" encoding="UTF-8"?><svg id="a" xmlns="http://www.w3.org/2000/svg" viewBox="0 0 24 24"><path d="M13.12256,21.74995c-1.50537,0-3.02881-1.14062-3.02881-3.32129V7.76753c0-1.34375,1.02393-2.06934,1.98779-2.06934s1.98779.72559,1.98779,2.06934v6.42969h-1.5v-6.42969c0-.51367-.34131-.56934-.48779-.56934s-.48779.05566-.48779.56934v10.66113c0,1.25879.76807,1.82129,1.52881,1.82129s1.52881-.5625,1.52881-1.82129V6.6855c0-2.02832-1.28613-2.93555-2.56055-2.93555s-2.56055.90723-2.56055,2.93555v7.47363h-1.5v-7.47363c0-2.91211,2.04248-4.43555,4.06055-4.43555s4.06055,1.52344,4.06055,4.43555v11.74316c0,2.18066-1.52393,3.32129-3.02881,3.32129Z"/></svg>