<?xml version="1.0" encoding="UTF-8"?><svg id="a" xmlns="http://www.w3.org/2000/svg" viewBox="0 0 24 24"><path d="M11.99976,22.75c-2.56006,0-5.15234-1.94141-5.15234-5.65186V5.41992c0-2.73755,1.90186-4.16992,3.78027-4.16992,1.87891,0,3.78076,1.43237,3.78076,4.16992v12.0459c0,3.2876-4.79199,3.2876-4.79199,0V7.5437h1.5v9.92212c0,.95557.74658,1.00391.896,1.00391s.896-.04834.896-1.00391V5.41992c0-1.84424-1.14551-2.66992-2.28076-2.66992-1.13477,0-2.28027.82568-2.28027,2.66992v11.67822c0,2.85254,1.89355,4.15186,3.65234,4.15186,1.75928,0,3.65283-1.29932,3.65283-4.15186V7.5437h1.5v9.55444c0,3.71045-2.59229,5.65186-5.15283,5.65186Z"/></svg>