<svg xmlns="http://www.w3.org/2000/svg" viewBox="0 0 14.83398 16.28906"><title>AudioMute</title>
	<rect x="-2.7478" y="7.76957" width="20.32959" height="0.74993" transform="translate(-3.58918 7.6869) rotate(-45.29582)" fill="#171717"/>
	<polygon
		points="3.427 10.576 3.184 10.576 3.184 5.69 7.279 5.69 7.279 6.684 8.029 5.926 8.029 5.478 11.69 1.813 11.69 2.228 12.44 1.471 12.44 0 7.505 4.94 2.434 4.94 2.434 11.326 2.684 11.326 3.427 10.576"
		fill="#171717"/>
	<polygon
		points="11.69 14.477 8.029 10.811 8.029 9.125 7.279 9.883 7.279 10.576 6.593 10.576 5.851 11.326 7.485 11.326 12.44 16.289 12.44 4.669 11.69 5.427 11.69 14.477"
		fill="#171717"/>
</svg>
