<svg xmlns="http://www.w3.org/2000/svg" viewBox="0 0 24 24"><title>AudioDescription</title><path d="M4.35693,7.95752,1.2417,15.77783H2.73145l.66845-1.82129H6.59424l.67431,1.82129H8.76367L5.64258,7.95752Zm-.55517,4.90332L4.99707,9.6167l1.19531,3.24414Z" fill="#171717"/><path d="M13.25684,8.41944a3.97736,3.97736,0,0,0-1.93995-.46192H8.88135v7.82031h2.373a4.17067,4.17067,0,0,0,1.98-.457,3.18991,3.18991,0,0,0,1.331-1.2998,3.966,3.966,0,0,0,.46728-1.95508v-.3916A3.98364,3.98364,0,0,0,14.56836,9.73,3.22284,3.22284,0,0,0,13.25684,8.41944Zm.33691,3.68457a2.81118,2.81118,0,0,1-.61426,1.91992,2.20939,2.20939,0,0,1-1.73047.66894h-.93457V9.05322h1.00244a2.12377,2.12377,0,0,1,1.69385.6709,2.88329,2.88329,0,0,1,.583,1.94434Z" fill="#171717"/><path d="M21.36279,7.96143l-1.15722.9541a5.05224,5.05224,0,0,1-.00049,6.16894l1.1582.95411A6.61449,6.61449,0,0,0,21.36279,7.96143Z" fill="#171717"/><path d="M18.9375,7.96143l-1.15723.9541a5.05225,5.05225,0,0,1-.00048,6.16894l1.1582.95411A6.61449,6.61449,0,0,0,18.9375,7.96143Z" fill="#171717"/><path d="M16.51221,7.96143l-1.15723.9541a5.05224,5.05224,0,0,1-.00049,6.16894l1.15821.95411A6.61449,6.61449,0,0,0,16.51221,7.96143Z" fill="#171717"/></svg>