<svg xmlns="http://www.w3.org/2000/svg" viewBox="0 0 24.75 24.75"><defs><style>.cls-1{fill:none;stroke:#171717;stroke-miterlimit:10;stroke-width:0.75px;}.cls-2{fill:#171717;}</style></defs><title>Audio</title><g id="Ebene_2" data-name="Ebene 2"><g id="Ebene_1-2" data-name="Ebene 1"><rect class="cls-1" x="0.375" y="0.375" width="24" height="24"/><path class="cls-2" d="M18.36981,8.55194l-.53028.53027a4.54847,4.54847,0,0,1,0,6.42383l.53028.53027A5.29909,5.29909,0,0,0,18.36981,8.55194Z"/><path class="cls-2" d="M15.718,11.20428a1.54279,1.54279,0,0,1,0,2.17969l.53027.53027a2.29337,2.29337,0,0,0,0-3.24023Z"/><path class="cls-2" d="M4.82244,9.07733v6.38476H9.87322L14.8283,20.425V4.13592L9.89422,9.07733Zm4.84571,5.63476H5.57244V9.82733H9.66815Zm.75-5.09863,3.66015-3.665V18.61249l-3.66015-3.666Z"/></g></g></svg>
