<svg xmlns="http://www.w3.org/2000/svg" viewBox="0 0 24.75 24.75"><defs><style>.cls-1{fill:none;stroke:#171717;stroke-miterlimit:10;stroke-width:0.75px;}</style></defs><title>AudioDescription</title><g id="Ebene_2" data-name="Ebene 2"><g id="Ebene_1-2" data-name="Ebene 1"><rect class="cls-1" x="0.375" y="0.375" width="24" height="24"/><path d="M16.2724,9.17529l-.59668.45411a4.5438,4.5438,0,0,1,.001,5.49121l.59766.45312a5.2934,5.2934,0,0,0-.00195-6.39844Z"/><path d="M17.92279,9.17627l-.59668.45313a4.54284,4.54284,0,0,1,.00048,5.49121l.59766.45312a5.291,5.291,0,0,0-.00146-6.39746Z"/><path d="M19.57318,9.17627l-.59668.45313a4.54474,4.54474,0,0,1,.00049,5.49121l.59765.45312a5.29478,5.29478,0,0,0-.00146-6.39746Z"/><path d="M6.53265,9.186,3.95648,15.58447h.918l.63476-1.6748H8.33636l.64356,1.6748H9.893L7.312,9.186Zm-.75488,4.03418L6.9223,10.22705l1.14941,2.99317Z"/><path d="M13.69085,9.55518A3.19877,3.19877,0,0,0,12.13324,9.186h-1.9043v6.39843H12.0971a3.4046,3.4046,0,0,0,1.5918-.374,2.5255,2.5255,0,0,0,1.05176-1.0459,3.2876,3.2876,0,0,0,.36816-1.58593v-.40918a3.26614,3.26614,0,0,0-.373-1.56446A2.55265,2.55265,0,0,0,13.69085,9.55518Zm.53809,3.0039a2.42469,2.42469,0,0,1-.57324,1.72852,2.09332,2.09332,0,0,1-1.60059.60644h-.93652V9.87549h1.03808a1.97589,1.97589,0,0,1,1.53223.61328,2.46327,2.46327,0,0,1,.54,1.69629Z"/></g></g></svg>
