<?xml version="1.0" encoding="UTF-8"?><svg id="a" xmlns="http://www.w3.org/2000/svg" viewBox="0 0 24 24"><path d="M2.25,7.60401v8.61816h6.5415l6.64941,6.65918V.97119l-6.62256,6.63281H2.25ZM8.37061,14.72217H3.75v-5.61816h4.62061v5.61816ZM9.87061,8.67334l4.07031-4.07715v14.66016l-4.07031-4.07715v-6.50586ZM19.71143,16.83447l-1.06055-1.06055c2.12891-2.12891,2.12891-5.59277,0-7.72168l1.06055-1.06055c2.71387,2.71387,2.71387,7.12891,0,9.84277ZM17.03174,9.67041c1.23633,1.23633,1.23633,3.24902,0,4.48535l-1.06055-1.06055c.31592-.31641.48975-.73535.48975-1.18164,0-.44727-.17383-.86621-.48975-1.18262l1.06055-1.06055Z"/></svg>