<svg xmlns="http://www.w3.org/2000/svg" viewBox="0 0 16.69287 6.40918"><title>AudioDescription</title>
	<path d="M12.31592,0l-.59668.4541a4.54376,4.54376,0,0,1,.001,5.49121l.59766.45313a5.24462,5.24462,0,0,0,1.0752-3.19824A5.24494,5.24494,0,0,0,12.31592,0Z"
		  fill="#171717"/>
	<path d="M13.96631.001,13.36963.4541a4.54282,4.54282,0,0,1,.00049,5.49121l.59765.45313A5.29094,5.29094,0,0,0,13.96631.001Z" fill="#171717"/>
	<path d="M15.6167.001,15.02.4541a4.54474,4.54474,0,0,1,.00049,5.49121l.59765.45313A5.24415,5.24415,0,0,0,16.69287,3.2002,5.24325,5.24325,0,0,0,15.6167.001Z"
		  fill="#171717"/>
	<path d="M2.57617.01074,0,6.40918H.918l.63476-1.6748H4.37988l.64356,1.6748h.91308L3.35547.01074ZM1.82129,4.04492,2.96582,1.05176,4.11523,4.04492Z"
		  fill="#171717"/>
	<path
		d="M9.73438.37988A3.199,3.199,0,0,0,8.17676.01074H6.27246V6.40918H8.14063a3.4048,3.4048,0,0,0,1.59179-.374,2.5255,2.5255,0,0,0,1.05176-1.0459,3.2875,3.2875,0,0,0,.36816-1.58594V2.99414a3.26621,3.26621,0,0,0-.373-1.56445A2.55279,2.55279,0,0,0,9.73438.37988Zm.53808,3.00391A2.42466,2.42466,0,0,1,9.69922,5.1123a2.09332,2.09332,0,0,1-1.60059.60645H7.16211V.7002H8.2002a1.97582,1.97582,0,0,1,1.53222.61328,2.46322,2.46322,0,0,1,.54,1.69629Z"
		fill="#171717"/>
</svg>
