<svg xmlns="http://www.w3.org/2000/svg" viewBox="0 0 24 24"><title>AudioDescription</title><path d="M15.91406,8.80029l-.59668.45411a4.54378,4.54378,0,0,1,.001,5.49121l.59766.45312a5.29338,5.29338,0,0,0-.002-6.39844Z" fill="#171717"/><path d="M17.56445,8.80127l-.59668.45313a4.54282,4.54282,0,0,1,.00049,5.49121l.59766.45312a5.291,5.291,0,0,0-.00147-6.39746Z" fill="#171717"/><path d="M19.21484,8.80127l-.59668.45313a4.54474,4.54474,0,0,1,.00049,5.49121l.59766.45312a5.29476,5.29476,0,0,0-.00147-6.39746Z" fill="#171717"/><path d="M6.17432,8.811,3.59814,15.20947h.918l.63477-1.6748H7.978l.64355,1.6748h.91309L6.95361,8.811Zm-.75489,4.03418L6.564,9.85205l1.14942,2.99317Z" fill="#171717"/><path d="M13.33252,9.18018A3.19881,3.19881,0,0,0,11.7749,8.811H9.87061v6.39843h1.86816a3.4046,3.4046,0,0,0,1.5918-.374,2.52548,2.52548,0,0,0,1.05175-1.0459,3.28749,3.28749,0,0,0,.36817-1.58593v-.40918a3.26614,3.26614,0,0,0-.373-1.56446A2.55271,2.55271,0,0,0,13.33252,9.18018Zm.53809,3.0039a2.42465,2.42465,0,0,1-.57325,1.72852,2.09331,2.09331,0,0,1-1.60058.60644h-.93653V9.50049h1.03809a1.97592,1.97592,0,0,1,1.53223.61328,2.46327,2.46327,0,0,1,.54,1.69629Z" fill="#171717"/></svg>