<svg xmlns="http://www.w3.org/2000/svg" viewBox="0 0 24.75 24.75"><defs><style>.cls-1{fill:none;stroke:#171717;stroke-miterlimit:10;stroke-width:0.75px;}.cls-2{fill:#171717;}</style></defs><title>AudioMute</title><g id="Ebene_2" data-name="Ebene 2"><g id="Ebene_1-2" data-name="Ebene 1"><rect class="cls-1" x="0.375" y="0.375" width="24" height="24"/><rect class="cls-2" x="2.2102" y="11.92631" width="20.32959" height="0.74993" transform="translate(-5.07326 12.44349) rotate(-45.29582)"/><polygon class="cls-2" points="8.385 14.733 8.142 14.733 8.142 9.847 12.237 9.847 12.237 10.84 12.987 10.083 12.987 9.634 16.648 5.969 16.648 6.384 17.398 5.627 17.398 4.157 12.463 9.097 7.392 9.097 7.392 15.483 7.642 15.483 8.385 14.733"/><polygon class="cls-2" points="16.648 18.633 12.987 14.967 12.987 13.282 12.237 14.04 12.237 14.733 11.551 14.733 10.809 15.483 12.443 15.483 17.398 20.446 17.398 8.826 16.648 9.583 16.648 18.633"/></g></g></svg>
