<?xml version="1.0" encoding="UTF-8"?><svg id="a" xmlns="http://www.w3.org/2000/svg" viewBox="0 0 24 24"><path d="M4.17157,8.29443l-2.75244,7.39355h1.61963l.50781-1.52344h2.67139l.5127,1.52344h1.62012l-2.76758-7.39355h-1.41162ZM3.95819,12.93018l.91895-2.76758.9292,2.76758h-1.84814ZM13.11591,8.73291c-.51318-.29199-1.09473-.43848-1.74463-.43848h-2.2749v7.39355h2.29004c.64697-.00391,1.22754-.15234,1.74219-.44727.51416-.29395.91309-.70898,1.1958-1.24414s.42383-1.14551.42383-1.83301v-.33984c0-.6875-.14404-1.30078-.43164-1.84082s-.68799-.95703-1.20068-1.25ZM13.20477,12.20947c-.00684.72461-.16797,1.28125-.48242,1.6709-.31494.38867-.77051.58398-1.36621.58398h-.73633v-4.93652h.75146c.59912,0,1.05469.19434,1.36621.58203s.46729.95703.46729,1.70801v.3916ZM21.34637,16.03857l-1.1582-.9541c1.40234-1.7002,1.40234-4.46777,0-6.16895l1.1582-.9541c1.83496,2.22754,1.83496,5.85059,0,8.07715ZM18.92157,16.03857l-1.1582-.9541c1.40137-1.7002,1.40137-4.46777,0-6.16895l1.1582-.9541c1.83398,2.22754,1.83398,5.85059,0,8.07715ZM16.49579,16.03857l-1.15723-.9541c1.40137-1.7002,1.40137-4.46777,0-6.16895l1.15723-.9541c1.83496,2.22754,1.83496,5.85059,0,8.07715Z"/></svg>