<svg xmlns="http://www.w3.org/2000/svg" viewBox="0 0 24 24"><title>AudioMute</title><rect x="1.8352" y="11.55131" width="20.32959" height="0.74993" transform="translate(-4.91793 12.06575) rotate(-45.29582)" fill="#171717"/><polygon points="8.01 14.358 7.767 14.358 7.767 9.472 11.862 9.472 11.862 10.465 12.612 9.708 12.612 9.259 16.273 5.594 16.273 6.009 17.023 5.252 17.023 3.782 12.088 8.722 7.017 8.722 7.017 15.108 7.267 15.108 8.01 14.358" fill="#171717"/><polygon points="16.273 18.258 12.612 14.592 12.612 12.907 11.862 13.665 11.862 14.358 11.176 14.358 10.434 15.108 12.068 15.108 17.023 20.071 17.023 8.451 16.273 9.208 16.273 18.258" fill="#171717"/></svg>