<svg xmlns="http://www.w3.org/2000/svg" viewBox="0 0 24.75 24.75"><defs><style>.cls-1{fill:none;stroke:#171717;stroke-miterlimit:10;stroke-width:0.75px;}.cls-2{fill:#171717;}</style></defs><title>BalanceSlash</title><g id="Ebene_2" data-name="Ebene 2"><g id="Ebene_1-2" data-name="Ebene 1"><rect class="cls-1" x="0.375" y="0.375" width="24" height="24"/><rect class="cls-2" x="4.41198" y="11.94223" width="15.89221" height="0.74934" transform="translate(-4.53089 7.93618) rotate(-30.36326)"/><path class="cls-2" d="M15.50183,11.78858l-.16388.46-.02149.126a2.292,2.292,0,1,0,4.584,0l-.9223-2.62207-.64936.38086.82068,2.30274a1.54225,1.54225,0,0,1-3.082,0l.44067-1.23633Z"/><path class="cls-2" d="M6.37817,14.52588l1.1181-.6543a1.57134,1.57134,0,0,1-.35461.04493,1.54341,1.54341,0,0,1-1.541-1.48047l1.541-4.32422,1.54,4.32422a1.53188,1.53188,0,0,1-.41577.98437l1.12786-.66113a2.26906,2.26906,0,0,0,.03888-.38477L7.67291,7.36865H10.086A2.29881,2.29881,0,0,0,11.97271,9.2544v1.99414l.75-.43848V9.2544a2.29879,2.29879,0,0,0,1.88672-1.88575h2.46778l-.40088,1.125,1.54138-.90332-.078-.22168h.26757v-.75H14.60943a2.29272,2.29272,0,0,0-4.52344,0H6.34283v.75h.26758L4.87115,12.24854l-.02148.126A2.28822,2.28822,0,0,0,6.37817,14.52588Zm5.96954-9.07422a1.542,1.542,0,1,1-1.542,1.542A1.54395,1.54395,0,0,1,12.34771,5.45166Z"/><polygon class="cls-2" points="12.723 13.417 11.973 13.856 11.973 19.151 5.208 19.151 5.208 19.901 19.509 19.901 19.509 19.151 12.723 19.151 12.723 13.417"/></g></g></svg>
