<svg xmlns="http://www.w3.org/2000/svg" viewBox="0 0 15.05078 15.19922"><title>BalanceSlash</title>
	<rect x="-0.43768" y="7.24056" width="15.89221" height="0.74934" transform="translate(-2.81948 4.83988) rotate(-30.36326)" fill="#171717"/>
	<path
		d="M10.65216,7.08691l-.16388.46-.02148.126a2.292,2.292,0,0,0,4.584,0l-.9223-2.62207-.64935.38086.82067,2.30274a1.54225,1.54225,0,0,1-3.082,0l.44068-1.23633Z"
		fill="#171717"/>
	<path
		d="M1.5285,9.82422l1.11811-.6543a1.57143,1.57143,0,0,1-.35462.04492A1.54339,1.54339,0,0,1,.751,7.73438L2.292,3.41016l1.54,4.32422a1.53185,1.53185,0,0,1-.41577.98437l1.12787-.66113A2.27008,2.27008,0,0,0,4.583,7.67285L2.82324,2.667H5.23633A2.29878,2.29878,0,0,0,7.12305,4.55273V6.54688l.75-.43848V4.55273A2.2988,2.2988,0,0,0,9.75977,2.667h2.46777l-.40088,1.125L13.368,2.88867,13.29,2.667h.26758v-.75H9.75977a2.29272,2.29272,0,0,0-4.52344,0H1.49316v.75h.26758L.02148,7.54688,0,7.67285A2.28822,2.28822,0,0,0,1.5285,9.82422ZM7.49805.75a1.542,1.542,0,1,1-1.542,1.542A1.54394,1.54394,0,0,1,7.49805.75Z"
		fill="#171717"/>
	<polygon points="7.873 8.715 7.123 9.154 7.123 14.449 0.358 14.449 0.358 15.199 14.659 15.199 14.659 14.449 7.873 14.449 7.873 8.715" fill="#171717"/>
</svg>
