<svg xmlns="http://www.w3.org/2000/svg" viewBox="0 0 24.75 24.75"><defs><style>.cls-1{fill:none;stroke:#171717;stroke-miterlimit:10;stroke-width:0.75px;}.cls-2{fill:#171717;}</style></defs><title>Balance</title><g id="Ebene_2" data-name="Ebene 2"><g id="Ebene_1-2" data-name="Ebene 1"><rect class="cls-1" x="0.375" y="0.375" width="24" height="24"/><path class="cls-2" d="M12.72259,9.24756a2.28693,2.28693,0,0,0,1.87909-1.87891h2.4754L15.3388,12.24854l-.02148.126a2.29151,2.29151,0,1,0,4.583,0L18.13958,7.36865h.26758v-.75H14.60168a2.28373,2.28373,0,0,0-4.50818,0H6.34271v.75h.26758L4.871,12.24854l-.02149.126a2.292,2.292,0,1,0,4.584,0L7.67279,7.36865H10.0935a2.28694,2.28694,0,0,0,1.87909,1.87891v9.90332H5.20794v.75H19.50872v-.75H12.72259ZM19.14935,12.436a1.54175,1.54175,0,0,1-3.08106,0l1.54-4.32422Zm-10.4668,0a1.54225,1.54225,0,0,1-3.082,0l1.541-4.3252Zm2.123-5.44239a1.542,1.542,0,1,1,1.542,1.542A1.54394,1.54394,0,0,1,10.8056,6.99365Z"/></g></g></svg>
