<svg xmlns="http://www.w3.org/2000/svg" viewBox="0 0 24 24"><title>BalanceSlash</title><rect x="1.60763" y="12.05136" width="20.78475" height="1.49982" transform="translate(-4.7933 7.71622) rotate(-30.00401)" fill="#171717"/><path d="M3.81342,14.936,5.6676,13.86572a1.70333,1.70333,0,0,1-.24621.02344,1.67391,1.67391,0,0,1-1.66748-1.55273L5.42139,7.65576l1.667,4.68067a1.65785,1.65785,0,0,1-.36286.918l1.85462-1.07032-2.111-6.01269H8.92792A3.17036,3.17036,0,0,0,11.25,8.49365v2.14844l1.5-.86621V8.49365a3.17036,3.17036,0,0,0,2.32208-2.32226h2.44348l-.38275,1.07422,3.12842-1.80567V4.67139H15.072a3.15958,3.15958,0,0,0-6.144,0H3.73877v1.5h.61938L2.29346,11.96631l-.04346.252A3.16207,3.16207,0,0,0,3.81342,14.936ZM12,3.75049a1.6709,1.6709,0,1,1-1.67139,1.6709A1.67283,1.67283,0,0,1,12,3.75049Z" fill="#171717"/><path d="M18.57861,13.88916a1.66934,1.66934,0,0,1-1.63122-1.33984l-1.33148.76855A3.16445,3.16445,0,0,0,21.75,12.21826L21.03711,10.188l-1.29083.74512.49981,1.40332A1.67391,1.67391,0,0,1,18.57861,13.88916Z" fill="#171717"/><polygon points="12.75 14.973 11.25 15.838 11.25 20.25 3 20.25 3 21.75 21 21.75 21 20.25 12.75 20.25 12.75 14.973" fill="#171717"/></svg>