<svg xmlns="http://www.w3.org/2000/svg" viewBox="0 0 15.05078 15.19922"><title>Balance</title>
	<path
		d="M7.87305,4.5459A2.28694,2.28694,0,0,0,9.75214,2.667h2.4754L10.48926,7.54688l-.02149.126a2.29151,2.29151,0,1,0,4.583,0L13.29,2.667h.26758v-.75H9.75214a2.28373,2.28373,0,0,0-4.50818,0H1.49316v.75h.26758L.02148,7.54688,0,7.67285a2.292,2.292,0,0,0,4.584,0L2.82324,2.667H5.244A2.28693,2.28693,0,0,0,7.12305,4.5459v9.90332H.3584v.75H14.65918v-.75H7.87305ZM14.2998,7.73438a1.54174,1.54174,0,0,1-3.081,0l1.54-4.32422Zm-10.46679,0a1.54225,1.54225,0,0,1-3.082,0l1.541-4.3252ZM5.95605,2.292a1.542,1.542,0,1,1,1.542,1.542A1.54395,1.54395,0,0,1,5.95605,2.292Z"
		fill="#171717"/>
</svg>
