<svg xmlns="http://www.w3.org/2000/svg" viewBox="0 0 24 24"><title>BalanceSlash</title><rect x="4.05365" y="11.56723" width="15.89221" height="0.74934" transform="translate(-4.39049 7.70362) rotate(-30.36326)" fill="#171717"/><path d="M15.14349,11.41358l-.16388.46-.02148.126a2.292,2.292,0,1,0,4.584,0l-.9223-2.62207-.64935.38086.82068,2.30274a1.54225,1.54225,0,0,1-3.082,0l.44067-1.23633Z" fill="#171717"/><path d="M6.01984,14.15088l1.1181-.6543a1.57141,1.57141,0,0,1-.35461.04493,1.54341,1.54341,0,0,1-1.541-1.48047l1.541-4.32422,1.54,4.32422a1.53183,1.53183,0,0,1-.41577.98437l1.12787-.66113a2.27008,2.27008,0,0,0,.03888-.38477L7.31458,6.99365H9.72766A2.2988,2.2988,0,0,0,11.61438,8.8794v1.99414l.75-.43848V8.8794A2.2988,2.2988,0,0,0,14.2511,6.99365h2.46777l-.40088,1.125,1.54139-.90332-.078-.22168H18.049v-.75H14.2511a2.29272,2.29272,0,0,0-4.52344,0H5.9845v.75h.26758L4.51282,11.87354l-.02149.126A2.28822,2.28822,0,0,0,6.01984,14.15088Zm5.96954-9.07422a1.542,1.542,0,1,1-1.542,1.542A1.54394,1.54394,0,0,1,11.98938,5.07666Z" fill="#171717"/><polygon points="12.364 13.042 11.614 13.481 11.614 18.776 4.85 18.776 4.85 19.526 19.151 19.526 19.151 18.776 12.364 18.776 12.364 13.042" fill="#171717"/></svg>