<svg xmlns="http://www.w3.org/2000/svg" viewBox="0 0 24 24"><title>Balance</title><path d="M12.75,8.49365a3.17036,3.17036,0,0,0,2.32208-2.32226h2.44348l-2.06439,5.79492-.04346.252a3.17115,3.17115,0,0,0,6.34229,0L19.62659,6.17139h.63464v-1.5H15.072a3.15958,3.15958,0,0,0-6.144,0H3.73877v1.5h.61938L2.29346,11.96631l-.04346.252a3.17115,3.17115,0,0,0,6.34229,0L6.46918,6.17139H8.92792A3.17036,3.17036,0,0,0,11.25,8.49365V20.25049H3v1.5H21v-1.5H12.75Zm5.82861,5.39551a1.67347,1.67347,0,0,1-1.667-1.55273l1.667-4.68067,1.66748,4.68067A1.67391,1.67391,0,0,1,18.57861,13.88916Zm-13.15722,0a1.67391,1.67391,0,0,1-1.66748-1.55273L5.42139,7.65576l1.667,4.68067A1.67347,1.67347,0,0,1,5.42139,13.88916Zm4.90722-8.46777A1.67139,1.67139,0,1,1,12,7.09229,1.67283,1.67283,0,0,1,10.32861,5.42139Z" fill="#171717"/></svg>