<?xml version="1.0" encoding="UTF-8"?><svg id="a" xmlns="http://www.w3.org/2000/svg" viewBox="0 0 24 24"><path d="M3.375,18.64697l-.75-1.29883L20.625,6.95557l.75,1.29883L3.375,18.64697ZM2.25,12.21826l.04346-.25195,2.0647-5.79492h-.61938v-1.5h5.18921c.33917-1.38574,1.58313-2.4209,3.07202-2.4209s2.73285,1.03516,3.07202,2.4209h5.18921v.76855l-3.12842,1.80566.38275-1.07422h-2.44348c-.28003,1.14453-1.17773,2.04199-2.32208,2.32227v1.28223l-1.5.86621v-2.14844c-1.14435-.28027-2.04205-1.17773-2.32208-2.32227h-2.45874l2.11096,6.0127-1.85461,1.07031c.20441-.25684.33844-.57129.36285-.91797l-1.66699-4.68066-1.66748,4.68066c.06104.86621.78564,1.55273,1.66748,1.55273.08423,0,.16534-.01172.24622-.02344l-1.85419,1.07031c-.93115-.55371-1.56342-1.55859-1.56342-2.71777ZM10.32861,5.42139c0,.9209.75,1.6709,1.67139,1.6709s1.67139-.75,1.67139-1.6709c0-.92188-.75-1.6709-1.67139-1.6709s-1.67139.74902-1.67139,1.6709ZM18.57861,13.88916c-.80743,0-1.47614-.57812-1.63123-1.33984l-1.33148.76855c.44934,1.20605,1.60242,2.07129,2.96271,2.07129,1.74854,0,3.17139-1.42285,3.17139-3.1709l-.71289-2.03027-1.29083.74512.49982,1.40332c-.06104.86621-.78564,1.55273-1.66748,1.55273ZM12.75,14.97315l-1.5.86523v4.41211H3v1.5h18v-1.5h-8.25v-5.27734Z"/></svg>