<svg xmlns="http://www.w3.org/2000/svg" viewBox="0 0 24 24"><title>Balance</title><path d="M12.36426,8.87256a2.28694,2.28694,0,0,0,1.87909-1.87891h2.4754l-1.73828,4.87989-.02149.126a2.29151,2.29151,0,1,0,4.583,0L17.78125,6.99365h.26758v-.75H14.24335a2.28373,2.28373,0,0,0-4.50818,0H5.98438v.75H6.252L4.5127,11.87354l-.02149.126a2.292,2.292,0,1,0,4.584,0L7.31445,6.99365H9.73517a2.28693,2.28693,0,0,0,1.87909,1.87891v9.90332H4.84961v.75H19.15039v-.75H12.36426ZM18.791,12.061a1.54175,1.54175,0,0,1-3.08106,0l1.54-4.32422Zm-10.4668,0a1.54225,1.54225,0,0,1-3.082,0l1.541-4.3252Zm2.123-5.44239a1.542,1.542,0,1,1,1.542,1.542A1.54394,1.54394,0,0,1,10.44727,6.61865Z" fill="#171717"/></svg>