<?xml version="1.0" encoding="UTF-8"?><svg id="a" xmlns="http://www.w3.org/2000/svg" viewBox="0 0 24 24"><path d="M12,1.25049C6.07227,1.25049,1.25,6.07276,1.25,12s4.82227,10.74951,10.75,10.74951c5.92725,0,10.74951-4.82227,10.74951-10.74951S17.92725,1.25049,12,1.25049ZM2.75,12C2.75,6.8999,6.89941,2.75049,12,2.75049c2.28601,0,4.37701.83789,5.99298,2.2168l-13.02551,13.02588c-1.37933-1.61572-2.21747-3.70703-2.21747-5.99316ZM12,21.24951c-2.27539,0-4.35809-.8291-5.97095-2.19678l13.02344-13.02393c1.36755,1.61328,2.19702,3.69629,2.19702,5.97119,0,5.1001-4.14941,9.24951-9.24951,9.24951Z"/></svg>