<svg xmlns="http://www.w3.org/2000/svg" viewBox="0 0 24 24"><title>Barcode</title><rect x="3.70822" y="5.61546" width="0.75" height="12.76855" fill="#171717"/><rect x="5.31222" y="5.61546" width="0.75" height="12.76855" fill="#171717"/><polygon points="7.666 5.615 6.917 5.615 6.917 18.384 7.666 18.384 7.667 18.384 8.416 18.384 8.416 5.615 7.667 5.615 7.666 5.615" fill="#171717"/><rect x="9.27072" y="5.61546" width="0.75" height="12.76855" fill="#171717"/><polygon points="11.625 5.615 10.875 5.615 10.875 18.384 11.625 18.384 11.625 18.384 12.375 18.384 12.375 5.615 11.625 5.615 11.625 5.615" fill="#171717"/><polygon points="13.979 5.615 13.229 5.615 13.229 18.384 13.979 18.384 13.979 18.384 14.729 18.384 14.729 5.615 13.979 5.615 13.979 5.615" fill="#171717"/><rect x="15.58322" y="5.61546" width="0.75" height="12.76855" fill="#171717"/><polygon points="17.937 5.615 17.188 5.615 17.188 18.384 17.937 18.384 17.938 18.384 18.687 18.384 18.687 5.615 17.938 5.615 17.937 5.615" fill="#171717"/><rect x="19.54171" y="5.61546" width="0.75" height="12.76855" fill="#171717"/></svg>