<svg xmlns="http://www.w3.org/2000/svg" viewBox="0 0 16.5835 12.76855"><title>Barcode</title>
	<rect width="0.75" height="12.76855" fill="#171717"/>
	<rect x="1.604" width="0.75" height="12.76855" fill="#171717"/>
	<polygon points="3.958 0 3.208 0 3.208 12.769 3.958 12.769 3.958 12.769 4.708 12.769 4.708 0 3.958 0 3.958 0" fill="#171717"/>
	<rect x="5.5625" width="0.75" height="12.76855" fill="#171717"/>
	<polygon points="7.917 0 7.167 0 7.167 12.769 7.917 12.769 7.917 12.769 8.667 12.769 8.667 0 7.917 0 7.917 0" fill="#171717"/>
	<polygon points="10.271 0 9.521 0 9.521 12.769 10.271 12.769 10.271 12.769 11.021 12.769 11.021 0 10.271 0 10.271 0" fill="#171717"/>
	<rect x="11.875" width="0.75" height="12.76855" fill="#171717"/>
	<polygon points="14.229 0 13.479 0 13.479 12.769 14.229 12.769 14.229 12.769 14.979 12.769 14.979 0 14.229 0 14.229 0" fill="#171717"/>
	<rect x="15.8335" width="0.75" height="12.76855" fill="#171717"/>
</svg>
