<svg xmlns="http://www.w3.org/2000/svg" viewBox="0 0 24 24"><title>Bed</title><path d="M7,14.29151a2.29151,2.29151,0,1,0-2.292-2.292A2.29372,2.29372,0,0,0,7,14.29151Zm0-3.833a1.54151,1.54151,0,1,1-1.542,1.541A1.543,1.543,0,0,1,7,10.4585Z" fill="#171717"/><polygon points="4.458 7.42 3.708 7.42 3.708 18.384 4.458 18.384 4.458 15.292 19.542 15.292 19.542 18.384 20.291 18.384 20.291 14.542 4.458 14.542 4.458 7.42" fill="#171717"/><path d="M9.5415,9.7085v4.583H20.291V9.7085Zm10,3.833h-9.25v-3.083h9.25Z" fill="#171717"/></svg>