<svg xmlns="http://www.w3.org/2000/svg" viewBox="0 0 24 24"><title>Bed</title><path d="M6.42188,14.19727a3.17139,3.17139,0,1,0-3.17139-3.17139A3.17478,3.17478,0,0,0,6.42188,14.19727Zm0-4.84278a1.67139,1.67139,0,1,1-1.67139,1.67139A1.67314,1.67314,0,0,1,6.42188,9.35449Z" fill="#171717"/><polygon points="2.75 5.978 1.25 5.978 1.25 19.827 2.75 19.827 2.75 16.197 21.25 16.197 21.25 19.827 22.75 19.827 22.75 14.697 2.75 14.697 2.75 5.978" fill="#171717"/><path d="M9.59326,7.85449v6.34278H22.74951V7.85449Zm11.65625,4.84278H11.09326V9.35449H21.24951Z" fill="#171717"/></svg>