<svg xmlns="http://www.w3.org/2000/svg" viewBox="0 0 16.58301 10.96387"><title>Bed</title>
	<path
		d="M3.292,6.87109A2.2915,2.2915,0,1,0,1,4.5791,2.29372,2.29372,0,0,0,3.292,6.87109Zm0-3.833A1.5415,1.5415,0,1,1,1.75,4.5791,1.543,1.543,0,0,1,3.292,3.03809Z"
		fill="#171717"/>
	<polygon points="0.75 0 0 0 0 10.964 0.75 10.964 0.75 7.871 15.833 7.871 15.833 10.964 16.583 10.964 16.583 7.121 0.75 7.121 0.75 0" fill="#171717"/>
	<path d="M5.8335,2.28809v4.583H16.583v-4.583Zm10,3.833h-9.25v-3.083h9.25Z" fill="#171717"/>
</svg>
