<svg xmlns="http://www.w3.org/2000/svg" viewBox="0 0 24.75 24.75"><defs><style>.cls-1{fill:none;stroke:#171717;stroke-miterlimit:10;stroke-width:0.75px;}.cls-2{fill:#171717;}</style></defs><title>Bed</title><g id="Ebene_2" data-name="Ebene 2"><g id="Ebene_1-2" data-name="Ebene 1"><rect class="cls-1" x="0.375" y="0.375" width="24" height="24"/><path class="cls-2" d="M7.35833,14.66651a2.29151,2.29151,0,1,0-2.292-2.292A2.29373,2.29373,0,0,0,7.35833,14.66651Zm0-3.833a1.54151,1.54151,0,1,1-1.542,1.541A1.543,1.543,0,0,1,7.35833,10.8335Z"/><polygon class="cls-2" points="4.816 7.795 4.066 7.795 4.066 18.759 4.816 18.759 4.816 15.667 19.9 15.667 19.9 18.759 20.649 18.759 20.649 14.917 4.816 14.917 4.816 7.795"/><path class="cls-2" d="M9.89984,10.0835v4.583H20.64935v-4.583Zm10,3.833h-9.25v-3.083h9.25Z"/></g></g></svg>
