<?xml version="1.0" encoding="UTF-8"?><svg id="a" xmlns="http://www.w3.org/2000/svg" viewBox="0 0 24 24"><path d="M6.42188,14.19727c1.74854,0,3.1709-1.42285,3.1709-3.17139s-1.42236-3.17139-3.1709-3.17139-3.17139,1.42285-3.17139,3.17139,1.42285,3.17139,3.17139,3.17139ZM6.42188,9.35449c.92139,0,1.6709.75,1.6709,1.67139s-.74951,1.67139-1.6709,1.67139-1.67139-.75-1.67139-1.67139.75-1.67139,1.67139-1.67139ZM2.75,14.69678h19.99951v5.12988h-1.5v-3.62988H2.75v3.62988h-1.5V5.97803h1.5v8.71875ZM9.59326,7.85449v6.34277h13.15625v-6.34277h-13.15625ZM21.24951,12.69727h-10.15625v-3.34277h10.15625v3.34277Z"/></svg>