<svg xmlns="http://www.w3.org/2000/svg" viewBox="0 0 24 24"><title>BellSlash</title><polygon points="15.64 11.114 14.89 11.553 14.89 13.036 16.653 16.735 7.305 16.735 7.81 15.7 6.642 16.384 6.105 17.485 17.853 17.485 15.64 12.949 15.64 11.114" fill="#171717"/><path d="M9.06836,9.74951a2.904,2.904,0,0,1,5.7135-.74121l.66486-.38965A3.65925,3.65925,0,0,0,12.3916,6.11279V4.08252h-.75V6.105A3.66551,3.66551,0,0,0,8.31836,9.74951v3.04493l.72107-.42286Z" fill="#171717"/><path d="M11.979,19.54151a1.54364,1.54364,0,0,1-1.542-1.542h-.75a2.292,2.292,0,1,0,4.584,0h-.75A1.54364,1.54364,0,0,1,11.979,19.54151Z" fill="#171717"/><rect x="4.60079" y="11.56723" width="14.79843" height="0.74934" transform="translate(-4.3905 7.70394) rotate(-30.36394)" fill="#171717"/></svg>