<svg xmlns="http://www.w3.org/2000/svg" viewBox="0 0 11.74951 16.20801"><title>Bell</title>
	<path d="M5.87451,15.458A1.54321,1.54321,0,0,1,4.333,13.916h-.75a2.29175,2.29175,0,1,0,4.58349,0h-.75A1.54363,1.54363,0,0,1,5.87451,15.458Z"
		  fill="#171717"/>
	<path
		d="M9.53564,8.86621V5.667a3.65334,3.65334,0,0,0-3.248-3.61914V0h-.75V2.04A3.65285,3.65285,0,0,0,2.21387,5.667V8.86621L0,13.40137H11.74951Zm-6.60986.251L2.96387,5.667a2.91089,2.91089,0,1,1,5.82177,0V8.95313l1.76319,3.69824H1.20068Z"
		fill="#171717"/>
</svg>
