<svg xmlns="http://www.w3.org/2000/svg" viewBox="0 0 24 24"><title>Bell</title><path d="M11.979,21.24951a1.67314,1.67314,0,0,1-1.67138-1.67089h-1.5a3.17139,3.17139,0,0,0,6.34277,0h-1.5A1.67314,1.67314,0,0,1,11.979,21.24951Z" fill="#171717"/><path d="M16.87939,13.13526V9.1582a4.89644,4.89644,0,0,0-4.103-4.81982V2.00049h-1.5V4.3291A4.89258,4.89258,0,0,0,7.07861,9.1582v3.97706L4.1167,19.2041H19.84131Zm-8.30078.34668V9.1582a3.40039,3.40039,0,0,1,6.80078,0v4.32374l2.06055,4.22216H6.51807Z" fill="#171717"/></svg>