<?xml version="1.0" encoding="UTF-8"?><svg id="a" xmlns="http://www.w3.org/2000/svg" viewBox="0 0 24 24"><path d="M13.65039,19.57862h1.5c0,1.74854-1.42285,3.1709-3.17139,3.1709s-3.17139-1.42236-3.17139-3.1709h1.5c0,.92139.75,1.6709,1.67139,1.6709s1.67139-.74951,1.67139-1.6709ZM20.375,8.03028l-.75-1.29883L3.625,15.96924l.75,1.29883,16-9.23779ZM8.57861,9.1582c0-1.875,1.52539-3.40039,3.40039-3.40039,1.33496,0,2.48114.78027,3.03729,1.90234l1.29578-.74805c-.70099-1.3374-1.99164-2.31836-3.53571-2.57373v-2.33789h-1.5v2.32861c-2.36755.34424-4.19775,2.36768-4.19775,4.8291v3.08496l1.5-.86621v-2.21875ZM16.87939,11.78076l-1.5.86621v.83496l2.06055,4.22217H6.62061l-2.46698,1.42432-.03693.07568h15.72461l-2.96191-6.06885v-1.35449Z"/></svg>