<svg xmlns="http://www.w3.org/2000/svg" viewBox="0 0 24 24"><title>Bell</title><path d="M11.96826,19.54151a1.54321,1.54321,0,0,1-1.5415-1.542h-.75a2.29175,2.29175,0,1,0,4.58349,0h-.75A1.54363,1.54363,0,0,1,11.96826,19.54151Z" fill="#171717"/><path d="M15.62939,12.94971V9.75049a3.65334,3.65334,0,0,0-3.248-3.61914V4.0835h-.75v2.04A3.65285,3.65285,0,0,0,8.30762,9.75049v3.19922L6.09375,17.48487H17.84326Zm-6.60986.251.03809-3.4502a2.91089,2.91089,0,1,1,5.82177,0v3.28613l1.76319,3.69825H7.29443Z" fill="#171717"/></svg>