<svg xmlns="http://www.w3.org/2000/svg" viewBox="0 0 13.14746 16.20898"><title>BellSlash</title>
	<polygon
		points="10.213 7.031 9.463 7.471 9.463 8.953 11.227 12.652 1.879 12.652 2.384 11.617 1.216 12.302 0.679 13.402 12.427 13.402 10.213 8.866 10.213 7.031"
		fill="#171717"/>
	<path
		d="M3.64209,5.667a2.904,2.904,0,0,1,5.7135-.74121l.66486-.38965A3.65925,3.65925,0,0,0,6.96533,2.03027V0h-.75V2.02246A3.66551,3.66551,0,0,0,2.89209,5.667V8.71191l.72107-.42285Z"
		fill="#171717"/>
	<path d="M6.55273,15.459a1.54363,1.54363,0,0,1-1.542-1.542h-.75a2.292,2.292,0,0,0,4.584,0h-.75A1.54363,1.54363,0,0,1,6.55273,15.459Z" fill="#171717"/>
	<rect x="-0.82548" y="7.4847" width="14.79843" height="0.74934" transform="translate(-3.07114 4.40102) rotate(-30.36394)" fill="#171717"/>
</svg>
