<svg xmlns="http://www.w3.org/2000/svg" viewBox="0 0 24.75 24.75"><defs><style>.cls-1{fill:none;stroke:#171717;stroke-miterlimit:10;stroke-width:0.75px;}</style></defs><title>BellSlash</title><g id="Ebene_2" data-name="Ebene 2"><g id="Ebene_1-2" data-name="Ebene 1"><rect class="cls-1" x="0.375" y="0.375" width="24" height="24"/><rect class="cls-1" x="0.375" y="0.375" width="24" height="24"/><polygon points="16.008 11.489 15.258 11.928 15.258 13.411 17.022 17.11 7.674 17.11 8.179 16.075 7.011 16.759 6.474 17.86 18.222 17.86 16.008 13.324 16.008 11.489"/><path d="M9.43719,10.12451a2.904,2.904,0,0,1,5.7135-.74121l.66486-.38965a3.65925,3.65925,0,0,0-3.05512-2.50586V4.45752h-.75V6.48a3.66551,3.66551,0,0,0-3.32324,3.64453v3.04493l.72107-.42286Z"/><path d="M12.34784,19.91651a1.54364,1.54364,0,0,1-1.542-1.542h-.75a2.292,2.292,0,1,0,4.584,0h-.75A1.54364,1.54364,0,0,1,12.34784,19.91651Z"/><rect x="4.96962" y="11.94223" width="14.79843" height="0.74934" transform="translate(-4.52947 7.94182) rotate(-30.36394)"/></g></g></svg>
