<svg xmlns="http://www.w3.org/2000/svg" viewBox="0 0 24.75 24.75"><defs><style>.cls-1{fill:none;stroke:#171717;stroke-miterlimit:10;stroke-width:0.75px;}.cls-2{fill:#171717;}</style></defs><title>Bell</title><g id="Ebene_2" data-name="Ebene 2"><g id="Ebene_1-2" data-name="Ebene 1"><rect class="cls-1" x="0.375" y="0.375" width="24" height="24"/><rect class="cls-1" x="0.375" y="0.375" width="24" height="24"/><path class="cls-2" d="M12.33709,19.91651a1.54322,1.54322,0,0,1-1.5415-1.542h-.75a2.29175,2.29175,0,1,0,4.5835,0h-.75A1.54364,1.54364,0,0,1,12.33709,19.91651Z"/><path class="cls-2" d="M15.99823,13.32471V10.12549a3.65335,3.65335,0,0,0-3.248-3.61914V4.4585h-.75v2.04a3.65286,3.65286,0,0,0-3.32373,3.62695v3.19922L6.46258,17.85987H18.21209Zm-6.60987.251.03809-3.4502a2.91089,2.91089,0,1,1,5.82178,0v3.28613l1.76318,3.69825H7.66327Z"/></g></g></svg>
