<?xml version="1.0" encoding="UTF-8"?><svg id="a" xmlns="http://www.w3.org/2000/svg" viewBox="0 0 24 24"><path d="M13.65039,19.57862h1.5c0,1.74854-1.42285,3.1709-3.17139,3.1709s-3.17139-1.42236-3.17139-3.1709h1.5c0,.92139.75,1.6709,1.67139,1.6709s1.67139-.74951,1.67139-1.6709ZM19.84131,19.2041H4.1167l2.96191-6.06885v-3.97705c0-2.46143,1.8302-4.48486,4.19775-4.8291v-2.32861h1.5v2.33789c2.32208.38379,4.10303,2.39062,4.10303,4.81982v3.97705l2.96191,6.06885ZM6.51807,17.7041h10.92188l-2.06055-4.22217v-4.32373c0-1.875-1.52539-3.40039-3.40039-3.40039s-3.40039,1.52539-3.40039,3.40039v4.32373l-2.06055,4.22217Z"/></svg>