<svg xmlns="http://www.w3.org/2000/svg" viewBox="0 0 24 24"><title>BellSlash</title><path d="M11.979,21.24951a1.67314,1.67314,0,0,1-1.67138-1.67089h-1.5a3.17139,3.17139,0,0,0,6.34277,0h-1.5A1.67314,1.67314,0,0,1,11.979,21.24951Z" fill="#171717"/><rect x="2.76235" y="11.24985" width="18.4753" height="1.49982" transform="translate(-4.39249 7.60881) rotate(-30.00401)" fill="#171717"/><path d="M8.57861,9.1582a3.391,3.391,0,0,1,6.43769-1.498l1.29577-.74805a4.90688,4.90688,0,0,0-3.5357-2.57373V2.00049h-1.5V4.3291A4.89258,4.89258,0,0,0,7.07861,9.1582v3.085l1.5-.86622Z" fill="#171717"/><polygon points="16.879 11.781 15.379 12.647 15.379 13.482 17.44 17.704 6.621 17.704 4.154 19.128 4.117 19.204 19.841 19.204 16.879 13.135 16.879 11.781" fill="#171717"/></svg>