<svg xmlns="http://www.w3.org/2000/svg" viewBox="0 0 24.75 24.75"><defs><style>.cls-1{fill:none;stroke:#171717;stroke-miterlimit:10;stroke-width:0.75px;}.cls-2{fill:#171717;}</style></defs><title>Blind</title><g id="Ebene_2" data-name="Ebene 2"><g id="Ebene_1-2" data-name="Ebene 1"><rect class="cls-1" x="0.375" y="0.375" width="24" height="24"/><path class="cls-2" d="M18.83148,20.20459,11.6267,12.89307a.9087.9087,0,0,0,.19745-.48242.80378.80378,0,0,0-.228-.62305l-.00013.001L9.61761,9.81006,8.51214,8.70459V6.95264H5.59906v6.3125h.28955v6.29394a1.148,1.148,0,0,0,2.29541,0v-.25293a1.102,1.102,0,0,0,.6416-.55078l1.47363-2.96289L8.51214,13.24072V11.22119l1.8252,1.8252a.79172.79172,0,0,0,.56494.22949.909.909,0,0,0,.54754-.207l7.20392,7.31055Zm-7.50055-8.15137ZM7.76214,7.95459l-.25146-.25195h.25146ZM6.34906,7.70264h.78173l-.34033.34082,2.29688,2.29687,1.97839,1.97852-.19812.19727-1.978-1.97754L7.32074,8.96924l-.53028.53027.97168.97168v2.044H6.34906Zm.6875,12.22851a.38627.38627,0,0,1-.39795-.37207V13.26514H7.434v6.29394A.38584.38584,0,0,1,7.03656,19.93115ZM8.184,18.36084V16.57666l.32324-.64941L8.184,15.46533V14.07959l1.24511,1.77832Z"/><path class="cls-2" d="M7.0556,6.67237A1.30176,1.30176,0,1,0,5.75335,5.37061,1.30326,1.30326,0,0,0,7.0556,6.67237Zm0-1.85352a.55176.55176,0,1,1-.55225.55176A.55275.55275,0,0,1,7.0556,4.81885Z"/></g></g></svg>
