<svg xmlns="http://www.w3.org/2000/svg" viewBox="0 0 13.23242 16.6123"><title>Blind</title>
	<path
		d="M13.23242,16.13574,6.02765,8.82422A.90878.90878,0,0,0,6.2251,8.3418a.80384.80384,0,0,0-.228-.623l-.00012.001L4.01855,5.74121,2.91309,4.63574v-1.752H0v6.3125H.28955v6.29394a1.13634,1.13634,0,0,0,1.148,1.12207A1.13592,1.13592,0,0,0,2.585,15.49023V15.2373a1.102,1.102,0,0,0,.6416-.55078L4.7002,11.72363,2.91309,9.17188V7.15234l1.82519,1.8252a.79174.79174,0,0,0,.56494.22949A.909.909,0,0,0,5.85077,9l7.20392,7.31055ZM5.73187,7.98438ZM2.16309,3.88574l-.25147-.252h.25147ZM.75,3.63379h.78174l-.34033.34082L3.48828,6.27148,5.46667,8.25l-.19812.19727-1.978-1.97754L1.72168,4.90039l-.53027.53027.97168.97168V8.44629H.75ZM1.4375,15.8623a.38627.38627,0,0,1-.398-.37207V9.19629H1.835v6.29394A.38583.38583,0,0,1,1.4375,15.8623ZM2.585,14.292V12.50781l.32324-.64941L2.585,11.39648V10.01074l1.24512,1.77832Z"
		fill="#171717"/>
	<path
		d="M1.45654,2.60352A1.30176,1.30176,0,1,0,.1543,1.30176,1.30326,1.30326,0,0,0,1.45654,2.60352Zm0-1.85352a.55176.55176,0,1,1-.55224.55176A.55275.55275,0,0,1,1.45654.75Z"
		fill="#171717"/>
</svg>
