<?xml version="1.0" encoding="UTF-8"?><svg id="a" xmlns="http://www.w3.org/2000/svg" viewBox="0 0 24 24"><path d="M3.5,3.12516c0-.89648.729-1.625,1.625-1.625s1.625.72852,1.625,1.625c0,.89551-.729,1.625-1.625,1.625s-1.625-.72949-1.625-1.625ZM20.17432,21.82048l-.34863.3584-9.30664-9.05566.17432-.17969-.53027.53027-2.78418-2.78418-.75391-.75391v3.06445h-.58453l2.58112,3.68652-2.74658,3.92188v1.3916h-1.5v-9h-.75v-6.75h3v1.56445l1.81445,1.81445,2.78418,2.78418-.35345.35352,9.30414,9.05371ZM6.79053,16.68669l-.91553-1.30762v2.61523l.91553-1.30762Z"/></svg>