<svg xmlns="http://www.w3.org/2000/svg" viewBox="0 0 24 24"><title>Blind</title><path d="M18.47314,19.82959l-7.20477-7.31152a.90878.90878,0,0,0,.19745-.48242.80375.80375,0,0,0-.228-.62305l-.00012.001L9.25928,9.43506,8.15381,8.32959V6.57764H5.24072v6.3125h.28955v6.29394a1.148,1.148,0,0,0,2.29541,0v-.25293a1.102,1.102,0,0,0,.64161-.55078l1.47363-2.96289L8.15381,12.86572V10.84619L9.979,12.67139a.79174.79174,0,0,0,.565.22949.909.909,0,0,0,.54754-.207l7.20392,7.31055ZM10.9726,11.67822ZM7.40381,7.57959l-.25147-.25195h.25147ZM5.99072,7.32764h.78174l-.34033.34082L8.729,9.96533l1.9784,1.97852-.19812.19727-1.978-1.97754L6.9624,8.59424l-.53027.53027.97168.97168v2.044H5.99072Zm.6875,12.22851a.38627.38627,0,0,1-.39795-.37207V12.89014h.79541v6.29394A.38583.38583,0,0,1,6.67822,19.55615Zm1.14746-1.57031V16.20166l.32325-.64941-.32325-.46192V13.70459L9.0708,15.48291Z" fill="#171717"/><path d="M6.69727,6.29737A1.30176,1.30176,0,1,0,5.395,4.99561,1.30326,1.30326,0,0,0,6.69727,6.29737Zm0-1.85352a.55176.55176,0,1,1-.55225.55176A.55275.55275,0,0,1,6.69727,4.44385Z" fill="#171717"/></svg>