<svg xmlns="http://www.w3.org/2000/svg" viewBox="0 0 24 24"><title>Book</title><path d="M16.8584,7.07666h-9.75v3.75h9.75Zm-.75,3h-8.25v-2.25h8.25Z" fill="#171717"/><path d="M18.38428,5.62549a.58487.58487,0,1,1,0-1.167h.34326v-.75H6.61572A1.3658,1.3658,0,0,0,5.26123,4.812l-.021,13.249h.00049a2.25519,2.25519,0,0,0,2.27491,2.23047H18.75928V5.62549ZM6.61572,4.4585H17.148a1.29695,1.29695,0,0,0,0,1.167H6.61572a.58487.58487,0,1,1,0-1.167Zm11.39356,15.083H7.51563A1.50485,1.50485,0,0,1,5.99072,18.061H5.99023V6.229a1.396,1.396,0,0,0,.62549.14648H18.00928Z" fill="#171717"/></svg>