<svg xmlns="http://www.w3.org/2000/svg" viewBox="0 0 24.75 24.75"><defs><style>.cls-1{fill:none;stroke:#171717;stroke-miterlimit:10;stroke-width:0.75px;}.cls-2{fill:#171717;}</style></defs><title>Book</title><g id="Ebene_2" data-name="Ebene 2"><g id="Ebene_1-2" data-name="Ebene 1"><rect class="cls-1" x="0.375" y="0.375" width="24" height="24"/><path class="cls-2" d="M17.2334,7.45166h-9.75v3.75h9.75Zm-.75,3h-8.25v-2.25h8.25Z"/><path class="cls-2" d="M18.75928,6.00049a.58487.58487,0,1,1,0-1.167h.34326v-.75H6.99072A1.3658,1.3658,0,0,0,5.63623,5.187l-.021,13.249h.00049a2.25519,2.25519,0,0,0,2.27491,2.23047H19.13428V6.00049ZM6.99072,4.8335H17.523a1.29695,1.29695,0,0,0,0,1.167H6.99072a.58487.58487,0,1,1,0-1.167Zm11.39356,15.083H7.89063A1.50485,1.50485,0,0,1,6.36572,18.436H6.36523V6.604a1.396,1.396,0,0,0,.62549.14648H18.38428Z"/></g></g></svg>
