<?xml version="1.0" encoding="UTF-8"?><svg id="a" xmlns="http://www.w3.org/2000/svg" viewBox="0 0 24 24"><path d="M18.47754,5.92139H5.60938v5.28955h12.86816v-5.28955ZM16.97754,9.71094H7.10938v-2.28955h9.86816v2.28955ZM20,2.75049l.75-.00049v-1.5l-15.48633.00049c-1.10986,0-2.01318.87939-2.01318,1.96045l-.00049,16.44531c0,1.70605,1.40479,3.09375,3.13135,3.09375h14.36865V3.67188h-.75c-.2832,0-.51318-.20654-.51318-.46094,0-.25391.22998-.46045.51318-.46045ZM5.26367,2.75049h12.7793c-.03662.14795-.05615.30176-.05615.46045s.01953.31299.05615.46094H5.26367c-.2832,0-.51318-.20654-.51318-.46094,0-.25391.22998-.46045.51318-.46045ZM19.25,21.25H6.38135c-.89941,0-1.63135-.71484-1.63135-1.59375l.00049-14.54883c.16064.04102.3291.06348.50293.06445h13.99658v16.07812Z"/></svg>