<svg xmlns="http://www.w3.org/2000/svg" viewBox="0 0 13.51904 16.58301"><title>Book</title>
	<path d="M11.61816,3.36816h-9.75v3.75h9.75Zm-.75,3h-8.25v-2.25h8.25Z" fill="#171717"/>
	<path
		d="M13.144,1.917a.606.606,0,0,1-.625-.584A.60585.60585,0,0,1,13.144.75h.34326V0H1.37549A1.36578,1.36578,0,0,0,.021,1.10352L0,14.35254H.00049A2.25518,2.25518,0,0,0,2.27539,16.583H13.519V1.917ZM1.37549.75H11.90771a1.29695,1.29695,0,0,0,0,1.167H1.37549a.606.606,0,0,1-.625-.584A.60584.60584,0,0,1,1.37549.75ZM12.769,15.833H2.27539a1.50484,1.50484,0,0,1-1.5249-1.48047H.75V2.52051a1.396,1.396,0,0,0,.62549.14648H12.769Z"
		fill="#171717"/>
</svg>
