<?xml version="1.0" encoding="UTF-8"?><svg id="a" xmlns="http://www.w3.org/2000/svg" viewBox="0 0 24 24"><path d="M7.896,9.75098c0-.88379.71631-1.59961,1.59998-1.59961s1.59998.71582,1.59998,1.59961-.71631,1.60059-1.59998,1.60059-1.59998-.7168-1.59998-1.60059ZM14.47461,11.35156c.88354,0,1.59985-.7168,1.59985-1.60059s-.71631-1.59961-1.59985-1.59961c-.88379,0-1.6001.71582-1.6001,1.59961s.71631,1.60059,1.6001,1.60059ZM4.70508,11.39844v-3.27539c0-1.76172,1.43359-3.19531,3.19531-3.19531h3.33496v-.95117c-.50366-.26953-.8501-.79395-.8501-1.40527,0-.88379.71631-1.59961,1.59998-1.59961s1.59998.71582,1.59998,1.59961c0,.61133-.34644,1.13574-.84985,1.40527v.95117h3.33496c1.76172,0,3.19531,1.43359,3.19531,3.19531v3.27539c0,1.76172-1.43359,3.19531-3.19531,3.19531H7.90039c-1.76172,0-3.19531-1.43359-3.19531-3.19531ZM6.20508,11.39844c0,.93457.76074,1.69531,1.69531,1.69531h8.16992c.93457,0,1.69531-.76074,1.69531-1.69531v-3.27539c0-.93457-.76074-1.69531-1.69531-1.69531H7.90039c-.93457,0-1.69531.76074-1.69531,1.69531v3.27539ZM18.54004,16.10742H5.50098c-1.81543,0-3.29297,1.47754-3.29297,3.29395v2.62695h1.5v-2.62695c0-.98926.80469-1.79395,1.79297-1.79395h13.03906c.96582,0,1.75195.78613,1.75195,1.75195v2.66895h1.5v-2.66895c0-1.79297-1.45898-3.25195-3.25195-3.25195Z"/></svg>