<?xml version="1.0" encoding="UTF-8"?><svg id="a" xmlns="http://www.w3.org/2000/svg" viewBox="0 0 24 24"><path d="M7.40459,15.25405h9.19092c1.73926,0,3.1543-1.41504,3.1543-3.1543v-3.94531c0-1.73926-1.41504-3.1543-3.1543-3.1543h-3.8457v-1.0791c.5036-.26855.85022-.79395.85022-1.40527,0-.88281-.71637-1.59961-1.60004-1.59961-.88361,0-1.59998.7168-1.59998,1.59961,0,.61133.34644,1.13574.84979,1.40527v1.0791h-3.84521c-1.73975,0-3.15479,1.41504-3.15479,3.1543v3.94531c0,1.73926,1.41504,3.1543,3.15479,3.1543ZM5.7498,8.15445c0-.91211.74219-1.6543,1.65479-1.6543h9.19092c.91211,0,1.6543.74219,1.6543,1.6543v3.94531c0,.91211-.74219,1.6543-1.6543,1.6543H7.40459c-.9126,0-1.65479-.74219-1.65479-1.6543v-3.94531ZM9.30773,11.4523c.88367,0,1.59998-.7168,1.59998-1.60059s-.71631-1.59961-1.59998-1.59961-1.60004.71582-1.60004,1.59961.71637,1.60059,1.60004,1.60059ZM14.65898,11.4523c.88367,0,1.59998-.7168,1.59998-1.60059s-.71631-1.59961-1.59998-1.59961-1.59998.71582-1.59998,1.59961.71631,1.60059,1.59998,1.60059ZM18.84209,16.75113H5.12432c-1.59424,0-2.89111,1.29688-2.89111,2.89062v2.3584h1.5v-2.3584c0-.7666.62402-1.39062,1.39111-1.39062h13.71777c.76709,0,1.39111.62402,1.39111,1.39062v2.3584h1.5v-2.3584c0-1.59375-1.29688-2.89062-2.89111-2.89062Z"/></svg>