<svg xmlns="http://www.w3.org/2000/svg" viewBox="0 0 24.75 24.75"><defs><style>.cls-1{fill:none;stroke:#171717;stroke-miterlimit:10;stroke-width:0.75px;}.cls-2{fill:#171717;}</style></defs><title>Braille</title><g id="Ebene_2" data-name="Ebene 2"><g id="Ebene_1-2" data-name="Ebene 1"><rect class="cls-1" x="0.375" y="0.375" width="24" height="24"/><circle class="cls-2" cx="5.71868" cy="8.37158" r="1.625"/><path class="cls-2" d="M5.71868,10.74658a1.625,1.625,0,1,0,1.625,1.625A1.6272,1.6272,0,0,0,5.71868,10.74658Zm0,2.5a.875.875,0,1,1,.875-.875A.87606.87606,0,0,1,5.71868,13.24658Z"/><path class="cls-2" d="M5.71868,14.74658a1.625,1.625,0,1,0,1.625,1.625A1.6272,1.6272,0,0,0,5.71868,14.74658Zm0,2.5a.875.875,0,1,1,.875-.875A.87606.87606,0,0,1,5.71868,17.24658Z"/><path class="cls-2" d="M9.71868,14.74658a1.625,1.625,0,1,0,1.625,1.625A1.6272,1.6272,0,0,0,9.71868,14.74658Zm0,2.5a.875.875,0,1,1,.875-.875A.87606.87606,0,0,1,9.71868,17.24658Z"/><path class="cls-2" d="M9.71868,10.74658a1.625,1.625,0,1,0,1.625,1.625A1.6272,1.6272,0,0,0,9.71868,10.74658Zm0,2.5a.875.875,0,1,1,.875-.875A.87606.87606,0,0,1,9.71868,13.24658Z"/><circle class="cls-2" cx="9.71868" cy="8.37158" r="1.625"/><circle class="cls-2" cx="15.05218" cy="8.37158" r="1.625"/><circle class="cls-2" cx="15.05218" cy="12.37158" r="1.625"/><path class="cls-2" d="M15.05218,14.74658a1.625,1.625,0,1,0,1.625,1.625A1.6272,1.6272,0,0,0,15.05218,14.74658Zm0,2.5a.875.875,0,1,1,.875-.875A.87606.87606,0,0,1,15.05218,17.24658Z"/><path class="cls-2" d="M19.05218,14.74658a1.625,1.625,0,1,0,1.62451,1.625A1.6272,1.6272,0,0,0,19.05218,14.74658Zm0,2.5a.875.875,0,1,1,.875-.875A.87606.87606,0,0,1,19.05218,17.24658Z"/><path class="cls-2" d="M19.05218,10.74658a1.625,1.625,0,1,0,1.62451,1.625A1.6272,1.6272,0,0,0,19.05218,10.74658Z"/><path class="cls-2" d="M19.05218,9.99658a1.625,1.625,0,1,0-1.625-1.625A1.62614,1.62614,0,0,0,19.05218,9.99658Zm0-2.5a.875.875,0,1,1-.875.875A.87606.87606,0,0,1,19.05218,7.49658Z"/></g></g></svg>
