<svg xmlns="http://www.w3.org/2000/svg" viewBox="0 0 24 24"><title>Braille</title><path d="M3.5791,4.50977a2.3291,2.3291,0,1,0,2.3291,2.3291A2.33143,2.33143,0,0,0,3.5791,4.50977Z" fill="#171717"/><path d="M3.5791,9.668a2.32886,2.32886,0,1,0,2.3291,2.32861A2.331,2.331,0,0,0,3.5791,9.668Zm0,3.15772a.82886.82886,0,1,1,.8291-.82911A.8298.8298,0,0,1,3.5791,12.82569Z" fill="#171717"/><path d="M3.5791,14.82617a2.32886,2.32886,0,1,0,2.3291,2.32862A2.331,2.331,0,0,0,3.5791,14.82617Zm0,3.15772a.82886.82886,0,1,1,.8291-.8291A.8298.8298,0,0,1,3.5791,17.98389Z" fill="#171717"/><path d="M8.73633,14.82617a2.32886,2.32886,0,1,0,2.3291,2.32862A2.331,2.331,0,0,0,8.73633,14.82617Zm0,3.15772a.82886.82886,0,1,1,.8291-.8291A.82981.82981,0,0,1,8.73633,17.98389Z" fill="#171717"/><path d="M8.73633,9.668a2.32886,2.32886,0,1,0,2.3291,2.32861A2.331,2.331,0,0,0,8.73633,9.668Zm0,3.15772a.82886.82886,0,1,1,.8291-.82911A.82981.82981,0,0,1,8.73633,12.82569Z" fill="#171717"/><path d="M8.73633,4.50977a2.3291,2.3291,0,1,0,2.3291,2.3291A2.33144,2.33144,0,0,0,8.73633,4.50977Z" fill="#171717"/><path d="M15.26367,4.50977a2.3291,2.3291,0,1,0,2.32862,2.3291A2.33185,2.33185,0,0,0,15.26367,4.50977Z" fill="#171717"/><path d="M15.26367,9.668a2.32886,2.32886,0,1,0,2.32862,2.32861A2.33143,2.33143,0,0,0,15.26367,9.668Z" fill="#171717"/><path d="M15.26367,14.82617a2.32886,2.32886,0,1,0,2.32862,2.32862A2.33144,2.33144,0,0,0,15.26367,14.82617Zm0,3.15772a.82886.82886,0,1,1,.82862-.8291A.83022.83022,0,0,1,15.26367,17.98389Z" fill="#171717"/><path d="M20.4209,14.82617a2.32886,2.32886,0,1,0,2.32861,2.32862A2.33144,2.33144,0,0,0,20.4209,14.82617Zm0,3.15772a.82886.82886,0,1,1,.82861-.8291A.83022.83022,0,0,1,20.4209,17.98389Z" fill="#171717"/><path d="M20.4209,9.668a2.32886,2.32886,0,1,0,2.32861,2.32861A2.33143,2.33143,0,0,0,20.4209,9.668Z" fill="#171717"/><path d="M20.4209,9.168a2.3291,2.3291,0,1,0-2.3291-2.3291A2.33143,2.33143,0,0,0,20.4209,9.168Zm0-3.1582a.8291.8291,0,1,1-.8291.8291A.8298.8298,0,0,1,20.4209,6.00977Z" fill="#171717"/></svg>