<?xml version="1.0" encoding="UTF-8"?><svg id="a" xmlns="http://www.w3.org/2000/svg" viewBox="0 0 24 24"><path d="M5.9082,6.83887c0,1.28418-1.04492,2.3291-2.3291,2.3291s-2.32861-1.04492-2.32861-2.3291,1.04443-2.3291,2.32861-2.3291,2.3291,1.04492,2.3291,2.3291ZM5.9082,11.99658c0,1.28418-1.04492,2.3291-2.3291,2.3291s-2.32861-1.04492-2.32861-2.3291,1.04443-2.32861,2.32861-2.32861,2.3291,1.04443,2.3291,2.32861ZM4.4082,11.99658c0-.45703-.37207-.82861-.8291-.82861s-.82861.37158-.82861.82861.37158.8291.82861.8291.8291-.37207.8291-.8291ZM5.9082,17.15479c0,1.28418-1.04492,2.3291-2.3291,2.3291s-2.32861-1.04492-2.32861-2.3291,1.04443-2.32861,2.32861-2.32861,2.3291,1.04443,2.3291,2.32861ZM4.4082,17.15479c0-.45703-.37207-.82861-.8291-.82861s-.82861.37158-.82861.82861.37158.8291.82861.8291.8291-.37207.8291-.8291ZM11.06543,17.15479c0,1.28418-1.04492,2.3291-2.3291,2.3291s-2.32861-1.04492-2.32861-2.3291,1.04443-2.32861,2.32861-2.32861,2.3291,1.04443,2.3291,2.32861ZM9.56543,17.15479c0-.45703-.37207-.82861-.8291-.82861s-.82861.37158-.82861.82861.37158.8291.82861.8291.8291-.37207.8291-.8291ZM11.06543,11.99658c0,1.28418-1.04492,2.3291-2.3291,2.3291s-2.32861-1.04492-2.32861-2.3291,1.04443-2.32861,2.32861-2.32861,2.3291,1.04443,2.3291,2.32861ZM9.56543,11.99658c0-.45703-.37207-.82861-.8291-.82861s-.82861.37158-.82861.82861.37158.8291.82861.8291.8291-.37207.8291-.8291ZM8.73633,4.50977c-1.28418,0-2.32861,1.04492-2.32861,2.3291s1.04443,2.3291,2.32861,2.3291,2.3291-1.04492,2.3291-2.3291-1.04492-2.3291-2.3291-2.3291ZM15.26367,4.50977c-1.28418,0-2.3291,1.04492-2.3291,2.3291s1.04492,2.3291,2.3291,2.3291,2.32861-1.04492,2.32861-2.3291-1.04443-2.3291-2.32861-2.3291ZM15.26367,9.66797c-1.28418,0-2.3291,1.04443-2.3291,2.32861s1.04492,2.3291,2.3291,2.3291,2.32861-1.04492,2.32861-2.3291-1.04443-2.32861-2.32861-2.32861ZM17.59229,17.15479c0,1.28418-1.04443,2.3291-2.32861,2.3291s-2.3291-1.04492-2.3291-2.3291,1.04492-2.32861,2.3291-2.32861,2.32861,1.04443,2.32861,2.32861ZM16.09229,17.15479c0-.45703-.37158-.82861-.82861-.82861s-.8291.37158-.8291.82861.37207.8291.8291.8291.82861-.37207.82861-.8291ZM22.74951,17.15479c0,1.28418-1.04443,2.3291-2.32861,2.3291s-2.3291-1.04492-2.3291-2.3291,1.04492-2.32861,2.3291-2.32861,2.32861,1.04443,2.32861,2.32861ZM21.24951,17.15479c0-.45703-.37158-.82861-.82861-.82861s-.8291.37158-.8291.82861.37207.8291.8291.8291.82861-.37207.82861-.8291ZM20.4209,9.66797c-1.28418,0-2.3291,1.04443-2.3291,2.32861s1.04492,2.3291,2.3291,2.3291,2.32861-1.04492,2.32861-2.3291-1.04443-2.32861-2.32861-2.32861ZM18.0918,6.83887c0-1.28418,1.04492-2.3291,2.3291-2.3291s2.32861,1.04492,2.32861,2.3291-1.04443,2.3291-2.32861,2.3291-2.3291-1.04492-2.3291-2.3291ZM19.5918,6.83887c0,.45703.37207.8291.8291.8291s.82861-.37207.82861-.8291-.37158-.8291-.82861-.8291-.8291.37207-.8291.8291Z"/></svg>