<svg xmlns="http://www.w3.org/2000/svg" viewBox="0 0 16.58301 11.25"><title>Braille</title>
	<circle cx="1.625" cy="1.625" r="1.625" fill="#171717"/>
	<path d="M1.625,4A1.625,1.625,0,1,0,3.25,5.625,1.62719,1.62719,0,0,0,1.625,4Zm0,2.5A.875.875,0,1,1,2.5,5.625.87606.87606,0,0,1,1.625,6.5Z" fill="#171717"/>
	<path d="M1.625,8A1.625,1.625,0,1,0,3.25,9.625,1.62719,1.62719,0,0,0,1.625,8Zm0,2.5A.875.875,0,1,1,2.5,9.625.87606.87606,0,0,1,1.625,10.5Z" fill="#171717"/>
	<path d="M5.625,8A1.625,1.625,0,1,0,7.25,9.625,1.62719,1.62719,0,0,0,5.625,8Zm0,2.5A.875.875,0,1,1,6.5,9.625.87606.87606,0,0,1,5.625,10.5Z" fill="#171717"/>
	<path d="M5.625,4A1.625,1.625,0,1,0,7.25,5.625,1.62719,1.62719,0,0,0,5.625,4Zm0,2.5A.875.875,0,1,1,6.5,5.625.87606.87606,0,0,1,5.625,6.5Z" fill="#171717"/>
	<circle cx="5.625" cy="1.625" r="1.625" fill="#171717"/>
	<circle cx="10.9585" cy="1.625" r="1.625" fill="#171717"/>
	<circle cx="10.9585" cy="5.625" r="1.625" fill="#171717"/>
	<path d="M10.9585,8a1.625,1.625,0,1,0,1.625,1.625A1.62719,1.62719,0,0,0,10.9585,8Zm0,2.5a.875.875,0,1,1,.875-.875A.87606.87606,0,0,1,10.9585,10.5Z"
		  fill="#171717"/>
	<path d="M14.9585,8A1.625,1.625,0,1,0,16.583,9.625,1.62719,1.62719,0,0,0,14.9585,8Zm0,2.5a.875.875,0,1,1,.875-.875A.87606.87606,0,0,1,14.9585,10.5Z"
		  fill="#171717"/>
	<path d="M14.9585,4A1.625,1.625,0,1,0,16.583,5.625,1.62719,1.62719,0,0,0,14.9585,4Z" fill="#171717"/>
	<path d="M14.9585,3.25a1.625,1.625,0,1,0-1.625-1.625A1.62616,1.62616,0,0,0,14.9585,3.25Zm0-2.5a.875.875,0,1,1-.875.875A.87606.87606,0,0,1,14.9585.75Z"
		  fill="#171717"/>
</svg>
