<svg xmlns="http://www.w3.org/2000/svg" viewBox="0 0 24 24"><title>Braille</title><circle cx="5.36035" cy="7.99658" r="1.625" fill="#171717"/><path d="M5.36035,10.37158a1.625,1.625,0,1,0,1.625,1.625A1.6272,1.6272,0,0,0,5.36035,10.37158Zm0,2.5a.875.875,0,1,1,.875-.875A.87606.87606,0,0,1,5.36035,12.87158Z" fill="#171717"/><path d="M5.36035,14.37158a1.625,1.625,0,1,0,1.625,1.625A1.6272,1.6272,0,0,0,5.36035,14.37158Zm0,2.5a.875.875,0,1,1,.875-.875A.87606.87606,0,0,1,5.36035,16.87158Z" fill="#171717"/><path d="M9.36035,14.37158a1.625,1.625,0,1,0,1.625,1.625A1.6272,1.6272,0,0,0,9.36035,14.37158Zm0,2.5a.875.875,0,1,1,.875-.875A.87606.87606,0,0,1,9.36035,16.87158Z" fill="#171717"/><path d="M9.36035,10.37158a1.625,1.625,0,1,0,1.625,1.625A1.6272,1.6272,0,0,0,9.36035,10.37158Zm0,2.5a.875.875,0,1,1,.875-.875A.87606.87606,0,0,1,9.36035,12.87158Z" fill="#171717"/><circle cx="9.36035" cy="7.99658" r="1.625" fill="#171717"/><circle cx="14.69385" cy="7.99658" r="1.625" fill="#171717"/><circle cx="14.69385" cy="11.99658" r="1.625" fill="#171717"/><path d="M14.69385,14.37158a1.625,1.625,0,1,0,1.625,1.625A1.6272,1.6272,0,0,0,14.69385,14.37158Zm0,2.5a.875.875,0,1,1,.875-.875A.87606.87606,0,0,1,14.69385,16.87158Z" fill="#171717"/><path d="M18.69385,14.37158a1.625,1.625,0,1,0,1.62451,1.625A1.6272,1.6272,0,0,0,18.69385,14.37158Zm0,2.5a.875.875,0,1,1,.875-.875A.87606.87606,0,0,1,18.69385,16.87158Z" fill="#171717"/><path d="M18.69385,10.37158a1.625,1.625,0,1,0,1.62451,1.625A1.6272,1.6272,0,0,0,18.69385,10.37158Z" fill="#171717"/><path d="M18.69385,9.62158a1.625,1.625,0,1,0-1.625-1.625A1.62615,1.62615,0,0,0,18.69385,9.62158Zm0-2.5a.875.875,0,1,1-.875.875A.87606.87606,0,0,1,18.69385,7.12158Z" fill="#171717"/></svg>