<svg xmlns="http://www.w3.org/2000/svg" viewBox="0 0 24.75 24.75"><defs><style>.cls-1{fill:none;stroke:#171717;stroke-miterlimit:10;stroke-width:0.75px;}.cls-2{fill:#171717;}</style></defs><title>Brush</title><g id="Ebene_2" data-name="Ebene 2"><g id="Ebene_1-2" data-name="Ebene 1"><rect class="cls-1" x="0.375" y="0.375" width="24" height="24"/><path class="cls-2" d="M5.52393,19.90568c-.124,0-.23-.00268-.313-.00561l.01367-.74976h0c.22314,0,.68555-.79614.6875-1.28906a5.74034,5.74034,0,0,0,.041-.57691c.03417-.90649.07617-2.03247,2.07031-2.94043L17.794,4.54582l2.27441,2.28564-9.69482,9.72339a2.633,2.633,0,0,1-.70606,2.0127C8.55371,19.75627,6.4873,19.90568,5.52393,19.90568Zm2.63623-4.79687a2.09865,2.09865,0,0,0-1.45752,2.20361,5.76591,5.76591,0,0,1-.04444.60449,2.631,2.631,0,0,1-.39257,1.20948,4.52412,4.52412,0,0,0,2.855-1.07178A1.89131,1.89131,0,0,0,9.62354,16.579Zm.60937-.45093,1.2168,1.22266L19.00977,6.831,17.793,5.60832Z"/></g></g></svg>
