<svg xmlns="http://www.w3.org/2000/svg" viewBox="0 0 24 24"><title>Brush</title><path d="M18.77246,1.94206,6.4165,14.21354c-2.65478,1.21485-2.71386,2.78516-2.75732,3.937a5.90158,5.90158,0,0,1-.04492.63232l-.00781.105a2.45655,2.45655,0,0,1-.606,1.354l-.02783,1.49952c.13183.00488.28418.0083.45312.0083,1.41309,0,3.99561-.2334,5.45361-1.79151a3.60546,3.60546,0,0,0,.96582-2.60693L22.064,5.217ZM7.78418,18.93327a5.03991,5.03991,0,0,1-2.981,1.22754,3.53663,3.53663,0,0,0,.30225-1.2085c.03223-.2417.043-.49121.05224-.7456a2.34739,2.34739,0,0,1,1.53614-2.46045l1.65234,1.644A2.08436,2.08436,0,0,1,7.78418,18.93327Zm1.29248-2.93262-1.16455-1.1582L18.77148,4.05729,19.936,5.216Z" fill="#171717"/></svg>