<svg xmlns="http://www.w3.org/2000/svg" viewBox="0 0 14.85742 15.35986"><title>Brush</title>
	<path
		d="M.313,15.35986c-.124,0-.23-.00268-.313-.00561l.01367-.74976h0c.22315,0,.68555-.79614.6875-1.28906a5.74016,5.74016,0,0,0,.041-.5769C.77637,11.832.81836,10.70605,2.8125,9.7981L12.583,0l2.27441,2.28564L5.1626,12.009a2.633,2.633,0,0,1-.70606,2.0127C3.34277,15.21045,1.27637,15.35986.313,15.35986ZM2.94922,10.563A2.09865,2.09865,0,0,0,1.4917,12.7666a5.76323,5.76323,0,0,1-.04443.60449,2.63115,2.63115,0,0,1-.39258,1.20948,4.52412,4.52412,0,0,0,2.855-1.07178A1.89127,1.89127,0,0,0,4.4126,12.0332Zm.60937-.45093,1.2168,1.22266,9.02344-9.04956L12.582,1.0625Z"
		fill="#171717"/>
</svg>
