<svg xmlns="http://www.w3.org/2000/svg" viewBox="0 0 24 24"><title>Brush</title><path d="M5.14893,19.53068c-.124,0-.23-.00268-.313-.00561l.01367-.74976h0c.22314,0,.68555-.79614.6875-1.28906a5.74034,5.74034,0,0,0,.041-.57691c.03417-.90649.07617-2.03247,2.07031-2.94043L17.419,4.17082l2.27441,2.28564L9.99854,16.17985a2.633,2.633,0,0,1-.70606,2.0127C8.17871,19.38127,6.1123,19.53068,5.14893,19.53068Zm2.63623-4.79687a2.09865,2.09865,0,0,0-1.45752,2.20361,5.76591,5.76591,0,0,1-.04444.60449,2.631,2.631,0,0,1-.39257,1.20948,4.52412,4.52412,0,0,0,2.855-1.07178A1.89131,1.89131,0,0,0,9.24854,16.204Zm.60937-.45093,1.2168,1.22266L18.63477,6.456,17.418,5.23332Z" fill="#171717"/></svg>