<?xml version="1.0" encoding="UTF-8"?><svg id="a" xmlns="http://www.w3.org/2000/svg" viewBox="0 0 24 24"><path d="M18.77246,1.94206L6.4165,14.21354c-2.65479,1.21484-2.71387,2.78516-2.75732,3.93701-.0083.21582-.01465.42773-.04492.63232l-.00781.10498c-.00195.44336-.43115,1.26123-.60596,1.354l-.02783,1.49951c.13184.00488.28418.0083.45312.0083,1.41309,0,3.99561-.2334,5.45361-1.7915.65723-.70215.9873-1.59766.96582-2.60693l12.21875-12.13428-3.2915-3.2749ZM7.78418,18.93327c-.6543.69922-1.80127,1.07227-2.98096,1.22754.18457-.42725.29004-.86621.30225-1.2085.03223-.2417.04297-.49121.05225-.74561.03564-.93604.06445-1.69238,1.53613-2.46045l1.65234,1.64404c.01367.61865-.1709,1.12549-.56201,1.54297ZM9.07666,16.00065l-1.16455-1.1582,10.85938-10.78516,1.16455,1.15869-10.85938,10.78467Z"/></svg>