<svg xmlns="http://www.w3.org/2000/svg" viewBox="0 0 24 24"><title>Bug</title><path d="M7.84094,4.03028a6.09546,6.09546,0,0,0-.64612.86474,6.28606,6.28606,0,0,0-.85058,2.43457l-.11231.84815,11.53614.00244-.11231-.84864a6.18443,6.18443,0,0,0-1.5271-3.30664A1.6773,1.6773,0,0,1,17.74561,2.75V1.25a3.18854,3.18854,0,0,0-2.81122,1.72363,5.364,5.364,0,0,0-5.88953.01319A3.1457,3.1457,0,0,0,6.22266,1.25v1.5A1.67884,1.67884,0,0,1,7.84094,4.03028ZM8.479,5.67041A4.12886,4.12886,0,0,1,12,3.59961a4.28162,4.28162,0,0,1,3.978,3.08057l-7.957-.002A4.74659,4.74659,0,0,1,8.479,5.67041Z" fill="#171717"/><path d="M18.58545,14.85791V10.3291l1.30762-1.30761L18.83252,7.96094,17.5249,9.26856H6.47516L5.168,7.96094,4.10742,9.02149,5.41455,10.3291v4.52881H3.999v1.5H5.44177A7.15355,7.15355,0,0,0,6.678,19.87305l-1.07062,1.0708L6.668,22.0044l.99225-.99219A6.28662,6.28662,0,0,0,16.396,20.958l.98681.98633,1.06055-1.06055L17.36761,19.8086a7.15883,7.15883,0,0,0,1.19062-3.45069H20v-1.5Zm-1.5.93213A5.356,5.356,0,0,1,12.75,21.18457V12h-1.5v9.18457A5.356,5.356,0,0,1,6.91455,15.79V10.76856h10.1709Z" fill="#171717"/></svg>