<svg xmlns="http://www.w3.org/2000/svg" viewBox="0 0 24 24"><title>Bug</title><path d="M16.59277,8.98291A4.57784,4.57784,0,0,0,15.08643,5.6001a1.537,1.537,0,0,1,1.46923-1.15039v-.75a2.30338,2.30338,0,0,0-2.10449,1.40723,4.52625,4.52625,0,0,0-4.913-.00586,2.27243,2.27243,0,0,0-2.105-1.40137v.75A1.53934,1.53934,0,0,1,8.9007,5.59326,4.57713,4.57713,0,0,0,7.38623,8.98291v.375h9.20654Zm-8.43847-.375a3.85349,3.85349,0,0,1,7.67041,0Z" fill="#171717"/><path d="M18.45117,15.231v-.75h-1.126V10.58545l.95117-.95117L17.74609,9.104l-.95117.95117H7.272L6.32031,9.104,5.79,9.63428l.95166.95117V14.481h-1.126v.75H6.765a5.23987,5.23987,0,0,0,1.21253,3.127l-.81006.80957.53027.53028.79395-.79395a5.21594,5.21594,0,0,0,7.10217-.01562l.80994.80957.53027-.53028-.82934-.8291A5.23287,5.23287,0,0,0,17.30188,15.231Zm-1.876-.23145a4.5337,4.5337,0,0,1-4.167,4.50489V11.11768h-.75V19.5044a4.53332,4.53332,0,0,1-4.1665-4.50489V10.80518h9.0835Z" fill="#171717"/></svg>