<svg xmlns="http://www.w3.org/2000/svg" viewBox="0 0 24.75 24.75"><defs><style>.cls-1{fill:none;stroke:#171717;stroke-miterlimit:10;stroke-width:0.75px;}.cls-2{fill:#171717;}</style></defs><title>Bug</title><g id="Ebene_2" data-name="Ebene 2"><g id="Ebene_1-2" data-name="Ebene 1"><rect class="cls-1" x="0.375" y="0.375" width="24" height="24"/><path class="cls-2" d="M16.95111,9.35791A4.57785,4.57785,0,0,0,15.44476,5.9751,1.537,1.537,0,0,1,16.914,4.82471v-.75a2.30341,2.30341,0,0,0-2.1045,1.40723,4.52625,4.52625,0,0,0-4.913-.00586,2.27242,2.27242,0,0,0-2.105-1.40137v.75A1.53933,1.53933,0,0,1,9.259,5.96826,4.57713,4.57713,0,0,0,7.74456,9.35791v.375h9.20655Zm-8.43848-.375a3.85349,3.85349,0,0,1,7.67041,0Z"/><path class="cls-2" d="M18.8095,15.606v-.75h-1.126V10.96045l.95117-.95117L18.10443,9.479l-.95118.95117H7.63031L6.67865,9.479l-.53028.53027L7.1,10.96045V14.856h-1.126v.75H7.12335a5.23992,5.23992,0,0,0,1.21252,3.127l-.81006.80957.53028.53028L8.85,19.27881a5.21595,5.21595,0,0,0,7.10218-.01562l.80993.80957.53028-.53028-.82935-.8291A5.23287,5.23287,0,0,0,17.66021,15.606Zm-1.876-.23145a4.53369,4.53369,0,0,1-4.167,4.50489V11.49268h-.75V19.8794A4.53332,4.53332,0,0,1,7.85,15.37451V11.18018h9.0835Z"/></g></g></svg>
