<svg xmlns="http://www.w3.org/2000/svg" viewBox="0 0 12.83545 16.5918"><title>Bug</title>
	<path
		d="M10.97705,5.2832A4.57785,4.57785,0,0,0,9.4707,1.90039,1.537,1.537,0,0,1,10.93994.75V0A2.30338,2.30338,0,0,0,8.83545,1.40723a4.52627,4.52627,0,0,0-4.913-.00586A2.27241,2.27241,0,0,0,1.81738,0V.75A1.53933,1.53933,0,0,1,3.285,1.89355,4.57716,4.57716,0,0,0,1.77051,5.2832v.375h9.20654Zm-8.43848-.375a3.85349,3.85349,0,0,1,7.67041,0Z"
		fill="#171717"/>
	<path
		d="M12.83545,11.53125v-.75h-1.126V6.88574l.95117-.95117-.53027-.53027-.95117.95117H1.65625L.70459,5.4043l-.53027.53027.95166.95117v3.89551H0v.75H1.14929a5.23987,5.23987,0,0,0,1.21253,3.127l-.81006.80957.53027.53028.794-.79395a5.21594,5.21594,0,0,0,7.10217-.01562l.80994.80957.53027-.53028-.82935-.8291a5.23288,5.23288,0,0,0,1.19715-3.10742Zm-1.876-.23145a4.53369,4.53369,0,0,1-4.167,4.50489V7.418h-.75v8.38672A4.53332,4.53332,0,0,1,1.876,11.2998V7.10547h9.08349Z"
		fill="#171717"/>
</svg>
