<?xml version="1.0" encoding="UTF-8"?><svg id="a" xmlns="http://www.w3.org/2000/svg" viewBox="0 0 24 24"><path d="M14.41602,6.75016h-1.5v-2.5h1.5v2.5ZM17.74951,14.75016h-1.5v2.5h1.5v-2.5ZM14.41602,7.75016h-1.5v2.5h1.5v-2.5ZM14.41602,11.25016h-1.5v2.5h1.5v-2.5ZM17.74951,4.25016h-1.5v2.5h1.5v-2.5ZM17.74951,7.75016h-1.5v2.5h1.5v-2.5ZM17.74951,11.25016h-1.5v2.5h1.5v-2.5ZM14.41602,14.75016h-1.5v2.5h1.5v-2.5ZM7.74951,11.25016h-1.5v2.5h1.5v-2.5ZM11.08301,4.25016h-1.5v2.5h1.5v-2.5ZM7.74951,14.75016h-1.5v2.5h1.5v-2.5ZM7.74951,4.25016h-1.5v2.5h1.5v-2.5ZM20.75,1.25016v21.5H3.25V1.25016h17.5ZM19.25,2.75016H4.75v18.5h4.83252v-2.5h4.85748v2.5h4.81V2.75016ZM7.74951,7.75016h-1.5v2.5h1.5v-2.5ZM11.08301,7.75016h-1.5v2.5h1.5v-2.5ZM11.08301,14.75016h-1.5v2.5h1.5v-2.5ZM11.08301,11.25016h-1.5v2.5h1.5v-2.5Z"/></svg>