<svg xmlns="http://www.w3.org/2000/svg" viewBox="0 0 24 24"><title>Building</title><path d="M5.24072,3.7085v16.583H18.75928V3.7085Zm12.76856,15.833h-4.5091V17.96143h-3v1.58008H5.99072V4.4585H18.00928Z" fill="#171717"/><rect x="7.36865" y="10.74268" width="0.75" height="1.31738" fill="#171717"/><rect x="9.49707" y="10.74268" width="0.75" height="1.31738" fill="#171717"/><rect x="11.625" y="10.74268" width="0.75" height="1.31738" fill="#171717"/><rect x="13.75293" y="10.74268" width="0.75" height="1.31738" fill="#171717"/><rect x="15.88135" y="10.74268" width="0.75" height="1.31738" fill="#171717"/><rect x="7.36865" y="7.99268" width="0.75" height="1.31738" fill="#171717"/><rect x="9.49707" y="7.99268" width="0.75" height="1.31738" fill="#171717"/><rect x="11.625" y="7.99268" width="0.75" height="1.31738" fill="#171717"/><rect x="13.75293" y="7.99268" width="0.75" height="1.31738" fill="#171717"/><rect x="15.88135" y="7.99268" width="0.75" height="1.31738" fill="#171717"/><rect x="7.36865" y="15.9917" width="0.75" height="1.31836" fill="#171717"/><rect x="9.49707" y="15.9917" width="0.75" height="1.31836" fill="#171717"/><rect x="11.625" y="15.9917" width="0.75" height="1.31836" fill="#171717"/><rect x="13.75293" y="15.9917" width="0.75" height="1.31836" fill="#171717"/><rect x="15.88135" y="15.9917" width="0.75" height="1.31836" fill="#171717"/><rect x="7.36865" y="13.2417" width="0.75" height="1.31836" fill="#171717"/><rect x="9.49707" y="13.2417" width="0.75" height="1.31836" fill="#171717"/><rect x="11.625" y="13.2417" width="0.75" height="1.31836" fill="#171717"/><rect x="13.75293" y="13.2417" width="0.75" height="1.31836" fill="#171717"/><rect x="15.88135" y="13.2417" width="0.75" height="1.31836" fill="#171717"/><rect x="7.36865" y="5.24268" width="0.75" height="1.31738" fill="#171717"/><rect x="9.49707" y="5.24268" width="0.75" height="1.31738" fill="#171717"/><rect x="11.625" y="5.24268" width="0.75" height="1.31738" fill="#171717"/><rect x="13.75293" y="5.24268" width="0.75" height="1.31738" fill="#171717"/><rect x="15.88135" y="5.24268" width="0.75" height="1.31738" fill="#171717"/></svg>