<svg xmlns="http://www.w3.org/2000/svg" viewBox="0 0 24.75 24.75"><defs><style>.cls-1{fill:none;stroke:#171717;stroke-miterlimit:10;stroke-width:0.75px;}</style></defs><title>Building</title><g id="Ebene_2" data-name="Ebene 2"><g id="Ebene_1-2" data-name="Ebene 1"><rect class="cls-1" x="0.375" y="0.375" width="24" height="24"/><path d="M5.61572,4.0835v16.583H19.13428V4.0835Zm12.76856,15.833h-4.5091V18.33643h-3v1.58008H6.36572V4.8335H18.38428Z"/><rect x="7.74365" y="11.11768" width="0.75" height="1.31738"/><rect x="9.87207" y="11.11768" width="0.75" height="1.31738"/><rect x="12" y="11.11768" width="0.75" height="1.31738"/><rect x="14.12793" y="11.11768" width="0.75" height="1.31738"/><rect x="16.25635" y="11.11768" width="0.75" height="1.31738"/><rect x="7.74365" y="8.36768" width="0.75" height="1.31738"/><rect x="9.87207" y="8.36768" width="0.75" height="1.31738"/><rect x="12" y="8.36768" width="0.75" height="1.31738"/><rect x="14.12793" y="8.36768" width="0.75" height="1.31738"/><rect x="16.25635" y="8.36768" width="0.75" height="1.31738"/><rect x="7.74365" y="16.36671" width="0.75" height="1.31836"/><rect x="9.87207" y="16.36671" width="0.75" height="1.31836"/><rect x="12" y="16.36671" width="0.75" height="1.31836"/><rect x="14.12793" y="16.36671" width="0.75" height="1.31836"/><rect x="16.25635" y="16.36671" width="0.75" height="1.31836"/><rect x="7.74365" y="13.61671" width="0.75" height="1.31836"/><rect x="9.87207" y="13.61671" width="0.75" height="1.31836"/><rect x="12" y="13.61671" width="0.75" height="1.31836"/><rect x="14.12793" y="13.61671" width="0.75" height="1.31836"/><rect x="16.25635" y="13.61671" width="0.75" height="1.31836"/><rect x="7.74365" y="5.61768" width="0.75" height="1.31738"/><rect x="9.87207" y="5.61768" width="0.75" height="1.31738"/><rect x="12" y="5.61768" width="0.75" height="1.31738"/><rect x="14.12793" y="5.61768" width="0.75" height="1.31738"/><rect x="16.25635" y="5.61768" width="0.75" height="1.31738"/></g></g></svg>
