<svg xmlns="http://www.w3.org/2000/svg" viewBox="0 0 24 24"><title>Building</title><path d="M3.25,1.25v21.5h17.5V1.25Zm16,20H14.44v-2.5H9.58252v2.5H4.75V2.75h14.5Z" fill="#171717"/><rect x="6.24951" y="4.25" width="1.5" height="2.5" fill="#171717"/><rect x="12.91602" y="4.25" width="1.5" height="2.5" fill="#171717"/><rect x="9.58301" y="4.25" width="1.5" height="2.5" fill="#171717"/><rect x="16.24951" y="4.25" width="1.5" height="2.5" fill="#171717"/><rect x="6.24951" y="7.75" width="1.5" height="2.5" fill="#171717"/><rect x="12.91602" y="7.75" width="1.5" height="2.5" fill="#171717"/><rect x="9.58301" y="7.75" width="1.5" height="2.5" fill="#171717"/><rect x="16.24951" y="7.75" width="1.5" height="2.5" fill="#171717"/><rect x="6.24951" y="11.25" width="1.5" height="2.5" fill="#171717"/><rect x="12.91602" y="11.25" width="1.5" height="2.5" fill="#171717"/><rect x="9.58301" y="11.25" width="1.5" height="2.5" fill="#171717"/><rect x="16.24951" y="11.25" width="1.5" height="2.5" fill="#171717"/><rect x="6.24951" y="14.75" width="1.5" height="2.5" fill="#171717"/><rect x="12.91602" y="14.75" width="1.5" height="2.5" fill="#171717"/><rect x="9.58301" y="14.75" width="1.5" height="2.5" fill="#171717"/><rect x="16.24951" y="14.75" width="1.5" height="2.5" fill="#171717"/></svg>