<svg xmlns="http://www.w3.org/2000/svg" viewBox="0 0 13.51855 16.58301"><title>Building</title>
	<path d="M0,0V16.583H13.51855V0ZM12.76855,15.833H8.25946V14.25293h-3V15.833H.75V.75H12.76855Z" fill="#171717"/>
	<rect x="2.12793" y="7.03418" width="0.75" height="1.31738" fill="#171717"/>
	<rect x="4.25635" y="7.03418" width="0.75" height="1.31738" fill="#171717"/>
	<rect x="6.38428" y="7.03418" width="0.75" height="1.31738" fill="#171717"/>
	<rect x="8.51221" y="7.03418" width="0.75" height="1.31738" fill="#171717"/>
	<rect x="10.64063" y="7.03418" width="0.75" height="1.31738" fill="#171717"/>
	<rect x="2.12793" y="4.28418" width="0.75" height="1.31738" fill="#171717"/>
	<rect x="4.25635" y="4.28418" width="0.75" height="1.31738" fill="#171717"/>
	<rect x="6.38428" y="4.28418" width="0.75" height="1.31738" fill="#171717"/>
	<rect x="8.51221" y="4.28418" width="0.75" height="1.31738" fill="#171717"/>
	<rect x="10.64063" y="4.28418" width="0.75" height="1.31738" fill="#171717"/>
	<rect x="2.12793" y="12.2832" width="0.75" height="1.31836" fill="#171717"/>
	<rect x="4.25635" y="12.2832" width="0.75" height="1.31836" fill="#171717"/>
	<rect x="6.38428" y="12.2832" width="0.75" height="1.31836" fill="#171717"/>
	<rect x="8.51221" y="12.2832" width="0.75" height="1.31836" fill="#171717"/>
	<rect x="10.64063" y="12.2832" width="0.75" height="1.31836" fill="#171717"/>
	<rect x="2.12793" y="9.5332" width="0.75" height="1.31836" fill="#171717"/>
	<rect x="4.25635" y="9.5332" width="0.75" height="1.31836" fill="#171717"/>
	<rect x="6.38428" y="9.5332" width="0.75" height="1.31836" fill="#171717"/>
	<rect x="8.51221" y="9.5332" width="0.75" height="1.31836" fill="#171717"/>
	<rect x="10.64063" y="9.5332" width="0.75" height="1.31836" fill="#171717"/>
	<rect x="2.12793" y="1.53418" width="0.75" height="1.31738" fill="#171717"/>
	<rect x="4.25635" y="1.53418" width="0.75" height="1.31738" fill="#171717"/>
	<rect x="6.38428" y="1.53418" width="0.75" height="1.31738" fill="#171717"/>
	<rect x="8.51221" y="1.53418" width="0.75" height="1.31738" fill="#171717"/>
	<rect x="10.64063" y="1.53418" width="0.75" height="1.31738" fill="#171717"/>
</svg>
