<?xml version="1.0" encoding="UTF-8"?><svg id="a" xmlns="http://www.w3.org/2000/svg" viewBox="0 0 24 24"><path d="M3.25,1.25v21.5h17.5V1.25H3.25ZM19.25,21.25h-4.81v-2.5h-4.85748v2.5h-4.83252V2.75h14.5v18.5ZM7.74951,6.75h-1.5v-2.5h1.5v2.5ZM14.41602,6.75h-1.5v-2.5h1.5v2.5ZM11.08301,6.75h-1.5v-2.5h1.5v2.5ZM17.74951,6.75h-1.5v-2.5h1.5v2.5ZM7.74951,10.25h-1.5v-2.5h1.5v2.5ZM14.41602,10.25h-1.5v-2.5h1.5v2.5ZM11.08301,10.25h-1.5v-2.5h1.5v2.5ZM17.74951,10.25h-1.5v-2.5h1.5v2.5ZM7.74951,13.75h-1.5v-2.5h1.5v2.5ZM14.41602,13.75h-1.5v-2.5h1.5v2.5ZM11.08301,13.75h-1.5v-2.5h1.5v2.5ZM17.74951,13.75h-1.5v-2.5h1.5v2.5ZM7.74951,17.25h-1.5v-2.5h1.5v2.5ZM14.41602,17.25h-1.5v-2.5h1.5v2.5ZM11.08301,17.25h-1.5v-2.5h1.5v2.5ZM17.74951,17.25h-1.5v-2.5h1.5v2.5Z"/></svg>