<svg xmlns="http://www.w3.org/2000/svg" viewBox="0 0 24.75 24.75"><defs><style>.cls-1{fill:none;stroke:#171717;stroke-miterlimit:10;stroke-width:0.75px;}.cls-2{fill:#171717;}</style></defs><title>Bullseye</title><g id="Ebene_2" data-name="Ebene 2"><g id="Ebene_1-2" data-name="Ebene 1"><rect class="cls-1" x="0.375" y="0.375" width="24" height="24"/><path class="cls-2" d="M12.34173,4.0835a8.29151,8.29151,0,1,0,8.292,8.291A8.30111,8.30111,0,0,0,12.34173,4.0835Zm7.523,7.916H17.59582a5.26835,5.26835,0,0,0-4.87909-4.8789V4.85205A7.53952,7.53952,0,0,1,19.86474,11.99951Zm-7.523,1.917a1.54151,1.54151,0,1,1,1.542-1.542A1.54363,1.54363,0,0,1,12.34173,13.91651Zm-.375-3.7959a2.28805,2.28805,0,0,0-1.87909,1.8789h-2.25a4.52047,4.52047,0,0,1,4.12909-4.1289Zm-1.87909,2.6289a2.288,2.288,0,0,0,1.87909,1.87989v2.25a4.52057,4.52057,0,0,1-4.12909-4.12989Zm2.62909,1.87989a2.28794,2.28794,0,0,0,1.87909-1.87989h2.25a4.52057,4.52057,0,0,1-4.12909,4.12989Zm1.87909-2.62989a2.288,2.288,0,0,0-1.87909-1.8789v-2.25a4.52047,4.52047,0,0,1,4.12909,4.1289ZM11.96673,4.85205V7.12061a5.26835,5.26835,0,0,0-4.87909,4.8789H4.81872A7.53952,7.53952,0,0,1,11.96673,4.85205Zm-7.148,7.89746H7.08764a5.26849,5.26849,0,0,0,4.87909,4.87989V19.898A7.53967,7.53967,0,0,1,4.81872,12.74951Zm7.898,7.14844V17.6294a5.26849,5.26849,0,0,0,4.87909-4.87989h2.26892A7.53967,7.53967,0,0,1,12.71673,19.898Z"/></g></g></svg>
