<svg xmlns="http://www.w3.org/2000/svg" viewBox="0 0 24 24"><title>Bullseye</title><path d="M11.9834,3.7085a8.29151,8.29151,0,1,0,8.292,8.291A8.30111,8.30111,0,0,0,11.9834,3.7085Zm7.523,7.916H17.23749a5.26835,5.26835,0,0,0-4.87909-4.8789V4.47705A7.53952,7.53952,0,0,1,19.50641,11.62451Zm-7.523,1.917a1.54151,1.54151,0,1,1,1.542-1.542A1.54363,1.54363,0,0,1,11.9834,13.54151Zm-.375-3.7959a2.288,2.288,0,0,0-1.87909,1.8789h-2.25a4.52047,4.52047,0,0,1,4.12909-4.1289Zm-1.87909,2.6289A2.28794,2.28794,0,0,0,11.6084,14.2544v2.25a4.52057,4.52057,0,0,1-4.12909-4.12989ZM12.3584,14.2544a2.288,2.288,0,0,0,1.87909-1.87989h2.25A4.52057,4.52057,0,0,1,12.3584,16.5044Zm1.87909-2.62989a2.28805,2.28805,0,0,0-1.87909-1.8789v-2.25a4.52047,4.52047,0,0,1,4.12909,4.1289ZM11.6084,4.47705V6.74561a5.26835,5.26835,0,0,0-4.87909,4.8789H4.46039A7.53952,7.53952,0,0,1,11.6084,4.47705Zm-7.148,7.89746H6.72931A5.26849,5.26849,0,0,0,11.6084,17.2544V19.523A7.53967,7.53967,0,0,1,4.46039,12.37451Zm7.898,7.14844V17.2544a5.26849,5.26849,0,0,0,4.87909-4.87989h2.26892A7.53967,7.53967,0,0,1,12.3584,19.523Z" fill="#171717"/></svg>