<svg xmlns="http://www.w3.org/2000/svg" viewBox="0 0 16.58398 16.58301"><title>Bullseye</title>
	<path
		d="M8.292,0a8.29151,8.29151,0,1,0,8.292,8.291A8.30112,8.30112,0,0,0,8.292,0Zm7.523,7.916H13.54608A5.26835,5.26835,0,0,0,8.667,3.03711V.76855A7.53953,7.53953,0,0,1,15.815,7.916ZM8.292,9.833A1.54151,1.54151,0,1,1,9.834,8.291,1.54363,1.54363,0,0,1,8.292,9.833Zm-.375-3.7959A2.28806,2.28806,0,0,0,6.0379,7.916h-2.25A4.52047,4.52047,0,0,1,7.917,3.78711ZM6.0379,8.666A2.28794,2.28794,0,0,0,7.917,10.5459v2.25A4.52057,4.52057,0,0,1,3.7879,8.666ZM8.667,10.5459A2.28793,2.28793,0,0,0,10.54608,8.666h2.25A4.52057,4.52057,0,0,1,8.667,12.7959ZM10.54608,7.916A2.28805,2.28805,0,0,0,8.667,6.03711v-2.25A4.52047,4.52047,0,0,1,12.79608,7.916ZM7.917.76855V3.03711A5.26836,5.26836,0,0,0,3.0379,7.916H.769A7.53953,7.53953,0,0,1,7.917.76855ZM.769,8.666H3.0379A5.26849,5.26849,0,0,0,7.917,13.5459v2.26855A7.53966,7.53966,0,0,1,.769,8.666Zm7.898,7.14843V13.5459A5.26848,5.26848,0,0,0,13.54608,8.666H15.815A7.53966,7.53966,0,0,1,8.667,15.81445Z"
		fill="#171717"/>
</svg>
