<svg xmlns="http://www.w3.org/2000/svg" viewBox="0 0 24 24"><title>Bullseye</title><path d="M12,1.25A10.74976,10.74976,0,1,0,22.74951,12,10.762,10.762,0,0,0,12,1.25Zm9.21149,10H18.9184A6.97152,6.97152,0,0,0,12.75,5.08154V2.78809A9.254,9.254,0,0,1,21.21149,11.25ZM12,13.6709A1.67114,1.67114,0,1,1,13.6709,12,1.67314,1.67314,0,0,1,12,13.6709Zm-.75-4.74268A3.16977,3.16977,0,0,0,8.92792,11.25H6.59729A5.46407,5.46407,0,0,1,11.25,6.59766ZM8.928,12.75a3.169,3.169,0,0,0,2.322,2.32178v2.33105A5.46407,5.46407,0,0,1,6.59729,12.75Zm3.822,2.32178A3.16837,3.16837,0,0,0,15.07159,12.75h2.33112A5.46407,5.46407,0,0,1,12.75,17.40283ZM15.07166,11.25A3.16924,3.16924,0,0,0,12.75,8.92822V6.59766A5.46407,5.46407,0,0,1,17.40271,11.25ZM11.25,2.78809V5.08154A6.97152,6.97152,0,0,0,5.0816,11.25H2.788A9.25409,9.25409,0,0,1,11.25,2.78809ZM2.788,12.75H5.0816A6.971,6.971,0,0,0,11.25,18.91846v2.293A9.25368,9.25368,0,0,1,2.788,12.75Zm9.962,8.46143v-2.293A6.971,6.971,0,0,0,18.9184,12.75h2.29309A9.25362,9.25362,0,0,1,12.75,21.21143Z" fill="#171717"/></svg>