<svg xmlns="http://www.w3.org/2000/svg" viewBox="0 0 24 24"><path d="M19.33,9.0338a2.30956,2.30956,0,0,0-2.41,2.2v1.31l-.18005-.05-.58-.17v-3.68a4.16476,4.16476,0,0,0-3.41-4.09v-1.28h-1.5v1.28a4.1647,4.1647,0,0,0-3.41,4.09v3.68l-.58.17-.16.05v-1.31a2.32166,2.32166,0,0,0-2.43-2.2,2.30961,2.30961,0,0,0-2.41,2.2v1.26H2.25v9.25h19.5v-7.75h.01v-2.76A2.32162,2.32162,0,0,0,19.33,9.0338Zm-15.57,2.2a.83922.83922,0,0,1,.91-.7c.5,0,.93.32.93.7v1.26H3.76Zm2.86,9.01H3.75v-6.25H6.62ZM12,5.98381a2.65767,2.65767,0,0,1,2.55,1.91H9.45A2.65778,2.65778,0,0,1,12,5.98381Zm-2.66,3.41h5.32v2.48l-2.66-.79-2.66.79Zm6.47,10.85H8.12v-6.44l3.88-1.15,3.81,1.13Zm4.44,0H17.31v-6.25h2.94Zm.01-7.75H18.42v-1.26a.8392.8392,0,0,1,.91-.7c.5,0,.93.32.93.7Z" fill="#171717"/></svg>