<svg xmlns="http://www.w3.org/2000/svg" viewBox="0 0 24 24"><title>Bundeshaus</title><path d="M17.75906,7.67378a1.74446,1.74446,0,0,0-1.75,1.73438l.001,1.89355c-.38672.06153-.77832.11426-1.16894.15723V8.46285a2.86938,2.86938,0,0,0-1.9375-2.70508V5.2646a.9375.9375,0,0,0-1.875,0v.49317a2.86937,2.86937,0,0,0-1.9375,2.70508V11.4482c-.377-.044-.75684-.09571-1.13477-.15625l.002-1.88379a1.75007,1.75007,0,0,0-3.5,0v9.833H6.72976V17.70992a1.92057,1.92057,0,0,1,.99219-.1377,4.36875,4.36875,0,0,1,1.03222.20215h.002v1.66211l.35644.01758c.48828.02441.97949.04394,1.47363.05566l.38379.00879V17.83394a1.94113,1.94113,0,0,1,1.01368-.20313,1.93611,1.93611,0,0,1,1.01269.20313v1.68359l.38477-.01074c.49511-.01269.98535-.03223,1.47461-.05859l.35546-.01856V17.81343a2.01053,2.01053,0,0,1,1.03321-.27148,1.94382,1.94382,0,0,1,.99316.13672v1.55175h2.27149V9.40816A1.74447,1.74447,0,0,0,17.75906,7.67378ZM11.77859,5.2646c0-.207.375-.207.375,0v.3418c-.06317-.00391-.12329-.01855-.1875-.01855s-.12433.01464-.1875.01855Zm6.98047,13.21582h-.77149v-.88964a.58887.58887,0,0,0-.19922-.4375,2.26936,2.26936,0,0,0-1.585-.36036c-.80371.044-1.74219.32032-1.74219.95118v.97265c-.2373.01172-.47558.02051-.71484.0293v-.99024c0-1.209-3.52637-1.208-3.52637,0V18.749q-.35742-.01171-.71386-.02735v-.94726c0-.63086-.93848-.90625-1.74317-.95117a2.25947,2.25947,0,0,0-1.584.36133.58846.58846,0,0,0-.19922.43652v.87012H5.20828v-9.083a1.00012,1.00012,0,0,1,2,0l-.00293,2.5166.31152.05371c.63574.11035,1.2793.19727,1.91211.25977l.41211.04V8.46285a2.125,2.125,0,0,1,4.25,0v3.82324l.41015-.03809c.65039-.06152,1.30567-.14844,1.94727-.25781l.31152-.05371-.001-2.52832a1.00012,1.00012,0,0,1,2,0v9.07226Z" fill="#171717"/><rect x="10.39187" y="9.4521" width="0.75" height="1.5" fill="#171717"/><rect x="5.83328" y="9.4521" width="0.75" height="1.5" fill="#171717"/><rect x="11.59109" y="9.4521" width="0.75" height="1.5" fill="#171717"/><rect x="12.79128" y="9.4521" width="0.75" height="1.5" fill="#171717"/><rect x="17.38406" y="9.4521" width="0.75" height="1.5" fill="#171717"/><rect x="11.59109" y="7.29878" width="0.75" height="0.75" fill="#171717"/><path d="M6.20828,14.85933v.75l1.06054-.00879c.26923.05859.541.10547.8125.1543v-.75879c-.244-.044-.48755-.085-.73242-.13672Z" fill="#171717"/><path d="M9.08132,15.1523v.75683a22.26006,22.26006,0,0,0,2.918.2002A22.05474,22.05474,0,0,0,14.886,15.913v-.75488A21.51685,21.51685,0,0,1,9.08132,15.1523Z" fill="#171717"/><path d="M15.886,14.998v.75879c.24493-.04492.49158-.08691.73047-.14062h1.14258v-.75l-1.22168.00879C16.32107,14.92183,16.10323,14.958,15.886,14.998Z" fill="#171717"/><path d="M9.08132,13.14156v.75586a22.24275,22.24275,0,0,0,2.918.20019,22.03793,22.03793,0,0,0,2.88672-.19629v-.75488A21.55592,21.55592,0,0,1,9.08132,13.14156Z" fill="#171717"/><path d="M6.20828,12.84761v.75l1.06054-.00879c.26905.0586.541.10645.8125.1543v-.75879c-.244-.044-.48761-.085-.73242-.13672Z" fill="#171717"/><path d="M15.886,12.98628v.75879c.245-.04394.4917-.08691.73047-.13965h1.14258v-.75l-1.22168.00782C16.32113,12.91011,16.10329,12.94624,15.886,12.98628Z" fill="#171717"/></svg>