<svg xmlns="http://www.w3.org/2000/svg" viewBox="0 0 24 24"><title>Bundeshaus</title><rect x="10.05566" y="8.98194" width="1.5" height="3" fill="#171717"/><rect x="12.36963" y="8.98194" width="1.5" height="3" fill="#171717"/><rect x="11.25" y="6.64893" width="1.5" height="1.5" fill="#171717"/><path d="M19.26953,6.29737a2.47321,2.47321,0,0,0-2.481,2.46l.00147,2.146q-.4563.06885-.91553.124V7.56787a3.89968,3.89968,0,0,0-2.41406-3.60009V3.71045a1.46045,1.46045,0,0,0-2.9209,0V3.9541a3.89675,3.89675,0,0,0-2.458,3.61377l-.00049,3.44336Q7.6438,10.957,7.21,10.89063l.00147-2.1333a2.4808,2.4808,0,0,0-4.96143,0V21.4126H5.665V19.39209a3.03021,3.03021,0,0,1,.956-.08056,2.96225,2.96225,0,0,1,1.03858.21826v2.11328l.71191.03662q.92652.04761,1.8628.07031l.76855.01856V19.53125A3.00076,3.00076,0,0,1,12,19.38574a2.98892,2.98892,0,0,1,.99756.146V21.7666l.76953-.0205q.936-.02418,1.86279-.07325l.71045-.03759V19.49072A3.48244,3.48244,0,0,1,18.335,19.353v2.04541H21.75V8.75733A2.4731,2.4731,0,0,0,19.26953,6.29737ZM20.25,19.89844h-.415v-.8418a1.03375,1.03375,0,0,0-.3374-.75244,3.25658,3.25658,0,0,0-2.20117-.52978c-1.13282.0625-2.45606.48632-2.45606,1.47509v.959c-.11426.00488-.22851.00976-.34277.01367v-.957c0-.83789-.98047-1.3794-2.49756-1.3794s-2.49707.54151-2.49707,1.3794V20.227q-.17212-.00585-.34326-.01269v-.92627c0-.98828-1.32276-1.41211-2.45557-1.47461a3.2816,3.2816,0,0,0-2.20215.52978,1.03322,1.03322,0,0,0-.33691.752v.81738H3.75V8.75733a.98094.98094,0,0,1,1.96143,0L5.708,12.1582l.623.1084c.79639.13868,1.6128.24952,2.42676.32959l.82276.08057.001-5.10889a2.39649,2.39649,0,1,1,4.793,0v5.11768l.82031-.07715c.8252-.07715,1.65674-.187,2.47217-.32666l.62451-.10693-.00293-3.41748a.98094.98094,0,0,1,1.96143,0Z" fill="#171717"/><path d="M8.186,15.70069v1.51416a28.43271,28.43271,0,0,0,3.834.26953,28.3965,28.3965,0,0,0,3.76123-.25977V15.71094A27.0888,27.0888,0,0,1,8.186,15.70069Z" fill="#171717"/><path d="M4.70508,15.353v1.5H6.06592c.371.08008.74554.145,1.12012.21V15.53711c-.294-.05371-.58881-.103-.88038-.167Z" fill="#171717"/><path d="M17.69336,15.37891c-.30206.06543-.60748.11719-.91211.17187v1.52491c.38483-.06543.76935-.13233,1.15039-.21387h1.36328v-1.5H17.852Z" fill="#171717"/><path d="M4.70508,12.8125v1.5H6.06592c.371.08008.74554.145,1.12012.21V12.99658c-.294-.05371-.58875-.103-.88038-.167Z" fill="#171717"/><path d="M17.69336,12.83887c-.30212.06543-.60748.1167-.91211.17139v1.52539c.38477-.06543.76929-.13233,1.15039-.21387h1.36328v-1.5H17.852Z" fill="#171717"/><path d="M8.186,13.16016v1.51416a28.43271,28.43271,0,0,0,3.834.26953,28.40083,28.40083,0,0,0,3.76123-.25977V13.17041A27.10715,27.10715,0,0,1,8.186,13.16016Z" fill="#171717"/></svg>