<svg xmlns="http://www.w3.org/2000/svg" viewBox="0 0 24.75 24.75"><defs><style>.cls-1{fill:none;stroke:#171717;stroke-miterlimit:10;stroke-width:0.75px;}.cls-2{fill:#171717;}</style></defs><title>Calculator</title><g id="Ebene_2" data-name="Ebene 2"><g id="Ebene_1-2" data-name="Ebene 1"><rect class="cls-1" x="0.375" y="0.375" width="24" height="24"/><path class="cls-2" d="M17.73333,5.52979h-10.75V9.05615h10.75Zm-.75,2.77636h-9.25V6.27979h9.25Z"/><path class="cls-2" d="M5.58245,4.0835v16.583H19.1015V4.0835Zm12.76905,15.833H6.33245V4.8335H18.3515Z"/><path class="cls-2" d="M8.98968,10.59424a.875.875,0,1,0,.875.875A.87606.87606,0,0,0,8.98968,10.59424Zm-.125.875a.125.125,0,0,1,.25,0C9.11468,11.60694,8.86468,11.60694,8.86468,11.46924Z"/><path class="cls-2" d="M12.33148,10.59424a.875.875,0,1,0,.875.875A.87606.87606,0,0,0,12.33148,10.59424Zm-.125.875a.125.125,0,0,1,.25,0C12.45648,11.60694,12.20648,11.60694,12.20648,11.46924Z"/><path class="cls-2" d="M15.67327,10.59424a.875.875,0,1,0,.875.875A.87606.87606,0,0,0,15.67327,10.59424Zm-.125.875a.125.125,0,0,1,.25,0C15.79827,11.60694,15.54827,11.60694,15.54827,11.46924Z"/><path class="cls-2" d="M8.98968,13.61377a.875.875,0,1,0,.875.875A.87606.87606,0,0,0,8.98968,13.61377Zm-.125.875a.125.125,0,0,1,.25,0C9.11468,14.62647,8.86468,14.62647,8.86468,14.48877Z"/><path class="cls-2" d="M12.33148,13.61377a.875.875,0,1,0,.875.875A.87606.87606,0,0,0,12.33148,13.61377Zm-.125.875a.125.125,0,0,1,.25,0C12.45648,14.62647,12.20648,14.62647,12.20648,14.48877Z"/><path class="cls-2" d="M15.67327,13.61377a.875.875,0,1,0,.875.875A.87606.87606,0,0,0,15.67327,13.61377Zm-.125.875a.125.125,0,0,1,.25,0C15.79827,14.62647,15.54827,14.62647,15.54827,14.48877Z"/><path class="cls-2" d="M8.98968,16.63428a.875.875,0,1,0,.875.875A.87606.87606,0,0,0,8.98968,16.63428Zm-.125.875a.125.125,0,0,1,.25,0C9.11468,17.647,8.86468,17.647,8.86468,17.50928Z"/><path class="cls-2" d="M12.33148,16.63428a.875.875,0,1,0,.875.875A.87606.87606,0,0,0,12.33148,16.63428Zm-.125.875a.125.125,0,0,1,.25,0C12.45648,17.647,12.20648,17.647,12.20648,17.50928Z"/><path class="cls-2" d="M15.67327,16.63428a.875.875,0,1,0,.875.875A.87606.87606,0,0,0,15.67327,16.63428Zm-.125.875a.125.125,0,0,1,.25,0C15.79827,17.647,15.54827,17.647,15.54827,17.50928Z"/></g></g></svg>
