<?xml version="1.0" encoding="UTF-8"?><svg id="a" xmlns="http://www.w3.org/2000/svg" viewBox="0 0 24 24"><path d="M17.75,3.79004H6.25v4.48096h11.5V3.79004ZM16.25,6.771H7.75v-1.48096h8.5v1.48096ZM3.25,1.25v21.49951h17.5V1.25H3.25ZM19.25,21.24951H4.75V2.75h14.5v18.49951ZM7.7793,9.35645c-.76172,0-1.38184.61963-1.38184,1.38135s.62012,1.38184,1.38184,1.38184,1.38135-.62012,1.38135-1.38184-.61963-1.38135-1.38135-1.38135ZM7.66064,10.73779c0-.06494.05322-.11816.11865-.11816.06494,0,.11816.05322.11816.11816,0,.13135-.23682.13037-.23682,0ZM12,9.35645c-.76172,0-1.38135.61963-1.38135,1.38135s.61963,1.38184,1.38135,1.38184,1.38135-.62012,1.38135-1.38184-.61963-1.38135-1.38135-1.38135ZM11.88135,10.73779c0-.06494.05322-.11816.11865-.11816s.11865.05322.11865.11816c0,.13086-.2373.13086-.2373,0ZM16.2207,9.35645c-.76172,0-1.38135.61963-1.38135,1.38135s.61963,1.38184,1.38135,1.38184,1.38184-.62012,1.38184-1.38184-.62012-1.38135-1.38184-1.38135ZM16.10254,10.73779c0-.06494.05322-.11816.11816-.11816.06543,0,.11865.05322.11865.11816,0,.13037-.23682.13135-.23682,0ZM7.7793,13.17139c-.76172,0-1.38184.61963-1.38184,1.38135s.62012,1.38184,1.38184,1.38184,1.38135-.62012,1.38135-1.38184-.61963-1.38135-1.38135-1.38135ZM7.66064,14.55274c0-.06494.05322-.11816.11865-.11816.06494,0,.11816.05322.11816.11816,0,.13135-.23682.13037-.23682,0ZM12,13.17139c-.76172,0-1.38135.61963-1.38135,1.38135s.61963,1.38184,1.38135,1.38184,1.38135-.62012,1.38135-1.38184-.61963-1.38135-1.38135-1.38135ZM11.88135,14.55274c0-.06494.05322-.11816.11865-.11816s.11865.05322.11865.11816c0,.13086-.2373.13086-.2373,0ZM16.2207,13.17139c-.76172,0-1.38135.61963-1.38135,1.38135s.61963,1.38184,1.38135,1.38184,1.38184-.62012,1.38184-1.38184-.62012-1.38135-1.38184-1.38135ZM16.10254,14.55274c0-.06494.05322-.11816.11816-.11816.06543,0,.11865.05322.11865.11816,0,.13037-.23682.13135-.23682,0ZM7.7793,16.98633c-.76172,0-1.38184.61963-1.38184,1.38135s.62012,1.38184,1.38184,1.38184,1.38135-.62012,1.38135-1.38184-.61963-1.38135-1.38135-1.38135ZM7.66064,18.36768c0-.06494.05322-.11816.11865-.11816.06494,0,.11816.05322.11816.11816,0,.13135-.23682.13037-.23682,0ZM12,16.98633c-.76172,0-1.38135.61963-1.38135,1.38135s.61963,1.38184,1.38135,1.38184,1.38135-.62012,1.38135-1.38184-.61963-1.38135-1.38135-1.38135ZM11.88135,18.36768c0-.06494.05322-.11816.11865-.11816s.11865.05322.11865.11816c0,.13086-.2373.13086-.2373,0ZM16.2207,16.98633c-.76172,0-1.38135.61963-1.38135,1.38135s.61963,1.38184,1.38135,1.38184,1.38184-.62012,1.38184-1.38184-.62012-1.38135-1.38184-1.38135ZM16.10254,18.36768c0-.06494.05322-.11816.11816-.11816.06543,0,.11865.05322.11865.11816,0,.13037-.23682.13135-.23682,0Z"/></svg>