<svg xmlns="http://www.w3.org/2000/svg" viewBox="0 0 24 24"><title>Calculator</title><path d="M17.375,5.15479H6.625V8.68115h10.75Zm-.75,2.77636H7.375V5.90479h9.25Z" fill="#171717"/><path d="M5.22412,3.7085v16.583h13.519V3.7085Zm12.769,15.833H5.97412V4.4585h12.019Z" fill="#171717"/><path d="M8.63135,10.21924a.875.875,0,1,0,.875.875A.87606.87606,0,0,0,8.63135,10.21924Zm-.125.875a.125.125,0,0,1,.25,0C8.75635,11.23194,8.50635,11.23194,8.50635,11.09424Z" fill="#171717"/><path d="M11.97314,10.21924a.875.875,0,1,0,.875.875A.87606.87606,0,0,0,11.97314,10.21924Zm-.125.875a.125.125,0,0,1,.25,0C12.09814,11.23194,11.84814,11.23194,11.84814,11.09424Z" fill="#171717"/><path d="M15.31494,10.21924a.875.875,0,1,0,.875.875A.87606.87606,0,0,0,15.31494,10.21924Zm-.125.875a.125.125,0,0,1,.25,0C15.43994,11.23194,15.18994,11.23194,15.18994,11.09424Z" fill="#171717"/><path d="M8.63135,13.23877a.875.875,0,1,0,.875.875A.87606.87606,0,0,0,8.63135,13.23877Zm-.125.875a.125.125,0,0,1,.25,0C8.75635,14.25147,8.50635,14.25147,8.50635,14.11377Z" fill="#171717"/><path d="M11.97314,13.23877a.875.875,0,1,0,.875.875A.87606.87606,0,0,0,11.97314,13.23877Zm-.125.875a.125.125,0,0,1,.25,0C12.09814,14.25147,11.84814,14.25147,11.84814,14.11377Z" fill="#171717"/><path d="M15.31494,13.23877a.875.875,0,1,0,.875.875A.87606.87606,0,0,0,15.31494,13.23877Zm-.125.875a.125.125,0,0,1,.25,0C15.43994,14.25147,15.18994,14.25147,15.18994,14.11377Z" fill="#171717"/><path d="M8.63135,16.25928a.875.875,0,1,0,.875.875A.87606.87606,0,0,0,8.63135,16.25928Zm-.125.875a.125.125,0,0,1,.25,0C8.75635,17.272,8.50635,17.272,8.50635,17.13428Z" fill="#171717"/><path d="M11.97314,16.25928a.875.875,0,1,0,.875.875A.87606.87606,0,0,0,11.97314,16.25928Zm-.125.875a.125.125,0,0,1,.25,0C12.09814,17.272,11.84814,17.272,11.84814,17.13428Z" fill="#171717"/><path d="M15.31494,16.25928a.875.875,0,1,0,.875.875A.87606.87606,0,0,0,15.31494,16.25928Zm-.125.875a.125.125,0,1,1,.25,0C15.43994,17.272,15.18994,17.272,15.18994,17.13428Z" fill="#171717"/></svg>