<svg xmlns="http://www.w3.org/2000/svg" viewBox="0 0 13.51904 16.58301"><title>Calculator</title>
	<path d="M12.15088,1.44629h-10.75V4.97266h10.75Zm-.75,2.77637h-9.25V2.19629h9.25Z" fill="#171717"/>
	<path d="M0,0V16.583H13.519V0ZM12.769,15.833H.75V.75H12.769Z" fill="#171717"/>
	<path
		d="M3.40723,6.51074a.875.875,0,1,0,.875.875A.87606.87606,0,0,0,3.40723,6.51074Zm-.125.875a.125.125,0,0,1,.25,0C3.53223,7.52344,3.28223,7.52344,3.28223,7.38574Z"
		fill="#171717"/>
	<path d="M6.749,6.51074a.875.875,0,1,0,.875.875A.87606.87606,0,0,0,6.749,6.51074Zm-.125.875a.125.125,0,0,1,.25,0C6.874,7.52344,6.624,7.52344,6.624,7.38574Z"
		  fill="#171717"/>
	<path
		d="M10.09082,6.51074a.875.875,0,1,0,.875.875A.87606.87606,0,0,0,10.09082,6.51074Zm-.125.875a.125.125,0,1,1,.25,0C10.21582,7.52344,9.96582,7.52344,9.96582,7.38574Z"
		fill="#171717"/>
	<path
		d="M3.40723,9.53027a.875.875,0,1,0,.875.875A.87606.87606,0,0,0,3.40723,9.53027Zm-.125.875a.125.125,0,0,1,.25,0C3.53223,10.543,3.28223,10.543,3.28223,10.40527Z"
		fill="#171717"/>
	<path d="M6.749,9.53027a.875.875,0,1,0,.875.875A.87606.87606,0,0,0,6.749,9.53027Zm-.125.875a.125.125,0,0,1,.25,0C6.874,10.543,6.624,10.543,6.624,10.40527Z"
		  fill="#171717"/>
	<path
		d="M10.09082,9.53027a.875.875,0,1,0,.875.875A.87606.87606,0,0,0,10.09082,9.53027Zm-.125.875a.125.125,0,0,1,.25,0C10.21582,10.543,9.96582,10.543,9.96582,10.40527Z"
		fill="#171717"/>
	<path
		d="M3.40723,12.55078a.875.875,0,1,0,.875.875A.87606.87606,0,0,0,3.40723,12.55078Zm-.125.875a.125.125,0,0,1,.25,0C3.53223,13.56348,3.28223,13.56348,3.28223,13.42578Z"
		fill="#171717"/>
	<path
		d="M6.749,12.55078a.875.875,0,1,0,.875.875A.87606.87606,0,0,0,6.749,12.55078Zm-.125.875a.125.125,0,0,1,.25,0C6.874,13.56348,6.624,13.56348,6.624,13.42578Z"
		fill="#171717"/>
	<path
		d="M10.09082,12.55078a.875.875,0,1,0,.875.875A.87606.87606,0,0,0,10.09082,12.55078Zm-.125.875a.125.125,0,0,1,.25,0C10.21582,13.56348,9.96582,13.56348,9.96582,13.42578Z"
		fill="#171717"/>
</svg>
