<svg xmlns="http://www.w3.org/2000/svg" viewBox="0 0 24 24"><title>Calculator</title><path d="M17.75,3.79H6.25V8.271h11.5Zm-1.5,2.981H7.75V5.29h8.5Z" fill="#171717"/><path d="M3.25,1.25V22.74951h17.5V1.25Zm16,19.99951H4.75V2.75h14.5Z" fill="#171717"/><path d="M7.7793,9.35645a1.38159,1.38159,0,1,0,1.38134,1.38134A1.38328,1.38328,0,0,0,7.7793,9.35645Zm-.11866,1.38134a.11841.11841,0,0,1,.23682,0C7.89746,10.86914,7.66064,10.86817,7.66064,10.73779Z" fill="#171717"/><path d="M12,9.35645a1.38159,1.38159,0,1,0,1.38135,1.38134A1.38286,1.38286,0,0,0,12,9.35645Zm-.11865,1.38134a.11865.11865,0,0,1,.2373,0C12.11865,10.86865,11.88135,10.86865,11.88135,10.73779Z" fill="#171717"/><path d="M16.2207,9.35645a1.38159,1.38159,0,1,0,1.38184,1.38134A1.38285,1.38285,0,0,0,16.2207,9.35645Zm-.11816,1.38134a.11841.11841,0,0,1,.23682,0C16.33936,10.86817,16.10254,10.86914,16.10254,10.73779Z" fill="#171717"/><path d="M7.7793,13.17139a1.38159,1.38159,0,1,0,1.38134,1.38135A1.38328,1.38328,0,0,0,7.7793,13.17139Zm-.11866,1.38135a.11841.11841,0,0,1,.23682,0C7.89746,14.68408,7.66064,14.68311,7.66064,14.55274Z" fill="#171717"/><path d="M12,13.17139a1.38159,1.38159,0,1,0,1.38135,1.38135A1.38286,1.38286,0,0,0,12,13.17139Zm-.11865,1.38135a.11865.11865,0,0,1,.2373,0C12.11865,14.6836,11.88135,14.6836,11.88135,14.55274Z" fill="#171717"/><path d="M16.2207,13.17139a1.38159,1.38159,0,1,0,1.38184,1.38135A1.38285,1.38285,0,0,0,16.2207,13.17139Zm-.11816,1.38135a.11841.11841,0,0,1,.23682,0C16.33936,14.68311,16.10254,14.68408,16.10254,14.55274Z" fill="#171717"/><path d="M7.7793,16.98633a1.38159,1.38159,0,1,0,1.38134,1.38135A1.38328,1.38328,0,0,0,7.7793,16.98633Zm-.11866,1.38135a.11841.11841,0,0,1,.23682,0C7.89746,18.499,7.66064,18.49805,7.66064,18.36768Z" fill="#171717"/><path d="M12,16.98633a1.38159,1.38159,0,1,0,1.38135,1.38135A1.38286,1.38286,0,0,0,12,16.98633Zm-.11865,1.38135a.11865.11865,0,0,1,.2373,0C12.11865,18.49854,11.88135,18.49854,11.88135,18.36768Z" fill="#171717"/><path d="M16.2207,16.98633a1.38159,1.38159,0,1,0,1.38184,1.38135A1.38285,1.38285,0,0,0,16.2207,16.98633Zm-.11816,1.38135a.11841.11841,0,0,1,.23682,0C16.33936,18.49805,16.10254,18.499,16.10254,18.36768Z" fill="#171717"/></svg>