<svg xmlns="http://www.w3.org/2000/svg" viewBox="0 0 24 24"><title>Camera</title><path d="M16.97174,3.25,15.25,1.24268A1.9255,1.9255,0,0,0,13.78711.5708H10.21289A1.9255,1.9255,0,0,0,8.75,1.24268L7.02826,3.25H1.25v17.5h21.5V3.25ZM9.88867,2.21924a.42712.42712,0,0,1,.32422-.14844h3.57422a.42712.42712,0,0,1,.32422.14844L14.99561,3.25H9.00439ZM21.25,19.25H2.75V4.75h18.5Z" fill="#171717"/><path d="M12,7.11426A4.88552,4.88552,0,1,0,16.90039,12,4.89868,4.89868,0,0,0,12,7.11426Zm0,8.271A3.38553,3.38553,0,1,1,15.40039,12,3.39664,3.39664,0,0,1,12,15.38526Z" fill="#171717"/><path d="M4.94336,5.55957A1.38135,1.38135,0,1,0,6.3252,6.94092,1.38286,1.38286,0,0,0,4.94336,5.55957Z" fill="#171717"/></svg>