<svg xmlns="http://www.w3.org/2000/svg" viewBox="0 0 24.75 24.75"><defs><style>.cls-1{fill:none;stroke:#171717;stroke-miterlimit:10;stroke-width:0.75px;}</style></defs><title>Camera</title><g id="Ebene_2" data-name="Ebene 2"><g id="Ebene_1-2" data-name="Ebene 1"><rect class="cls-1" x="0.375" y="0.375" width="24" height="24"/><path d="M15.202,5.61572l-.99756-1.167a1.04457,1.04457,0,0,0-.794-.36523H11.37293a1.04634,1.04634,0,0,0-.79444.36523l-.99731,1.167H4.08338V19.13428H20.66687V5.61572ZM11.14832,4.937a.29707.29707,0,0,1,.22461-.10351h2.03759a.29532.29532,0,0,1,.22413.10351l.58056.67871h-3.647Zm8.76855,13.44727H4.83338V6.36572H19.91687Z"/><path d="M12.37488,8.71436a3.66065,3.66065,0,1,0,3.66064,3.66113A3.66512,3.66512,0,0,0,12.37488,8.71436Zm0,6.57129a2.91065,2.91065,0,1,1,2.91064-2.91016A2.91378,2.91378,0,0,1,12.37488,15.28565Z"/><path d="M6.08338,6.688a.92383.92383,0,1,0,.92382.92383A.92482.92482,0,0,0,6.08338,6.688Zm-.17432.92383a.17407.17407,0,0,1,.34814,0C6.2572,7.8042,5.90906,7.80225,5.90906,7.61182Z"/></g></g></svg>
