<?xml version="1.0" encoding="UTF-8"?><svg id="a" xmlns="http://www.w3.org/2000/svg" viewBox="0 0 24 24"><path d="M16.97174,3.25l-1.72174-2.00732c-.36621-.42676-.89941-.67188-1.46289-.67188h-3.57422c-.56348,0-1.09668.24512-1.46289.67188l-1.72174,2.00732H1.25v17.5h21.5V3.25h-5.77826ZM9.88867,2.21924c.08105-.09424.19922-.14844.32422-.14844h3.57422c.125,0,.24316.0542.32422.14844l.88428,1.03076h-5.99121l.88428-1.03076ZM21.25,19.25H2.75V4.75h18.5v14.5ZM12,7.11426c-2.70215,0-4.90039,2.19189-4.90039,4.88574s2.19824,4.88525,4.90039,4.88525,4.90039-2.19141,4.90039-4.88525-2.19824-4.88574-4.90039-4.88574ZM12,15.38526c-1.875,0-3.40039-1.51855-3.40039-3.38525s1.52539-3.38574,3.40039-3.38574,3.40039,1.51904,3.40039,3.38574-1.52539,3.38525-3.40039,3.38525ZM6.3252,6.94092c0,.76172-.62012,1.38135-1.38184,1.38135s-1.38135-.61963-1.38135-1.38135.61963-1.38135,1.38135-1.38135,1.38184.61963,1.38184,1.38135Z"/></svg>