<svg xmlns="http://www.w3.org/2000/svg" viewBox="0 0 24 24"><title>Camera</title><path d="M14.81653,5.24072l-.99756-1.167a1.04457,1.04457,0,0,0-.794-.36523H10.98743a1.04634,1.04634,0,0,0-.79444.36523l-.99731,1.167H3.69788V18.75928H20.28137V5.24072ZM10.76282,4.562a.29707.29707,0,0,1,.22461-.10351H13.025a.29532.29532,0,0,1,.22413.10351l.58056.67871h-3.647Zm8.76855,13.44727H4.44788V5.99072H19.53137Z" fill="#171717"/><path d="M11.98938,8.33936A3.66065,3.66065,0,1,0,15.65,12.00049,3.66512,3.66512,0,0,0,11.98938,8.33936Zm0,6.57129A2.91065,2.91065,0,1,1,14.9,12.00049,2.91378,2.91378,0,0,1,11.98938,14.91065Z" fill="#171717"/><path d="M5.69788,6.313a.92383.92383,0,1,0,.92382.92383A.92482.92482,0,0,0,5.69788,6.313Zm-.17432.92383a.17407.17407,0,0,1,.34814,0C5.8717,7.4292,5.52356,7.42725,5.52356,7.23682Z" fill="#171717"/></svg>