<svg xmlns="http://www.w3.org/2000/svg" viewBox="0 0 16.5835 15.05078"><title>Camera</title>
	<path
		d="M11.11865,1.53223l-.99756-1.167A1.04455,1.04455,0,0,0,9.32715,0H7.28955a1.04632,1.04632,0,0,0-.79443.36523l-.99732,1.167H0V15.05078H16.5835V1.53223ZM7.06494.85352A.2971.2971,0,0,1,7.28955.75h2.0376a.29531.29531,0,0,1,.22412.10352l.58057.67871h-3.647ZM15.8335,14.30078H.75V2.28223H15.8335Z"
		fill="#171717"/>
	<path
		d="M8.2915,4.63086A3.66065,3.66065,0,1,0,11.95215,8.292,3.66512,3.66512,0,0,0,8.2915,4.63086Zm0,6.57129A2.91065,2.91065,0,1,1,11.20215,8.292,2.91378,2.91378,0,0,1,8.2915,11.20215Z"
		fill="#171717"/>
	<path
		d="M2,2.60449a.92383.92383,0,1,0,.92383.92383A.92482.92482,0,0,0,2,2.60449Zm-.17432.92383a.17408.17408,0,0,1,.34815,0C2.17383,3.7207,1.82568,3.71875,1.82568,3.52832Z"
		fill="#171717"/>
</svg>
