<svg xmlns="http://www.w3.org/2000/svg" viewBox="0 0 24.75 24.75"><defs><style>.cls-1{fill:none;stroke:#171717;stroke-miterlimit:10;stroke-width:0.75px;}</style></defs><title>Cancel</title><g id="Ebene_2" data-name="Ebene 2"><g id="Ebene_1-2" data-name="Ebene 1"><path d="M12.375,4.07568a8.29151,8.29151,0,1,0,8.291,8.291A8.30111,8.30111,0,0,0,12.375,4.07568Zm0,15.833a7.54151,7.54151,0,1,1,7.5415-7.542A7.5502,7.5502,0,0,1,12.375,19.90869Z"/><polygon points="15.699 8.53 12.384 11.845 9.084 8.545 8.554 9.076 11.854 12.375 8.57 15.659 9.1 16.189 12.384 12.906 15.683 16.205 16.213 15.674 12.914 12.375 16.229 9.06 15.699 8.53"/><rect class="cls-1" x="0.375" y="0.375" width="24" height="24"/></g></g></svg>
