<svg xmlns="http://www.w3.org/2000/svg" viewBox="0 0 24 24"><title>Car</title><path d="M20.291,10.24658H19.09875L17.312,5.24072H6.68652L4.78546,10.24658H3.708v6.48731H5.7207v1.65039a.3751.3751,0,0,0,.375.375H7.79248a.3751.3751,0,0,0,.375-.375V16.73389h7.65625v1.65039a.3751.3751,0,0,0,.375.375h1.69678a.3751.3751,0,0,0,.375-.375V16.73389H20.291ZM7.2041,5.99072h9.57959l1.51807,4.25391L5.60693,10.19678Zm.21338,12.01856H6.4707V16.73389h.94678Zm10.103,0h-.94678V16.73389h.94678Zm2.021-2.02539H4.458V10.99658H18.84625l.52094.002-.00067-.002h.175Z" fill="#171717"/><path d="M6.89807,11.64014A1.00312,1.00312,0,1,0,7.9209,12.64307,1.01395,1.01395,0,0,0,6.89807,11.64014Zm-.193,1.00293a.19277.19277,0,0,1,.38544,0C7.09052,12.85205,6.70508,12.8501,6.70508,12.64307Z" fill="#171717"/><path d="M17.001,11.64014a1.00312,1.00312,0,1,0,1.02282,1.00293A1.01394,1.01394,0,0,0,17.001,11.64014Zm-.193,1.00293a.19277.19277,0,0,1,.38544,0C17.19342,12.85205,16.808,12.8501,16.808,12.64307Z" fill="#171717"/><rect x="8.16162" y="14.89893" width="7.71338" height="0.75" fill="#171717"/><rect x="9.2417" y="13.81299" width="5.55322" height="0.75" fill="#171717"/></svg>