<svg xmlns="http://www.w3.org/2000/svg" viewBox="0 0 16.58301 13.51855"><title>Car</title>
	<path
		d="M16.583,5.00586H15.39075L13.604,0H2.97852L1.07745,5.00586H0v6.4873H2.0127v1.65039a.37509.37509,0,0,0,.375.375H4.08447a.37509.37509,0,0,0,.375-.375V11.49316h7.65625v1.65039a.37509.37509,0,0,0,.375.375H14.1875a.37509.37509,0,0,0,.375-.375V11.49316H16.583ZM3.49609.75h9.57959l1.51807,4.25391L1.89893,4.95605Zm.21338,12.01855H2.7627V11.49316h.94677Zm10.103,0h-.94678V11.49316h.94678Zm2.021-2.02539H.75V5.75586H15.13824l.52094.00195-.00067-.00195h.175Z"
		fill="#171717"/>
	<path
		d="M3.19006,6.39941A1.00312,1.00312,0,1,0,4.21289,7.40234,1.01394,1.01394,0,0,0,3.19006,6.39941Zm-.193,1.00293a.19277.19277,0,0,1,.38544,0C3.38251,7.61133,2.99707,7.60938,2.99707,7.40234Z"
		fill="#171717"/>
	<path
		d="M13.293,6.39941A1.00312,1.00312,0,1,0,14.3158,7.40234,1.01395,1.01395,0,0,0,13.293,6.39941ZM13.1,7.40234a.19276.19276,0,0,1,.38543,0C13.48541,7.61133,13.1,7.60938,13.1,7.40234Z"
		fill="#171717"/>
	<rect x="4.45361" y="9.6582" width="7.71338" height="0.75" fill="#171717"/>
	<rect x="5.53369" y="8.57227" width="5.55322" height="0.75" fill="#171717"/>
</svg>
