<svg xmlns="http://www.w3.org/2000/svg" viewBox="0 0 24.75 24.75"><defs><style>.cls-1{fill:none;stroke:#171717;stroke-miterlimit:10;stroke-width:0.75px;}.cls-2{fill:#171717;}</style></defs><title>Car</title><g id="Ebene_2" data-name="Ebene 2"><g id="Ebene_1-2" data-name="Ebene 1"><rect class="cls-1" x="0.375" y="0.375" width="24" height="24"/><path class="cls-2" d="M20.64935,10.62158H19.45709L17.67034,5.61572H7.04486L5.14379,10.62158H4.06634v6.48731H6.079v1.65039a.37509.37509,0,0,0,.375.375H8.15081a.3751.3751,0,0,0,.375-.375V17.10889h7.65625v1.65039a.3751.3751,0,0,0,.375.375h1.69678a.3751.3751,0,0,0,.375-.375V17.10889h2.02051ZM7.56243,6.36572H17.142l1.51807,4.25391L5.96527,10.57178Zm.21338,12.01856H6.829V17.10889h.94677Zm10.103,0h-.94678V17.10889h.94678Zm2.021-2.02539H4.81634V11.37158H19.20459l.52093.002-.00067-.002h.175Z"/><path class="cls-2" d="M7.2564,12.01514a1.00312,1.00312,0,1,0,1.02283,1.00293A1.01394,1.01394,0,0,0,7.2564,12.01514Zm-.193,1.00293a.19277.19277,0,0,1,.38544,0C7.44885,13.22705,7.06341,13.2251,7.06341,13.01807Z"/><path class="cls-2" d="M17.35931,12.01514a1.00312,1.00312,0,1,0,1.02283,1.00293A1.01395,1.01395,0,0,0,17.35931,12.01514Zm-.193,1.00293a.19276.19276,0,0,1,.38543,0C17.55175,13.22705,17.16632,13.2251,17.16632,13.01807Z"/><rect class="cls-2" x="8.51995" y="15.27393" width="7.71338" height="0.75"/><rect class="cls-2" x="9.60003" y="14.18799" width="5.55322" height="0.75"/></g></g></svg>
