<svg xmlns="http://www.w3.org/2000/svg" viewBox="0 0 24 24"><title>Car</title><path d="M21.17969,9.44434,18.96924,3.25H5.16162L2.80969,9.44434H1.25049V18.1919h2.542V20a.7502.7502,0,0,0,.75.75H6.68555a.7502.7502,0,0,0,.75-.75V18.1919h9.11767V20a.7502.7502,0,0,0,.75.75h2.14307a.7502.7502,0,0,0,.75-.75V18.1919h2.55322V9.44434ZM6.19678,4.75H17.91162l1.67517,4.69434H4.41418Zm-.26123,14.5H5.29248V18.1919h.64307Zm12.76074,0h-.64307V18.1919h.64307Zm2.55322-2.5581H2.75049V10.94434h18.499Z" fill="#171717"/><rect x="7.15186" y="14.69141" width="9.74268" height="1.5" fill="#171717"/><rect x="8.51563" y="12.6919" width="7.01465" height="1.5" fill="#171717"/><path d="M18.31641,14.12988A1.38159,1.38159,0,1,0,16.93506,12.748,1.38326,1.38326,0,0,0,18.31641,14.12988Zm0-1.5a.11868.11868,0,0,1,.11865.11817c0,.13086-.23731.13086-.23731,0A.11869.11869,0,0,1,18.31641,12.62988Z" fill="#171717"/><path d="M5.55566,14.12988A1.38159,1.38159,0,1,0,4.17383,12.748,1.38327,1.38327,0,0,0,5.55566,14.12988Zm0-1.5a.11858.11858,0,0,1,.11817.11817c0,.13135-.23682.13037-.23682,0A.11868.11868,0,0,1,5.55566,12.62988Z" fill="#171717"/></svg>