<svg xmlns="http://www.w3.org/2000/svg" viewBox="0 0 24.75 24.75"><defs><style>.cls-1{fill:none;stroke:#171717;stroke-miterlimit:10;stroke-width:0.75px;}</style></defs><title>Certificate</title><g id="Ebene_2" data-name="Ebene 2"><g id="Ebene_1-2" data-name="Ebene 1"><rect x="10.45801" y="12.00049" width="6.82324" height="0.75"/><path d="M5.73877,14.20752l1.80322-1.041,1.79639,1.03711V10.34424a2.29206,2.29206,0,1,0-3.59961,0ZM7.542,12.30029l-1.05322.6084v-1.9414a2.20024,2.20024,0,0,0,2.09961,0v1.9375ZM7.53857,7.40088a1.53979,1.53979,0,0,1,1.08381,2.63574h-.034v.02832a1.52478,1.52478,0,0,1-2.09961,0v-.02832h-.034a1.53979,1.53979,0,0,1,1.0838-2.63574Z"/><rect x="10.45801" y="9.54151" width="6.82324" height="0.75"/><rect x="10.45801" y="14.4585" width="6.82324" height="0.75"/><path d="M4.0835,5.61572V19.13428H20.666V5.61572Zm15.833,12.76856H4.8335V6.36572h15.083Z"/><rect class="cls-1" x="0.375" y="0.375" width="24" height="24"/></g></g></svg>
