<?xml version="1.0" encoding="UTF-8"?><svg id="a" xmlns="http://www.w3.org/2000/svg" viewBox="0 0 24 24"><path d="M19.75,12.75h-8.65723v-1.5h8.65723v1.5ZM19.75,14.25h-8.65723v1.5h8.65723v-1.5ZM19.75,8.25h-8.65723v1.5h8.65723v-1.5ZM3.70508,10.03174c-.28198-.47363-.45459-1.02051-.45459-1.61084,0-1.74805,1.42236-3.1709,3.1709-3.1709s3.17139,1.42285,3.17139,3.1709c0,.59082-.17279,1.1377-.45508,1.61182v5.46338l-2.71094-1.44629-2.72168,1.45215v-5.47021ZM7.6377,12.9961v-1.64746c-.37494.15625-.7854.24414-1.21631.24414-.43097,0-.84137-.08789-1.21631-.24414v1.65332l1.22168-.65137,1.21094.64551ZM4.75049,8.4209c0,.92188.74951,1.67188,1.6709,1.67188s1.67139-.75,1.67139-1.67188c0-.9209-.75-1.6709-1.67139-1.6709s-1.6709.75-1.6709,1.6709ZM22.75,3.25v17.5H1.25V3.25h21.5ZM21.25,4.75H2.75v14.5h18.5V4.75Z"/></svg>