<svg xmlns="http://www.w3.org/2000/svg" viewBox="0 0 16.58252 13.51855"><title>Certificate</title>
	<rect x="6.37451" y="6.38477" width="6.82324" height="0.75" fill="#171717"/>
	<path
		d="M1.65527,8.5918l1.80323-1.041L5.25488,8.58789V4.72852A2.28743,2.28743,0,1,0,1.16309,3.32617a2.27236,2.27236,0,0,0,.49218,1.40235ZM3.4585,6.68457,2.40527,7.293V5.35156a2.20024,2.20024,0,0,0,2.09961,0v1.9375ZM3.45508,1.78516A1.53979,1.53979,0,0,1,4.53888,4.4209h-.034v.02832a1.5248,1.5248,0,0,1-2.09961,0V4.4209h-.034a1.53979,1.53979,0,0,1,1.0838-2.63574Z"
		fill="#171717"/>
	<rect x="6.37451" y="3.92578" width="6.82324" height="0.75" fill="#171717"/>
	<rect x="6.37451" y="8.84277" width="6.82324" height="0.75" fill="#171717"/>
	<path d="M0,0V13.51855H16.58252V0ZM15.833,12.76855H.75V.75H15.833Z" fill="#171717"/>
</svg>
