<svg xmlns="http://www.w3.org/2000/svg" viewBox="0 0 24 24"><title>Certificate</title><rect x="11.09277" y="11.25" width="8.65723" height="1.5" fill="#171717"/><rect x="11.09277" y="14.25" width="8.65723" height="1.5" fill="#171717"/><rect x="11.09277" y="8.25" width="8.65723" height="1.5" fill="#171717"/><path d="M3.70508,15.502l2.72168-1.45214L9.1377,15.4961V10.03272A3.13824,3.13824,0,0,0,9.59277,8.4209a3.17114,3.17114,0,0,0-6.34228,0,3.1372,3.1372,0,0,0,.45459,1.61084Zm2.72168-3.15136L5.20508,13.002V11.34863a3.15179,3.15179,0,0,0,2.43262,0V12.9961ZM6.42139,6.75a1.67139,1.67139,0,1,1-1.6709,1.6709A1.67346,1.67346,0,0,1,6.42139,6.75Z" fill="#171717"/><path d="M1.25,3.25v17.5h21.5V3.25Zm20,16H2.75V4.75h18.5Z" fill="#171717"/></svg>