<svg xmlns="http://www.w3.org/2000/svg" viewBox="0 0 24 24"><title>Certificate</title><rect x="10.08301" y="11.6248" width="6.82324" height="0.75" fill="#171717"/><rect x="10.08301" y="9.16679" width="6.82324" height="0.75" fill="#171717"/><rect x="10.08301" y="14.08281" width="6.82324" height="0.75" fill="#171717"/><path d="M5.23193,13.80742l1.93555-1.03223,1.92773,1.02832V9.78935a2.27,2.27,0,0,0,.36036-1.22216,2.292,2.292,0,1,0-4.584,0,2.27,2.27,0,0,0,.36035,1.22216Zm1.93555-1.88184-1.18555.63184V10.52129a2.23511,2.23511,0,0,0,2.36328,0v2.03222ZM7.16357,7.02519a1.542,1.542,0,1,1-1.542,1.542A1.54364,1.54364,0,0,1,7.16357,7.02519Z" fill="#171717"/><path d="M3.7085,5.24V18.75957h16.583V5.24Zm15.833,12.76953H4.4585V5.99h15.083Z" fill="#171717"/></svg>