<svg xmlns="http://www.w3.org/2000/svg" viewBox="0 0 24 24"><title>ChartLine</title><polygon points="2.75 4 1.25 4 1.25 20.75 22 20.75 22 19.25 2.75 19.25 2.75 4" fill="#171717"/><path d="M7.30566,13.44629l1.71338.98926.37647-.21973c.05176-.03027.05957-.03515,1.21387-.86133.80078-.57324,2.144-1.53515,2.78564-1.98339.91016.52734,3.083,1.793,3.46728,2.01757l.417.24219,4.74609-3.3623L21.1582,9.044l-3.958,2.80566c-.978-.57031-3.33936-1.94531-3.47559-2.01953L13.355,9.627l-.36572.21094c-.19483.11231-1.2041.83008-3.25342,2.29688-.29883.21484-.564.40429-.75928.54394l-1.66992-.96484L3.87549,13.69434l.75,1.29883Z" fill="#171717"/></svg>