<svg xmlns="http://www.w3.org/2000/svg" viewBox="0 0 15.13634 15.11133"><title>ChartPie</title>
	<path
		d="M7.83562,8.33789l-.26514-.26562-5.07959,5.084.31983.26172a7.53751,7.53751,0,0,0,9.5205,0l.31983-.26172-.291-.293C12.00212,12.50391,7.83562,8.33789,7.83562,8.33789Zm-4.2207,4.75293,3.95556-3.958c.78565.78614,3.09864,3.09864,3.95655,3.958A6.7901,6.7901,0,0,1,3.61492,13.09082Z"
		fill="#171717"/>
	<path
		d="M13.4406,2.78418l-.26221-.32031L8.08513,7.55664l5.08252,5.083.2627-.31934A7.53364,7.53364,0,0,0,13.4406,2.78418Zm-.33594,8.73145-3.959-3.959,3.96826-3.96777A6.78514,6.78514,0,0,1,13.10466,11.51563Z"
		fill="#171717"/>
	<path
		d="M7.01921,7.54883,7.01824.02734l-.41358.044A7.16557,7.16557,0,0,0,2.217,2.23926a7.48361,7.48361,0,0,0-1.05274,9.32519l.00049.001a7.47627,7.47627,0,0,0,.52246.72852l.26172.32128.29346-.292c.39209-.38965,4.667-4.66406,4.667-4.66406ZM2.01677,11.48926c-.07617-.10645-.14892-.21485-.21826-.32422a6.73844,6.73844,0,0,1,.94873-8.39551A6.50264,6.50264,0,0,1,6.26872.874l.00049,6.36426C5.68865,7.81934,2.9699,10.53711,2.01677,11.48926Z"
		fill="#171717"/>
	<path d="M12.30046,1.68262A7.494,7.494,0,0,0,8.18328.0332L7.77751,0V6.791l4.8462-4.84668ZM8.52751,4.98047V.8252a6.7584,6.7584,0,0,1,2.96778,1.18652Z"
		  fill="#171717"/>
</svg>
