<svg xmlns="http://www.w3.org/2000/svg" viewBox="0 0 24.75 24.75"><defs><style>.cls-1{fill:none;stroke:#171717;stroke-miterlimit:10;stroke-width:0.75px;}.cls-2{fill:#171717;}</style></defs><title>ChartPie</title><g id="Ebene_2" data-name="Ebene 2"><g id="Ebene_1-2" data-name="Ebene 1"><rect class="cls-1" x="0.375" y="0.375" width="24" height="24"/><path class="cls-2" d="M12.64014,13.17725l-.26514-.26563-5.07959,5.084.31982.26172a7.53753,7.53753,0,0,0,9.52051,0l.31983-.26172-.291-.293C16.80664,17.34326,12.64014,13.17725,12.64014,13.17725ZM8.41943,17.93018l3.95557-3.958c.78564.78613,3.09863,3.09863,3.95654,3.958A6.79012,6.79012,0,0,1,8.41943,17.93018Z"/><path class="cls-2" d="M18.24512,7.62354l-.26221-.32032L12.88965,12.396l5.08252,5.083.26269-.31934A7.53362,7.53362,0,0,0,18.24512,7.62354ZM17.90918,16.355l-3.959-3.959,3.96826-3.96778A6.78516,6.78516,0,0,1,17.90918,16.355Z"/><path class="cls-2" d="M11.82373,12.38819l-.001-7.52149-.41357.044a7.16559,7.16559,0,0,0-4.3877,2.168,7.48362,7.48362,0,0,0-1.05273,9.32519l.00049.001a7.47614,7.47614,0,0,0,.52246.72851l.26172.32129.29346-.292c.39208-.38965,4.667-4.66406,4.667-4.66406ZM6.82129,16.32862c-.07617-.10645-.14893-.21485-.21826-.32422a6.73843,6.73843,0,0,1,.94873-8.39551,6.50254,6.50254,0,0,1,3.52148-1.89551l.00049,6.36426C10.49316,12.65869,7.77441,15.37647,6.82129,16.32862Z"/><path class="cls-2" d="M17.105,6.522a7.49409,7.49409,0,0,0-4.11719-1.64941l-.40576-.0332v6.791l4.84619-4.84668ZM13.332,9.81983V5.66455A6.75847,6.75847,0,0,1,16.2998,6.85108Z"/></g></g></svg>
