<svg xmlns="http://www.w3.org/2000/svg" viewBox="0 0 24 24"><title>ChartPie</title><path d="M12.26514,12.80225,12,12.53662l-5.07959,5.084.31982.26172a7.53753,7.53753,0,0,0,9.52051,0l.31983-.26172-.291-.293C16.43164,16.96826,12.26514,12.80225,12.26514,12.80225ZM8.04443,17.55518,12,13.59717c.78564.78613,3.09863,3.09863,3.95654,3.958A6.79012,6.79012,0,0,1,8.04443,17.55518Z" fill="#171717"/><path d="M17.87012,7.24854l-.26221-.32032L12.51465,12.021l5.08252,5.083.26269-.31934A7.53362,7.53362,0,0,0,17.87012,7.24854ZM17.53418,15.98l-3.959-3.959,3.96826-3.96778A6.78516,6.78516,0,0,1,17.53418,15.98Z" fill="#171717"/><path d="M11.44873,12.01319l-.001-7.52149-.41357.044a7.16559,7.16559,0,0,0-4.3877,2.168,7.48362,7.48362,0,0,0-1.05273,9.32519l.00049.001a7.47614,7.47614,0,0,0,.52246.72851l.26172.32129.29346-.292c.39208-.38965,4.667-4.66406,4.667-4.66406ZM6.44629,15.95362c-.07617-.10645-.14893-.21485-.21826-.32422a6.73843,6.73843,0,0,1,.94873-8.39551,6.50254,6.50254,0,0,1,3.52148-1.89551l.00049,6.36426C10.11816,12.28369,7.39941,15.00147,6.44629,15.95362Z" fill="#171717"/><path d="M16.73,6.147a7.49409,7.49409,0,0,0-4.11719-1.64941l-.40576-.0332v6.791l4.84619-4.84668ZM12.957,9.44483V5.28955A6.75847,6.75847,0,0,1,15.9248,6.47608Z" fill="#171717"/></svg>