<?xml version="1.0" encoding="UTF-8"?><svg id="a" xmlns="http://www.w3.org/2000/svg" viewBox="0 0 24 24"><path d="M21.53027,20.46973l-6.90265-6.89893c.96332-1.19434,1.54327-2.71045,1.54327-4.36084,0-3.83789-3.12256-6.95996-6.96045-6.95996s-6.96045,3.12207-6.96045,6.95996,3.12256,6.96094,6.96045,6.96094c1.64832,0,3.16235-.57861,4.35608-1.54004l6.9032,6.89941,1.06055-1.06055ZM3.75,9.20996c0-3.01074,2.44971-5.45996,5.46045-5.45996s5.46045,2.44922,5.46045,5.45996-2.44971,5.46094-5.46045,5.46094-5.46045-2.4502-5.46045-5.46094ZM5.46045,8.28906h1.5v4.02539h-1.5v-4.02539ZM8.46045,5.26563h1.5v7.04883h-1.5v-7.04883ZM11.46045,6.77539h1.5v5.53906h-1.5v-5.53906Z"/></svg>