<?xml version="1.0" encoding="UTF-8"?><svg id="a" xmlns="http://www.w3.org/2000/svg" viewBox="0 0 24 24"><path d="M19.95304,6.35547l-.5127-.71973-.62695.62305c-.69336.69043-5.21826,5.21484-5.21826,5.21484l-.53027.53027,6.37158,6.37207.51465-.72168c2.4082-3.37988,2.40869-7.91992.00195-11.29883ZM19.2089,16.02734l-.66406-.66406-3.35889-3.35938c.94824-.94824,2.93701-2.93652,4.02441-4.02148,1.39697,2.49512,1.39648,5.54883-.00146,8.04492ZM12.5341,13.59473l-.53027-.53027-6.37354,6.37207.72314.51562c1.68994,1.2041,3.67041,1.80566,5.65088,1.80566,1.97949,0,3.95947-.60156,5.64844-1.80469l.7207-.51367-.62451-.62695c-.69043-.69336-5.21484-5.21777-5.21484-5.21777ZM7.98039,19.20996l4.02344-4.02441c.94824.94824,2.93652,2.93652,4.02246,4.02441-2.49512,1.39844-5.54883,1.39648-8.0459,0ZM11.0341,11.91309l.21973-.21973V2.24316l-.87402.14648c-.27783.0459-.55371.10547-.82764.17578-1.67432.43359-3.21045,1.31348-4.44238,2.54395-3.37988,3.37988-3.82373,8.65527-1.05518,12.54297l.5127.71973.62695-.62305c.73926-.73438,5.83984-5.83594,5.83984-5.83594ZM4.79728,16.02637c-1.79248-3.19043-1.27295-7.20996,1.37305-9.85645.99951-.99805,2.23535-1.72363,3.5835-2.10449v7.00684c-.80273.80273-3.6001,3.59961-4.95654,4.9541ZM17.6547,4.05664c-1.18945-.84766-2.58154-1.4248-4.02637-1.66699l-.87451-.14746v7.95117l5.62207-5.62305-.72119-.51367ZM14.25383,6.57227v-2.50684c.61719.1748,1.21387.42188,1.77246.7334l-1.77246,1.77344Z"/></svg>