<svg xmlns="http://www.w3.org/2000/svg" viewBox="0 0 24.75 24.75"><defs><style>.cls-1{fill:none;stroke:#171717;stroke-miterlimit:10;stroke-width:0.75px;}</style></defs><title>ChartLine</title><g id="Ebene_2" data-name="Ebene 2"><g id="Ebene_1-2" data-name="Ebene 1"><rect class="cls-1" x="0.375" y="0.375" width="24" height="24"/><polygon points="4.833 18.384 4.833 5.991 4.083 5.991 4.083 19.134 20.292 19.134 20.292 18.384 4.833 18.384"/><path d="M8.04053,13.59522l1.35449.78125.1875-.10743c.0249-.01464.44434-.3125.98633-.70019.71924-.51465,1.84228-1.31836,2.28222-1.623.49854.28809,1.8086,1.05176,2.47071,1.43653l.60449.35058,3.6416-2.58008-.43359-.6123-3.249,2.30273-.186-.10839c-.80908-.47168-2.5791-1.502-2.6836-1.5586l-.18457-.10058-.18212.10546c-.14307.082-.95948.66309-2.51661,1.77735-.31689.22754-.58984.42285-.75586.541L8.04053,12.729,5.43408,14.23389l.375.64941Z"/></g></g></svg>
