<svg xmlns="http://www.w3.org/2000/svg" viewBox="0 0 16.20801 13.14355"><title>ChartLine</title>
	<polygon points="0.75 12.394 0.75 0 0 0 0 13.144 16.208 13.144 16.208 12.394 0.75 12.394" fill="#171717"/>
	<path
		d="M3.957,7.60449l1.35449.78125.1875-.10742c.02491-.01465.44434-.3125.98633-.70019.71924-.51465,1.84229-1.31836,2.28223-1.62305.49853.28808,1.80859,1.05176,2.4707,1.43652l.60449.35059,3.64161-2.58008-.4336-.61231-3.249,2.30274-.186-.1084c-.80908-.47168-2.5791-1.50195-2.68359-1.55859L8.74756,5.085l-.18213.10547c-.14307.082-.95947.66309-2.5166,1.77734-.3169.22754-.58985.42286-.75586.541L3.957,6.73828,1.35059,8.24316l.375.64942Z"
		fill="#171717"/>
</svg>
