<svg xmlns="http://www.w3.org/2000/svg" viewBox="0 0 24 24"><title>ChartLine</title><polygon points="4.458 18.009 4.458 5.616 3.708 5.616 3.708 18.759 19.917 18.759 19.917 18.009 4.458 18.009" fill="#171717"/><path d="M7.66553,13.22022,9.02,14.00147l.1875-.10743c.0249-.01464.44434-.3125.98633-.70019.71924-.51465,1.84228-1.31836,2.28222-1.623.49854.28809,1.8086,1.05176,2.47071,1.43653l.60449.35058,3.6416-2.58008-.43359-.6123-3.249,2.30273-.186-.10839c-.80908-.47168-2.5791-1.502-2.68359-1.5586l-.18458-.10058-.18212.10546c-.14307.082-.95948.66309-2.51661,1.77735-.31689.22754-.58984.42285-.75586.541L7.66553,12.354,5.05908,13.85889l.375.64941Z" fill="#171717"/></svg>