<?xml version="1.0" encoding="UTF-8"?><svg id="a" xmlns="http://www.w3.org/2000/svg" viewBox="0 0 24 24"><path d="M2.75049,19.25h19.24902v1.5H1.25049V4h1.5v15.25ZM7.30566,13.44629l1.71338.98926.37646-.21973c.05176-.03027.05957-.03516,1.21387-.86133.80078-.57324,2.14404-1.53516,2.78564-1.9834.91016.52734,3.08301,1.79297,3.46729,2.01758l.41699.24219,4.74609-3.3623-.86719-1.22461-3.95801,2.80566c-.97803-.57031-3.33936-1.94531-3.47559-2.01953l-.36963-.20312-.36572.21094c-.19482.1123-1.2041.83008-3.25342,2.29688-.29883.21484-.56396.4043-.75928.54395l-1.66992-.96484-3.43115,1.98047.75,1.29883,2.68018-1.54688Z"/></svg>