<?xml version="1.0" encoding="UTF-8"?><svg id="a" xmlns="http://www.w3.org/2000/svg" viewBox="0 0 24 24"><path d="M11.99951,1.25049C6.07275,1.25049,1.25049,6.07275,1.25049,12.00049c0,5.92676,4.82227,10.74902,10.74902,10.74902,5.92773,0,10.75-4.82227,10.75-10.74902,0-5.92773-4.82227-10.75-10.75-10.75ZM11.99951,21.24951c-5.09961,0-9.24902-4.14941-9.24902-9.24902C2.75049,6.8999,6.8999,2.75049,11.99951,2.75049c5.10059,0,9.25,4.14941,9.25,9.25,0,5.09961-4.14941,9.24902-9.25,9.24902ZM16.75146,8.20361l1.06055,1.06055-7.99121,7.99121-4.56152-4.56152,1.06055-1.06055,3.50098,3.50098,6.93066-6.93066Z"/></svg>