<?xml version="1.0" encoding="UTF-8"?><svg id="a" xmlns="http://www.w3.org/2000/svg" viewBox="0 0 24 24"><path d="M22.13525,10.54218l-1.94824-1.74414c-.09863-.08887-.15234-.2168-.14453-.34863l.14453-2.61035c.03027-.5498-.17578-1.08789-.56445-1.47656-.38867-.38965-.93848-.5918-1.47559-.56445l-2.61133.14453c-.11719.00684-.25879-.04492-.34863-.14453l-1.74414-1.94824v-.00098c-.7334-.81738-2.15039-.81934-2.88574.00098l-1.74316,1.94824c-.08984.09961-.21191.15234-.35059.14453l-2.61035-.14453c-.53711-.03125-1.08691.1748-1.47559.56445-.38867.38867-.59473.92676-.56445,1.47656l.14453,2.60938c.00781.13281-.0459.26074-.14453.34961l-1.94922,1.74414c-.40918.36719-.64355.89258-.64355,1.44336,0,.5498.23438,1.0752.64453,1.44238l1.94824,1.74414c.09961.08887.15234.21582.14453.34863l-.14453,2.61133c-.03027.54883.17578,1.08691.56445,1.47559.38867.38965.95117.59473,1.47559.56445l2.61133-.14453c.12695-.00977.25977.0459.34961.14453l1.74316,1.94824c.36719.41016.89258.64453,1.44238.64453.55078,0,1.07617-.23438,1.44336-.64453l1.74414-1.94824c.08984-.09961.21777-.15137.34961-.14453l2.61035.14453c.52441.02734,1.08691-.1748,1.47559-.56445.38867-.38867.59473-.92676.56445-1.47559l-.14453-2.61035c-.00781-.13379.04492-.26074.14453-.34961l1.94824-1.74512c.41016-.36621.64453-.8916.64453-1.44141,0-.55078-.23438-1.07617-.64453-1.44336ZM21.13525,12.30975l-1.94824,1.74414c-.44043.39453-.6748.95898-.64258,1.5498l.14453,2.61035c.00977.16992-.0752.28125-.12695.33301s-.17969.13379-.33301.12695l-2.60938-.14355c-.60059-.03809-1.15625.20117-1.5498.6416l-1.74414,1.94824c-.11328.12598-.25293.14453-.32617.14453-.07227,0-.21191-.01855-.3252-.14453l-1.74316-1.94824c-.36914-.41309-.88965-.64551-1.44043-.64551-.03711,0-.07324.00098-.10938.00391l-2.61035.14355c-.16797.00684-.28223-.0752-.33301-.12695-.05176-.05176-.13672-.16309-.12695-.33301l.14453-2.61133c.03223-.58984-.20215-1.1543-.64258-1.54883l-1.94824-1.74414c-.12598-.11328-.14453-.25195-.14453-.32422,0-.07324.01855-.21289.14453-.32617l1.94824-1.74316c.44043-.39453.6748-.95898.64258-1.5498l-.14453-2.61133c-.00977-.16895.0752-.28125.12695-.33203.05078-.05176.16504-.14062.33301-.12695l2.60938.14355c.58496.03613,1.15625-.2002,1.55078-.6416l1.74316-1.94727c.11328-.12695.25293-.14648.3252-.14648.07324,0,.21289.01953.32617.14648l1.74414,1.94727c.39551.44141.98242.67773,1.54883.6416l2.61035-.14355c.16211-.00781.28223.0752.33301.12695.05176.05078.13672.16309.12695.33203l-.14453,2.61133c-.03223.59082.20215,1.15527.64258,1.5498l1.94727,1.74316c.12695.11328.14551.25293.14551.32617,0,.07227-.01855.21094-.14453.32422ZM16.53955,8.37225l1.06055,1.06055-7.19727,7.19727-3.7334-3.73438,1.06055-1.06055,2.67285,2.67285,6.13672-6.13574Z"/></svg>