<?xml version="1.0" encoding="UTF-8"?><svg id="a" xmlns="http://www.w3.org/2000/svg" viewBox="0 0 24 24"><path d="M12,1.26196C6.07227,1.26196,1.25,6.08423,1.25,12.01099c0,5.92773,4.82227,10.75,10.75,10.75,5.92725,0,10.74951-4.82227,10.74951-10.75,0-5.92676-4.82227-10.74902-10.74951-10.74902ZM12,21.26099c-5.10059,0-9.25-4.14941-9.25-9.25C2.75,6.91138,6.89941,2.76196,12,2.76196c5.1001,0,9.24951,4.14941,9.24951,9.24902,0,5.10059-4.14941,9.25-9.24951,9.25ZM12.75537,11.45435l5.62793,3.24316-.74902,1.29883-6.37793-3.6748-.00635-7.36035,1.5-.00195.00537,6.49512Z"/></svg>