<?xml version="1.0" encoding="UTF-8"?><svg id="a" xmlns="http://www.w3.org/2000/svg" viewBox="0 0 24 24"><path d="M1.25044,4.24975v15.5h21.5V4.24975H1.25044ZM21.25044,18.24975H2.75044V5.74975h18.5v12.5ZM5.7541,14.93921c-.5752-.6748-.8623-1.60156-.8623-2.7793v-.47852c0-.75195.13281-1.41406.39746-1.9873.26465-.57227.64355-1.0127,1.13574-1.31836.49219-.30664,1.06445-.45898,1.71582-.45898.90234,0,1.62988.24121,2.18164.72461.55078.4834.86914,1.16211.95508,2.03613h-1.61133c-.03906-.50488-.17969-.87109-.4209-1.09863-.24219-.22754-.61035-.34082-1.10449-.34082-.53711,0-.93848.19238-1.20508.57715s-.4043.98242-.41113,1.79102v.59082c0,.8457.12793,1.46289.38379,1.85352.25586.38965.66016.58496,1.21094.58496.49805,0,.87012-.11328,1.11523-.34082s.38574-.5791.42188-1.05566h1.61133c-.06152.8418-.37207,1.50391-.93262,1.9873s-1.29883.72559-2.21582.72559c-1.00195,0-1.79102-.33789-2.36523-1.0127ZM13.50117,14.93921c-.5752-.6748-.8623-1.60156-.8623-2.7793v-.47852c0-.75195.13281-1.41406.39746-1.9873.26465-.57227.64355-1.0127,1.13574-1.31836.49219-.30664,1.06445-.45898,1.71582-.45898.90234,0,1.62988.24121,2.18164.72461.55078.4834.86914,1.16211.95508,2.03613h-1.61133c-.03906-.50488-.17969-.87109-.4209-1.09863-.24219-.22754-.61035-.34082-1.10449-.34082-.53711,0-.93848.19238-1.20508.57715s-.4043.98242-.41113,1.79102v.59082c0,.8457.12793,1.46289.38379,1.85352.25586.38965.66016.58496,1.21094.58496.49805,0,.87012-.11328,1.11523-.34082s.38574-.5791.42188-1.05566h1.61133c-.06152.8418-.37207,1.50391-.93262,1.9873s-1.29883.72559-2.21582.72559c-1.00195,0-1.79102-.33789-2.36523-1.0127Z"/></svg>