<?xml version="1.0" encoding="UTF-8"?><svg id="a" xmlns="http://www.w3.org/2000/svg" viewBox="0 0 24 24"><path d="M11.43799,7.82349l4.70508,2.7168-.75,1.29883-3.20508-1.85034v6.03979h-1.5v-6.03979l-3.20508,1.85034-.75-1.29883,4.70508-2.7168ZM22.76611,13.88599c0,2.64062-2.08496,4.78809-4.64795,4.78809H5.91553c-2.56299,0-4.64844-2.14746-4.64844-4.78809,0-2.21777,1.45508-4.10254,3.51465-4.62988,1.25098-2.60254,3.82178-4.2627,6.65381-4.2627,2.77393,0,5.29834,1.59473,6.57568,4.10645,2.60303-.07129,4.75488,2.10938,4.75488,4.78613ZM21.26611,13.88599c0-1.81348-1.41211-3.28809-3.14795-3.28809-.13232,0-.25977.02148-.38672.04102l-.57715.08691-.28662-.52832c-.9458-2.25-3.07812-3.7041-5.43213-3.7041-2.35645,0-4.48975,1.45508-5.43506,3.70801l-.16064.38379-.41016.06641c-1.54297.25195-2.6626,1.61133-2.6626,3.23438,0,1.81348,1.4126,3.28809,3.14844,3.28809h12.20264c1.73584,0,3.14795-1.47461,3.14795-3.28809Z"/></svg>