<svg xmlns="http://www.w3.org/2000/svg" viewBox="0 0 24.75 24.75"><defs><style>.cls-1{fill:none;stroke:#000;stroke-miterlimit:10;stroke-width:0.75px;}</style></defs><title>Cloud</title><g id="Ebene_2" data-name="Ebene 2"><g id="Ebene_1-2" data-name="Ebene 1"><rect class="cls-1" x="0.375" y="0.375" width="24" height="24"/><path d="M17.20547,17.405H7.54483a3.45526,3.45526,0,0,1-.74073-6.83154,5.65883,5.65883,0,0,1,10.18262-.07862,2.08229,2.08229,0,0,1,.21875-.0122,3.46118,3.46118,0,1,1,0,6.92236ZM11.91494,8.09489a4.91521,4.91521,0,0,0-4.50683,2.96045l-.082.189-.20362.03222A2.70532,2.70532,0,0,0,7.54483,16.655h9.66064a2.71118,2.71118,0,1,0,0-5.42236,2.39627,2.39627,0,0,0-.34766.03466l-.2832.04151-.15527-.25684A4.9154,4.9154,0,0,0,11.91494,8.09489Z"/></g></g></svg>
