<svg xmlns="http://www.w3.org/2000/svg" viewBox="0 0 24 24"><title>Cloud</title><path d="M16.84717,17.03029H7.18652a3.57851,3.57851,0,0,1-.74463-7.0498,5.58193,5.58193,0,0,1,10.19043-.082c.07373-.00684.14356-.01172.21485-.01172a3.57353,3.57353,0,0,1,0,7.14355ZM11.55664,7.38674a4.9138,4.9138,0,0,0-4.50488,3.07031l-.08057.19141-.20508.0332a2.826,2.826,0,0,0,.42041,5.59863h9.66065a2.824,2.824,0,0,0,0-5.64355,2.30167,2.30167,0,0,0-.34082.03516l-.28809.043-.15918-.26172A4.91284,4.91284,0,0,0,11.55664,7.38674Z" fill="#171717"/></svg>