<?xml version="1.0" encoding="UTF-8"?><svg id="a" xmlns="http://www.w3.org/2000/svg" viewBox="0 0 24 24"><path d="M22.74951,12.67961c0,2.52637-2.05566,4.58203-4.58203,4.58203h-2.18414v-1.5h2.18414c1.69922,0,3.08203-1.38281,3.08203-3.08203s-1.38281-3.08203-3.08203-3.08203c-.0293,0-.05762.00586-.08594.00977l-.8125.0752-.13965-.64551c-.51611-2.39844-2.67334-4.13965-5.12939-4.13965-2.02002,0-3.82715,1.13281-4.71582,2.95605l-.21094.43164-.63281-.02539c-2.0249.00195-3.70703,1.68457-3.70703,3.75195s1.68213,3.75,3.75,3.75h1.49994v1.5h-1.49994c-2.89502,0-5.25-2.35547-5.25-5.25,0-2.78613,2.18213-5.07324,4.92773-5.24023,1.20508-2.09277,3.40137-3.37402,5.83887-3.37402,2.94385,0,5.5542,1.94531,6.43213,4.70801,2.4043.1377,4.31738,2.13672,4.31738,4.57422ZM12,9.45109l-4.36621,2.52148.75,1.29883,2.86621-1.65503v8.5144h1.5v-8.5144l2.8667,1.65503.75-1.29883-4.3667-2.52148Z"/></svg>