<?xml version="1.0" encoding="UTF-8"?><svg id="a" xmlns="http://www.w3.org/2000/svg" viewBox="0 0 24 24"><path d="M18.01123,9.09986c-1.27734-2.51172-3.80176-4.10645-6.57568-4.10645-2.83203,0-5.40283,1.66016-6.65381,4.2627-2.05957.52734-3.51465,2.41211-3.51465,4.62988,0,2.64062,2.08545,4.78809,4.64844,4.78809h12.20264c2.56299,0,4.64795-2.14746,4.64795-4.78809,0-2.67773-2.15186-4.84277-4.75488-4.78613ZM18.11816,17.17407H5.91553c-1.73584,0-3.14844-1.47461-3.14844-3.28809,0-1.62305,1.11963-2.98242,2.6626-3.23438l.41016-.06641.16064-.38379c.94531-2.25293,3.07861-3.70801,5.43506-3.70801,2.354,0,4.48633,1.4541,5.43213,3.7041l.28662.52832.57715-.08691c.12695-.01953.25439-.04102.38672-.04102,1.73584,0,3.14795,1.47461,3.14795,3.28809s-1.41211,3.28809-3.14795,3.28809Z"/></svg>