<svg xmlns="http://www.w3.org/2000/svg" viewBox="0 0 24.75 24.75"><defs><style>.cls-1{fill:none;stroke:#000;stroke-miterlimit:10;stroke-width:0.75px;}.cls-2{fill:#171717;}</style></defs><title>CloudUpload</title><g id="Ebene_2" data-name="Ebene 2"><g id="Ebene_1-2" data-name="Ebene 1"><rect class="cls-1" x="0.375" y="0.375" width="24" height="24"/><path class="cls-2" d="M17.20547,10.48291a2.08038,2.08038,0,0,0-.21875.01172,5.659,5.659,0,0,0-10.18262.0791,3.455,3.455,0,0,0,.74073,6.83106h9.66064a3.46094,3.46094,0,1,0,0-6.92188Zm0,6.17188H7.54483a2.70506,2.70506,0,0,1-.42237-5.37793l.20362-.03223.082-.18945a4.91014,4.91014,0,0,1,9.01123-.00293l.15527.25683.2832-.042a2.39624,2.39624,0,0,1,.34766-.03418,2.71094,2.71094,0,1,1,0,5.42188Z"/><polygon class="cls-2" points="8.301 11.375 8.676 12.024 11.542 10.37 11.542 15.53 12.292 15.53 12.292 10.37 15.157 12.024 15.532 11.375 11.917 9.287 8.301 11.375"/></g></g></svg>
