<?xml version="1.0" encoding="UTF-8"?><svg id="a" xmlns="http://www.w3.org/2000/svg" viewBox="0 0 24 24"><path d="M18.16797,18.88265H6.4834c-2.89502,0-5.25-2.35547-5.25-5.25,0-2.78613,2.18213-5.07324,4.92725-5.24023,1.20557-2.09375,3.40137-3.375,5.83936-3.375,2.94336,0,5.55322,1.94531,6.43213,4.70898,2.4043.13672,4.31787,2.13672,4.31787,4.57422,0,2.52637-2.05566,4.58203-4.58203,4.58203ZM6.44043,9.8807c-2.0249.00195-3.70703,1.68457-3.70703,3.75195s1.68213,3.75,3.75,3.75h11.68457c1.69922,0,3.08203-1.38281,3.08203-3.08203s-1.38281-3.08203-3.08203-3.08203c-.02979,0-.05811.00586-.08691.00977l-.8125.0752-.13916-.64551c-.5166-2.39941-2.67383-4.14062-5.12939-4.14062-2.02002,0-3.82715,1.13281-4.71582,2.95605l-.21094.43262-.63281-.02539Z"/></svg>