<svg xmlns="http://www.w3.org/2000/svg" viewBox="0 0 16.5835 10.39355"><title>Cloud</title>
	<path
		d="M13.12207,10.39355H3.46143A3.52212,3.52212,0,0,1,0,6.82129,3.52263,3.52263,0,0,1,2.7168,3.34375,5.65233,5.65233,0,0,1,7.83154,0a5.65015,5.65015,0,0,1,5.07569,3.26172c.07373-.00684.14355-.01172.21484-.01172A3.5219,3.5219,0,0,1,16.5835,6.82129,3.52212,3.52212,0,0,1,13.12207,10.39355ZM7.83154.75A4.91381,4.91381,0,0,0,3.32666,3.82031l-.08057.19141-.20507.0332A2.76813,2.76813,0,0,0,.75,6.82129,2.77135,2.77135,0,0,0,3.46143,9.64355h9.66064A2.77135,2.77135,0,0,0,15.8335,6.82129,2.77112,2.77112,0,0,0,13.12207,4a2.30181,2.30181,0,0,0-.34082.03516l-.28809.043L12.334,3.81641A4.91284,4.91284,0,0,0,7.83154.75Z"
		fill="#171717"/>
</svg>
