<svg xmlns="http://www.w3.org/2000/svg" viewBox="0 0 16.5835 10.39355"><title>CloudUpload</title>
	<polygon points="4.218 4.362 4.593 5.013 7.458 3.357 7.458 8.519 8.208 8.519 8.208 3.357 11.074 5.013 11.449 4.362 7.833 2.275 4.218 4.362" fill="#171717"/>
	<path
		d="M13.12207,3.25c-.07129,0-.14111.00488-.21484.01172A5.65015,5.65015,0,0,0,7.83154,0,5.65233,5.65233,0,0,0,2.7168,3.34375,3.52263,3.52263,0,0,0,0,6.82129a3.52212,3.52212,0,0,0,3.46143,3.57226h9.66064A3.52212,3.52212,0,0,0,16.5835,6.82129,3.5219,3.5219,0,0,0,13.12207,3.25Zm0,6.39355H3.46143A2.77135,2.77135,0,0,1,.75,6.82129,2.76813,2.76813,0,0,1,3.041,4.04492l.20507-.0332.08057-.19141A4.91381,4.91381,0,0,1,7.83154.75,4.91284,4.91284,0,0,1,12.334,3.81641l.15918.26172.28809-.043A2.30181,2.30181,0,0,1,13.12207,4,2.77112,2.77112,0,0,1,15.8335,6.82129,2.77135,2.77135,0,0,1,13.12207,9.64355Z"
		fill="#171717"/>
</svg>
