<svg xmlns="http://www.w3.org/2000/svg" viewBox="0 0 24 24"><title>CloudUpload</title><polygon points="7.943 10.999 8.318 11.649 11.184 9.994 11.184 15.155 11.934 15.155 11.934 9.994 14.799 11.649 15.174 10.999 11.559 8.912 7.943 10.999" fill="#171717"/><path d="M16.84717,9.88658c-.07129,0-.14112.00488-.21485.01172a5.58193,5.58193,0,0,0-10.19043.082,3.57851,3.57851,0,0,0,.74463,7.0498h9.66065a3.57353,3.57353,0,0,0,0-7.14355Zm0,6.39355H7.18652a2.826,2.826,0,0,1-.42041-5.59863l.20508-.0332.08057-.19141a4.83936,4.83936,0,0,1,9.00732-.00391l.15918.26172.28809-.043a2.303,2.303,0,0,1,.34082-.03515,2.824,2.824,0,0,1,0,5.64355Z" fill="#171717"/></svg>