<?xml version="1.0" encoding="UTF-8"?><svg id="a" xmlns="http://www.w3.org/2000/svg" viewBox="0 0 24 24"><path d="M16.69668,4.79129c-1.80005,0-3.26001,1.47009-3.26001,3.26001,0,1.53992,1.07001,2.83997,2.51001,3.17004v.06995c0,1.38-1.13,1.68005-3.51001,1.98999-.97003,.13-2.06,.27002-2.90002,.67004v-5.64001c1.44-.32996,2.51001-1.63,2.51001-3.16003,0-1.80005-1.46002-3.26001-3.26001-3.26001-1.78998,0-3.25,1.45996-3.25,3.26001,0,1.53003,1.07001,2.83008,2.5,3.16003v7.31995c-1.42999,.33008-2.5,1.63013-2.5,3.17004,0,1.78992,1.46002,3.25,3.25,3.25,1.79999,0,3.26001-1.46008,3.26001-3.25,0-1.47998-.98999-2.73999-2.34998-3.12,.32996-.48999,1.19995-.68994,2.92999-.91003,2.02997-.25989,4.82001-.63,4.82001-3.47998v-.07996c1.42999-.33008,2.5-1.62012,2.5-3.16003,0-1.78992-1.46002-3.26001-3.25-3.26001Zm-9.66003,.35999c0-.96997,.78003-1.76001,1.75-1.76001,.97003,0,1.76001,.79004,1.76001,1.76001,0,.95996-.78998,1.75-1.76001,1.75-.96997,0-1.75-.79004-1.75-1.75Zm3.51001,13.65002c0,.96008-.78998,1.75-1.76001,1.75-.96997,0-1.75-.78992-1.75-1.75,0-.97009,.78003-1.76001,1.75-1.76001,.97003,0,1.76001,.78992,1.76001,1.76001Zm6.15002-8.98999c-.97003,0-1.76001-.79004-1.76001-1.76001,0-.97009,.78998-1.76001,1.76001-1.76001,.96997,0,1.75,.78992,1.75,1.76001,0,.96997-.78003,1.76001-1.75,1.76001Z" fill="#171717"/></svg>