<svg xmlns="http://www.w3.org/2000/svg" viewBox="0 0 24 24"><title>Coffee</title><path d="M22.74951,8.25025a4.03435,4.03435,0,0,0-2.78222-3.91382V3.25025H1.25049v5.8916A9.36572,9.36572,0,0,0,6.8042,17.6836v.81665h7.57861v-.80176a9.39761,9.39761,0,0,0,5.03711-5.4336A4.07612,4.07612,0,0,0,22.74951,8.25025Zm-12.14062,8.75a7.86746,7.86746,0,0,1-7.8584-7.8584V4.75025h15.7168v4.3916A7.86747,7.86747,0,0,1,10.60889,17.00025Zm9.23846-6.4358a9.33536,9.33536,0,0,0,.11994-1.4226V5.958a2.64895,2.64895,0,0,1-.11994,4.60644Z" fill="#171717"/><rect x="2.60547" y="19.25025" width="15.97607" height="1.5" fill="#171717"/></svg>