<svg xmlns="http://www.w3.org/2000/svg" viewBox="0 0 24 24"><title>Coffee</title><path d="M20.25,8.981a2.96841,2.96841,0,0,0-2.227-2.93359V5.24072H3.64258v4.76661A7.19392,7.19392,0,0,0,7.833,16.53369v.66407h6v-.66407a7.21362,7.21362,0,0,0,3.91351-4.57422A3.03215,3.03215,0,0,0,20.25,8.981Zm-9.417,7.4668a6.44741,6.44741,0,0,1-6.44043-6.44043V5.99072H17.273v4.01661A6.44731,6.44731,0,0,1,10.833,16.44776Zm7.09186-5.3086a7.166,7.166,0,0,0,.09808-1.13183V6.83154A2.23606,2.23606,0,0,1,19.5,8.981,2.27646,2.27646,0,0,1,17.92487,11.13916Z" fill="#171717"/><rect x="4.46045" y="18.00928" width="12.64844" height="0.75" fill="#171717"/></svg>