<svg xmlns="http://www.w3.org/2000/svg" viewBox="0 0 16.60742 13.51855"><title>Coffee</title>
	<path
		d="M16.60742,3.74023A2.96841,2.96841,0,0,0,14.38037.80664V0H0V4.7666A7.19392,7.19392,0,0,0,4.19043,11.293V11.957h6V11.293a7.21362,7.21362,0,0,0,3.91351-4.57422A3.03215,3.03215,0,0,0,16.60742,3.74023Zm-9.417,7.4668A6.4474,6.4474,0,0,1,.75,4.7666V.75H13.63037V4.7666A6.4473,6.4473,0,0,1,7.19043,11.207Zm7.09186-5.30859a7.16479,7.16479,0,0,0,.09808-1.13184V1.59082a2.236,2.236,0,0,1,1.47705,2.14941A2.27646,2.27646,0,0,1,14.28229,5.89844Z"
		fill="#171717"/>
	<rect x="0.81787" y="12.76855" width="12.64844" height="0.75" fill="#171717"/>
</svg>
