<?xml version="1.0" encoding="UTF-8"?><svg id="a" xmlns="http://www.w3.org/2000/svg" viewBox="0 0 24 24"><path d="M22.74951,8.25025c0-1.84863-1.13757-3.39648-2.78223-3.91382v-1.08618H1.25049v5.8916c0,3.80493,2.28601,7.08032,5.55371,8.54175v.81665h7.57861v-.80176c2.34094-1.03662,4.17352-3.00562,5.03711-5.43359,1.91901-.36719,3.32959-2.02051,3.32959-4.01465ZM10.60889,17.00025c-4.33301,0-7.8584-3.52539-7.8584-7.8584v-4.3916h15.7168v4.3916c0,4.33301-3.52539,7.8584-7.8584,7.8584ZM19.84735,10.56445c.07147-.46509.11993-.93774.11993-1.42261v-3.18384c.77618.43799,1.28223,1.29688,1.28223,2.29224,0,1.00513-.56189,1.87939-1.40216,2.31421ZM2.60547,19.25025h15.97607v1.5H2.60547v-1.5Z"/></svg>