<svg xmlns="http://www.w3.org/2000/svg" viewBox="0 0 24.75 24.75"><defs><style>.cls-1{fill:#171717;}.cls-2{fill:none;stroke:#000;stroke-miterlimit:10;stroke-width:0.75px;}</style></defs><title>Coffe</title><g id="Ebene_2" data-name="Ebene 2"><g id="Ebene_1-2" data-name="Ebene 1"><path class="cls-1" d="M20.625,9.356a2.96841,2.96841,0,0,0-2.227-2.93359V5.61572H4.01758v4.76661A7.19392,7.19392,0,0,0,8.208,16.90869v.66407h6v-.66407a7.21362,7.21362,0,0,0,3.91351-4.57422A3.03215,3.03215,0,0,0,20.625,9.356Zm-9.417,7.4668a6.44741,6.44741,0,0,1-6.44043-6.44043V6.36572H17.648v4.01661A6.44731,6.44731,0,0,1,11.208,16.82276Zm7.09186-5.3086a7.166,7.166,0,0,0,.09808-1.13183V7.20654A2.23606,2.23606,0,0,1,19.875,9.356,2.27646,2.27646,0,0,1,18.29987,11.51416Z"/><rect class="cls-1" x="4.83545" y="18.38428" width="12.64844" height="0.75"/><rect class="cls-2" x="0.375" y="0.375" width="24" height="24"/></g></g></svg>
