<svg xmlns="http://www.w3.org/2000/svg" viewBox="0 0 24.75 24.75"><defs><style>.cls-1,.cls-2{fill:none;stroke:#000;stroke-miterlimit:10;}.cls-1{stroke-width:0.25px;opacity:0.54;}.cls-2{stroke-width:0.75px;}</style></defs><title>Cog</title><g id="Ebene_2" data-name="Ebene 2"><g id="Ebene_1-2" data-name="Ebene 1"><rect class="cls-1" x="0.375" y="0.375" width="24" height="24"/><rect class="cls-2" x="0.375" y="0.375" width="24" height="24"/><path d="M12.44775,8.7251a3.66065,3.66065,0,1,0,3.66114,3.66016A3.66428,3.66428,0,0,0,12.44775,8.7251Zm0,6.57129a2.91065,2.91065,0,1,1,2.91114-2.91113A2.914,2.914,0,0,1,12.44775,15.29639Z"/><path d="M18.75488,10.04346a6.65485,6.65485,0,0,0-1.22363-2.05859l.96436-1.66993L14.55225,4.03858l-.98243,1.71289a6.61215,6.61215,0,0,0-2.35156.02246L10.23779,4.063,6.2876,6.34424,7.29736,8.06592a6.63933,6.63933,0,0,0-1.17675,2.02832H4.15625V14.644H6.10742a6.65166,6.65166,0,0,0,1.1919,2.06348l-.96143,1.665L10.27832,20.648l.95117-1.64746a6.59338,6.59338,0,0,0,2.43262.001l.93652,1.62109,3.93994-2.27441-.94482-1.63672a6.78525,6.78525,0,0,0,1.21-2.11719h1.87305V10.04346Zm1.17237,3.80078H18.25244l-.08008.2666a5.91532,5.91532,0,0,1-1.31445,2.30176l-.18506.20312.84131,1.458-2.64111,1.52442-.835-1.44532-.269.06055a5.85029,5.85029,0,0,1-2.64648-.001l-.269-.06054-.84961,1.47168L7.3623,18.09815l.85791-1.48633-.18505-.20215a5.92661,5.92661,0,0,1-1.29932-2.25195l-.082-.26368H4.90625v-3.0498l1.75684.00293.083-.26367A5.92885,5.92885,0,0,1,8.03467,8.36182l.18652-.2041-.9043-1.542L9.96143,5.08838l.87988,1.53516.27051-.06153a5.90168,5.90168,0,0,1,2.57324-.02539l.2666.05567L14.82861,5.064l2.64258,1.52539-.86572,1.498.1914.20313a5.94115,5.94115,0,0,1,1.335,2.24414l.084.25879h1.71143Z"/></g></g></svg>
