<svg xmlns="http://www.w3.org/2000/svg" viewBox="0 0 16.52051 16.60938"><title>Cog</title>
	<path
		d="M8.2915,4.68652a3.66065,3.66065,0,1,0,3.66114,3.66016A3.66429,3.66429,0,0,0,8.2915,4.68652Zm0,6.57129a2.91065,2.91065,0,1,1,2.91114-2.91113A2.914,2.914,0,0,1,8.2915,11.25781Z"
		fill="#171717"/>
	<path
		d="M14.59863,6.00488A6.65508,6.65508,0,0,0,13.375,3.94629l.96436-1.66992L10.396,0,9.41357,1.71289A6.61215,6.61215,0,0,0,7.062,1.73535L6.08154.02441,2.13135,2.30566,3.14111,4.02734A6.63945,6.63945,0,0,0,1.96436,6.05566H0v4.54981H1.95117A6.65177,6.65177,0,0,0,3.14307,12.669l-.96143,1.665,3.94043,2.2754.95117-1.64747a6.59338,6.59338,0,0,0,2.43262.001l.93652,1.62109,3.93994-2.27441-.94482-1.63672a6.78513,6.78513,0,0,0,1.21-2.11719h1.87305V6.00488ZM15.771,9.80566H14.09619l-.08008.26661A5.91528,5.91528,0,0,1,12.70166,12.374l-.18506.20313.84131,1.458L10.7168,15.55957l-.835-1.44531-.269.06054a5.85029,5.85029,0,0,1-2.64648-.001l-.269-.06055L5.84766,15.585,3.20605,14.05957,4.064,12.57324l-.185-.20215a5.92653,5.92653,0,0,1-1.29932-2.252l-.082-.26367H.75V6.80566l1.75684.00293.083-.26367A5.92885,5.92885,0,0,1,3.87842,4.32324l.18652-.2041-.9043-1.542L5.80518,1.0498,6.68506,2.585l.27051-.06152a5.90153,5.90153,0,0,1,2.57324-.02539l.2666.05566.87695-1.52832,2.64258,1.52539-.86572,1.498.19141.20312a5.9412,5.9412,0,0,1,1.335,2.24414l.084.25879H15.771Z"
		fill="#171717"/>
</svg>
