<svg xmlns="http://www.w3.org/2000/svg" viewBox="0 0 24 24"><title>Cog</title><path d="M12.07275,8.3501a3.66065,3.66065,0,1,0,3.66114,3.66016A3.66428,3.66428,0,0,0,12.07275,8.3501Zm0,6.57129a2.91065,2.91065,0,1,1,2.91114-2.91113A2.914,2.914,0,0,1,12.07275,14.92139Z" fill="#171717"/><path d="M18.37988,9.66846a6.65485,6.65485,0,0,0-1.22363-2.05859l.96436-1.66993L14.17725,3.66358l-.98243,1.71289a6.61215,6.61215,0,0,0-2.35156.02246L9.86279,3.688,5.9126,5.96924,6.92236,7.69092A6.63933,6.63933,0,0,0,5.74561,9.71924H3.78125V14.269H5.73242a6.65166,6.65166,0,0,0,1.1919,2.06348l-.96143,1.665L9.90332,20.273l.95117-1.64746a6.59338,6.59338,0,0,0,2.43262.001l.93652,1.62109,3.93994-2.27441-.94482-1.63672a6.78525,6.78525,0,0,0,1.21-2.11719h1.87305V9.66846Zm1.17237,3.80078H17.87744l-.08008.2666a5.91532,5.91532,0,0,1-1.31445,2.30176l-.18506.20312.84131,1.458-2.64111,1.52442-.835-1.44532-.269.06055a5.85029,5.85029,0,0,1-2.64648-.001l-.269-.06054-.84961,1.47168L6.9873,17.72315l.85791-1.48633-.185-.20215a5.92661,5.92661,0,0,1-1.29932-2.25195l-.082-.26368H4.53125v-3.0498l1.75684.00293.083-.26367A5.92885,5.92885,0,0,1,7.65967,7.98682l.18652-.2041-.9043-1.542L9.58643,4.71338l.87988,1.53516.27051-.06153a5.90168,5.90168,0,0,1,2.57324-.02539l.2666.05567L14.45361,4.689l2.64258,1.52539-.86572,1.498.19141.20313a5.94112,5.94112,0,0,1,1.335,2.24414l.084.25879h1.71143Z" fill="#171717"/></svg>