<svg xmlns="http://www.w3.org/2000/svg" viewBox="0 0 24 24"><title>Coins</title><path d="M9.16326,11.14823a1.39942,1.39942,0,0,0-.88867.30762l.16064-1.93848h2.1543v-.835H7.861l-.2705,3.54492.5415.18555.1792-.19531a.92413.92413,0,0,1,.69482-.25879.8915.8915,0,0,1,.77344.43164,2.01955,2.01955,0,0,1,.291,1.14551,2.23336,2.23336,0,0,1-.269,1.18652.83385.83385,0,0,1-.74072.42969.86662.86662,0,0,1-.69482-.31055,1.65855,1.65855,0,0,1-.32569-.91992H7.40056A2.41282,2.41282,0,0,0,7.90887,15.367a1.44627,1.44627,0,0,0,1.15185.52246,1.43155,1.43155,0,0,0,1.2417-.63281,2.96145,2.96145,0,0,0,.44434-1.73047,3.09538,3.09538,0,0,0-.42774-1.73633A1.32429,1.32429,0,0,0,9.16326,11.14823Z" fill="#171717"/><path d="M14.31414,7.18436A4.86734,4.86734,0,0,0,10.549,5.241H9.08318c-2.96387,0-5.375,3.03223-5.375,6.75879,0,3.72754,2.41113,6.75977,5.375,6.75977H10.549a4.34381,4.34381,0,0,0,.74835-.07324c.495.043,1.00061.07324,1.51337.07324,3.27686,0,6.75977-.96,6.75977-2.73926V14.01347a1.35575,1.35575,0,0,0-.20142-.6875,1.80564,1.80564,0,0,0,.92261-1.415V9.90409C20.29168,8.283,17.31231,7.31913,14.31414,7.18436Zm5.22754,2.71973c0,.62988-1.27753,1.44629-3.62934,1.80762a7.86094,7.86094,0,0,0-1.05413-3.73438C17.68261,8.20389,19.54168,9.10722,19.54168,9.90409ZM15.174,11.99979a7.59252,7.59252,0,0,1-.28711,2.08594,5.42677,5.42677,0,0,1-2.97369,3.65039,7.27336,7.27336,0,0,0,2.545-5.73633A7.2645,7.2645,0,0,0,11.899,6.2537C13.79253,7.00565,15.174,9.29667,15.174,11.99979Zm-10.71582,0c0-3.31347,2.07471-6.00879,4.625-6.00879s4.625,2.69532,4.625,6.00879c0,3.31446-2.07471,6.00977-4.625,6.00977S4.45818,15.31425,4.45818,11.99979Zm8.54437,6.00586a5.68686,5.68686,0,0,0,1.40986-1.32812,9.09335,9.09335,0,0,0,4.40808-1.36621v.709C18.82049,16.9412,16.34417,17.96659,13.00255,18.00565Zm5.81794-3.99218c0,.69042-1.43885,1.51562-3.87226,1.84375a7.35,7.35,0,0,0,.57416-1.32813,10.36573,10.36573,0,0,0,3.19721-.831A.63716.63716,0,0,1,18.82049,14.01347Zm-3.0979-.26856a8.31346,8.31346,0,0,0,.16919-1.27148,7.91208,7.91208,0,0,0,3.6499-1.2793v.7168C19.54168,12.57987,18.11657,13.409,15.72259,13.74491Z" fill="#171717"/></svg>