<svg xmlns="http://www.w3.org/2000/svg" viewBox="0 0 24 24"><title>Coins</title><path d="M8.40625,10.82153a1.715,1.715,0,0,0-1.01172.33887L7.561,9.23071h2.67431V7.74439H6.46582l-.38818,4.56347,1.063.35157.1289-.16016a.98466.98466,0,0,1,.77149-.333.91485.91485,0,0,1,.79931.40723,2.04864,2.04864,0,0,1,.28174,1.17187,2.53911,2.53911,0,0,1-.24463,1.23047.76592.76592,0,0,1-.69775.43457.80511.80511,0,0,1-.65821-.31152,1.54515,1.54515,0,0,1-.29345-.873H5.90674A3.15735,3.15735,0,0,0,6.228,15.58911a2.29236,2.29236,0,0,0,.8247.92774,2.0713,2.0713,0,0,0,1.13184.33008A1.98007,1.98007,0,0,0,9.395,16.468a2.39264,2.39264,0,0,0,.7876-1.06738,4.167,4.167,0,0,0,.2749-1.55664,3.90428,3.90428,0,0,0-.54541-2.22657A1.72817,1.72817,0,0,0,8.40625,10.82153Z" fill="#171717"/><path d="M22.74951,11.82251V9.28833c0-2.23071-3.66559-3.44775-7.377-3.68823a6.31485,6.31485,0,0,0-4.768-2.34985H8.26514c-3.86817,0-7.01514,3.9248-7.01514,8.75s3.147,8.75,7.01514,8.75h2.33935a5.69,5.69,0,0,0,.7984-.05933c.52515.0376,1.066.05933,1.62152.05933,4.37989,0,8.814-1.28321,8.814-3.73633V14.47974a1.98193,1.98193,0,0,0-.17865-.79053A2.41593,2.41593,0,0,0,22.74951,11.82251ZM17.4668,13.7417c.05505-.34106.08246-.68725.10479-1.03564a10.69516,10.69516,0,0,0,3.67792-1.2417v.35815C21.24951,12.35108,20.03528,13.25537,17.4668,13.7417Zm3.78271-4.45337c0,.52075-1.15423,1.39771-3.66315,1.89282a10.15417,10.15417,0,0,0-1.118-3.9707C19.46155,7.59619,21.24951,8.606,21.24951,9.28833Zm-5.12988,2.71192a9.23551,9.23551,0,0,1-.34863,2.53613,7.87853,7.87853,0,0,1-1.11231,2.36816,5.87634,5.87634,0,0,1-1.819,1.71509,9.74239,9.74239,0,0,0,2.44055-6.61938,9.741,9.741,0,0,0-2.44592-6.62549A7.60819,7.60819,0,0,1,16.11963,12.00025Zm-13.36963,0c0-3.998,2.47412-7.25,5.51514-7.25s5.51513,3.252,5.51513,7.25-2.47412,7.25-5.51513,7.25S2.75,15.99829,2.75,12.00025Zm11.8429,7.19091a7.6632,7.6632,0,0,0,1.067-1.135,12.28371,12.28371,0,0,0,4.67853-1.40332v.36109C20.33838,17.7937,18.10144,18.92237,14.5929,19.19116Zm5.74548-4.71142c0,.54883-1.2713,1.41235-3.65668,1.89087a9.83514,9.83514,0,0,0,.39173-1.04785,13.28214,13.28214,0,0,0,3.26055-.866C20.33447,14.46436,20.33838,14.47217,20.33838,14.47974Z" fill="#171717"/></svg>