<?xml version="1.0" encoding="UTF-8"?><svg id="a" xmlns="http://www.w3.org/2000/svg" viewBox="0 0 24 24"><path d="M9.91235,11.61719c.36328.53027.54541,1.27246.54541,2.22656,0,.5791-.0918,1.09863-.2749,1.55664-.18359.45898-.4458.81445-.7876,1.06738-.34229.25293-.74561.37891-1.21045.37891-.40674,0-.78418-.10938-1.13184-.33008-.34814-.21973-.62305-.5293-.82471-.92773s-.30859-.85352-.32129-1.36328h1.32129c.02783.37402.12549.66504.29346.87305s.38721.31152.6582.31152c.30176,0,.53467-.14551.69775-.43457.16309-.29004.24463-.7002.24463-1.23047,0-.50977-.09375-.90039-.28174-1.17188s-.4541-.40723-.79932-.40723c-.31689,0-.57422.11133-.77148.33301l-.12891.16016-1.06299-.35156.38818-4.56348h3.76953v1.48633h-2.67432l-.1665,1.92969c.31689-.22559.6543-.33887,1.01172-.33887.64062,0,1.14258.26562,1.50586.7959ZM21.65997,13.68896c.13275.30103.17865.57593.17865.79053v2.53418c0,2.45312-4.43408,3.73633-8.81396,3.73633-.55548,0-1.09637-.02173-1.62152-.05933-.26373.03735-.52997.05933-.7984.05933h-2.33936c-3.86816,0-7.01514-3.9248-7.01514-8.75S4.39722,3.25,8.26538,3.25h2.33936c1.84186,0,3.51501.89673,4.76801,2.34985,3.71143.24048,7.37701,1.45752,7.37701,3.68823v2.53418c0,.69263-.39337,1.32349-1.08978,1.8667ZM21.24976,11.82227v-.35815c-.87891.54541-2.1358.9668-3.67792,1.2417-.02234.34839-.04974.69458-.1048,1.03564,2.56848-.48633,3.78271-1.39062,3.78271-1.91919ZM16.46857,7.21021c.61212,1.16211,1.00903,2.51416,1.11804,3.9707,2.50891-.49512,3.66315-1.37207,3.66315-1.89282,0-.68237-1.78796-1.69214-4.78119-2.07788ZM12.83459,5.37451c1.49451,1.60596,2.44592,3.97754,2.44592,6.62549,0,2.64478-.94922,5.01367-2.44055,6.61938.68121-.39966,1.30316-.979,1.81897-1.71509.4873-.69434.86133-1.49121,1.1123-2.36816.23145-.81055.34863-1.66406.34863-2.53613,0-2.95435-1.35291-5.49707-3.28528-6.62549ZM8.26538,19.25c3.04102,0,5.51514-3.25195,5.51514-7.25s-2.47412-7.25-5.51514-7.25-5.51514,3.25195-5.51514,7.25,2.47412,7.25,5.51514,7.25ZM20.33862,17.01367v-.36108c-1.19928.73584-2.95636,1.19141-4.67853,1.40332-.32709.4248-.68347.80469-1.06696,1.13501,3.50854-.2688,5.74548-1.39746,5.74548-2.17725ZM20.33423,14.45654c-.87982.38159-1.98389.67407-3.26056.86597-.1178.35791-.23773.71436-.39172,1.04785,2.38538-.47852,3.65668-1.34204,3.65668-1.89087,0-.00757-.00391-.01538-.00439-.02295Z"/></svg>