<?xml version="1.0" encoding="UTF-8"?><svg id="a" xmlns="http://www.w3.org/2000/svg" viewBox="0 0 24 24"><path d="M21.75,5.66528c0-.91309-.35645-1.77051-1.00391-2.41602-1.33447-1.33105-3.50684-1.3291-4.84033,0l-2.51715,2.50903-1.04779-1.04419-2.99414,2.98438,1.52069,1.51562-6.73749,6.71582-2.01709,4.78809,1.17676,1.1748,4.74023-2.07812,6.73639-6.7146,1.52045,1.51538,2.99463-2.98438-1.04846-1.04492,2.51331-2.50488c.64746-.64551,1.00391-1.50293,1.00391-2.41602ZM7.17041,18.55298l-3.08838,1.35449,1.31543-3.12402,6.53223-6.5105,1.77417,1.76807-6.53345,6.51196ZM16.28662,12.49829l-4.81494-4.7998.86914-.86719,4.81543,4.7998-.86963.86719ZM19.6875,7.0188l-2.51709,2.50854-2.71948-2.71021,2.51343-2.50537c.75049-.74805,1.97168-.74805,2.72314,0,.36279.36133.5625.84277.5625,1.35352s-.19971.99219-.5625,1.35352Z"/></svg>