<?xml version="1.0" encoding="UTF-8"?><svg id="a" xmlns="http://www.w3.org/2000/svg" viewBox="0 0 24 24"><path d="M10.84521,10.84468H2.25V2.24996h8.59521v8.59473ZM3.75,9.34468h5.59521V3.74996H3.75v5.59473ZM21.75,10.84468h-8.59521V2.24996h8.59521v8.59473ZM14.65479,9.34468h5.59521V3.74996h-5.59521v5.59473ZM10.84521,13.5107H2.25v1.5h8.59521v-1.5ZM10.84521,20.24996H2.25v1.5h8.59521v-1.5ZM10.84521,16.88082H2.25v1.5h8.59521v-1.5ZM21.75,13.5107h-8.59521v1.5h8.59521v-1.5ZM21.75,20.24996h-8.59521v1.5h8.59521v-1.5ZM21.75,16.88082h-8.59521v1.5h8.59521v-1.5Z"/></svg>