<?xml version="1.0" encoding="UTF-8"?><svg id="a" xmlns="http://www.w3.org/2000/svg" viewBox="0 0 24 24"><path d="M12,1.25025C6.07227,1.25025,1.25,6.07251,1.25,12.00025s4.82227,10.75,10.75,10.75c5.92725,0,10.74951-4.82227,10.74951-10.75S17.92725,1.25025,12,1.25025ZM12,21.25025c-5.10059,0-9.25-4.14941-9.25-9.25S6.89941,2.75025,12,2.75025c5.1001,0,9.24951,4.14941,9.24951,9.25s-4.14941,9.25-9.24951,9.25ZM6.57129,17.55591l7.54541-3.49316,3.48291-7.63379-7.54541,3.49512-3.48291,7.63184ZM11.1225,11.19458l1.74536,1.79443-3.24969,1.50439,1.50433-3.29883Z"/></svg>