<svg xmlns="http://www.w3.org/2000/svg" viewBox="0 0 13.51855 16.5835"><title>Database</title>
	<path
		d="M6.75928,0C3.48242,0,0,.96045,0,2.73975V13.84424c0,1.7793,3.48242,2.73926,6.75928,2.73926s6.75927-.96,6.75927-2.73926V2.73975C13.51855.96045,10.03613,0,6.75928,0Zm0,.75c3.43945,0,6.00927,1.05029,6.00927,1.98975,0,.939-2.56982,1.98925-6.00927,1.98925S.75,3.67871.75,2.73975C.75,1.80029,3.31982.75,6.75928.75Zm0,15.0835C3.31982,15.8335.75,14.7832.75,13.84424V11.44287c1.19769.94043,3.653,1.43945,6.00928,1.43945s4.81158-.499,6.00927-1.43945v2.40137C12.76855,14.7832,10.19873,15.8335,6.75928,15.8335Zm0-3.70118C3.31982,12.13232.75,11.082.75,10.14258V7.74121c1.19769.94043,3.653,1.43945,6.00928,1.43945s4.81158-.499,6.00927-1.43945v2.40137C12.76855,11.082,10.19873,12.13232,6.75928,12.13232Zm0-3.70166C3.31982,8.43066.75,7.38037.75,6.44092V4.04c1.19769.94043,3.653,1.439,6.00928,1.439s4.81158-.49853,6.00927-1.439V6.44092C12.76855,7.38037,10.19873,8.43066,6.75928,8.43066Z"
		fill="#171717"/>
	<path
		d="M2.23047,12.75537a.875.875,0,1,0,.875.875A.87606.87606,0,0,0,2.23047,12.75537Zm-.125.875a.125.125,0,0,1,.25,0C2.35547,13.76807,2.10547,13.76807,2.10547,13.63037Z"
		fill="#171717"/>
	<path
		d="M2.23047,9.03271a.875.875,0,1,0,.875.875A.87606.87606,0,0,0,2.23047,9.03271Zm-.125.875a.125.125,0,0,1,.25,0C2.35547,10.04541,2.10547,10.04541,2.10547,9.90771Z"
		fill="#171717"/>
	<path
		d="M2.23047,5.33105a.875.875,0,1,0,.875.875A.87606.87606,0,0,0,2.23047,5.33105Zm-.125.875a.125.125,0,0,1,.25,0C2.35547,6.34375,2.10547,6.34375,2.10547,6.20605Z"
		fill="#171717"/>
</svg>
