<svg xmlns="http://www.w3.org/2000/svg" viewBox="0 0 24.75 24.75"><defs><style>.cls-1{fill:none;stroke:#171717;stroke-miterlimit:10;stroke-width:0.75px;}.cls-2{fill:#171717;}</style></defs><title>Database</title><g id="Ebene_2" data-name="Ebene 2"><g id="Ebene_1-2" data-name="Ebene 1"><rect class="cls-1" x="0.375" y="0.375" width="24" height="24"/><path class="cls-2" d="M12.35833,4.083c-3.27685,0-6.75927.96045-6.75927,2.73975V17.92725c0,1.77929,3.48242,2.73926,6.75927,2.73926s6.75928-.96,6.75928-2.73926V6.82276C19.11761,5.04346,15.63519,4.083,12.35833,4.083Zm0,.75c3.43946,0,6.00928,1.05029,6.00928,1.98975,0,.939-2.56982,1.98925-6.00928,1.98925S6.34906,7.76172,6.34906,6.82276C6.34906,5.8833,8.91888,4.833,12.35833,4.833Zm0,15.0835c-3.43945,0-6.00927-1.0503-6.00927-1.98926V15.52588c1.19769.94043,3.653,1.43945,6.00927,1.43945s4.81159-.499,6.00928-1.43945v2.40137C18.36761,18.86621,15.79779,19.91651,12.35833,19.91651Zm0-3.70118c-3.43945,0-6.00927-1.05029-6.00927-1.98974V11.82422c1.19769.94043,3.653,1.43945,6.00927,1.43945s4.81159-.499,6.00928-1.43945v2.40137C18.36761,15.165,15.79779,16.21533,12.35833,16.21533Zm0-3.70166c-3.43945,0-6.00927-1.05029-6.00927-1.98974V8.123c1.19769.94043,3.653,1.439,6.00927,1.439s4.81159-.49853,6.00928-1.439v2.40088C18.36761,11.46338,15.79779,12.51367,12.35833,12.51367Z"/><path class="cls-2" d="M7.82952,16.83838a.875.875,0,1,0,.875.875A.87606.87606,0,0,0,7.82952,16.83838Zm-.125.875a.125.125,0,0,1,.25,0C7.95452,17.85108,7.70452,17.85108,7.70452,17.71338Z"/><path class="cls-2" d="M7.82952,13.11572a.875.875,0,1,0,.875.875A.87606.87606,0,0,0,7.82952,13.11572Zm-.125.875a.125.125,0,0,1,.25,0C7.95452,14.12842,7.70452,14.12842,7.70452,13.99072Z"/><path class="cls-2" d="M7.82952,9.41406a.875.875,0,1,0,.875.875A.87606.87606,0,0,0,7.82952,9.41406Zm-.125.875a.125.125,0,0,1,.25,0C7.95452,10.42676,7.70452,10.42676,7.70452,10.28906Z"/></g></g></svg>
