<svg xmlns="http://www.w3.org/2000/svg" viewBox="0 0 24 24"><title>Database</title><path d="M12,3.708c-3.27686,0-6.75928.96045-6.75928,2.73975V17.55225c0,1.77929,3.48242,2.73926,6.75928,2.73926s6.75928-.96,6.75928-2.73926V6.44776C18.75928,4.66846,15.27686,3.708,12,3.708Zm0,.75c3.43945,0,6.00928,1.05029,6.00928,1.98975,0,.939-2.56983,1.98925-6.00928,1.98925S5.99072,7.38672,5.99072,6.44776C5.99072,5.5083,8.56055,4.458,12,4.458Zm0,15.0835c-3.43945,0-6.00928-1.0503-6.00928-1.98926V15.15088c1.1977.94043,3.653,1.43945,6.00928,1.43945s4.81158-.499,6.00928-1.43945v2.40137C18.00928,18.49121,15.43945,19.54151,12,19.54151Zm0-3.70118c-3.43945,0-6.00928-1.05029-6.00928-1.98974V11.44922c1.1977.94043,3.653,1.43945,6.00928,1.43945s4.81158-.499,6.00928-1.43945v2.40137C18.00928,14.79,15.43945,15.84033,12,15.84033Zm0-3.70166c-3.43945,0-6.00928-1.05029-6.00928-1.98974V7.74805C7.18842,8.68848,9.64374,9.187,12,9.187s4.81158-.49853,6.00928-1.439v2.40088C18.00928,11.08838,15.43945,12.13867,12,12.13867Z" fill="#171717"/><path d="M7.47119,16.46338a.875.875,0,1,0,.875.875A.87606.87606,0,0,0,7.47119,16.46338Zm-.125.875a.125.125,0,0,1,.25,0C7.59619,17.47608,7.34619,17.47608,7.34619,17.33838Z" fill="#171717"/><path d="M7.47119,12.74072a.875.875,0,1,0,.875.875A.87606.87606,0,0,0,7.47119,12.74072Zm-.125.875a.125.125,0,0,1,.25,0C7.59619,13.75342,7.34619,13.75342,7.34619,13.61572Z" fill="#171717"/><path d="M7.47119,9.03906a.875.875,0,1,0,.875.875A.87606.87606,0,0,0,7.47119,9.03906Zm-.125.875a.125.125,0,0,1,.25,0C7.59619,10.05176,7.34619,10.05176,7.34619,9.91406Z" fill="#171717"/></svg>