<?xml version="1.0" encoding="UTF-8"?><svg id="a" xmlns="http://www.w3.org/2000/svg" viewBox="0 0 24 24"><path d="M12,1.25025C7.65186,1.25025,3.25,2.53345,3.25,4.98657v14.02734c0,2.45312,4.40186,3.73633,8.75,3.73633s8.75-1.2832,8.75-3.73633V4.98657c0-2.45312-4.40186-3.73633-8.75-3.73633ZM19.25,19.01392c0,.89062-2.8916,2.23633-7.25,2.23633s-7.25-1.3457-7.25-2.23633v-2.49536c1.65753,1.02539,4.46161,1.55591,7.25,1.55591s5.59247-.53052,7.25-1.55591v2.49536ZM19.25,14.33814c0,.89062-2.8916,2.23633-7.25,2.23633s-7.25-1.3457-7.25-2.23633v-2.49536c1.65753,1.02539,4.46161,1.55591,7.25,1.55591s5.59247-.53052,7.25-1.55591v2.49536ZM19.25,9.66236c0,.89062-2.8916,2.23633-7.25,2.23633s-7.25-1.3457-7.25-2.23633v-2.49536c1.65753,1.02539,4.46161,1.55591,7.25,1.55591s5.59247-.53052,7.25-1.55591v2.49536ZM12,7.2229c-4.3584,0-7.25-1.3457-7.25-2.23633s2.8916-2.23633,7.25-2.23633,7.25,1.3457,7.25,2.23633-2.8916,2.23633-7.25,2.23633Z"/></svg>