<svg xmlns="http://www.w3.org/2000/svg" viewBox="0 0 24 24"><title>Deaf</title><path d="M15.29785,10.11817h.75a4.15381,4.15381,0,0,0-8.30762,0h.75a3.40381,3.40381,0,0,1,6.80762,0Z" fill="#171717"/><path d="M11.90576,4.31983a6.03594,6.03594,0,0,0-6.0293,6.02929h.75a5.27955,5.27955,0,0,1,10.55909,0,5.89638,5.89638,0,0,1-.84229,2.31641,6.42618,6.42618,0,0,0-.938,2.706,3.40755,3.40755,0,0,1-3.40381,3.40381v.75a4.15837,4.15837,0,0,0,4.15381-4.15381,5.96424,5.96424,0,0,1,.855-2.36328,6.34261,6.34261,0,0,0,.9253-2.65918A6.03636,6.03636,0,0,0,11.90576,4.31983Z" fill="#171717"/><rect x="16.40841" y="4.71757" width="1.10554" height="0.74992" transform="translate(1.36685 13.48493) rotate(-45)" fill="#171717"/><rect x="5.60754" y="12.89531" width="6.33668" height="0.74992" transform="translate(-6.8131 10.09225) rotate(-45)" fill="#171717"/></svg>