<?xml version="1.0" encoding="UTF-8"?><svg id="a" xmlns="http://www.w3.org/2000/svg" viewBox="0 0 24 24"><path d="M19.79053,10.04028c0,1.1377-.60156,2.30859-1.18311,3.44043-.50781.98926-1.0332,2.01172-1.0332,2.81445,0,3.00781-2.44727,5.45508-5.45557,5.45508v-1.5c2.18115,0,3.95557-1.77441,3.95557-3.95508,0-1.16602.60938-2.35254,1.19922-3.5.5-.97363,1.01709-1.97949,1.01709-2.75488,0-3.46875-2.82178-6.29004-6.29053-6.29004s-6.29053,2.82129-6.29053,6.29004h-1.5c0-4.2959,3.49463-7.79004,7.79053-7.79004s7.79053,3.49414,7.79053,7.79004ZM19.55176,3.55005l-1.06055-1.06055-1.08838,1.08789,1.06055,1.06055,1.08838-1.08789ZM4.91211,16.06763l1.06055,1.06055,5.5791-5.58008-1.06055-1.06055-5.5791,5.58008ZM15.40039,10.15064h1.5c0-2.70215-2.19824-4.90039-4.90039-4.90039s-4.90039,2.19824-4.90039,4.90039h1.5c0-1.875,1.52539-3.40039,3.40039-3.40039s3.40039,1.52539,3.40039,3.40039Z"/></svg>