<svg xmlns="http://www.w3.org/2000/svg" viewBox="0 0 12.05908 15.20557"><title>Deaf</title>
	<path d="M9.42139,5.79834h.75a4.15381,4.15381,0,0,0-8.30762,0h.75a3.40381,3.40381,0,0,1,6.80762,0Z" fill="#171717"/>
	<path
		d="M6.0293,0A6.036,6.036,0,0,0,0,6.0293H.75a5.27954,5.27954,0,0,1,10.55908,0,5.89636,5.89636,0,0,1-.84228,2.3164,6.42622,6.42622,0,0,0-.938,2.70606A3.40756,3.40756,0,0,1,6.125,14.45557v.75a4.15837,4.15837,0,0,0,4.15381-4.15381,5.96419,5.96419,0,0,1,.855-2.36328,6.34264,6.34264,0,0,0,.92529-2.65918A6.03636,6.03636,0,0,0,6.0293,0Z"
		fill="#171717"/>
	<rect x="10.53194" y="0.39775" width="1.10554" height="0.74992" transform="translate(2.70025 8.0644) rotate(-45)" fill="#171717"/>
	<rect x="-0.26893" y="8.57548" width="6.33668" height="0.74992" transform="translate(-5.4797 4.67172) rotate(-45)" fill="#171717"/>
</svg>
