<svg xmlns="http://www.w3.org/2000/svg" viewBox="0 0 24 24"><title>Deaf</title><path d="M12,2.25025a7.79869,7.79869,0,0,0-7.79053,7.79h1.5a6.29053,6.29053,0,0,1,12.58106,0,7.19543,7.19543,0,0,1-1.01709,2.75489,8.18561,8.18561,0,0,0-1.19922,3.5,3.95989,3.95989,0,0,1-3.95557,3.95508v1.5a5.46153,5.46153,0,0,0,5.45557-5.45508,7.28769,7.28769,0,0,1,1.0332-2.81446,8.08756,8.08756,0,0,0,1.18311-3.44043A7.79869,7.79869,0,0,0,12,2.25025Z" fill="#171717"/><rect x="17.70787" y="2.8138" width="1.53885" height="1.49984" transform="translate(2.89194 14.10921) rotate(-45)" fill="#171717"/><rect x="4.28657" y="13.05794" width="7.89073" height="1.49984" transform="translate(-7.35256 9.86509) rotate(-45)" fill="#171717"/><path d="M15.40039,10.15064h1.5a4.90039,4.90039,0,0,0-9.80078,0h1.5a3.40039,3.40039,0,0,1,6.80078,0Z" fill="#171717"/></svg>