<svg xmlns="http://www.w3.org/2000/svg" viewBox="0 0 24.75 24.75"><defs><style>.cls-1{fill:none;stroke:#171717;stroke-miterlimit:10;stroke-width:0.75px;}.cls-2{fill:#171717;}</style></defs><title>Deaf</title><g id="Ebene_2" data-name="Ebene 2"><g id="Ebene_1-2" data-name="Ebene 1"><rect class="cls-1" x="0.375" y="0.375" width="24" height="24"/><path class="cls-2" d="M15.65618,10.49317h.75a4.15381,4.15381,0,0,0-8.30761,0h.75a3.40381,3.40381,0,0,1,6.80761,0Z"/><path class="cls-2" d="M12.26409,4.69483A6.03594,6.03594,0,0,0,6.2348,10.72412h.75a5.27954,5.27954,0,0,1,10.55908,0,5.89622,5.89622,0,0,1-.84229,2.31641,6.4263,6.4263,0,0,0-.938,2.706,3.40755,3.40755,0,0,1-3.40381,3.40381v.75a4.15837,4.15837,0,0,0,4.15381-4.15381,5.96424,5.96424,0,0,1,.855-2.36328,6.34259,6.34259,0,0,0,.92529-2.65918A6.03636,6.03636,0,0,0,12.26409,4.69483Z"/><rect class="cls-2" x="16.76674" y="5.09257" width="1.10554" height="0.74992" transform="translate(1.20664 13.84815) rotate(-45)"/><rect class="cls-2" x="5.96587" y="13.27031" width="6.33668" height="0.74992" transform="translate(-6.97331 10.45547) rotate(-45)"/></g></g></svg>
