<?xml version="1.0" encoding="UTF-8"?><svg id="a" xmlns="http://www.w3.org/2000/svg" viewBox="0 0 24 24"><path d="M14.17523,11.80269h-4.35999c-2.32001,0-4.20001,1.89014-4.20001,4.21008v5.98999h1.5v-5.98999c0-1.25,.84003-2.29993,1.98004-2.60999v1.63c-.83002,.31995-1.51001,1.18005-1.51001,2.54993v1.30005l.01001,.30005c-.24005,.22998-.32001,.59998-.15002,.90991,.14001,.25,.40002,.39001,.65997,.39001,.12,0,.25-.02991,.36005-.08997l.63-.3501c.37-.19995,.5-.6499,.29999-1.0199-.07001-.13-.17999-.2301-.29999-.29993l-.01001-1.14014c0-.94995,.47998-1.19995,.76001-1.19995,.28998,0,.76996,.25,.76996,1.19995v1.20007c-.08997,.05994-.15997,.14001-.21997,.23999-.20001,.35999-.07001,.81995,.29999,1.0199l.63,.3501c.10999,.06006,.23999,.08997,.35999,.08997,.26001,0,.52002-.14001,.66003-.39001,.18994-.32996,.07996-.76001-.23004-.96997v-1.54004c0-1.36987-.67999-2.23999-1.51996-2.55994v-1.72009h3.00995v1.78003c-.62,.29004-1.03998,.92004-1.03998,1.66003,0,1.03003,.83002,1.85999,1.85999,1.85999,1.03003,0,1.85999-.82996,1.85999-1.85999,0-.78992-.48999-1.45996-1.17999-1.72998v-1.54993c1.04004,.37988,1.78003,1.37988,1.78003,2.54993v5.98999h1.5v-5.98999c0-2.31995-1.88-4.21008-4.21002-4.21008Zm.25,5.30005c-.20001,0-.35999-.15991-.35999-.35999s.15997-.35999,.35999-.35999,.35999,.15991,.35999,.35999-.15997,.35999-.35999,.35999Z" fill="#171717"/><path d="M11.99524,1.25276c-2.70001,0-4.89996,2.20007-4.89996,4.90002s2.19995,4.8999,4.89996,4.8999c2.71002,0,4.91003-2.19995,4.91003-4.8999S14.70526,1.25276,11.99524,1.25276Zm0,8.29993c-1.87,0-3.39996-1.52991-3.39996-3.3999,0-1.88,1.52997-3.40002,3.39996-3.40002,1.88,0,3.41003,1.52002,3.41003,3.40002,0,1.87-1.53003,3.3999-3.41003,3.3999Z" fill="#171717"/></svg>