<svg xmlns="http://www.w3.org/2000/svg" viewBox="0 0 24 24"><path d="M18.99121,11.24992,17.17432,6.9423,15.22705,5.5048,12.74512.22648l-1.71826,3.709h-.5337L7.38574,6.415v.56152L2.689,9.80851l.84375.67188c.42627.33887,2.60791,2.042,3.71192,2.25586a10.11919,10.11919,0,0,0,3.37305-.46l.65966,7.415,2.85791,2.84082,1.05762-1.06446-2.47021-2.4541-.772-8.68261-.88037.26269a13.19919,13.19919,0,0,1-3.541.66992A9.10331,9.10331,0,0,1,5.33545,9.96476L8.88574,7.82414V7.13762l2.13281-1.70215h.96631l.77-1.66211,1.27588,2.71191,1.92188,1.41992,2.04345,4.84473H20v-1.5Z" fill="#171717"/><path d="M9.48682,7.42375a1.06567,1.06567,0,1,0,1.06591-1.06543A1.06652,1.06652,0,0,0,9.48682,7.42375Z" fill="#171717"/></svg>