<?xml version="1.0" encoding="UTF-8"?><svg id="a" xmlns="http://www.w3.org/2000/svg" viewBox="0 0 24 24"><path d="M20,11.24992v1.5h-2.00391l-2.04346-4.84473-1.92188-1.41992-1.27588-2.71191-.77002,1.66211h-.96631l-2.13281,1.70215v.68652l-3.55029,2.14062c.89893.64941,1.82471,1.22754,2.19385,1.29883.48779.08594,2.21777-.27441,3.54102-.66992l.88037-.2627.77197,8.68262,2.47021,2.4541-1.05762,1.06445-2.85791-2.84082-.65967-7.41504c-1.02246.2666-2.58887.6123-3.37305.45996-1.104-.21387-3.28564-1.91699-3.71191-2.25586l-.84375-.67188,4.69678-2.83203v-.56152l3.10742-2.47949h.53369L12.74512.22648l2.48193,5.27832,1.94727,1.4375,1.81689,4.30762h1.00879ZM9.48682,7.42375c0,.58789.47803,1.06543,1.06592,1.06543.5874,0,1.06543-.47754,1.06543-1.06543s-.47803-1.06543-1.06543-1.06543c-.58789,0-1.06592.47754-1.06592,1.06543Z"/></svg>