<svg xmlns="http://www.w3.org/2000/svg" viewBox="0 0 24 24"><title>DragIndicator</title><path d="M6.42139,1.25025a3.1709,3.1709,0,1,0,3.1709,3.17089A3.17509,3.17509,0,0,0,6.42139,1.25025Zm0,4.84179a1.6709,1.6709,0,1,1,1.6709-1.6709A1.67346,1.67346,0,0,1,6.42139,6.092Z" fill="#171717"/><path d="M6.42139,8.82935a3.1709,3.1709,0,1,0,3.1709,3.1709A3.1751,3.1751,0,0,0,6.42139,8.82935Zm0,4.84179a1.6709,1.6709,0,1,1,1.6709-1.67089A1.67346,1.67346,0,0,1,6.42139,13.67114Z" fill="#171717"/><path d="M6.42139,16.40747a3.17139,3.17139,0,1,0,3.1709,3.17188A3.1753,3.1753,0,0,0,6.42139,16.40747Zm0,4.84278a1.67139,1.67139,0,1,1,1.6709-1.6709A1.67346,1.67346,0,0,1,6.42139,21.25025Z" fill="#171717"/><path d="M17.57861,7.592a3.1709,3.1709,0,1,0-3.1709-3.1709A3.1751,3.1751,0,0,0,17.57861,7.592Zm0-4.84179a1.6709,1.6709,0,1,1-1.6709,1.67089A1.67346,1.67346,0,0,1,17.57861,2.75025Z" fill="#171717"/><path d="M17.57861,8.82935A3.1709,3.1709,0,1,0,20.75,12.00025,3.17468,3.17468,0,0,0,17.57861,8.82935Zm0,4.84179A1.6709,1.6709,0,1,1,19.25,12.00025,1.673,1.673,0,0,1,17.57861,13.67114Z" fill="#171717"/><path d="M17.57861,16.40747A3.17139,3.17139,0,1,0,20.75,19.57935,3.17489,3.17489,0,0,0,17.57861,16.40747Zm0,4.84278A1.67139,1.67139,0,1,1,19.25,19.57935,1.673,1.673,0,0,1,17.57861,21.25025Z" fill="#171717"/></svg>