<svg xmlns="http://www.w3.org/2000/svg" viewBox="0 0 24 24"><title>DragIndicator</title><path d="M7.53223,3.7085a2.29175,2.29175,0,1,0,2.292,2.292A2.29435,2.29435,0,0,0,7.53223,3.7085Zm0,3.83349a1.54175,1.54175,0,1,1,1.542-1.5415A1.54311,1.54311,0,0,1,7.53223,7.542Z" fill="#171717"/><path d="M7.53223,9.7085A2.29175,2.29175,0,1,0,9.82422,12,2.29393,2.29393,0,0,0,7.53223,9.7085Zm0,3.83349A1.54175,1.54175,0,1,1,9.07422,12,1.54353,1.54353,0,0,1,7.53223,13.542Z" fill="#171717"/><path d="M7.53223,15.708A2.292,2.292,0,1,0,9.82422,18,2.29435,2.29435,0,0,0,7.53223,15.708Zm0,3.834A1.542,1.542,0,1,1,9.07422,18,1.54353,1.54353,0,0,1,7.53223,19.542Z" fill="#171717"/><path d="M16.46777,8.292a2.29175,2.29175,0,1,0-2.292-2.2915A2.29393,2.29393,0,0,0,16.46777,8.292Zm0-3.83349a1.54175,1.54175,0,1,1-1.542,1.542A1.54353,1.54353,0,0,1,16.46777,4.4585Z" fill="#171717"/><path d="M16.46777,9.7085A2.29175,2.29175,0,1,0,18.75928,12,2.29434,2.29434,0,0,0,16.46777,9.7085Zm0,3.83349A1.54175,1.54175,0,1,1,18.00928,12,1.54394,1.54394,0,0,1,16.46777,13.542Z" fill="#171717"/><path d="M16.46777,15.708A2.292,2.292,0,1,0,18.75928,18,2.29476,2.29476,0,0,0,16.46777,15.708Zm0,3.834A1.542,1.542,0,1,1,18.00928,18,1.54394,1.54394,0,0,1,16.46777,19.542Z" fill="#171717"/></svg>