<?xml version="1.0" encoding="UTF-8"?><svg id="a" xmlns="http://www.w3.org/2000/svg" viewBox="0 0 24 24"><path d="M7.4209,1.24992c-1.74854,0-3.1709,1.42285-3.1709,3.1709,0,1.74902,1.42236,3.17188,3.1709,3.17188s3.17139-1.42285,3.17139-3.17188c0-1.74805-1.42285-3.1709-3.17139-3.1709ZM7.4209,6.09269c-.92139,0-1.6709-.75-1.6709-1.67188,0-.9209.74951-1.6709,1.6709-1.6709s1.67139.75,1.67139,1.6709c0,.92188-.75,1.67188-1.67139,1.67188ZM7.4209,8.82902c-1.74854,0-3.1709,1.42285-3.1709,3.1709s1.42236,3.1709,3.1709,3.1709,3.17139-1.42285,3.17139-3.1709-1.42285-3.1709-3.17139-3.1709ZM7.4209,13.67082c-.92139,0-1.6709-.75-1.6709-1.6709s.74951-1.6709,1.6709-1.6709,1.67139.75,1.67139,1.6709-.75,1.6709-1.67139,1.6709ZM7.4209,16.40812c-1.74854,0-3.1709,1.42285-3.1709,3.1709s1.42236,3.1709,3.1709,3.1709,3.17139-1.42285,3.17139-3.1709-1.42285-3.1709-3.17139-3.1709ZM7.4209,21.24992c-.92139,0-1.6709-.75-1.6709-1.6709s.74951-1.6709,1.6709-1.6709,1.67139.75,1.67139,1.6709-.75,1.6709-1.67139,1.6709ZM16.57861,7.59269c1.74854,0,3.17139-1.42285,3.17139-3.17188,0-1.74805-1.42285-3.1709-3.17139-3.1709s-3.1709,1.42285-3.1709,3.1709c0,1.74902,1.42236,3.17188,3.1709,3.17188ZM16.57861,2.74992c.92139,0,1.67139.75,1.67139,1.6709,0,.92188-.75,1.67188-1.67139,1.67188s-1.6709-.75-1.6709-1.67188c0-.9209.74951-1.6709,1.6709-1.6709ZM16.57861,8.82902c-1.74854,0-3.1709,1.42285-3.1709,3.1709s1.42236,3.1709,3.1709,3.1709,3.17139-1.42285,3.17139-3.1709-1.42285-3.1709-3.17139-3.1709ZM16.57861,13.67082c-.92139,0-1.6709-.75-1.6709-1.6709s.74951-1.6709,1.6709-1.6709,1.67139.75,1.67139,1.6709-.75,1.6709-1.67139,1.6709ZM16.57861,16.40812c-1.74854,0-3.1709,1.42285-3.1709,3.1709s1.42236,3.1709,3.1709,3.1709,3.17139-1.42285,3.17139-3.1709-1.42285-3.1709-3.17139-3.1709ZM16.57861,21.24992c-.92139,0-1.6709-.75-1.6709-1.6709s.74951-1.6709,1.6709-1.6709,1.67139.75,1.67139,1.6709-.75,1.6709-1.67139,1.6709Z"/></svg>