<?xml version="1.0" encoding="UTF-8"?><svg id="a" xmlns="http://www.w3.org/2000/svg" viewBox="0 0 24 24"><path d="M6.42139,1.25025c-1.74854,0-3.17139,1.42285-3.17139,3.1709s1.42285,3.1709,3.17139,3.1709,3.1709-1.42285,3.1709-3.1709-1.42236-3.1709-3.1709-3.1709ZM6.42139,6.09204c-.92139,0-1.67139-.75-1.67139-1.6709s.75-1.6709,1.67139-1.6709,1.6709.75,1.6709,1.6709-.74951,1.6709-1.6709,1.6709ZM6.42139,8.82935c-1.74854,0-3.17139,1.42285-3.17139,3.1709s1.42285,3.1709,3.17139,3.1709,3.1709-1.42285,3.1709-3.1709-1.42236-3.1709-3.1709-3.1709ZM6.42139,13.67114c-.92139,0-1.67139-.75-1.67139-1.6709s.75-1.6709,1.67139-1.6709,1.6709.75,1.6709,1.6709-.74951,1.6709-1.6709,1.6709ZM6.42139,16.40747c-1.74854,0-3.17139,1.42285-3.17139,3.17188,0,1.74805,1.42285,3.1709,3.17139,3.1709s3.1709-1.42285,3.1709-3.1709c0-1.74902-1.42236-3.17188-3.1709-3.17188ZM6.42139,21.25025c-.92139,0-1.67139-.75-1.67139-1.6709,0-.92188.75-1.67188,1.67139-1.67188s1.6709.75,1.6709,1.67188c0,.9209-.74951,1.6709-1.6709,1.6709ZM17.57861,7.59204c1.74854,0,3.17139-1.42285,3.17139-3.1709s-1.42285-3.1709-3.17139-3.1709-3.1709,1.42285-3.1709,3.1709,1.42236,3.1709,3.1709,3.1709ZM17.57861,2.75025c.92139,0,1.67139.75,1.67139,1.6709s-.75,1.6709-1.67139,1.6709-1.6709-.75-1.6709-1.6709.74951-1.6709,1.6709-1.6709ZM17.57861,8.82935c-1.74854,0-3.1709,1.42285-3.1709,3.1709s1.42236,3.1709,3.1709,3.1709,3.17139-1.42285,3.17139-3.1709-1.42285-3.1709-3.17139-3.1709ZM17.57861,13.67114c-.92139,0-1.6709-.75-1.6709-1.6709s.74951-1.6709,1.6709-1.6709,1.67139.75,1.67139,1.6709-.75,1.6709-1.67139,1.6709ZM17.57861,16.40747c-1.74854,0-3.1709,1.42285-3.1709,3.17188,0,1.74805,1.42236,3.1709,3.1709,3.1709s3.17139-1.42285,3.17139-3.1709c0-1.74902-1.42285-3.17188-3.17139-3.17188ZM17.57861,21.25025c-.92139,0-1.6709-.75-1.6709-1.6709,0-.92188.74951-1.67188,1.6709-1.67188s1.67139.75,1.67139,1.67188c0,.9209-.75,1.6709-1.67139,1.6709Z"/></svg>