<svg xmlns="http://www.w3.org/2000/svg" viewBox="0 0 24.75 24.75"><defs><style>.cls-1{fill:none;stroke:#171717;stroke-miterlimit:10;stroke-width:0.75px;}</style></defs><title>Dragindicator</title><g id="Ebene_2" data-name="Ebene 2"><g id="Ebene_1-2" data-name="Ebene 1"><path d="M7.92806,4.0835a2.29175,2.29175,0,1,0,2.292,2.292A2.29434,2.29434,0,0,0,7.92806,4.0835Zm0,3.83349a1.54175,1.54175,0,1,1,1.542-1.5415A1.5431,1.5431,0,0,1,7.92806,7.917Z"/><path d="M7.92806,10.0835a2.29175,2.29175,0,1,0,2.292,2.2915A2.29392,2.29392,0,0,0,7.92806,10.0835Zm0,3.83349a1.54175,1.54175,0,1,1,1.542-1.542A1.54352,1.54352,0,0,1,7.92806,13.917Z"/><path d="M7.92806,16.083a2.292,2.292,0,1,0,2.292,2.292A2.29434,2.29434,0,0,0,7.92806,16.083Zm0,3.834a1.542,1.542,0,1,1,1.542-1.542A1.54352,1.54352,0,0,1,7.92806,19.917Z"/><path d="M16.86361,8.667a2.29175,2.29175,0,1,0-2.292-2.2915A2.29392,2.29392,0,0,0,16.86361,8.667Zm0-3.83349a1.54175,1.54175,0,1,1-1.542,1.542A1.54352,1.54352,0,0,1,16.86361,4.8335Z"/><path d="M16.86361,10.0835a2.29175,2.29175,0,1,0,2.2915,2.2915A2.29435,2.29435,0,0,0,16.86361,10.0835Zm0,3.83349a1.54175,1.54175,0,1,1,1.5415-1.542A1.54395,1.54395,0,0,1,16.86361,13.917Z"/><path d="M16.86361,16.083a2.292,2.292,0,1,0,2.2915,2.292A2.29476,2.29476,0,0,0,16.86361,16.083Zm0,3.834a1.542,1.542,0,1,1,1.5415-1.542A1.54395,1.54395,0,0,1,16.86361,19.917Z"/><rect class="cls-1" x="0.375" y="0.375" width="24" height="24"/></g></g></svg>
