<svg xmlns="http://www.w3.org/2000/svg" viewBox="0 0 13.51855 16.5835"><title>DragIndicator</title>
	<path
		d="M2.2915,0a2.29175,2.29175,0,1,0,2.292,2.292A2.29434,2.29434,0,0,0,2.2915,0Zm0,3.8335A1.54175,1.54175,0,1,1,3.8335,2.292,1.54311,1.54311,0,0,1,2.2915,3.8335Z"
		fill="#171717"/>
	<path
		d="M2.2915,6a2.29175,2.29175,0,1,0,2.292,2.2915A2.29392,2.29392,0,0,0,2.2915,6Zm0,3.8335a1.54175,1.54175,0,1,1,1.542-1.542A1.54353,1.54353,0,0,1,2.2915,9.8335Z"
		fill="#171717"/>
	<path
		d="M2.2915,11.99951a2.292,2.292,0,1,0,2.292,2.292A2.29434,2.29434,0,0,0,2.2915,11.99951Zm0,3.834a1.542,1.542,0,1,1,1.542-1.542A1.54353,1.54353,0,0,1,2.2915,15.8335Z"
		fill="#171717"/>
	<path
		d="M11.22705,4.5835A2.29175,2.29175,0,1,0,8.93506,2.292,2.29393,2.29393,0,0,0,11.22705,4.5835Zm0-3.8335a1.54175,1.54175,0,1,1-1.542,1.542A1.54352,1.54352,0,0,1,11.22705.75Z"
		fill="#171717"/>
	<path
		d="M11.22705,6a2.29175,2.29175,0,1,0,2.2915,2.2915A2.29434,2.29434,0,0,0,11.22705,6Zm0,3.8335a1.54175,1.54175,0,1,1,1.5415-1.542A1.54395,1.54395,0,0,1,11.22705,9.8335Z"
		fill="#171717"/>
	<path
		d="M11.22705,11.99951a2.292,2.292,0,1,0,2.2915,2.292A2.29476,2.29476,0,0,0,11.22705,11.99951Zm0,3.834a1.542,1.542,0,1,1,1.5415-1.542A1.54395,1.54395,0,0,1,11.22705,15.8335Z"
		fill="#171717"/>
</svg>
