<?xml version="1.0" encoding="UTF-8"?><svg id="a" xmlns="http://www.w3.org/2000/svg" viewBox="0 0 24 24"><path d="M19.16559,17.04118c.01532-.13135.01849-.26392-.00006-.39478v-.00391c-.03516-.24121-.12012-.47656-.24121-.68457.05115-.13501.08167-.27612.10236-.41846.04358-.30054.02313-.60864-.08087-.89014-.20117-.55078-.66992-.92578-1.25195-1.00391-.04395-.00684-.09082-.01074-.13086-.00586l-1.17871.04883c.02051-.33594.03906-.6748.01562-.94043-.08887-1.40332-.78809-2.36133-1.9209-2.57031-.31152-.03418-.61719.06445-.84766.2832-.27344.26172-.41992.67773-.3916,1.09277l.02734.68359c0,.0459-.02246.15137-.0459.20117l-.39062.77417-.77441,1.53442c-.05762.03125-.15723.06445-.20508.06641h-3.36816c-.67218,0-1.19806.41528-1.44885,1.10327-.01593.0437-.04144.07739-.05505.12329-.12646.43774-.17773.8501-.18768,1.35815-.00104.05298-.00861.09424-.00861.14966,0,.58105.10645,1.4873.31445,2.11133.22363.62109.83398.97754,1.67285.97754h2.5332c.28418,0,.53125.04102.69922.09668,0,0,.78906.39062.94727.46582.42871.21289.87793.41016,1.2627.41016l2.20312-.00391c.52734-.05566.98438-.37109,1.25488-.86523.13477-.24805.21094-.52148.22754-.79492.25781-.14746.47852-.37012.63965-.65625.22949-.4082.30273-.88086.22461-1.31152.22168-.26538.36389-.59668.40338-.93628ZM17.55713,17.0634c-.20215.09375-.35254.27344-.40918.48926s-.01367.44629.11621.62695c.03418.04883.04785.22852-.03516.37598-.05469.09668-.09277.09082-.12109.09277-.2666-.00781-.52832.10645-.67969.33105-.14941.22461-.16699.5127-.0459.75391.03027.06055.02734.18359-.0293.28809-.02148.04004-.05957.08789-.01758.08789l-2.09961.00098c-.04395-.00586-.19141-.04199-.70215-.29492-.10938-.05078-.86523-.42578-.94336-.45898-.40918-.14844-.83008-.21973-1.28711-.21973h-2.5332c-.09766,0-.1709-.00977-.21484-.00977-.0332,0-.04883.00586-.0459.02539-.12695-.39258-.22656-1.09277-.22656-1.60449,0-.44824.03711-.74414.13672-1.08789.0293-.09961.06152-.14648.06348-.14648h3.36816c.45801,0,1.22852-.25488,1.50781-.81738l1.19238-2.36426c.14941-.27637.21582-.64844.21484-.92383l-.00195-.05664c.0918.2334.12695.50293.14062.70801.0166.19824-.00391.52539-.02441.8418-.01758.26855-.03418.53809-.03418.77148,0,.2041.08301.40039.23047.54102.14844.14258.34473.2168.55078.20801l1.89941-.0791c.04004.05078.04883.26074-.07031.39258-.14062.15625-.19727.37305-.17773.58203s.1377.40918.30469.53613c.03027.02246.08398.11523.09766.20312.00684.05566-.06836.18066-.12402.20703ZM20.74756,3.38566v13.33594l-1.0824.21875c.00348-.10107.01318-.20605.00201-.29956v-.00391l-.00525-.03979c-.03271-.22461-.10022-.44922-.19775-.66016.02386-.09277.04333-.19189.0589-.29883.05774-.39795.02081-.79053-.10663-1.1355-.04272-.11694-.10864-.21729-.16888-.32153V5.21769l-6.41699,1.29346v4.39209c-.06824.22607-.10474.46582-.08801.71094l.02655.66968-.3833.72998-.66693,1.32153-.38666.00464h-.00165v-7.82642l-6.57812-1.29883v10.24023l1.79395.36304c-.0163.03369-.03333.06665-.0451.10645-.125.43237-.18225.85571-.19977,1.37451l-3.04907-.61743V3.38859l8.82617,1.74414,8.66895-1.74707Z"/></svg>