<?xml version="1.0" encoding="UTF-8"?><svg id="a" xmlns="http://www.w3.org/2000/svg" viewBox="0 0 24 24"><path d="M11.27414,14.74935l-.11035-8.84277h1.64453l-.11816,8.84277h-1.41602ZM12.02902,16.54329c-.30566,0-.53613.08691-.69141.26074-.15527.1748-.23242.38965-.23242.64648s.07715.46875.23242.6377c.15527.16797.38574.25195.69141.25195.30469,0,.53613-.08398.69434-.25195.1582-.16895.2373-.38086.2373-.6377s-.0791-.47168-.2373-.64648c-.1582-.17383-.38965-.26074-.69434-.26074ZM22.74973,12.00033c0,5.92676-4.82227,10.74902-10.75,10.74902-5.92676,0-10.74902-4.82227-10.74902-10.74902C1.2507,6.07259,6.07297,1.25033,11.99973,1.25033c5.92773,0,10.75,4.82227,10.75,10.75ZM21.24973,12.00033c0-5.10059-4.14941-9.25-9.25-9.25C6.90012,2.75033,2.7507,6.89974,2.7507,12.00033c0,5.09961,4.14941,9.24902,9.24902,9.24902,5.10059,0,9.25-4.14941,9.25-9.24902Z"/></svg>