<?xml version="1.0" encoding="UTF-8"?><svg id="a" xmlns="http://www.w3.org/2000/svg" viewBox="0 0 24 24"><path d="M12.00007,1.24987C6.07234,1.24987,1.25007,6.07214,1.25007,11.99987s4.82227,10.75,10.75,10.75,10.75-4.82227,10.75-10.75S17.92781,1.24987,12.00007,1.24987ZM12.00007,21.24987c-5.10059,0-9.25-4.14941-9.25-9.25S6.89949,2.74987,12.00007,2.74987s9.25,4.14941,9.25,9.25-4.14941,9.25-9.25,9.25ZM12.75007,5.60241h-1.5v8.7998h1.5V5.60241ZM12.00007,16.43054c-.60754,0-1.1001.49219-1.1001,1.09961,0,.6084.49255,1.10059,1.1001,1.10059.60742,0,1.09985-.49219,1.09985-1.10059,0-.60742-.49243-1.09961-1.09985-1.09961Z"/></svg>