<svg xmlns="http://www.w3.org/2000/svg" viewBox="0 0 24 24"><title>Eye</title><path d="M8.82861,12.00025A3.17139,3.17139,0,1,0,12,8.82935,3.17509,3.17509,0,0,0,8.82861,12.00025Zm4.84278,0A1.67139,1.67139,0,1,1,12,10.32935,1.67346,1.67346,0,0,1,13.67139,12.00025Z" fill="#171717"/><path d="M22.68555,11.801A11.55468,11.55468,0,0,0,12,5.14478,11.55468,11.55468,0,0,0,1.31445,11.801l-.13427.30371.13427.30371A11.555,11.555,0,0,0,12,19.06568a11.555,11.555,0,0,0,10.68555-6.65723l.13427-.30371Zm-5.2251.30371a5.46612,5.46612,0,0,1-4.8,5.41675c-.22064.01342-.43689.04419-.66046.04419s-.43982-.03077-.66046-.04419A5.45594,5.45594,0,0,1,11.3399,6.68872c.22052-.01343.43665-.04394.6601-.04394s.43958.03051.6601.04394A5.46532,5.46532,0,0,1,17.46045,12.10474Zm-14.63281,0A9.41953,9.41953,0,0,1,6.10736,8.41748a6.90065,6.90065,0,0,0,.00012,7.375A9.424,9.424,0,0,1,2.82764,12.10474Zm15.06488,3.68774a6.90065,6.90065,0,0,0,.00012-7.375,9.41953,9.41953,0,0,1,3.27972,3.68726A9.424,9.424,0,0,1,17.89252,15.79248Z" fill="#171717"/></svg>