<svg xmlns="http://www.w3.org/2000/svg" viewBox="0 0 24.75 24.75"><defs><style>.cls-1{fill:none;stroke:#171717;stroke-miterlimit:10;stroke-width:0.75px;}.cls-2{fill:#171717;}</style></defs><title>Eye</title><g id="Ebene_2" data-name="Ebene 2"><g id="Ebene_1-2" data-name="Ebene 1"><rect class="cls-1" x="0.375" y="0.375" width="24" height="24"/><path class="cls-2" d="M12.375,10.00034a2.29175,2.29175,0,1,0,2.2915,2.2915A2.29434,2.29434,0,0,0,12.375,10.00034Zm0,3.83349a1.54175,1.54175,0,1,1,1.5415-1.542A1.54394,1.54394,0,0,1,12.375,13.83383Z"/><path class="cls-2" d="M20.05078,12.23325a8.26586,8.26586,0,0,0-7.67395-5.1499H12.375a8.26639,8.26639,0,0,0-7.67578,5.1499l-.05811.14209.05811.14209A8.26594,8.26594,0,0,0,12.375,17.66684h.00049l.00134-.00049a8.26572,8.26572,0,0,0,7.674-5.14892l.05811-.14209Zm-3.13379.14209a4.54585,4.54585,0,0,1-4.54022,4.541l-.00146.00049a4.54175,4.54175,0,1,1,0-9.08349h.00146A4.54668,4.54668,0,0,1,16.917,12.37534Zm-11.46386,0A7.523,7.523,0,0,1,8.31952,9.01743a5.17868,5.17868,0,0,0-.00006,6.71533A7.52157,7.52157,0,0,1,5.45313,12.37534Zm10.97869,3.35644a5.17911,5.17911,0,0,0-.00012-6.71386,7.52109,7.52109,0,0,1,2.86518,3.35742A7.51866,7.51866,0,0,1,16.43182,15.73178Z"/></g></g></svg>
