<svg xmlns="http://www.w3.org/2000/svg" viewBox="0 0 24 24"><title>Eye</title><path d="M12,9.7085A2.29175,2.29175,0,1,0,14.2915,12,2.29434,2.29434,0,0,0,12,9.7085ZM12,13.542A1.54175,1.54175,0,1,1,13.5415,12,1.54394,1.54394,0,0,1,12,13.542Z" fill="#171717"/><path d="M19.67578,11.94141a8.26586,8.26586,0,0,0-7.67395-5.1499H12a8.26639,8.26639,0,0,0-7.67578,5.1499l-.05811.14209.05811.14209A8.26594,8.26594,0,0,0,12,17.375h.00049l.00134-.00049a8.2657,8.2657,0,0,0,7.674-5.14892l.05811-.14209ZM16.542,12.0835a4.54585,4.54585,0,0,1-4.54022,4.541l-.00146.00049a4.54175,4.54175,0,1,1,0-9.08349h.00146A4.54668,4.54668,0,0,1,16.542,12.0835Zm-11.46386,0A7.523,7.523,0,0,1,7.94452,8.72559a5.17868,5.17868,0,0,0-.00006,6.71533A7.52157,7.52157,0,0,1,5.07813,12.0835Zm10.97869,3.35644a5.17911,5.17911,0,0,0-.00012-6.71386,7.52109,7.52109,0,0,1,2.86518,3.35742A7.51866,7.51866,0,0,1,16.05682,15.43994Z" fill="#171717"/></svg>