<?xml version="1.0" encoding="UTF-8"?><svg id="a" xmlns="http://www.w3.org/2000/svg" viewBox="0 0 24 24"><path d="M8.82861,12.00025c0,1.74805,1.42285,3.1709,3.17139,3.1709s3.17139-1.42285,3.17139-3.1709-1.42285-3.1709-3.17139-3.1709-3.17139,1.42285-3.17139,3.1709ZM13.67139,12.00025c0,.9209-.75,1.6709-1.67139,1.6709s-1.67139-.75-1.67139-1.6709.75-1.6709,1.67139-1.6709,1.67139.75,1.67139,1.6709ZM22.68555,11.80103c-1.79004-4.04395-5.98438-6.65625-10.68555-6.65625S3.10449,7.75708,1.31445,11.80103l-.13428.30371.13428.30371c1.79004,4.04395,5.98389,6.65723,10.68555,6.65723s8.89551-2.61328,10.68555-6.65723l.13428-.30371-.13428-.30371ZM17.46045,12.10474c0,2.78687-2.10016,5.08911-4.79999,5.41675-.22064.01343-.43689.04419-.66046.04419s-.43982-.03076-.66046-.04419c-2.69983-.32764-4.79999-2.62988-4.79999-5.41675s2.10028-5.08862,4.80035-5.41602c.22052-.01343.43665-.04395.6601-.04395s.43958.03052.6601.04395c2.70007.32739,4.80035,2.62915,4.80035,5.41602ZM2.82764,12.10474c.73621-1.5105,1.88586-2.75708,3.27972-3.68726-.67249,1.07056-1.06781,2.33228-1.06781,3.68726s.39539,2.6167,1.06793,3.68774c-1.39392-.93066-2.54364-2.17725-3.27985-3.68774ZM17.89252,15.79248c.67255-1.07104,1.06793-2.33276,1.06793-3.68774s-.39532-2.6167-1.06781-3.68726c1.39386.93018,2.54352,2.17676,3.27972,3.68726-.73621,1.5105-1.88593,2.75708-3.27985,3.68774Z"/></svg>