<svg xmlns="http://www.w3.org/2000/svg" viewBox="0 0 15.46777 10.5835"><title>Eye</title>
	<path
		d="M7.73389,2.917a2.29175,2.29175,0,1,0,2.2915,2.29151A2.29435,2.29435,0,0,0,7.73389,2.917Zm0,3.8335a1.54175,1.54175,0,1,1,1.5415-1.542A1.544,1.544,0,0,1,7.73389,6.75049Z"
		fill="#171717"/>
	<path
		d="M15.40967,5.1499A8.26588,8.26588,0,0,0,7.73572,0H7.73389A8.26638,8.26638,0,0,0,.05811,5.1499L0,5.292l.05811.14209A8.26594,8.26594,0,0,0,7.73389,10.5835h.00049l.00134-.00049a8.26574,8.26574,0,0,0,7.674-5.14893l.0581-.14209ZM12.27588,5.292A4.54586,4.54586,0,0,1,7.73566,9.833l-.00147.00049a4.54175,4.54175,0,1,1,0-9.0835h.00147A4.5467,4.5467,0,0,1,12.27588,5.292ZM.812,5.292a7.523,7.523,0,0,1,2.8664-3.35791,5.17866,5.17866,0,0,0-.00007,6.71533A7.52163,7.52163,0,0,1,.812,5.292Zm10.9787,3.35645a5.17912,5.17912,0,0,0-.00012-6.71387A7.52107,7.52107,0,0,1,14.65576,5.292,7.51871,7.51871,0,0,1,11.79071,8.64844Z"
		fill="#171717"/>
</svg>
