<svg xmlns="http://www.w3.org/2000/svg" viewBox="0 0 14.68545 14.7327"><title>Eyedropper</title>
	<path
		d="M13.95677.72868a2.495,2.495,0,0,0-3.52424,0l-2.086,2.086-.83832-.83832L5.426,4.0586,6.63276,5.26538l-5.297,5.29749L0,13.68414,1.04823,14.7327l2.95011-1.29809L9.42007,8.05269l1.16377,1.16378L12.6661,7.13421l-.79531-.79532,2.086-2.086A2.495,2.495,0,0,0,13.95677.72868ZM3.60015,12.71893.75709,13.96977l1.21208-2.88713L7.20933,5.842,8.8435,7.47612Zm6.98369-4.65562L6.57913,4.0586l.92911-.92911L11.513,7.13421Zm2.79635-4.387-2.086,2.086L8.92313,3.39124l2.086-2.086a1.67661,1.67661,0,0,1,2.37108,2.37108Z"
		fill="#171717"/>
</svg>
