<svg xmlns="http://www.w3.org/2000/svg" viewBox="0 0 24 24"><title>Eyedropper</title><path d="M18.80623,5.20419a2.49493,2.49493,0,0,0-3.52423,0l-2.086,2.086-.83832-.83831L10.27544,8.53411l1.20678,1.20677-5.297,5.2975L4.84946,18.15964l1.04823,1.04857,2.95011-1.2981,5.42174-5.38191L15.43331,13.692l2.08226-2.08226-.79532-.79531,2.086-2.086A2.49493,2.49493,0,0,0,18.80623,5.20419ZM8.44962,17.19443,5.60655,18.44528l1.21209-2.88713,5.24015-5.24069L13.693,11.95162Zm6.98369-4.65561L11.42859,8.53411,12.3577,7.605l4.00471,4.00471Zm2.79634-4.387-2.086,2.086L13.7726,7.86674l2.086-2.086a1.6766,1.6766,0,0,1,2.37108,2.37107Z" fill="#171717"/></svg>