<svg xmlns="http://www.w3.org/2000/svg" viewBox="0 0 24 24"><title>Eyedropper</title><path d="M21.75,5.66528a3.38821,3.38821,0,0,0-1.00391-2.416,3.43454,3.43454,0,0,0-4.84033,0l-2.51715,2.509L12.34082,4.71411,9.34668,7.69849l1.52069,1.51562L4.12988,15.92993,2.11279,20.718l1.17676,1.1748L8.02979,19.8147l6.73638-6.7146,1.52045,1.51538,2.99463-2.98437-1.04846-1.04493,2.5133-2.50488A3.38821,3.38821,0,0,0,21.75,5.66528ZM7.17041,18.553,4.082,19.90747l1.31543-3.124,6.53223-6.5105L13.70386,12.041Zm9.11621-6.05469-4.81494-4.7998.86914-.86719,4.81543,4.79981ZM19.6875,7.0188,17.17041,9.52735,14.45093,6.81714l2.51343-2.50537a1.9327,1.9327,0,0,1,2.72314,0,1.9097,1.9097,0,0,1,0,2.707Z" fill="#171717"/></svg>