<svg xmlns="http://www.w3.org/2000/svg" viewBox="0 0 24.75 24.75"><defs><style>.cls-1{fill:none;stroke:#171717;stroke-miterlimit:10;stroke-width:0.75px;}.cls-2{fill:#171717;}</style></defs><title>Eyedropper</title><g id="Ebene_2" data-name="Ebene 2"><g id="Ebene_1-2" data-name="Ebene 1"><rect class="cls-1" x="0.375" y="0.375" width="24" height="24"/><path class="cls-2" d="M19.18123,5.577a2.49493,2.49493,0,0,0-3.52423,0l-2.086,2.086-.83832-.83832L10.65044,8.90687l1.20678,1.20678-5.297,5.2975L5.22446,18.53241,6.27269,19.581,9.2228,18.28288,14.64454,12.901l1.16377,1.16377,2.08226-2.08226-.79532-.79532,2.086-2.086A2.49493,2.49493,0,0,0,19.18123,5.577ZM8.82462,17.5672,5.98155,18.818l1.21209-2.88713,5.24015-5.24069L14.068,12.32439Zm6.98369-4.65562L11.80359,8.90687l.92911-.9291,4.00471,4.00471Zm2.79634-4.387-2.086,2.086L14.1476,8.23951l2.086-2.086a1.67661,1.67661,0,0,1,2.37108,2.37108Z"/></g></g></svg>
