<svg xmlns="http://www.w3.org/2000/svg" viewBox="0 0 15.46777 10.5835"><title>EyeSlash</title>
	<rect x="-0.1957" y="4.77603" width="15.89238" height="0.75018" transform="translate(-1.5407 4.62387) rotate(-30.36085)" fill="#171717"/>
	<path
		d="M5.44293,5.19873,6.283,4.70654A1.53977,1.53977,0,0,1,7.73389,3.667a1.556,1.556,0,0,1,.27581.02783L8.835,3.21143A2.26475,2.26475,0,0,0,7.73389,2.917,2.29377,2.29377,0,0,0,5.44293,5.19873Z"
		fill="#171717"/>
	<path
		d="M7.73389,6.75049a1.5277,1.5277,0,0,1-.39179-.05664l-.79492.46582a2.26989,2.26989,0,0,0,1.18671.34082,2.29434,2.29434,0,0,0,2.2915-2.292c0-.02784-.00726-.05371-.00824-.08155l-.79626.46631A1.54,1.54,0,0,1,7.73389,6.75049Z"
		fill="#171717"/>
	<path
		d="M15.40967,5.1499a8.29276,8.29276,0,0,0-1.458-2.32763l-.65973.38623A7.5472,7.5472,0,0,1,14.65576,5.292a7.52539,7.52539,0,0,1-2.813,3.33106A5.263,5.263,0,0,0,12.724,3.5415l-.67737.39649a4.48065,4.48065,0,0,1,.22925,1.354,4.54671,4.54671,0,0,1-4.54,4.54151H7.73438A4.51907,4.51907,0,0,1,4.43658,8.396l-1.3338.78125A8.28345,8.28345,0,0,0,7.73389,10.5835h.00195a8.26626,8.26626,0,0,0,7.67383-5.14942l.0581-.14209Z"
		fill="#171717"/>
	<path
		d="M2.0116,7.2085A7.55928,7.55928,0,0,1,.812,5.292,7.53054,7.53054,0,0,1,3.626,1.96a5.17493,5.17493,0,0,0-.94269,4.855l.669-.3916A4.48826,4.48826,0,0,1,3.19238,5.292,4.54723,4.54723,0,0,1,7.73438.75h.00146A4.51942,4.51942,0,0,1,10.869,2.02l1.26941-.74365A8.27336,8.27336,0,0,0,7.73584,0H7.73389A8.26638,8.26638,0,0,0,.05811,5.1499L0,5.292l.05811.14209A8.32687,8.32687,0,0,0,1.35553,7.59277Z"
		fill="#171717"/>
</svg>
