<?xml version="1.0" encoding="UTF-8"?><svg id="a" xmlns="http://www.w3.org/2000/svg" viewBox="0 0 24 24"><path d="M12,8.82935c.28143,0,.5495.04858.80951.11792l-3.85797,2.22729c.36621-1.34644,1.5874-2.34521,3.04846-2.34521ZM15.03931,12.85523l-3.82166,2.20654c.25165.06445.51086.10938.78235.10938,1.45026,0,2.66315-.98462,3.03931-2.31592ZM4.08063,13.98682c-.48914-.57227-.91858-1.19604-1.25299-1.88208.73621-1.5105,1.88586-2.75708,3.27972-3.68726-.67249,1.07056-1.06781,2.33228-1.06781,3.68726,0,.42993.05286.84595.12872,1.25415l1.41235-.81543c-.0119-.14697-.04108-.28882-.04108-.43872,0-2.78687,2.10028-5.08862,4.80035-5.41602.22052-.01343.43665-.04395.6601-.04395s.43958.03052.6601.04395c.89795.10889,1.7182.4519,2.42828.94263l2.22327-1.28345c-1.60645-.77222-3.41595-1.20312-5.31165-1.20312-4.70117,0-8.89551,2.6123-10.68555,6.65625l-.13428.30371.13428.30371c.37653.85059.86475,1.6333,1.43628,2.34619l1.3299-.76782ZM22.68555,11.80103c-.3988-.90088-.92267-1.72583-1.53912-2.47168l-1.32672.76587c.53473.60425.99432,1.27441,1.35266,2.00952-.73621,1.5105-1.88593,2.75708-3.27985,3.68774.67255-1.07104,1.06793-2.33276,1.06793-3.68774,0-.48828-.06763-.95874-.16479-1.41821l-1.39276.8042c.02319.20361.05756.4043.05756.61401,0,2.78687-2.10016,5.08911-4.79999,5.41675-.22064.01343-.43689.04419-.66046.04419s-.43982-.03076-.66046-.04419c-.96027-.11646-1.83801-.49194-2.57904-1.04102l-2.24689,1.29736c1.64899.82617,3.52173,1.28784,5.48639,1.28784,4.70166,0,8.89551-2.61328,10.68555-6.65723l.13428-.30371-.13428-.30371ZM21.62451,5.58911L1.62549,17.13599l.75,1.29883L22.37451,6.88794l-.75-1.29883Z"/></svg>