<svg xmlns="http://www.w3.org/2000/svg" viewBox="0 0 24 24"><title>EyeSlash</title><rect x="4.07041" y="11.56705" width="15.89238" height="0.75018" transform="translate(-4.38812 7.71148) rotate(-30.36085)" fill="#171717"/><path d="M9.70905,11.98975l.84008-.49219A1.53978,1.53978,0,0,1,12,10.458a1.55606,1.55606,0,0,1,.27582.02783l.82532-.4834A2.26478,2.26478,0,0,0,12,9.708,2.29376,2.29376,0,0,0,9.70905,11.98975Z" fill="#171717"/><path d="M12,13.54151a1.52756,1.52756,0,0,1-.39178-.05664l-.79493.46582A2.26989,2.26989,0,0,0,12,14.29151a2.29435,2.29435,0,0,0,2.2915-2.292c0-.02783-.00726-.05371-.00824-.08154l-.79626.46631A1.54,1.54,0,0,1,12,13.54151Z" fill="#171717"/><path d="M19.67578,11.94092a8.29272,8.29272,0,0,0-1.458-2.32764l-.65973.38623a7.54765,7.54765,0,0,1,1.36384,2.0835,7.52544,7.52544,0,0,1-2.813,3.331,5.263,5.263,0,0,0,.88122-5.08154l-.67737.39649a4.48034,4.48034,0,0,1,.22925,1.354,4.5467,4.5467,0,0,1-4.54,4.5415h-.00146A4.519,4.519,0,0,1,8.7027,15.187l-1.3338.78125A8.28331,8.28331,0,0,0,12,17.37451h.002a8.26624,8.26624,0,0,0,7.67383-5.14941l.05811-.14209Z" fill="#171717"/><path d="M6.27771,13.99951A7.55964,7.55964,0,0,1,5.07813,12.083a7.53046,7.53046,0,0,1,2.814-3.332,5.175,5.175,0,0,0-.94269,4.855l.669-.3916A4.48781,4.48781,0,0,1,7.4585,12.083a4.54722,4.54722,0,0,1,4.542-4.542H12.002a4.51942,4.51942,0,0,1,3.13318,1.27l1.26941-.74366A8.27333,8.27333,0,0,0,12.002,6.791H12a8.26639,8.26639,0,0,0-7.67578,5.1499l-.05811.14209.05811.14209a8.327,8.327,0,0,0,1.29742,2.15869Z" fill="#171717"/></svg>