<svg xmlns="http://www.w3.org/2000/svg" viewBox="0 0 24.75 24.75"><defs><style>.cls-1{fill:none;stroke:#171717;stroke-miterlimit:10;stroke-width:0.75px;}.cls-2{fill:#171717;}</style></defs><title>EyeSlash</title><g id="Ebene_2" data-name="Ebene 2"><g id="Ebene_1-2" data-name="Ebene 1"><rect class="cls-1" x="0.375" y="0.375" width="24" height="24"/><rect class="cls-2" x="4.42873" y="11.94205" width="15.89238" height="0.75018" transform="translate(-4.52852 7.94401) rotate(-30.36085)"/><path class="cls-2" d="M10.06736,12.36475l.84009-.49219A1.53978,1.53978,0,0,1,12.35832,10.833a1.55616,1.55616,0,0,1,.27582.02783l.82531-.4834a2.26472,2.26472,0,0,0-1.10113-.29443A2.29377,2.29377,0,0,0,10.06736,12.36475Z"/><path class="cls-2" d="M12.35832,13.91651a1.5277,1.5277,0,0,1-.39179-.05664l-.79492.46582a2.26989,2.26989,0,0,0,1.18671.34082,2.29435,2.29435,0,0,0,2.2915-2.292c0-.02783-.00726-.05371-.00824-.08154l-.79626.46631A1.54,1.54,0,0,1,12.35832,13.91651Z"/><path class="cls-2" d="M20.0341,12.31592a8.293,8.293,0,0,0-1.458-2.32764l-.65973.38623a7.5474,7.5474,0,0,1,1.36383,2.0835,7.52531,7.52531,0,0,1-2.813,3.331,5.263,5.263,0,0,0,.88123-5.08154l-.67737.39649a4.48065,4.48065,0,0,1,.22925,1.354,4.5467,4.5467,0,0,1-4.54,4.5415h-.00146A4.519,4.519,0,0,1,9.061,15.562l-1.33381.78125a8.28337,8.28337,0,0,0,4.63111,1.40625h.00195A8.26624,8.26624,0,0,0,20.0341,12.6001l.0581-.14209Z"/><path class="cls-2" d="M6.636,14.37451A7.55967,7.55967,0,0,1,5.43644,12.458a7.53054,7.53054,0,0,1,2.814-3.332,5.17493,5.17493,0,0,0-.94269,4.855l.669-.3916A4.48782,4.48782,0,0,1,7.81681,12.458a4.54723,4.54723,0,0,1,4.542-4.542h.00146a4.51942,4.51942,0,0,1,3.13318,1.27l1.26941-.74366A8.27335,8.27335,0,0,0,12.36027,7.166h-.00195a8.26638,8.26638,0,0,0-7.67578,5.1499l-.05811.14209.05811.14209A8.327,8.327,0,0,0,5.98,14.75879Z"/></g></g></svg>
