<svg xmlns="http://www.w3.org/2000/svg" viewBox="0 0 24 24"><title>EyeSlash</title><path d="M8.95154,11.17456l3.858-2.22729A3.12413,3.12413,0,0,0,12,8.82935,3.16757,3.16757,0,0,0,8.95154,11.17456Z" fill="#171717"/><path d="M15.03931,12.85523l-3.82166,2.20654a3.10607,3.10607,0,0,0,3.82166-2.20654Z" fill="#171717"/><path d="M4.08063,13.98682a8.91865,8.91865,0,0,1-1.253-1.88208A9.41953,9.41953,0,0,1,6.10736,8.41748a6.90881,6.90881,0,0,0-1.06781,3.68726,6.83446,6.83446,0,0,0,.12872,1.25415l1.41236-.81543c-.0119-.147-.04108-.28882-.04108-.43872a5.46532,5.46532,0,0,1,4.80035-5.416c.22052-.01343.43665-.04394.6601-.04394s.43958.03051.6601.04394a5.41393,5.41393,0,0,1,2.42828.94263L17.31165,6.3479A12.25164,12.25164,0,0,0,12,5.14478,11.55468,11.55468,0,0,0,1.31445,11.801l-.13427.30371.13427.30371a10.6343,10.6343,0,0,0,1.43628,2.34619Z" fill="#171717"/><path d="M22.68555,11.801a10.64592,10.64592,0,0,0-1.53913-2.47168l-1.32672.76587a8.95548,8.95548,0,0,1,1.35266,2.00952,9.424,9.424,0,0,1-3.27984,3.68774,6.91127,6.91127,0,0,0,1.06793-3.68774,6.82357,6.82357,0,0,0-.1648-1.41821l-1.39276.80419a5.36081,5.36081,0,0,1,.05756.614,5.46612,5.46612,0,0,1-4.8,5.41675c-.22064.01342-.43689.04419-.66046.04419s-.43982-.03077-.66046-.04419a5.42577,5.42577,0,0,1-2.579-1.041L6.51361,17.77783A12.24,12.24,0,0,0,12,19.06568a11.555,11.555,0,0,0,10.68555-6.65723l.13427-.30371Z" fill="#171717"/><rect x="0.45345" y="11.26206" width="23.0931" height="1.49982" transform="translate(-4.39836 7.60956) rotate(-30.00093)" fill="#171717"/></svg>