<?xml version="1.0" encoding="UTF-8"?><svg id="a" xmlns="http://www.w3.org/2000/svg" viewBox="0 0 24 24"><path d="M14.32514,21.74972h-5.1001v-7.64941h-2.7002v-5.10059h2.7002v-1.76953c0-3.02539,1.93457-4.98047,4.92871-4.98047,1.16553,0,2.3125.08594,2.66797.13184l.65332.08496v4.43359h-2.1001c-1.0498,0-1.0498.13965-1.0498,1.0498v1.0498h3.36035l-1.2749,5.10059h-2.08545v7.64941ZM10.72504,20.24972h2.1001v-7.64941h2.41455l.5249-2.10059h-2.93945v-2.5498c0-.89062,0-2.5498,2.5498-2.5498h.6001v-1.58691c-.47021-.03223-1.12793-.06348-1.82129-.06348-2.14697,0-3.42871,1.30078-3.42871,3.48047v3.26953h-2.7002v2.10059h2.7002v7.64941Z"/></svg>