<svg xmlns="http://www.w3.org/2000/svg" viewBox="0 0 24 24"><title>Family</title><path d="M17.39209,10.36719H16.768a2.375,2.375,0,1,0-.96863,0h-.6236a2.128,2.128,0,0,0-1.40265.52978,1.88955,1.88955,0,0,0-2.81561.56641v-.32373a2.13576,2.13576,0,0,0-2.1333-2.1333H8.20013a2.375,2.375,0,1,0-.96862,0h-.6236a2.13587,2.13587,0,0,0-2.13379,2.1333v3.14209h.75V11.13965a1.385,1.385,0,0,1,1.38379-1.3833H8.82422a1.38494,1.38494,0,0,1,1.3833,1.3833v3.14209h.75v-.92529a1.91662,1.91662,0,0,0,.79871.75732,1.73033,1.73033,0,0,0-1.72644,1.72852v1.85107h.75V15.84229a.97984.97984,0,0,1,.979-.979h1.707a.97974.97974,0,0,1,.97852.979v1.85107h.75V15.84229a1.73023,1.73023,0,0,0-1.726-1.72852,1.885,1.885,0,0,0,.79859-2.65039,1.37791,1.37791,0,0,1,.90881-.34619h2.21631a1.38494,1.38494,0,0,1,1.3833,1.3833v3.1416h.75v-3.1416A2.13576,2.13576,0,0,0,17.39209,10.36719ZM14.65869,8.042a1.625,1.625,0,1,1,1.625,1.62549A1.62689,1.62689,0,0,1,14.65869,8.042ZM6.09082,6.68164a1.625,1.625,0,1,1,1.625,1.625A1.62688,1.62688,0,0,1,6.09082,6.68164Zm6.52148,6.89307a1.165,1.165,0,1,1,1.165-1.165A1.16613,1.16613,0,0,1,12.6123,13.57471Z" fill="#171717"/></svg>