<svg xmlns="http://www.w3.org/2000/svg" viewBox="0 0 24 24"><title>Family</title><path d="M18.77881,10.5979h-.85913a3.41505,3.41505,0,1,0-1.08155,0H15.979a2.95633,2.95633,0,0,0-1.48938.40869,2.69665,2.69665,0,0,0-3.53088.6637A2.96456,2.96456,0,0,0,8.021,9.02466H7.17151a3.41506,3.41506,0,1,0-1.10083,0H5.22119A2.97484,2.97484,0,0,0,2.25,11.99634V15.842h1.5v-3.8457a1.4732,1.4732,0,0,1,1.47119-1.47168H8.021a1.47278,1.47278,0,0,1,1.4707,1.47168V15.842h1.5v-.73767a2.75,2.75,0,0,0,.73572.62805,2.41218,2.41218,0,0,0-2.08875,2.38306v2.88379h1.5V18.11548a.91733.91733,0,0,1,.916-.916H14.1543a.91691.91691,0,0,1,.91552.916v2.88379h1.5V18.11548a2.41191,2.41191,0,0,0-2.08837-2.38306,2.70325,2.70325,0,0,0,1.08837-3.55713,1.4581,1.4581,0,0,1,.40918-.07739h2.79981A1.473,1.473,0,0,1,20.25,13.56861v3.84667h1.5V13.56861A2.97463,2.97463,0,0,0,18.77881,10.5979ZM15.46387,7.23755a1.915,1.915,0,1,1,1.915,1.915A1.91727,1.91727,0,0,1,15.46387,7.23755ZM4.70605,5.66528a1.915,1.915,0,1,1,1.915,1.915A1.91727,1.91727,0,0,1,4.70605,5.66528Zm8.39844,6.45313a1.249,1.249,0,1,1-1.249,1.249A1.25033,1.25033,0,0,1,13.10449,12.11841Z" fill="#171717"/></svg>