<?xml version="1.0" encoding="UTF-8"?><svg id="a" xmlns="http://www.w3.org/2000/svg" viewBox="0 0 24 24"><path d="M18.77881,10.5979h-.85913c1.62555-.26147,2.87427-1.66272,2.87427-3.36035,0-1.88281-1.53174-3.41504-3.41504-3.41504s-3.41504,1.53223-3.41504,3.41504c0,1.69763,1.24872,3.09888,2.87427,3.36035h-.85913c-.53015,0-1.03973.14697-1.48938.40869-.40833-.2406-.87787-.38818-1.38513-.38818-.87219,0-1.64172.41626-2.14575,1.05188-.16479-1.48376-1.41113-2.64563-2.93774-2.64563h-.84949c1.62085-.26538,2.86462-1.66504,2.86462-3.35938,0-1.88281-1.53174-3.41504-3.41504-3.41504s-3.41504,1.53223-3.41504,3.41504c0,1.69434,1.24377,3.09399,2.86462,3.35938h-.84949c-1.63818,0-2.97119,1.33301-2.97119,2.97168v3.8457h1.5v-3.8457c0-.81152.66016-1.47168,1.47119-1.47168h2.7998c.81104,0,1.4707.66016,1.4707,1.47168v3.8457h1.5v-.73767c.20673.25085.45361.46313.73572.62805-1.17633.16162-2.08875,1.16309-2.08875,2.38306v2.88379h1.5v-2.88379c0-.50488.41113-.91602.91602-.91602h2.09961c.50488,0,.91553.41113.91553.91602v2.88379h1.5v-2.88379c0-1.21997-.91211-2.22144-2.08838-2.38306.81604-.47729,1.37158-1.35339,1.37158-2.36499,0-.42896-.10736-.82996-.2832-1.19214.13318-.03894.26746-.07739.40918-.07739h2.7998c.81104,0,1.47119.66016,1.47119,1.4707v3.84668h1.5v-3.84668c0-1.6377-1.33301-2.9707-2.97119-2.9707ZM15.46387,7.23755c0-1.05566.85889-1.91504,1.91504-1.91504s1.91504.85938,1.91504,1.91504-.85889,1.91504-1.91504,1.91504-1.91504-.85938-1.91504-1.91504ZM4.70605,5.66528c0-1.05566.85889-1.91504,1.91504-1.91504s1.91504.85938,1.91504,1.91504-.85889,1.91504-1.91504,1.91504-1.91504-.85938-1.91504-1.91504ZM13.10449,12.11841c.68848,0,1.24854.56055,1.24854,1.24902s-.56006,1.24902-1.24854,1.24902-1.24902-.56055-1.24902-1.24902.56055-1.24902,1.24902-1.24902Z"/></svg>