<svg xmlns="http://www.w3.org/2000/svg" viewBox="0 0 24.75 24.75"><defs><style>.cls-1{fill:none;stroke:#171717;stroke-miterlimit:10;stroke-width:0.75px;}</style></defs><title>Family</title><g id="Ebene_2" data-name="Ebene 2"><g id="Ebene_1-2" data-name="Ebene 1"><rect class="cls-1" x="0.375" y="0.375" width="24" height="24"/><path d="M17.73992,10.76246h-.62408a2.375,2.375,0,1,0-.96863,0h-.6236a2.12794,2.12794,0,0,0-1.40264.52978,1.88956,1.88956,0,0,0-2.81562.56641v-.32373a2.13576,2.13576,0,0,0-2.1333-2.1333H8.548a2.375,2.375,0,1,0-.96863,0h-.6236A2.13587,2.13587,0,0,0,4.822,11.53492V14.677h.75V11.53492a1.385,1.385,0,0,1,1.38379-1.3833H9.17205a1.38494,1.38494,0,0,1,1.3833,1.3833V14.677h.75v-.92529a1.91668,1.91668,0,0,0,.79871.75732,1.73032,1.73032,0,0,0-1.72644,1.72852v1.85107h.75V16.23756a.97984.97984,0,0,1,.979-.979h1.707a.97974.97974,0,0,1,.97852.979v1.85107h.75V16.23756a1.73022,1.73022,0,0,0-1.726-1.72852,1.885,1.885,0,0,0,.79858-2.65039,1.37793,1.37793,0,0,1,.90881-.34619h2.21631a1.38494,1.38494,0,0,1,1.3833,1.3833v3.1416h.75v-3.1416A2.13576,2.13576,0,0,0,17.73992,10.76246Zm-2.7334-2.3252a1.625,1.625,0,1,1,1.625,1.62549A1.62689,1.62689,0,0,1,15.00652,8.43726ZM6.43865,7.07691a1.625,1.625,0,1,1,1.625,1.625A1.62688,1.62688,0,0,1,6.43865,7.07691ZM12.96014,13.97a1.165,1.165,0,1,1,1.165-1.165A1.16613,1.16613,0,0,1,12.96014,13.97Z"/></g></g></svg>
