<svg xmlns="http://www.w3.org/2000/svg" viewBox="0 0 15.05127 13.38672"><title>Family</title>
	<path
		d="M12.918,6.06055h-.62409a2.375,2.375,0,1,0-.96862,0h-.6236A2.128,2.128,0,0,0,9.299,6.59033a1.88955,1.88955,0,0,0-2.81561.56641V6.833a2.13576,2.13576,0,0,0-2.1333-2.1333H3.726a2.375,2.375,0,1,0-.96862,0h-.6236A2.13587,2.13587,0,0,0,0,6.833V9.9751H.75V6.833a1.385,1.385,0,0,1,1.38379-1.3833H4.3501A1.38494,1.38494,0,0,1,5.7334,6.833V9.9751h.75V9.0498a1.91655,1.91655,0,0,0,.7987.75733,1.73032,1.73032,0,0,0-1.72644,1.72851v1.85108h.75V11.53564a.97984.97984,0,0,1,.979-.979h1.707a.97973.97973,0,0,1,.97851.979v1.85108h.75V11.53564A1.73021,1.73021,0,0,0,8.99426,9.80713a1.885,1.885,0,0,0,.79859-2.65039,1.37791,1.37791,0,0,1,.90881-.34619H12.918a1.38494,1.38494,0,0,1,1.3833,1.3833v3.1416h.75V8.19385A2.13576,2.13576,0,0,0,12.918,6.06055Zm-2.7334-2.3252a1.625,1.625,0,1,1,1.625,1.62549A1.62688,1.62688,0,0,1,10.18457,3.73535ZM1.6167,2.375A1.625,1.625,0,1,1,3.2417,4,1.62688,1.62688,0,0,1,1.6167,2.375ZM8.13818,9.26807a1.165,1.165,0,1,1,1.165-1.165A1.16614,1.16614,0,0,1,8.13818,9.26807Z"
		fill="#171717"/>
</svg>
