<svg xmlns="http://www.w3.org/2000/svg" viewBox="0 0 24 24"><title>Fax</title><path d="M19.165,10.63233V4.47412H9.63672v6.15821H8.10938V8.22705H4.47461V19.499H19.541v-8.8667ZM10.38672,5.22412h8.02881v5.40821H10.38672ZM5.22461,18.749v-9.772H7.35938v9.772Zm13.56641,0H8.10938v-7.3667H18.791Z" fill="#171717"/><rect x="11.02051" y="8.22705" width="6.76123" height="0.75" fill="#171717"/><rect x="11.02051" y="6.53662" width="6.76123" height="0.75" fill="#171717"/><path d="M11.90918,13.82764a.69507.69507,0,1,0-.69482-.69531A.6958.6958,0,0,0,11.90918,13.82764Z" fill="#171717"/><path d="M14.04785,13.82764a.69507.69507,0,1,0-.69482-.69531A.69622.69622,0,0,0,14.04785,13.82764Z" fill="#171717"/><path d="M16.187,13.82764a.69507.69507,0,1,0-.69531-.69531A.69581.69581,0,0,0,16.187,13.82764Z" fill="#171717"/><path d="M11.90918,15.76074a.69507.69507,0,1,0-.69482-.69531A.6958.6958,0,0,0,11.90918,15.76074Z" fill="#171717"/><path d="M14.04785,15.76074a.69507.69507,0,1,0-.69482-.69531A.69622.69622,0,0,0,14.04785,15.76074Z" fill="#171717"/><path d="M16.187,15.76074a.69507.69507,0,1,0-.69531-.69531A.69581.69581,0,0,0,16.187,15.76074Z" fill="#171717"/><path d="M11.90918,16.30371a.69507.69507,0,1,0,.69482.69483A.69539.69539,0,0,0,11.90918,16.30371Z" fill="#171717"/><path d="M14.04785,17.69385a.69507.69507,0,1,0-.69482-.69531A.69622.69622,0,0,0,14.04785,17.69385Z" fill="#171717"/><path d="M16.187,17.69385a.69507.69507,0,1,0-.69531-.69531A.69581.69581,0,0,0,16.187,17.69385Z" fill="#171717"/></svg>