<?xml version="1.0" encoding="UTF-8"?><svg id="a" xmlns="http://www.w3.org/2000/svg" viewBox="0 0 24 24"><path d="M20.99951,9.99829V2.25025h-12.10547v7.74805h-1.50049v-3.3418H2.25v15.09375h19.5v-11.75195h-.75049ZM5.89355,20.25025h-2.14355v-12.09375h2.14355v12.09375ZM10.39404,3.75025h9.10547v6.24805h-9.10547V3.75025ZM20.25,20.25025H7.39355v-8.75195h12.85645v8.75195ZM11.14404,4.99927h7.60498v1.5h-7.60498v-1.5ZM11.14404,7.24927h7.60498v1.5h-7.60498v-1.5ZM16.63086,13.12427c0-.58789.47803-1.06543,1.06592-1.06543.5874,0,1.06543.47754,1.06543,1.06543s-.47803,1.06543-1.06543,1.06543c-.58789,0-1.06592-.47754-1.06592-1.06543ZM13.88086,13.12427c0-.58789.47803-1.06543,1.06592-1.06543s1.06592.47754,1.06592,1.06543-.47803,1.06543-1.06592,1.06543-1.06592-.47754-1.06592-1.06543ZM11.13135,13.12427c0-.58789.47803-1.06543,1.06543-1.06543.58789,0,1.06592.47754,1.06592,1.06543s-.47803,1.06543-1.06592,1.06543c-.5874,0-1.06543-.47754-1.06543-1.06543ZM16.63086,15.87427c0-.58789.47803-1.06543,1.06592-1.06543.5874,0,1.06543.47754,1.06543,1.06543s-.47803,1.06543-1.06543,1.06543c-.58789,0-1.06592-.47754-1.06592-1.06543ZM13.88086,15.87427c0-.58789.47803-1.06543,1.06592-1.06543s1.06592.47754,1.06592,1.06543-.47803,1.06543-1.06592,1.06543-1.06592-.47754-1.06592-1.06543ZM11.13135,15.87427c0-.58789.47803-1.06543,1.06543-1.06543.58789,0,1.06592.47754,1.06592,1.06543s-.47803,1.06543-1.06592,1.06543c-.5874,0-1.06543-.47754-1.06543-1.06543ZM16.63086,18.62427c0-.58789.47803-1.06543,1.06592-1.06543.5874,0,1.06543.47754,1.06543,1.06543s-.47803,1.06543-1.06543,1.06543c-.58789,0-1.06592-.47754-1.06592-1.06543ZM13.88086,18.62427c0-.58789.47803-1.06543,1.06592-1.06543s1.06592.47754,1.06592,1.06543-.47803,1.06543-1.06592,1.06543-1.06592-.47754-1.06592-1.06543ZM11.13135,18.62427c0-.58789.47803-1.06543,1.06543-1.06543.58789,0,1.06592.47754,1.06592,1.06543s-.47803,1.06543-1.06592,1.06543c-.5874,0-1.06543-.47754-1.06543-1.06543Z"/></svg>