<svg xmlns="http://www.w3.org/2000/svg" viewBox="0 0 15.06641 15.0249"><title>Fax</title>
	<path
		d="M14.69043,6.1582V0H5.16211V6.1582H3.63477V3.75293H0v11.272H15.06641V6.1582ZM5.91211.75h8.02881V6.1582H5.91211ZM.75,14.2749v-9.772H2.88477v9.772Zm13.56641,0H3.63477V6.9082H14.31641Z"
		fill="#171717"/>
	<rect x="6.5459" y="3.75293" width="6.76123" height="0.75" fill="#171717"/>
	<rect x="6.5459" y="2.0625" width="6.76123" height="0.75" fill="#171717"/>
	<path d="M7.43457,9.35352a.69507.69507,0,1,0-.69482-.69532A.69581.69581,0,0,0,7.43457,9.35352Z" fill="#171717"/>
	<path d="M9.57324,9.35352a.69507.69507,0,1,0-.69482-.69532A.69623.69623,0,0,0,9.57324,9.35352Z" fill="#171717"/>
	<path d="M11.7124,9.35352a.69507.69507,0,1,0-.69531-.69532A.69582.69582,0,0,0,11.7124,9.35352Z" fill="#171717"/>
	<path d="M7.43457,11.28662a.69507.69507,0,1,0-.69482-.69531A.6958.6958,0,0,0,7.43457,11.28662Z" fill="#171717"/>
	<path d="M9.57324,11.28662a.69507.69507,0,1,0-.69482-.69531A.69622.69622,0,0,0,9.57324,11.28662Z" fill="#171717"/>
	<path d="M11.7124,11.28662a.69507.69507,0,1,0-.69531-.69531A.69581.69581,0,0,0,11.7124,11.28662Z" fill="#171717"/>
	<path d="M7.43457,11.82959a.69507.69507,0,1,0,.69482.69482A.69538.69538,0,0,0,7.43457,11.82959Z" fill="#171717"/>
	<path d="M9.57324,13.21973a.69507.69507,0,1,0-.69482-.69532A.69623.69623,0,0,0,9.57324,13.21973Z" fill="#171717"/>
	<path d="M11.7124,13.21973a.69507.69507,0,1,0-.69531-.69532A.69582.69582,0,0,0,11.7124,13.21973Z" fill="#171717"/>
</svg>
