<svg xmlns="http://www.w3.org/2000/svg" viewBox="0 0 24.75 24.75"><defs><style>.cls-1{fill:none;stroke:#171717;stroke-miterlimit:10;stroke-width:0.75px;}.cls-2{fill:#171717;}</style></defs><title>Fax</title><g id="Ebene_2" data-name="Ebene 2"><g id="Ebene_1-2" data-name="Ebene 1"><rect class="cls-1" x="0.375" y="0.375" width="24" height="24"/><path class="cls-2" d="M19.55054,11.00733V4.84912H10.02222v6.15821H8.49488V8.60205H4.86011V19.874H19.92652v-8.8667ZM10.77222,5.59912H18.801v5.40821H10.77222ZM5.61011,19.124v-9.772H7.74488v9.772Zm13.56641,0H8.49488v-7.3667H19.17652Z"/><rect class="cls-2" x="11.40601" y="8.60205" width="6.76123" height="0.75"/><rect class="cls-2" x="11.40601" y="6.91162" width="6.76123" height="0.75"/><path class="cls-2" d="M12.29468,14.20264a.69507.69507,0,1,0-.69482-.69531A.6958.6958,0,0,0,12.29468,14.20264Z"/><path class="cls-2" d="M14.43335,14.20264a.69507.69507,0,1,0-.69482-.69531A.69622.69622,0,0,0,14.43335,14.20264Z"/><path class="cls-2" d="M16.57251,14.20264a.69507.69507,0,1,0-.69531-.69531A.69581.69581,0,0,0,16.57251,14.20264Z"/><path class="cls-2" d="M12.29468,16.13574a.69507.69507,0,1,0-.69482-.69531A.6958.6958,0,0,0,12.29468,16.13574Z"/><path class="cls-2" d="M14.43335,16.13574a.69507.69507,0,1,0-.69482-.69531A.69622.69622,0,0,0,14.43335,16.13574Z"/><path class="cls-2" d="M16.57251,16.13574a.69507.69507,0,1,0-.69531-.69531A.69581.69581,0,0,0,16.57251,16.13574Z"/><path class="cls-2" d="M12.29468,16.67871a.69507.69507,0,1,0,.69482.69483A.69539.69539,0,0,0,12.29468,16.67871Z"/><path class="cls-2" d="M14.43335,18.06885a.69507.69507,0,1,0-.69482-.69531A.69622.69622,0,0,0,14.43335,18.06885Z"/><path class="cls-2" d="M16.57251,18.06885a.69507.69507,0,1,0-.69531-.69531A.69581.69581,0,0,0,16.57251,18.06885Z"/></g></g></svg>
