<svg xmlns="http://www.w3.org/2000/svg" viewBox="0 0 24 24"><title>Fax</title><path d="M20.99951,9.99829v-7.748H8.894v7.748H7.39355V6.6565H2.25V21.75025h19.5V9.99829Zm-15.106,10.252H3.75V8.1565H5.89355Zm4.50049-16.5h9.10547v6.248H10.394Zm9.856,16.5H7.39355v-8.752H20.25Z" fill="#171717"/><rect x="11.14404" y="4.99927" width="7.60498" height="1.5" fill="#171717"/><rect x="11.14404" y="7.24927" width="7.60498" height="1.5" fill="#171717"/><path d="M17.69678,14.1897a1.06543,1.06543,0,1,0-1.06592-1.06543A1.06642,1.06642,0,0,0,17.69678,14.1897Z" fill="#171717"/><circle cx="14.94678" cy="13.12427" r="1.06567" fill="#171717"/><path d="M12.19678,14.1897a1.06543,1.06543,0,1,0-1.06543-1.06543A1.06653,1.06653,0,0,0,12.19678,14.1897Z" fill="#171717"/><path d="M17.69678,16.9397a1.06543,1.06543,0,1,0-1.06592-1.06543A1.06642,1.06642,0,0,0,17.69678,16.9397Z" fill="#171717"/><circle cx="14.94678" cy="15.87427" r="1.06567" fill="#171717"/><path d="M12.19678,16.9397a1.06543,1.06543,0,1,0-1.06543-1.06543A1.06653,1.06653,0,0,0,12.19678,16.9397Z" fill="#171717"/><path d="M17.69678,19.6897a1.06543,1.06543,0,1,0-1.06592-1.06543A1.06642,1.06642,0,0,0,17.69678,19.6897Z" fill="#171717"/><circle cx="14.94678" cy="18.62427" r="1.06567" fill="#171717"/><path d="M12.19678,19.6897a1.06543,1.06543,0,1,0-1.06543-1.06543A1.06653,1.06653,0,0,0,12.19678,19.6897Z" fill="#171717"/></svg>