<?xml version="1.0" encoding="UTF-8"?><svg id="a" xmlns="http://www.w3.org/2000/svg" viewBox="0 0 24 24"><path d="M7.91183,15.52767c1.33008,0,2.41211-1.08203,2.41211-2.41211s-1.08203-2.41113-2.41211-2.41113c-1.3291,0-2.41113,1.08105-2.41113,2.41113s1.08203,2.41211,2.41113,2.41211ZM7.91183,12.20443c.50293,0,.91211.4082.91211.91113s-.40918.91211-.91211.91211c-.50195,0-.91113-.40918-.91113-.91211s.40918-.91113.91113-.91113ZM8.82297,1.25033l-5.57324,7.71094v13.78906h17.5V1.25033h-11.92676ZM8.45676,4.31771v4.13574h-2.98926l2.98926-4.13574ZM9.95676,9.95345V2.75033h9.29297v13.02832l-3.69629-2.8418-6.24512,4.80176-2.58008-1.9834-1.97852,1.52051v-7.32227h5.20703ZM4.74973,21.25033v-2.08203l1.97852-1.52148,2.58008,1.9834,6.24512-4.80176,3.69629,2.8418v3.58008H4.74973Z"/></svg>