<svg xmlns="http://www.w3.org/2000/svg" viewBox="0 0 13.51855 16.58301"><title>FileCSV</title>
	<path d="M4.15479,0V.01758L.0235,5.70313H0V16.583H13.51855V0Zm0,1.293V5.70313H.95Zm8.61376,14.54H.75V6.45313H4.90479V.75h7.86376Z" fill="#171717"/>
	<path
		d="M2.78955,9.56641a.81986.81986,0,0,1,.73877-.46582.72384.72384,0,0,1,.59766.26757,1.69324,1.69324,0,0,1,.27783.86426H4.898a2.16667,2.16667,0,0,0-.41748-1.22558,1.16407,1.16407,0,0,0-.95215-.44239,1.1965,1.1965,0,0,0-.78857.28223,1.78867,1.78867,0,0,0-.52637.80762,3.67435,3.67435,0,0,0-.18555,1.2207v.47852a3.14637,3.14637,0,0,0,.398,1.6914,1.20592,1.20592,0,0,0,1.0586.63281,1.225,1.225,0,0,0,.97705-.42871A2.12059,2.12059,0,0,0,4.898,12.03027H4.40381a1.61224,1.61224,0,0,1-.29053.86328.7948.7948,0,0,1-.6289.24708.77882.77882,0,0,1-.709-.47852,2.77243,2.77243,0,0,1-.25342-1.29v-.48242A2.68222,2.68222,0,0,1,2.78955,9.56641Z"
		fill="#171717"/>
	<path
		d="M6.75146,13.14063a.87961.87961,0,0,1-.667-.26075.99061.99061,0,0,1-.25-.71289H5.34033a1.63663,1.63663,0,0,0,.18067.77539,1.34637,1.34637,0,0,0,.51318.53907,1.38851,1.38851,0,0,0,.71728.19628,1.25353,1.25353,0,0,0,.94434-.36425,1.32951,1.32951,0,0,0,.35352-.96875,1.59384,1.59384,0,0,0-.127-.66016,1.328,1.328,0,0,0-.38916-.49023,2.67529,2.67529,0,0,0-.72705-.38477,1.71086,1.71086,0,0,1-.65771-.38574.73114.73114,0,0,1-.19336-.51465.82928.82928,0,0,1,.20361-.59473.74538.74538,0,0,1,.5669-.21386.74735.74735,0,0,1,.60693.25879,1.08389,1.08389,0,0,1,.21484.71191H8.0415a1.75969,1.75969,0,0,0-.165-.76172,1.31191,1.31191,0,0,0-.46582-.54687,1.21264,1.21264,0,0,0-.685-.19825,1.181,1.181,0,0,0-.915.38477,1.38175,1.38175,0,0,0-.35205.97168,1.33852,1.33852,0,0,0,.28808.874,2.15334,2.15334,0,0,0,.91992.59571,1.98149,1.98149,0,0,1,.69678.3955.91733.91733,0,0,1-.01562,1.14258A.7953.7953,0,0,1,6.75146,13.14063Z"
		fill="#171717"/>
	<polygon points="10.133 13.609 11.516 8.633 10.979 8.633 9.913 12.737 8.854 8.633 8.318 8.633 9.698 13.609 10.133 13.609" fill="#171717"/>
</svg>
