<svg xmlns="http://www.w3.org/2000/svg" viewBox="0 0 24 24"><title>FileCSV</title><path d="M9.385,3.7085v.01758L5.2537,9.41162H5.2302V20.29151H18.74875V3.7085Zm0,1.293V9.41162H6.18015Zm8.61377,14.54H5.9802V10.16162H10.135V4.4585h7.86377Z" fill="#171717"/><path d="M8.01975,13.2749a.81988.81988,0,0,1,.73877-.46582.72382.72382,0,0,1,.59765.26758,1.6931,1.6931,0,0,1,.27784.86426h.49414a2.16673,2.16673,0,0,0-.41748-1.22559,1.16409,1.16409,0,0,0-.95215-.44238,1.19654,1.19654,0,0,0-.78858.28223,1.78867,1.78867,0,0,0-.52636.80761A3.67445,3.67445,0,0,0,7.258,14.5835V15.062A3.14638,3.14638,0,0,0,7.656,16.75342a1.20592,1.20592,0,0,0,1.05859.63281,1.225,1.225,0,0,0,.97705-.42871,2.12052,2.12052,0,0,0,.43653-1.21875H9.634a1.61224,1.61224,0,0,1-.29053.86328.79481.79481,0,0,1-.62891.24707.77881.77881,0,0,1-.709-.47851,2.77234,2.77234,0,0,1-.25342-1.29v-.48242A2.68227,2.68227,0,0,1,8.01975,13.2749Z" fill="#171717"/><path d="M11.98166,16.84912a.87961.87961,0,0,1-.667-.26074.99061.99061,0,0,1-.25-.71289h-.49414a1.63674,1.63674,0,0,0,.18066.77539,1.34637,1.34637,0,0,0,.51319.53906,1.38843,1.38843,0,0,0,.71728.19629A1.25349,1.25349,0,0,0,12.926,17.022a1.32948,1.32948,0,0,0,.35351-.96875,1.594,1.594,0,0,0-.127-.66015,1.32817,1.32817,0,0,0-.38916-.49024,2.67557,2.67557,0,0,0-.72705-.38476,1.71086,1.71086,0,0,1-.65771-.38574.73114.73114,0,0,1-.19336-.51465.82928.82928,0,0,1,.20361-.59473.84917.84917,0,0,1,1.17383.04492,1.084,1.084,0,0,1,.21484.71192h.49414a1.75969,1.75969,0,0,0-.165-.76172,1.312,1.312,0,0,0-.46582-.54688,1.21274,1.21274,0,0,0-.68506-.19824,1.181,1.181,0,0,0-.915.38477,1.38174,1.38174,0,0,0-.35206.97168,1.33853,1.33853,0,0,0,.28809.874,2.15317,2.15317,0,0,0,.91992.5957,1.98164,1.98164,0,0,1,.69678.39551.91735.91735,0,0,1-.01563,1.14258A.79526.79526,0,0,1,11.98166,16.84912Z" fill="#171717"/><polygon points="15.363 17.318 16.746 12.341 16.209 12.341 15.143 16.446 14.084 12.341 13.549 12.341 14.928 17.318 15.363 17.318" fill="#171717"/></svg>