<?xml version="1.0" encoding="UTF-8"?><svg id="a" xmlns="http://www.w3.org/2000/svg" viewBox="0 0 24 24"><path d="M4.75,9.95369h5.20654V2.74959h9.29883l.06689,9.29004,1.5-.01172-.07764-10.77832h-11.92139l-5.57324,7.71191-.0249,13.78809h17.53418v-1.5H4.75v-11.2959ZM8.45654,4.31795v4.13574h-2.98926l2.98926-4.13574ZM7.95215,17.83357v-3.9375h1.05469v3.9375c0,.3623-.07227.68164-.21582.95898-.14453.27734-.34766.49219-.61035.64258s-.55859.22656-.88965.22656c-.54102,0-.96289-.15234-1.26562-.45898-.30176-.30566-.45312-.73828-.45312-1.29883h1.06152c0,.2793.05273.48438.1582.61719s.27246.19922.49902.19922c.20215,0,.3623-.07617.48242-.23047.11914-.15332.17871-.37207.17871-.65625ZM10.87109,14.93318c-.14258.12109-.21484.28125-.21484.47852,0,.18555.08398.33984.25195.46484.16699.125.41406.24219.74023.35156.59961.20117,1.03711.44922,1.31055.74609.27441.29688.41211.66699.41211,1.10938,0,.49219-.16797.87891-.50293,1.1582-.33496.28027-.78613.41992-1.35352.41992-.39355,0-.75293-.08008-1.07617-.24023s-.57031-.37891-.74023-.6582c-.16992-.27832-.25488-.60156-.25488-.96875h1.05859c0,.62793.33789.94141,1.0127.94141.25098,0,.44629-.05664.58691-.16992s.21094-.27148.21094-.47461c0-.2207-.07031-.39062-.21094-.50977-.14062-.11816-.39355-.24316-.75977-.375-.36523-.13086-.6543-.26074-.86816-.38867-.58105-.34863-.87207-.81836-.87207-1.41016,0-.30664.07812-.58105.23438-.82227.15527-.24023.37988-.42871.6709-.56445.29199-.13477.62012-.20312.9834-.20312.36523,0,.69141.07422.97656.2207.28613.14746.50879.35547.66699.62305.1582.26855.2373.57324.2373.91406h-1.05469c0-.25977-.07422-.46289-.22168-.60742s-.35547-.2168-.62207-.2168c-.25781,0-.45898.06055-.60156.18164ZM16.99512,14.15975c-.33105-.22754-.71094-.3418-1.13672-.3418-.42676,0-.80566.11426-1.1377.3418-.33203.22852-.58789.55469-.76953.98047s-.27246.91895-.27246,1.47852v.28125c.00195.54688.09473,1.03125.27734,1.45117.18262.4209.44043.74414.77344.9707s.71094.33984,1.13574.33984c.42871,0,.80859-.11426,1.14062-.34375.33203-.22852.58691-.55469.76465-.97656s.26758-.91211.26758-1.47266v-.25391c0-.55664-.09082-1.04883-.27246-1.47461s-.43848-.75195-.77051-.98047ZM16.96875,16.88826c-.00195.5918-.09863,1.04102-.28809,1.34961s-.46191.46289-.81543.46289c-.36133,0-.6377-.16016-.83008-.48047s-.28809-.77051-.28809-1.35156v-.27734c.00195-.59082.09961-1.03906.29199-1.3457.19238-.30566.46484-.45898.81934-.45898.35547,0,.62988.15527.82227.46484.19238.31055.28809.76367.28809,1.35938v.27734ZM22.71387,13.89607v5.6875h-1.05469l-2.05273-3.74219v3.74219h-1.05469v-5.6875h1.05469l2.05664,3.75v-3.75h1.05078Z"/></svg>