<?xml version="1.0" encoding="UTF-8"?><svg id="a" xmlns="http://www.w3.org/2000/svg" viewBox="0 0 24 24"><path d="M8.82297,1.25033l-5.57324,7.71094v13.78906h17.5V1.25033h-11.92676ZM8.45676,4.31771v4.13672h-2.98926l2.98926-4.13672ZM19.24973,21.25033H4.74973v-11.2959h5.20703V2.75033h9.29297v18.5ZM12.74973,4.39779h-1.5v-1.5h1.5v1.5ZM12.74973,7.39779h-1.5v-1.5h1.5v1.5ZM12.74973,10.39681h-1.5v-1.5h1.5v1.5ZM12.74973,13.39681h-1.5v-1.5h1.5v1.5ZM13.7175,15.64681h-.96777v-.75h-1.5v.75h-.96777v4.85352h3.43555v-4.85352ZM12.2175,19.00033h-.43555v-1.85352h.43555v1.85352Z"/></svg>