<svg xmlns="http://www.w3.org/2000/svg" viewBox="0 0 24.75 24.75"><defs><style>.cls-1{fill:none;stroke:#171717;stroke-miterlimit:10;stroke-width:0.75px;}</style></defs><title>FileUser</title><g id="Ebene_2" data-name="Ebene 2"><g id="Ebene_1-2" data-name="Ebene 1"><rect class="cls-1" x="0.375" y="0.375" width="24" height="24"/><path d="M16.65967,18.14383H14.98926a1.70212,1.70212,0,0,0-1.7002,1.7002v2.10449h.75V19.844a.951.951,0,0,1,.9502-.9502h1.67041a.951.951,0,0,1,.95019.9502v2.10449h.75V19.844A1.70211,1.70211,0,0,0,16.65967,18.14383Z"/><path d="M17.70654,16.221a1.88233,1.88233,0,1,0-1.88232,1.88281A1.88382,1.88382,0,0,0,17.70654,16.221Zm-3.01465,0a1.13233,1.13233,0,1,1,1.13233,1.13281A1.13333,1.13333,0,0,1,14.69189,16.221Z"/><path d="M9.76025,4.07352,5.62793,9.77664,5.60547,20.65653h5.85107v-.75H6.35547V10.52664h4.15478V4.82352H18.374v8.13769h.75V4.07352Zm0,5.70312H6.55518L9.76025,5.36551Z"/></g></g></svg>
