<svg xmlns="http://www.w3.org/2000/svg" viewBox="0 0 15.21875 18.25"><title>FileServer</title>
	<path d="M.75,6.45313H4.90479V.75h7.86376V8.8877h.75V0H4.15479L.02246,5.70313,0,16.583H5.85107v-.75H.75ZM4.15479,1.292V5.70313H.94971Z" fill="#171717"/>
	<path d="M15.21387,13.12012H7.30811v2.27539h7.90576Zm-.75,1.52539H8.05811v-.77539h6.40576Z" fill="#171717"/>
	<path
		d="M14.00677,14.55774a.30036.30036,0,1,0-.31329-.30005A.30709.30709,0,0,0,14.00677,14.55774Zm0-.35651a.05788.05788,0,0,1,.059.05646c0,.0625-.118.06183-.118,0A.05791.05791,0,0,1,14.00677,14.20123Z"
		fill="#171717"/>
	<path d="M7.30811,12.541h7.90576V10.26563H7.30811Zm.75-1.52539h6.40576V11.791H8.05811Z" fill="#171717"/>
	<path
		d="M14.00677,11.103a.30035.30035,0,1,0,.31318.30011A.30716.30716,0,0,0,14.00677,11.103Zm-.05908.30011a.05908.05908,0,0,1,.118,0C14.06573,11.46558,13.94769,11.4649,13.94769,11.40308Z"
		fill="#171717"/>
	<path d="M7.313,15.97461V18.25h7.90576V15.97461ZM14.46875,17.5H8.063v-.77539h6.40576Z" fill="#171717"/>
	<path
		d="M14.0116,17.41235a.30036.30036,0,1,0-.3133-.3A.30708.30708,0,0,0,14.0116,17.41235Zm0-.3565a.05784.05784,0,0,1,.059.05645c0,.0625-.11805.06183-.11805,0A.05787.05787,0,0,1,14.0116,17.05585Z"
		fill="#171717"/>
</svg>
