<svg xmlns="http://www.w3.org/2000/svg" viewBox="0 0 24 24"><title>FileJson</title><path d="M9.084,14.007V12.95819a2.6326,2.6326,0,0,1,.15381-.96191A.90668.90668,0,0,1,9.668,11.509l-.20947-.80468a1.91578,1.91578,0,0,0-1.01026.82519,2.90722,2.90722,0,0,0-.33691,1.49317v1.05957q-.01539.99317-.666.99414v1.0332q.66578,0,.666,1.05469v.99414A2.194,2.194,0,0,0,9.4585,20.48163l.20947-.80957q-.56543-.25927-.584-1.42871V17.18378A1.79481,1.79481,0,0,0,8.41455,15.59,1.77294,1.77294,0,0,0,9.084,14.007Z" fill="#171717"/><path d="M12.251,19.57245a3.33294,3.33294,0,0,0,.20947-1.11914l.00342-.999h-.91309v1.11816a3.28651,3.28651,0,0,1-.25781,1.21484l-.13477.32422.56494.39453A2.94144,2.94144,0,0,0,12.251,19.57245Z" fill="#171717"/><path d="M11.959,14.64667a.54318.54318,0,0,0,.44141-.21289.84831.84831,0,0,0,.17236-.55176.86147.86147,0,0,0-.17431-.55957.55338.55338,0,0,0-.87549,0,.86127.86127,0,0,0-.17383.55957.8481.8481,0,0,0,.17188.55176A.54.54,0,0,0,11.959,14.64667Z" fill="#171717"/><path d="M14.81445,17.16425v1.05859q-.01464,1.1792-.58349,1.44922l.20947.80957a2.16725,2.16725,0,0,0,1.34717-2.24316v-1.084q0-1.04443.666-1.04492v-1.0332q-.65112,0-.666-.99414V13.008a2.91354,2.91354,0,0,0-.34082-1.48633,1.90211,1.90211,0,0,0-1.00635-.81738L14.231,11.509q.56835.28419.58349,1.44922v1.044a1.74788,1.74788,0,0,0,.68457,1.59375A1.719,1.719,0,0,0,14.81445,17.16425Z" fill="#171717"/><path d="M8.82324,1.25018,3.25,8.9621V22.75018h17.5v-21.5Zm-.3667,3.06836V8.45429H5.46729ZM19.25,21.25018H4.75V9.95429H9.95654V2.75018H19.25Z" fill="#171717"/></svg>