<svg xmlns="http://www.w3.org/2000/svg" viewBox="0 0 24 24"><title>FilePPT</title><path d="M9.38477,3.7085v.01709l-4.13129,5.686H5.23V20.292H18.749V3.7085Zm0,1.29248V9.41162H6.17993ZM17.999,19.542H5.98V10.16162h4.15479V4.4585H17.999Z" fill="#171717"/><path d="M12.77051,14.7124a1.432,1.432,0,0,0,.06933-2.03955,1.60165,1.60165,0,0,0-1.08886-.32373H10.74609v2.69629h.833A1.8253,1.8253,0,0,0,12.77051,14.7124Zm-1.27442-1.61328H11.751a.89486.89486,0,0,1,.59082.13428.59534.59534,0,0,1,.14111.44482.53131.53131,0,0,1-.187.45411,1.13633,1.13633,0,0,1-.7168.16308h-.083Z" fill="#171717"/><path d="M9.353,18.49951h2.14306V16.17139h.2168a3.10048,3.10048,0,0,0,2.11621-.64551,2.4027,2.4027,0,0,0,.79688-1.90527,2.21932,2.21932,0,0,0-.76758-1.81641,3.12283,3.12283,0,0,0-2.05029-.6001H9.353Zm.75-6.54541h1.70508a2.42319,2.42319,0,0,1,1.57568.43067,1.5084,1.5084,0,0,1,.49219,1.23584A1.66483,1.66483,0,0,1,13.33691,14.96a2.40394,2.40394,0,0,1-1.624.46143h-.9668v2.32812H10.103Z" fill="#171717"/></svg>