<svg xmlns="http://www.w3.org/2000/svg" viewBox="0 0 24 24"><title>FileUser</title><path d="M16.96494,18.22689a2.64649,2.64649,0,1,0-2.866,0A2.331,2.331,0,0,0,12.20578,20.513v2.73633h1.5V20.513a.83063.83063,0,0,1,.83008-.83008h1.99219a.83147.83147,0,0,1,.83105.83008v2.73633h1.5V20.513A2.33159,2.33159,0,0,0,16.96494,18.22689Zm-1.433-3.36524a1.14649,1.14649,0,1,1-1.14648,1.14649A1.14822,1.14822,0,0,1,15.532,14.86165Z" fill="#171717"/><path d="M8.823,1.25033,3.24973,8.96126V22.75033h6.6748v-1.5H4.74973V9.95345h5.207V2.75033h9.293v9.127h1.5V1.25033ZM8.45676,8.45345H5.4675L8.45676,4.31771Z" fill="#171717"/></svg>