<?xml version="1.0" encoding="UTF-8"?><svg id="a" xmlns="http://www.w3.org/2000/svg" viewBox="0 0 24 24"><path d="M6.81027,15.31087v.47461c0,.67969.07715,1.17578.23145,1.48926.1543.31445.39746.4707.72949.4707.2998,0,.52344-.09082.6709-.27441.14746-.18262.23242-.46484.25391-.84766h.96973c-.03613.67578-.22363,1.20898-.56055,1.59668-.33789.38867-.78223.58301-1.33398.58301-.60352,0-1.07812-.27051-1.4248-.81348-.3457-.54297-.51855-1.28711-.51855-2.23438v-.38379c0-.60449.0791-1.13672.23926-1.59766.15918-.46094.3877-.81348.68359-1.05957.29688-.24609.64062-.36914,1.0332-.36914.54297,0,.98145.19434,1.31348.58301.33203.3877.52344.93359.5752,1.63574h-.96973c-.02441-.40625-.1084-.7002-.25391-.88281s-.36719-.27441-.66504-.27441c-.32324,0-.56543.15527-.72559.46387-.16113.30957-.24316.79004-.24805,1.44043ZM12.01047,17.7806c-.62109,0-.93164-.34766-.93164-1.04102h-.97363c0,.40625.07812.7627.23535,1.07031.15625.30859.38281.55078.68066.72754.29688.17773.62695.26562.98926.26562.52148,0,.93652-.1543,1.24512-.46387.30762-.30957.46191-.73633.46191-1.28027,0-.48926-.12598-.89746-.37793-1.22559s-.6543-.60352-1.20605-.8252c-.2998-.12012-.52734-.25-.68066-.38867-.1543-.1377-.23145-.30859-.23145-.51367,0-.21875.06543-.39453.19727-.52832s.31543-.20117.55273-.20117c.24609,0,.43652.08008.57227.24023.13574.15918.2041.38281.2041.6709h.96973c0-.37695-.07227-.71387-.21777-1.00977-.14551-.29688-.34961-.52637-.61328-.68945-.2627-.16211-.5625-.24316-.89844-.24316-.33398,0-.63574.07422-.9043.22461-.26855.14941-.47461.35742-.61719.62305-.14355.2666-.21582.56934-.21582.90918,0,.65332.26758,1.17285.80273,1.55859.19629.14062.46191.28418.79883.42969.33594.14551.56836.2832.69824.41406.12891.13086.19434.31934.19434.56348,0,.22461-.06543.39941-.19434.52441-.12988.125-.30957.18848-.54004.18848ZM16.6218,18.71712l1.63965-6.28613h-1.08008l-1.06738,4.72754-1.06055-4.72754h-1.07715l1.63281,6.28613h1.0127ZM20.74973,1.25033v21.5H3.24973v-13.78906L8.82297,1.25033h11.92676ZM5.4675,8.45345h2.98926v-4.13574l-2.98926,4.13574ZM19.24973,2.75033h-9.29297v7.20312h-5.20703v11.29688h14.5V2.75033Z"/></svg>