<svg xmlns="http://www.w3.org/2000/svg" viewBox="0 0 13.51904 16.5835"><title>FilePDF</title>
	<path
		d="M4.54407,12.98682c-.01465.00732-.3487.18457-.427.23144A2.38683,2.38683,0,0,0,2.9389,14.42334a.29548.29548,0,0,0,.11255.32764l.18842.09521a.57724.57724,0,0,0,.257.06152c.47345,0,1.02276-.58984,1.78009-1.91113a17.69186,17.69186,0,0,1,2.74176-.65088,4.7315,4.7315,0,0,0,1.99786.63379.92549.92549,0,0,0,.23492-.02588.40642.40642,0,0,0,.23365-.15918.84653.84653,0,0,0,.093-.57129.38911.38911,0,0,0-.11255-.19335,1.566,1.566,0,0,0-1.0094-.23829,8.29263,8.29263,0,0,0-1.21363.08936,3.02934,3.02934,0,0,1-.5628-.38916A4.10655,4.10655,0,0,1,6.66309,9.91455c.01464-.05762.02691-.10742.03912-.15918A10.25809,10.25809,0,0,0,6.88086,7.9082a.54253.54253,0,0,0-.0318-.13232l-.02081-.05371a.43729.43729,0,0,0-.39887-.30567l-.11987-.0039H6.30707a.45066.45066,0,0,0-.46.28906,5.35026,5.35026,0,0,0,.28015,2.40869l-.07093.17139c-.197.48193-.44415.96631-.66192,1.39355l-.02814.05518c-.23.44873-.438.83057-.62762,1.15332Zm-1.15,1.5625a3.28583,3.28583,0,0,1,.93347-1.11719c.0318-.02588.11011-.09912.1811-.16748A3.3777,3.3777,0,0,1,3.394,14.54932Zm6.06342-2.332a1.94208,1.94208,0,0,1,.63251.06835c.2716.06983.27526.21045.22753.23975a.70114.70114,0,0,1-.2655.04541,3.1125,3.1125,0,0,1-1.10107-.333C9.13568,12.22461,9.30573,12.21729,9.45746,12.21729ZM6.3866,7.65723c.15167,0,.23858.3833.24591.74267a1.52563,1.52563,0,0,1-.18109.79883,3.87657,3.87657,0,0,1-.12848-.99707S6.31683,7.65723,6.3866,7.65723Zm-.564,4.30908A11.2277,11.2277,0,0,0,6.4,10.70605a4.16653,4.16653,0,0,0,.95307,1.18311c.04773.03906.0979.07959.14929.12012a12.07229,12.07229,0,0,0-2.00891.55908Q5.65313,12.28419,5.82257,11.96631Z"
		fill="#171717"/>
	<path d="M4.15479,0V.01758L.0235,5.70313H0V16.5835H13.519V0Zm0,1.29248V5.70313H.95ZM12.769,15.8335H.75V6.45313H4.90479V.75H12.769Z" fill="#171717"/>
</svg>
