<svg xmlns="http://www.w3.org/2000/svg" viewBox="0 0 13.51904 16.5835"><title>FilePPT</title>
	<path d="M4.15479,0V.01709L.0235,5.70313H0V16.5835H13.519V0Zm0,1.29248V5.70313H.95ZM12.769,15.8335H.75V6.45313H4.90479V.75H12.769Z" fill="#171717"/>
	<path
		d="M7.54053,11.00391a1.28533,1.28533,0,0,0,.4624-1.03418,1.27751,1.27751,0,0,0-.39307-1.00537A1.60159,1.60159,0,0,0,6.521,8.64063H5.51611v2.69628h.833A1.82536,1.82536,0,0,0,7.54053,11.00391ZM6.26611,9.39063H6.521a.895.895,0,0,1,.59082.13427.59536.59536,0,0,1,.14111.44483.5313.5313,0,0,1-.187.4541,1.13627,1.13627,0,0,1-.7168.16308h-.083Z"
		fill="#171717"/>
	<path
		d="M4.12305,14.791H6.26611V12.46289h.2168a3.10048,3.10048,0,0,0,2.11621-.64551A2.40269,2.40269,0,0,0,9.396,9.91211,2.21934,2.21934,0,0,0,8.62842,8.0957a3.12283,3.12283,0,0,0-2.05029-.60009H4.12305Zm.75-6.54541H6.57813a2.42321,2.42321,0,0,1,1.57568.43066A1.50841,1.50841,0,0,1,8.646,9.91211a1.6648,1.6648,0,0,1-.53907,1.33935,2.40394,2.40394,0,0,1-1.624.46143h-.9668V14.041H4.87305Z"
		fill="#171717"/>
</svg>
