<svg xmlns="http://www.w3.org/2000/svg" viewBox="0 0 24 24"><title>FileEpub</title><path d="M7.32758,16.12421l4.16259,4.16113a.71967.71967,0,0,0,1.019.001l3.7417-3.74121a1.31793,1.31793,0,0,0,0-1.86231l-.08838-.08789L11.99945,18.758l-3.144-3.14356,3.144-3.14453,1.063,1.0625-1.90283,1.90332,1.019,1.01856,2.41162-2.41211a.72025.72025,0,0,0,0-1.01953l-2.08154-2.08106a.72264.72264,0,0,0-1.01856,0L7.32758,15.1037A.72394.72394,0,0,0,7.32758,16.12421Z" fill="#171717"/><path d="M8.82324,1.25018,3.25,8.9621V22.75018h17.5v-21.5Zm-.3667,3.06836V8.45429H5.46729ZM19.25,21.25018H4.75V9.95429H9.95654V2.75018H19.25Z" fill="#171717"/></svg>