<svg xmlns="http://www.w3.org/2000/svg" viewBox="0 0 24.75 24.75"><defs><style>.cls-1{fill:none;stroke:#171717;stroke-miterlimit:10;stroke-width:0.75px;}</style></defs><title>FileRefresh</title><g id="Ebene_2" data-name="Ebene 2"><g id="Ebene_1-2" data-name="Ebene 1"><rect class="cls-1" x="0.375" y="0.375" width="24" height="24"/><path d="M16.854,20.43129a2.67676,2.67676,0,0,1-2.40356-1.51367l.60474-.00684-.00782-.75-1.39941.01465-.686,1.22071.65332.36718.22736-.40332a3.41013,3.41013,0,0,0,6.35175-.874l-.7334-.1582A2.67876,2.67876,0,0,1,16.854,20.43129Z"/><path d="M16.854,14.34926a3.43452,3.43452,0,0,0-3.33935,2.69043l.7334.1582a2.66683,2.66683,0,0,1,5.00622-.59326l-.57214.00635.00879.75,1.39892-.0166.68653-1.21973-.65381-.36719-.2442.43409A3.433,3.433,0,0,0,16.854,14.34926Z"/><path d="M6.35547,10.53676h4.15478V4.83364H18.374v8.13769h.75V4.08364H9.76025L5.62793,9.78676,5.60547,20.66664h5.85107v-.75H6.35547ZM9.76025,5.37563V9.78676H6.55518Z"/></g></g></svg>
