<svg xmlns="http://www.w3.org/2000/svg" viewBox="0 0 24 24"><title>FilePDF</title><path d="M9.77405,16.67822c-.01465.00733-.3487.18457-.427.23145a2.38683,2.38683,0,0,0-1.17817,1.20508.29547.29547,0,0,0,.11255.32763l.18842.09522a.57724.57724,0,0,0,.257.06152c.47345,0,1.02276-.58984,1.78009-1.91113a17.69186,17.69186,0,0,1,2.74176-.65088,4.7315,4.7315,0,0,0,1.99786.63379.92563.92563,0,0,0,.23493-.02588.40644.40644,0,0,0,.23364-.15918.84654.84654,0,0,0,.093-.57129.38918.38918,0,0,0-.11255-.19336,1.56607,1.56607,0,0,0-1.0094-.23828,8.29273,8.29273,0,0,0-1.21363.08936,3.02934,3.02934,0,0,1-.5628-.38916A4.10663,4.10663,0,0,1,11.89307,13.606c.01464-.05762.02691-.10742.03912-.15918a10.25809,10.25809,0,0,0,.17865-1.84717.54241.54241,0,0,0-.0318-.13232l-.02081-.05371a.43728.43728,0,0,0-.39887-.30567l-.11987-.0039h-.00244a.45066.45066,0,0,0-.46.28906,5.35027,5.35027,0,0,0,.28015,2.40869l-.07093.17139c-.197.48193-.44415.9663-.66192,1.39355l-.02814.05518c-.23.44873-.438.83056-.62762,1.15332Zm-1.15,1.5625a3.28585,3.28585,0,0,1,.93348-1.11718c.03179-.02588.1101-.09912.18109-.16748A3.37745,3.37745,0,0,1,8.624,18.24072Zm6.06342-2.332a1.94209,1.94209,0,0,1,.63251.06836c.2716.06983.27526.21045.22754.23975a.70123.70123,0,0,1-.26551.04541,3.1125,3.1125,0,0,1-1.10107-.333C14.36566,15.916,14.53571,15.90869,14.68744,15.90869Zm-3.07086-4.56006c.15167,0,.23858.38331.24591.74268a1.52565,1.52565,0,0,1-.18109.79883,3.87662,3.87662,0,0,1-.12848-.99707S11.54681,11.34863,11.61658,11.34863Zm-.564,4.30909A11.2277,11.2277,0,0,0,11.63,14.39746a4.16653,4.16653,0,0,0,.95307,1.18311c.04773.03906.0979.07959.14929.12012a12.07229,12.07229,0,0,0-2.00891.55908Q10.88313,15.97558,11.05255,15.65772Z" fill="#171717"/><path d="M9.38477,3.69141V3.709L5.25348,9.39453H5.23V20.2749H18.749V3.69141Zm0,1.29248V9.39453H6.17993ZM17.999,19.5249H5.98V10.14453h4.15479V4.44141H17.999Z" fill="#171717"/></svg>