<svg xmlns="http://www.w3.org/2000/svg" viewBox="0 0 24 24"><title>FileImage</title><path d="M7.91183,15.52767A2.41162,2.41162,0,1,0,5.5007,13.11556,2.41479,2.41479,0,0,0,7.91183,15.52767Zm0-3.32324a.91162.91162,0,1,1-.91113.91113A.91232.91232,0,0,1,7.91183,12.20443Z" fill="#171717"/><path d="M8.823,1.25033,3.24973,8.96126V22.75033h17.5v-21.5ZM8.45676,4.31771V8.45345H5.4675Zm1.5,5.63574V2.75033h9.293V15.77865l-3.69629-2.8418L9.30832,17.73861l-2.58008-1.9834L4.74973,17.27572V9.95345Zm-5.207,11.29688v-2.082l1.97851-1.52148,2.58008,1.9834,6.24512-4.80176,3.69629,2.8418v3.58008Z" fill="#171717"/></svg>