<svg xmlns="http://www.w3.org/2000/svg" viewBox="0 0 13.51904 16.5835"><title>FileJSON</title>
	<path d="M4.15479,0V.01709L.0235,5.70313H0V16.5835H13.519V0Zm0,1.29248V5.70313H.95ZM12.769,15.8335H.75V6.45313H4.90479V.75H12.769Z" fill="#171717"/>
	<path
		d="M4.88745,9.89941q0,.95655-.62842.957v.57324q.62842,0,.62842.96094v.7871A2.35269,2.35269,0,0,0,5.15259,14.374a1.49409,1.49409,0,0,0,.78906.65137l.11279-.45508q-.61009-.26074-.61914-1.34863v-.81543a1.45194,1.45194,0,0,0-.49463-1.26074,1.43349,1.43349,0,0,0,.49463-1.25V9.09668q0-1.11621.61914-1.38086l-.11279-.45508a1.48962,1.48962,0,0,0-.78906.64746,2.34094,2.34094,0,0,0-.26514,1.168Z"
		fill="#171717"/>
	<path
		d="M6.92407,14.084a2.31107,2.31107,0,0,0,.147-.79882v-.57422H6.53442v.66113a2.33775,2.33775,0,0,1-.29,1.06738l.311.28516A1.91221,1.91221,0,0,0,6.92407,14.084Z"
		fill="#171717"/>
	<path
		d="M6.78931,10.12891a.29406.29406,0,0,0,.25634-.123.51391.51391,0,0,0,.08741-.30469.54761.54761,0,0,0-.08741-.3164.29172.29172,0,0,0-.25634-.126.2855.2855,0,0,0-.25342.126.56184.56184,0,0,0-.08447.3164.527.527,0,0,0,.08447.30469A.2877.2877,0,0,0,6.78931,10.12891Z"
		fill="#171717"/>
	<path
		d="M8.08374,12.39063v.87011q-.02051,1.05175-.62207,1.30957l.11572.45508a1.5168,1.5168,0,0,0,.78662-.64551,2.299,2.299,0,0,0,.26807-1.19043v-.79882q0-.96095.62793-.96094v-.57324q-.62769,0-.62793-.94532v-.831a2.308,2.308,0,0,0-.2666-1.17578,1.49518,1.49518,0,0,0-.78809-.64356l-.11279.45508q.61963.26514.61914,1.38086v.80273a1.33715,1.33715,0,0,0,.53662,1.2461A1.34587,1.34587,0,0,0,8.08374,12.39063Z"
		fill="#171717"/>
</svg>
