<svg xmlns="http://www.w3.org/2000/svg" viewBox="0 0 24 24"><title>FileXml</title><polygon points="9.306 12.431 8.191 12.431 7.308 14.599 6.426 12.431 5.309 12.431 6.68 15.548 5.274 18.717 6.403 18.717 7.308 16.516 8.214 18.717 9.342 18.717 7.935 15.548 9.306 12.431" fill="#171717"/><polygon points="9.83 18.717 10.801 18.717 10.801 16.999 10.704 14.037 11.971 18.717 12.637 18.717 13.908 14.034 13.811 16.999 13.811 18.717 14.785 18.717 14.785 12.431 13.51 12.431 12.307 16.991 11.098 12.431 9.83 12.431 9.83 18.717" fill="#171717"/><polygon points="18.662 17.677 16.602 17.677 16.602 12.431 15.632 12.431 15.632 18.717 18.662 18.717 18.662 17.677" fill="#171717"/><path d="M8.823,1.25033,3.24973,8.96126V22.75033h17.5v-21.5ZM8.45676,4.31771V8.45443H5.4675Zm10.793,16.93262h-14.5V9.95443h5.207V2.75033h9.293Z" fill="#171717"/></svg>