<svg xmlns="http://www.w3.org/2000/svg" viewBox="0 0 14.27686 18.26172"><title>FileDatabase</title><path d="M7.68311,11.72266v5.082c0,.957,1.65869,1.457,3.29687,1.457s3.29688-.5,3.29688-1.457v-5.082C14.27686,9.80859,7.68311,9.80859,7.68311,11.72266Zm3.29687-.707c1.6543,0,2.54688.502,2.54688.707s-.89258.707-2.54688.707-2.54687-.502-2.54687-.707S9.32568,11.01563,10.98,11.01563Zm-2.54687,1.666a6.81684,6.81684,0,0,0,5.09375,0V13.416c0,.20507-.89258.707-2.54688.707s-2.54687-.502-2.54687-.707Zm0,1.69336a6.81684,6.81684,0,0,0,5.09375,0v.73535c0,.20508-.89258.707-2.54688.707s-2.54687-.502-2.54687-.707ZM10.98,17.51172c-1.6543,0-2.54687-.502-2.54687-.707v-.73535a6.81684,6.81684,0,0,0,5.09375,0v.73535C13.52686,17.00977,12.63428,17.51172,10.98,17.51172Z" fill="#171717"/><path d="M.75,6.45313H4.90479V.75h7.86376V8.8877h.75V0H4.15479L.02246,5.70313,0,16.583H5.85107v-.75H.75ZM4.15479,1.292V5.70313H.94971Z" fill="#171717"/></svg>
