<svg xmlns="http://www.w3.org/2000/svg" viewBox="0 0 13.51904 16.5835"><title>FileVideo</title>
	<path
		d="M4.15479,0V.01807L.0235,5.70313H0V16.5835H13.519V0Zm.75.75H12.769V7.11719H.75V6.45313H4.90479ZM.844,7.86719h.65949v.72558H.844Zm1.596,0h.65949v.72558H2.43994Zm1.596,0h.65948v.72558H4.03589Zm1.596,0h.65948v.72558H5.63184Zm1.59594,0h.65949v.72558H7.22778Zm1.59595,0h.65942v.72558H8.82373Zm1.59589,0h.65948v.72558h-.65948Zm1.59594,0h.65949v.72558h-.65949Zm.65949,7.96631h-.65949v-.73h.65949Zm-1.596,0h-.65948v-.73h.65948Zm-1.596,0H8.82373v-.73h.65942Zm-1.59588,0H7.22778v-.73h.65949Zm-1.596,0H5.63184v-.73h.65948Zm-1.596,0H4.03589v-.73h.65948Zm-1.59594,0H2.43994v-.73h.65949Zm-1.59595,0H.844v-.73h.65949ZM.75,14.60889V9.0918H12.769v5.51709ZM4.15479,1.293V5.70313H.95Z"
		fill="#171717"/>
	<path d="M5.85938,9.31348v5.07324l2.543-2.53662Zm.75,1.80761.731.729-.73095.729Z" fill="#171717"/>
</svg>
