<svg xmlns="http://www.w3.org/2000/svg" viewBox="0 0 24 24"><title>FileXML</title><path d="M9.385,3.70835v.01758L5.2537,9.41147H5.2302V20.29136H18.74875V3.70835Zm0,1.293V9.41147H6.18015Zm8.61377,14.54H5.9802V10.16147H10.135V4.45835h7.86377Z" fill="#171717"/><polygon points="9.661 12.341 9.082 12.341 8.189 14.248 7.29 12.341 6.714 12.341 7.894 14.809 6.686 17.318 7.267 17.318 8.189 15.376 9.105 17.318 9.689 17.318 8.483 14.809 9.661 12.341" fill="#171717"/><polygon points="10.751 15.38 10.702 13.298 11.924 17.318 12.3 17.318 13.524 13.288 13.478 15.38 13.478 17.318 13.969 17.318 13.969 12.341 13.332 12.341 12.113 16.402 10.894 12.341 10.259 12.341 10.259 17.318 10.751 17.318 10.751 15.38" fill="#171717"/><polygon points="17.098 16.782 15.331 16.782 15.331 12.341 14.837 12.341 14.837 17.318 17.098 17.318 17.098 16.782" fill="#171717"/></svg>