<svg xmlns="http://www.w3.org/2000/svg" viewBox="0 0 13.51904 16.58301"><title>FileZip</title>
	<path d="M4.15479,0V.0166L.02313,5.70313H0V16.583H13.519V0Zm0,1.293V5.70313H.95032ZM12.769,15.833H.75V6.45313H4.90479V.75H12.769Z" fill="#171717"/>
	<path d="M7.90088,12.34473h-.7666v-.375h-.75v.375H5.61816V15.75H7.90088ZM7.15088,15H6.36816V13.09473h.78272Z" fill="#171717"/>
	<rect x="6.38428" y="1.46973" width="0.75" height="0.75" fill="#171717"/>
	<rect x="6.38428" y="2.96973" width="0.75" height="0.75" fill="#171717"/>
	<rect x="6.38428" y="4.46973" width="0.75" height="0.75" fill="#171717"/>
	<rect x="6.38428" y="5.96973" width="0.75" height="0.75" fill="#171717"/>
	<rect x="6.38428" y="7.46973" width="0.75" height="0.75" fill="#171717"/>
	<rect x="6.38428" y="8.96973" width="0.75" height="0.75" fill="#171717"/>
	<rect x="6.38428" y="10.46973" width="0.75" height="0.75" fill="#171717"/>
</svg>
