<svg xmlns="http://www.w3.org/2000/svg" viewBox="0 0 24.75 24.75"><defs><style>.cls-1{fill:none;stroke:#171717;stroke-miterlimit:10;stroke-width:0.75px;}.cls-2{fill:#171717;}</style></defs><title>FileZip</title><g id="Ebene_2" data-name="Ebene 2"><g id="Ebene_1-2" data-name="Ebene 1"><rect class="cls-1" x="0.375" y="0.375" width="24" height="24"/><path class="cls-2" d="M9.7431,4.0835v.0166L5.61145,9.78662H5.58831V20.66651H19.10736V4.0835Zm0,1.293V9.78662H6.53863Zm8.61426,14.54H6.33831V10.53662H10.4931V4.8335h7.86426Z"/><path class="cls-2" d="M13.48919,16.42822h-.7666v-.375h-.75v.375h-.76611V19.8335h2.28271Zm-.75,2.65528h-.78271V17.17822h.78271Z"/><rect class="cls-2" x="11.97259" y="5.55322" width="0.75" height="0.75"/><rect class="cls-2" x="11.97259" y="7.05322" width="0.75" height="0.75"/><rect class="cls-2" x="11.97259" y="8.55322" width="0.75" height="0.75"/><rect class="cls-2" x="11.97259" y="10.05322" width="0.75" height="0.75"/><rect class="cls-2" x="11.97259" y="11.55322" width="0.75" height="0.75"/><rect class="cls-2" x="11.97259" y="13.05322" width="0.75" height="0.75"/><rect class="cls-2" x="11.97259" y="14.55322" width="0.75" height="0.75"/></g></g></svg>
