<?xml version="1.0" encoding="UTF-8"?><svg id="a" xmlns="http://www.w3.org/2000/svg" viewBox="0 0 24 24"><path d="M7.93527,15.54818l1.40723,3.16895h-1.12891l-.90527-2.20117-.90527,2.20117h-1.12891l1.40625-3.16895-1.37109-3.11719h1.11621l.88281,2.16797.88281-2.16797h1.11523l-1.37109,3.11719ZM9.8298,18.71712h.9707v-1.71777l-.09668-2.96191,1.26758,4.67969h.66602l1.27051-4.68359-.09668,2.96582v1.71777h.97363v-6.28613h-1.27441l-1.20312,4.55957-1.20898-4.55957h-1.26855v6.28613ZM18.66183,17.67708h-2.05957v-5.24609h-.9707v6.28613h3.03027v-1.04004ZM20.74973,1.25033v21.5H3.24973v-13.78906L8.82297,1.25033h11.92676ZM5.4675,8.45443h2.98926v-4.13672l-2.98926,4.13672ZM19.24973,2.75033h-9.29297v7.2041h-5.20703v11.2959h14.5V2.75033Z"/></svg>