<svg xmlns="http://www.w3.org/2000/svg" viewBox="0 0 24.75 24.75"><defs><style>.cls-1{fill:none;stroke:#171717;stroke-miterlimit:10;stroke-width:0.75px;}</style></defs><title>FileDatabase</title><g id="Ebene_2" data-name="Ebene 2"><g id="Ebene_1-2" data-name="Ebene 1"><rect class="cls-1" x="0.375" y="0.375" width="24" height="24"/><path d="M13.28857,15.81641v5.082c0,.957,1.6587,1.457,3.29688,1.457s3.29687-.5,3.29687-1.457v-5.082C19.88232,13.90235,13.28857,13.90235,13.28857,15.81641Zm3.29688-.707c1.6543,0,2.54687.502,2.54687.707s-.89257.707-2.54687.707-2.54688-.502-2.54688-.707S14.93115,15.10938,16.58545,15.10938Zm-2.54688,1.666a6.81674,6.81674,0,0,0,5.09375,0v.73438c0,.20508-.89257.707-2.54687.707s-2.54688-.502-2.54688-.707Zm0,1.69336a6.81684,6.81684,0,0,0,5.09375,0v.73535c0,.20508-.89257.707-2.54687.707s-2.54688-.502-2.54688-.707Zm2.54688,3.13672c-1.6543,0-2.54688-.502-2.54688-.707v-.73535a6.81684,6.81684,0,0,0,5.09375,0v.73535C19.13232,21.10352,18.23975,21.60547,16.58545,21.60547Z"/><path d="M6.35547,10.54688h4.15478V4.84375H18.374v8.1377h.75V4.09375H9.76025L5.62793,9.79688,5.60547,20.67676h5.85107v-.75H6.35547ZM9.76025,5.38574V9.79688H6.55518Z"/></g></g></svg>
