<svg xmlns="http://www.w3.org/2000/svg" viewBox="0 0 24.75 24.75"><defs><style>.cls-1{fill:none;stroke:#171717;stroke-miterlimit:10;stroke-width:0.75px;}.cls-2{fill:#171717;}</style></defs><title>FileWord</title><g id="Ebene_2" data-name="Ebene 2"><g id="Ebene_1-2" data-name="Ebene 1"><rect class="cls-1" x="0.375" y="0.375" width="24" height="24"/><path class="cls-2" d="M9.77027,4.0835v.01709L5.639,9.78662h-.0235V20.667h13.519V4.0835Zm0,1.29248V9.78662H6.56543Zm8.61425,14.541H6.36548V10.53662h4.15479V4.8335h7.86425Z"/><path class="cls-2" d="M9.489,11.46143H7.3064l1.91015,7.53076h2.22364l.937-3.647.93262,3.647H15.533l1.91065-7.53076H15.261l-.91553,3.89209L13.33716,11.481H11.39282l-.99707,3.83252Zm1.39794,5.102c.0376-.228.084-.43067.12208-.59717L11.9729,12.231h.78418l.92774,3.5708c.03711.1665.08642.38574.1372.67334l.05567.31738.938-.02148.09326-.44287c.06445-.30469.11377-.53907.144-.709l.80176-3.40771h.625l-1.53028,6.03076H13.89185l-.84473-3.30225c-.0376-.11181-.09131-.373-.166-.7456l-.03125-.15576a4.8813,4.8813,0,0,1-.1001-.60754l-.74707.00011c-.01905.15186-.05713.418-.1333.7793-.07764.36865-.13526.62158-.17383.7749l-.8374,3.25684H9.80005L8.27027,12.21143h.625l.80127,3.40478c.07763.34033.14306.66309.19677.95215l.05615.30518.88477.00537Z"/></g></g></svg>
