<svg xmlns="http://www.w3.org/2000/svg" viewBox="0 0 24 24"><title>FileUser</title><path d="M16.28467,17.78906H14.61426a1.70212,1.70212,0,0,0-1.7002,1.7002v2.10449h.75V19.48926a.951.951,0,0,1,.9502-.9502h1.67041a.951.951,0,0,1,.95019.9502v2.10449h.75V19.48926A1.70211,1.70211,0,0,0,16.28467,17.78906Z" fill="#171717"/><path d="M17.33154,15.86621A1.88233,1.88233,0,1,0,15.44922,17.749,1.88382,1.88382,0,0,0,17.33154,15.86621Zm-3.01465,0A1.13233,1.13233,0,1,1,15.44922,16.999,1.13332,1.13332,0,0,1,14.31689,15.86621Z" fill="#171717"/><path d="M9.38525,3.71875,5.25293,9.42188,5.23047,20.30176h5.85107v-.75H5.98047V10.17188h4.15478V4.46875H17.999v8.1377h.75V3.71875Zm0,5.70313H6.18018L9.38525,5.01074Z" fill="#171717"/></svg>