<svg xmlns="http://www.w3.org/2000/svg" viewBox="0 0 24.75 24.75"><defs><style>.cls-1{fill:none;stroke:#171717;stroke-miterlimit:10;stroke-width:0.75px;}.cls-2{fill:#171717;}</style></defs><title>FileEPUB</title><g id="Ebene_2" data-name="Ebene 2"><g id="Ebene_1-2" data-name="Ebene 1"><rect class="cls-1" x="0.375" y="0.375" width="24" height="24"/><path class="cls-2" d="M9.77027,4.06641V4.084L5.639,9.76953h-.0235V20.6499h13.519V4.06641Zm0,1.29248V9.76953H6.56543Zm8.61425,14.541H6.36548V10.51953h4.15479V4.81641h7.86425Z"/><path class="cls-2" d="M8.89142,15.55518l3.2511,3.251a.46482.46482,0,0,0,.65753,0l2.92236-2.92187a.93041.93041,0,0,0,0-1.31543l-3.25109,3.251L9.87781,15.22656l2.59351-2.59326.96789.96778-1.48584,1.48584.65747.65771,1.81464-1.81494a.46494.46494,0,0,0,0-.65772L12.8,11.64649a.46562.46562,0,0,0-.65747,0L8.89142,14.898A.46468.46468,0,0,0,8.89142,15.55518Z"/></g></g></svg>
