<?xml version="1.0" encoding="UTF-8"?><svg id="a" xmlns="http://www.w3.org/2000/svg" viewBox="0 0 24 24"><path d="M4.75,9.95402h5.20654V2.74992h9.29346v9.35547h1.5V1.24992h-11.92676l-5.57324,7.71191v13.78809h17.50928v-1.5H4.75v-11.2959ZM8.45654,4.31828v4.13574h-2.98926l2.98926-4.13574ZM10.3252,13.98918c-.4043-.23145-.8623-.34668-1.375-.34668h-1.79395v5.8291h1.80566c.50977-.00195.96777-.11914,1.37305-.35156.40625-.23242.7207-.55957.94336-.98145s.33398-.90332.33398-1.44531v-.26855c0-.54102-.11328-1.02539-.33984-1.45117-.22754-.42578-.54297-.75391-.94727-.98438ZM10.39551,16.72941c-.00586.57129-.13184,1.00977-.38086,1.31738-.24805.30664-.60645.45996-1.07617.45996h-.58105v-3.8916h.59277c.47266,0,.83105.15332,1.07715.45898.24512.30566.36816.75488.36816,1.34668v.30859ZM16.08691,13.91301c-.37793-.23438-.80957-.35059-1.29492-.35059-.48633,0-.91797.11621-1.2959.35059-.37793.2334-.66992.56836-.87695,1.00488s-.30957.94141-.30957,1.51465v.28906c.00195.56055.10742,1.05664.31543,1.4873.20898.43066.50195.7627.88086.99512.37988.23242.81055.34766,1.29395.34766.48828,0,.9209-.11719,1.29883-.35156.37793-.23535.66797-.56836.87109-1.00098s.30469-.93555.30469-1.50977v-.26074c0-.57031-.10352-1.07422-.31055-1.51074s-.49902-.77148-.87695-1.00488ZM16.05664,16.70988c-.00293.60547-.1123,1.06641-.32812,1.38281s-.52637.47461-.92871.47461c-.41113,0-.72656-.16406-.94531-.49219s-.32812-.79102-.32812-1.38574v-.28418c.00293-.60547.11328-1.06543.33203-1.37891.21875-.31445.53027-.4707.93359-.4707.40527,0,.71777.1582.93652.47656.21875.31738.32812.78125.32812,1.39258v.28516ZM21.52148,17.53019h1.20117c-.04492.62695-.27637,1.12109-.69434,1.48145s-.96875.54004-1.65137.54004c-.74805,0-1.33594-.25098-1.76367-.75391-.42871-.50391-.64258-1.19434-.64258-2.07227v-.35645c0-.56055.09863-1.05469.2959-1.48145s.47949-.75488.84668-.98242c.36719-.22852.79395-.34277,1.2793-.34277.67285,0,1.21484.18066,1.62598.54004.41113.36133.64844.86719.71289,1.51758h-1.20117c-.03027-.37598-.13477-.64844-.31445-.81836-.18066-.16992-.45508-.25391-.82324-.25391-.40039,0-.7002.14258-.89844.42969-.19922.28711-.30176.73242-.30664,1.33594v.43945c0,.63086.0957,1.09082.28613,1.38184.19141.29102.49219.43652.90332.43652.37109,0,.64746-.08496.83008-.25391.18359-.16992.28809-.43164.31445-.78711Z"/></svg>