<?xml version="1.0" encoding="UTF-8"?><svg id="a" xmlns="http://www.w3.org/2000/svg" viewBox="0 0 24 24"><path d="M21.73563,15.72103l.70062-1.21387,1.29883.75-1.61816,2.80273h-3.23633v-1.5h1.61365c-.69421-1.04199-1.86444-1.69824-3.17029-1.69824-1.68262,0-3.14844,1.07812-3.64746,2.68359l-1.43164-.44531c.69434-2.23633,2.73633-3.73828,5.0791-3.73828,1.81628,0,3.44415.91113,4.41168,2.35938ZM17.32199,22.49935c-1.30585,0-2.47534-.65527-3.16937-1.69824h1.61371v-1.5h-3.23633l-1.61914,2.80371,1.29883.75.70135-1.21484c.96747,1.44922,2.59528,2.35938,4.41095,2.35938,2.34277,0,4.38477-1.50195,5.08008-3.7373l-1.43164-.44531c-.5,1.60449-1.96582,2.68262-3.64844,2.68262ZM19.24973,2.75033h-9.29297v7.20312h-5.20703v11.29688h5.1748v1.5H3.24973v-13.78906L8.82297,1.25033h11.92676v10.62695h-1.5V2.75033ZM8.45676,4.31771l-2.98926,4.13574h2.98926v-4.13574Z"/></svg>