<?xml version="1.0" encoding="UTF-8"?><svg id="a" xmlns="http://www.w3.org/2000/svg" viewBox="0 0 24 24"><path d="M4.74973,9.95443h5.20703V2.75033h9.29297v9.35547h1.5V1.25033h-11.92676l-5.57324,7.71094v13.78906h17.50977v-1.5H4.74973v-11.2959ZM8.45676,4.31771v4.13672h-2.98926l2.98926-4.13672ZM6.37375,19.47201l1.74219-2.93945-1.69824-2.89062h1.38184l1.09277,2.00977,1.09277-2.00977h1.38184l-1.69824,2.89062,1.74219,2.93945h-1.39746l-1.12109-2.04199-1.12109,2.04199h-1.39746ZM16.94406,17.87826l.12012-2.75098-1.57324,4.34473h-.8252l-1.56934-4.34082.12012,2.74707v1.59375h-1.20117v-5.83008h1.56934l1.49805,4.22852,1.48926-4.22852h1.57715v5.83008h-1.20508v-1.59375ZM22.94992,18.50716v.96484h-3.75195v-5.83008h1.20117v4.86523h2.55078Z"/></svg>