<svg xmlns="http://www.w3.org/2000/svg" viewBox="0 0 24 24"><title>FileExcel</title><path d="M9.38477,3.7085v.01709l-4.13129,5.686H5.23V20.292H18.749V3.7085Zm0,1.29248V9.41162H6.17993ZM17.999,19.542H5.98V10.16162h4.15479V4.4585H17.999Z" fill="#171717"/><path d="M10.63379,14.74317l-2.49463,3.874h2.41895l1.37207-2.22949,1.37207,2.22949h2.55664L13.2876,14.81592l2.36963-3.72949H13.21777L12.00488,13.1582,10.7583,11.08643H8.27686Zm1.37988-.11524,1.63379-2.7915H14.292l-1.90088,2.99219,2.05469,3.03857h-.72461l-1.791-2.91016-1.791,2.91016h-.625l2.01221-3.124L9.65283,11.83643h.68164Z" fill="#171717"/></svg>