<svg xmlns="http://www.w3.org/2000/svg" viewBox="0 0 24.75 24.75"><defs><style>.cls-1{fill:none;stroke:#171717;stroke-miterlimit:10;stroke-width:0.75px;}.cls-2{fill:#171717;}</style></defs><title>FilePDF</title><g id="Ebene_2" data-name="Ebene 2"><g id="Ebene_1-2" data-name="Ebene 1"><rect class="cls-1" x="0.375" y="0.375" width="24" height="24"/><path class="cls-2" d="M10.15955,17.05322c-.01465.00733-.3487.18457-.427.23145a2.38683,2.38683,0,0,0-1.17817,1.20508.29547.29547,0,0,0,.11255.32763l.18842.09522a.57724.57724,0,0,0,.257.06152c.47345,0,1.02276-.58984,1.78009-1.91113a17.69186,17.69186,0,0,1,2.74176-.65088,4.7315,4.7315,0,0,0,1.99786.63379A.92563.92563,0,0,0,15.867,17.02a.40644.40644,0,0,0,.23364-.15918.84654.84654,0,0,0,.093-.57129.38918.38918,0,0,0-.11255-.19336,1.56607,1.56607,0,0,0-1.0094-.23828,8.29273,8.29273,0,0,0-1.21363.08936,3.02934,3.02934,0,0,1-.5628-.38916A4.10663,4.10663,0,0,1,12.27857,13.981c.01464-.05762.02691-.10742.03912-.15918a10.25809,10.25809,0,0,0,.17865-1.84717.54241.54241,0,0,0-.0318-.13232l-.02081-.05371a.43728.43728,0,0,0-.39887-.30567L11.925,11.479h-.00244a.45066.45066,0,0,0-.46.28906,5.35027,5.35027,0,0,0,.28015,2.40869l-.07093.17139c-.197.48193-.44415.9663-.66192,1.39355l-.02814.05518c-.23.44873-.438.83056-.62762,1.15332Zm-1.15,1.5625A3.28585,3.28585,0,0,1,9.943,17.49854c.03179-.02588.1101-.09912.18109-.16748A3.37745,3.37745,0,0,1,9.00952,18.61572Zm6.06342-2.332a1.94209,1.94209,0,0,1,.63251.06836c.2716.06983.27526.21045.22754.23975a.70123.70123,0,0,1-.26551.04541,3.1125,3.1125,0,0,1-1.10107-.333C14.75116,16.291,14.92121,16.28369,15.07294,16.28369Zm-3.07086-4.56006c.15167,0,.23858.38331.24591.74268a1.52565,1.52565,0,0,1-.18109.79883,3.87662,3.87662,0,0,1-.12848-.99707S11.93231,11.72363,12.00208,11.72363Zm-.564,4.30909a11.2277,11.2277,0,0,0,.57745-1.26026,4.16653,4.16653,0,0,0,.95307,1.18311c.04773.03906.0979.07959.14929.12012a12.07229,12.07229,0,0,0-2.00891.55908Q11.26863,16.35058,11.43805,16.03272Z"/><path class="cls-2" d="M9.77027,4.06641V4.084L5.639,9.76953h-.0235V20.6499h13.519V4.06641Zm0,1.29248V9.76953H6.56543Zm8.61425,14.541H6.36548V10.51953h4.15479V4.81641h7.86425Z"/></g></g></svg>
