<svg xmlns="http://www.w3.org/2000/svg" viewBox="0 0 24 24"><title>FileWord</title><path d="M9.61755,15.90943,8.74567,12.2041H7.33887l1.72387,6.79639h1.6446l.9115-3.54687c.03961-.15845.09906-.416.17834-.79261s.1189-.65381.13867-.81238a6.62531,6.62531,0,0,0,.13873.79261c.07923.39636.13868.6737.17829.7926l.9115,3.56665H14.809L16.5329,12.2041H15.126l-.87183,3.70533c-.03967.21789-.09912.49536-.17834.87182l-.31958.00745c-.05945-.33692-.11634-.582-.156-.76038l-.99072-3.80444H11.24237l-.99078,3.80444c-.03961.19812-.11884.49536-.17829.852L9.818,16.87891C9.76349,16.58411,9.69678,16.25611,9.61755,15.90943Z" fill="#171717"/><path d="M8.82324,1.25025,3.25,8.96216V22.75025h17.5v-21.5Zm-.3667,3.06836V8.45435H5.46729ZM19.25,21.25025H4.75V9.95435H9.95654V2.75025H19.25Z" fill="#171717"/></svg>