<svg xmlns="http://www.w3.org/2000/svg" viewBox="0 0 24 24"><title>FileZip</title><path d="M9.38477,3.7085v.0166L5.25311,9.41162H5.23V20.29151H18.749V3.7085Zm0,1.293V9.41162H6.1803Zm8.61425,14.54H5.98V10.16162h4.15479V4.4585H17.999Z" fill="#171717"/><path d="M13.13086,16.05322h-.7666v-.375h-.75v.375h-.76612V19.4585h2.28272Zm-.75,2.65528h-.78272V16.80322h.78272Z" fill="#171717"/><rect x="11.61426" y="5.17822" width="0.75" height="0.75" fill="#171717"/><rect x="11.61426" y="6.67822" width="0.75" height="0.75" fill="#171717"/><rect x="11.61426" y="8.17822" width="0.75" height="0.75" fill="#171717"/><rect x="11.61426" y="9.67822" width="0.75" height="0.75" fill="#171717"/><rect x="11.61426" y="11.17822" width="0.75" height="0.75" fill="#171717"/><rect x="11.61426" y="12.67822" width="0.75" height="0.75" fill="#171717"/><rect x="11.61426" y="14.17822" width="0.75" height="0.75" fill="#171717"/></svg>