<svg xmlns="http://www.w3.org/2000/svg" viewBox="0 0 24 24"><title>FileEPUB</title><path d="M9.38477,3.69141V3.709L5.25348,9.39453H5.23V20.2749H18.749V3.69141Zm0,1.29248V9.39453H6.17993ZM17.999,19.5249H5.98V10.14453h4.15479V4.44141H17.999Z" fill="#171717"/><path d="M8.50592,15.18018l3.2511,3.251a.46482.46482,0,0,0,.65753,0l2.92236-2.92187a.93041.93041,0,0,0,0-1.31543l-3.25109,3.251L9.49231,14.85156l2.59351-2.59326.96789.96778-1.48584,1.48584.65747.65771L14.04,13.55469a.46494.46494,0,0,0,0-.65772l-1.62549-1.62548a.46562.46562,0,0,0-.65747,0L8.50592,14.523A.46468.46468,0,0,0,8.50592,15.18018Z" fill="#171717"/></svg>