<svg xmlns="http://www.w3.org/2000/svg" viewBox="0 0 13.51855 17.875"><title>FileUser</title>
	<path
		d="M11.0542,14.07031H9.38379a1.70212,1.70212,0,0,0-1.7002,1.7002V17.875h.75V15.77051a.951.951,0,0,1,.9502-.9502H11.0542a.951.951,0,0,1,.95019.9502V17.875h.75V15.77051A1.70211,1.70211,0,0,0,11.0542,14.07031Z"
		fill="#171717"/>
	<path
		d="M12.10107,12.14746a1.88232,1.88232,0,1,0-1.88232,1.88281A1.88382,1.88382,0,0,0,12.10107,12.14746Zm-3.01464,0a1.13232,1.13232,0,1,1,1.13232,1.13281A1.13332,1.13332,0,0,1,9.08643,12.14746Z"
		fill="#171717"/>
	<path d="M4.15479,0,.02246,5.70312,0,16.583H5.85107v-.75H.75V6.45312H4.90479V.75h7.86376V8.8877h.75V0Zm0,5.70312H.94971L4.15479,1.292Z" fill="#171717"/>
</svg>
