<svg xmlns="http://www.w3.org/2000/svg" viewBox="0 0 24.77717 24.78011"><defs><style>.cls-1{fill:none;stroke:#171717;stroke-miterlimit:10;stroke-width:0.75px;}.cls-2{fill:#171717;}</style></defs><title>FileImage</title><g id="Ebene_2" data-name="Ebene 2"><g id="Ebene_1-2" data-name="Ebene 1"><rect class="cls-1" x="0.40217" y="0.375" width="24" height="24"/><rect class="cls-1" x="0.375" y="0.40511" width="24" height="24"/><path class="cls-2" d="M8.80884,14.701a1.69068,1.69068,0,1,0-1.69043-1.69043A1.69242,1.69242,0,0,0,8.80884,14.701Zm0-2.63135a.94068.94068,0,1,1-.94043.94092A.9417.9417,0,0,1,8.80884,12.06966Z"/><path class="cls-2" d="M19.13452,15.70394V4.1136H9.77027v.01709L5.639,9.81673h-.0235V20.6971h13.52V15.70491ZM10.52027,4.8636h7.86425V15.12728L15.24,12.71028l-4.94433,3.80127L8.25318,14.94124l-1.8877,1.45117V10.56673h4.15479Zm-.75.54248V9.81673H6.56543ZM6.3689,19.9471V17.33577l1.88428-1.44824,2.04248,1.57031L15.24,13.65657l3.14453,2.41651v3.874Z"/></g></g></svg>
