<?xml version="1.0" encoding="UTF-8"?><svg id="a" xmlns="http://www.w3.org/2000/svg" viewBox="0 0 24 24"><path d="M8.41455,15.59003c.44629.30664.66943.83789.66943,1.59375v1.05957c.0127.7793.20703,1.25586.58398,1.42871l-.20947.80957c-.89795-.33691-1.34717-1.11133-1.34717-2.32324v-.99414c0-.70312-.22217-1.05469-.66602-1.05469v-1.0332c.43408,0,.65576-.33203.66602-.99414v-1.05957c0-.61621.1123-1.11426.33691-1.49316.22412-.37988.56104-.65527,1.01025-.8252l.20947.80469c-.18945.09375-.33301.25586-.43018.4873-.09766.23145-.14844.55176-.15381.96191v1.04883c0,.75293-.22314,1.28027-.66943,1.58301ZM12.25098,19.57245c.13672-.37695.20703-.75.20947-1.11914l.00342-.99902h-.91309v1.11816c-.00488.40332-.09082.80762-.25781,1.21484l-.13477.32422.56494.39453c.21436-.24609.39062-.55762.52783-.93359ZM11.95898,14.64667c.17969,0,.32666-.07129.44141-.21289s.17236-.3252.17236-.55176c0-.22949-.05811-.41602-.17432-.55957-.11572-.14355-.26221-.21484-.43945-.21484-.1748,0-.31982.07129-.43604.21484s-.17383.33008-.17383.55957c0,.22656.05713.41016.17188.55176s.26074.21289.43799.21289ZM14.81445,17.16425v1.05859c-.00977.78613-.20459,1.26953-.5835,1.44922l.20947.80957c.87793-.33008,1.32715-1.07812,1.34717-2.24316v-1.08398c0-.69629.22168-1.04492.66602-1.04492v-1.0332c-.43408,0-.65625-.33203-.66602-.99414v-1.07422c-.00293-.61328-.11621-1.1084-.34082-1.48633s-.56006-.65039-1.00635-.81738l-.20947.80469c.37891.18945.57373.67285.5835,1.44922v1.04395c0,.76953.22852,1.30078.68457,1.59375-.45605.29297-.68457.81543-.68457,1.56836ZM20.75,1.25018v21.5H3.25v-13.78809L8.82324,1.25018h11.92676ZM5.46729,8.45429h2.98926v-4.13574l-2.98926,4.13574ZM19.25,2.75018h-9.29346v7.2041h-5.20654v11.2959h14.5V2.75018Z"/></svg>