<svg xmlns="http://www.w3.org/2000/svg" viewBox="0 0 24.75 24.75"><defs><style>.cls-1{fill:none;stroke:#171717;stroke-miterlimit:10;stroke-width:0.75px;}</style></defs><title>FileCode</title><g id="Ebene_2" data-name="Ebene 2"><g id="Ebene_1-2" data-name="Ebene 1"><rect class="cls-1" x="0.375" y="0.375" width="24" height="24"/><path d="M9.77027,4.0835v.01709L5.639,9.78662h-.0235V20.667h13.519V4.0835Zm0,1.29248V9.78662H6.56543Zm8.61425,14.541H6.36548V10.53662h4.15479V4.8335h7.86425Z"/><polygon points="7.421 15.659 10.314 17.448 10.314 16.523 8.1 15.328 10.314 14.11 10.314 13.184 7.421 14.969 7.421 15.659"/><polygon points="13.622 11.494 13.063 11.494 10.912 18.959 11.475 18.959 13.622 11.494"/><polygon points="17.329 14.964 14.308 13.18 14.308 14.077 16.646 15.3 14.308 16.537 14.308 17.444 17.329 15.654 17.329 14.964"/></g></g></svg>
