<svg xmlns="http://www.w3.org/2000/svg" viewBox="0 0 24 24"><title>FileRefresh</title><path d="M16.479,20.06641a2.67676,2.67676,0,0,1-2.40356-1.51367l.60474-.00684-.00782-.75-1.39941.01465-.686,1.2207.65332.36719.22736-.40332a3.41013,3.41013,0,0,0,6.35175-.874l-.7334-.15821A2.67876,2.67876,0,0,1,16.479,20.06641Z" fill="#171717"/><path d="M16.479,13.98438a3.43451,3.43451,0,0,0-3.33935,2.69043l.7334.1582a2.66683,2.66683,0,0,1,5.00622-.59326l-.57214.00635.00879.75,1.39892-.01661.68653-1.21972-.65381-.36719-.2442.43408A3.43294,3.43294,0,0,0,16.479,13.98438Z" fill="#171717"/><path d="M5.98047,10.17188h4.15478V4.46875H17.999v8.1377h.75V3.71875H9.38525L5.25293,9.42188,5.23047,20.30176h5.85107v-.75H5.98047ZM9.38525,5.01074V9.42188H6.18018Z" fill="#171717"/></svg>