<svg xmlns="http://www.w3.org/2000/svg" viewBox="0 0 24 24"><title>FilePpt</title><path d="M9.652,19.00025h1.44647V16.58277h.61426a2.87718,2.87718,0,0,0,1.94183-.57459,2.10908,2.10908,0,0,0,.69354-1.6842,1.93727,1.93727,0,0,0-.65393-1.58521,2.88083,2.88083,0,0,0-1.88238-.535H9.652Zm1.44647-5.60767h.65387a1.31045,1.31045,0,0,1,.87183.23779.97211.97211,0,0,1,.27746.75305.94737.94737,0,0,1-.33685.77271,1.55709,1.55709,0,0,1-.99079.25757h-.47552Z" fill="#171717"/><path d="M8.82324,1.25025,3.25,8.96216V22.75025h17.5v-21.5Zm-.3667,3.06836V8.45435H5.46729ZM19.25,21.25025H4.75V9.95435H9.95654V2.75025H19.25Z" fill="#171717"/></svg>