<svg xmlns="http://www.w3.org/2000/svg" viewBox="0 0 13.51904 16.5835"><title>FileWord</title>
	<path d="M4.15479,0V.01709L.0235,5.70313H0V16.5835H13.519V0Zm0,1.29248V5.70313H.95ZM12.769,15.8335H.75V6.45313H4.90479V.75H12.769Z" fill="#171717"/>
	<path
		d="M3.87354,7.37793H1.69092l1.91015,7.53076H5.82471l.937-3.647.93262,3.647H9.91748l1.91065-7.53076H9.64551L8.73,11.27,7.72168,7.39746H5.77734L4.78027,11.23ZM5.27148,12.48c.0376-.228.084-.43066.12207-.59717l.96387-3.73535H7.1416l.92774,3.5708c.03711.16651.08642.38574.1372.67334l.05567.31738.938-.02148.09326-.44287c.06445-.30469.11377-.53906.144-.709l.80176-3.40771h.625L9.334,14.15869H8.27637l-.84473-3.30224c-.0376-.11182-.09131-.37305-.166-.74561l-.03125-.15576a4.88153,4.88153,0,0,1-.1001-.60753l-.74707.00011c-.01905.15185-.05713.418-.1333.77929-.07764.36866-.13526.62159-.17383.77491l-.8374,3.25683H4.18457L2.65479,8.12793h.625l.80126,3.40478c.07764.34034.14307.66309.19678.95215L4.334,12.79l.88477.00537Z"
		fill="#171717"/>
</svg>
