<?xml version="1.0" encoding="UTF-8"?><svg id="a" xmlns="http://www.w3.org/2000/svg" viewBox="0 0 24 24"><path d="M13.72922,15.27669c.07129-.07129.08203-.1543.08203-.19727s-.01074-.12598-.08203-.19629l1.06055-1.06152c.33594.33594.52148.78223.52148,1.25781s-.18555.92285-.52148,1.25879l-1.06055-1.06152ZM9.33469,12.81185l3.42578-3.42969v11.39551l-3.43652-3.44141h-3.03223v-4.52441h3.04297ZM8.8923,14.31185h-1.10059v1.52441h1.10059v-1.52441ZM10.3923,16.28451l.86816.86914v-4.14746l-.86816.86914v2.40918ZM20.74973,1.25033v21.5H3.24973v-13.78906L8.82297,1.25033h11.92676ZM5.4675,8.45345h2.98926v-4.13574l-2.98926,4.13574ZM19.24973,2.75033h-9.29297v7.20312h-5.20703v11.29688h14.5V2.75033ZM15.21262,17.47884l1.06055,1.06055c.92578-.92578,1.43555-2.15625,1.43555-3.46582,0-1.30859-.50977-2.53906-1.43555-3.46484l-1.06055,1.06152c.64258.6416.99609,1.49512.99609,2.40332s-.35352,1.7627-.99609,2.40527Z"/></svg>