<?xml version="1.0" encoding="UTF-8"?><svg id="a" xmlns="http://www.w3.org/2000/svg" viewBox="0 0 24 24"><path d="M9.81799,16.87891l.25531.00146c.05945-.35669.13867-.65393.17828-.85205l.99078-3.80444h1.36719l.99072,3.80444c.03967.17834.09656.42346.15601.76038l.31958-.00745c.07922-.37646.13867-.65393.17834-.87183l.87183-3.70532h1.40686l-1.72388,6.79639h-1.64465l-.9115-3.56665c-.03961-.1189-.09906-.39624-.17828-.7926-.07928-.39624-.13873-.67371-.13873-.7926-.01978.15857-.05945.43591-.13867.81238-.07928.37659-.13873.63416-.17834.7926l-.9115,3.54688h-1.64459l-1.72388-6.79639h1.4068l.87189,3.70532c.07922.34668.14594.67468.20044.96948ZM20.75,1.25025v21.5H3.25v-13.78809L8.82324,1.25025h11.92676ZM5.46729,8.45435h2.98926v-4.13574l-2.98926,4.13574ZM19.25,2.75025h-9.29346v7.2041h-5.20654v11.2959h14.5V2.75025Z"/></svg>