<?xml version="1.0" encoding="UTF-8"?><svg id="a" xmlns="http://www.w3.org/2000/svg" viewBox="0 0 24 24"><path d="M4.75015,9.95443h5.20605V2.75033h9.29395v9.35547h1.5V1.25033h-11.92773l-5.57227,7.71094v13.78906h17.50879v-1.5H4.75015v-11.2959ZM8.45621,4.31868v4.13574h-2.98828l2.98828-4.13574ZM8.93863,16.31283v.44043c0,.62988.0957,1.08984.28613,1.38086.19141.29102.49219.43652.90332.43652.37109,0,.64746-.08496.83008-.25391.18359-.16992.28809-.43164.31445-.78711h1.20117c-.04492.62695-.27637,1.12109-.69434,1.48145s-.96875.54102-1.65137.54102c-.74805,0-1.33594-.25195-1.76367-.75488-.42871-.50293-.64258-1.19434-.64258-2.07227v-.35645c0-.56055.09863-1.05469.2959-1.48145s.47949-.75488.84668-.98242c.36719-.22852.79395-.34277,1.2793-.34277.67285,0,1.21484.18066,1.62598.54102s.64844.86621.71289,1.5166h-1.20117c-.03027-.37598-.13477-.64844-.31445-.81836-.18066-.16992-.45508-.25391-.82324-.25391-.40039,0-.7002.14355-.89844.42969-.19922.28711-.30176.73242-.30664,1.33594ZM14.64468,14.7054c-.16309.12402-.24512.28711-.24512.49023,0,.18945.0957.34863.28711.47656.19043.12793.47168.24805.84277.36035.68262.20508,1.18066.45996,1.49316.76465.3125.30371.46875.68359.46875,1.13672,0,.50488-.19141.90039-.57324,1.1875s-.89551.43066-1.54102.43066c-.44824,0-.85742-.08203-1.22559-.24707-.36816-.16406-.64941-.38867-.84277-.67383-.19336-.28613-.29004-.61719-.29004-.99316h1.20508c0,.64355.38477.96484,1.15332.96484.28516,0,.50781-.05859.66797-.17383.16016-.11621.24023-.27832.24023-.4873,0-.22656-.08008-.40039-.24023-.52246-.16016-.12109-.44824-.24902-.86426-.38379-.41699-.13477-.74609-.26758-.98926-.39844-.66211-.35742-.99316-.83984-.99316-1.44531,0-.31543.08887-.5957.2666-.84277s.43262-.44043.76465-.5791.70508-.20801,1.11914-.20801c.41699,0,.78711.0752,1.11328.22656.3252.15039.57812.36328.75879.63867.17969.27441.27051.58691.27051.93652h-1.20117c0-.2666-.08496-.47461-.25293-.62305-.16797-.14746-.4043-.22168-.70801-.22168-.29395,0-.52246.06152-.68457.18652ZM23.11636,13.64193l-2.03027,5.83008h-1.25293l-2.02148-5.83008h1.33301l1.31348,4.38477,1.32129-4.38477h1.33691Z"/></svg>