<svg xmlns="http://www.w3.org/2000/svg" viewBox="0 0 24 24"><title>FileAudio</title><path d="M9.38477,3.7085v.01709l-4.13129,5.686H5.23V20.292H18.749V3.7085Zm0,1.29248V9.41162H6.17993ZM17.999,19.542H5.98V10.16162h4.15479V4.4585H17.999Z" fill="#171717"/><path d="M15.251,17.31934a3.57063,3.57063,0,0,0,0-5.04981l-.53028.53028a2.82088,2.82088,0,0,1,0,3.98925Z" fill="#171717"/><path d="M13.87207,15.94043a1.61968,1.61968,0,0,0,0-2.292l-.53027.53027a.87.87,0,0,1,0,1.23145Z" fill="#171717"/><path d="M7.68213,13.22608v3.24218h2.70544L12.874,18.958V10.74512l-2.47766,2.481Zm2.4917,2.49218H8.43213V13.97608h1.7417ZM12.124,17.146l-1.20019-1.20215V13.75879L12.124,12.55762Z" fill="#171717"/></svg>