<svg xmlns="http://www.w3.org/2000/svg" viewBox="0 0 13.51904 16.5835"><title>FileExcel</title>
	<path d="M4.15479,0V.01709L.0235,5.70313H0V16.5835H13.519V0Zm0,1.29248V5.70313H.95ZM12.769,15.8335H.75V6.45313H4.90479V.75H12.769Z" fill="#171717"/>
	<path
		d="M5.40381,11.03467l-2.49463,3.874H5.32813L6.7002,12.6792l1.37207,2.22949h2.55664L8.05762,11.10742l2.36963-3.72949H7.98779L6.7749,9.44971,5.52832,7.37793H3.04688Zm1.37988-.11524,1.63379-2.7915H9.062L7.16113,11.12012l2.05469,3.03857H8.49121l-1.791-2.91015-1.791,2.91015h-.625l2.01221-3.124L4.42285,8.12793h.68164Z"
		fill="#171717"/>
</svg>
