<svg xmlns="http://www.w3.org/2000/svg" viewBox="0 0 24 24"><title>FileAudio</title><path d="M14.78976,16.33822a1.77883,1.77883,0,0,0,0-2.51661l-1.06054,1.06153a.27476.27476,0,0,1,.082.19629.27811.27811,0,0,1-.082.19726Z" fill="#171717"/><path d="M6.29172,12.81185v4.52441H9.32394l3.43653,3.44141V9.38216L9.33469,12.81185ZM8.8923,15.83626H7.79172V14.31185H8.8923Zm1.5-1.96093.86817-.86915v4.14747l-.86817-.86914Z" fill="#171717"/><path d="M8.823,1.25033,3.24973,8.96126V22.75033h17.5v-21.5ZM8.45676,4.31771V8.45345H5.4675Zm10.793,16.93262h-14.5V9.95345h5.207V2.75033h9.293Z" fill="#171717"/><path d="M15.21262,17.47884l1.06054,1.06055a4.90033,4.90033,0,0,0,0-6.93067l-1.06054,1.06153a3.39971,3.39971,0,0,1,0,4.80859Z" fill="#171717"/></svg>