<svg xmlns="http://www.w3.org/2000/svg" viewBox="0 0 24 24"><title>FileRefresh</title><path d="M17.32394,13.36165a5.29281,5.29281,0,0,0-5.0791,3.73828l1.43164.44532a3.81538,3.81538,0,0,1,6.81775-.98535H18.88058v1.5h3.23633l1.61817-2.80274-1.29883-.75L21.73563,15.721A5.28813,5.28813,0,0,0,17.32394,13.36165Z" fill="#171717"/><path d="M17.322,22.49935a3.793,3.793,0,0,1-3.16937-1.69824h1.61371v-1.5H12.53l-1.61914,2.80371,1.29883.75L12.911,21.64a5.31356,5.31356,0,0,0,9.491-1.37793l-1.43164-.44531A3.80326,3.80326,0,0,1,17.322,22.49935Z" fill="#171717"/><path d="M19.24973,11.87728h1.5V1.25033H8.823L3.24973,8.96126V22.75033h6.6748v-1.5H4.74973V9.95345h5.207V2.75033h9.293ZM8.45676,8.45345H5.4675L8.45676,4.31771Z" fill="#171717"/></svg>