<?xml version="1.0" encoding="UTF-8"?><svg id="a" xmlns="http://www.w3.org/2000/svg" viewBox="0 0 24 24"><path d="M7.32758,15.1037l4.1626-4.16211c.13623-.13574.31738-.20996.50928-.20996.19238,0,.37305.07422.50928.20996l2.08154,2.08105c.13623.13672.21143.31738.21143.50977s-.0752.37305-.21143.50977l-2.41162,2.41211-1.01904-1.01855,1.90283-1.90332-1.06299-1.0625-3.14404,3.14453,3.14404,3.14355,4.16309-4.16309.08838.08789c.24854.24902.38574.5791.38525.93164,0,.35156-.13672.68164-.38525.93066l-3.7417,3.74121c-.13574.13574-.31689.21094-.50928.21094s-.37354-.0752-.50977-.21191l-4.1626-4.16113c-.28076-.28223-.28027-.73926,0-1.02051ZM20.75,1.25018v21.5H3.25v-13.78809L8.82324,1.25018h11.92676ZM5.46729,8.45429h2.98926v-4.13574l-2.98926,4.13574ZM19.25,2.75018h-9.29346v7.2041h-5.20654v11.2959h14.5V2.75018Z"/></svg>