<svg xmlns="http://www.w3.org/2000/svg" viewBox="0 0 13.52002 16.5835"><title>FileImage</title>
	<path
		d="M3.19336,10.5874A1.69068,1.69068,0,1,0,1.50293,8.897,1.69242,1.69242,0,0,0,3.19336,10.5874Zm0-2.63135a.94068.94068,0,1,1-.94043.94092A.94171.94171,0,0,1,3.19336,7.95605Z"
		fill="#171717"/>
	<path
		d="M13.519,11.59033V0H4.15479V.01709L.0235,5.70313H0V16.5835H13.52V11.59131ZM4.90479.75H12.769V11.01367l-3.14453-2.417L4.68018,12.398,2.6377,10.82764.75,12.27881V6.45313H4.90479Zm-.75.54248V5.70313H.95ZM.75342,15.8335V13.22217L2.6377,11.77393l2.04248,1.57031L9.62451,9.543l3.14453,2.4165v3.874Z"
		fill="#171717"/>
</svg>
