<svg xmlns="http://www.w3.org/2000/svg" viewBox="0 0 24 24"><title>FileCode</title><path d="M9.38477,3.7085v.01709l-4.13129,5.686H5.23V20.292H18.749V3.7085Zm0,1.29248V9.41162H6.17993ZM17.999,19.542H5.98V10.16162h4.15479V4.4585H17.999Z" fill="#171717"/><polygon points="7.036 15.284 9.929 17.073 9.929 16.148 7.715 14.953 9.929 13.735 9.929 12.809 7.036 14.594 7.036 15.284" fill="#171717"/><polygon points="13.236 11.119 12.677 11.119 10.527 18.584 11.089 18.584 13.236 11.119" fill="#171717"/><polygon points="16.943 14.589 13.923 12.805 13.923 13.702 16.26 14.925 13.923 16.162 13.923 17.069 16.943 15.279 16.943 14.589" fill="#171717"/></svg>