<?xml version="1.0" encoding="UTF-8"?><svg id="a" xmlns="http://www.w3.org/2000/svg" viewBox="0 0 24 24"><path d="M4.7498,9.95364h5.20605V2.75051h9.29395v9.25195h1.5V1.25051h-11.92773l-5.57227,7.71094v13.78906h6.7998v-1.5h-5.2998v-11.29688ZM8.45586,4.31887v4.13477h-2.98828l2.98828-4.13477ZM11.36211,13.40579v10.59375h10.6377v-10.59375h-10.6377ZM20.4998,14.90579v3.04688h-7.6377v-3.04688h7.6377ZM12.86211,22.49954v-3.04688h7.6377v3.04688h-7.6377ZM13.93633,16.47317c0-.44727.36438-.8125.81219-.8125.44788,0,.81226.36523.81226.8125,0,.44824-.36438.8125-.81226.8125-.44781,0-.81219-.36426-.81219-.8125ZM15.56078,20.97317c0,.44824-.36438.8125-.81226.8125-.44781,0-.81219-.36426-.81219-.8125,0-.44727.36438-.8125.81219-.8125.44788,0,.81226.36523.81226.8125Z"/></svg>