<?xml version="1.0" encoding="UTF-8"?><svg id="a" xmlns="http://www.w3.org/2000/svg" viewBox="0 0 24 24"><path d="M8.82297,1.25033l-5.57324,7.71094v13.78906h6.6748v-1.5h-5.1748v-11.29688h5.20703V2.75033h9.29297v9.12695h1.5V1.25033h-11.92676ZM8.45676,8.45345h-2.98926l2.98926-4.13574v4.13574ZM16.96494,18.22689c.72821-.47168,1.2135-1.28809,1.2135-2.21875,0-1.45898-1.1875-2.64648-2.64648-2.64648s-2.64648,1.1875-2.64648,2.64648c0,.93066.48529,1.74707,1.2135,2.21875-1.07648.20508-1.89319,1.15039-1.89319,2.28613v2.73633h1.5v-2.73633c0-.45801.37207-.83008.83008-.83008h1.99219c.45801,0,.83105.37207.83105.83008v2.73633h1.5v-2.73633c0-1.13574-.81744-2.08105-1.89417-2.28613ZM15.53195,17.15462c-.63184,0-1.14648-.51465-1.14648-1.14648s.51465-1.14648,1.14648-1.14648,1.14648.51465,1.14648,1.14648-.51465,1.14648-1.14648,1.14648Z"/></svg>