<svg xmlns="http://www.w3.org/2000/svg" viewBox="0 0 24 24"><title>FileDatabase (Intern)</title><path d="M12.91357,15.44141v5.082c0,.957,1.6587,1.457,3.29688,1.457s3.29687-.5,3.29687-1.457v-5.082C19.50732,13.52735,12.91357,13.52735,12.91357,15.44141Zm3.29688-.707c1.6543,0,2.54687.502,2.54687.707s-.89257.707-2.54687.707-2.54688-.502-2.54688-.707S14.55615,14.73438,16.21045,14.73438Zm-2.54688,1.666a6.81674,6.81674,0,0,0,5.09375,0v.73438c0,.20508-.89257.707-2.54687.707s-2.54688-.502-2.54688-.707Zm0,1.69336a6.81684,6.81684,0,0,0,5.09375,0v.73535c0,.20508-.89257.707-2.54687.707s-2.54688-.502-2.54688-.707Zm2.54688,3.13672c-1.6543,0-2.54688-.502-2.54688-.707v-.73535a6.81684,6.81684,0,0,0,5.09375,0v.73535C18.75732,20.72852,17.86475,21.23047,16.21045,21.23047Z" fill="#171717"/><path d="M5.98047,10.17188h4.15478V4.46875H17.999v8.1377h.75V3.71875H9.38525L5.25293,9.42188,5.23047,20.30176h5.85107v-.75H5.98047ZM9.38525,5.01074V9.42188H6.18018Z" fill="#171717"/></svg>