<?xml version="1.0" encoding="UTF-8"?><svg id="a" xmlns="http://www.w3.org/2000/svg" viewBox="0 0 24 24"><path d="M4.74973,9.95443h5.20703V2.75033h9.29883l.06641,9.28809,1.5-.01074-.07812-10.77734h-11.9209l-5.57324,7.71094-.02441,13.78906h17.53418v-1.5H4.74973v-11.2959ZM8.45676,4.31771v4.13672h-2.98926l2.98926-4.13672ZM6.91983,14.84505v1.35547h2.02539v.91797h-2.02539v1.52344h2.37695v.94141h-3.43164v-5.6875h3.42383v.94922h-2.36914ZM12.85342,14.13021c-.29102-.15625-.62988-.23438-1.01367-.23438h-1.99707v5.6875h1.05469v-2.00391h.9248c.60645,0,1.08203-.16016,1.42578-.48242.34277-.32129.51465-.76074.51465-1.31836,0-.36719-.07812-.69434-.23535-.98242-.15723-.28711-.38184-.50977-.67383-.66602ZM12.47745,16.41146c-.14648.14648-.35938.21875-.6377.21875h-.94238v-1.78516h.9668c.25977.00586.46387.09375.61133.26562.14844.17188.22168.39746.22168.67578,0,.27148-.07324.47949-.21973.625ZM15.42081,13.89583v3.75391c0,.37305.08008.64453.24023.81445.16113.1709.38281.25586.66602.25586.59375,0,.89453-.3457.9043-1.03906v-3.78516h1.05762v3.74609c0,.62305-.1748,1.11523-.52539,1.47656-.35059.3623-.8291.54297-1.43652.54297-.59766,0-1.07227-.17578-1.42383-.52734s-.53027-.83398-.53711-1.44922v-3.78906h1.05469ZM22.65909,17.09896c-.15137-.2207-.3584-.36816-.62012-.44141.22949-.09863.4082-.25391.53711-.4668.12891-.21191.19336-.45703.19336-.73633,0-.50977-.16016-.89746-.48145-1.16211-.32129-.26367-.79199-.39648-1.41309-.39648h-1.79297v5.6875h1.99023c.58105-.00488,1.02832-.14844,1.34277-.42969.31348-.28125.4707-.69531.4707-1.24219,0-.32031-.0752-.59082-.22656-.8125ZM20.13663,14.84505h.73828c.29102,0,.50293.05664.6377.16992s.20215.29883.20215.55664c0,.46094-.26562.69727-.79785.70703h-.78027v-1.43359ZM21.62198,18.44466c-.13965.13184-.33301.19727-.58203.19727h-.90332v-1.53516h.9668c.48535.00781.72754.27246.72754.79297,0,.23242-.06934.41406-.20898.54492Z"/></svg>