<svg xmlns="http://www.w3.org/2000/svg" viewBox="0 0 24 24"><title>FilePdf</title><path d="M8.82324,1.25018,3.25,8.9621V22.75018h17.5v-21.5Zm-.3667,3.06836V8.45429H5.46729ZM19.25,21.25018H4.75V9.95429H9.95654V2.75018H19.25Z" fill="#171717"/><path d="M9.72205,17.47955c-.84223.34852-2.61377,1.16169-2.759,2.0329a.77621.77621,0,0,0,.2323.72608,1.1155,1.1155,0,0,0,.72608.26135c1.07452,0,2.12-1.48114,2.84613-2.72992a19.28027,19.28027,0,0,1,2.52661-.668A4.017,4.017,0,0,0,15.937,18.23462c.697,0,.95838-.2904,1.04553-.55182a.75535.75535,0,0,0-.1452-.84216c-.75513-.78418-2.81708-.46472-3.31079-.40662a8.77955,8.77955,0,0,1-1.394-1.82965,8.44192,8.44192,0,0,0,.46466-2.41046c0-.72607-.29041-1.51019-1.10358-1.51019a.84394.84394,0,0,0-.697.40661,3.92971,3.92971,0,0,0,.34851,3.07843A20.97777,20.97777,0,0,1,9.72205,17.47955ZM7.74719,19.94812a.41269.41269,0,0,1-.17425-.0581.22053.22053,0,0,1-.0871-.26136c.0871-.40661.84216-.95843,2.00385-1.48114C8.82172,19.2511,8.12476,19.94812,7.74719,19.94812Zm7.95752-3.10748c.2323.058.46466.20325.40656.49371-.02906.20325-.29041.40656-.75507.29041a3.98272,3.98272,0,0,1-1.48114-.75513A6.25207,6.25207,0,0,1,15.70471,16.84064Zm-2.90423-.29047c0,.02906-.90027.20331-1.59729.43567a16.20981,16.20981,0,0,0,.668-1.62634A7.40314,7.40314,0,0,0,12.80048,16.55017Zm-1.53919-5.19848a.29615.29615,0,0,1,.2323-.14521c.26141,0,.31946.31946.31946.58081a6.38128,6.38128,0,0,1-.34851,1.8006A3.155,3.155,0,0,1,11.26129,11.35169Z" fill="#171717"/></svg>