<?xml version="1.0" encoding="UTF-8"?><svg id="a" xmlns="http://www.w3.org/2000/svg" viewBox="0 0 24 24"><path d="M4.75,9.95402h5.20654V2.74992h9.29346v9.35547h1.5V1.24992h-11.92676l-5.57324,7.71191v13.78809h17.50928v-1.5H4.75v-11.2959ZM8.45654,4.31828v4.13574h-2.98926l2.98926-4.13574ZM7.55664,19.4716l1.74219-2.93848-1.69824-2.89062h1.38184l1.09277,2.00977,1.09277-2.00977h1.38184l-1.69824,2.89062,1.74219,2.93848h-1.39746l-1.12109-2.04102-1.12109,2.04102h-1.39746ZM14.39941,13.6425v4.86426h2.55078v.96484h-3.75195v-5.8291h1.20117ZM21.39844,16.79777c.3125.30371.46875.68359.46875,1.13672,0,.50488-.19141.90039-.57324,1.1875s-.89551.42969-1.54102.42969c-.44824,0-.85742-.08203-1.22559-.24609s-.64941-.38867-.84277-.67383c-.19336-.28613-.29004-.61719-.29004-.99316h1.20508c0,.64355.38477.96484,1.15332.96484.28516,0,.50781-.05859.66797-.1748.16016-.11523.24023-.27734.24023-.48633,0-.22656-.08008-.40039-.24023-.52246-.16016-.12109-.44824-.24902-.86426-.38379-.41699-.13477-.74609-.26758-.98926-.39844-.66211-.35742-.99316-.83984-.99316-1.44531,0-.31543.08887-.5957.2666-.84375.17773-.24609.43262-.43945.76465-.57812s.70508-.20801,1.11914-.20801c.41699,0,.78711.0752,1.11328.22559.3252.15137.57812.36426.75879.63867.17969.27539.27051.58789.27051.9375h-1.20117c0-.26758-.08496-.47461-.25293-.62305-.16797-.14746-.4043-.22168-.70801-.22168-.29395,0-.52246.06152-.68457.18652-.16309.12305-.24512.28711-.24512.49023,0,.18945.0957.34766.28711.47656.19043.12793.47168.24805.84277.35938.68262.20605,1.18066.46094,1.49316.76562Z"/></svg>