<svg xmlns="http://www.w3.org/2000/svg" viewBox="0 0 13.51904 16.5835"><title>FileAudio</title>
	<path d="M4.15479,0V.01709L.0235,5.70313H0V16.5835H13.519V0Zm0,1.29248V5.70313H.95ZM12.769,15.8335H.75V6.45313H4.90479V.75H12.769Z" fill="#171717"/>
	<path d="M10.021,13.61084a3.57065,3.57065,0,0,0,0-5.0498l-.53028.53027a2.82091,2.82091,0,0,1,0,3.98926Z" fill="#171717"/>
	<path d="M8.64209,12.23193a1.61968,1.61968,0,0,0,0-2.292l-.53027.53027a.87.87,0,0,1,0,1.23145Z" fill="#171717"/>
	<path
		d="M2.45215,9.51758v3.24219H5.15759L7.644,15.24951V7.03662l-2.47766,2.481Zm2.4917,2.49219H3.20215V10.26758h1.7417ZM6.894,13.4375,5.69385,12.23535V10.05029L6.894,8.84912Z"
		fill="#171717"/>
</svg>
