<svg xmlns="http://www.w3.org/2000/svg" viewBox="0 0 13.51904 16.5835"><title>FileCode</title>
	<path d="M4.15479,0V.01709L.0235,5.70313H0V16.5835H13.519V0Zm0,1.29248V5.70313H.95ZM12.769,15.8335H.75V6.45313H4.90479V.75H12.769Z" fill="#171717"/>
	<polygon points="1.806 11.575 4.699 13.365 4.699 12.439 2.485 11.245 4.699 10.026 4.699 9.101 1.806 10.886 1.806 11.575" fill="#171717"/>
	<polygon points="8.006 7.41 7.448 7.41 5.297 14.876 5.859 14.876 8.006 7.41" fill="#171717"/>
	<polygon points="11.713 10.881 8.693 9.096 8.693 9.993 11.031 11.216 8.693 12.454 8.693 13.36 11.713 11.57 11.713 10.881" fill="#171717"/>
</svg>
