<svg xmlns="http://www.w3.org/2000/svg" viewBox="0 0 24 24"><title>FileVideo</title><path d="M9.38477,3.708v.01807L5.25348,9.41113H5.23V20.29151H18.749V3.708Zm.75.75H17.999V10.8252H5.98v-.66407h4.15479ZM6.074,11.5752h.65949v.72558H6.074Zm1.596,0h.65949v.72558H7.66992Zm1.59595,0h.65948v.72558H9.26587Zm1.596,0h.65948v.72558h-.65948Zm1.59594,0h.65949v.72558h-.65949Zm1.596,0h.65942v.72558h-.65942Zm1.59589,0h.65948v.72558H15.6496Zm1.59594,0H17.905v.72558h-.65949Zm.65949,7.96631h-.65949v-.73H17.905Zm-1.59595,0H15.6496v-.73h.65948Zm-1.596,0h-.65942v-.73h.65942Zm-1.59588,0h-.65949v-.73h.65949Zm-1.596,0h-.65948v-.73h.65948Zm-1.596,0H9.26587v-.73h.65948Zm-1.59594,0H7.66992v-.73h.65949Zm-1.59595,0H6.074v-.73h.65949ZM5.98,18.3169V12.79981H17.999V18.3169ZM9.38477,5.001V9.41113H6.17993Z" fill="#171717"/><path d="M11.08936,13.02149v5.07324l2.543-2.53662Zm.75,1.80761.731.729-.73095.729Z" fill="#171717"/></svg>