<?xml version="1.0" encoding="UTF-8"?><svg id="a" xmlns="http://www.w3.org/2000/svg" viewBox="0 0 24 24"><path d="M8.82324,1.25018l-5.57324,7.71191v13.78809h17.5V1.25018h-11.92676ZM8.45654,4.31854v4.13574h-2.98926l2.98926-4.13574ZM19.25,21.25018H4.75v-11.2959h5.20654V2.75018h9.29346v18.5ZM9.72205,17.47955c-.84222.34851-2.61377,1.16168-2.75897,2.0329-.05811.26141.02905.52277.2323.72607.20331.17426.46472.26135.72607.26135,1.07452,0,2.12006-1.48114,2.84613-2.72992.60986-.20331,1.56824-.49371,2.52661-.66797,1.13263.98743,2.12006,1.13263,2.64282,1.13263.69702,0,.95837-.29041,1.04553-.55182.1452-.29041.05804-.60986-.1452-.84216-.75513-.78418-2.81708-.46472-3.31079-.40662-.72607-.69702-1.21979-1.53925-1.39404-1.82965.26141-.78412.43567-1.56824.46466-2.41046,0-.72607-.29041-1.51019-1.10358-1.51019-.29041,0-.55176.17426-.69702.40662-.34845.60986-.20325,1.82959.34851,3.07843-.31946.90027-.60986,1.77155-1.42303,3.31079ZM7.74719,19.94812c-.05811,0-.11615-.02905-.17426-.05811-.0871-.05811-.11615-.1452-.0871-.26135.0871-.40662.84216-.95844,2.00385-1.48114-.66797,1.10358-1.36493,1.8006-1.74249,1.8006ZM15.70471,16.84064c.2323.05804.46466.20325.40656.49371-.02905.20325-.29041.40656-.75507.29041-.55182-.1452-1.04553-.40662-1.48114-.75513.3775-.05804,1.21973-.1452,1.82965-.02899ZM12.80048,16.55017c0,.02905-.90027.20331-1.59729.43567.23236-.46466.55182-1.27789.66797-1.62634.26135.43561.69702.95837.92932,1.19067ZM11.26129,11.35169c.05804-.0871.1452-.1452.2323-.1452.26141,0,.31946.31946.31946.58081-.02905.60992-.1452,1.21979-.34851,1.8006-.43561-1.16168-.34851-1.97485-.20325-2.23621Z"/></svg>