<svg xmlns="http://www.w3.org/2000/svg" viewBox="0 0 13.51904 16.5835"><title>FileEPUB</title>
	<path d="M4.15479,0V.01758L.0235,5.70313H0V16.5835H13.519V0Zm0,1.29248V5.70313H.95ZM12.769,15.8335H.75V6.45313H4.90479V.75H12.769Z" fill="#171717"/>
	<path
		d="M3.27594,11.48877l3.2511,3.251a.46482.46482,0,0,0,.65753,0l2.92236-2.92188a.93041.93041,0,0,0,0-1.31543l-3.2511,3.251-2.5935-2.59326,2.5935-2.59327.9679.96778L6.33789,11.02051l.65747.65771L8.81,9.86328a.46493.46493,0,0,0,0-.65771L7.18451,7.58008a.46564.46564,0,0,0-.65747,0l-3.2511,3.25146A.46468.46468,0,0,0,3.27594,11.48877Z"
		fill="#171717"/>
</svg>
