<svg xmlns="http://www.w3.org/2000/svg" viewBox="0 0 24 24"><title>FileWord</title><path d="M9.38477,3.7085v.01709l-4.13129,5.686H5.23V20.292H18.749V3.7085Zm0,1.29248V9.41162H6.17993ZM17.999,19.542H5.98V10.16162h4.15479V4.4585H17.999Z" fill="#171717"/><path d="M9.10352,11.08643H6.9209l1.91015,7.53076h2.22364l.937-3.647.93262,3.647h2.22314l1.91065-7.53076H14.87549L13.96,14.97852,12.95166,11.106H11.00732l-.99707,3.83252Zm1.39794,5.102c.0376-.228.084-.43067.12208-.59717L11.5874,11.856h.78418l.92774,3.5708c.03711.1665.08642.38574.1372.67334l.05567.31738.938-.02148.09326-.44287c.06445-.30469.11377-.53907.144-.709l.80176-3.40771h.625L14.564,17.86719H13.50635l-.84473-3.30225c-.0376-.11181-.09131-.373-.166-.7456l-.03125-.15576a4.8813,4.8813,0,0,1-.1001-.60754l-.74707.00011c-.01905.15186-.05713.418-.1333.7793-.07764.36865-.13526.62158-.17383.7749l-.8374,3.25684H9.41455L7.88477,11.83643h.625L9.311,15.24121c.07763.34033.14306.66309.19677.95215l.05615.30518.88477.00537Z" fill="#171717"/></svg>