<svg xmlns="http://www.w3.org/2000/svg" viewBox="0 0 24.75 24.75"><defs><style>.cls-1{fill:none;stroke:#171717;stroke-miterlimit:10;stroke-width:0.75px;}.cls-2{fill:#171717;}</style></defs><title>FilePPT</title><g id="Ebene_2" data-name="Ebene 2"><g id="Ebene_1-2" data-name="Ebene 1"><rect class="cls-1" x="0.375" y="0.375" width="24" height="24"/><path class="cls-2" d="M9.77027,4.0835v.01709L5.639,9.78662h-.0235V20.667h13.519V4.0835Zm0,1.29248V9.78662H6.56543Zm8.61425,14.541H6.36548V10.53662h4.15479V4.8335h7.86425Z"/><path class="cls-2" d="M13.156,15.0874a1.432,1.432,0,0,0,.06933-2.03955,1.60165,1.60165,0,0,0-1.08886-.32373H11.13159v2.69629h.833A1.8253,1.8253,0,0,0,13.156,15.0874Zm-1.27442-1.61328h.25489a.89486.89486,0,0,1,.59082.13428.59534.59534,0,0,1,.14111.44482.53131.53131,0,0,1-.187.45411,1.13633,1.13633,0,0,1-.7168.16308h-.083Z"/><path class="cls-2" d="M9.73853,18.87451h2.14306V16.54639h.2168a3.10048,3.10048,0,0,0,2.11621-.64551,2.4027,2.4027,0,0,0,.79688-1.90527,2.21932,2.21932,0,0,0-.76758-1.81641,3.12283,3.12283,0,0,0-2.05029-.6001H9.73853Zm.75-6.54541h1.70508a2.42319,2.42319,0,0,1,1.57568.43067,1.5084,1.5084,0,0,1,.49219,1.23584,1.66483,1.66483,0,0,1-.53907,1.33935,2.40394,2.40394,0,0,1-1.624.46143h-.9668v2.32812h-.64306Z"/></g></g></svg>
