<svg xmlns="http://www.w3.org/2000/svg" viewBox="0 0 24.75 24.75"><defs><style>.cls-1{fill:none;stroke:#171717;stroke-miterlimit:10;stroke-width:0.75px;}</style></defs><title>FileServer</title><g id="Ebene_2" data-name="Ebene 2"><g id="Ebene_1-2" data-name="Ebene 1"><rect class="cls-1" x="0.375" y="0.375" width="24" height="24"/><path d="M6.35547,10.54706h4.15478V4.84393H18.374v8.1377h.75V4.09393H9.76025L5.62793,9.79706,5.60547,20.67694h5.85107v-.75H6.35547ZM9.76025,5.38593V9.79706H6.55518Z"/><path d="M20.81934,17.21405H12.91357v2.27539h7.90577Zm-.75,1.52539H13.66357v-.77539h6.40577Z"/><path d="M19.61224,18.65167a.30035.30035,0,1,0-.31329-.3A.30709.30709,0,0,0,19.61224,18.65167Zm0-.3565a.05788.05788,0,0,1,.059.05646c0,.0625-.118.06182-.118,0A.05791.05791,0,0,1,19.61224,18.29517Z"/><path d="M12.91357,16.635h7.90577V14.35956H12.91357Zm.75-1.52539h6.40577V15.885H13.66357Z"/><path d="M19.61224,15.1969a.30035.30035,0,1,0,.31318.30011A.30716.30716,0,0,0,19.61224,15.1969Zm-.05908.30011a.05908.05908,0,0,1,.118,0C19.6712,15.55951,19.55316,15.55884,19.55316,15.497Z"/><path d="M12.91846,20.06854v2.27539h7.90576V20.06854Zm7.15576,1.52539H13.66846v-.77539h6.40576Z"/><path d="M19.61707,21.50629a.30036.30036,0,1,0-.3133-.3A.30709.30709,0,0,0,19.61707,21.50629Zm0-.35651a.05784.05784,0,0,1,.059.05646c0,.0625-.11805.06183-.11805,0A.05788.05788,0,0,1,19.61707,21.14978Z"/></g></g></svg>
