<svg xmlns="http://www.w3.org/2000/svg" viewBox="0 0 24 24"><title>FileServer</title><path d="M5.98047,10.17206h4.15478V4.46893H17.999v8.1377h.75V3.71893H9.38525L5.25293,9.42206,5.23047,20.30194h5.85107v-.75H5.98047ZM9.38525,5.01093V9.42206H6.18018Z" fill="#171717"/><path d="M20.44434,16.83905H12.53857v2.27539h7.90577Zm-.75,1.52539H13.28857v-.77539h6.40577Z" fill="#171717"/><path d="M19.23724,18.27667a.30035.30035,0,1,0-.31329-.3A.30709.30709,0,0,0,19.23724,18.27667Zm0-.3565a.05788.05788,0,0,1,.059.05646c0,.0625-.118.06182-.118,0A.05791.05791,0,0,1,19.23724,17.92017Z" fill="#171717"/><path d="M12.53857,16.26h7.90577V13.98456H12.53857Zm.75-1.52539h6.40577V15.51H13.28857Z" fill="#171717"/><path d="M19.23724,14.8219a.30035.30035,0,1,0,.31318.30011A.30716.30716,0,0,0,19.23724,14.8219Zm-.05908.30011a.05908.05908,0,0,1,.118,0C19.2962,15.18451,19.17816,15.18384,19.17816,15.122Z" fill="#171717"/><path d="M12.54346,19.69354v2.27539h7.90576V19.69354Zm7.15576,1.52539H13.29346v-.77539h6.40576Z" fill="#171717"/><path d="M19.24207,21.13129a.30036.30036,0,1,0-.3133-.3A.30709.30709,0,0,0,19.24207,21.13129Zm0-.35651a.05784.05784,0,0,1,.059.05646c0,.0625-.11805.06183-.11805,0A.05788.05788,0,0,1,19.24207,20.77478Z" fill="#171717"/></svg>