<svg xmlns="http://www.w3.org/2000/svg" viewBox="0 0 24 24"><title>FileCode</title><path d="M8.82324,1.25018,3.25,8.9621V22.75018h17.5v-21.5Zm-.3667,3.06836V8.45429H5.46729ZM19.25,21.25018H4.75V9.95429H9.95654V2.75018H19.25Z" fill="#171717"/><polygon points="5.631 16.631 9.609 18.883 9.609 17.155 6.976 15.916 9.609 14.652 9.609 12.924 5.631 15.176 5.631 16.631" fill="#171717"/><polygon points="13.605 10.747 12.612 10.747 10.136 20.498 11.129 20.498 13.605 10.747" fill="#171717"/><polygon points="18.309 15.182 14.284 12.931 14.284 14.646 16.969 15.898 14.284 17.168 14.284 18.889 18.309 16.631 18.309 15.182" fill="#171717"/></svg>