<svg xmlns="http://www.w3.org/2000/svg" viewBox="0 0 24.77717 24.78011"><defs><style>.cls-1{fill:none;stroke:#171717;stroke-miterlimit:10;stroke-width:0.75px;}.cls-2{fill:#171717;}</style></defs><title>FileAudio</title><g id="Ebene_2" data-name="Ebene 2"><g id="Ebene_1-2" data-name="Ebene 1"><rect class="cls-1" x="0.40217" y="0.375" width="24" height="24"/><rect class="cls-1" x="0.375" y="0.40511" width="24" height="24"/><path class="cls-2" d="M9.77027,4.1136v.01709L5.639,9.81673h-.0235V20.6971h13.519V4.1136Zm0,1.29248V9.81673H6.56543Zm8.61425,14.541H6.36548V10.56673h4.15479V4.8636h7.86425Z"/><path class="cls-2" d="M15.63648,17.72444a3.57062,3.57062,0,0,0,0-5.0498l-.53028.53027a2.82089,2.82089,0,0,1,0,3.98926Z"/><path class="cls-2" d="M14.25757,16.34554a1.61968,1.61968,0,0,0,0-2.292l-.53027.53027a.87.87,0,0,1,0,1.23144Z"/><path class="cls-2" d="M8.06763,13.63118v3.24219h2.70544l2.48645,2.48975v-8.2129l-2.47766,2.481Zm2.4917,2.49219H8.81763V14.38118h1.7417Zm1.95019,1.42773L11.30933,16.349V14.1639l1.20019-1.20118Z"/></g></g></svg>
