<?xml version="1.0" encoding="UTF-8"?><svg id="a" xmlns="http://www.w3.org/2000/svg" viewBox="0 0 24 24"><path d="M11.36203,13.36165v10.6377h10.6377v-10.6377h-10.6377ZM20.49973,22.49935h-7.6377v-1.5459h7.6377v1.5459ZM20.49973,19.45345h-7.6377v-1.5459h7.6377v1.5459ZM20.49973,16.40755h-7.6377v-1.5459h7.6377v1.5459ZM19.50009,16.13509c.2757,0,.5-.22461.5-.5s-.2243-.50098-.5-.50098-.5.22559-.5.50098.2243.5.5.5ZM19.50009,15.56283c.03937,0,.07147.03223.07147.07227,0,.03906-.0321.07129-.07147.07129-.03931,0-.07141-.03223-.07141-.07129,0-.04004.0321-.07227.07141-.07227ZM19.50009,22.22689c.2757,0,.5-.22461.5-.5s-.2243-.5-.5-.5-.5.22461-.5.5.2243.5.5.5ZM19.50009,21.6556c.03937,0,.07147.03125.07147.07129,0,.03906-.0321.07129-.07147.07129-.03931,0-.07141-.03223-.07141-.07129,0-.04004.0321-.07129.07141-.07129ZM19.50009,19.18099c.2757,0,.5-.22461.5-.5s-.2243-.5-.5-.5-.5.22461-.5.5.2243.5.5.5ZM19.50009,18.6097c.03937,0,.07147.03125.07147.07129,0,.03906-.0321.07129-.07147.07129-.03931,0-.07141-.03223-.07141-.07129,0-.04004.0321-.07129.07141-.07129ZM19.24973,11.87728h1.5V1.25033h-11.92676l-5.57324,7.71094v13.78906h6.6748v-1.5h-5.1748v-11.29688h5.20703V2.75033h9.29297v9.12695ZM8.45676,8.45345h-2.98926l2.98926-4.13574v4.13574Z"/></svg>