<svg xmlns="http://www.w3.org/2000/svg" viewBox="0 0 24.75 24.75"><defs><style>.cls-1{fill:none;stroke:#171717;stroke-miterlimit:10;stroke-width:0.75px;}</style></defs><title>FileJSON</title><g id="Ebene_2" data-name="Ebene 2"><g id="Ebene_1-2" data-name="Ebene 1"><rect class="cls-1" x="0.375" y="0.375" width="24" height="24"/><path d="M9.77027,4.0835v.01709L5.639,9.78662h-.0235V20.667h13.519V4.0835Zm0,1.29248V9.78662H6.56543Zm8.61425,14.541H6.36548V10.53662h4.15479V4.8335h7.86425Z"/><path d="M10.50293,13.98291q0,.95655-.62842.957v.57325q.62842,0,.62842.96093v.78711a2.35272,2.35272,0,0,0,.26514,1.19629,1.49409,1.49409,0,0,0,.78906.65137l.11279-.45508q-.61009-.26074-.61914-1.34863v-.81543a1.45194,1.45194,0,0,0-.49463-1.26074,1.43351,1.43351,0,0,0,.49463-1.25v-.79883q0-1.11621.61914-1.38086l-.11279-.45508a1.48966,1.48966,0,0,0-.78906.64746,2.34094,2.34094,0,0,0-.26514,1.168Z"/><path d="M12.53955,18.16748a2.3111,2.3111,0,0,0,.147-.79883v-.57421H12.1499v.66113a2.33786,2.33786,0,0,1-.29,1.06738l.311.28516A1.91231,1.91231,0,0,0,12.53955,18.16748Z"/><path d="M12.40479,14.2124a.29406.29406,0,0,0,.25634-.123.51393.51393,0,0,0,.08741-.30469.54762.54762,0,0,0-.08741-.31641.29173.29173,0,0,0-.25634-.126.28551.28551,0,0,0-.25342.126.56185.56185,0,0,0-.08447.31641.527.527,0,0,0,.08447.30469A.2877.2877,0,0,0,12.40479,14.2124Z"/><path d="M13.69922,16.47412v.87012q-.02051,1.05176-.62207,1.30957l.11572.45508a1.5168,1.5168,0,0,0,.78662-.64551,2.29887,2.29887,0,0,0,.26807-1.19043v-.79883q0-.96093.62793-.96093v-.57325q-.62769,0-.62793-.94531v-.83105a2.308,2.308,0,0,0-.2666-1.17579,1.49521,1.49521,0,0,0-.78809-.64355l-.11279.45508q.61963.26514.61914,1.38086v.80273a1.33715,1.33715,0,0,0,.53662,1.2461A1.34586,1.34586,0,0,0,13.69922,16.47412Z"/></g></g></svg>
