<?xml version="1.0" encoding="UTF-8"?><svg id="a" xmlns="http://www.w3.org/2000/svg" viewBox="0 0 24 24"><path d="M4.75,9.95402h5.20654V2.74992h9.29346v9.35547h1.5V1.24992h-11.92676l-5.57324,7.71191v13.78809h17.50928v-1.5H4.75v-11.2959ZM8.45654,4.31828v4.13574h-2.98926l2.98926-4.13574ZM10.93848,13.88273c-.33301-.16016-.71777-.24023-1.15527-.24023h-2.27441v5.8291h1.20117v-2.05371h1.05273c.69141,0,1.23242-.16504,1.62402-.49414.39062-.33008.58594-.78027.58594-1.35156,0-.37598-.08887-.71191-.26758-1.00684s-.43457-.52246-.7666-.68262ZM10.50977,16.22062c-.16699.14941-.40918.22461-.72656.22461h-1.07324v-1.83008h1.10059c.29688.00586.5293.09668.69727.27246s.25195.40723.25195.69238c0,.27832-.08301.49121-.25.64062ZM16.22754,13.88273c-.33301-.16016-.71777-.24023-1.15527-.24023h-2.27441v5.8291h1.20117v-2.05371h1.05273c.69141,0,1.23242-.16504,1.62402-.49414.39062-.33008.58594-.78027.58594-1.35156,0-.37598-.08887-.71191-.26758-1.00684s-.43457-.52246-.7666-.68262ZM15.79883,16.22062c-.16699.14941-.40918.22461-.72656.22461h-1.07324v-1.83008h1.10059c.29688.00586.5293.09668.69727.27246s.25195.40723.25195.69238c0,.27832-.08301.49121-.25.64062ZM22.47559,13.6425v.97266h-1.78613v4.85645h-1.20117v-4.85645h-1.76172v-.97266h4.74902Z"/></svg>