<svg xmlns="http://www.w3.org/2000/svg" viewBox="0 0 24 24"><title>FileCsv</title><path d="M7.05832,13.87044a.77555.77555,0,0,1,.72559-.46386.79907.79907,0,0,1,.665.27441,1.5787,1.5787,0,0,1,.25391.88281h.96973a2.76711,2.76711,0,0,0-.5752-1.63574,1.64374,1.64374,0,0,0-1.31347-.583,1.56972,1.56972,0,0,0-1.03321.36914,2.32542,2.32542,0,0,0-.68359,1.05957,4.86149,4.86149,0,0,0-.23926,1.59766v.38379a4.13441,4.13441,0,0,0,.51856,2.23437,1.61,1.61,0,0,0,1.4248.81348,1.68131,1.68131,0,0,0,1.334-.583,2.57424,2.57424,0,0,0,.56055-1.59668H8.696a1.47432,1.47432,0,0,1-.2539.84766.80841.80841,0,0,1-.6709.27441.76417.76417,0,0,1-.72949-.4707,3.56646,3.56646,0,0,1-.23145-1.48926v-.47461A3.31905,3.31905,0,0,1,7.05832,13.87044Z" fill="#171717"/><path d="M12.01047,17.7806q-.93165,0-.93164-1.041h-.97364a2.31962,2.31962,0,0,0,.23536,1.07032,1.74641,1.74641,0,0,0,.68066.72753,1.88915,1.88915,0,0,0,.98926.26563,1.67927,1.67927,0,0,0,1.24511-.46387,1.73671,1.73671,0,0,0,.46192-1.28027,1.95235,1.95235,0,0,0-.37793-1.22559,2.79178,2.79178,0,0,0-1.20606-.82519,2.29527,2.29527,0,0,1-.68066-.38867.66.66,0,0,1-.23144-.51368.71931.71931,0,0,1,.19726-.52832.74013.74013,0,0,1,.55274-.20117.7087.7087,0,0,1,.57226.24024,1.00332,1.00332,0,0,1,.2041.67089h.96973a2.2597,2.2597,0,0,0-.21777-1.00976,1.63428,1.63428,0,0,0-.61329-.68945,1.67644,1.67644,0,0,0-.89843-.24317,1.81891,1.81891,0,0,0-.9043.22461,1.52889,1.52889,0,0,0-.61719.623,1.88647,1.88647,0,0,0-.21582.90918,1.82461,1.82461,0,0,0,.80274,1.55859,4.36494,4.36494,0,0,0,.79882.42969,2.32407,2.32407,0,0,1,.69825.41406.771.771,0,0,1,.19433.56348.69709.69709,0,0,1-.19433.52441A.74648.74648,0,0,1,12.01047,17.7806Z" fill="#171717"/><polygon points="16.622 18.717 18.261 12.431 17.181 12.431 16.114 17.159 15.053 12.431 13.976 12.431 15.609 18.717 16.622 18.717" fill="#171717"/><path d="M8.823,1.25033,3.24973,8.96126V22.75033h17.5v-21.5ZM8.45676,4.31771V8.45345H5.4675Zm10.793,16.93262h-14.5V9.95345h5.207V2.75033h9.293Z" fill="#171717"/></svg>