<svg xmlns="http://www.w3.org/2000/svg" viewBox="0 0 24 24"><title>FileImage</title><path d="M8.42334,14.2959a1.69068,1.69068,0,1,0-1.69043-1.69043A1.69242,1.69242,0,0,0,8.42334,14.2959Zm0-2.63135a.94068.94068,0,1,1-.94043.94092A.94171.94171,0,0,1,8.42334,11.66455Z" fill="#171717"/><path d="M18.749,15.29883V3.7085H9.38477v.01709l-4.13129,5.686H5.23V20.292H18.75V15.29981ZM10.13477,4.4585H17.999V14.72217l-3.14453-2.417L9.91016,16.10645,7.86768,14.53613,5.98,15.98731V10.16162h4.15479Zm-.75.54248V9.41162H6.17993ZM5.9834,19.542V16.93067l1.88428-1.44825,2.04248,1.57032,4.94433-3.80127L17.999,15.668v3.874Z" fill="#171717"/></svg>