<?xml version="1.0" encoding="UTF-8"?><svg id="a" xmlns="http://www.w3.org/2000/svg" viewBox="0 0 24 24"><path d="M4.75,9.95396h5.20654V2.74986h9.29346v9.35547h1.5V1.24986h-11.92676l-5.57324,7.71191v13.78809h17.50928v-1.5H4.75v-11.2959ZM8.45654,4.31822v4.13574h-2.98926l2.98926-4.13574ZM11.20801,13.8817c-.33301-.16016-.71777-.24023-1.15527-.24023h-2.27441v5.83008h1.20117v-2.05469h1.05273c.69141,0,1.23242-.16406,1.62402-.49414.39062-.33008.58594-.78027.58594-1.35156,0-.37598-.08887-.71191-.26758-1.00684s-.43457-.52246-.7666-.68262ZM10.7793,16.21959c-.16699.15039-.40918.22461-.72656.22461h-1.07324v-1.83008h1.10059c.29688.00586.5293.0957.69727.27246s.25195.40723.25195.69238c0,.27734-.08301.49121-.25.64062ZM16.23633,13.98716c-.4043-.23047-.8623-.3457-1.375-.3457h-1.79395v5.83008h1.80566c.50977-.00293.96777-.12109,1.37305-.35254.40625-.23242.7207-.55957.94336-.98145s.33398-.90332.33398-1.44531v-.26758c0-.54297-.11328-1.02637-.33984-1.45215-.22754-.42578-.54297-.75391-.94727-.98535ZM16.30664,16.72837c-.00586.57129-.13184,1.01074-.38086,1.31738-.24805.30664-.60645.46094-1.07617.46094h-.58105v-3.89258h.59277c.47266,0,.83105.15332,1.07715.45898.24512.30566.36816.75391.36816,1.34668v.30859ZM19.59766,14.61412v1.50586h2.30664v.96875h-2.30664v2.38281h-1.20117v-5.83008h3.7959v.97266h-2.59473Z"/></svg>