<svg xmlns="http://www.w3.org/2000/svg" viewBox="0 0 15.1709 17.09766"><title>FileRefresh</title>
	<path
		d="M11.24854,16.34766A2.67678,2.67678,0,0,1,8.845,14.834l.60474-.00683-.00782-.75-1.39941.01465-.686,1.2207.65332.36719.22735-.40332a3.41013,3.41013,0,0,0,6.35175-.874l-.7334-.1582A2.67876,2.67876,0,0,1,11.24854,16.34766Z"
		fill="#171717"/>
	<path
		d="M11.24854,10.26563a3.43451,3.43451,0,0,0-3.33936,2.69042l.7334.15821A2.66683,2.66683,0,0,1,13.6488,12.521l-.57214.00634.00879.75,1.39893-.0166L15.1709,12.041l-.65381-.36719-.2442.43408A3.43294,3.43294,0,0,0,11.24854,10.26563Z"
		fill="#171717"/>
	<path d="M.75,6.45313H4.90479V.75h7.86376V8.8877h.75V0H4.15479L.02246,5.70313,0,16.583H5.85107v-.75H.75ZM4.15479,1.292V5.70313H.94971Z" fill="#171717"/>
</svg>
