<svg xmlns="http://www.w3.org/2000/svg" viewBox="0 0 24.77717 24.78011"><defs><style>.cls-1{fill:none;stroke:#171717;stroke-miterlimit:10;stroke-width:0.75px;}.cls-2{fill:#171717;}</style></defs><title>FileVideo</title><g id="Ebene_2" data-name="Ebene 2"><g id="Ebene_1-2" data-name="Ebene 1"><rect class="cls-1" x="0.40217" y="0.375" width="24" height="24"/><rect class="cls-1" x="0.375" y="0.40511" width="24" height="24"/><path class="cls-2" d="M9.77027,4.11312v.01806L5.639,9.81624h-.0235V20.69661h13.519V4.11312Zm.75.75h7.86425V11.2303H6.36548v-.66406h4.15479ZM6.45947,11.9803H7.119v.72559H6.45947Zm1.596,0h.65949v.72559H8.05542Zm1.596,0h.65948v.72559H9.65137Zm1.596,0h.65948v.72559h-.65948Zm1.59594,0h.65949v.72559h-.65949Zm1.59595,0h.65942v.72559h-.65942Zm1.59589,0h.65948v.72559H16.0351Zm1.59594,0h.65949v.72559H17.631Zm.65949,7.96631H17.631v-.73h.65949Zm-1.596,0H16.0351v-.73h.65948Zm-1.59595,0h-.65942v-.73h.65942Zm-1.59588,0h-.65949v-.73h.65949Zm-1.596,0h-.65948v-.73h.65948Zm-1.596,0H9.65137v-.73h.65948Zm-1.59594,0H8.05542v-.73h.65949Zm-1.59595,0H6.45947v-.73H7.119ZM6.36548,18.722V13.20491h12.019V18.722ZM9.77027,5.40608V9.81624H6.56543Z"/><path class="cls-2" d="M11.47486,13.42659v5.07324l2.543-2.53662Zm.75,1.80762.731.729-.73095.729Z"/></g></g></svg>
