<svg xmlns="http://www.w3.org/2000/svg" viewBox="0 0 24.75 24.75"><defs><style>.cls-1{fill:none;stroke:#171717;stroke-miterlimit:10;stroke-width:0.75px;}.cls-2{fill:#171717;}</style></defs><title>FileExcel</title><g id="Ebene_2" data-name="Ebene 2"><g id="Ebene_1-2" data-name="Ebene 1"><rect class="cls-1" x="0.375" y="0.375" width="24" height="24"/><path class="cls-2" d="M9.77027,4.0835v.01709L5.639,9.78662h-.0235V20.667h13.519V4.0835Zm0,1.29248V9.78662H6.56543Zm8.61425,14.541H6.36548V10.53662h4.15479V4.8335h7.86425Z"/><path class="cls-2" d="M11.01929,15.11817l-2.49463,3.874h2.41895l1.37207-2.22949,1.37207,2.22949h2.55664L13.6731,15.19092l2.36963-3.72949H13.60327L12.39038,13.5332,11.1438,11.46143H8.66236Zm1.37988-.11524,1.63379-2.7915h.64453l-1.90088,2.99219,2.05469,3.03857h-.72461l-1.791-2.91016-1.791,2.91016h-.625l2.01221-3.124-1.87354-2.90674H10.72Z"/></g></g></svg>
