<svg xmlns="http://www.w3.org/2000/svg" viewBox="0 0 13.51855 16.58301"><title>FileXML</title>
	<path d="M4.15479,0V.01758L.0235,5.70313H0V16.583H13.51855V0Zm0,1.293V5.70313H.95Zm8.61376,14.54H.75V6.45313H4.90479V.75h7.86376Z" fill="#171717"/>
	<polygon
		points="4.431 8.633 3.852 8.633 2.958 10.54 2.06 8.633 1.484 8.633 2.664 11.101 1.456 13.609 2.037 13.609 2.958 11.668 3.875 13.609 4.458 13.609 3.253 11.101 4.431 8.633"
		fill="#171717"/>
	<polygon
		points="5.521 11.672 5.472 9.59 6.693 13.609 7.07 13.609 8.293 9.58 8.248 11.672 8.248 13.609 8.739 13.609 8.739 8.633 8.102 8.633 6.883 12.693 5.664 8.633 5.029 8.633 5.029 13.609 5.521 13.609 5.521 11.672"
		fill="#171717"/>
	<polygon points="11.868 13.073 10.101 13.073 10.101 8.633 9.607 8.633 9.607 13.609 11.868 13.609 11.868 13.073" fill="#171717"/>
</svg>
