<?xml version="1.0" encoding="UTF-8"?><svg id="a" xmlns="http://www.w3.org/2000/svg" viewBox="0 0 24 24"><path d="M4.75027,9.95345h5.20605V2.75033h9.29395v9.20605h1.5V1.25033h-11.92773l-5.57227,7.71094v13.78906h6.80682v-1.5h-5.30682v-11.29688ZM8.45633,4.31868v4.13477h-2.98828l2.98828-4.13477ZM22.47818,17.71419c0,1.38477-.5675,2.63867-1.48065,3.54492l-1.06018-1.05957c.64154-.63477,1.04083-1.51367,1.04083-2.48535,0-.96191-.39075-1.83398-1.0213-2.4668l1.06012-1.06055c.90216.9043,1.46118,2.15234,1.46118,3.52734ZM19.09421,16.1097c.40942.41211.66327.97949.66327,1.60449,0,.63477-.26227,1.20898-.68274,1.62207l-1.06152-1.06152c.14905-.1416.24426-.33887.24426-.56055,0-.21191-.08612-.40332-.22394-.54395l1.06067-1.06055ZM11.17935,15.41927v4.52441h2.61719l3.35254,3.36035v-11.24414l-3.34961,3.35449-2.62012.00488ZM15.64908,15.6849v3.99121l-1.23047-1.23242h-1.73926v-1.52637l1.74316-.00391,1.22656-1.22852Z"/></svg>