<svg xmlns="http://www.w3.org/2000/svg" viewBox="0 0 24 24"><title>FileVideo</title><path d="M8.823,1.25033,3.24973,8.96126V22.75033h17.5v-21.5ZM8.45676,4.31771V8.45345H5.4675ZM6.03134,21.25033v.46679h-.7489V20.7015h.7489Zm1.81232,0v.46679h-.7489V20.7015h.7489Zm1.81232,0v.46679H8.90707V20.7015H9.656Zm1.81231,0v.46679h-.7489V20.7015h.7489Zm1.81232,0v.46679h-.7489V20.7015h.7489Zm1.81232,0v.46679H14.344V20.7015h.74891Zm1.81231,0v.46679h-.7489V20.7015h.7489Zm1.81232,0v.46679h-.7489V20.7015h.7489Zm.53217-1.07129H4.75V13.27572h14.4997ZM5.28244,12.7474V11.73177h.7489V12.7474Zm1.81232,0V11.73177h.7489V12.7474Zm1.81231,0V11.73177H9.656V12.7474Zm1.81232,0V11.73177h.7489V12.7474Zm1.81232,0V11.73177h.7489V12.7474Zm1.81231,0V11.73177h.74891V12.7474Zm1.81232,0V11.73177h.7489V12.7474Zm1.81232,0V11.73177h.7489V12.7474Zm1.28107-2.043h-14.5v-.751h5.207V2.75033h9.293Z" fill="#171717"/><path d="M10.62473,13.66439v6.123l3.06054-3.06054Zm1.06274,2.4375.62506.625-.625.625Z" fill="#171717"/></svg>