<svg xmlns="http://www.w3.org/2000/svg" viewBox="0 0 16.58301 16.58398"><title>Frown</title>
	<path d="M8.292,7.917A5.298,5.298,0,0,0,3,13.209h.75a4.54175,4.54175,0,1,1,9.0835,0h.75A5.29764,5.29764,0,0,0,8.292,7.917Z" fill="#171717"/>
	<path
		d="M5.08887,7.36035a2.292,2.292,0,1,0-2.292-2.292A2.29434,2.29434,0,0,0,5.08887,7.36035Zm0-3.834a1.542,1.542,0,1,1-1.542,1.542A1.54321,1.54321,0,0,1,5.08887,3.52637Z"
		fill="#171717"/>
	<path d="M8.292,0a8.292,8.292,0,1,0,8.291,8.292A8.30133,8.30133,0,0,0,8.292,0Zm0,15.834A7.542,7.542,0,1,1,15.8335,8.292,7.55081,7.55081,0,0,1,8.292,15.834Z"
		  fill="#171717"/>
	<path
		d="M11.542,2.77637a2.292,2.292,0,1,0,2.29151,2.292A2.29476,2.29476,0,0,0,11.542,2.77637Zm0,3.834a1.542,1.542,0,1,1,1.54151-1.542A1.54362,1.54362,0,0,1,11.542,6.61035Z"
		fill="#171717"/>
</svg>
