<svg xmlns="http://www.w3.org/2000/svg" viewBox="0 0 24.75 24.75"><defs><style>.cls-1{fill:none;stroke:#171717;stroke-miterlimit:10;stroke-width:0.75px;}.cls-2{fill:#171717;}</style></defs><title>Frown</title><g id="Ebene_2" data-name="Ebene 2"><g id="Ebene_1-2" data-name="Ebene 1"><rect class="cls-1" x="0.375" y="0.375" width="24" height="24"/><path class="cls-2" d="M12.35833,12.00049a5.298,5.298,0,0,0-5.292,5.292h.75a4.54175,4.54175,0,1,1,9.0835,0h.75A5.29763,5.29763,0,0,0,12.35833,12.00049Z"/><path class="cls-2" d="M9.15521,11.44385a2.292,2.292,0,1,0-2.292-2.292A2.29434,2.29434,0,0,0,9.15521,11.44385Zm0-3.834a1.542,1.542,0,1,1-1.542,1.542A1.5432,1.5432,0,0,1,9.15521,7.60987Z"/><path class="cls-2" d="M12.35833,4.0835a8.292,8.292,0,1,0,8.291,8.292A8.30132,8.30132,0,0,0,12.35833,4.0835Zm0,15.834a7.542,7.542,0,1,1,7.54151-7.542A7.55082,7.55082,0,0,1,12.35833,19.91748Z"/><path class="cls-2" d="M15.60833,6.85987a2.292,2.292,0,1,0,2.29151,2.292A2.29476,2.29476,0,0,0,15.60833,6.85987Zm0,3.834a1.542,1.542,0,1,1,1.54151-1.542A1.54364,1.54364,0,0,1,15.60833,10.69385Z"/></g></g></svg>
