<svg xmlns="http://www.w3.org/2000/svg" viewBox="0 0 24 24"><title>Frown</title><path d="M11.99973,1.25033a10.74951,10.74951,0,1,0,10.75,10.75A10.76176,10.76176,0,0,0,11.99973,1.25033Zm0,19.999a9.24951,9.24951,0,1,1,9.25-9.249A9.25992,9.25992,0,0,1,11.99973,21.24935Z" fill="#171717"/><path d="M11.99973,13.10091a4.90586,4.90586,0,0,0-4.9004,4.90039h1.5a3.4004,3.4004,0,0,1,6.80079,0h1.5A4.90586,4.90586,0,0,0,11.99973,13.10091Z" fill="#171717"/><path d="M10.49777,8.16927a2.32861,2.32861,0,1,0-2.3291,2.3291A2.33185,2.33185,0,0,0,10.49777,8.16927Zm-3.15722,0a.82861.82861,0,1,1,.82812.8291A.82938.82938,0,0,1,7.34055,8.16927Z" fill="#171717"/><path d="M15.83078,5.84017a2.3291,2.3291,0,1,0,2.3291,2.3291A2.33184,2.33184,0,0,0,15.83078,5.84017Zm0,3.1582a.8291.8291,0,1,1,.8291-.8291A.83022.83022,0,0,1,15.83078,8.99837Z" fill="#171717"/></svg>