<?xml version="1.0" encoding="UTF-8"?><svg id="a" xmlns="http://www.w3.org/2000/svg" viewBox="0 0 24 24"><path d="M11.99973,1.25033C6.07297,1.25033,1.2507,6.07259,1.2507,12.00033c0,5.92676,4.82227,10.74902,10.74902,10.74902,5.92773,0,10.75-4.82227,10.75-10.74902,0-5.92773-4.82227-10.75-10.75-10.75ZM11.99973,21.24935c-5.09961,0-9.24902-4.14941-9.24902-9.24902C2.7507,6.89974,6.90012,2.75033,11.99973,2.75033c5.10059,0,9.25,4.14941,9.25,9.25,0,5.09961-4.14941,9.24902-9.25,9.24902ZM16.90012,18.0013h-1.5c0-1.875-1.52539-3.40039-3.40039-3.40039s-3.40039,1.52539-3.40039,3.40039h-1.5c0-2.70215,2.19824-4.90039,4.90039-4.90039s4.90039,2.19824,4.90039,4.90039ZM10.49777,8.16927c0-1.28418-1.04492-2.3291-2.3291-2.3291s-2.32812,1.04492-2.32812,2.3291,1.04395,2.3291,2.32812,2.3291,2.3291-1.04492,2.3291-2.3291ZM7.34055,8.16927c0-.45703.37109-.8291.82812-.8291s.8291.37207.8291.8291-.37207.8291-.8291.8291-.82812-.37207-.82812-.8291ZM15.83078,5.84017c-1.2842,0-2.3291,1.04492-2.3291,2.3291s1.0449,2.3291,2.3291,2.3291,2.3291-1.04492,2.3291-2.3291-1.04492-2.3291-2.3291-2.3291ZM15.83078,8.99837c-.45703,0-.8291-.37207-.8291-.8291s.37207-.8291.8291-.8291.8291.37207.8291.8291-.37207.8291-.8291.8291Z"/></svg>