<svg xmlns="http://www.w3.org/2000/svg" viewBox="0 0 24 24"><title>Frown</title><path d="M12,11.62549a5.298,5.298,0,0,0-5.292,5.292h.75a4.54175,4.54175,0,1,1,9.08349,0h.75A5.29762,5.29762,0,0,0,12,11.62549Z" fill="#171717"/><path d="M8.79688,11.06885a2.292,2.292,0,1,0-2.292-2.292A2.29434,2.29434,0,0,0,8.79688,11.06885Zm0-3.834a1.542,1.542,0,1,1-1.542,1.542A1.54321,1.54321,0,0,1,8.79688,7.23487Z" fill="#171717"/><path d="M12,3.7085a8.292,8.292,0,1,0,8.291,8.292A8.30132,8.30132,0,0,0,12,3.7085Zm0,15.834a7.542,7.542,0,1,1,7.5415-7.542A7.55082,7.55082,0,0,1,12,19.54248Z" fill="#171717"/><path d="M15.25,6.48487a2.292,2.292,0,1,0,2.2915,2.292A2.29476,2.29476,0,0,0,15.25,6.48487Zm0,3.834a1.542,1.542,0,1,1,1.5415-1.542A1.54363,1.54363,0,0,1,15.25,10.31885Z" fill="#171717"/></svg>