<svg xmlns="http://www.w3.org/2000/svg" viewBox="0 0 24 24"><path d="M14.31543,1.625v1.5h3.91882L14.873,6.60938a4.84581,4.84581,0,0,0-5.65412-.0752L8.39453,5.709l.88379-.88378L8.21777,3.76465,7.334,4.64844,5.81042,3.125H9.68359v-1.5H3.25V8.05957h1.5v-3.874L6.2735,5.709l-.88385.88379L6.4502,7.65332,7.334,6.76953l.8064.80664A4.86075,4.86075,0,0,0,11.25,15.3877v2.22753H8.00391v1.5H11.25V22.375h1.5V19.11523h3.24609v-1.5H12.75V15.3877A4.864,4.864,0,0,0,15.93585,7.669L19.25,4.2334V8.05859h1.5V1.625Zm.08887,11.34082a3.48253,3.48253,0,0,1-4.8086,0,3.40039,3.40039,0,1,1,4.8086,0Z" fill="#171717"/></svg>