<?xml version="1.0" encoding="UTF-8"?><svg id="a" xmlns="http://www.w3.org/2000/svg" viewBox="0 0 24 24"><path d="M12.75,10.43262v-3.97949l1.3291.76758.75-1.29883-1.32886-.76758,1.32886-.7666-.75-1.2998-1.3291.76758v-1.23047h-1.5v1.23047l-1.3291-.76758-.75,1.2998,1.32886.7666-1.32886.76758.75,1.29883,1.3291-.76758v3.97949c-2.67786.36719-4.75,2.66504-4.75,5.44238,0,3.03223,2.46777,5.5,5.5,5.5s5.5-2.46777,5.5-5.5c0-2.77734-2.07214-5.0752-4.75-5.44238ZM12,19.875c-2.20605,0-4-1.79492-4-4,0-2.20605,1.79395-4,4-4s4,1.79395,4,4c0,2.20508-1.79395,4-4,4Z"/></svg>