<?xml version="1.0" encoding="UTF-8"?><svg id="a" xmlns="http://www.w3.org/2000/svg" viewBox="0 0 24 24"><path d="M17.60455,10.09424l1.41016-.5127-2.48145-6.81836-6.81836,2.48242.51367,1.40918,4.41138-1.60547-2.53455,5.43457c-2.58215-.79785-5.43011.4082-6.60535,2.9248-1.28125,2.74902-.08789,6.02832,2.66016,7.30957.74023.34473,1.5293.51855,2.32129.51855.63477,0,1.27148-.11133,1.88477-.33496,1.38086-.50293,2.48242-1.5127,3.10352-2.84375,1.17352-2.51758.2666-5.47559-2.005-6.94043l2.53461-5.43457,1.60516,4.41113ZM14.11041,17.42432c-.45117.96777-1.25293,1.70215-2.25684,2.06836-1.00293.36426-2.09082.31836-3.05859-.13379-1.99902-.93262-2.86719-3.31641-1.93555-5.31543.67871-1.4541,2.125-2.30957,3.63184-2.30957.56543,0,1.13867.12012,1.68359.37402,1.99902.93262,2.86719,3.31738,1.93555,5.31641Z"/></svg>