<?xml version="1.0" encoding="UTF-8"?><svg id="a" xmlns="http://www.w3.org/2000/svg" viewBox="0 0 24 24"><path d="M14.31543,1.625v1.5h3.91882l-3.36127,3.48438c-.83221-.60742-1.8233-.94824-2.87299-.94824-1.01007,0-1.96912.30957-2.78113.87305l-.82434-.8252.88379-.88379-1.06055-1.06055-.88379.88379-1.52356-1.52344h3.87317v-1.5H3.25v6.43457h1.5v-3.87402l1.5235,1.52344-.88385.88379,1.06055,1.06055.88379-.88379.8064.80664c-.66302.85449-1.04077,1.88574-1.04077,2.98535,0,1.30859.50977,2.53906,1.43555,3.46484.74487.74512,1.69177,1.20508,2.71484,1.36133v2.22754h-3.24609v1.5h3.24609v3.25977h1.5v-3.25977h3.24609v-1.5h-3.24609v-2.22754c1.02246-.15625,1.96924-.61621,2.71484-1.36133.92578-.92578,1.43555-2.15625,1.43555-3.46484,0-1.05859-.34772-2.05664-.96454-2.89258l3.31415-3.43555v3.8252h1.5V1.625h-6.43457ZM14.4043,12.96582c-1.28516,1.28418-3.52539,1.28418-4.80859,0-.64258-.64258-.99609-1.49707-.99609-2.4043,0-.9082.35352-1.7627.99609-2.40527.6416-.6416,1.49609-.99512,2.4043-.99512s1.76172.35352,2.4043.99512c.64258.64258.99609,1.49707.99609,2.40527,0,.90723-.35352,1.76172-.99609,2.4043Z"/></svg>