<?xml version="1.0" encoding="UTF-8"?><svg id="a" xmlns="http://www.w3.org/2000/svg" viewBox="0 0 24 24"><path d="M11.99998,1.2503C6.07225,1.2503,1.24998,6.07257,1.24998,12.0003c0,5.92676,4.82227,10.75,10.75,10.75s10.75-4.82324,10.75-10.75c0-5.92773-4.82227-10.75-10.75-10.75ZM7.46727,8.53546c-.11572-.86426-.13232-1.24121.1875-1.81934.53809.22754,1.04883.49902,1.52344.81055l.31934.31152.46143-.20117c.00977-.00391.99023-.41797,2.03906-.41797.99072,0,1.96777.41504,1.97754.41895l.48389.19531.30322-.31152c.47412-.31055.98389-.58105,1.51904-.80762.31641.56836.30127.94336.18408,1.82129l-.03174.24707.11914.2168c.00635.01172.63086,1.1582.63086,2.49023,0,2.3418-2.31116,4.24609-5.21948,4.25879h-.05933c-2.84558-.0127-5.15625-1.91699-5.15625-4.25879,0-1.33203.62451-2.47852.62939-2.48828l.12207-.21777-.0332-.24805ZM10.33787,21.0921v-1.93164c0-.64844.11621-1.30078.33789-1.91211h1.26538c.01917.00098.0376.00293.05688.00293.0188,0,.03711-.00195.05591-.00293h1.27319c.22266.62988.33496,1.28711.33496,1.96094v1.88281c-.54016.09863-1.09399.1582-1.66211.1582s-1.12195-.05957-1.66211-.1582ZM15.16209,20.68195v-1.47266c0-.84863-.14966-1.6748-.43066-2.4668,2.32629-.90234,3.95264-2.91504,3.95264-5.25293,0-1.3457-.47412-2.50586-.70215-2.98633.11719-.96387.11035-1.71387-.51074-2.72461-.36182-.57227-.81348-.65723-1.05078-.65723-.16162,0-.31738.03516-.45605.10254-.62549.24609-1.22363.54492-1.78369.89062-.47461-.16113-1.32422-.39551-2.24609-.39551-.87842,0-1.71338.23438-2.18311.39453-.55908-.34473-1.15674-.64355-1.78223-.88965-.13867-.06738-.29492-.10254-.45703-.10254-.23779,0-.69043.08496-1.05566.66504-.6167,1.00391-.62305,1.75391-.50586,2.7168-.22754.48047-.70166,1.64062-.70166,2.98633,0,2.35059,1.64355,4.37305,4.01599,5.26855-.13245.36816-.23157.74707-.30212,1.13281-.39966-.06543-.78345-.19434-1.13013-.42871-.67676-.56055-1.67334-1.77344-2.6217-.68848.4801.04102.75122.11328.98474.51367.57751.87891,1.5769,1.5498,2.64209,1.89453v1.5c-3.54553-1.2959-6.08789-4.69336-6.08789-8.68164C2.74998,6.89972,6.8994,2.7503,11.99998,2.7503s9.25,4.14941,9.25,9.25c0,3.98828-2.54236,7.38574-6.08789,8.68164Z"/></svg>