<?xml version="1.0" encoding="UTF-8"?><svg id="a" xmlns="http://www.w3.org/2000/svg" viewBox="0 0 24 24"><path d="M12,2.24937C6.62,2.24937,2.25,6.61937,2.25,11.99937s4.37,9.75,9.75,9.75,9.75-4.37,9.75-9.75S17.38,2.24937,12,2.24937ZM7.98999,8.90935c-.08997-.72998-.10999-1.06995.13-1.52997.46002.20001.90002.42999,1.30005.69l.31995.29999.45001-.19c.01001,0,.88-.37,1.81-.37.87,0,1.73999.37,1.75.37l.46002.19.31-.29999c.40997-.26001.83997-.5,1.29999-.69.23999.46002.22003.78998.12,1.52997l-.02997.25.12.21002c.01001.01001.56,1.03003.56,2.21002,0,2.07001-2.06,3.76001-4.65002,3.76001-2.52997,0-4.58997-1.69-4.58997-3.76001,0-1.17999.54999-2.20001.56-2.21002l.12-.21002-.04004-.25ZM10.58002,20.11937v-1.64001c0-.56.09998-1.12.27997-1.63995h2.28003c.19.53998.28003,1.10999.28003,1.69v1.58997c-.46002.09003-.94.13-1.42004.13-.47998,0-.95996-.03998-1.41998-.13ZM14.92004,19.71941v-1.19c0-.75-.12006-1.48004-.36005-2.18005,2.08002-.83997,3.53003-2.65997,3.53003-4.76996,0-1.21002-.41998-2.25-.63-2.70001.10999-.87.09998-1.56-.47003-2.47998-.34998-.55005-.77997-.63-1.00995-.63-.16003,0-.31.03998-.44.09998-.56.22003-1.09003.47998-1.59003.78998-.42999-.14996-1.19-.34998-2.01001-.34998-.77997,0-1.51996.20001-1.95001.34998-.5-.31-1.02997-.56995-1.58997-.78998-.13-.07001-.28003-.09998-.44-.09998-.22998,0-.66998.07996-1.01001.63995-.57001.91003-.58002,1.59003-.46997,2.47003-.21002.45001-.63,1.48999-.63,2.70001,0,2.12,1.45996,3.95996,3.58997,4.77997-.09998.31-.19.62-.23999.94-.34003-.06-.65002-.19-.92999-.37-.45001-.29999-.98999-1.12-1.75-.97998-.28003.03998-.47998.20001-.63.38.23999.03998.45001.06.58002.14996.39996.39001.62.86005,1.17999,1.26001.40997.37.89996.60999,1.42999.77002v1.21002c-3.10999-1.18005-5.33002-4.20001-5.33002-7.72003C3.75,7.44939,7.45001,3.74937,12,3.74937s8.25,3.70001,8.25,8.25c0,3.52002-2.21997,6.53998-5.32996,7.72003Z"/></svg>