<svg xmlns="http://www.w3.org/2000/svg" viewBox="0 0 24 24"><path d="M12,2.24937a9.75,9.75,0,1,0,9.75,9.75A9.75612,9.75612,0,0,0,12,2.24937Zm-4.01,6.66a2.2717,2.2717,0,0,1,.13-1.53,8.91429,8.91429,0,0,1,1.3.69l.32.3.45-.19a5.39293,5.39293,0,0,1,1.81-.37,5.29157,5.29157,0,0,1,1.75.37l.46.19.31-.3a8.47985,8.47985,0,0,1,1.3-.69,2.212,2.212,0,0,1,.12,1.53l-.03.25.12.21a5.09712,5.09712,0,0,1,.56,2.21c0,2.07-2.06,3.76-4.65,3.76-2.53,0-4.59-1.69-4.59-3.76a5.09719,5.09719,0,0,1,.56-2.21l.12-.21Zm2.59,11.21v-1.64a5.044,5.044,0,0,1,.28-1.63995h2.28a5.07849,5.07849,0,0,1,.28,1.69v1.59a7.82049,7.82049,0,0,1-2.84,0Zm4.34-.4v-1.19a6.69031,6.69031,0,0,0-.36-2.18,5.28762,5.28762,0,0,0,3.53-4.77,6.63008,6.63008,0,0,0-.63-2.7,3.339,3.339,0,0,0-.47-2.48,1.18444,1.18444,0,0,0-1.00995-.63,1.053,1.053,0,0,0-.44.1,9.8152,9.8152,0,0,0-1.59.79,6.39359,6.39359,0,0,0-2.01-.35,6.1972,6.1972,0,0,0-1.95.35,9.81459,9.81459,0,0,0-1.59-.79.91952.91952,0,0,0-.44-.1,1.16788,1.16788,0,0,0-1.01.64,3.29885,3.29885,0,0,0-.47,2.47,6.63011,6.63011,0,0,0-.63,2.7,5.258,5.258,0,0,0,3.59,4.78,6.17286,6.17286,0,0,0-.24.94,2.52266,2.52266,0,0,1-.93-.37c-.45-.3-.99-1.12-1.75-.98a.99834.99834,0,0,0-.63.38,1.56863,1.56863,0,0,1,.58.15,9.02746,9.02746,0,0,0,1.18,1.26,3.68186,3.68186,0,0,0,1.43.77v1.21a8.25,8.25,0,1,1,5.84,0Z"/></svg>