<svg xmlns="http://www.w3.org/2000/svg" viewBox="0 0 24 24"><title>Globe</title><path d="M12.01025,3.7085a8.292,8.292,0,1,0,8.29151,8.292A8.30132,8.30132,0,0,0,12.01025,3.7085Zm7.523,7.917H16.29681a10.63791,10.63791,0,0,0-.943-4.0376,8.26553,8.26553,0,0,0,1.80414-1.084A7.5127,7.5127,0,0,1,19.53326,11.62549Zm-7.148-6.76709a8.3535,8.3535,0,0,1,1.92054,2.32373,7.52065,7.52065,0,0,1-1.92054.34424Zm.8111-.29736a7.49383,7.49383,0,0,1,3.37781,1.44922,7.53988,7.53988,0,0,1-1.55823.90722A9.25563,9.25563,0,0,0,13.19635,4.561Zm-1.5611.3247V7.5249a7.54214,7.54214,0,0,1-1.88617-.34228A8.36358,8.36358,0,0,1,11.63525,4.88574ZM9.03967,6.91748a7.50281,7.50281,0,0,1-1.5755-.9209,7.49329,7.49329,0,0,1,3.39575-1.44091A9.26262,9.26262,0,0,0,9.03967,6.91748ZM11.63525,8.2749v3.35059H8.50714A9.89077,9.89077,0,0,1,9.39777,7.856,8.27308,8.27308,0,0,0,11.63525,8.2749Zm0,4.10059v3.34912a8.28136,8.28136,0,0,0-2.24444.41309,9.89154,9.89154,0,0,1-.88422-3.76221Zm0,4.09912V19.124A8.36432,8.36432,0,0,1,9.74011,16.8125,7.521,7.521,0,0,1,11.63525,16.47461ZM10.85,19.44336a7.48848,7.48848,0,0,1-3.40033-1.45068,7.536,7.536,0,0,1,1.57989-.917A9.26006,9.26006,0,0,0,10.85,19.44336Zm1.53521-.2915V16.47559a7.54565,7.54565,0,0,1,1.9209.35107A8.35023,8.35023,0,0,1,12.38525,19.15186Zm2.62928-2.05811a7.50078,7.50078,0,0,1,1.54577.90723,7.49779,7.49779,0,0,1-3.352,1.437A9.27361,9.27361,0,0,0,15.01453,17.09375Zm-2.62928-1.36816v-3.3501h3.16236a9.88744,9.88744,0,0,1-.89075,3.77734A8.272,8.272,0,0,0,12.38525,15.72559Zm0-4.1001V8.27637a8.28594,8.28594,0,0,0,2.27124-.41992,9.88616,9.88616,0,0,1,.89051,3.769Zm-5.507-5.13574A8.26488,8.26488,0,0,0,8.70068,7.5874a10.645,10.645,0,0,0-.94336,4.03809H4.48724A7.5118,7.5118,0,0,1,6.87823,6.48975Zm-2.391,5.88574H7.75677a10.64562,10.64562,0,0,0,.93616,4.0293A8.2646,8.2646,0,0,0,6.8656,17.49951,7.51251,7.51251,0,0,1,4.48724,12.37549Zm12.6587,5.13232a8.2766,8.2766,0,0,0-1.79285-1.084,10.64159,10.64159,0,0,0,.94433-4.04834h3.23584A7.51227,7.51227,0,0,1,17.14594,17.50781Z" fill="#171717"/></svg>