<svg xmlns="http://www.w3.org/2000/svg" viewBox="0 0 16.5835 16.58398"><title>Globe</title>
	<path
		d="M8.292,0A8.292,8.292,0,1,0,16.5835,8.292,8.30133,8.30133,0,0,0,8.292,0Zm7.523,7.917H12.57855a10.638,10.638,0,0,0-.943-4.0376,8.26514,8.26514,0,0,0,1.80414-1.084A7.51276,7.51276,0,0,1,15.815,7.917ZM8.667,1.1499a8.35364,8.35364,0,0,1,1.92053,2.32373A7.5205,7.5205,0,0,1,8.667,3.81787Zm.8111-.29736A7.49405,7.49405,0,0,1,12.8559,2.30176a7.53988,7.53988,0,0,1-1.55823.90722A9.25563,9.25563,0,0,0,9.47809.85254ZM7.917,1.17725V3.81641a7.54261,7.54261,0,0,1-1.88617-.34229A8.36338,8.36338,0,0,1,7.917,1.17725ZM5.32141,3.209a7.50276,7.50276,0,0,1-1.5755-.92089A7.4932,7.4932,0,0,1,7.14166.84717,9.26279,9.26279,0,0,0,5.32141,3.209ZM7.917,4.56641V7.917H4.78888A9.89094,9.89094,0,0,1,5.6795,4.14746,8.27316,8.27316,0,0,0,7.917,4.56641Zm0,4.10058v3.34912a8.28136,8.28136,0,0,0-2.24444.41309A9.89131,9.89131,0,0,1,4.78833,8.667Zm0,4.09912v2.64942A8.36432,8.36432,0,0,1,6.02185,13.104,7.52093,7.52093,0,0,1,7.917,12.76611Zm-.78522,2.96875a7.48845,7.48845,0,0,1-3.40032-1.45068,7.53574,7.53574,0,0,1,1.57989-.917A9.26008,9.26008,0,0,0,7.13177,15.73486Zm1.53522-.2915V12.76709a7.54565,7.54565,0,0,1,1.9209.35107A8.3504,8.3504,0,0,1,8.667,15.44336Zm2.62927-2.05811a7.5013,7.5013,0,0,1,1.54578.90723,7.49772,7.49772,0,0,1-3.352,1.437A9.2734,9.2734,0,0,0,11.29626,13.38525ZM8.667,12.01709V8.667h3.16236a9.88753,9.88753,0,0,1-.89075,3.77735A8.272,8.272,0,0,0,8.667,12.01709Zm0-4.1001V4.56787A8.28594,8.28594,0,0,0,10.93823,4.148a9.88635,9.88635,0,0,1,.89051,3.769ZM3.16,2.78125A8.26469,8.26469,0,0,0,4.98242,3.87891,10.64467,10.64467,0,0,0,4.03906,7.917H.769A7.5118,7.5118,0,0,1,3.16,2.78125ZM.769,8.667H4.03851a10.64557,10.64557,0,0,0,.93616,4.0293A8.264,8.264,0,0,0,3.14734,13.791,7.51255,7.51255,0,0,1,.769,8.667Zm12.65869,5.13233a8.27594,8.27594,0,0,0-1.79284-1.084A10.64155,10.64155,0,0,0,12.57916,8.667H15.815A7.51232,7.51232,0,0,1,13.42767,13.79932Z"
		fill="#171717"/>
</svg>
