<svg xmlns="http://www.w3.org/2000/svg" viewBox="0 0 24 24"><title>Globe</title><path d="M11.99973,1.25033a10.74951,10.74951,0,1,0,10.75,10.75A10.76176,10.76176,0,0,0,11.99973,1.25033Zm9.212,10H17.706A13.72632,13.72632,0,0,0,16.80588,7.015,10.7149,10.7149,0,0,0,18.7803,5.72982,9.20359,9.20359,0,0,1,21.2117,11.25033Zm-8.462-7.68848a10.44667,10.44667,0,0,1,2.03405,2.65332,9.26375,9.26375,0,0,1-2.03405.39941Zm1.611-.49414a9.21238,9.21238,0,0,1,3.30878,1.63965,9.19951,9.19951,0,0,1-1.48414.94336A12.16739,12.16739,0,0,0,14.36075,3.06771Zm-3.111.49414V6.61458A9.26189,9.26189,0,0,1,9.216,6.21517,10.44292,10.44292,0,0,1,11.24973,3.56185ZM7.81479,5.65072A9.1995,9.1995,0,0,1,6.3306,4.70736,9.21193,9.21193,0,0,1,9.63919,3.06771,12.1664,12.1664,0,0,0,7.81479,5.65072Zm3.43494,2.46386v3.13575H7.79385a12.23012,12.23012,0,0,1,.7854-3.66895A10.711,10.711,0,0,0,11.24973,8.11458Zm0,4.63575v3.13476a10.71311,10.71311,0,0,0-2.67072.5332,12.23338,12.23338,0,0,1-.78516-3.668Zm0,4.63476V20.4388a10.44735,10.44735,0,0,1-2.03406-2.65429A9.26178,9.26178,0,0,1,11.24973,17.38509ZM9.63919,20.93294a9.21555,9.21555,0,0,1-3.3089-1.64062A9.19251,9.19251,0,0,1,7.81448,18.349,12.19679,12.19679,0,0,0,9.63919,20.93294Zm3.11054-.49414V17.38509a9.26538,9.26538,0,0,1,2.0343.39942A10.45,10.45,0,0,1,12.74973,20.4388ZM16.18558,18.349a9.19784,9.19784,0,0,1,1.48425.94336,9.21588,9.21588,0,0,1-3.30908,1.64062A12.19729,12.19729,0,0,0,16.18558,18.349Zm-3.43585-2.46387V12.75033h3.45684a12.22805,12.22805,0,0,1-.7857,3.668A10.716,10.716,0,0,0,12.74973,15.88509Zm0-4.63476V8.11458a10.75779,10.75779,0,0,0,2.671-.5332,12.22414,12.22414,0,0,1,.78589,3.669ZM5.21994,5.72982A10.67518,10.67518,0,0,0,7.19437,7.015a13.72934,13.72934,0,0,0-.9,4.23536H2.78873A9.20414,9.20414,0,0,1,5.21994,5.72982ZM2.78873,12.75033H6.2944a13.73277,13.73277,0,0,0,.89972,4.23437A10.66069,10.66069,0,0,0,5.2197,18.26986,9.20482,9.20482,0,0,1,2.78873,12.75033Zm15.99182,5.51953a10.76827,10.76827,0,0,0-1.97449-1.28516,13.72778,13.72778,0,0,0,.9-4.23437H21.2117A9.204,9.204,0,0,1,18.78055,18.26986Z" fill="#171717"/></svg>