<svg xmlns="http://www.w3.org/2000/svg" viewBox="0 0 24.75 24.75"><defs><style>.cls-1{fill:none;stroke:#171717;stroke-miterlimit:10;stroke-width:0.75px;}.cls-2{fill:#171717;}</style></defs><title>Globe</title><g id="Ebene_2" data-name="Ebene 2"><g id="Ebene_1-2" data-name="Ebene 1"><rect class="cls-1" x="0.375" y="0.375" width="24" height="24"/><path class="cls-2" d="M12.35809,4.0835a8.292,8.292,0,1,0,8.2915,8.292A8.30132,8.30132,0,0,0,12.35809,4.0835Zm7.523,7.917H16.64465a10.6381,10.6381,0,0,0-.943-4.0376,8.26506,8.26506,0,0,0,1.80414-1.084A7.51275,7.51275,0,0,1,19.8811,12.00049Zm-7.148-6.76709a8.35364,8.35364,0,0,1,1.92053,2.32373,7.52065,7.52065,0,0,1-1.92053.34424Zm.81109-.29736A7.49383,7.49383,0,0,1,16.922,6.38526a7.53935,7.53935,0,0,1-1.55823.90722A9.25541,9.25541,0,0,0,13.54418,4.936Zm-1.56109.3247V7.8999a7.542,7.542,0,0,1-1.88617-.34228A8.36322,8.36322,0,0,1,11.98309,5.26074ZM9.38751,7.29248a7.5023,7.5023,0,0,1-1.5755-.9209,7.49329,7.49329,0,0,1,3.39575-1.44091A9.26262,9.26262,0,0,0,9.38751,7.29248ZM11.98309,8.6499v3.35059H8.855A9.89077,9.89077,0,0,1,9.7456,8.231,8.27315,8.27315,0,0,0,11.98309,8.6499Zm0,4.10059v3.34912a8.28136,8.28136,0,0,0-2.24445.41309,9.89154,9.89154,0,0,1-.88422-3.76221Zm0,4.09912V19.499A8.364,8.364,0,0,1,10.088,17.1875,7.52085,7.52085,0,0,1,11.98309,16.84961Zm-.78522,2.96875a7.48853,7.48853,0,0,1-3.40033-1.45068,7.53581,7.53581,0,0,1,1.5799-.917A9.26,9.26,0,0,0,11.19787,19.81836Zm1.53522-.2915V16.85059a7.54581,7.54581,0,0,1,1.9209.35107A8.35058,8.35058,0,0,1,12.73309,19.52686Zm2.62927-2.05811a7.50112,7.50112,0,0,1,1.54578.90723,7.49788,7.49788,0,0,1-3.352,1.437A9.2738,9.2738,0,0,0,15.36236,17.46875Zm-2.62927-1.36816v-3.3501h3.16235a9.88744,9.88744,0,0,1-.89075,3.77734A8.272,8.272,0,0,0,12.73309,16.10059Zm0-4.1001V8.65137a8.286,8.286,0,0,0,2.27124-.41992,9.88615,9.88615,0,0,1,.8905,3.769Zm-5.507-5.13574A8.26465,8.26465,0,0,0,9.04852,7.9624a10.64458,10.64458,0,0,0-.94336,4.03809H4.83508A7.51176,7.51176,0,0,1,7.22607,6.86475Zm-2.391,5.88574H8.10461a10.64524,10.64524,0,0,0,.93616,4.0293,8.26443,8.26443,0,0,0-1.82734,1.09472A7.5125,7.5125,0,0,1,4.83508,12.75049Zm12.65869,5.13232a8.27636,8.27636,0,0,0-1.79285-1.084,10.64179,10.64179,0,0,0,.94434-4.04834H19.8811A7.51232,7.51232,0,0,1,17.49377,17.88281Z"/></g></g></svg>
