<?xml version="1.0" encoding="UTF-8"?><svg id="a" xmlns="http://www.w3.org/2000/svg" viewBox="0 0 24 24"><path d="M11.99973,1.25033C6.07297,1.25033,1.2507,6.07259,1.2507,12.00033c0,5.92676,4.82227,10.74902,10.74902,10.74902,5.92773,0,10.75-4.82227,10.75-10.74902,0-5.92773-4.82227-10.75-10.75-10.75ZM21.2117,11.25033h-3.50568c-.0802-1.47852-.38397-2.90918-.90015-4.23535.69995-.35059,1.35938-.7832,1.97443-1.28516,1.36761,1.47754,2.2597,3.39648,2.4314,5.52051ZM12.74973,3.56185c.80695.75098,1.48773,1.65234,2.03406,2.65332-.65723.20703-1.33777.34277-2.03406.39941v-3.05273ZM14.36075,3.06771c1.21991.32227,2.34039.88574,3.30878,1.63965-.46667.36328-.96326.67871-1.48413.94336-.50085-.94922-1.11523-1.81543-1.82465-2.58301ZM11.24973,3.56185v3.05273c-.69617-.05664-1.37659-.19238-2.03375-.39941.54614-1.00098,1.22687-1.90234,2.03375-2.65332ZM7.81479,5.65072c-.52094-.26465-1.01746-.58008-1.48419-.94336.96838-.75391,2.08875-1.31738,3.30859-1.63965-.70935.76758-1.32361,1.63379-1.8244,2.58301ZM11.24973,8.11458v3.13574h-3.45587c.07745-1.28223.3421-2.52148.7854-3.66895.85864.28809,1.75336.46973,2.67047.5332ZM11.24973,12.75033v3.13477c-.91724.06348-1.81201.24512-2.67072.5332-.44318-1.14746-.7077-2.38672-.78516-3.66797h3.45587ZM11.24973,17.38509v3.05371c-.80701-.75195-1.48785-1.65234-2.03406-2.6543.65717-.20703,1.33771-.34277,2.03406-.39941ZM9.63919,20.93294c-1.21991-.32324-2.34045-.88574-3.3089-1.64062.46661-.36328.9632-.67871,1.48419-.94336.50085.94922,1.11523,1.81543,1.82471,2.58398ZM12.74973,20.4388v-3.05371c.69635.05664,1.37701.19238,2.0343.39941-.54633,1.00195-1.22723,1.90234-2.0343,2.6543ZM16.18558,18.34896c.52094.26465,1.01758.58008,1.48425.94336-.96851.75488-2.08905,1.31738-3.30908,1.64062.70947-.76855,1.32397-1.63477,1.82483-2.58398ZM12.74973,15.88509v-3.13477h3.45685c-.07751,1.28125-.34229,2.52051-.78571,3.66797-.85876-.28809-1.75378-.46973-2.67114-.5332ZM12.74973,11.25033v-3.13574c.9173-.06445,1.81226-.24512,2.67096-.5332.44354,1.14746.70837,2.38672.78589,3.66895h-3.45685ZM5.21994,5.72982c.61523.50195,1.2746.93555,1.97443,1.28516-.51605,1.32617-.81976,2.75684-.89996,4.23535h-3.50568c.17169-2.12402,1.06372-4.04297,2.43121-5.52051ZM2.78873,12.75033h3.50568c.0802,1.47754.38379,2.9082.89972,4.23438-.70007.34961-1.35938.7832-1.97443,1.28516-1.36731-1.47754-2.25928-3.39648-2.43097-5.51953ZM18.78055,18.26986c-.61511-.50098-1.27454-.93457-1.97449-1.28516.51611-1.32617.81976-2.75684.89996-4.23438h3.50568c-.17169,2.12305-1.06366,4.04199-2.43115,5.51953Z"/></svg>