<?xml version="1.0" encoding="UTF-8"?><svg id="a" xmlns="http://www.w3.org/2000/svg" viewBox="0 0 24 24"><path d="M22.73986,7.91814L12.74181,2.13396,2.74377,7.91814l.00586.00342v7.12012c-.87085.31079-1.5,1.13574-1.5,2.11182v3.79395h4.5v-3.79395c0-.97607-.62915-1.80103-1.5-2.11182v-6.25244l2.2832,1.32104c-.34973.82471-.54102,1.71655-.54102,2.64185v1.94043l6.75,3.91406,6.75-3.91406v-1.85645c0-.9646-.20752-1.87817-.56787-2.71045l3.81592-2.20752ZM4.24963,19.44743h-1.5v-2.29395c0-.41309.33691-.75.75-.75s.75.33691.75.75v2.29395ZM12.74181,3.86638l7.00195,4.05176-7.00195,4.05176-7.00195-4.05176,7.00195-4.05176ZM17.99181,12.8361v.99316l-5.25,3.04297-5.25-3.04297v-1.07715c0-.65601.13354-1.2854.36536-1.87573l4.88464,2.82593,4.86157-2.81274c.24341.60327.38843,1.25562.38843,1.94653Z"/></svg>