<?xml version="1.0" encoding="UTF-8"?><svg id="a" xmlns="http://www.w3.org/2000/svg" viewBox="0 0 24 24"><path d="M22.7389,7.91831L12.74134,2.13316,2.74378,7.91831l.00635.00293v7.12012c-.87115.31055-1.5,1.13574-1.5,2.1123v4.59668h4.5v-4.59668c0-.97656-.62885-1.80176-1.5-2.1123v-6.25195l2.28198,1.32031c-.34967.8252-.54077,1.7168-.54077,2.64258v1.94043l6.75,3.91406,6.75-3.91406v-1.85645c0-.96484-.20752-1.87793-.56799-2.71094l3.81555-2.20703ZM4.25013,20.25034h-1.5v-3.09668c0-.41406.33643-.75.75-.75s.75.33594.75.75v3.09668ZM12.74134,3.86656l7.00244,4.05176-7.00244,4.05078-7.00244-4.05078,7.00244-4.05176ZM17.99134,12.83628v.99219l-5.25,3.04395-5.25-3.04395v-1.07617c0-.65625.13354-1.28516.3653-1.87598l4.8847,2.82617,4.86145-2.8125c.24347.60254.38855,1.25488.38855,1.94629Z"/></svg>