<?xml version="1.0" encoding="UTF-8"?><svg id="a" xmlns="http://www.w3.org/2000/svg" viewBox="0 0 24 24"><path d="M12.00046,1.25008C6.07272,1.25008,1.25046,6.07235,1.25046,12.00008s4.82227,10.75,10.75,10.75c5.92676,0,10.74902-4.82227,10.74902-10.75S17.92722,1.25008,12.00046,1.25008ZM12.00046,21.25008c-5.10059,0-9.25-4.14941-9.25-9.25S6.89987,2.75008,12.00046,2.75008c5.09961,0,9.24902,4.14941,9.24902,9.25s-4.14941,9.25-9.24902,9.25ZM15.40085,13.85067h1.5c0,2.70215-2.19824,4.90039-4.90039,4.90039s-4.90039-2.19824-4.90039-4.90039h1.5c0,1.875,1.52539,3.40039,3.40039,3.40039s3.40039-1.52539,3.40039-3.40039ZM8.16531,9.74056c-.86987,0-1.57501-.70532-1.57501-1.5752s.70514-1.57495,1.57501-1.57495,1.57501.70508,1.57501,1.57495-.70514,1.5752-1.57501,1.5752ZM17.40213,8.16536c0,.86987-.70514,1.5752-1.57501,1.5752-.86981,0-1.57501-.70532-1.57501-1.5752s.7052-1.57495,1.57501-1.57495c.86987,0,1.57501.70508,1.57501,1.57495Z"/></svg>