<?xml version="1.0" encoding="UTF-8"?><svg id="a" xmlns="http://www.w3.org/2000/svg" viewBox="0 0 24 24"><path d="M12.10205,21.74984v-1.5c2.18066,0,3.95508-1.77441,3.95508-3.95508,0-1.16504.60986-2.35156,1.19922-3.49902.50049-.97363,1.01758-1.98047,1.01758-2.75488,0-3.46875-2.82178-6.29102-6.29053-6.29102s-6.29053,2.82227-6.29053,6.29102h-1.5c0-4.2959,3.49463-7.79102,7.79053-7.79102s7.79053,3.49512,7.79053,7.79102c0,1.1377-.60156,2.30762-1.18359,3.44043-.50781.98828-1.0332,2.01074-1.0332,2.81348,0,3.00781-2.44727,5.45508-5.45508,5.45508ZM20.46533,4.48031l-1.06055-1.06055-1.08789,1.08789,1.06055,1.06055,1.08789-1.08789ZM12.51514,12.52816l-1.06055-1.06055-5.5791,5.58008,1.06055,1.06055,5.5791-5.58008ZM11.9834,5.24984c-2.70215,0-4.90039,2.19824-4.90039,4.90039h1.5c0-1.875,1.52539-3.40039,3.40039-3.40039s3.40039,1.52539,3.40039,3.40039h1.5c0-2.70215-2.19824-4.90039-4.90039-4.90039Z"/></svg>