<?xml version="1.0" encoding="UTF-8"?><svg id="a" xmlns="http://www.w3.org/2000/svg" viewBox="0 0 24 24"><path d="M1.25044,4.25054v15.5h21.5V4.25054H1.25044ZM21.25044,18.25054H2.75044V5.75054h18.5v12.5ZM7.01191,15.82671h-1.61133v-7.82031h1.61133v3.16895h3.1416v-3.16895h1.61133v7.82031h-1.61133v-3.35156h-3.1416v3.35156ZM17.43671,15.35406c.54395-.31152.96582-.75,1.26465-1.31641.29883-.56543.44824-1.21191.44824-1.93848v-.36035c0-.72656-.15137-1.37598-.45605-1.94727-.30469-.57031-.72754-1.01074-1.27051-1.32129-.54199-.30957-1.15723-.46387-1.84473-.46387h-2.40625v7.82031h2.42285c.68359-.00391,1.29785-.16113,1.8418-.47266ZM14.78339,14.53179v-5.2207h.79492c.63379,0,1.11523.20508,1.44434.61523.33008.41016.49414,1.0127.49414,1.80762v.41309c-.00684.7666-.17676,1.35547-.50977,1.76758-.33301.41113-.81445.61719-1.44531.61719h-.77832Z"/></svg>