<?xml version="1.0" encoding="UTF-8"?><svg id="a" xmlns="http://www.w3.org/2000/svg" viewBox="0 0 24 24"><path d="M21.75,13.12484c0-5.44531-4.37402-9.875-9.75-9.875S2.25,7.67952,2.25,13.12484v2.7251c0,2.34326,1.90625,4.25,4.25,4.25h.75v-8.5h-.75c-1.04181,0-1.98468.3916-2.72461,1.01562.26141-4.38037,3.84509-7.86572,8.22461-7.86572s7.9632,3.48535,8.22461,7.86572c-.73993-.62402-1.6828-1.01562-2.72461-1.01562h-.75v8.5h.75c2.34375,0,4.25-1.90674,4.25-4.25v-2.7251ZM5.75,13.20394v5.29199c-1.15332-.32715-2-1.38965-2-2.646s.84668-2.31885,2-2.646ZM18.25,18.49593v-5.29199c1.15332.32715,2,1.38965,2,2.646s-.84668,2.31885-2,2.646Z"/></svg>