<?xml version="1.0" encoding="UTF-8"?><svg id="a" xmlns="http://www.w3.org/2000/svg" viewBox="0 0 24 24"><path d="M11.99993,1.25016C6.62396,1.25016,2.24993,5.67984,2.24993,11.12516v1.00684h.00232c.01276,2.33301,1.91229,4.22754,4.24768,4.22754h.75V7.85953h-.75c-.87146,0-1.68152.26465-2.35657.7168,1.065-3.375,4.18311-5.82617,7.85657-5.82617s6.79156,2.45117,7.85657,5.82617c-.67505-.45215-1.48511-.7168-2.35657-.7168h-.75v8.5h.75c1.05353,0,2.00659-.39941,2.75-1.03711v4.48242h-5.30811v-1.51953h-5.88379v4.5h5.88379v-1.48047h6.80811v-10.17969c0-5.44531-4.37402-9.875-9.75-9.875ZM5.74993,9.46305v5.29199c-1.15283-.32715-2-1.38965-2-2.64551,0-1.25684.84717-2.31934,2-2.64648ZM13.44183,21.28531h-2.88379v-1.5h2.88379v1.5ZM18.24993,14.75504v-5.29199c1.15283.32715,2,1.38965,2,2.64648,0,1.25586-.84717,2.31836-2,2.64551Z"/></svg>