<svg xmlns="http://www.w3.org/2000/svg" viewBox="0 0 24 24"><title>Headphones</title><path d="M19.51624,11.92725l-.00013-.001h.00928a7.52575,7.52575,0,1,0-15.05078,0h.00928c-.0008.0249-.00928.04883-.00928.07422a2.29434,2.29434,0,0,0,2.2915,2.292h.375V9.7085h-.375a2.28841,2.28841,0,0,0-1.23877.36328c-.02063.01318-.03534.03223-.05542.0459a6.74742,6.74742,0,0,1,13.05616,0c-.02008-.01367-.03479-.03272-.05542-.0459a2.28841,2.28841,0,0,0-1.23877-.36328h-.375v4.584h.375a2.27564,2.27564,0,0,0,1.53869-.60547l-.00695,4.3877H13.71924v-.7666H10.31445v2.28222h3.40479v-.76562h5.79541l.01062-6.82324.00012-.001-.00012-.001.00012-.07226ZM5.93311,10.70264h.00048a1.5241,1.5241,0,0,1,.45752-.19824v2.99218a1.54278,1.54278,0,0,1-.458-2.79394Zm7.03613,8.13769H11.06445v-.78222h1.90479Zm4.63965-5.34375V10.5044a1.5241,1.5241,0,0,1,.45752.19824h.00048a1.53634,1.53634,0,0,1,.70838,1.29687V12.001A1.54547,1.54547,0,0,1,17.60889,13.49658Z" fill="#171717"/></svg>