<svg xmlns="http://www.w3.org/2000/svg" viewBox="0 0 15.05078 15.26367"><title>Headphones</title>
	<path
		d="M15.04163,7.60059l-.00013-.001h.00928A7.57141,7.57141,0,0,0,7.52539,0,7.57141,7.57141,0,0,0,0,7.59961H.00928C.00848,7.62451,0,7.64844,0,7.67383a2.29434,2.29434,0,0,0,2.2915,2.292h.375v-4.584h-.375a2.28841,2.28841,0,0,0-1.23877.36328c-.02063.01318-.03533.03222-.05542.0459a6.74742,6.74742,0,0,1,13.05616,0c-.02008-.01368-.03479-.03272-.05542-.0459a2.28838,2.28838,0,0,0-1.23877-.36328h-.375v4.584h.375A2.27564,2.27564,0,0,0,14.298,9.36035l-.00695,4.3877H9.24463v-.7666H5.83984v2.28222H9.24463v-.76562H15.04l.01062-6.82325.00012-.001-.00012-.001.00012-.07226ZM1.4585,6.376H1.459a1.52413,1.52413,0,0,1,.45752-.19825V9.16992A1.54278,1.54278,0,0,1,1.4585,6.376Zm7.03613,8.13769H6.58984v-.78222H8.49463Zm4.63965-5.34375V6.17773a1.52413,1.52413,0,0,1,.45752.19825h.00049a1.53635,1.53635,0,0,1,.70837,1.29687v.00147A1.54548,1.54548,0,0,1,13.13428,9.16992Z"
		fill="#171717"/>
</svg>
