<svg xmlns="http://www.w3.org/2000/svg" viewBox="0 0 24 24"><title>Headphones</title><path d="M11.99973,2.25033a9.82419,9.82419,0,0,0-9.75,9.875h.01171c-.00091.03125-.01171.06152-.01171.09277A3.17457,3.17457,0,0,0,5.42158,15.389h.75V9.0472h-.75a3.165,3.165,0,0,0-1.17051.23047,8.19492,8.19492,0,0,1,15.49719,0,3.15928,3.15928,0,0,0-1.16943-.23047h-.75V15.389h.75a3.14461,3.14461,0,0,0,1.6709-.48731v4.38086H14.42648v-.96777H9.573v3.43555h4.85351v-.96778h7.32325V12.12533A9.82419,9.82419,0,0,0,11.99973,2.25033ZM4.51926,10.81185a1.57867,1.57867,0,0,1,.15232-.08789v2.9873a1.67048,1.67048,0,0,1-.1533-2.89941Zm8.40722,9.43848H11.073v-.43555h1.85351Zm6.40235-6.53907V10.724a1.579,1.579,0,0,1,.15234.08789,1.67089,1.67089,0,0,1-.15234,2.89941Z" fill="#171717"/></svg>