<svg xmlns="http://www.w3.org/2000/svg" viewBox="0 0 24.75 24.75"><defs><style>.cls-1{fill:none;stroke:#171717;stroke-miterlimit:10;stroke-width:0.75px;}.cls-2{fill:#171717;}</style></defs><title>Headphones</title><g id="Ebene_2" data-name="Ebene 2"><g id="Ebene_1-2" data-name="Ebene 1"><rect class="cls-1" x="0.375" y="0.375" width="24" height="24"/><path class="cls-2" d="M19.87457,12.30225l-.00012-.001h.00927a7.52575,7.52575,0,1,0-15.05078,0h.00928c-.00079.0249-.00928.04883-.00928.07422a2.29435,2.29435,0,0,0,2.29151,2.292h.375v-4.584h-.375a2.28838,2.28838,0,0,0-1.23877.36328c-.02063.01318-.03534.03223-.05542.0459a6.74741,6.74741,0,0,1,13.05615,0c-.02008-.01367-.03479-.03272-.05542-.0459a2.28838,2.28838,0,0,0-1.23877-.36328h-.375v4.584h.375a2.27567,2.27567,0,0,0,1.5387-.60547l-.007,4.3877H14.07757v-.7666H10.67279v2.28222h3.40478v-.76562H19.873l.01062-6.82324.00012-.001-.00012-.001.00012-.07226ZM6.29144,11.07764h.00049a1.524,1.524,0,0,1,.45752-.19824v2.99218a1.54278,1.54278,0,0,1-.458-2.79394Zm7.03613,8.13769H11.42279v-.78222h1.90478Zm4.63965-5.34375V10.8794a1.524,1.524,0,0,1,.45752.19824h.00049a1.53634,1.53634,0,0,1,.70837,1.29687V12.376A1.54546,1.54546,0,0,1,17.96722,13.87158Z"/></g></g></svg>
