<?xml version="1.0" encoding="UTF-8"?><svg id="a" xmlns="http://www.w3.org/2000/svg" viewBox="0 0 24 24"><path d="M22.74973,8.54622c0,1.14746-.46387,2.31348-.89551,2.91309-1.89551,2.63281-9.05957,8.84473-9.36328,9.10742l-.49121.4248-.49121-.4248c-.30371-.2627-7.4668-6.47461-9.3623-9.1084-.43164-.59863-.89551-1.76465-.89551-2.91211,0-.47559.06348-.94434.18945-1.39355.6416-2.29785,2.79688-3.90234,5.24219-3.90234,1.2334,0,2.57031.56348,3.29102,1.08691.50195.36621,1.42773,1.30078,2.02637,1.92285.59863-.62207,1.52441-1.55664,2.02637-1.92188.7207-.52441,2.05762-1.08789,3.29102-1.08789,2.44629,0,4.60156,1.60449,5.24316,3.90234.12598.4541.18945.92285.18945,1.39355Z"/></svg>