<svg xmlns="http://www.w3.org/2000/svg" viewBox="0 0 24 24"><title>Heart</title><path d="M22.56027,7.15267a5.42256,5.42256,0,0,0-5.24316-3.90234,6.17375,6.17375,0,0,0-3.291,1.08789,21.625,21.625,0,0,0-2.02636,1.92187A21.77756,21.77756,0,0,0,9.97336,4.33724a6.18172,6.18172,0,0,0-3.291-1.08691A5.42226,5.42226,0,0,0,1.44016,7.15267,5.15932,5.15932,0,0,0,1.2507,8.54622a5.44943,5.44943,0,0,0,.89551,2.91211c1.89551,2.63379,9.05859,8.84571,9.3623,9.1084l.49122.42481.49121-.42481c.30371-.26269,7.46777-6.47461,9.36328-9.10742a5.45593,5.45593,0,0,0,.89551-2.91309A5.21233,5.21233,0,0,0,22.56027,7.15267Zm-1.92285,3.42969c-1.52051,2.11132-6.96584,6.9541-8.63769,8.42187-1.67188-1.46777-7.11622-6.31055-8.63672-8.42187A3.99873,3.99873,0,0,1,2.7507,8.54622,3.649,3.649,0,0,1,2.88547,7.556,3.917,3.917,0,0,1,6.68234,4.75033a4.665,4.665,0,0,1,2.40821.7998A28.66417,28.66417,0,0,1,11.4509,7.86068l.54883.58886.54882-.58789a28.67516,28.67516,0,0,1,2.36036-2.31152,4.665,4.665,0,0,1,2.4082-.7998A3.91763,3.91763,0,0,1,21.115,7.555a3.68805,3.68805,0,0,1,.13477.99121A3.99873,3.99873,0,0,1,20.63742,10.58236Z" fill="#171717"/></svg>