<svg xmlns="http://www.w3.org/2000/svg" viewBox="0 0 24 24"><title>HeartFilled</title><path d="M20.126,8.02832a4.0706,4.0706,0,0,0-3.92188-2.999,4.53893,4.53893,0,0,0-2.46875.84082,19.62245,19.62245,0,0,0-1.72558,1.69726,18.72424,18.72424,0,0,0-1.77295-1.748,4.46232,4.46232,0,0,0-2.40772-.79A4.06689,4.06689,0,0,0,3.7666,9.0918a3.65256,3.65256,0,0,0,.59082,2.11035c.89014,1.26758,7.186,7.20215,7.45362,7.45508l.25146.23633.25684-.23047c.23632-.21289,5.80859-5.23438,7.28613-7.34864A4.32275,4.32275,0,0,0,20.2666,9.0918,4.07,4.07,0,0,0,20.126,8.02832Z" fill="#171717"/></svg>