<?xml version="1.0" encoding="UTF-8"?><svg id="a" xmlns="http://www.w3.org/2000/svg" viewBox="0 0 24 24"><path d="M22.56027,7.15267c-.6416-2.29785-2.79688-3.90234-5.24316-3.90234-1.2334,0-2.57031.56348-3.29102,1.08789-.50195.36523-1.42773,1.2998-2.02637,1.92188-.59863-.62207-1.52441-1.55664-2.02637-1.92285-.7207-.52344-2.05762-1.08691-3.29102-1.08691-2.44531,0-4.60059,1.60449-5.24219,3.90234-.12598.44922-.18945.91797-.18945,1.39355,0,1.14746.46387,2.31348.89551,2.91211,1.89551,2.63379,9.05859,8.8457,9.3623,9.1084l.49121.4248.49121-.4248c.30371-.2627,7.46777-6.47461,9.36328-9.10742.43164-.59961.89551-1.76562.89551-2.91309,0-.4707-.06348-.93945-.18945-1.39355ZM20.63742,10.58236c-1.52051,2.11133-6.96584,6.9541-8.6377,8.42188-1.67188-1.46777-7.11621-6.31055-8.63672-8.42188-.30078-.41797-.6123-1.29395-.6123-2.03613,0-.33887.04492-.6709.13477-.99023.46094-1.65234,2.02246-2.80566,3.79688-2.80566.84961,0,1.875.41211,2.4082.7998.52734.38379,1.88281,1.79785,2.36035,2.31055l.54883.58887.54883-.58789c.47754-.51367,1.83398-1.92773,2.36035-2.31152.5332-.3877,1.55859-.7998,2.4082-.7998,1.77539,0,3.33691,1.15332,3.79785,2.80469.08984.32227.13477.65527.13477.99121,0,.74219-.31152,1.61816-.6123,2.03613Z"/></svg>