<svg xmlns="http://www.w3.org/2000/svg" viewBox="0 0 16.5 13.86426"><title>Heart</title>
	<path
		d="M8.2959,13.86426l-.25147-.23633C7.77686,13.375,1.481,7.44043.59082,6.17285A3.65256,3.65256,0,0,1,0,4.0625,4.0669,4.0669,0,0,1,4.0625,0,4.46225,4.46225,0,0,1,6.47021.79,18.72082,18.72082,0,0,1,8.24316,2.53809,19.62265,19.62265,0,0,1,9.96875.84082,4.53893,4.53893,0,0,1,12.4375,0,4.058,4.058,0,0,1,16.5,4.0625a4.32282,4.32282,0,0,1-.66113,2.22266c-1.47754,2.11425-7.04981,7.13574-7.28614,7.34863ZM4.0625.75A3.31638,3.31638,0,0,0,.75,4.0625a2.90947,2.90947,0,0,0,.45459,1.67871c.75049,1.06934,5.897,5.96192,7.10254,7.10254,1.12988-1.02832,5.66308-5.19434,6.9165-6.98828A3.59359,3.59359,0,0,0,15.75,4.0625a3.33271,3.33271,0,0,0-.11426-.86719l-.001-.001A3.31723,3.31723,0,0,0,12.4375.75a3.77311,3.77311,0,0,0-2.01855.69043,23.621,23.621,0,0,0-1.89942,1.9043l-.27881.30664-.27685-.30762a22.50308,22.50308,0,0,0-1.93848-1.9502A3.75836,3.75836,0,0,0,4.0625.75Z"
		fill="#171717"/>
</svg>
