<svg xmlns="http://www.w3.org/2000/svg" viewBox="0 0 16.5 13.86426"><title>HeartFilled</title>
	<path
		d="M16.35938,2.999A4.0706,4.0706,0,0,0,12.4375,0,4.53893,4.53893,0,0,0,9.96875.84082,19.62265,19.62265,0,0,0,8.24316,2.53809,18.72082,18.72082,0,0,0,6.47021.79,4.46225,4.46225,0,0,0,4.0625,0,4.0669,4.0669,0,0,0,0,4.0625,3.65256,3.65256,0,0,0,.59082,6.17285c.89014,1.26758,7.186,7.20215,7.45361,7.45508l.25147.23633.25683-.23047c.23633-.21289,5.8086-5.23438,7.28614-7.34863A4.32282,4.32282,0,0,0,16.5,4.0625,4.07,4.07,0,0,0,16.35938,2.999Z"
		fill="#171717"/>
</svg>
