<svg xmlns="http://www.w3.org/2000/svg" viewBox="0 0 24 24"><title>HeartFilled</title><path d="M22.56027,7.15267a5.42256,5.42256,0,0,0-5.24316-3.90234,6.17375,6.17375,0,0,0-3.291,1.08789,21.625,21.625,0,0,0-2.02636,1.92187A21.77756,21.77756,0,0,0,9.97336,4.33724a6.18172,6.18172,0,0,0-3.291-1.08691A5.42226,5.42226,0,0,0,1.44016,7.15267,5.15932,5.15932,0,0,0,1.2507,8.54622a5.44943,5.44943,0,0,0,.89551,2.91211c1.89551,2.63379,9.05859,8.84571,9.3623,9.1084l.49122.42481.49121-.42481c.30371-.26269,7.46777-6.47461,9.36328-9.10742a5.45593,5.45593,0,0,0,.89551-2.91309A5.21233,5.21233,0,0,0,22.56027,7.15267Z" fill="#171717"/></svg>