<svg xmlns="http://www.w3.org/2000/svg" viewBox="0 0 24.75 24.75"><defs><style>.cls-1{fill:none;stroke:#171717;stroke-miterlimit:10;stroke-width:0.75px;}.cls-2{fill:#171717;}</style></defs><title>Heart</title><g id="Ebene_2" data-name="Ebene 2"><g id="Ebene_1-2" data-name="Ebene 1"><rect class="cls-1" x="0.375" y="0.375" width="24" height="24"/><path class="cls-2" d="M12.4375,19.26872l-.25146-.23633c-.26758-.25293-6.56348-6.1875-7.45362-7.45508A3.65256,3.65256,0,0,1,4.1416,9.467a4.0669,4.0669,0,0,1,4.0625-4.0625,4.46232,4.46232,0,0,1,2.40772.79,18.72319,18.72319,0,0,1,1.77295,1.74805,19.62123,19.62123,0,0,1,1.72558-1.69727,4.53893,4.53893,0,0,1,2.46875-.84082A4.058,4.058,0,0,1,20.6416,9.467a4.32282,4.32282,0,0,1-.66113,2.22266c-1.47754,2.11426-7.04981,7.13574-7.28613,7.34863ZM8.2041,6.15446A3.31638,3.31638,0,0,0,4.8916,9.467a2.90945,2.90945,0,0,0,.45459,1.67871c.75049,1.06934,5.897,5.96192,7.10254,7.10254,1.12988-1.02832,5.66309-5.19433,6.9165-6.98828a3.59359,3.59359,0,0,0,.52637-1.793,3.33271,3.33271,0,0,0-.11426-.86719l-.001-.001A3.31723,3.31723,0,0,0,16.5791,6.15446a3.77314,3.77314,0,0,0-2.01855.69043,23.62426,23.62426,0,0,0-1.89942,1.9043l-.27881.30664-.27685-.30762A22.50153,22.50153,0,0,0,10.167,6.798,3.75827,3.75827,0,0,0,8.2041,6.15446Z"/></g></g></svg>
