<?xml version="1.0" encoding="UTF-8"?><svg id="a" xmlns="http://www.w3.org/2000/svg" viewBox="0 0 24 24"><path d="M11.99973,1.25033C6.07199,1.25033,1.24973,6.07259,1.24973,12.00033c0,5.92676,4.82227,10.74902,10.75,10.74902s10.75-4.82227,10.75-10.74902c0-5.92773-4.82227-10.75-10.75-10.75ZM11.99973,21.24935c-5.10059,0-9.25-4.14941-9.25-9.24902C2.74973,6.89974,6.89914,2.75033,11.99973,2.75033s9.25,4.14941,9.25,9.25c0,5.09961-4.14941,9.24902-9.25,9.24902ZM12.47922,16.80306c.1582.17383.2373.38867.2373.64551s-.0791.46973-.2373.6377-.38965.25195-.69531.25195c-.30469,0-.53516-.08398-.69043-.25195s-.2334-.38086-.2334-.6377.07812-.47168.2334-.64551c.15527-.1748.38574-.26172.69043-.26172.30566,0,.53711.08691.69531.26172ZM14.5173,6.59408c.59668.57227.89453,1.3584.89453,2.35645,0,.9873-.45801,1.96094-1.37305,2.91992l-.92383.91406c-.41309.45703-.61914,1.11426-.61914,1.97168h-1.56836c.01172-.67188.08789-1.20215.22949-1.59082.14062-.38965.42871-.82129.86426-1.29492l1.11035-1.14258c.47461-.53516.71191-1.11035.71191-1.72559,0-.5918-.15527-1.05566-.46582-1.39062-.31152-.33594-.7627-.50391-1.35645-.50391-.57617,0-1.04004.15332-1.38965.45801-.35059.30469-.52539.71484-.52539,1.22852h-1.56836c.01074-.91504.33789-1.65332.97852-2.21582.6416-.5625,1.47656-.84375,2.50488-.84375,1.06836,0,1.90037.28613,2.49609.85938Z"/></svg>