<svg xmlns="http://www.w3.org/2000/svg" viewBox="0 0 24 24"><title>Help</title><path d="M11.71555,19.12533a.95665.95665,0,0,0-.7461.292,1.02078,1.02078,0,0,0-.26562.71289.964.964,0,0,0,.26562.68945.9809.9809,0,0,0,.7461.2793,1.00629,1.00629,0,0,0,.74609-.2793.93806.93806,0,0,0,.27734-.68945.99221.99221,0,0,0-.27734-.71289A.981.981,0,0,0,11.71555,19.12533Z" fill="#171717"/><path d="M15.4343,4.03255a4.50059,4.50059,0,0,0-3.34864-1.23926,4.90056,4.90056,0,0,0-3.417,1.21582A4.22343,4.22343,0,0,0,7.29953,7.24642H8.7673a3.0533,3.0533,0,0,1,.93164-2.28809,3.35843,3.35843,0,0,1,2.38672-.84472,2.97389,2.97389,0,0,1,2.28809.88086,3.41484,3.41484,0,0,1,.82031,2.42089,4.4529,4.4529,0,0,1-.1914,1.36231,4.03514,4.03514,0,0,1-.543,1.09668,15.7891,15.7891,0,0,1-1.57227,1.70019,6.99569,6.99569,0,0,0-1.5918,2.08887,6.4839,6.4839,0,0,0-.39453,2.34082h1.46778a4.19269,4.19269,0,0,1,1.39453-3.40137,10.80142,10.80142,0,0,0,2.29394-2.71679A5.34752,5.34752,0,0,0,16.66183,7.39,4.55822,4.55822,0,0,0,15.4343,4.03255Z" fill="#171717"/></svg>