<svg xmlns="http://www.w3.org/2000/svg" viewBox="0 0 24.75 24.75"><defs><style>.cls-1{fill:none;stroke:#171717;stroke-miterlimit:10;stroke-width:0.75px;}</style></defs><title>Help</title><g id="Ebene_2" data-name="Ebene 2"><g id="Ebene_1-2" data-name="Ebene 1"><rect class="cls-1" x="0.375" y="0.375" width="24" height="24"/><path d="M11.1384,15.4956a5.8703,5.8703,0,0,1,.26367-1.833,4.712,4.712,0,0,1,.99609-1.49121l1.2793-1.3164a2.951,2.951,0,0,0,.82031-1.98828,2.26657,2.26657,0,0,0-.53711-1.60254,2.02378,2.02378,0,0,0-1.5625-.58008,2.35265,2.35265,0,0,0-1.60156.52734,1.78353,1.78353,0,0,0-.60547,1.416H8.38449A3.29377,3.29377,0,0,1,9.51242,6.07373a4.22054,4.22054,0,0,1,2.88574-.97168,3.9834,3.9834,0,0,1,2.876.98925,3.58713,3.58713,0,0,1,1.03027,2.71582,4.90855,4.90855,0,0,1-1.582,3.36426l-1.06445,1.05274A3.28209,3.28209,0,0,0,12.945,15.4956Zm-.07813,3.10254a1.07693,1.07693,0,0,1,.26856-.74414,1.01381,1.01381,0,0,1,.7959-.30078,1.02774,1.02774,0,0,1,.80078.30078,1.06262,1.06262,0,0,1,.27343.74414,1.02719,1.02719,0,0,1-.27343.73438,1.04432,1.04432,0,0,1-.80078.291,1.03,1.03,0,0,1-.7959-.291A1.04075,1.04075,0,0,1,11.06027,18.59814Z"/></g></g></svg>
