<svg xmlns="http://www.w3.org/2000/svg" viewBox="0 0 24 24"><title>HelpCircle</title><path d="M11.99973,1.25033a10.74951,10.74951,0,1,0,10.75,10.75A10.762,10.762,0,0,0,11.99973,1.25033Zm0,19.999a9.24951,9.24951,0,1,1,9.25-9.249A9.26012,9.26012,0,0,1,11.99973,21.24935Z" fill="#171717"/><path d="M11.78391,16.54134a.87556.87556,0,0,0-.69043.26172.93332.93332,0,0,0-.2334.64551.9694.9694,0,0,0,1.61914.63769.89373.89373,0,0,0,.2373-.63769.9228.9228,0,0,0-.2373-.64551A.8894.8894,0,0,0,11.78391,16.54134Z" fill="#171717"/><path d="M12.02121,5.7347a3.661,3.661,0,0,0-2.50488.84375,2.85523,2.85523,0,0,0-.97852,2.21582h1.56836a1.54573,1.54573,0,0,1,.52539-1.22851,2.04126,2.04126,0,0,1,1.38965-.458,1.75769,1.75769,0,0,1,1.35645.5039,1.96737,1.96737,0,0,1,.46582,1.39063,2.55878,2.55878,0,0,1-.71192,1.72558l-1.11035,1.14258a4.05333,4.05333,0,0,0-.86426,1.29492,5.05253,5.05253,0,0,0-.22949,1.59082h1.56836a2.843,2.843,0,0,1,.61914-1.97167l.92383-.91407a4.261,4.261,0,0,0,1.373-2.91992,3.11157,3.11157,0,0,0-.89453-2.35644A3.45179,3.45179,0,0,0,12.02121,5.7347Z" fill="#171717"/></svg>