<svg xmlns="http://www.w3.org/2000/svg" viewBox="0 0 24 24"><title>HelpCircle</title><path d="M12.03418,7.04053a2.89709,2.89709,0,0,0-1.98291.668,2.25705,2.25705,0,0,0-.7749,1.7539h1.24121a1.22513,1.22513,0,0,1,.416-.97265,1.6174,1.6174,0,0,1,1.10059-.36231,1.39183,1.39183,0,0,1,1.07373.39844,1.55856,1.55856,0,0,1,.36914,1.10156,2.0288,2.0288,0,0,1-.564,1.36621l-.87891.9043a3.22807,3.22807,0,0,0-.68457,1.02442,4.00568,4.00568,0,0,0-.18115,1.25976h1.2417a2.25075,2.25075,0,0,1,.48974-1.56055l.73145-.72363a3.37389,3.37389,0,0,0,1.08691-2.31152,2.46584,2.46584,0,0,0-.708-1.86621A2.73639,2.73639,0,0,0,12.03418,7.04053Z" fill="#171717"/><path d="M11.84619,15.59619a.695.695,0,0,0-.54687.20606.74211.74211,0,0,0-.18457.51172.735.735,0,1,0,1.46972,0,.73563.73563,0,0,0-.188-.51172A.70631.70631,0,0,0,11.84619,15.59619Z" fill="#171717"/><path d="M12,3.7085a8.292,8.292,0,1,0,8.291,8.292A8.30132,8.30132,0,0,0,12,3.7085Zm0,15.834a7.542,7.542,0,1,1,7.5415-7.542A7.55082,7.55082,0,0,1,12,19.54248Z" fill="#171717"/></svg>