<svg xmlns="http://www.w3.org/2000/svg" viewBox="0 0 24 24"><title>Help</title><path d="M10.7634,15.12061a5.8703,5.8703,0,0,1,.26367-1.833,4.712,4.712,0,0,1,.99609-1.49121L13.30246,10.48a2.951,2.951,0,0,0,.82031-1.98828,2.2666,2.2666,0,0,0-.53711-1.60254,2.02378,2.02378,0,0,0-1.5625-.58008,2.3527,2.3527,0,0,0-1.60158.52735,1.78358,1.78358,0,0,0-.60545,1.416H8.00949A3.29377,3.29377,0,0,1,9.13742,5.69873a4.22054,4.22054,0,0,1,2.88574-.97168,3.98341,3.98341,0,0,1,2.876.98926,3.58711,3.58711,0,0,1,1.03027,2.71582,4.90857,4.90857,0,0,1-1.582,3.36426l-1.06445,1.05273A3.28211,3.28211,0,0,0,12.57,15.12061Zm-.07813,3.10253a1.077,1.077,0,0,1,.26856-.74414,1.01385,1.01385,0,0,1,.7959-.30078,1.02777,1.02777,0,0,1,.80078.30078,1.06264,1.06264,0,0,1,.27343.74414,1.02719,1.02719,0,0,1-.27343.73438,1.04429,1.04429,0,0,1-.80078.291,1.03,1.03,0,0,1-.7959-.291A1.04075,1.04075,0,0,1,10.68527,18.22314Z" fill="#171717"/></svg>