<svg xmlns="http://www.w3.org/2000/svg" viewBox="0 0 7.91992 14.52148"><title>Help</title>
	<path
		d="M2.75391,10.39355a5.87028,5.87028,0,0,1,.26367-1.833,4.7116,4.7116,0,0,1,.99609-1.49121L5.293,5.75293a2.951,2.951,0,0,0,.82031-1.98828,2.2666,2.2666,0,0,0-.53711-1.60254A2.02378,2.02378,0,0,0,4.01367,1.582a2.3527,2.3527,0,0,0-1.60158.52735,1.78358,1.78358,0,0,0-.60545,1.416H0A3.29377,3.29377,0,0,1,1.12793.97168,4.22054,4.22054,0,0,1,4.01367,0a3.98341,3.98341,0,0,1,2.876.98926A3.58711,3.58711,0,0,1,7.91992,3.70508a4.90857,4.90857,0,0,1-1.582,3.36426L5.27344,8.12207a3.2821,3.2821,0,0,0-.71289,2.27148Zm-.07813,3.10254a1.077,1.077,0,0,1,.26856-.74414,1.01384,1.01384,0,0,1,.79589-.30078A1.02778,1.02778,0,0,1,4.541,12.752a1.06264,1.06264,0,0,1,.27343.74414,1.02719,1.02719,0,0,1-.27343.73438,1.04433,1.04433,0,0,1-.80079.291,1.03,1.03,0,0,1-.79589-.291A1.04075,1.04075,0,0,1,2.67578,13.49609Z"
		fill="#171717"/>
</svg>
