<svg xmlns="http://www.w3.org/2000/svg" viewBox="0 0 16.58301 16.58398"><title>HelpCircle</title>
	<path
		d="M8.32617,3.332A2.89709,2.89709,0,0,0,6.34326,4a2.25709,2.25709,0,0,0-.7749,1.75391H6.80957a1.22513,1.22513,0,0,1,.416-.97266A1.61735,1.61735,0,0,1,8.32617,4.419a1.39183,1.39183,0,0,1,1.07373.39843A1.55854,1.55854,0,0,1,9.769,5.919a2.02884,2.02884,0,0,1-.564,1.36621l-.87891.90429A3.22824,3.22824,0,0,0,7.6416,9.21387a4.006,4.006,0,0,0-.18115,1.25976h1.2417a2.2507,2.2507,0,0,1,.48974-1.56054l.73145-.72364a3.37389,3.37389,0,0,0,1.08691-2.31152,2.46587,2.46587,0,0,0-.708-1.86621A2.73641,2.73641,0,0,0,8.32617,3.332Z"
		fill="#171717"/>
	<path
		d="M8.13818,11.8877a.695.695,0,0,0-.54687.206.74211.74211,0,0,0-.18457.51172.735.735,0,1,0,1.46972,0,.73562.73562,0,0,0-.188-.51172A.70634.70634,0,0,0,8.13818,11.8877Z"
		fill="#171717"/>
	<path d="M8.292,0a8.292,8.292,0,1,0,8.291,8.292A8.30133,8.30133,0,0,0,8.292,0Zm0,15.834A7.542,7.542,0,1,1,15.8335,8.292,7.55081,7.55081,0,0,1,8.292,15.834Z"
		  fill="#171717"/>
</svg>
