<?xml version="1.0" encoding="UTF-8"?><svg id="a" xmlns="http://www.w3.org/2000/svg" viewBox="0 0 24 24"><path d="M16.22336,16.4873l-6.37891-3.6748-.00586-7.36133,1.5-.00098.00586,6.49512,5.62695,3.24219-.74805,1.2998ZM22.64658,10.49984c-.39996-2.83984-1.88-5.35986-4.17999-7.08984C13.7366-.15007,6.97659.80013,3.4166,5.53011c-2.77002,3.67969-2.90002,8.62988-.34998,12.43994l-2,.0498.03998,1.5,3.73999-.08984,1.79004-3.29004-1.31-.71973-.97003,1.77979c-2.25-3.27002-2.15002-7.56982.25-10.77002,3.07001-4.06982,8.89001-4.89014,12.96002-1.81982,1.96997,1.48975,3.25,3.65967,3.58997,6.09961.35004,2.4502-.27997,4.88037-1.76996,6.86035-2.03003,2.68994-5.37006,4.06982-8.71002,3.58984l-.21002,1.47998c.51001.06982,1.02002.10986,1.53003.10986,3.34998,0,6.53998-1.56006,8.58997-4.27979,1.73004-2.29004,2.46-5.12012,2.06-7.97021Z"/></svg>