<svg xmlns="http://www.w3.org/2000/svg" viewBox="0 0 24 24"><polygon points="16.223 16.487 9.844 12.813 9.839 5.451 11.339 5.45 11.344 11.945 16.971 15.188 16.223 16.487" fill="#171717"/><path d="M20.58658,18.47005a10.7511,10.7511,0,0,1-8.59,4.27979,11.27426,11.27426,0,0,1-1.53-.10987l.21-1.48a9.26834,9.26834,0,0,0,8.71-3.58984,9.26273,9.26273,0,0,0-1.82-12.96A9.2464,9.2464,0,0,0,4.3566,17.2l.97-1.77978,1.31.71972-1.79,3.29-3.74.08985-.04-1.5,2-.04981A10.74809,10.74809,0,0,1,18.46658,3.41a10.7514,10.7514,0,0,1,2.12,15.06006Z" fill="#171717"/></svg>