<svg xmlns="http://www.w3.org/2000/svg" viewBox="0 0 24 24"><path d="M8.28293,7.41243A1.06592,1.06592,0,1,0,9.34836,6.347,1.0661,1.0661,0,0,0,8.28293,7.41243Z" fill="#171717"/><path d="M5.37057,11.03548a.63154.63154,0,1,0,.63154-.63183A.631.631,0,0,0,5.37057,11.03548Z" fill="#171717"/><path d="M16.95578,5.97493c-.53027-.32324-3.1377-2.21582-4.09668-2.91894l-.15527-.11231-.6416-.085L8.62961.35189,8.9841,2.91146H8.71066l-5.53515,7.707L3.53,11.78939l.50488,1.2334,2.06348.89355,4.67676-2.50293.77539.0918,1.71582,2.80371,1.73437,2.53223v5.15918h1.5V16.37728l-1.97558-2.88281L12.4509,10.10189l-1.9668-.23438L6.03,12.25228,5.19016,11.889l-.24708-.59864-.11914-.39648L9.48019,4.41146h1.22657l-.10645-.7627.65039.47461V6.24251h1.5V4.83333c.166.1211.34509.251.541.39258v2.8252h1.5V6.304c.19134.13672.37243.26464.54.38183V9.85872h1.5V7.73177l.542.39063v3.54492h1.5V9.20443l.6875.49609.87695-1.2168Z" fill="#171717"/></svg>