<?xml version="1.0" encoding="UTF-8"?><svg id="a" xmlns="http://www.w3.org/2000/svg" viewBox="0 0 24 24"><path d="M9.34836,6.34701c.58789,0,1.06641.47852,1.06641,1.06543,0,.58789-.47852,1.06543-1.06641,1.06543s-1.06543-.47754-1.06543-1.06543c0-.58691.47754-1.06543,1.06543-1.06543ZM5.37057,11.03548c0,.34863.28271.63086.63153.63086s.63153-.28223.63153-.63086c0-.34961-.28271-.63184-.63153-.63184s-.63153.28223-.63153.63184ZM16.95578,5.97493c-.53027-.32324-3.1377-2.21582-4.09668-2.91895l-.15527-.1123-.6416-.08496L8.62961.35189l.35449,2.55957h-.27344l-5.53516,7.70703.35449,1.1709.50488,1.2334,2.06348.89355,4.67676-2.50293.77539.0918,1.71582,2.80371,1.73438,2.53223v5.15918h1.5v-5.62305l-1.97559-2.88281-2.07422-3.39258-1.9668-.23438-4.4541,2.38477-.83984-.36328-.24707-.59863-.11914-.39648,4.65625-6.48242h1.22656l-.10645-.7627.65039.47461v2.11914h1.5v-1.40918c.16602.12109.34509.25098.54102.39258v2.8252h1.5v-1.74707c.19135.13672.37244.26465.54004.38184v3.17285h1.5v-2.12695l.54199.39062v3.54492h1.5v-2.46289l.6875.49609.87695-1.2168-3.48242-2.50879Z"/></svg>