<?xml version="1.0" encoding="UTF-8"?><svg id="a" xmlns="http://www.w3.org/2000/svg" viewBox="0 0 24 24"><path d="M15.3996,6.43529V1.07531h-6.85999v5.35999H3.24964v16.32001h17.5V6.43529h-5.35004ZM10.03962,2.57531h3.85999v3.85999h-3.85999v-3.85999ZM19.24964,21.2553h-4.81v-2.51001h-4.86005v2.51001h-4.82996V7.93529h14.5v13.32001ZM7.74964,15.07531v2.17999h-1.5v-2.17999h1.5ZM7.74964,12.03533v2.17999h-1.5v-2.17999h1.5ZM7.74964,9.0053v2.16998h-1.5v-2.16998h1.5ZM11.0796,9.0053v2.16998h-1.5v-2.16998h1.5ZM11.0796,12.03533v2.17999h-1.5v-2.17999h1.5ZM11.0796,15.07531v2.17999h-1.5v-2.17999h1.5ZM14.41962,12.03533v2.17999h-1.5v-2.17999h1.5ZM14.41962,9.0053v2.16998h-1.5v-2.16998h1.5ZM17.74964,9.0053v2.16998h-1.5v-2.16998h1.5ZM17.74964,12.03533v2.17999h-1.5v-2.17999h1.5ZM17.74964,15.07531v2.17999h-1.5v-2.17999h1.5ZM14.41962,15.07531v2.17999h-1.5v-2.17999h1.5ZM13.25959,4.0053v1h-.75v.75h-1v-.75h-.75v-1h.75v-.75h1v.75h.75Z"/></svg>