<?xml version="1.0" encoding="UTF-8"?><svg id="a" xmlns="http://www.w3.org/2000/svg" viewBox="0 0 24 24"><g><path d="M15.3996,6.43529V1.07531h-6.85999V6.43529H3.24964V22.7553H20.74964V6.43529h-5.35004Zm-5.35999-3.85999h3.85999v3.85999h-3.85999V2.57531Zm9.21002,18.67999h-4.81v-2.51001h-4.86005v2.51001H4.74964V7.93529h14.5v13.32001Z" fill="#171717"/><rect x="6.24964" y="15.07531" width="1.5" height="2.17999" fill="#171717"/><rect x="6.24964" y="12.03533" width="1.5" height="2.17999" fill="#171717"/><rect x="6.24964" y="9.0053" width="1.5" height="2.16998" fill="#171717"/><rect x="9.5796" y="9.0053" width="1.5" height="2.16998" fill="#171717"/><rect x="9.5796" y="12.03533" width="1.5" height="2.17999" fill="#171717"/><rect x="9.5796" y="15.07531" width="1.5" height="2.17999" fill="#171717"/><rect x="12.91962" y="12.03533" width="1.5" height="2.17999" fill="#171717"/><rect x="12.91962" y="9.0053" width="1.5" height="2.16998" fill="#171717"/><rect x="16.24964" y="9.0053" width="1.5" height="2.16998" fill="#171717"/><rect x="16.24964" y="12.03533" width="1.5" height="2.17999" fill="#171717"/><rect x="16.24964" y="15.07531" width="1.5" height="2.17999" fill="#171717"/><rect x="12.91962" y="15.07531" width="1.5" height="2.17999" fill="#171717"/></g><polygon points="13.25959 4.0053 13.25959 5.0053 12.50959 5.0053 12.50959 5.7553 11.50959 5.7553 11.50959 5.0053 10.75959 5.0053 10.75959 4.0053 11.50959 4.0053 11.50959 3.2553 12.50959 3.2553 12.50959 4.0053 13.25959 4.0053" fill="#171717"/></svg>