<?xml version="1.0" encoding="UTF-8"?><svg id="a" xmlns="http://www.w3.org/2000/svg" viewBox="0 0 24 24"><path d="M16.57969,5.25018V1.1496H7.40245v4.10059H1.2501v17.5h21.5V5.25018h-6.17041ZM8.90245,2.6496h6.17725v6.17773h-6.17725V2.6496ZM21.2501,21.25018h-6.82135v-2.5h-4.85748v2.5H2.7501V6.75018h4.65234v3.57715h9.17725v-3.57715h4.67041v14.5ZM4.24815,11.48944h1.5v2.46484h-1.5v-2.46484ZM11.2501,11.48944h1.5v2.46484h-1.5v-2.46484ZM7.74913,11.48944h1.5v2.46484h-1.5v-2.46484ZM14.75108,11.48944h1.5v2.46484h-1.5v-2.46484ZM19.75206,13.95429h-1.5v-2.46484h1.5v2.46484ZM4.24815,15.0246h1.5v2.46484h-1.5v-2.46484ZM11.2501,15.0246h1.5v2.46484h-1.5v-2.46484ZM7.74913,15.0246h1.5v2.46484h-1.5v-2.46484ZM14.75108,15.0246h1.5v2.46484h-1.5v-2.46484ZM18.25206,17.48944v-2.46484h1.5v2.46484h-1.5ZM12.74083,4.98846h1.3501v1.5h-1.3501v1.34961h-1.5v-1.34961h-1.34961v-1.5h1.34961v-1.34961h1.5v1.34961Z"/></svg>