<svg xmlns="http://www.w3.org/2000/svg" viewBox="0 0 24.75 24.75"><defs><style>.cls-1{fill:none;stroke:#171717;stroke-miterlimit:10;stroke-width:0.75px;}</style></defs><title>ID-Card</title><g id="Ebene_2" data-name="Ebene 2"><g id="Ebene_1-2" data-name="Ebene 1"><path d="M12.72347,5.61572V4.56494h-.75V5.61572H4.08284V19.13428H20.66536V5.61572Zm7.19238,12.76856H4.83284V6.36572h15.083Z"/><path d="M9.23177,15.99365a1.7689,1.7689,0,0,1,1.7666-1.7666h2.69971a1.7689,1.7689,0,0,1,1.7666,1.7666v1.05372h.75V15.99365a2.51941,2.51941,0,0,0-2.5166-2.5166H10.99837a2.5194,2.5194,0,0,0-2.5166,2.5166v1.05372h.75Z"/><path d="M12.348,12.94971a2.811,2.811,0,1,0-2.811-2.81055A2.81406,2.81406,0,0,0,12.348,12.94971Zm0-4.87207a2.061,2.061,0,1,1-2.061,2.06152A2.06376,2.06376,0,0,1,12.348,8.07764Z"/><rect class="cls-1" x="0.375" y="0.375" width="24" height="24"/></g></g></svg>
