<?xml version="1.0" encoding="UTF-8"?><svg id="a" xmlns="http://www.w3.org/2000/svg" viewBox="0 0 24 24"><path d="M17.79685,13.75h-4.36021v-1.5h4.36021v1.5ZM19.80957,9.25h-6.37292v1.5h6.37292v-1.5ZM22.75,3.25v17.5H1.25V3.25h21.5ZM21.25,4.75H2.75v14.5h18.5V4.75ZM5.7373,15.41211c0-.47998.46094-.87012,1.02734-.87012h2.56152c.56641,0,1.02734.39014,1.02734.87012v1.76758h1.5v-1.76758c0-1.30713-1.13379-2.37012-2.52734-2.37012h-2.56152c-1.39355,0-2.52734,1.06299-2.52734,2.37012v1.76758h1.5v-1.76758ZM5.04395,9.29199c0-1.65479,1.34668-3.00146,3.00195-3.00146,1.6543,0,3.00096,1.34668,3.00096,3.00146s-1.34666,3.00146-3.00096,3.00146c-1.65527,0-3.00195-1.34668-3.00195-3.00146ZM6.54395,9.29199c0,.82812.67383,1.50146,1.50195,1.50146s1.50096-.67334,1.50096-1.50146-.67283-1.50146-1.50096-1.50146-1.50195.67334-1.50195,1.50146Z"/></svg>