<svg xmlns="http://www.w3.org/2000/svg" viewBox="0 0 24 24"><title>IDCard</title><path d="M12.34912,5.24072V4.18994h-.75V5.24072H3.7085V18.75928H20.291V5.24072ZM19.5415,18.00928H4.4585V5.99072h15.083Z" fill="#171717"/><path d="M8.85742,15.61865a1.7689,1.7689,0,0,1,1.7666-1.7666h2.69971a1.7689,1.7689,0,0,1,1.7666,1.7666v1.05372h.75V15.61865a2.5194,2.5194,0,0,0-2.5166-2.5166H10.624a2.51941,2.51941,0,0,0-2.5166,2.5166v1.05372h.75Z" fill="#171717"/><path d="M11.97363,12.57471a2.811,2.811,0,1,0-2.811-2.81055A2.81407,2.81407,0,0,0,11.97363,12.57471Zm0-4.87207a2.061,2.061,0,1,1-2.061,2.06152A2.06377,2.06377,0,0,1,11.97363,7.70264Z" fill="#171717"/></svg>