<svg xmlns="http://www.w3.org/2000/svg" viewBox="0 0 16.58252 14.56934"><title>ID-Card</title>
	<path d="M8.64063,1.05078V0h-.75V1.05078H0V14.56934H16.58252V1.05078ZM15.833,13.81934H.75V1.80078H15.833Z" fill="#171717"/>
	<path
		d="M5.14893,11.42871a1.7689,1.7689,0,0,1,1.7666-1.7666h2.6997a1.7689,1.7689,0,0,1,1.76661,1.7666v1.05371h.75V11.42871a2.51941,2.51941,0,0,0-2.51661-2.5166H6.91553a2.5194,2.5194,0,0,0-2.5166,2.5166v1.05371h.75Z"
		fill="#171717"/>
	<path
		d="M8.26514,8.38477a2.811,2.811,0,1,0-2.811-2.81055A2.81407,2.81407,0,0,0,8.26514,8.38477Zm0-4.87207a2.061,2.061,0,1,1-2.061,2.06152A2.06376,2.06376,0,0,1,8.26514,3.5127Z"
		fill="#171717"/>
</svg>
