<?xml version="1.0" encoding="UTF-8"?><svg id="a" xmlns="http://www.w3.org/2000/svg" viewBox="0 0 24 24"><path d="M19.80832,12.24984h-6.34863v1.5h6.34863v-1.5ZM19.8132,9.24984h-6.34961v1.5h6.34961v-1.5ZM1.24973,3.74984v16.5h21.5V3.74984H1.24973ZM21.24973,18.74984H2.74973V5.24984h18.5v13.5ZM5.79074,15.02083c0-.55713.45312-1.01025,1.00977-1.01025h2.47949c.55762,0,1.01074.45312,1.01074,1.01025v2.229h1.5v-2.229c0-1.38428-1.12598-2.51025-2.51074-2.51025h-.79962c1.44489-.21436,2.56036-1.45166,2.56036-2.95557,0-1.6543-1.3457-3-3-3s-3,1.3457-3,3c0,1.50391,1.11548,2.74121,2.56036,2.95557h-.8006c-1.38379,0-2.50977,1.12598-2.50977,2.51025v2.229h1.5v-2.229ZM6.54074,9.55501c0-.82715.67285-1.5,1.5-1.5s1.5.67285,1.5,1.5-.67285,1.5-1.5,1.5-1.5-.67285-1.5-1.5Z"/></svg>