<svg xmlns="http://www.w3.org/2000/svg" viewBox="0 0 24 24"><title>IdCard</title><path d="M12.74973,3.24984v-1.25h-1.5v1.25h-10v17.5h21.5v-17.5Zm-10,16v-14.5h18.5v14.5Z" fill="#171717"/><path d="M13.84055,14.40609H10.15988A3.67386,3.67386,0,0,0,6.49,18.07552v.42432h1.5v-.42432a2.17223,2.17223,0,0,1,2.16992-2.16943h3.68067a2.17223,2.17223,0,0,1,2.16992,2.16943v.42432h1.5v-.42432A3.67387,3.67387,0,0,0,13.84055,14.40609Z" fill="#171717"/><path d="M11.99973,14.00667A4.25342,4.25342,0,1,0,7.7468,9.75326,4.2585,4.2585,0,0,0,11.99973,14.00667Zm0-7.00683A2.75342,2.75342,0,1,1,9.2468,9.75326,2.75686,2.75686,0,0,1,11.99973,6.99984Z" fill="#171717"/></svg>