<?xml version="1.0" encoding="UTF-8"?><svg id="a" xmlns="http://www.w3.org/2000/svg" viewBox="0 0 24 24"><path d="M12.74973,3.24984v-1.25h-1.5v1.25H1.24973v17.5h21.5V3.24984h-10ZM2.74973,19.24984V4.74984h18.5v14.5H2.74973ZM17.51047,18.07552v.42432h-1.5v-.42432c0-1.19629-.97363-2.16943-2.16992-2.16943h-3.68066c-1.19629,0-2.16992.97314-2.16992,2.16943v.42432h-1.5v-.42432c0-2.02344,1.64648-3.66943,3.66992-3.66943h3.68066c2.02344,0,3.66992,1.646,3.66992,3.66943ZM11.99973,14.00667c2.3457,0,4.25391-1.9082,4.25391-4.25342s-1.9082-4.25342-4.25391-4.25342c-2.34473,0-4.25293,1.9082-4.25293,4.25342s1.9082,4.25342,4.25293,4.25342ZM11.99973,6.99984c1.51855,0,2.75391,1.23535,2.75391,2.75342s-1.23535,2.75342-2.75391,2.75342c-1.51758,0-2.75293-1.23535-2.75293-2.75342s1.23535-2.75342,2.75293-2.75342Z"/></svg>