<svg xmlns="http://www.w3.org/2000/svg" viewBox="0 0 15.05078 15.19922"><title>Image</title>
	<path
		d="M3.375,1.083A2.292,2.292,0,1,0,5.6665,3.375,2.29476,2.29476,0,0,0,3.375,1.083Zm0,3.834A1.542,1.542,0,1,1,4.9165,3.375,1.54362,1.54362,0,0,1,3.375,4.917Z"
		fill="#171717"/>
	<path
		d="M0,0V15.19922H15.05078V0ZM14.30078,14.44922H.75V10.35938L2.90576,8.2041l2.28809,2.28711,5.53857-5.53808,3.56836,3.56835ZM10.73242,3.89258,5.19385,9.43066,2.90576,7.14355.75,9.29883V.75H14.30078V7.46094Z"
		fill="#171717"/>
</svg>
