<svg xmlns="http://www.w3.org/2000/svg" viewBox="0 0 24 24"><title>Image</title><path d="M7.84961,5.40967a2.292,2.292,0,1,0,2.2915,2.292A2.29476,2.29476,0,0,0,7.84961,5.40967Zm0,3.834a1.542,1.542,0,1,1,1.5415-1.542A1.54362,1.54362,0,0,1,7.84961,9.24365Z" fill="#171717"/><path d="M4.47461,4.32666V19.52588H19.52539V4.32666ZM18.77539,18.77588H5.22461V14.686l2.15576-2.15528,2.28809,2.28711L15.207,9.27979l3.56836,3.56836ZM15.207,8.21924,9.66846,13.75733,7.38037,11.47022,5.22461,13.62549V5.07666H18.77539V11.7876Z" fill="#171717"/></svg>