<svg xmlns="http://www.w3.org/2000/svg" viewBox="0 0 24.75 24.75"><defs><style>.cls-1{fill:none;stroke:#171717;stroke-miterlimit:10;stroke-width:0.75px;}.cls-2{fill:#171717;}</style></defs><title>Image</title><g id="Ebene_2" data-name="Ebene 2"><g id="Ebene_1-2" data-name="Ebene 1"><rect class="cls-1" x="0.375" y="0.375" width="24" height="24"/><path class="cls-2" d="M8.20794,5.78467a2.292,2.292,0,1,0,2.29151,2.292A2.29476,2.29476,0,0,0,8.20794,5.78467Zm0,3.834a1.542,1.542,0,1,1,1.54151-1.542A1.54362,1.54362,0,0,1,8.20794,9.61865Z"/><path class="cls-2" d="M4.83294,4.70166V19.90088H19.88372V4.70166ZM19.13372,19.15088H5.58294V15.061L7.7387,12.90576l2.28809,2.28711,5.53857-5.53808,3.56836,3.56836ZM15.56536,8.59424l-5.53857,5.53809L7.7387,11.84522,5.58294,14.00049V5.45166H19.13372V12.1626Z"/></g></g></svg>
