<svg xmlns="http://www.w3.org/2000/svg" viewBox="0 0 24.75 24.75"><defs><style>.cls-1{fill:none;stroke:#000;stroke-miterlimit:10;stroke-width:0.75px;}</style></defs><title>InfoCircle</title><g id="Ebene_2" data-name="Ebene 2"><g id="Ebene_1-2" data-name="Ebene 1"><rect class="cls-1" x="0.375" y="0.375" width="24" height="24"/><rect x="11.8042" y="10.05464" width="1.24121" height="7.26074"/><path d="M12.43506,7.41108a.69272.69272,0,0,0-.54688.208.74063.74063,0,0,0-.18457.50977.71511.71511,0,0,0,.18457.50293.70351.70351,0,0,0,.54688.20214.6722.6722,0,0,0,.73779-.70507.73376.73376,0,0,0-.1875-.50977A.70459.70459,0,0,0,12.43506,7.41108Z"/><path d="M12.375,4.079a8.29151,8.29151,0,1,0,8.291,8.292A8.30132,8.30132,0,0,0,12.375,4.079Zm0,15.833a7.54151,7.54151,0,1,1,7.5415-7.541A7.55,7.55,0,0,1,12.375,19.91206Z"/></g></g></svg>
