<svg xmlns="http://www.w3.org/2000/svg" viewBox="0 0 16.58301 16.58301"><title>InfoCircle</title>
	<rect x="7.72119" y="5.97559" width="1.24121" height="7.26074" fill="#171717"/>
	<path
		d="M8.35205,3.332a.69268.69268,0,0,0-.54687.208.74058.74058,0,0,0-.18457.50976.715.715,0,0,0,.18457.50293.70344.70344,0,0,0,.54687.20215.67221.67221,0,0,0,.73779-.70508A.73376.73376,0,0,0,8.90234,3.54.70458.70458,0,0,0,8.35205,3.332Z"
		fill="#171717"/>
	<path
		d="M8.292,0a8.29151,8.29151,0,1,0,8.291,8.292A8.30133,8.30133,0,0,0,8.292,0Zm0,15.833A7.54151,7.54151,0,1,1,15.8335,8.292,7.55,7.55,0,0,1,8.292,15.833Z"
		fill="#171717"/>
</svg>
