<svg xmlns="http://www.w3.org/2000/svg" viewBox="0 0 24 24"><title>InfoCircle</title><rect x="11.27902" y="9.07454" width="1.56836" height="9.1709" fill="#171717"/><path d="M12.0759,5.73519a.87823.87823,0,0,0-.69141.26269.93663.93663,0,0,0-.23242.64405.90484.90484,0,0,0,.23242.63574.89313.89313,0,0,0,.69141.25439.84986.84986,0,0,0,.93261-.89013.92747.92747,0,0,0-.23828-.644A.889.889,0,0,0,12.0759,5.73519Z" fill="#171717"/><path d="M11.99973,1.25033a10.74951,10.74951,0,1,0,10.75,10.74951A10.76165,10.76165,0,0,0,11.99973,1.25033Zm0,19.999a9.24951,9.24951,0,1,1,9.25-9.24951A9.26,9.26,0,0,1,11.99973,21.24935Z" fill="#171717"/></svg>