<?xml version="1.0" encoding="UTF-8"?><svg id="a" xmlns="http://www.w3.org/2000/svg" viewBox="0 0 24 24"><path d="M11.27902,9.07454h1.56836v9.1709h-1.56836v-9.1709ZM12.0759,5.73519c-.30566,0-.53516.08789-.69141.2627-.15527.17529-.23242.39014-.23242.64404,0,.25439.07715.46631.23242.63574.15625.16943.38574.25439.69141.25439.30469,0,.53613-.08496.69434-.25439s.23828-.38135.23828-.63574c0-.25391-.08008-.46875-.23828-.64404-.1582-.1748-.38965-.2627-.69434-.2627ZM22.74973,11.99984c0,5.92725-4.82227,10.74951-10.75,10.74951-5.92676,0-10.74902-4.82227-10.74902-10.74951S6.07297,1.25033,11.99973,1.25033c5.92773,0,10.75,4.82227,10.75,10.74951ZM21.24973,11.99984c0-5.1001-4.14941-9.24951-9.25-9.24951C6.90012,2.75033,2.7507,6.89974,2.7507,11.99984s4.14941,9.24951,9.24902,9.24951c5.10059,0,9.25-4.14941,9.25-9.24951Z"/></svg>