<svg xmlns="http://www.w3.org/2000/svg" viewBox="0 0 24.75 24.75"><defs><style>.cls-1{fill:none;stroke:#000;stroke-miterlimit:10;stroke-width:0.75px;}</style></defs><title>Info</title><g id="Ebene_2" data-name="Ebene 2"><g id="Ebene_1-2" data-name="Ebene 1"><rect class="cls-1" x="0.375" y="0.375" width="24" height="24"/><path d="M11.32492,6.1479a1.08049,1.08049,0,0,1,.26856-.74219,1.00811,1.00811,0,0,1,.79589-.30273,1.02194,1.02194,0,0,1,.80079.30273,1.06615,1.06615,0,0,1,.27343.74219,1.03053,1.03053,0,0,1-.27343.73242,1.04162,1.04162,0,0,1-.80079.293,1.02733,1.02733,0,0,1-.79589-.293A1.04412,1.04412,0,0,1,11.32492,6.1479ZM13.27805,19.517H11.47141V8.95063h1.80664Z"/></g></g></svg>
