<svg xmlns="http://www.w3.org/2000/svg" viewBox="0 0 24 24"><title>InfoCircle</title><rect x="11.4292" y="9.68408" width="1.24121" height="7.26074" fill="#171717"/><path d="M12.06006,7.04053a.69272.69272,0,0,0-.54688.208.74062.74062,0,0,0-.18457.50976.71511.71511,0,0,0,.18457.50293.70348.70348,0,0,0,.54688.20215.67221.67221,0,0,0,.73779-.70508.73376.73376,0,0,0-.1875-.50976A.70459.70459,0,0,0,12.06006,7.04053Z" fill="#171717"/><path d="M12,3.7085a8.29151,8.29151,0,1,0,8.291,8.292A8.30132,8.30132,0,0,0,12,3.7085Zm0,15.833a7.54151,7.54151,0,1,1,7.5415-7.541A7.55,7.55,0,0,1,12,19.54151Z" fill="#171717"/></svg>