<?xml version="1.0" encoding="UTF-8"?><svg id="a" xmlns="http://www.w3.org/2000/svg" viewBox="0 0 24 24"><path d="M12.00007,1.25031C6.07234,1.25031,1.25007,6.07258,1.25007,12.00031c0,5.92676,4.82227,10.75,10.75,10.75s10.75-4.82324,10.75-10.75c0-5.92773-4.82227-10.75-10.75-10.75ZM12.00007,21.25031c-5.10059,0-9.25-4.14941-9.25-9.25S6.89949,2.75031,12.00007,2.75031s9.25,4.14941,9.25,9.25-4.14941,9.25-9.25,9.25ZM11.25007,18.46613h1.5v-8.80078h-1.5v8.80078ZM12.00007,5.43781c-.60754,0-1.1001.49219-1.1001,1.09961s.49255,1.10059,1.1001,1.10059c.60742,0,1.09985-.49316,1.09985-1.10059s-.49243-1.09961-1.09985-1.09961Z"/></svg>