<?xml version="1.0" encoding="UTF-8"?><svg id="a" xmlns="http://www.w3.org/2000/svg" viewBox="0 0 24 24"><path d="M12.81519,20.08643h-1.63037c-3.27734,0-4.92188,0-6.09619-1.1748-1.17529-1.17578-1.17529-2.92285-1.17529-6.0957v-1.63086c0-3.27734,0-4.92188,1.17529-6.09668,1.17578-1.1748,2.82031-1.1748,6.09619-1.1748h1.63037c3.27734,0,4.92188,0,6.09619,1.1748,1.17529,1.17676,1.17529,2.82129,1.17529,6.09668v1.63086c0,3.27734,0,4.92188-1.17578,6.0957-1.1748,1.1748-2.81934,1.1748-6.0957,1.1748ZM11.18481,5.41357c-2.86279,0-4.29932,0-5.03564.73535-.73584.73535-.73584,2.17285-.73584,5.03613v1.63086c0,2.8623,0,4.29883.73584,5.03516.73486.73535,2.17236.73535,5.03564.73535h1.63037c2.86279,0,4.2998,0,5.03564-.73535.73584-.73438.73584-2.17188.73584-5.03516v-1.63086c0-2.8623,0-4.29883-.73633-5.03613-.73438-.73535-2.17188-.73535-5.03516-.73535h-1.63037ZM16.34207,6.56896c.60157,0,1.08924.48767,1.08924,1.08924s-.48767,1.08924-1.08924,1.08924-1.08924-.48767-1.08924-1.08924.48767-1.08924,1.08924-1.08924ZM11.99976,16.00342c-2.20703,0-4.00244-1.7959-4.00244-4.00293s1.79541-4.00293,4.00244-4.00293,4.00293,1.7959,4.00293,4.00293-1.7959,4.00293-4.00293,4.00293ZM11.99976,9.49756c-1.37988,0-2.50244,1.12305-2.50244,2.50293s1.12256,2.50293,2.50244,2.50293,2.50293-1.12305,2.50293-2.50293-1.12305-2.50293-2.50293-2.50293Z"/></svg>