<svg xmlns="http://www.w3.org/2000/svg" viewBox="0 0 24 24"><title>Key</title><path d="M7.75342,5.46216a2.29151,2.29151,0,1,0,2.292,2.291A2.29393,2.29393,0,0,0,7.75342,5.46216Zm0,3.833a1.54151,1.54151,0,1,1,1.542-1.542A1.54363,1.54363,0,0,1,7.75342,9.29517Z" fill="#171717"/><path d="M18.92822,15.6897l-4.9414-4.94238c.103-.332.20459-.76563.21093-.79786a5.21948,5.21948,0,0,0,.09424-.94921,5.3076,5.3076,0,0,0-4.22558-5.18457,5.36841,5.36841,0,0,0-2.13233,0A5.29262,5.29262,0,0,0,9,14.29224a5.22363,5.22363,0,0,0,.957-.09571l.19043-.043a5.29713,5.29713,0,0,0,.7583-.22852l.10449-.042c.12354-.05078.23975-.10254.35059-.15528V15.012H12.917v1.55567h1.55615v1.55664H16.0293v1.07324l.21191.10254a2.29263,2.29263,0,0,0,2.687-3.61035Zm-1.69433,3.08594a1.53826,1.53826,0,0,1-.45459-.06739v-1.334H15.22314V15.81763H13.667V14.262H12.11084V12.384l-.5835.39063a4.591,4.591,0,0,1-.80224.415l-.08887.03516a4.89291,4.89291,0,0,1-.71289.21093l-.10107.02246A4.39592,4.39592,0,0,1,9,13.54224a4.54284,4.54284,0,0,1-.91553-8.99219,4.6626,4.6626,0,0,1,1.83155,0,4.55616,4.55616,0,0,1,3.626,4.4502,4.48114,4.48114,0,0,1-.081.80761,8.962,8.962,0,0,1-.25244.89746l-.09375.23047,5.26464,5.26563a1.54236,1.54236,0,0,1-1.1455,2.57422Z" fill="#171717"/></svg>