<svg xmlns="http://www.w3.org/2000/svg" viewBox="0 0 24 24"><title>Key</title><path d="M7.615,4.44759a3.167,3.167,0,1,0,3.167,3.167A3.17083,3.17083,0,0,0,7.615,4.44759Zm0,4.834a1.667,1.667,0,1,1,1.667-1.667A1.66918,1.66918,0,0,1,7.615,9.28158Z" fill="#171717"/><path d="M21.42453,16.94954l-6.11426-6.11621c.06836-.21875.12793-.45068.18067-.69873l.03613-.18945A6.89272,6.89272,0,0,0,15.65012,8.7a6.9502,6.9502,0,1,0-6.9502,6.9502,6.83872,6.83872,0,0,0,1.26172-.126l.24512-.05566a6.496,6.496,0,0,0,.96-.28809l.2334-.08935v1.46679H13.362v1.96192h1.96191v1.9624h1.96289V21.7347l.42579.2041a3.13692,3.13692,0,0,0,1.37011.311,3.16786,3.16786,0,0,0,2.3418-5.3003Zm-2.3418,3.8003a1.69678,1.69678,0,0,1-.2959-.02588v-1.7417H16.82394v-1.9624H14.862V15.05794H12.90012V12.44857l-1.167.78076a5.462,5.462,0,0,1-.96386.49756l-.10743.042a5.91555,5.91555,0,0,1-.877.2583l-.09668.02246a5.39376,5.39376,0,0,1-.98828.10059A5.45077,5.45077,0,0,1,7.60129,3.36068,5.44971,5.44971,0,0,1,14.15012,8.7a5.43806,5.43806,0,0,1-.09961.981l-.02735.14062a5.37132,5.37132,0,0,1-.27246.92432l-.1875.46094L20.3259,17.972a1.66717,1.66717,0,0,1-1.24317,2.77783Z" fill="#171717"/></svg>