<svg xmlns="http://www.w3.org/2000/svg" viewBox="0 0 15.81689 15.81689"><title>Key</title>
	<path
		d="M4.04492,1.75342a2.29151,2.29151,0,1,0,2.292,2.291A2.29392,2.29392,0,0,0,4.04492,1.75342Zm0,3.833a1.54151,1.54151,0,1,1,1.542-1.542A1.54363,1.54363,0,0,1,4.04492,5.58643Z"
		fill="#171717"/>
	<path
		d="M15.21973,11.981,10.27832,7.03857c.103-.332.20459-.76562.21094-.79785a5.22039,5.22039,0,0,0,.09424-.94922A5.30761,5.30761,0,0,0,6.35791.10693a5.36873,5.36873,0,0,0-2.13232,0A5.29262,5.29262,0,0,0,5.2915,10.5835a5.22373,5.22373,0,0,0,.957-.09571l.19042-.043a5.29557,5.29557,0,0,0,.75831-.22851l.10449-.042c.12353-.05078.23974-.10254.35058-.15528v1.28418H9.2085v1.55567h1.55615v1.55664H12.3208v1.07324l.21191.10254a2.29263,2.29263,0,0,0,2.687-3.61035Zm-1.69434,3.08593a1.53863,1.53863,0,0,1-.45459-.06738v-1.334H11.51465V12.10889H9.9585V10.55322H8.40234V8.67529l-.58349.39063a4.59151,4.59151,0,0,1-.80225.415l-.08887.03515a4.89122,4.89122,0,0,1-.71289.21094l-.10107.02246a4.39592,4.39592,0,0,1-.82227.084A4.54284,4.54284,0,0,1,4.376.84131a4.66217,4.66217,0,0,1,1.83154,0A4.55617,4.55617,0,0,1,9.8335,5.2915a4.48141,4.48141,0,0,1-.08106.80762A8.95926,8.95926,0,0,1,9.5,6.99658l-.09375.23047,5.26465,5.26563a1.54236,1.54236,0,0,1-1.14551,2.57421Z"
		fill="#171717"/>
</svg>
