<svg xmlns="http://www.w3.org/2000/svg" viewBox="0 0 24.75 24.75"><defs><style>.cls-1{fill:none;stroke:#171717;stroke-miterlimit:10;stroke-width:0.75px;}</style></defs><title>Key</title><g id="Ebene_2" data-name="Ebene 2"><g id="Ebene_1-2" data-name="Ebene 1"><rect class="cls-1" x="0.375" y="0.375" width="24" height="24"/><path d="M8.13348,5.83716a2.29151,2.29151,0,1,0,2.292,2.291A2.29393,2.29393,0,0,0,8.13348,5.83716Zm0,3.833a1.54151,1.54151,0,1,1,1.542-1.542A1.54363,1.54363,0,0,1,8.13348,9.67017Z"/><path d="M19.30829,16.0647l-4.94141-4.94238c.103-.332.20459-.76563.21094-.79786a5.22037,5.22037,0,0,0,.09424-.94921,5.3076,5.3076,0,0,0-4.22559-5.18457,5.36836,5.36836,0,0,0-2.13232,0A5.29262,5.29262,0,0,0,9.38006,14.66724a5.22373,5.22373,0,0,0,.957-.09571l.19043-.043a5.29713,5.29713,0,0,0,.7583-.22852l.10449-.042c.12353-.05078.23974-.10254.35058-.15528V15.387h1.55616v1.55567h1.55615v1.55664h1.55615v1.07324l.21192.10254a2.2715,2.2715,0,0,0,.99267.22559,2.29269,2.29269,0,0,0,1.69434-3.83594ZM17.614,19.15064a1.53831,1.53831,0,0,1-.45459-.06739v-1.334H15.60321V16.19263H14.04706V14.637H12.4909V12.759l-.58349.39063a4.59151,4.59151,0,0,1-.80225.415l-.08887.03516a4.89254,4.89254,0,0,1-.71289.21093l-.10107.02246a4.39592,4.39592,0,0,1-.82227.084,4.54284,4.54284,0,0,1-.91552-8.99219,4.66255,4.66255,0,0,1,1.83154,0,4.55617,4.55617,0,0,1,3.626,4.4502,4.48122,4.48122,0,0,1-.08106.80761,8.95926,8.95926,0,0,1-.25244.89746l-.09375.23047,5.26465,5.26563A1.54236,1.54236,0,0,1,17.614,19.15064Z"/></g></g></svg>
