<?xml version="1.0" encoding="UTF-8"?><svg id="a" xmlns="http://www.w3.org/2000/svg" viewBox="0 0 24 24"><path d="M16.38504,4.44759c1.74609,0,3.16699,1.4209,3.16699,3.16699s-1.4209,3.16699-3.16699,3.16699-3.16699-1.4209-3.16699-3.16699,1.4209-3.16699,3.16699-3.16699ZM16.38504,9.28158c.91895,0,1.66699-.74805,1.66699-1.66699s-.74805-1.66699-1.66699-1.66699-1.66699.74805-1.66699,1.66699.74805,1.66699,1.66699,1.66699ZM2.57547,16.94954l6.11426-6.11621c-.06836-.21875-.12793-.45068-.18066-.69873l-.03613-.18945c-.08398-.46484-.12305-.86084-.12305-1.24512,0-3.28711,2.33398-6.15088,5.5498-6.80908.91504-.18701,1.88281-.18799,2.7998,0,3.2168.6582,5.55078,3.52197,5.55078,6.80908,0,3.83252-3.11816,6.9502-6.9502,6.9502-.39258,0-.79199-.03955-1.26172-.12598l-.24512-.05566c-.34473-.07617-.68066-.17773-.95996-.28809l-.2334-.08936v1.4668h-1.96191v1.96191h-1.96191v1.9624h-1.96289v1.25244l-.42578.2041c-.42969.20654-.89062.31104-1.37012.31104-1.74609,0-3.16699-1.4209-3.16699-3.16699,0-.7915.29297-1.54883.8252-2.1333ZM4.91727,20.74984c.10059,0,.19922-.00879.2959-.02588v-1.7417h1.96289v-1.9624h1.96191v-1.96191h1.96191v-2.60938l1.16699.78076c.2627.17578.57812.33887.96387.49756l.10742.04199c.24805.09619.50977.17578.87695.2583l.09668.02246c.375.06885.68848.10059.98828.10059,3.00488,0,5.4502-2.44482,5.4502-5.4502,0-2.57812-1.83008-4.82324-4.35156-5.33936-.71875-.14746-1.47949-.14746-2.19824,0-2.52051.51562-4.35059,2.76123-4.35059,5.33936,0,.29248.03125.60352.09961.98096l.02734.14062c.07324.35156.16309.65381.27246.92432l.1875.46094-6.7627,6.76514c-.27344.30518-.42383.69922-.42383,1.11084,0,.91895.74805,1.66699,1.66699,1.66699Z"/></svg>