<svg xmlns="http://www.w3.org/2000/svg" viewBox="0 0 24 24"><title>Keyboard</title><path d="M3.72363,7.687v9.04786h16.584V7.687Zm15.834,8.29786H4.47363V8.437h15.084Z" fill="#171717"/><polygon points="16.047 14.877 16.047 14.127 7.955 14.127 7.955 14.887 15.672 14.887 16.047 14.877" fill="#171717"/><rect x="5.0625" y="9.56494" width="0.75" height="0.69727" fill="#171717"/><rect x="6.70703" y="9.56494" width="0.75" height="0.69727" fill="#171717"/><rect x="8.35156" y="9.56494" width="0.75" height="0.69727" fill="#171717"/><rect x="9.99609" y="9.56494" width="0.75" height="0.69727" fill="#171717"/><rect x="11.64063" y="9.56494" width="0.75" height="0.69727" fill="#171717"/><rect x="13.28516" y="9.56494" width="0.75" height="0.69727" fill="#171717"/><rect x="14.92969" y="9.56494" width="0.75" height="0.69727" fill="#171717"/><rect x="16.57422" y="9.56494" width="0.75" height="0.69727" fill="#171717"/><rect x="18.21875" y="9.56494" width="0.75" height="0.69727" fill="#171717"/><rect x="5.0625" y="11.09619" width="0.75" height="0.69727" fill="#171717"/><rect x="6.70703" y="11.09619" width="0.75" height="0.69727" fill="#171717"/><rect x="8.35156" y="11.09619" width="0.75" height="0.69727" fill="#171717"/><rect x="9.99609" y="11.09619" width="0.75" height="0.69727" fill="#171717"/><rect x="11.64063" y="11.09619" width="0.75" height="0.69727" fill="#171717"/><rect x="13.28516" y="11.09619" width="0.75" height="0.69727" fill="#171717"/><rect x="14.92969" y="11.09619" width="0.75" height="0.69727" fill="#171717"/><rect x="16.57422" y="11.09619" width="0.75" height="0.69727" fill="#171717"/><rect x="18.21875" y="11.09619" width="0.75" height="0.69727" fill="#171717"/><rect x="5.0625" y="12.62744" width="0.75" height="0.69727" fill="#171717"/><rect x="6.70703" y="12.62744" width="0.75" height="0.69727" fill="#171717"/><rect x="8.35156" y="12.62744" width="0.75" height="0.69727" fill="#171717"/><rect x="9.99609" y="12.62744" width="0.75" height="0.69727" fill="#171717"/><rect x="11.64063" y="12.62744" width="0.75" height="0.69727" fill="#171717"/><rect x="13.28516" y="12.62744" width="0.75" height="0.69727" fill="#171717"/><rect x="14.92969" y="12.62744" width="0.75" height="0.69727" fill="#171717"/><rect x="16.57422" y="12.62744" width="0.75" height="0.69727" fill="#171717"/><rect x="18.21875" y="12.62744" width="0.75" height="0.69727" fill="#171717"/></svg>