<svg xmlns="http://www.w3.org/2000/svg" viewBox="0 0 16.58398 9.04785"><title>Keyboard</title>
	<path d="M0,0V9.04785H16.584V0ZM15.834,8.29785H.75V.75H15.834Z" fill="#171717"/>
	<polygon points="12.323 7.19 12.323 6.44 4.231 6.44 4.231 7.2 11.948 7.2 12.323 7.19" fill="#171717"/>
	<rect x="1.33887" y="1.87793" width="0.75" height="0.69727" fill="#171717"/>
	<rect x="2.9834" y="1.87793" width="0.75" height="0.69727" fill="#171717"/>
	<rect x="4.62793" y="1.87793" width="0.75" height="0.69727" fill="#171717"/>
	<rect x="6.27246" y="1.87793" width="0.75" height="0.69727" fill="#171717"/>
	<rect x="7.91699" y="1.87793" width="0.75" height="0.69727" fill="#171717"/>
	<rect x="9.56152" y="1.87793" width="0.75" height="0.69727" fill="#171717"/>
	<rect x="11.20605" y="1.87793" width="0.75" height="0.69727" fill="#171717"/>
	<rect x="12.85059" y="1.87793" width="0.75" height="0.69727" fill="#171717"/>
	<rect x="14.49512" y="1.87793" width="0.75" height="0.69727" fill="#171717"/>
	<rect x="1.33887" y="3.40918" width="0.75" height="0.69727" fill="#171717"/>
	<rect x="2.9834" y="3.40918" width="0.75" height="0.69727" fill="#171717"/>
	<rect x="4.62793" y="3.40918" width="0.75" height="0.69727" fill="#171717"/>
	<rect x="6.27246" y="3.40918" width="0.75" height="0.69727" fill="#171717"/>
	<rect x="7.91699" y="3.40918" width="0.75" height="0.69727" fill="#171717"/>
	<rect x="9.56152" y="3.40918" width="0.75" height="0.69727" fill="#171717"/>
	<rect x="11.20605" y="3.40918" width="0.75" height="0.69727" fill="#171717"/>
	<rect x="12.85059" y="3.40918" width="0.75" height="0.69727" fill="#171717"/>
	<rect x="14.49512" y="3.40918" width="0.75" height="0.69727" fill="#171717"/>
	<rect x="1.33887" y="4.94043" width="0.75" height="0.69727" fill="#171717"/>
	<rect x="2.9834" y="4.94043" width="0.75" height="0.69727" fill="#171717"/>
	<rect x="4.62793" y="4.94043" width="0.75" height="0.69727" fill="#171717"/>
	<rect x="6.27246" y="4.94043" width="0.75" height="0.69727" fill="#171717"/>
	<rect x="7.91699" y="4.94043" width="0.75" height="0.69727" fill="#171717"/>
	<rect x="9.56152" y="4.94043" width="0.75" height="0.69727" fill="#171717"/>
	<rect x="11.20605" y="4.94043" width="0.75" height="0.69727" fill="#171717"/>
	<rect x="12.85059" y="4.94043" width="0.75" height="0.69727" fill="#171717"/>
	<rect x="14.49512" y="4.94043" width="0.75" height="0.69727" fill="#171717"/>
</svg>
