<?xml version="1.0" encoding="UTF-8"?><svg id="a" xmlns="http://www.w3.org/2000/svg" viewBox="0 0 24 24"><path d="M1.2507,5.42806v13.14355h21.49902V5.42806H1.2507ZM21.24973,17.07161H2.7507V6.92806h18.49902v10.14355ZM16.63644,16.13167H6.61301v-1.5127h10.77344v1.5l-.75.0127ZM5.24973,13.86849h-1.5v-1.5h1.5v1.5ZM8.24973,13.86849h-1.5v-1.5h1.5v1.5ZM11.24973,13.86849h-1.5v-1.5h1.5v1.5ZM14.24973,13.86849h-1.5v-1.5h1.5v1.5ZM17.24973,13.86849h-1.5v-1.5h1.5v1.5ZM20.24973,13.86849h-1.5v-1.5h1.5v1.5ZM5.24973,11.61849h-1.5v-1.5h1.5v1.5ZM8.24973,11.61849h-1.5v-1.5h1.5v1.5ZM11.24973,11.61849h-1.5v-1.5h1.5v1.5ZM14.24973,11.61849h-1.5v-1.5h1.5v1.5ZM17.24973,11.61849h-1.5v-1.5h1.5v1.5ZM20.24973,11.61849h-1.5v-1.5h1.5v1.5ZM5.24973,9.368h-1.5v-1.5h1.5v1.5ZM8.24973,9.368h-1.5v-1.5h1.5v1.5ZM11.24973,9.368h-1.5v-1.5h1.5v1.5ZM14.24973,9.368h-1.5v-1.5h1.5v1.5ZM17.24973,9.368h-1.5v-1.5h1.5v1.5ZM20.24973,9.368h-1.5v-1.5h1.5v1.5Z"/></svg>