<svg xmlns="http://www.w3.org/2000/svg" viewBox="0 0 24 24"><title>Keyboard</title><path d="M1.2507,5.42806V18.57161h21.499V5.42806Zm19.999,11.64355H2.7507V6.92806h18.499Z" fill="#171717"/><polygon points="17.386 16.119 17.386 14.619 6.613 14.619 6.613 16.132 16.636 16.132 17.386 16.119" fill="#171717"/><rect x="3.74973" y="12.36849" width="1.5" height="1.5" fill="#171717"/><rect x="6.74973" y="12.36849" width="1.5" height="1.5" fill="#171717"/><rect x="9.74973" y="12.36849" width="1.5" height="1.5" fill="#171717"/><rect x="12.74973" y="12.36849" width="1.5" height="1.5" fill="#171717"/><rect x="15.74973" y="12.36849" width="1.5" height="1.5" fill="#171717"/><rect x="18.74973" y="12.36849" width="1.5" height="1.5" fill="#171717"/><rect x="3.74973" y="10.11849" width="1.5" height="1.5" fill="#171717"/><rect x="6.74973" y="10.11849" width="1.5" height="1.5" fill="#171717"/><rect x="9.74973" y="10.11849" width="1.5" height="1.5" fill="#171717"/><rect x="12.74973" y="10.11849" width="1.5" height="1.5" fill="#171717"/><rect x="15.74973" y="10.11849" width="1.5" height="1.5" fill="#171717"/><rect x="18.74973" y="10.11849" width="1.5" height="1.5" fill="#171717"/><rect x="3.74973" y="7.868" width="1.5" height="1.5" fill="#171717"/><rect x="6.74973" y="7.868" width="1.5" height="1.5" fill="#171717"/><rect x="9.74973" y="7.868" width="1.5" height="1.5" fill="#171717"/><rect x="12.74973" y="7.868" width="1.5" height="1.5" fill="#171717"/><rect x="15.74973" y="7.868" width="1.5" height="1.5" fill="#171717"/><rect x="18.74973" y="7.868" width="1.5" height="1.5" fill="#171717"/></svg>