<?xml version="1.0" encoding="UTF-8"?><svg id="a" xmlns="http://www.w3.org/2000/svg" viewBox="0 0 24 24"><path d="M21.74973,1.70736l-9.74957,5.57178L2.24973,1.70736v9.44141l1.48926.85156-1.48926.85059v9.44141l9.75073-5.57129,9.74927,5.57129v-9.44141l-1.48889-.85059,1.48889-.85156V1.70736ZM3.74973,10.27865v-5.98633l6.73853,3.85059-5.23755,2.99316-1.50098-.85742ZM3.74973,13.72103l7.50928-4.29102-.01135,5.99316-7.49792,4.28418v-5.98633ZM20.24973,19.70736l-7.50208-4.2876.01135-5.979,7.49072,4.28027v5.98633ZM13.51163,8.1429l6.7381-3.85059v5.98633l-1.50043.85742-5.23767-2.99316ZM15.79379,16.58285l.20819-.86865.9303.52832.15179,1.07227.56573.32129-.81982-5.24902-.06091-.03418-.43463-.24707-1.11096,4.15332.57031.32373ZM16.54477,13.43587l.27185,1.94531-.64978-.36865.37793-1.57666ZM9.82394,12.60238v.60547l-4.72656,2.729v-.60547l1.77637-1.02588v-1.74805l.73242-.42285v.58594l1.9248-1.11084v.5957l-1.9248,1.11084v.56641l2.21777-1.28027ZM7.94797,14.60726c.58008-.09375,1.1582-.15381,1.73438-.18066l-.37207.84912c-.56836-.01318-1.13672.02197-1.7041.10498v1.55859l-.73242.42285v-2.30469l.73242-.42285v.60938l.3418-.63672Z"/></svg>