<svg xmlns="http://www.w3.org/2000/svg" viewBox="0 0 15.05078 15.74707"><title>Language</title>
	<path
		d="M15.05078,0,7.52539,4.34473,0,0V7.05762l1.41321.81543L0,8.68945v7.05762l7.52521-4.34473,7.52557,4.34473V8.68945l-1.41321-.8164,1.41321-.81543ZM.75,6.625V1.29883L6.77545,4.77734,2.16309,7.44043Zm0,2.49707L7.15039,5.42676v5.32617L.75,14.44824Zm13.55078,5.32617L7.90039,10.75293V5.42676l6.40039,3.69531Zm0-7.82324-1.41308.81543L8.27515,4.77734l6.02563-3.47851Z"
		fill="#171717"/>
	<path
		d="M10.2359,11.75781l.266-1.043,1.03321.58692.19683,1.30566.33191.18848-.799-5.00391-.07947-.0459-.20574-.11621L9.904,11.56934Zm.86572-3.31445.35028,2.32617-.83685-.47461Z"
		fill="#171717"/>
	<path
		d="M6.48047,8.37988V8.05664L4.36816,9.27637V8.5L5.9541,7.584V7.27051l-1.58594.916V7.55566a.20316.20316,0,0,0,.09571-.124l-.4336.22266V9.47168L2.10547,10.583v.32324l1.9248-1.11133v2.34863l.33789-.19531V10.31836a10.35065,10.35065,0,0,1,1.58106-.335l.16406-.38867a10.55649,10.55649,0,0,0-1.68262.40234l-.0625.1377V9.59961Z"
		fill="#171717"/>
</svg>
