<svg xmlns="http://www.w3.org/2000/svg" viewBox="0 0 24 24"><title>Language</title><path d="M21.74973,1.70736,12.00015,7.27913,2.24973,1.70736v9.4414l1.48925.85157-1.48925.85058v9.44141L12.00046,16.721l9.74927,5.57129V12.85091l-1.4889-.85058,1.4889-.85157Zm-18,8.57129V4.29232L10.48825,8.1429,5.2507,11.13607Zm0,3.44238L11.259,9.43l-.01135,5.99317L3.74973,19.70736Zm16.5,5.98633-7.50208-4.2876.01135-5.979L20.24973,13.721ZM13.51163,8.1429l6.7381-3.85058v5.98633l-1.50043.85742Z" fill="#171717"/><path d="M15.79379,16.58285l.20819-.86866.9303.52832.1518,1.07227.56573.32129L16.83,12.387l-.06092-.03418-.43463-.24707-1.111,4.15332Zm.751-3.147.27185,1.94531-.64978-.36865Z" fill="#171717"/><polygon points="7.606 13.883 7.606 13.316 9.531 12.205 9.531 11.61 7.606 12.721 7.606 12.135 6.874 12.557 6.874 14.306 5.097 15.331 5.097 15.937 9.824 13.208 9.824 12.602 7.606 13.883" fill="#171717"/><path d="M7.60617,15.244V14.6346l-.73242.42285v2.30469l.73242-.42285V15.3807a10.13118,10.13118,0,0,1,1.7041-.105l.37207-.84912a15.3377,15.3377,0,0,0-1.73437.18066Z" fill="#171717"/></svg>