<svg xmlns="http://www.w3.org/2000/svg" viewBox="0 0 24 24"><title>Language</title><path d="M19.52569,4.05306,12.0003,8.39779,4.47491,4.05306v7.05762l1.41321.81543-1.41321.8164v7.05762l7.52521-4.34473,7.52557,4.34473V12.74251l-1.4132-.8164,1.4132-.81543Zm-14.30078,6.625V5.35189L11.25036,8.8304,6.638,11.49349Zm0,2.49707L11.6253,9.47982V14.806L5.22491,18.5013ZM18.77569,18.5013,12.3753,14.806V9.47982l6.40039,3.69531Zm0-7.82324-1.41308.81543L12.75006,8.8304l6.02563-3.47851Z" fill="#171717"/><path d="M14.71081,15.81087l.266-1.043,1.0332.58692.19684,1.30566.33191.18848-.79895-5.00391-.07947-.0459-.20575-.11621L14.3789,15.6224Zm.86573-3.31445.35028,2.32617L15.09,14.348Z" fill="#171717"/><path d="M10.95538,12.43294V12.1097l-2.1123,1.21973v-.77637l1.58593-.916v-.31347l-1.58593.916v-.63086a.20309.20309,0,0,0,.0957-.124l-.43359.22266v1.81738L6.58038,14.63607v.32324L8.50519,13.848v2.34863l.33789-.19531V14.37142a10.35031,10.35031,0,0,1,1.581-.335l.16406-.38867a10.55614,10.55614,0,0,0-1.68261.40234l-.0625.1377v-.53516Z" fill="#171717"/></svg>