<svg xmlns="http://www.w3.org/2000/svg" viewBox="0 0 16.58301 16.58398"><title>Lifering</title>
	<path
		d="M14.99524,13.1521a8.2321,8.2321,0,0,0,.00067-9.71924l-.091-.12182a8.34568,8.34568,0,0,0-1.637-1.636l-.07153-.05371a8.28984,8.28984,0,1,0,1.791,11.541l.00921-.009ZM5.38086,8.292A2.91089,2.91089,0,1,1,8.292,11.20313,2.9144,2.9144,0,0,1,5.38086,8.292Zm10.45264,0a7.49238,7.49238,0,0,1-1.38526,4.34107L11.56506,9.89868a3.523,3.523,0,0,0-.00476-3.22217L14.44794,3.9502A7.49312,7.49312,0,0,1,15.8335,8.292Zm-3.156-6.12329L9.949,5.0459a3.52114,3.52114,0,0,0-3.25274-.03345L3.96722,2.1228a7.49306,7.49306,0,0,1,8.71027.0459ZM2.1795,3.8916,5.05493,6.61841a3.51537,3.51537,0,0,0-.01568,3.31836l-2.88416,2.7229A7.48924,7.48924,0,0,1,2.1795,3.8916ZM3.93542,14.43726l2.73243-2.88135a3.51659,3.51659,0,0,0,3.2882-.02173l2.72089,2.88159a7.49036,7.49036,0,0,1-8.74152.02149Z"
		fill="#171717"/>
</svg>
