<?xml version="1.0" encoding="UTF-8"?><svg id="a" xmlns="http://www.w3.org/2000/svg" viewBox="0 0 24 24"><path d="M11.99973,1.25033c-2.25751,0-4.35217.70312-6.08374,1.89648l-.00024-.00049-.00189.00195C3.10001,5.08919,1.24973,8.33089,1.24973,11.99984c0,5.92725,4.82227,10.74951,10.75,10.74951s10.75-4.82227,10.75-10.74951S17.92746,1.25033,11.99973,1.25033ZM8.59933,11.99984c0-1.875,1.52539-3.40039,3.40039-3.40039s3.40039,1.52539,3.40039,3.40039-1.52539,3.40039-3.40039,3.40039-3.40039-1.52539-3.40039-3.40039ZM16.4725,13.98275c.27051-.60742.42761-1.27588.42761-1.98291,0-.70996-.15912-1.38086-.43201-1.99072l3.26129-3.07568c.95825,1.45654,1.52032,3.19629,1.52032,5.06641,0,1.87061-.56213,3.61035-1.52045,5.06689l-3.25677-3.08398ZM11.99973,2.75033c1.89508,0,3.65759.57471,5.12604,1.55664l-3.08228,3.25342c-.62408-.28857-1.31219-.46094-2.04376-.46094-.69757,0-1.35858.15137-1.95984.41553l-3.07892-3.26123c1.45129-.94727,3.18018-1.50342,5.03876-1.50342ZM4.31601,6.85775l3.25171,3.08447c-.29291.62793-.46838,1.32031-.46838,2.05762,0,.72266.16675,1.40381.44873,2.02197l-3.25867,3.07666c-.97083-1.46289-1.53967-3.21484-1.53967-5.09863,0-1.90186.57812-3.67041,1.56628-5.14209ZM6.91843,19.72054l3.0863-3.25439c.6109.27441,1.2832.43408,1.995.43408.73572,0,1.42712-.17432,2.05389-.46631l3.073,3.25879c-1.46857.98193-3.23145,1.55664-5.12689,1.55664-1.8764,0-3.62158-.56494-5.0813-1.52881Z"/></svg>