<svg xmlns="http://www.w3.org/2000/svg" viewBox="0 0 24 24"><title>Lifering</title><path d="M11.99973,1.25033A10.68607,10.68607,0,0,0,5.916,3.14681l-.00025-.00049-.00189.002a10.73963,10.73963,0,1,0,6.08588-1.89794ZM8.59933,11.99984a3.4004,3.4004,0,1,1,3.4004,3.40039A3.40423,3.40423,0,0,1,8.59933,11.99984Zm7.87317,1.98291a4.807,4.807,0,0,0-.00439-3.97364L19.7294,6.93343a9.20242,9.20242,0,0,1-.00012,10.1333ZM11.99973,2.75033a9.19175,9.19175,0,0,1,5.126,1.55664L14.04349,7.56038a4.79451,4.79451,0,0,0-4.0036-.04541L6.961,4.25374A9.18847,9.18847,0,0,1,11.99973,2.75033ZM4.316,6.85775,7.56772,9.94222a4.76657,4.76657,0,0,0-.01965,4.07959L4.2894,17.09847A9.21792,9.21792,0,0,1,4.316,6.85775ZM6.91843,19.72054l3.0863-3.25439a4.77846,4.77846,0,0,0,4.04889-.03223l3.073,3.25879a9.215,9.215,0,0,1-10.20819.02783Z" fill="#171717"/></svg>