<svg xmlns="http://www.w3.org/2000/svg" viewBox="0 0 24.75 24.75"><defs><style>.cls-1{fill:none;stroke:#171717;stroke-miterlimit:10;stroke-width:0.75px;}.cls-2{fill:#171717;}</style></defs><title>Lifering</title><g id="Ebene_2" data-name="Ebene 2"><g id="Ebene_1-2" data-name="Ebene 1"><rect class="cls-1" x="0.375" y="0.375" width="24" height="24"/><path class="cls-2" d="M19.06158,17.23535a8.23209,8.23209,0,0,0,.00067-9.71923l-.091-.12183a8.34568,8.34568,0,0,0-1.637-1.636l-.07153-.05371a8.28984,8.28984,0,1,0,1.791,11.541l.00921-.009ZM9.4472,12.37525a2.91089,2.91089,0,1,1,2.91113,2.91113A2.91441,2.91441,0,0,1,9.4472,12.37525Zm10.45264,0a7.49228,7.49228,0,0,1-1.38526,4.34106L15.6314,13.98194a3.523,3.523,0,0,0-.00476-3.22217l2.88764-2.72632A7.49317,7.49317,0,0,1,19.89984,12.37525Zm-3.156-6.1233-2.72851,2.8772a3.52116,3.52116,0,0,0-3.25275-.03345l-2.729-2.88964a7.493,7.493,0,0,1,8.71027.04589ZM6.24585,7.97486l2.87542,2.7268A3.51537,3.51537,0,0,0,9.10559,14.02l-2.88416,2.7229a7.4892,7.4892,0,0,1,.02442-8.76806ZM8.00177,18.52051l2.73242-2.88135a3.51661,3.51661,0,0,0,3.28821-.02173l2.72088,2.8816a7.49032,7.49032,0,0,1-8.74151.02148Z"/></g></g></svg>
