<svg xmlns="http://www.w3.org/2000/svg" viewBox="0 0 24 24"><title>Lifering</title><path d="M18.70325,16.86035a8.23209,8.23209,0,0,0,.00067-9.71923l-.091-.12183a8.346,8.346,0,0,0-1.637-1.636l-.07153-.05371a8.28984,8.28984,0,1,0,1.791,11.541l.00922-.009Zm-9.61438-4.8601A2.91089,2.91089,0,1,1,12,14.91138,2.91441,2.91441,0,0,1,9.08887,12.00025Zm10.45263,0a7.49234,7.49234,0,0,1-1.38525,4.34106l-2.88318-2.73437a3.52312,3.52312,0,0,0-.00476-3.22217l2.88763-2.72632A7.4931,7.4931,0,0,1,19.5415,12.00025ZM16.3855,5.877,13.657,8.75415a3.52114,3.52114,0,0,0-3.25274-.03345l-2.729-2.88964A7.493,7.493,0,0,1,16.3855,5.877ZM5.88751,7.59986l2.87543,2.7268A3.5154,3.5154,0,0,0,8.74725,13.645L5.8631,16.36792a7.48922,7.48922,0,0,1,.02441-8.76806ZM7.64343,18.14551l2.73242-2.88135a3.51661,3.51661,0,0,0,3.28821-.02173L16.385,18.124a7.49034,7.49034,0,0,1-8.74152.02148Z" fill="#171717"/></svg>