<svg xmlns="http://www.w3.org/2000/svg" viewBox="0 0 24 24"><title>Link</title><path d="M18.916,15.67822l-3.3418-3.34375a2.27748,2.27748,0,0,0-2.89856-.18847l-.82153-.82178A2.27589,2.27589,0,0,0,11.67676,8.439L8.33545,5.09619A2.29181,2.29181,0,1,0,5.24756,8.48291l3.20752,3.209a2.27627,2.27627,0,0,0,2.86926.16211l.82153.82177a2.27921,2.27921,0,0,0,.34046,3.04639l3.208,3.209A2.29133,2.29133,0,0,0,18.916,15.67822Zm-8.92139-4.1416a1.531,1.531,0,0,1-1.02246-.38672L5.76953,7.94483l-.01807-.01758a1.542,1.542,0,1,1,2.062-2.293l3.3208,3.32226a1.52322,1.52322,0,0,1,.17859,1.82618l-.40223-.40235-.53027.5293.40283.40283A1.52506,1.52506,0,0,1,9.99463,11.53662Zm7.23926,7.23926a1.531,1.531,0,0,1-1.02246-.38672L13.0083,15.18408l-.01807-.01757a1.54329,1.54329,0,0,1-.52685-1.16114,1.52538,1.52538,0,0,1,.22375-.78808l.40223.40234.53027-.5293-.40283-.40283a1.52511,1.52511,0,0,1,1.83545.18506l3.32129,3.32324a1.54193,1.54193,0,0,1-1.13965,2.58008Z" fill="#171717"/></svg>