<?xml version="1.0" encoding="UTF-8"?><svg id="a" xmlns="http://www.w3.org/2000/svg" viewBox="0 0 24 24"><path d="M18.33618,3.91357H5.66431c-.96533,0-1.75098.78516-1.75098,1.75098v12.6709c0,.96582.78564,1.75098,1.75098,1.75098h12.67188c.96533,0,1.75049-.78516,1.75049-1.75098V5.66455c0-.96582-.78516-1.75098-1.75049-1.75098ZM18.58667,18.33545c0,.13867-.1123.25098-.25049.25098H5.66431c-.13818,0-.25098-.1123-.25098-.25098V5.66455c0-.13867.11279-.25098.25098-.25098h12.67188c.13818,0,.25049.1123.25049.25098v12.6709ZM7.38599,10.24756h1.5v6.35449h-1.5v-6.35449ZM16.56616,12.82373v3.77832h-1.5v-3.77832c0-.84082-.35352-1.05664-.61963-1.14648-.67297-.224-1.6723.12537-2.17285.60132v4.32349h-1.5v-6.35449h1.5v.2572c.81506-.38159,1.7923-.53809,2.65088-.24939,1.04297.35059,1.6416,1.28711,1.6416,2.56836ZM7.29208,8.30908c0-.46526.37854-.84381.84381-.84381.46595,0,.84449.37854.84449.84381s-.37854.84381-.84449.84381c-.46526,0-.84381-.37854-.84381-.84381Z"/></svg>