<svg xmlns="http://www.w3.org/2000/svg" viewBox="0 0 15.05078 15.05176"><title>Link</title>
	<path
		d="M14.44141,11.2041l-3.3418-3.34375a2.27748,2.27748,0,0,0-2.89856-.18847L7.37952,6.8501a2.2759,2.2759,0,0,0-.17737-2.88526L3.86084.62207A2.29181,2.29181,0,1,0,.773,4.00879l3.20752,3.209a2.27623,2.27623,0,0,0,2.86926.16211l.82153.82178A2.27921,2.27921,0,0,0,8.01172,11.248l3.208,3.209a2.29133,2.29133,0,0,0,3.22168-3.25293ZM5.52,7.0625a1.531,1.531,0,0,1-1.02246-.38672L1.29492,3.4707l-.01806-.01757a1.542,1.542,0,1,1,2.062-2.293l3.3208,3.32226a1.52321,1.52321,0,0,1,.17859,1.82617L6.436,5.90625l-.53028.5293.40283.40283A1.52506,1.52506,0,0,1,5.52,7.0625Zm7.23926,7.23926a1.531,1.531,0,0,1-1.02246-.38672L8.53369,10.71l-.01806-.01758a1.54324,1.54324,0,0,1-.52686-1.16113,1.52544,1.52544,0,0,1,.22375-.78809l.40223.40235.53027-.5293-.40283-.40283a1.52511,1.52511,0,0,1,1.83545.18506l3.32129,3.32324a1.54193,1.54193,0,0,1-1.13965,2.58008Z"
		fill="#171717"/>
</svg>
