<svg xmlns="http://www.w3.org/2000/svg" viewBox="0 0 24.75 24.75"><defs><style>.cls-1{fill:none;stroke:#171717;stroke-miterlimit:10;stroke-width:0.75px;}</style></defs><title>Link</title><g id="Ebene_2" data-name="Ebene 2"><g id="Ebene_1-2" data-name="Ebene 1"><path d="M19.291,16.05322l-3.3418-3.34375a2.27748,2.27748,0,0,0-2.89856-.18847l-.82153-.82178A2.27589,2.27589,0,0,0,12.05176,8.814L8.71045,5.47119A2.29181,2.29181,0,1,0,5.62256,8.85791l3.20752,3.209a2.27627,2.27627,0,0,0,2.86926.16211l.82153.82177a2.27921,2.27921,0,0,0,.34046,3.04639l3.208,3.209A2.29133,2.29133,0,0,0,19.291,16.05322Zm-8.92139-4.1416a1.531,1.531,0,0,1-1.02246-.38672L6.14453,8.31983l-.01807-.01758a1.542,1.542,0,1,1,2.062-2.293l3.3208,3.32226a1.52322,1.52322,0,0,1,.17859,1.82618l-.40223-.40235-.53027.5293.40283.40283A1.52506,1.52506,0,0,1,10.36963,11.91162Zm7.23926,7.23926a1.531,1.531,0,0,1-1.02246-.38672L13.3833,15.55908l-.01807-.01757a1.54329,1.54329,0,0,1-.52685-1.16114,1.52538,1.52538,0,0,1,.22375-.78808l.40223.40234.53027-.5293-.40283-.40283a1.52511,1.52511,0,0,1,1.83545.18506l3.32129,3.32324a1.54193,1.54193,0,0,1-1.13965,2.58008Z"/><rect class="cls-1" x="0.375" y="0.375" width="24" height="24"/></g></g></svg>
