<?xml version="1.0" encoding="UTF-8"?><svg id="a" xmlns="http://www.w3.org/2000/svg" viewBox="0 0 24 24"><path d="M7.15137,21.74878c-1.25488,0-2.50977-.47754-3.46484-1.43262-.92578-.92578-1.43555-2.15625-1.43555-3.46484,0-1.30908.50977-2.53955,1.43555-3.46484l3.5498-3.5498,1.06055,1.06055-3.5498,3.5498c-.64258.64209-.99609,1.49609-.99609,2.4043,0,.90771.35352,1.76172.99609,2.4043,1.32617,1.3252,3.48242,1.3252,4.80859,0l3.5498-3.5498,1.06055,1.06055-3.5498,3.5498c-.95508.95508-2.20996,1.43262-3.46484,1.43262ZM20.31641,10.61597c1.91016-1.91016,1.91016-5.01904,0-6.92969-.92578-.92578-2.15625-1.43506-3.46484-1.43506-1.30957,0-2.54004.50977-3.46484,1.43506l-3.5498,3.5498,1.06055,1.06055,3.5498-3.5498c1.2832-1.28418,3.52344-1.28418,4.80859,0,1.3252,1.32568,1.3252,3.48291,0,4.80859l-3.5498,3.5498,1.06055,1.06055,3.5498-3.5498ZM16.58398,8.47876l-1.06055-1.06055L7.41797,15.52368l1.06055,1.06055,8.10547-8.10547Z"/></svg>