<?xml version="1.0" encoding="UTF-8"?><svg id="a" xmlns="http://www.w3.org/2000/svg" viewBox="0 0 24 24"><path d="M7.15039,21.75c-1.30957,0-2.54004-.50977-3.46484-1.4353-.92578-.92529-1.43555-2.15576-1.43555-3.46484,0-1.30884.50977-2.53931,1.43555-3.46484l2.71094-2.71069,1.06055,1.06055-2.71094,2.71094c-.64258.64233-.99609,1.49609-.99609,2.40405,0,.9082.35352,1.76196.99609,2.40405,1.2832,1.28516,3.52344,1.28442,4.80859.00024l2.71094-2.71094,1.06055,1.06055-2.71094,2.71094c-.92578.92554-2.15625,1.4353-3.46484,1.4353ZM20.31445,10.61499c.92578-.92554,1.43555-2.15601,1.43555-3.46509,0-1.30884-.50977-2.53931-1.43555-3.4646-.9248-.92554-2.15527-1.43506-3.46484-1.43506-1.30859,0-2.53906.50952-3.46387,1.43481l-2.71191,2.71094,1.06055,1.06104,2.71191-2.71118c1.28418-1.28467,3.52539-1.28345,4.80762.00024.64258.64209.99609,1.49585.99609,2.40381,0,.9082-.35352,1.76196-.99609,2.4043l-2.71094,2.71118,1.06055,1.06055,2.71094-2.71094ZM4.5,7.40015H1.5v1.5h3v-1.5ZM8.90039,1.5h-1.5v3h1.5V1.5ZM5.85059,4.78979L2.85059,1.78979l-1.06055,1.06055,3,3,1.06055-1.06055ZM22.5,15.1001h-3v1.5h3v-1.5ZM16.59961,19.5h-1.5v3h1.5v-3ZM22.20996,21.14966l-3-3-1.06055,1.06055,3,3,1.06055-1.06055Z"/></svg>