<?xml version="1.0" encoding="UTF-8"?><svg id="a" xmlns="http://www.w3.org/2000/svg" viewBox="0 0 24 24"><path d="M20.82297,16.33773l.00098-.00146-3.9541-3.95459c-1.05377-1.05225-2.66632-1.19775-3.88574-.4585l-.90613-.90576c.74023-1.22021.59271-2.83154-.46008-3.88477l-3.95508-3.9541c-1.23438-1.23535-3.24609-1.23682-4.48438,0-1.23633,1.23633-1.23633,3.24854,0,4.48486l3.9541,3.9541v.00049c.61914.61768,1.43066.92676,2.24316.92676.57043,0,1.13782-.16162,1.64136-.4668l.90656.90674c-.73907,1.21924-.59143,2.83008.46088,3.88232,3.69336,3.69336,3.96191,3.9624,3.96289,3.9624,0,0-.00098-.00195-.00293-.00342.61621.61475,1.42578.92188,2.23535.92188.81152,0,1.62402-.30908,2.24121-.92676,1.23535-1.23584,1.23633-3.24707.00195-4.4834ZM10.95602,9.89535l-1.05005-1.05029-1.06055,1.06055.91333.91357h-.00024l.13654.13672c-.57977.18945-1.24152.06104-1.70197-.39893l-3.9541-3.9541c-.65137-.65186-.65137-1.71191,0-2.36377.63086-.63086,1.73242-.63086,2.36328,0l3.95508,3.9541c.45984.46045.58807,1.12256.39868,1.70215ZM19.76047,19.76058c-.64941.64941-1.70703.65186-2.36035-.00049-.08691-.08594-3.95508-3.95361-3.95508-3.95361-.45935-.45947-.58783-1.12061-.39923-1.69971l.13458.13428h.00024l.91382.91357,1.06055-1.06055-1.04926-1.04883c.16962-.05566.34485-.09082.52191-.09082.42773,0,.85547.16309,1.18164.48828l3.95215,3.95264-.00098.00146c.65137.65186.65137,1.71191,0,2.36377Z"/></svg>