<svg xmlns="http://www.w3.org/2000/svg" viewBox="0 0 24 24"><title>Link</title><path d="M20.823,16.33773l.001-.00147-3.9541-3.95459a3.17435,3.17435,0,0,0-3.88574-.45849l-.90613-.90576a3.17093,3.17093,0,0,0-.46008-3.88477L7.66281,3.17855A3.1711,3.1711,0,0,0,3.17844,7.66341l3.9541,3.9541V11.618a3.154,3.154,0,0,0,3.88452.46l.90655.90674a3.16983,3.16983,0,0,0,.46088,3.88232c3.69336,3.69336,3.96192,3.96241,3.96289,3.96241l-.00293-.00342A3.17025,3.17025,0,0,0,20.823,16.33773ZM10.956,9.89535l-1.05-1.0503L8.84543,9.9056l.91333.91357H9.75851l.13654.13672a1.6679,1.6679,0,0,1-1.702-.39892L4.239,6.60286a1.67393,1.67393,0,0,1,0-2.36376,1.7121,1.7121,0,0,1,2.36328,0l3.95508,3.9541A1.66857,1.66857,0,0,1,10.956,9.89535Zm8.80445,9.86523a1.67068,1.67068,0,0,1-2.36035-.00049c-.08692-.08594-3.95508-3.95361-3.95508-3.95361a1.66711,1.66711,0,0,1-.39923-1.69971l.13458.13428h.00024l.91382.91357L15.155,14.09408l-1.04926-1.04883a1.63582,1.63582,0,0,1,1.70356.39746l3.95214,3.95264-.001.00146A1.67394,1.67394,0,0,1,19.76047,19.76058Z" fill="#171717"/></svg>