<?xml version="1.0" encoding="UTF-8"?><svg id="a" xmlns="http://www.w3.org/2000/svg" viewBox="0 0 24 24"><path d="M5.0134,7.42952c0,.76172-.62012,1.38184-1.38184,1.38184s-1.38184-.62012-1.38184-1.38184.62012-1.38135,1.38184-1.38135,1.38184.61963,1.38184,1.38135ZM3.63156,10.61849c-.76172,0-1.38184.61963-1.38184,1.38135s.62012,1.38135,1.38184,1.38135,1.38184-.61963,1.38184-1.38135-.62012-1.38135-1.38184-1.38135ZM3.63156,15.19027c-.76172,0-1.38184.61963-1.38184,1.38135s.62012,1.38184,1.38184,1.38184,1.38184-.62012,1.38184-1.38184-.62012-1.38135-1.38184-1.38135ZM7.3757,6.68001v1.5h13.62402v-1.5H7.3757ZM7.3757,12.74984h13.62402v-1.5H7.3757v1.5ZM7.3757,17.32161h13.62402v-1.5H7.3757v1.5Z"/></svg>