<?xml version="1.0" encoding="UTF-8"?><svg id="a" xmlns="http://www.w3.org/2000/svg" viewBox="0 0 24 24"><path d="M22.0004,4.25033v1.5H7.45938v-1.5h14.54102ZM7.39883,12.75033h14.54102v-1.5H7.39883v1.5ZM7.39883,19.75033h14.54102v-1.5H7.39883v1.5ZM3.30515,3.39974c-.88232,0-1.59949.71826-1.59949,1.60059s.71716,1.60059,1.59949,1.60059c.88226,0,1.60052-.71826,1.60052-1.60059s-.71826-1.60059-1.60052-1.60059ZM3.24954,10.40023c-.88196,0-1.60004.71826-1.60004,1.6001s.71808,1.6001,1.60004,1.6001,1.59998-.71826,1.59998-1.6001-.71802-1.6001-1.59998-1.6001ZM3.24954,17.40023c-.88196,0-1.60004.71826-1.60004,1.6001s.71808,1.6001,1.60004,1.6001,1.59998-.71826,1.59998-1.6001-.71802-1.6001-1.59998-1.6001Z"/></svg>