<svg xmlns="http://www.w3.org/2000/svg" viewBox="0 0 24.75 24.75"><defs><style>.cls-1{fill:none;stroke:#171717;stroke-miterlimit:10;stroke-width:0.75px;}.cls-2{fill:#171717;}</style></defs><title>ListParagraph</title><g id="Ebene_2" data-name="Ebene 2"><g id="Ebene_1-2" data-name="Ebene 1"><rect class="cls-1" x="0.375" y="0.375" width="24" height="24"/><path class="cls-2" d="M10.74707,12.74756a2.35388,2.35388,0,0,0-.18359-.97363,2.041,2.041,0,0,0-.543-.71778A3.431,3.431,0,0,0,9.126,10.52a12.09267,12.09267,0,0,0-1.44727-.48242,8.71553,8.71553,0,0,1-1.33984-.46A1.52767,1.52767,0,0,1,5.7334,9.1167a1.18093,1.18093,0,0,1-.17774-.69141,1.15065,1.15065,0,0,1,.51075-.9873,2.395,2.395,0,0,1,1.41211-.36426,2.00325,2.00325,0,0,1,1.415.49121,1.6688,1.6688,0,0,1,.53321,1.28613h1.1748a2.53423,2.53423,0,0,0-.82519-2.01953,3.39243,3.39243,0,0,0-2.29785-.71679,3.67213,3.67213,0,0,0-2.25684.63574A2.00792,2.00792,0,0,0,4.374,8.43994a2.28918,2.28918,0,0,0,.22559,1.06738,2.18907,2.18907,0,0,0,.64453.74317,1.82818,1.82818,0,0,0-1.15527,1.7373,2.28973,2.28973,0,0,0,.29492,1.19629,2.44789,2.44789,0,0,0,.9043.84375,7.47043,7.47043,0,0,0,1.76562.65625,6.45,6.45,0,0,1,1.77734.72657,1.06159,1.06159,0,0,1,.4502.89843,1.14623,1.14623,0,0,1-.52637.98047,2.36437,2.36437,0,0,1-1.39062.37207,2.35571,2.35571,0,0,1-1.56153-.47949,1.61368,1.61368,0,0,1-.57128-1.30469l-1.18067.0127a2.45612,2.45612,0,0,0,.88184,2.01855,2.95445,2.95445,0,0,0,1.083.54,5.01434,5.01434,0,0,0,1.34863.17774,3.65758,3.65758,0,0,0,2.27246-.63184,2.02911,2.02911,0,0,0,.82519-1.69824A2.26055,2.26055,0,0,0,10.2334,15.23a2.13505,2.13505,0,0,0-.666-.74219A1.807,1.807,0,0,0,10.74707,12.74756Zm-1.44727.7793a1.41133,1.41133,0,0,1-.76171.44629q-.27833-.1084-1.17969-.36719a8.57783,8.57783,0,0,1-1.32422-.46875,1.51433,1.51433,0,0,1-.59375-.46289,1.231,1.231,0,0,1,.8125-1.89356c.31836.11328.667.22168,1.04785.32227a6.30073,6.30073,0,0,1,1.8252.76367,1.09337,1.09337,0,0,1,.4414.90234A1.14811,1.14811,0,0,1,9.2998,13.52686Z"/><rect class="cls-2" x="12.36426" y="7.40674" width="7.91113" height="0.75"/><rect class="cls-2" x="12.36426" y="12.00049" width="7.91113" height="0.75"/><rect class="cls-2" x="12.36426" y="16.59326" width="7.91113" height="0.75"/></g></g></svg>
