<svg xmlns="http://www.w3.org/2000/svg" viewBox="0 0 16.22461 12.51172"><title>ListParagraph</title>
	<path
		d="M6.69629,6.63281a2.35391,2.35391,0,0,0-.18359-.97363,2.041,2.041,0,0,0-.543-.71777,3.43132,3.43132,0,0,0-.89453-.53614,12.09448,12.09448,0,0,0-1.44727-.48242,8.71335,8.71335,0,0,1-1.33984-.46A1.52749,1.52749,0,0,1,1.68262,3.002a1.1809,1.1809,0,0,1-.17774-.6914,1.15066,1.15066,0,0,1,.51075-.98731A2.395,2.395,0,0,1,3.42773.959a2.00324,2.00324,0,0,1,1.415.49122A1.66877,1.66877,0,0,1,5.376,2.73633h1.1748A2.53421,2.53421,0,0,0,5.72559.7168,3.39244,3.39244,0,0,0,3.42773,0,3.67212,3.67212,0,0,0,1.1709.63574,2.00793,2.00793,0,0,0,.32324,2.3252,2.28921,2.28921,0,0,0,.54883,3.39258a2.189,2.189,0,0,0,.64453.74316A1.82819,1.82819,0,0,0,.03809,5.87305,2.28978,2.28978,0,0,0,.333,7.06934a2.448,2.448,0,0,0,.90429.84375,7.47142,7.47142,0,0,0,1.76563.65625,6.4497,6.4497,0,0,1,1.77734.72656,1.06159,1.06159,0,0,1,.4502.89844,1.14621,1.14621,0,0,1-.52637.98046,2.36437,2.36437,0,0,1-1.39062.37208,2.35571,2.35571,0,0,1-1.56153-.4795A1.61363,1.61363,0,0,1,1.18066,9.7627L0,9.77539A2.45614,2.45614,0,0,0,.88184,11.794a2.95447,2.95447,0,0,0,1.083.54,5.01442,5.01442,0,0,0,1.34864.17774,3.65758,3.65758,0,0,0,2.27246-.63184,2.02909,2.02909,0,0,0,.82519-1.69824,2.26055,2.26055,0,0,0-.22851-1.06641,2.135,2.135,0,0,0-.666-.74218A1.807,1.807,0,0,0,6.69629,6.63281ZM5.249,7.41211a1.41133,1.41133,0,0,1-.76172.44629Q4.209,7.75,3.30762,7.49121A8.57743,8.57743,0,0,1,1.9834,7.02246a1.51424,1.51424,0,0,1-.59375-.46289,1.23809,1.23809,0,0,1-.1709-.69629A1.23221,1.23221,0,0,1,1.457,5.10547,1.24476,1.24476,0,0,1,2.20215,4.666c.31836.11328.667.22168,1.04785.32226A6.301,6.301,0,0,1,5.0752,5.752a1.09338,1.09338,0,0,1,.4414.90235A1.1481,1.1481,0,0,1,5.249,7.41211Z"
		fill="#171717"/>
	<rect x="8.31348" y="1.29199" width="7.91113" height="0.75" fill="#171717"/>
	<rect x="8.31348" y="5.88574" width="7.91113" height="0.75" fill="#171717"/>
	<rect x="8.31348" y="10.47852" width="7.91113" height="0.75" fill="#171717"/>
</svg>
