<svg xmlns="http://www.w3.org/2000/svg" viewBox="0 0 24 24"><title>ListParagraph</title><path d="M10.0759,12.53988a2.99654,2.99654,0,0,0-.23242-1.231,2.58573,2.58573,0,0,0-.68555-.90576,4.34735,4.34735,0,0,0-1.13086-.67774,15.45229,15.45229,0,0,0-1.82813-.60937A10.978,10.978,0,0,1,4.50754,8.535a1.93126,1.93126,0,0,1-.76563-.58154,1.49338,1.49338,0,0,1-.22461-.87353,1.4543,1.4543,0,0,1,.64551-1.24707A3.0216,3.0216,0,0,1,5.946,5.37191a2.53179,2.53179,0,0,1,1.78809.62158A2.10549,2.10549,0,0,1,8.40793,7.617h1.4834a3.197,3.197,0,0,0-1.043-2.5498A4.27946,4.27946,0,0,0,5.946,4.16146a4.63378,4.63378,0,0,0-2.8496.80224A2.53482,2.53482,0,0,0,2.02609,7.098a2.8937,2.8937,0,0,0,.28418,1.34766,2.7413,2.7413,0,0,0,.81348.939,2.31106,2.31106,0,0,0-1.459,2.19532,2.88007,2.88007,0,0,0,.373,1.51074,3.08588,3.08588,0,0,0,1.14258,1.06543,9.39376,9.39376,0,0,0,2.22852.82959,8.0892,8.0892,0,0,1,2.24511.91748,1.33794,1.33794,0,0,1,.56934,1.13476,1.44837,1.44837,0,0,1-.665,1.23877,2.99067,2.99067,0,0,1-1.75586.46875A2.9743,2.9743,0,0,1,3.8298,18.14a2.0356,2.0356,0,0,1-.72168-1.64746l-1.49121.01612a3.10087,3.10087,0,0,0,1.11426,2.5498,3.70808,3.70808,0,0,0,1.36719.68115,6.31343,6.31343,0,0,0,1.7041.22461,4.62009,4.62009,0,0,0,2.87012-.79785,2.56223,2.56223,0,0,0,1.042-2.14453,2.8533,2.8533,0,0,0-.28809-1.34717,2.701,2.701,0,0,0-.84179-.938A2.282,2.282,0,0,0,10.0759,12.53988Zm-1.82813.98339a1.78371,1.78371,0,0,1-.96289.564q-.35156-.13623-1.49121-.46387a10.77173,10.77173,0,0,1-1.6709-.59228,1.89808,1.89808,0,0,1-.75-.58448,1.54994,1.54994,0,0,1-.21679-.87988,1.46313,1.46313,0,0,1,1.24316-1.51221q.60058.21608,1.32324.40772a7.96706,7.96706,0,0,1,2.30469.96436,1.38088,1.38088,0,0,1,.55762,1.14013A1.44708,1.44708,0,0,1,8.24777,13.52327Z" fill="#171717"/><rect x="11.99973" y="6.68001" width="10" height="1.5" fill="#171717"/><rect x="11.99973" y="11.24984" width="10" height="1.5" fill="#171717"/><rect x="11.99973" y="15.82161" width="10" height="1.5" fill="#171717"/></svg>