<?xml version="1.0" encoding="UTF-8"?><svg id="a" xmlns="http://www.w3.org/2000/svg" viewBox="0 0 24 24"><path d="M10.0759,12.53988c0-.47559-.07812-.88623-.23242-1.23096-.15527-.34473-.38379-.64648-.68555-.90576-.30273-.25928-.67969-.48535-1.13086-.67773-.45215-.19238-1.06152-.39551-1.82812-.60938-.7666-.21338-1.33105-.40723-1.69141-.58105-.36133-.17383-.61621-.36768-.76562-.58154-.15039-.21338-.22461-.50488-.22461-.87354,0-.52393.21484-.93945.64551-1.24707.42969-.30713,1.02441-.46094,1.7832-.46094.74316,0,1.33887.20703,1.78809.62158.44922.41406.67383.95557.67383,1.62354h1.4834c0-1.0957-.34766-1.9458-1.04297-2.5498-.69434-.604-1.66211-.90576-2.90234-.90576-1.18652,0-2.13672.26709-2.84961.80225-.71387.53467-1.07031,1.24609-1.07031,2.13428,0,.53467.09473.98389.28418,1.34766.18945.36426.46094.67676.81348.93896-.97266.47021-1.45898,1.20215-1.45898,2.19531,0,.59326.12402,1.09668.37305,1.51074.24805.41406.62891.76904,1.14258,1.06543.5127.29639,1.25586.57324,2.22852.82959,1.11719.33105,1.86523.63672,2.24512.91748s.56934.65869.56934,1.13477c0,.51318-.22168.92578-.66504,1.23877-.44434.3125-1.0293.46875-1.75586.46875-.83398,0-1.49121-.20166-1.97266-.60547-.48145-.40332-.72168-.95264-.72168-1.64746l-1.49121.01611c0,1.0957.37109,1.94531,1.11426,2.5498.37402.30469.83008.53174,1.36719.68115.53711.1499,1.10547.22461,1.7041.22461,1.21875,0,2.1748-.26611,2.87012-.79785.69434-.53174,1.04199-1.24658,1.04199-2.14453,0-.53467-.0957-.98389-.28809-1.34717s-.47363-.67627-.8418-.93799c.99414-.4541,1.49121-1.18652,1.49121-2.19678ZM8.24777,13.52327c-.22461.26953-.5459.45752-.96289.56396-.23438-.09082-.73145-.24512-1.49121-.46387-.75879-.21875-1.31543-.41602-1.6709-.59229s-.60547-.37061-.75-.58447c-.14453-.21289-.2168-.50635-.2168-.87988,0-.36816.10059-.68701.30078-.95605.2002-.26953.51465-.45508.94238-.55615.40039.14404.8418.27979,1.32324.40771,1.16504.35205,1.93262.67383,2.30469.96436.37109.29053.55762.6709.55762,1.14014,0,.36816-.1123.68701-.33691.95654ZM21.99973,6.68001v1.5h-10v-1.5h10ZM11.99973,11.24984h10v1.5h-10v-1.5ZM11.99973,15.82161h10v1.5h-10v-1.5Z"/></svg>