<?xml version="1.0" encoding="UTF-8"?><svg id="a" xmlns="http://www.w3.org/2000/svg" viewBox="0 0 24 24"><path d="M11.99973,5.7762c-1.74805,0-3.1709,1.42285-3.1709,3.17139s1.42285,3.1709,3.1709,3.1709c1.74902,0,3.17185-1.42236,3.17185-3.1709s-1.42283-3.17139-3.17185-3.17139ZM11.99973,10.61849c-.9209,0-1.6709-.74951-1.6709-1.6709s.75-1.67139,1.6709-1.67139c.92185,0,1.67185.75,1.67185,1.67139s-.75,1.6709-1.67185,1.6709ZM11.99973,1.24984c-4.24414,0-7.69629,3.45312-7.69629,7.69727,0,1.18799.2627,2.32666.81836,3.4502l6.87793,11.01904,6.91602-11.08643c.51855-1.05859.78125-2.19678.78125-3.38281,0-4.24414-3.45312-7.69727-7.69727-7.69727ZM17.60617,11.60335l-5.60645,8.98047-5.56836-8.91406c-.41699-.84961-.62793-1.76562-.62793-2.72266,0-3.41699,2.7793-6.19727,6.19629-6.19727s6.19727,2.78027,6.19727,6.19727c0,.95508-.21191,1.87158-.59082,2.65625Z"/></svg>