<svg xmlns="http://www.w3.org/2000/svg" viewBox="0 0 24 24"><title>Lock</title><path d="M18.96066,8.83577V8.21029a6.96045,6.96045,0,1,0-13.9209,0v.62548h-1.79V22.74984h17.5V8.83577ZM6.53976,8.21029a5.46045,5.46045,0,1,1,10.9209,0v.62548H6.53976Zm12.71,13.03955h-14.5V10.33577h14.5Z" fill="#171717"/><path d="M11.99973,18.9637a3.17114,3.17114,0,1,0-3.1709-3.17089A3.17486,3.17486,0,0,0,11.99973,18.9637Zm0-4.84228a1.67114,1.67114,0,1,1-1.6709,1.67139A1.67366,1.67366,0,0,1,11.99973,14.12142Z" fill="#171717"/></svg>