<svg xmlns="http://www.w3.org/2000/svg" viewBox="0 0 24.75 24.75"><defs><style>.cls-1{fill:none;stroke:#171717;stroke-miterlimit:10;stroke-width:0.75px;}</style></defs><title>Lock</title><g id="Ebene_2" data-name="Ebene 2"><g id="Ebene_1-2" data-name="Ebene 1"><path d="M17.69012,10.0874V9.37549a5.29175,5.29175,0,1,0-10.5835,0v.71191H5.61541V20.65088h13.519V10.0874Zm-9.8335-.71191a4.54175,4.54175,0,1,1,9.0835,0v.71191H7.85662ZM18.38445,19.90088H6.36541V10.8374h12.019Z"/><path d="M12.37518,17.66065a2.29151,2.29151,0,1,0-2.292-2.292A2.29435,2.29435,0,0,0,12.37518,17.66065Zm0-3.833a1.54151,1.54151,0,1,1-1.542,1.541A1.543,1.543,0,0,1,12.37518,13.82764Z"/><rect class="cls-1" x="0.375" y="0.375" width="24" height="24"/></g></g></svg>
