<svg xmlns="http://www.w3.org/2000/svg" viewBox="0 0 13.51904 16.56738"><title>Lock</title>
	<path
		d="M12.07471,6.00391V5.292a5.29175,5.29175,0,1,0-10.5835,0v.71192H0V16.56738H13.519V6.00391ZM2.24121,5.292a4.54175,4.54175,0,1,1,9.0835,0v.71192H2.24121ZM12.769,15.81738H.75V6.75391H12.769Z"
		fill="#171717"/>
	<path
		d="M6.75977,13.57715a2.29151,2.29151,0,1,0-2.292-2.292A2.29434,2.29434,0,0,0,6.75977,13.57715Zm0-3.833a1.54151,1.54151,0,1,1-1.542,1.541A1.543,1.543,0,0,1,6.75977,9.74414Z"
		fill="#171717"/>
</svg>
