<svg xmlns="http://www.w3.org/2000/svg" viewBox="0 0 24 24"><title>Lock</title><path d="M17.2915,9.7124V9.00049a5.29175,5.29175,0,1,0-10.58349,0V9.7124H5.2168V20.27588h13.519V9.7124ZM7.458,9.00049a4.54175,4.54175,0,1,1,9.08349,0V9.7124H7.458ZM17.98584,19.52588H5.9668V10.4624h12.019Z" fill="#171717"/><path d="M11.97656,17.28565a2.29151,2.29151,0,1,0-2.292-2.292A2.29435,2.29435,0,0,0,11.97656,17.28565Zm0-3.833a1.54151,1.54151,0,1,1-1.542,1.541A1.543,1.543,0,0,1,11.97656,13.45264Z" fill="#171717"/></svg>