<?xml version="1.0" encoding="UTF-8"?><svg id="a" xmlns="http://www.w3.org/2000/svg" viewBox="0 0 24 24"><path d="M8.82842,11.99984c0-1.74854,1.42283-3.17139,3.17185-3.17139.87274,0,1.69696.3667,2.28894.98389l7.33508-4.23535.75,1.29883L2.37527,18.42269l-.75-1.29883,7.33832-4.23682c-.08398-.28809-.13517-.58496-.13517-.88721ZM10.34055,12.09212l2.56812-1.48291c-.26782-.1748-.57928-.28076-.90839-.28076-.92185,0-1.67185.75-1.67185,1.67139,0,.03125.01036.06104.01213.09229ZM21.53391,14.28109l-7.91864,4.57178c3.23218-.41943,6.09534-2.0835,7.91864-4.57178ZM1.17996,11.99984l.13477.30371c.45734,1.0332,1.0722,1.97217,1.81195,2.79883l1.34161-.7749c-.65851-.68555-1.21893-1.4624-1.64087-2.32764.73651-1.51025,1.88599-2.75635,3.27954-3.68652-.67236,1.07031-1.06763,2.33203-1.06763,3.68652,0,.62891.08801,1.25098.25342,1.85205l1.36304-.78711c-.06958-.3501-.11646-.70508-.11646-1.06494,0-2.78662,2.10052-5.08838,4.80048-5.4165.22064-.01318.43689-.04395.66046-.04395,1.33856,0,2.60822.50586,3.59167,1.36572l2.33289-1.34668c-1.75134-.97217-3.78375-1.51904-5.92456-1.51904-4.70117,0-8.89551,2.61279-10.68555,6.65674l-.13477.30371ZM20.87222,8.89827l-14.78821,8.53809c.5332.29541,1.08563.56201,1.66632.7749l1.80981-1.04492c-.00214-.00049-.00433-.00098-.00647-.00146l10.9436-6.31836c.00079.00098.0014.00244.0022.00391l1.29993-.75049c-.28241-.42188-.59009-.82471-.92719-1.20166ZM9.67679,18.24154l-.62305.35986c.78973.19287,1.612.29346,2.44922.32812l3.12292-1.80322c-.005.00146-.00952.00391-.01453.00488l5.02698-2.90234c-.00348.00391-.00775.00684-.01123.01025l2.94104-1.69775c.03784-.08008.08075-.15723.1167-.23828l.13477-.30322-.13477-.30322c-.11353-.25684-.23706-.50732-.36969-.75195l-1.31598.75977c.00098.00195.0022.00342.00317.00537l-9.86145,5.69336c-.00336-.00049-.00665-.00098-.01001-.00098l-1.4541.83936Z"/></svg>