<svg xmlns="http://www.w3.org/2000/svg" viewBox="0 0 24.75 24.75"><defs><style>.cls-1{fill:none;stroke:#171717;stroke-miterlimit:10;stroke-width:0.75px;}.cls-2{fill:#171717;}</style></defs><title>LowVision</title><g id="Ebene_2" data-name="Ebene 2"><g id="Ebene_1-2" data-name="Ebene 1"><rect class="cls-1" x="0.375" y="0.375" width="24" height="24"/><path class="cls-2" d="M14.65031,12.37476a2.29435,2.29435,0,0,0-2.292-2.29151,2.266,2.266,0,0,0-1.70862.78882l-4.94177-2.895L5.329,8.62354l13.71289,8.0332.37891-.64648-4.91614-2.87989A2.281,2.281,0,0,0,14.65031,12.37476Zm-2.292-1.54151a1.53649,1.53649,0,0,1,1.49457,1.91529l-2.55274-1.49561A1.53462,1.53462,0,0,1,12.35832,10.83325Z"/><path class="cls-2" d="M16.04093,16.0398,6.64347,10.53443c.05072-.05909.11029-.10889.16272-.166l-.65777-.3855a8.30715,8.30715,0,0,0-1.461,2.33325l-.05859.14209.05859.14209a8.2502,8.2502,0,0,0,7.43713,5.13184l-1.741-1.00488a7.52954,7.52954,0,0,1-4.78992-3.93848l6.80456,3.98633,1.44806.83594c.0437-.00806.08863-.011.13214-.01954a8.183,8.183,0,0,0,.89954-.24707l-.9-.51953-.00739.00244L5.67472,11.967a7.54823,7.54823,0,0,1,.50489-.83447l8.84814,5.18311.98883.5708c.06256-.03077.12946-.051.19135-.0835.1994-.105.39258-.21948.58178-.3396l-.74188-.42822Z"/><path class="cls-2" d="M20.0341,12.31592a8.26748,8.26748,0,0,0-7.67383-5.14941h-.00195A8.27026,8.27026,0,0,0,7.97087,8.43286l1.26654.742a4.51639,4.51639,0,0,1,3.1214-1.2583h.00146a4.54711,4.54711,0,0,1,4.54,4.542,4.49146,4.49146,0,0,1-.15485,1.11474l.6684.39161a5.16934,5.16934,0,0,0-.94666-4.83741,7.52852,7.52852,0,0,1,2.813,3.33106,7.58271,7.58271,0,0,1-1.18744,1.904l.656.38428a8.33666,8.33666,0,0,0,1.2854-2.14575l.0581-.14258Z"/></g></g></svg>
