<svg xmlns="http://www.w3.org/2000/svg" viewBox="0 0 24 24"><title>LowVision</title><path d="M14.292,11.99976A2.29435,2.29435,0,0,0,12,9.70825a2.266,2.266,0,0,0-1.70862.78882l-4.94177-2.895-.37891.64649,13.71289,8.0332.37891-.64648-4.91614-2.87989A2.28076,2.28076,0,0,0,14.292,11.99976ZM12,10.45825a1.53649,1.53649,0,0,1,1.49457,1.91529l-2.55274-1.49561A1.53464,1.53464,0,0,1,12,10.45825Z" fill="#171717"/><path d="M15.68262,15.6648,6.28516,10.15943c.05072-.05909.11029-.10889.16272-.166l-.65778-.3855a8.3076,8.3076,0,0,0-1.461,2.33325l-.05859.14209.05859.14209a8.25021,8.25021,0,0,0,7.43714,5.13184l-1.741-1.00488a7.52954,7.52954,0,0,1-4.78992-3.93848l6.80457,3.98633,1.44806.83594c.0437-.00806.08862-.011.13214-.01954a8.18339,8.18339,0,0,0,.89953-.24707l-.9-.51953-.00739.00244L5.31641,11.592a7.54663,7.54663,0,0,1,.50488-.83447l8.84814,5.18311.98883.5708c.06257-.03077.12946-.051.19135-.0835.1994-.105.39258-.21948.58179-.3396l-.74189-.42822Z" fill="#171717"/><path d="M19.67578,11.94092A8.26747,8.26747,0,0,0,12.002,6.79151H12A8.27026,8.27026,0,0,0,7.61255,8.05786l1.26654.742a4.51639,4.51639,0,0,1,3.1214-1.2583H12.002a4.54711,4.54711,0,0,1,4.54,4.542,4.49145,4.49145,0,0,1-.15484,1.11474l.66839.39161a5.16936,5.16936,0,0,0-.94665-4.83741,7.52858,7.52858,0,0,1,2.813,3.33106,7.58328,7.58328,0,0,1-1.18744,1.904l.65594.38428a8.33666,8.33666,0,0,0,1.2854-2.14575l.05811-.14258Z" fill="#171717"/></svg>