<svg xmlns="http://www.w3.org/2000/svg" viewBox="0 0 24 24"><title>LowVision</title><path d="M15.17158,11.99984a3.16663,3.16663,0,0,0-5.4608-2.1875L2.3757,5.577l-.75,1.29882,19.999,11.54688.75-1.29883L15.03641,12.887A3.16864,3.16864,0,0,0,15.17158,11.99984Zm-1.51213.09228-2.56811-1.48291a1.65729,1.65729,0,0,1,2.58024,1.39063C13.67158,12.03109,13.66122,12.06087,13.65945,12.09212Z" fill="#171717"/><path d="M10.38474,18.85286,2.46609,14.28109A11.63049,11.63049,0,0,0,10.38474,18.85286Z" fill="#171717"/><path d="M22.68527,11.69613A11.55508,11.55508,0,0,0,11.99973,5.03939a12.19928,12.19928,0,0,0-5.92457,1.519L8.40805,7.90511a5.46687,5.46687,0,0,1,3.59168-1.36572c.22357,0,.43981.03076.66046.04394a5.39825,5.39825,0,0,1,4.684,6.48145l1.363.78711a6.97885,6.97885,0,0,0,.25342-1.852A6.90784,6.90784,0,0,0,17.893,8.31331a9.4235,9.4235,0,0,1,3.27954,3.68653,9.16152,9.16152,0,0,1-1.64087,2.32763l1.34161.77491a10.67317,10.67317,0,0,0,1.81195-2.79883l.13477-.30371Z" fill="#171717"/><path d="M2.20059,10.09993l1.29993.75049.0022-.0039,10.9436,6.31836-.00647.00146,1.80981,1.04492a11.88647,11.88647,0,0,0,1.66633-.7749L3.12778,8.89827A10.86927,10.86927,0,0,0,2.20059,10.09993Z" fill="#171717"/><path d="M12.86911,17.40218l-.01.001L2.99765,11.7098l.00317-.00537-1.316-.75977q-.19893.36694-.36968.75195l-.13477.30323.13477.30322c.03594.081.07885.1582.11669.23828l2.941,1.69776-.01123-.01026,5.027,2.90234-.01453-.00488L12.497,18.92952a12.50852,12.50852,0,0,0,2.44922-.32812l-.62305-.35986Z" fill="#171717"/></svg>