<svg xmlns="http://www.w3.org/2000/svg" viewBox="0 0 15.46338 10.56567"><title>LowVision</title>
	<path
		d="M10.02148,5.20825a2.29434,2.29434,0,0,0-2.292-2.2915,2.266,2.266,0,0,0-1.70862.78882L1.0791.81055.7002,1.457l13.71289,8.0332.3789-.64648L9.87585,5.96387A2.28086,2.28086,0,0,0,10.02148,5.20825Zm-2.292-1.5415A1.53648,1.53648,0,0,1,9.22406,5.582L6.67133,4.08643A1.53462,1.53462,0,0,1,7.72949,3.66675Z"
		fill="#171717"/>
	<path
		d="M11.41211,8.87329,2.01465,3.36792c.05072-.05908.11029-.10889.16272-.166l-.65778-.38549a8.3076,8.3076,0,0,0-1.461,2.33325L0,5.29175l.05859.14209a8.2502,8.2502,0,0,0,7.43714,5.13183l-1.741-1.00488A7.52951,7.52951,0,0,1,.96484,5.62231L7.76941,9.60864l1.44806.83594c.0437-.00806.08862-.011.13214-.01953a8.18639,8.18639,0,0,0,.89954-.24707l-.9-.51953-.00738.00244L1.0459,4.80054a7.54737,7.54737,0,0,1,.50488-.83448l8.84815,5.18311.98883.5708c.06256-.03076.12945-.051.19134-.0835.1994-.105.39258-.21948.58179-.33959L11.419,8.86865Z"
		fill="#171717"/>
	<path
		d="M15.40527,5.14941A8.26747,8.26747,0,0,0,7.73145,0h-.002A8.2702,8.2702,0,0,0,3.342,1.26636l1.26654.74194A4.51641,4.51641,0,0,1,7.73.75h.00147a4.54713,4.54713,0,0,1,4.54,4.542,4.49153,4.49153,0,0,1-.15484,1.11475l.66839.3916a5.16934,5.16934,0,0,0-.94665-4.8374,7.52849,7.52849,0,0,1,2.813,3.33105,7.583,7.583,0,0,1-1.18744,1.904l.65594.38428a8.33649,8.33649,0,0,0,1.2854-2.14575l.05811-.14258Z"
		fill="#171717"/>
</svg>
