<svg xmlns="http://www.w3.org/2000/svg" viewBox="0 0 24.75 24.75"><defs><style>.cls-1{fill:none;stroke:#171717;stroke-miterlimit:10;stroke-width:0.75px;}.cls-2{fill:#171717;}</style></defs><title>Magnet</title><g id="Ebene_2" data-name="Ebene 2"><g id="Ebene_1-2" data-name="Ebene 1"><rect class="cls-1" x="0.375" y="0.375" width="24" height="24"/><rect class="cls-2" x="5.86988" y="4.0835" width="2.77783" height="0.75"/><rect class="cls-2" x="16.11255" y="4.0835" width="2.79883" height="0.75"/><path class="cls-2" d="M16.11743,14.146a3.73218,3.73218,0,1,1-7.46435,0V5.54151H5.8645V14.146a6.521,6.521,0,0,0,13.042,0V5.54151H16.11743ZM7.90308,6.29151V8.29639H6.6145V6.29151Zm4.48242,13.625A5.77745,5.77745,0,0,1,6.6145,14.146V9.04639H7.90308V14.146a4.48218,4.48218,0,1,0,8.96435,0V9.04639H18.1565V14.146A5.77745,5.77745,0,0,1,12.3855,19.91651Zm5.771-13.625V8.29639H16.86743V6.29151Z"/></g></g></svg>
