<svg xmlns="http://www.w3.org/2000/svg" viewBox="0 0 24 24"><title>Magnet</title><rect x="3.24973" y="1.24984" width="4.15332" height="1.5" fill="#171717"/><rect x="16.59641" y="1.24984" width="4.15332" height="1.5" fill="#171717"/><path d="M16.59641,14.23665a4.52473,4.52473,0,0,1-4.59668,4.438,4.52473,4.52473,0,0,1-4.59668-4.438V3.50081H3.24973V14.23665a8.64344,8.64344,0,0,0,8.75,8.51319,8.64345,8.64345,0,0,0,8.75-8.51319V3.50081H16.59641ZM4.74973,5.00081H5.90305V7.43H4.74973Zm13.34668,0h1.15332V7.43H18.09641Zm0,3.9292h1.15332v5.30664a7.14232,7.14232,0,0,1-7.25,7.01319,7.14232,7.14232,0,0,1-7.25-7.01319V8.93H5.90305v5.30664a6.02584,6.02584,0,0,0,6.09668,5.938,6.02585,6.02585,0,0,0,6.09668-5.938Z" fill="#171717"/></svg>