<svg xmlns="http://www.w3.org/2000/svg" viewBox="0 0 24 24"><title>Magnet</title><rect x="5.48438" y="3.7085" width="2.77783" height="0.75" fill="#171717"/><rect x="15.72705" y="3.7085" width="2.79883" height="0.75" fill="#171717"/><path d="M15.73193,13.771a3.73218,3.73218,0,1,1-7.46435,0V5.16651H5.479V13.771a6.521,6.521,0,0,0,13.042,0V5.16651H15.73193ZM7.51758,5.91651V7.92139H6.229V5.91651ZM12,19.54151A5.77745,5.77745,0,0,1,6.229,13.771V8.67139H7.51758V13.771a4.48218,4.48218,0,1,0,8.96435,0V8.67139H17.771V13.771A5.77745,5.77745,0,0,1,12,19.54151Zm5.771-13.625V7.92139H16.48193V5.91651Z" fill="#171717"/></svg>