<svg xmlns="http://www.w3.org/2000/svg" viewBox="0 0 13.04688 16.58301"><title>Magnet</title>
	<rect x="0.00537" width="2.77783" height="0.75" fill="#171717"/>
	<rect x="10.24805" width="2.79883" height="0.75" fill="#171717"/>
	<path
		d="M10.25293,10.0625a3.73218,3.73218,0,1,1-7.46436,0V1.458H0V10.0625a6.521,6.521,0,0,0,13.042,0V1.458H10.25293ZM2.03857,2.208V4.21289H.75V2.208ZM6.521,15.833A5.77745,5.77745,0,0,1,.75,10.0625V4.96289H2.03857V10.0625a4.48218,4.48218,0,1,0,8.96436,0V4.96289H12.292V10.0625A5.77744,5.77744,0,0,1,6.521,15.833ZM12.292,2.208V4.21289H11.00293V2.208Z"
		fill="#171717"/>
</svg>
