<?xml version="1.0" encoding="UTF-8"?><svg id="a" xmlns="http://www.w3.org/2000/svg" viewBox="0 0 24 24"><path d="M7.40305,2.74984H3.24973v-1.5h4.15332v1.5ZM16.59641,1.24984v1.5h4.15332v-1.5h-4.15332ZM16.59641,3.50081h4.15332v10.73584c0,4.69434-3.9248,8.51318-8.75,8.51318S3.24973,18.93099,3.24973,14.23665V3.50081h4.15332v10.73584c0,2.44727,2.0625,4.43799,4.59668,4.43799s4.59668-1.99072,4.59668-4.43799V3.50081ZM4.74973,7.43001h1.15332v-2.4292h-1.15332v2.4292ZM18.09641,7.43001h1.15332v-2.4292h-1.15332v2.4292ZM18.09641,14.23665c0,3.27441-2.73535,5.93799-6.09668,5.93799s-6.09668-2.66357-6.09668-5.93799v-5.30664h-1.15332v5.30664c0,3.86719,3.25195,7.01318,7.25,7.01318s7.25-3.146,7.25-7.01318v-5.30664h-1.15332v5.30664Z"/></svg>