<?xml version="1.0" encoding="UTF-8"?><svg id="a" xmlns="http://www.w3.org/2000/svg" viewBox="0 0 24 24"><path d="M2.29999,3.04414v13.89996h10.73004v-1.5H3.79999V5.85414l6.98004,4.51001,6.95001-4.51001v.83997h1.5v-3.64996H2.29999ZM10.78003,8.58412l-6.23999-4.03998h12.45996l-6.21997,4.03998ZM21.41003,11.23414v8.95996c0,1.78003-1.32001,2.71002-2.63,2.71002-1.29999,0-2.62-.92999-2.62-2.71002v-8.13c0-1.00995.76001-1.75995,1.76996-1.75995,1.01001,0,1.77002.75,1.77002,1.75995v4.90002h-1.5v-4.90002c0-.06995,0-.25995-.27002-.25995-.26996,0-.26996.19-.26996.25995v8.13c0,.90002.60999,1.21002,1.12,1.21002.51996,0,1.13-.31,1.13-1.21002v-8.95996c0-1.42004-.98999-2.06-1.97003-2.06-.98999,0-1.97998.63995-1.97998,2.06v5.69995h-1.5v-5.69995c0-2.34003,1.75-3.56,3.47998-3.56,1.72003,0,3.47003,1.21997,3.47003,3.56Z"/></svg>