<?xml version="1.0" encoding="UTF-8"?><svg id="a" xmlns="http://www.w3.org/2000/svg" viewBox="0 0 24 24"><path d="M22.75022,12.98018v5.09473c0,1.97656-1.6084,3.58398-3.58496,3.58398s-3.58447-1.60742-3.58447-3.58398v-6.16602c0-1.19434.97217-2.16699,2.16699-2.16699,1.13428,0,2.16748.92676,2.16748,1.94336v6.75684h-1.5v-6.75684c-.00244-.11328-.26758-.44336-.66748-.44336-.36768,0-.66699.29883-.66699.66699v6.16602c0,1.14941.93506,2.08398,2.08447,2.08398s2.08496-.93457,2.08496-2.08398v-5.09473h1.5ZM2.75022,15.79268h11.35413v1.5H1.25022V2.15889h19.5v6.52051h-1.5v-3.67676l-8.22998,4.73438L2.75022,4.99971v10.79297ZM3.42795,3.65889l7.59033,4.34863,7.55859-4.34863H3.42795Z"/></svg>