<svg xmlns="http://www.w3.org/2000/svg" viewBox="0 0 24.75 24.75"><defs><style>.cls-1{fill:none;stroke:#171717;stroke-miterlimit:10;stroke-width:0.75px;}.cls-2{fill:#171717;}</style></defs><title>MapMarker</title><g id="Ebene_2" data-name="Ebene 2"><g id="Ebene_1-2" data-name="Ebene 1"><rect class="cls-1" x="0.375" y="0.375" width="24" height="24"/><path class="cls-2" d="M12.3916,20.99951,7.13184,12.57373a5.87365,5.87365,0,1,1,10.53857-.0332Zm0-16.167a5.1305,5.1305,0,0,0-5.125,5.125,5.07366,5.07366,0,0,0,.52,2.25293l4.605,7.373,4.624-7.40625a5.07217,5.07217,0,0,0,.501-2.21972A5.1305,5.1305,0,0,0,12.3916,4.83252Zm0,7.418a2.292,2.292,0,1,1,2.292-2.292A2.29476,2.29476,0,0,1,12.3916,12.25049Zm0-3.834a1.542,1.542,0,1,0,1.542,1.542A1.54363,1.54363,0,0,0,12.3916,8.4165Z"/></g></g></svg>
