<svg xmlns="http://www.w3.org/2000/svg" viewBox="0 0 24 24"><title>MapMarker</title><path d="M11.99973,5.7762a3.17115,3.17115,0,1,0,3.17185,3.17139A3.1751,3.1751,0,0,0,11.99973,5.7762Zm0,4.84229a1.67115,1.67115,0,1,1,1.67185-1.6709A1.673,1.673,0,0,1,11.99973,10.61849Z" fill="#171717"/><path d="M11.99973,1.24984A7.69437,7.69437,0,0,0,5.1218,12.3973l6.87793,11.019,6.916-11.08642A7.62521,7.62521,0,0,0,19.697,8.9471,7.70616,7.70616,0,0,0,11.99973,1.24984Zm5.60644,10.35351-5.60644,8.98047L6.43137,11.66976A6.12607,6.12607,0,0,1,5.80344,8.9471a6.19678,6.19678,0,1,1,12.39355,0A6.13952,6.13952,0,0,1,17.60617,11.60335Z" fill="#171717"/></svg>