<svg xmlns="http://www.w3.org/2000/svg" viewBox="0 0 11.75 16.91699"><title>MapMarker</title>
	<path
		d="M5.875,16.917.61523,8.49121A5.87479,5.87479,0,1,1,11.75,5.875a5.82392,5.82392,0,0,1-.59619,2.583ZM5.875.75A5.1305,5.1305,0,0,0,.75,5.875a5.0735,5.0735,0,0,0,.52,2.25293L5.875,15.501l4.624-7.40625A5.07208,5.07208,0,0,0,11,5.875,5.1305,5.1305,0,0,0,5.875.75Zm0,7.418A2.292,2.292,0,1,1,8.167,5.876,2.29476,2.29476,0,0,1,5.875,8.168Zm0-3.834A1.542,1.542,0,1,0,7.417,5.876,1.54363,1.54363,0,0,0,5.875,4.334Z"
		fill="#171717"/>
</svg>
