<svg xmlns="http://www.w3.org/2000/svg" viewBox="0 0 24 24"><title>MapMarker</title><path d="M12.0166,20.62451,6.75684,12.19873a5.87365,5.87365,0,1,1,10.53857-.0332Zm0-16.167a5.1305,5.1305,0,0,0-5.125,5.125,5.07366,5.07366,0,0,0,.52,2.25293l4.605,7.373,4.624-7.40625a5.07217,5.07217,0,0,0,.501-2.21972A5.1305,5.1305,0,0,0,12.0166,4.45752Zm0,7.418a2.292,2.292,0,1,1,2.292-2.292A2.29476,2.29476,0,0,1,12.0166,11.87549Zm0-3.834a1.542,1.542,0,1,0,1.542,1.542A1.54363,1.54363,0,0,0,12.0166,8.0415Z" fill="#171717"/></svg>