<?xml version="1.0" encoding="UTF-8"?><svg id="a" xmlns="http://www.w3.org/2000/svg" viewBox="0 0 24 24"><path d="M1.27899,6.52995v8.50684l2.74268.00293v7.65234h5v-7.64648l.91992.00098,5.50098,5.5083V1.0446l-5.62305,5.48975-8.54053-.00439ZM7.52167,21.19206h-2v-6.15088l2,.00244v6.14844ZM13.94257,4.60514v12.32471l-3.37793-3.38232-7.78564-.00879v-5.50781l7.65088.00342,3.5127-3.4292ZM19.47675,10.8361c0,1.54688-.70233,2.91895-1.78821,3.85938l-1.06018-1.05957c.8158-.66602,1.34839-1.66699,1.34839-2.7998,0-1.13184-.53259-2.13281-1.34845-2.79883l1.06018-1.06055c1.08588.94141,1.78827,2.31348,1.78827,3.85938ZM22.80243,10.8361c0,2.46289-1.06482,4.67676-2.75061,6.22266l-1.06018-1.05957c1.41467-1.27441,2.31079-3.11328,2.31079-5.16309,0-2.04883-.89612-3.8877-2.31085-5.16211l1.06018-1.05957c1.68579,1.5459,2.75067,3.75879,2.75067,6.22168Z"/></svg>