<svg xmlns="http://www.w3.org/2000/svg" viewBox="0 0 10.39893 16.60449"><title>Microphone</title>
	<path
		d="M5.187,9.64453A2.6016,2.6016,0,0,0,7.78564,7.0459V2.59863a2.59839,2.59839,0,1,0-5.19677,0V7.0459A2.6015,2.6015,0,0,0,5.187,9.64453ZM3.33887,2.59863a1.84839,1.84839,0,1,1,3.69677,0V7.0459a1.84839,1.84839,0,1,1-3.69677,0Z"
		fill="#171717"/>
	<path
		d="M5.55109,15.85449l.01019-4.65991A4.17752,4.17752,0,0,0,9.37354,7.0459h-.75a3.43653,3.43653,0,0,1-6.873,0h-.75a4.17741,4.17741,0,0,0,3.81079,4.14844l-.01019,4.66015H0v.75H10.39893v-.75Z"
		fill="#171717"/>
</svg>
