<svg xmlns="http://www.w3.org/2000/svg" viewBox="0 0 24.75 24.75"><defs><style>.cls-1{fill:none;stroke:#171717;stroke-miterlimit:10;stroke-width:0.75px;}.cls-2{fill:#171717;}</style></defs><title>Microphone</title><g id="Ebene_2" data-name="Ebene 2"><g id="Ebene_1-2" data-name="Ebene 1"><rect class="cls-1" x="0.375" y="0.375" width="24" height="24"/><path class="cls-2" d="M12.33538,13.71729A2.60162,2.60162,0,0,0,14.934,11.11865V6.67139a2.59839,2.59839,0,1,0-5.19678,0v4.44726A2.60152,2.60152,0,0,0,12.33538,13.71729Zm-1.84814-7.0459a1.84839,1.84839,0,1,1,3.69678,0v4.44726a1.84839,1.84839,0,1,1-3.69678,0Z"/><path class="cls-2" d="M12.69946,19.92725l.01019-4.65991a4.17753,4.17753,0,0,0,3.81226-4.14869h-.75a3.43653,3.43653,0,1,1-6.873,0h-.75a4.1774,4.1774,0,0,0,3.81079,4.14844l-.01019,4.66016H7.14837v.75H17.5473v-.75Z"/></g></g></svg>
