<svg xmlns="http://www.w3.org/2000/svg" viewBox="0 0 24 24"><title>MicrophoneSlash</title><path d="M14.266,11.94776,11.9,13.334c.02619.00048.05066.00781.07709.00781A2.59061,2.59061,0,0,0,14.266,11.94776Z" fill="#171717"/><path d="M10.3634,11.626a1.82319,1.82319,0,0,1-.23449-.88184V6.29688a1.84839,1.84839,0,1,1,3.69677,0V9.59766l.75-.43946V6.29688a2.59839,2.59839,0,1,0-5.19677,0v4.44726A2.564,2.564,0,0,0,9.719,12.00342Z" fill="#171717"/><path d="M12.35107,14.91406a4.1876,4.1876,0,0,0,3.80317-4.07275l-.79779.46729a3.43463,3.43463,0,0,1-3.3794,2.87207,3.39492,3.39492,0,0,1-1.15619-.21485l-.801.46924a4.13609,4.13609,0,0,0,1.58123.479l-.00976,4.63868H6.79v.75H17.189v-.75H12.34131Z" fill="#171717"/><path d="M8.99872,12.42578a3.395,3.395,0,0,1-.45819-1.68164h-.75a4.14594,4.14594,0,0,0,.55884,2.062Z" fill="#171717"/><rect x="4.60079" y="11.59652" width="14.79843" height="0.74934" transform="translate(-4.40531 7.70796) rotate(-30.36394)" fill="#171717"/></svg>