<svg xmlns="http://www.w3.org/2000/svg" viewBox="0 0 24 24"><title>Microphone</title><path d="M11.97705,13.34229a2.60161,2.60161,0,0,0,2.59863-2.59864V6.29639a2.59839,2.59839,0,1,0-5.19677,0v4.44726A2.60151,2.60151,0,0,0,11.97705,13.34229Zm-1.84814-7.0459a1.84839,1.84839,0,1,1,3.69677,0v4.44726a1.84839,1.84839,0,1,1-3.69677,0Z" fill="#171717"/><path d="M12.34113,19.55225l.01019-4.65991a4.17752,4.17752,0,0,0,3.81225-4.14869h-.75a3.43652,3.43652,0,1,1-6.873,0h-.75a4.1774,4.1774,0,0,0,3.81079,4.14844l-.01019,4.66016H6.79v.75H17.189v-.75Z" fill="#171717"/></svg>