<svg xmlns="http://www.w3.org/2000/svg" viewBox="0 0 13.14746 16.60449"><title>MicrophoneSlash</title>
	<path d="M8.83972,8.24951l-2.366,1.38623c.02619.00049.05066.00781.07709.00781A2.59059,2.59059,0,0,0,8.83972,8.24951Z" fill="#171717"/>
	<path
		d="M4.93713,7.92773a1.82312,1.82312,0,0,1-.23449-.88183V2.59863a1.84839,1.84839,0,1,1,3.69677,0V5.89941l.75-.43945V2.59863a2.59839,2.59839,0,1,0-5.19677,0V7.0459a2.56408,2.56408,0,0,0,.34008,1.25928Z"
		fill="#171717"/>
	<path
		d="M6.9248,11.21582A4.18761,4.18761,0,0,0,10.728,7.14307l-.79779.46728a3.43462,3.43462,0,0,1-3.3794,2.87207,3.39492,3.39492,0,0,1-1.15619-.21484l-.801.46924a4.13626,4.13626,0,0,0,1.58123.479L6.165,15.85449H1.36377v.75H11.7627v-.75H6.915Z"
		fill="#171717"/>
	<path d="M3.57245,8.72754A3.395,3.395,0,0,1,3.11426,7.0459h-.75a4.146,4.146,0,0,0,.55884,2.062Z" fill="#171717"/>
	<rect x="-0.82548" y="7.89828" width="14.79843" height="0.74934" transform="translate(-3.28019 4.45774) rotate(-30.36394)" fill="#171717"/>
</svg>
