<svg xmlns="http://www.w3.org/2000/svg" viewBox="0 0 24.75 24.75"><defs><style>.cls-1{fill:none;stroke:#171717;stroke-miterlimit:10;stroke-width:0.75px;}</style></defs><title>MicrophoneSlash</title><g id="Ebene_2" data-name="Ebene 2"><g id="Ebene_1-2" data-name="Ebene 1"><rect class="cls-1" x="0.375" y="0.375" width="24" height="24"/><path d="M14.62432,12.32276,12.2583,13.709c.02618.00048.05066.00781.07708.00781A2.59061,2.59061,0,0,0,14.62432,12.32276Z"/><path d="M10.72174,12.001a1.82309,1.82309,0,0,1-.2345-.88184V6.67188a1.84839,1.84839,0,1,1,3.69678,0V9.97266l.75-.43946V6.67188a2.59839,2.59839,0,1,0-5.19678,0v4.44726a2.56393,2.56393,0,0,0,.34009,1.25928Z"/><path d="M12.70941,15.28906a4.18759,4.18759,0,0,0,3.80316-4.07275l-.79779.46729a3.43463,3.43463,0,0,1-3.3794,2.87207,3.39492,3.39492,0,0,1-1.15619-.21485l-.801.46924a4.13608,4.13608,0,0,0,1.58124.479l-.00977,4.63868H7.14837v.75H17.5473v-.75H12.69964Z"/><path d="M9.357,12.80078a3.395,3.395,0,0,1-.45819-1.68164h-.75a4.146,4.146,0,0,0,.55884,2.062Z"/><rect x="4.95912" y="11.97152" width="14.79843" height="0.74934" transform="translate(-4.54572 7.94053) rotate(-30.36394)"/></g></g></svg>
