<svg xmlns="http://www.w3.org/2000/svg" viewBox="0 0 24 24"><title>Microphone</title><path d="M12.74973,21.24984v-5.3291a5.56837,5.56837,0,0,0,4.81445-5.50782h-1.5a4.06446,4.06446,0,1,1-8.12891,0h-1.5a5.56837,5.56837,0,0,0,4.81446,5.50782v5.3291H5.43234v1.5H18.56808v-1.5Z" fill="#171717"/><path d="M11.99973,13.18441A3.17529,3.17529,0,0,0,15.17158,10.013l-.001-5.59228a3.1709,3.1709,0,1,0-6.34179.00048V10.013A3.1751,3.1751,0,0,0,11.99973,13.18441Zm-1.6709-8.76319a1.6709,1.6709,0,1,1,3.34179-.00048l.001,5.59228a1.67138,1.67138,0,1,1-3.34275,0Z" fill="#171717"/></svg>