<?xml version="1.0" encoding="UTF-8"?><svg id="a" xmlns="http://www.w3.org/2000/svg" viewBox="0 0 24 24"><path d="M20.37473,8.0306L4.37473,17.2679l-.75-1.29883L19.62473,6.73177l.75,1.29883ZM10.36258,10.34701c-.02197-.10791-.03375-.21973-.03375-.33398v-5.5918c0-.92139.75-1.67139,1.6709-1.67139s1.6709.74951,1.6709,1.6709l.00067,4.01611,1.49988-.86621-.00055-3.1499c0-1.74854-1.42285-3.1709-3.1709-3.1709s-3.1709,1.42285-3.1709,3.17139v5.5918c0,.3877.0799.75537.20801,1.09961l1.32574-.76562ZM8.14182,11.62923c-.12231-.38672-.20654-.79004-.20654-1.21631h-1.5c0,.70068.13092,1.37109.36859,1.98877l1.33795-.77246ZM12.74973,15.92074c2.37524-.32227,4.28033-2.14404,4.71899-4.47998l-2.0752,1.19824c-.68268,1.03711-1.82849,1.72998-3.14001,1.8125l-2.08221,1.20215c.3465.12109.70477.21631,1.07843.26709v5.3291h-5.81738v1.5h13.13574v-1.5h-5.81836v-5.3291Z"/></svg>