<svg xmlns="http://www.w3.org/2000/svg" viewBox="0 0 24 24"><title>MicrophoneSlash</title><rect x="2.7622" y="11.24993" width="18.47506" height="1.49982" transform="translate(-4.3922 7.60731) rotate(-29.9992)" fill="#171717"/><path d="M10.36258,10.347a1.67375,1.67375,0,0,1-.03375-.334V4.42122a1.6709,1.6709,0,1,1,3.34179-.00048l.00068,4.01611,1.49987-.86621-.00055-3.1499a3.1709,3.1709,0,1,0-6.34179.00048V10.013a3.1411,3.1411,0,0,0,.208,1.09961Z" fill="#171717"/><path d="M8.14182,11.62923a4.01154,4.01154,0,0,1-.20655-1.21631h-1.5a5.5262,5.5262,0,0,0,.36859,1.98877Z" fill="#171717"/><path d="M12.74973,15.92074a5.57551,5.57551,0,0,0,4.719-4.48L15.39352,12.639a4.053,4.053,0,0,1-3.14,1.8125L10.1713,15.65365a5.51666,5.51666,0,0,0,1.07843.26709v5.3291H5.43234v1.5H18.56808v-1.5H12.74973Z" fill="#171717"/></svg>