<?xml version="1.0" encoding="UTF-8"?><svg id="a" xmlns="http://www.w3.org/2000/svg" viewBox="0 0 24 24"><path d="M18.56808,21.24984v1.5H5.43234v-1.5h5.81738v-5.3291c-2.71399-.36816-4.81445-2.69434-4.81445-5.50781h1.5c0,2.24121,1.82324,4.06445,4.06445,4.06445s4.06445-1.82324,4.06445-4.06445h1.5c0,2.81348-2.10046,5.13965-4.81445,5.50781v5.3291h5.81836ZM8.82883,10.01302v-5.5918c0-1.74854,1.42285-3.17139,3.1709-3.17139s3.1709,1.42236,3.1709,3.1709l.00096,5.59229c0,1.74854-1.42283,3.17139-3.17185,3.17139-1.74805,0-3.1709-1.42285-3.1709-3.17139ZM10.32883,10.01302c0,.92139.75,1.67139,1.6709,1.67139.92185,0,1.67185-.75,1.67185-1.67139l-.00096-5.59229c0-.92139-.75-1.6709-1.6709-1.6709s-1.6709.75-1.6709,1.67139v5.5918Z"/></svg>