<svg xmlns="http://www.w3.org/2000/svg" viewBox="0 0 24 24"><title>More</title><path d="M11.99973,7.59261a3.17139,3.17139,0,1,0-3.1709-3.1709A3.17518,3.17518,0,0,0,11.99973,7.59261Zm0-4.84277a1.67139,1.67139,0,1,1-1.6709,1.67187A1.67376,1.67376,0,0,1,11.99973,2.74984Z" fill="#171717"/><path d="M11.99973,8.82894a3.1709,3.1709,0,1,0,3.17185,3.1709A3.175,3.175,0,0,0,11.99973,8.82894Zm0,4.8418a1.6709,1.6709,0,1,1,1.67185-1.6709A1.67335,1.67335,0,0,1,11.99973,13.67074Z" fill="#171717"/><path d="M11.99973,16.40706a3.17139,3.17139,0,1,0,3.17185,3.17188A3.17521,3.17521,0,0,0,11.99973,16.40706Zm0,4.84278a1.67139,1.67139,0,1,1,1.67185-1.6709A1.67335,1.67335,0,0,1,11.99973,21.24984Z" fill="#171717"/></svg>