<svg xmlns="http://www.w3.org/2000/svg" viewBox="0 0 24 24"><title>More</title><path d="M12.01077,8.29232a2.292,2.292,0,1,0-2.292-2.292A2.29435,2.29435,0,0,0,12.01077,8.29232Zm0-3.834a1.542,1.542,0,1,1-1.542,1.542A1.54322,1.54322,0,0,1,12.01077,4.45833Z" fill="#171717"/><path d="M12.01077,9.70833a2.292,2.292,0,1,0,2.29151,2.292A2.29476,2.29476,0,0,0,12.01077,9.70833Zm0,3.834a1.542,1.542,0,1,1,1.54151-1.542A1.54364,1.54364,0,0,1,12.01077,13.54232Z" fill="#171717"/><path d="M12.01077,15.70833a2.29151,2.29151,0,1,0,2.29151,2.292A2.29476,2.29476,0,0,0,12.01077,15.70833Zm0,3.833a1.54151,1.54151,0,1,1,1.54151-1.541A1.54343,1.54343,0,0,1,12.01077,19.54134Z" fill="#171717"/></svg>