<svg xmlns="http://www.w3.org/2000/svg" viewBox="0 0 4.5835 16.58301"><title>More</title>
	<path d="M2.292,4.584A2.292,2.292,0,1,0,0,2.292,2.29435,2.29435,0,0,0,2.292,4.584Zm0-3.834A1.542,1.542,0,1,1,.75,2.292,1.54322,1.54322,0,0,1,2.292.75Z"
		  fill="#171717"/>
	<path d="M2.292,6A2.292,2.292,0,1,0,4.5835,8.292,2.29476,2.29476,0,0,0,2.292,6Zm0,3.834A1.542,1.542,0,1,1,3.8335,8.292,1.54362,1.54362,0,0,1,2.292,9.834Z"
		  fill="#171717"/>
	<path
		d="M2.292,12A2.29151,2.29151,0,1,0,4.5835,14.292,2.29476,2.29476,0,0,0,2.292,12Zm0,3.833A1.54151,1.54151,0,1,1,3.8335,14.292,1.54342,1.54342,0,0,1,2.292,15.833Z"
		fill="#171717"/>
</svg>
