<?xml version="1.0" encoding="UTF-8"?><svg id="a" xmlns="http://www.w3.org/2000/svg" viewBox="0 0 24 24"><path d="M11.99973,7.59261c1.74902,0,3.17185-1.42285,3.17185-3.1709,0-1.74902-1.42283-3.17188-3.17185-3.17188-1.74805,0-3.1709,1.42285-3.1709,3.17188,0,1.74805,1.42285,3.1709,3.1709,3.1709ZM11.99973,2.74984c.92185,0,1.67185.75,1.67185,1.67188,0,.9209-.75,1.6709-1.67185,1.6709-.9209,0-1.6709-.75-1.6709-1.6709,0-.92188.75-1.67188,1.6709-1.67188ZM11.99973,8.82894c-1.74805,0-3.1709,1.42285-3.1709,3.1709s1.42285,3.1709,3.1709,3.1709c1.74902,0,3.17185-1.42285,3.17185-3.1709s-1.42283-3.1709-3.17185-3.1709ZM11.99973,13.67074c-.9209,0-1.6709-.75-1.6709-1.6709s.75-1.6709,1.6709-1.6709c.92185,0,1.67185.75,1.67185,1.6709s-.75,1.6709-1.67185,1.6709ZM11.99973,16.40706c-1.74805,0-3.1709,1.42285-3.1709,3.17188,0,1.74805,1.42285,3.1709,3.1709,3.1709,1.74902,0,3.17185-1.42285,3.17185-3.1709,0-1.74902-1.42283-3.17188-3.17185-3.17188ZM11.99973,21.24984c-.9209,0-1.6709-.75-1.6709-1.6709,0-.92188.75-1.67188,1.6709-1.67188.92185,0,1.67185.75,1.67185,1.67188,0,.9209-.75,1.6709-1.67185,1.6709Z"/></svg>