<svg xmlns="http://www.w3.org/2000/svg" viewBox="0 0 24.75 24.75"><defs><style>.cls-1{fill:none;stroke:#171717;stroke-miterlimit:10;stroke-width:0.75px;}.cls-2{fill:#171717;}</style></defs><title>More</title><g id="Ebene_2" data-name="Ebene 2"><g id="Ebene_1-2" data-name="Ebene 1"><rect class="cls-1" x="0.375" y="0.375" width="24" height="24"/><path class="cls-2" d="M12.38574,8.66716a2.292,2.292,0,1,1,2.29151-2.292A2.29476,2.29476,0,0,1,12.38574,8.66716Zm0-3.834a1.542,1.542,0,1,0,1.54151,1.542A1.54363,1.54363,0,0,0,12.38574,4.83317Z"/><path class="cls-2" d="M12.38574,14.66716a2.292,2.292,0,1,1,2.29151-2.292A2.29476,2.29476,0,0,1,12.38574,14.66716Zm0-3.834a1.542,1.542,0,1,0,1.54151,1.542A1.54363,1.54363,0,0,0,12.38574,10.83317Z"/><path class="cls-2" d="M12.38574,20.66618a2.29151,2.29151,0,1,1,2.29151-2.291A2.29393,2.29393,0,0,1,12.38574,20.66618Zm0-3.833a1.54151,1.54151,0,1,0,1.54151,1.542A1.54363,1.54363,0,0,0,12.38574,16.83317Z"/></g></g></svg>
