<?xml version="1.0" encoding="UTF-8"?><svg id="a" xmlns="http://www.w3.org/2000/svg" viewBox="0 0 24 24"><path d="M20.09254,19.5788l-2.32227-5.6084v-4.76074c0-2.92285-2.19269-5.33691-5.01855-5.69824V1.38446h-1.5v2.13281c-2.8078.37695-4.98145,2.7832-4.98145,5.69238v4.62988l-2.31055,5.73926h4.84723c.00305,1.74902,1.42609,3.1709,3.17621,3.1709s3.17316-1.42188,3.17621-3.1709h4.93317ZM7.77027,14.13056v-4.9209c0-2.34375,1.90625-4.25,4.25-4.25s4.25,1.90625,4.25,4.25v5.05859l1.57812,3.81055H6.18043l1.58984-3.94824ZM11.98316,21.2497c-.92297,0-1.67316-.74902-1.67621-1.6709h3.35242c-.00305.92188-.75323,1.6709-1.67621,1.6709Z"/></svg>