<?xml version="1.0" encoding="UTF-8"?><svg id="a" xmlns="http://www.w3.org/2000/svg" viewBox="0 0 24 24"><path d="M7.77051,12.25505l-1.5.875v-3.9209c0-2.90918,2.17401-5.31445,4.98145-5.69238V1.38493h1.5v2.12793c1.97375.25293,3.63593,1.50781,4.45941,3.23926l-1.30048.75879c-.65735-1.49902-2.15161-2.55176-3.89038-2.55176-2.34326,0-4.25,1.90723-4.25,4.25v3.0459ZM20.09326,19.57829h-4.93365c-.00293,1.74902-1.42651,3.17188-3.17621,3.17188-1.75018,0-3.17377-1.42285-3.1767-3.17188h-4.66443l2.57343-1.5h11.13245l-1.57764-3.80957v-1.75977l1.5-.87402v2.33496l2.32275,5.6084ZM13.65961,19.57829h-3.35291c.00293.92285.75366,1.67188,1.6767,1.67188s1.67328-.74902,1.67621-1.67188ZM19.625,7.0822L3.2251,16.54997l.75,1.29883,16.3999-9.46777-.75-1.29883Z"/></svg>