<?xml version="1.0" encoding="UTF-8"?><svg id="a" xmlns="http://www.w3.org/2000/svg" viewBox="0 0 24 24"><path d="M18.38944,18.74463v3.27539h-1.5v-3.27539c0-1.49414-1.21533-2.70898-2.70898-2.70898h-4.36084c-1.49365,0-2.70898,1.21484-2.70898,2.70898v3.27539h-1.5v-3.27539c0-2.32129,1.88818-4.20898,4.20898-4.20898h4.36084c2.3208,0,4.20898,1.8877,4.20898,4.20898ZM7.0994,8.88525v-.74902h.00201l.83539-6.17383h8.09668l.86511,6.17383h.00208v.74902c0,2.70215-2.19873,4.90039-4.90088,4.90039s-4.90039-2.19824-4.90039-4.90039ZM8.81394,6.66552h6.36401l-.44916-3.20312h-5.48145l-.43341,3.20312ZM8.5994,8.88525c0,1.875,1.52539,3.40039,3.40039,3.40039,1.87549,0,3.40088-1.52539,3.40088-3.40039v-.63086l-.01245-.08887h-6.77722l-.0116.08594v.63379ZM14.3162,17.31982h-1.5v1.35059h-1.3501v1.5h1.3501v1.34961h1.5v-1.34961h1.34961v-1.5h-1.34961v-1.35059Z"/></svg>