<?xml version="1.0" encoding="UTF-8"?><svg id="a" xmlns="http://www.w3.org/2000/svg" viewBox="0 0 24 24"><path d="M11.77316,15.20833v4.79199h-1.5v-4.79199c0-1.1123-.90527-2.01758-2.01758-2.01758h-3.48828c-1.1123,0-2.0166.90527-2.0166,2.01758v4.79199h-1.5v-4.79199c0-1.93945,1.57715-3.51758,3.5166-3.51758h3.48828c1.93945,0,3.51758,1.57812,3.51758,3.51758ZM2.44113,7.32064c0-2.24512,1.82617-4.07031,4.07031-4.07031s4.07031,1.8252,4.07031,4.07031c0,2.24414-1.82617,4.07031-4.07031,4.07031s-4.07031-1.82617-4.07031-4.07031ZM3.94113,7.32064c0,1.41699,1.15332,2.57031,2.57031,2.57031s2.57031-1.15332,2.57031-2.57031c0-1.41797-1.15332-2.57031-2.57031-2.57031s-2.57031,1.15234-2.57031,2.57031ZM19.23508,6.08724c.2666.46289.33594,1.00293.19727,1.51855-.13965.51562-.4707.94629-.93457,1.21289-.30762.17676-.64844.2666-.99316.2666-.1748,0-.35059-.02344-.52441-.07031-.51562-.13867-.94629-.4707-1.21289-.93359-.5498-.95605-.21875-2.18066.7373-2.73047.46191-.2666,1.00098-.33691,1.51758-.19727.51562.13867.94629.4707,1.21289.93359ZM18.36789,6.58626c-.13281-.23145-.34863-.39746-.60645-.46777-.08691-.02246-.1748-.03418-.26172-.03418-.17285,0-.34277.04492-.49707.13281-.47754.27539-.64355.8877-.36816,1.36621.13281.23145.34863.39746.60645.4668.25879.06934.52637.03418.75879-.09863h0c.23145-.13379.39746-.34863.4668-.60645.07031-.25781.03516-.52734-.09863-.75879ZM21.44406,7.50521l.94629.7832-1.41406,2.44043-1.14941-.43164c-.11035.08008-.22559.15625-.34766.22656-.12109.06934-.24512.13086-.37012.18555l-.20605,1.21191-2.82031-.00488-.20117-1.21289c-.25098-.1123-.49023-.25098-.71484-.41504l-1.15234.42871-1.40723-2.44629.95117-.78027c-.0293-.27637-.0293-.55273,0-.82715l-.94629-.78223,1.41406-2.44141,1.15039.43164c.11035-.08008.22559-.15625.34766-.22656.12109-.06934.24512-.13086.37012-.18555l.2041-1.21094,2.82322.00488.19924,1.21191c.25195.1123.49121.25098.71484.41504l1.15332-.42871,1.40625,2.44629-.9502.78027c.02832.27637.02832.55273-.00098.82715ZM20.36691,6.26986l.73926-.60742-.5625-.97852-.89746.33398-.22363-.19043c-.27441-.23438-.58301-.41309-.91797-.5332l-.27637-.09961-.15625-.94336-1.12793-.00195-.15918.94238-.27637.09863c-.16504.05957-.3291.13086-.48633.22168-.1582.09082-.30078.19531-.43457.30859l-.22461.18945-.89551-.33691-.56641.97656.7373.60938-.05371.28906c-.06445.34961-.06445.70703,0,1.06152l.05176.28906-.74023.60742.56348.97852.89648-.33398.22363.19043c.27539.23438.58398.41406.91797.53418l.27637.09863.15625.94336,1.12891.00195.15918-.94238.27539-.09863c.16504-.05957.3291-.13086.4873-.22168.15723-.09082.30078-.19531.43555-.30957l.22461-.18848.89355.33691.56641-.97656-.73633-.60938.05273-.28809c.06445-.35059.06445-.70801.00098-1.06348l-.05176-.28809Z"/></svg>