<?xml version="1.0" encoding="UTF-8"?><svg id="a" xmlns="http://www.w3.org/2000/svg" viewBox="0 0 24 24"><path d="M11.77316,15.20809v4.79199h-1.5v-4.79199c0-1.1123-.90527-2.0166-2.01758-2.0166h-3.48828c-1.1123,0-2.0166.9043-2.0166,2.0166v4.79199h-1.5v-4.79199c0-1.93945,1.57715-3.5166,3.5166-3.5166h3.48828c1.93945,0,3.51758,1.57715,3.51758,3.5166ZM2.44113,7.32039c0-2.24414,1.82617-4.07031,4.07031-4.07031s4.07031,1.82617,4.07031,4.07031-1.82617,4.07031-4.07031,4.07031-4.07031-1.82617-4.07031-4.07031ZM3.94113,7.32039c0,1.41699,1.15332,2.57031,2.57031,2.57031s2.57031-1.15332,2.57031-2.57031-1.15332-2.57031-2.57031-2.57031-2.57031,1.15332-2.57031,2.57031ZM21.95871,3.95223l-7.03516,7.06641-2.27246.32031.35645-2.23633,7.0332-7.06055,1.91797,1.91016ZM19.25687,4.2452l.50122.50073.78656-.78979-.50195-.5-.78583.78906ZM19.05252,5.45443l-.50122-.50073-4.60626,4.62549-.09277.58008.59863-.08398,4.60162-4.62085Z"/></svg>