<?xml version="1.0" encoding="UTF-8"?><svg id="a" xmlns="http://www.w3.org/2000/svg" viewBox="0 0 24 24"><path d="M14.18045,14.53564h-4.36084c-2.3208,0-4.20898,1.8877-4.20898,4.20898v3.27539h1.5v-3.27539c0-1.49414,1.21533-2.70898,2.70898-2.70898h4.36084c1.49365,0,2.70898,1.21484,2.70898,2.70898v3.27539h1.5v-3.27539c0-2.32129-1.88818-4.20898-4.20898-4.20898ZM14.3162,17.31982h-1.5v1.35059h-1.3501v1.5h1.3501v1.34961h1.5v-1.34961h1.34961v-1.5h-1.34961v-1.35059ZM11.51688,13.77002c.15625.01465.3125.02246.46826.02246,1.21924,0,2.4043-.45215,3.30811-1.27344,1.02002-.92773,1.60498-2.25,1.60498-3.62891v-.44238c0-.9375-.08252-1.88281-.24561-2.80859l-.64795-3.66992H7.95243l-.63086,3.72559c-.15088.8916-.22754,1.7998-.22754,2.7002v.31738c0,2.59961,1.94287,4.82031,4.42285,5.05762ZM8.80008,5.9458l.41992-2.47656h5.52588l.4292,2.43066c.04504.25586.07019.51465.10168.77344h-6.5686c.02875-.24316.05121-.4873.09192-.72754ZM8.59403,8.39502c0-.07422.00818-.14844.00934-.22168h6.78278c.00171.09082.01208.18262.01208.27441v.44238c0,.95703-.40625,1.875-1.11426,2.51855-.71777.65234-1.65283.95898-2.62451.86816-1.71875-.16406-3.06543-1.72949-3.06543-3.56445v-.31738Z"/></svg>