<?xml version="1.0" encoding="UTF-8"?><svg id="a" xmlns="http://www.w3.org/2000/svg" viewBox="0 0 24 24"><path d="M11.77316,15.20833v4.79199h-1.5v-4.79199c0-1.1123-.90527-2.01758-2.01758-2.01758h-3.48828c-1.1123,0-2.0166.90527-2.0166,2.01758v4.79199h-1.5v-4.79199c0-1.93945,1.57715-3.51758,3.5166-3.51758h3.48828c1.93945,0,3.51758,1.57812,3.51758,3.51758ZM2.44113,7.32064c0-2.24512,1.82617-4.07031,4.07031-4.07031s4.07031,1.8252,4.07031,4.07031c0,2.24414-1.82617,4.07031-4.07031,4.07031s-4.07031-1.82617-4.07031-4.07031ZM3.94113,7.32064c0,1.41699,1.15332,2.57031,2.57031,2.57031s2.57031-1.15332,2.57031-2.57031c0-1.41797-1.15332-2.57031-2.57031-2.57031s-2.57031,1.15234-2.57031,2.57031ZM21.96066,3.73372l-5.49902,5.46289c-.00586.46289-.16797.875-.47461,1.20312-.69141.73926-1.89453.84863-2.54883.84863-.07617,0-.14453-.00098-.20508-.00293l.01855-1,.10352-.43652c.01758-.1543.02051-.24316.02344-.33301.01953-.52051.04883-1.30078,1.2959-1.88184l5.58691-5.55078,1.69922,1.69043ZM15.46164,9.21322l-.59766-.59375c-.46289.26953-.47168.51855-.48633.89453-.00488.12598-.00977.25-.02734.37012,0,.08008-.01367.17578-.04102.2793.41992-.08887.75781-.24414.94727-.44727.13086-.13867.19727-.30176.20508-.50293ZM20.54269,3.73372l-.28125-.28027-4.58986,4.55859.28127.28027,4.58984-4.55859Z"/></svg>