<svg xmlns="http://www.w3.org/2000/svg" viewBox="0 0 15.08301 15.05078"><title>Phone</title>
	<path
		d="M12.75928,15.05078a2.20461,2.20461,0,0,1-.77295-.14062l-.00293.00293-.24121-.10157A23.79839,23.79839,0,0,1,.40186,3.6123,3.79727,3.79727,0,0,1,0,2.292,2.29434,2.29434,0,0,1,2.2915,0H5.25293L6.919,2.80273,5.76611,4.91016A23.52986,23.52986,0,0,0,10.11377,9.291l2.17578-1.17383L15.083,9.7998l-.03223,2.9629A2.29352,2.29352,0,0,1,12.75928,15.05078Zm-.93555-1.03808.24756.11718a1.55037,1.55037,0,0,0,2.22949-1.37109l.02783-2.53711L12.269,8.98047l-2.22412,1.20019-.19238-.1455A24.27459,24.27459,0,0,1,5.02,5.167l-.14356-.19336,1.1792-2.15527L4.82617.75H2.2915A1.54322,1.54322,0,0,0,.75,2.292a3.17483,3.17483,0,0,0,.32471.98828,23.07353,23.07353,0,0,0,10.7417,10.73926Z"
		fill="#171717"/>
</svg>
