<svg xmlns="http://www.w3.org/2000/svg" viewBox="0 0 24 24"><title>Phone</title><path d="M17.97238,12.42367l-2.71289,1.46777a29.34912,29.34912,0,0,1-5.15625-5.208l1.4375-2.63379L9.28586,2.24984H5.40793a3.16436,3.16436,0,0,0-3.1582,3.16308,4.92558,4.92558,0,0,0,.5332,1.78223,30.19208,30.19208,0,0,0,14.3789,14.22852l.4795.208.01758-.01757a3.05036,3.05036,0,0,0,.8955.13574,3.16252,3.16252,0,0,0,3.15821-3.1543l.042-3.88769Zm2.24024,6.16406a1.65807,1.65807,0,0,1-2.39649,1.47656l-.49121-.2373-.01269.01269A28.76126,28.76126,0,0,1,4.12863,6.533a3.81836,3.81836,0,0,1-.3789-1.12012,1.66273,1.66273,0,0,1,1.6582-1.66308H8.43234L9.81418,6.08089,8.32394,8.81136l.28711.38477a30.73885,30.73885,0,0,0,6.125,6.18457l.38477.292,2.81055-1.52051,2.31347,1.39746Z" fill="#171717"/></svg>