<?xml version="1.0" encoding="UTF-8"?><svg id="a" xmlns="http://www.w3.org/2000/svg" viewBox="0 0 24 24"><path d="M17.97238,12.42367l-2.71289,1.46777c-1.92285-1.50684-3.6543-3.25586-5.15625-5.20801l1.4375-2.63379-2.25488-3.7998h-3.87793c-1.74121,0-3.1582,1.41895-3.1582,3.16309,0,.68066.44727,1.61035.5332,1.78223,3.03711,6.27734,8.27832,11.46387,14.37891,14.22852l.47949.20801.01758-.01758c.29395.08984.59277.13574.89551.13574,1.74121,0,3.1582-1.41895,3.1582-3.1543l.04199-3.8877-3.78223-2.28418ZM20.21262,18.58773c0,1.16211-1.25195,2.05664-2.39648,1.47656l-.49121-.2373-.0127.0127c-5.58594-2.67285-10.37012-7.49316-13.18359-13.30664-.15527-.31055-.37891-.8877-.37891-1.12012,0-.91699.74414-1.66309,1.6582-1.66309h3.02441l1.38184,2.33105-1.49023,2.73047.28711.38477c1.74805,2.35156,3.80859,4.43262,6.125,6.18457l.38477.29199,2.81055-1.52051,2.31348,1.39746-.03223,3.03809Z"/></svg>