<svg xmlns="http://www.w3.org/2000/svg" viewBox="0 0 24.75 24.75"><defs><style>.cls-1{fill:none;stroke:#171717;stroke-miterlimit:10;stroke-width:0.75px;}</style></defs><title>Phone</title><g id="Ebene_2" data-name="Ebene 2"><g id="Ebene_1-2" data-name="Ebene 1"><rect class="cls-1" x="0.375" y="0.375" width="24" height="24"/><path d="M17.59383,19.90057a2.20469,2.20469,0,0,1-.773-.14062l-.00293.00293-.24121-.10156A23.79852,23.79852,0,0,1,5.23641,8.4621a3.79761,3.79761,0,0,1-.40185-1.32031,2.29435,2.29435,0,0,1,2.2915-2.292h2.96143l1.666,2.80274L10.60067,9.76a23.52986,23.52986,0,0,0,4.34766,4.38086L17.12411,12.967l2.79345,1.68262-.03222,2.96289A2.29353,2.29353,0,0,1,17.59383,19.90057Zm-.93554-1.03808.24755.11719a1.55038,1.55038,0,0,0,2.2295-1.3711l.02783-2.53711L17.1036,13.83026l-2.22412,1.2002-.19239-.14551a24.27475,24.27475,0,0,1-4.83251-4.86816L9.711,9.82343l1.1792-2.15528L9.66073,5.59979H7.12606a1.54321,1.54321,0,0,0-1.5415,1.542,3.17515,3.17515,0,0,0,.3247.98828A23.0736,23.0736,0,0,0,16.651,18.86932Z"/></g></g></svg>
