<svg xmlns="http://www.w3.org/2000/svg" viewBox="0 0 24 24"><title>Phone</title><path d="M17.23389,19.52556a2.20462,2.20462,0,0,1-.77295-.14063l-.00293.00293-.24121-.10156A23.79849,23.79849,0,0,1,4.87646,8.08708a3.79761,3.79761,0,0,1-.40185-1.32031,2.29435,2.29435,0,0,1,2.2915-2.292H9.72754l1.666,2.80274L10.24072,9.38493a23.52986,23.52986,0,0,0,4.34766,4.38086L16.76416,12.592l2.79346,1.68262-.03223,2.96289A2.29353,2.29353,0,0,1,17.23389,19.52556Zm-.93555-1.03809.24756.11719a1.55038,1.55038,0,0,0,2.22949-1.3711l.02783-2.53711-2.05957-1.24121-2.22412,1.2002-.19238-.14551A24.27453,24.27453,0,0,1,9.49463,9.64177l-.14356-.19336,1.1792-2.15528L9.30078,5.22477H6.76611a1.54322,1.54322,0,0,0-1.5415,1.542,3.17491,3.17491,0,0,0,.32471.98828A23.07358,23.07358,0,0,0,16.291,18.49431Z" fill="#171717"/></svg>