<svg xmlns="http://www.w3.org/2000/svg" viewBox="0 0 13.7876 16.5332"><title>Pin</title>
	<path
		d="M2.2168,16.5332l-.64942-.375,2.54834-4.41406L0,9.36816l.1875-.3247A3.78727,3.78727,0,0,1,3.5293,7.16162c.46484-.80469,2.15429-3.73144,2.6123-4.52392A2.36734,2.36734,0,0,1,6.165.32471L6.35254,0,13.7876,4.293l-.1875.32471a2.36751,2.36751,0,0,1-1.99072,1.17675c-.45752.79248-2.14747,3.71924-2.61182,4.52393a3.78224,3.78224,0,0,1,.041,3.83545l-.1875.32519L4.76514,12.11914ZM1.04492,9.10547l7.51123,4.33642a3.02692,3.02692,0,0,0-.30615-2.897l-.13672-.1958.11963-.20654c.11523-.19971,2.81445-4.87451,2.83838-4.916L11.18994,5.02l.23779.01953a1.6269,1.6269,0,0,0,1.29639-.49463L6.666,1.04688a1.61378,1.61378,0,0,0,.22021,1.3706l.13623.19629-.1206.20654c-.03418.05908-2.72315,4.71582-2.83741,4.915l-.11963.207L3.707,7.92188A3.023,3.023,0,0,0,1.04492,9.10547Z"
		fill="#171717"/>
</svg>
