<?xml version="1.0" encoding="UTF-8"?><svg id="a" xmlns="http://www.w3.org/2000/svg" viewBox="0 0 24 24"><path d="M11.21848.97152l-.375.65527c-.53809.93945-.56738,2.09082-.10352,3.0498l-3.12012,5.44531c-1.74805.02344-3.3877.97559-4.27051,2.51758l-.37109.64648,5.16016,3.00195-3.05957,5.33887,1.30078.74609,3.05566-5.33105,5.12207,2.98047.375-.65527c.88379-1.54199.88184-3.44727.02637-4.98145.63867-1.11328,2.46582-4.30078,3.12012-5.44531,1.05762-.07715,2.03223-.67871,2.57129-1.61816l.37109-.64648L11.21848.97152ZM17.70676,7.4432l-.47852-.03906-.23633.41699c-.05273.09277-3.41211,5.95508-3.55664,6.20605l-.23633.41113.27051.39062c.63086.90918.79102,2.06055.46582,3.0957l-.16406-.0957-8.68066-5.0498c.72559-.80273,1.80371-1.2373,2.88965-1.14453l.47852.04199,2.62695-4.58691c.64551-1.12598,1.16895-2.03906,1.17188-2.04492l.22949-.4082-.26465-.38477c-.23242-.33691-.33496-.74121-.30469-1.1377l6.91602,4.02441c-.32422.22559-.71875.33691-1.12695.30469Z"/></svg>