<svg xmlns="http://www.w3.org/2000/svg" viewBox="0 0 24 24"><title>Pin</title><path d="M11.21848.97152l-.375.65527A3.28553,3.28553,0,0,0,10.74,4.6766L7.61984,10.12191a5.01518,5.01518,0,0,0-4.27051,2.51758l-.37109.64648L8.1384,16.28792,5.07883,21.62679l1.30078.74609,3.05566-5.331,5.12207,2.98047.375-.65528a5.08219,5.08219,0,0,0,.02637-4.98144c.63867-1.11328,2.46582-4.30078,3.12012-5.44531A3.24686,3.24686,0,0,0,20.65012,7.3221l.37109-.64648ZM17.70676,7.4432l-.47852-.03907-.23633.417c-.05273.09277-3.41211,5.95507-3.55664,6.206l-.23633.41113.27051.39063a3.56894,3.56894,0,0,1,.46582,3.0957l-.16406-.0957L5.09055,12.77913A3.51683,3.51683,0,0,1,7.98019,11.6346l.47852.042,2.627-4.58692c.64551-1.126,1.16895-2.03906,1.17188-2.04492l.22949-.4082-.26465-.38477a1.76831,1.76831,0,0,1-.30469-1.13769l6.916,4.02441A1.72826,1.72826,0,0,1,17.70676,7.4432Z" fill="#171717"/></svg>