<?xml version="1.0" encoding="UTF-8"?><svg id="a" xmlns="http://www.w3.org/2000/svg" viewBox="0 0 24 24"><path d="M11.99964,1.24991C6.06959,1.24991,1.24964,6.06992,1.24964,11.99991s4.81995,10.75,10.75,10.75,10.75-4.82001,10.75-10.75S17.92963,1.24991,11.99964,1.24991Zm0,20c-5.10004,0-9.25-4.14996-9.25-9.25S6.8996,2.74991,11.99964,2.74991s9.25,4.15002,9.25,9.25-4.15002,9.25-9.25,9.25Z" fill="#171717"/><polygon points="18.2096 11.24991 18.2096 12.74991 12.74964 12.74991 12.74964 18.20993 11.24964 18.20993 11.24964 12.74991 5.78962 12.74991 5.78962 11.24991 11.24964 11.24991 11.24964 5.78995 12.74964 5.78995 12.74964 11.24991 18.2096 11.24991" fill="#171717"/></svg>