<?xml version="1.0" encoding="UTF-8"?><svg id="a" xmlns="http://www.w3.org/2000/svg" viewBox="0 0 24 24"><path d="M17.11789,13.8348c.76172,0,1.38184-.61914,1.38184-1.38086s-.62012-1.38184-1.38184-1.38184-1.38086.62012-1.38086,1.38184.61914,1.38086,1.38086,1.38086ZM20.74973,8.8221h-3.46387V1.24984H6.71359v7.57227h-3.46387v11.49902h3.46387v2.42871h10.57227v-2.42871h3.46387v-11.49902ZM8.21359,2.74984h7.57227v6.07227h-7.57227V2.74984ZM8.21359,21.24984v-4.66504h7.57227v4.66504h-7.57227ZM19.24973,18.82113h-1.96387v-2.23633h1.21387v-1.5H5.49973v1.5h1.21387v2.23633h-1.96387v-8.49902h14.5v8.49902ZM8.96359,17.04183h6.07227v1.5h-6.07227v-1.5ZM8.96359,19.29183h6.07227v1.5h-6.07227v-1.5Z"/></svg>