<svg xmlns="http://www.w3.org/2000/svg" viewBox="0 0 13.51855 16.74902"><title>Printer</title>
	<path
		d="M11.64355,8.77051a.875.875,0,1,0-.875-.875A.87606.87606,0,0,0,11.64355,8.77051Zm0-1a.12492.12492,0,0,1,.125.125c0,.13867-.25.13867-.25,0A.12493.12493,0,0,1,11.64355,7.77051Z"
		fill="#171717"/>
	<path
		d="M13.51855,6.02051H10.71484V0H2.78223V6.02051H0v8.667H2.78271V16.749h7.93213V14.6875h2.80371ZM3.53223.75H9.96484V6.02051H3.53223Zm.00048,15.249v-4.2705H9.96484V15.999Zm9.23584-2.06152H10.71484v-2.209h.64844v-.75H2.17578v.75h.60693v2.209H.75v-7.167H12.76855Z"
		fill="#171717"/>
	<rect x="3.98291" y="12.92871" width="5.53125" height="0.75" fill="#171717"/>
	<rect x="3.98291" y="14.31152" width="5.53125" height="0.75" fill="#171717"/>
</svg>
