<svg xmlns="http://www.w3.org/2000/svg" viewBox="0 0 24 24"><title>Printer</title><path d="M16.88428,12.396a.875.875,0,1,0-.875-.875A.87606.87606,0,0,0,16.88428,12.396Zm0-1a.12492.12492,0,0,1,.125.125c0,.13867-.25.13867-.25,0A.12492.12492,0,0,1,16.88428,11.396Z" fill="#171717"/><path d="M18.75928,9.646H15.95557V3.62549H8.023V9.646H5.24072v8.667H8.02344v2.06152h7.93213V18.313h2.80371ZM8.773,4.37549h6.43262V9.646H8.773Zm.00049,15.249V15.354h6.43213v4.2705ZM18.00928,17.563H15.95557V15.354H16.604v-.75H7.4165v.75h.60694v2.209H5.99072V10.396H18.00928Z" fill="#171717"/><rect x="9.22363" y="16.5542" width="5.53125" height="0.75" fill="#171717"/><rect x="9.22363" y="17.93701" width="5.53125" height="0.75" fill="#171717"/></svg>