<svg xmlns="http://www.w3.org/2000/svg" viewBox="0 0 24.75 24.75"><defs><style>.cls-1{fill:none;stroke:#171717;stroke-miterlimit:10;stroke-width:0.75px;}.cls-2{fill:#171717;}</style></defs><title>Printer</title><g id="Ebene_2" data-name="Ebene 2"><g id="Ebene_1-2" data-name="Ebene 1"><rect class="cls-1" x="0.375" y="0.375" width="24" height="24"/><path class="cls-2" d="M17.24261,12.771a.875.875,0,1,0-.875-.875A.87606.87606,0,0,0,17.24261,12.771Zm0-1a.12492.12492,0,0,1,.125.125c0,.13867-.25.13867-.25,0A.12492.12492,0,0,1,17.24261,11.771Z"/><path class="cls-2" d="M19.11761,10.021H16.3139V4.00049H8.38128V10.021H5.59906v8.667H8.38177v2.06152H16.3139V18.688h2.80371ZM9.13128,4.75049H15.5639V10.021H9.13128Zm.00049,15.249V15.729H15.5639v4.2705ZM18.36761,17.938H16.3139V15.729h.64844v-.75H7.77484v.75h.60693v2.209H6.34906V10.771H18.36761Z"/><rect class="cls-2" x="9.58197" y="16.9292" width="5.53125" height="0.75"/><rect class="cls-2" x="9.58197" y="18.31201" width="5.53125" height="0.75"/></g></g></svg>
