<?xml version="1.0" encoding="UTF-8"?><svg id="a" xmlns="http://www.w3.org/2000/svg" viewBox="0 0 24 24"><path d="M1.25024,11.99976c0,5.92773,4.82227,10.75,10.74951,10.75s10.74951-4.82227,10.74951-10.75c0-5.92725-4.82227-10.74951-10.74951-10.74951S1.25024,6.07251,1.25024,11.99976ZM11.99976,21.24976c-5.1001,0-9.24951-4.14941-9.24951-9.25,0-2.28601.83789-4.37701,2.2168-5.99298l13.02588,13.02551c-1.61572,1.37933-3.70703,2.21747-5.99316,2.21747ZM21.24927,11.99976c0,2.27539-.8291,4.35809-2.19678,5.97095L6.02856,4.94727c1.61328-1.36755,3.69629-2.19702,5.97119-2.19702,5.1001,0,9.24951,4.14941,9.24951,9.24951Z"/></svg>