<svg xmlns="http://www.w3.org/2000/svg" viewBox="0 0 24 24"><title>QRCode</title><path d="M8.04932,4.32666H4.47461V7.96729H8.04932Zm-.75,2.89063H5.22461V5.07666H7.29932Z" fill="#171717"/><rect x="5.51221" y="5.39697" width="1.5" height="1.5" fill="#171717"/><path d="M4.416,19.52588h3.5747V15.88526H4.416Zm.75-2.89062h2.0747v2.14062H5.166Z" fill="#171717"/><rect x="5.45361" y="16.95557" width="1.5" height="1.5" fill="#171717"/><path d="M15.95068,4.32666V7.96729h3.57471V4.32666Zm2.82471,2.89063H16.70068V5.07666h2.07471Z" fill="#171717"/><rect x="16.98779" y="5.39697" width="1.5" height="1.5" fill="#171717"/><polygon points="6.866 9.67 5.454 9.67 5.454 11.124 5.454 11.17 5.454 12.577 5.454 12.624 5.454 14.077 6.954 14.077 6.954 12.624 6.954 12.577 6.954 11.17 8.312 11.17 8.366 11.17 9.812 11.17 9.812 9.717 11.239 9.717 11.265 9.717 12.739 9.717 12.739 8.217 11.265 8.217 11.265 6.811 12.708 6.811 12.739 6.811 14.208 6.811 14.208 5.311 12.739 5.311 12.708 5.311 11.265 5.311 11.239 5.311 9.765 5.311 9.765 6.764 9.765 6.811 9.765 8.217 9.765 8.264 9.765 9.67 8.366 9.67 8.312 9.67 6.954 9.67 6.866 9.67" fill="#171717"/><rect x="17.14063" y="9.67041" width="1.5" height="1.5" fill="#171717"/><path d="M17.1875,14.07666v-1.5H15.72412V9.67041H12.73975v1.45313H11.271v1.45312H8.31152v2.95313h1.5V14.07666h2.92823v1.40625H11.271v1.5h1.46875V18.436h2.98437v-1.5H14.23975V14.07666H15.6875v1.45313h1.45313v1.45312h1.5v-1.5H17.1875Zm-2.96338-1.5v1.45313H12.771V11.17041h1.45312Z" fill="#171717"/><rect x="9.76465" y="16.93604" width="1.5" height="1.5" fill="#171717"/></svg>