<svg xmlns="http://www.w3.org/2000/svg" viewBox="0 0 24.75 24.75"><defs><style>.cls-1{fill:none;stroke:#171717;stroke-miterlimit:10;stroke-width:0.75px;}.cls-2{fill:#171717;}</style></defs><title>QRCode</title><g id="Ebene_2" data-name="Ebene 2"><g id="Ebene_1-2" data-name="Ebene 1"><rect class="cls-1" x="0.375" y="0.375" width="24" height="24"/><path class="cls-2" d="M8.40765,4.70166H4.83294V8.34229H8.40765Zm-.75,2.89063H5.58294V5.45166H7.65765Z"/><rect class="cls-2" x="5.87054" y="5.77197" width="1.5" height="1.5"/><path class="cls-2" d="M4.77435,19.90088H8.34906V16.26026H4.77435Zm.75-2.89062H7.59906v2.14062H5.52435Z"/><rect class="cls-2" x="5.81195" y="17.33057" width="1.5" height="1.5"/><path class="cls-2" d="M16.309,4.70166V8.34229h3.5747V4.70166Zm2.8247,2.89063H17.059V5.45166h2.0747Z"/><rect class="cls-2" x="17.34613" y="5.77197" width="1.5" height="1.5"/><polygon class="cls-2" points="7.224 10.045 5.812 10.045 5.812 11.499 5.812 11.545 5.812 12.952 5.812 12.999 5.812 14.452 7.312 14.452 7.312 12.999 7.312 12.952 7.312 11.545 8.67 11.545 8.724 11.545 10.17 11.545 10.17 10.092 11.598 10.092 11.623 10.092 13.098 10.092 13.098 8.592 11.623 8.592 11.623 7.186 13.066 7.186 13.098 7.186 14.566 7.186 14.566 5.686 13.098 5.686 13.066 5.686 11.623 5.686 11.598 5.686 10.123 5.686 10.123 7.139 10.123 7.186 10.123 8.592 10.123 8.639 10.123 10.045 8.724 10.045 8.67 10.045 7.312 10.045 7.224 10.045"/><rect class="cls-2" x="17.49896" y="10.04541" width="1.5" height="1.5"/><path class="cls-2" d="M17.54583,14.45166v-1.5H16.08245V10.04541H13.09808v1.45313H11.62933v1.45312H8.66986v2.95313h1.5V14.45166h2.92822v1.40625H11.62933v1.5h1.46875V18.811h2.98437v-1.5H14.59808V14.45166h1.44775v1.45313H17.499v1.45312h1.5v-1.5H17.54583Zm-2.96338-1.5v1.45313H13.12933V11.54541h1.45312Z"/><rect class="cls-2" x="10.12298" y="17.31104" width="1.5" height="1.5"/></g></g></svg>
