<?xml version="1.0" encoding="UTF-8"?><svg id="a" xmlns="http://www.w3.org/2000/svg" viewBox="0 0 24 24"><path d="M8.15012,2.24984H2.24973v5.90039h5.90039V2.24984ZM6.65012,6.65023h-2.90039v-2.90039h2.90039v2.90039ZM5.94992,5.95003h-1.5v-1.5h1.5v1.5ZM2.24973,21.74984h5.90039v-5.90039H2.24973v5.90039ZM3.74973,17.34945h2.90039v2.90039h-2.90039v-2.90039ZM4.44992,18.04964h1.5v1.5h-1.5v-1.5ZM15.85031,2.24984v5.90039h5.89941V2.24984h-5.89941ZM20.24973,6.65023h-2.89941v-2.90039h2.89941v2.90039ZM19.54953,5.95003h-1.5v-1.5h1.5v1.5ZM7.49973,8.99984h1.5v1.5h-3v3h-1.5v-4.5h3ZM11.99973,11.99984v1.5h-3v1.5h-1.5v-3h3v-1.5h1.5v1.5ZM11.99973,13.49984h1.5v3h1.5v1.5h-3v-1.5h-1.5v-1.5h1.5v-1.5ZM13.49973,8.99984h1.5v4.5h-1.5v-3h-1.5v-1.5h1.5ZM11.99973,7.49984v1.5h-3v-4.5h4.5v1.5h-3v1.5h1.5ZM10.49973,16.49984v1.5h-1.5v-1.5h1.5ZM10.49973,17.99984h1.5v1.5h-1.5v-1.5ZM18.0007,14.99984v1.5h-1.5v-1.5h-1.5v-1.5h3v1.5ZM18.0007,16.49984h1.5v1.5h-1.5v-1.5ZM15.0007,17.99984h1.5v1.5h-1.5v-1.5ZM18.0007,10.49984h1.5v1.5h-1.5v-1.5Z"/></svg>