<svg xmlns="http://www.w3.org/2000/svg" viewBox="0 0 24 24"><title>QrCode</title><path d="M8.15012,2.24984H2.24973V8.15023H8.15012Zm-1.5,4.40039H3.74973V3.74984H6.65012Z" fill="#171717"/><rect x="4.44992" y="4.45003" width="1.5" height="1.5" fill="#171717"/><path d="M2.24973,21.74984H8.15012V15.84945H2.24973Zm1.5-4.40039H6.65012v2.90039H3.74973Z" fill="#171717"/><rect x="4.44992" y="18.04964" width="1.5" height="1.5" fill="#171717"/><path d="M15.85031,2.24984V8.15023h5.89942V2.24984Zm4.39942,4.40039H17.35031V3.74984h2.89942Z" fill="#171717"/><rect x="18.04953" y="4.45003" width="1.5" height="1.5" fill="#171717"/><polygon points="4.5 9 4.5 10.5 4.5 12 4.5 13.5 6 13.5 6 12 6 10.5 7.5 10.5 9 10.5 9 9 7.5 9 4.5 9" fill="#171717"/><polygon points="12 10.5 10.5 10.5 10.5 12 9 12 7.5 12 7.5 13.5 7.5 15 9 15 9 13.5 10.5 13.5 12 13.5 12 12 12 10.5" fill="#171717"/><polygon points="12 15 10.5 15 10.5 16.5 12 16.5 12 18 13.5 18 15 18 15 16.5 13.5 16.5 13.5 15 13.5 13.5 12 13.5 12 15" fill="#171717"/><polygon points="12 9 12 10.5 13.5 10.5 13.5 12 13.5 13.5 15 13.5 15 12 15 10.5 15 9 13.5 9 12 9" fill="#171717"/><polygon points="10.5 7.5 10.5 6 12 6 13.5 6 13.5 4.5 12 4.5 10.5 4.5 9 4.5 9 6 9 7.5 9 9 10.5 9 12 9 12 7.5 10.5 7.5" fill="#171717"/><rect x="8.99973" y="16.49984" width="1.5" height="1.5" fill="#171717"/><rect x="10.49973" y="17.99984" width="1.5" height="1.5" fill="#171717"/><polygon points="18.001 13.5 16.501 13.5 15.001 13.5 15.001 15 16.501 15 16.501 16.5 18.001 16.5 18.001 15 18.001 13.5" fill="#171717"/><rect x="18.0007" y="16.49984" width="1.5" height="1.5" fill="#171717"/><rect x="15.0007" y="17.99984" width="1.5" height="1.5" fill="#171717"/><rect x="18.0007" y="10.49984" width="1.5" height="1.5" fill="#171717"/></svg>