<svg xmlns="http://www.w3.org/2000/svg" viewBox="0 0 15.10938 15.19922"><title>QRCode</title>
	<path d="M3.6333,0H.05859V3.64063H3.6333Zm-.75,2.89063H.80859V.75H2.8833Z" fill="#171717"/>
	<rect x="1.09619" y="1.07031" width="1.5" height="1.5" fill="#171717"/>
	<path d="M0,15.19922H3.57471V11.55859H0Zm.75-2.89063H2.82471v2.14063H.75Z" fill="#171717"/>
	<rect x="1.0376" y="12.62891" width="1.5" height="1.5" fill="#171717"/>
	<path d="M11.53467,0V3.64063h3.57471V0Zm2.82471,2.89063H12.28467V.75h2.07471Z" fill="#171717"/>
	<rect x="12.57178" y="1.07031" width="1.5" height="1.5" fill="#171717"/>
	<polygon
		points="2.45 5.344 1.038 5.344 1.038 6.797 1.038 6.844 1.038 8.25 1.038 8.297 1.038 9.75 2.538 9.75 2.538 8.297 2.538 8.25 2.538 6.844 3.896 6.844 3.95 6.844 5.396 6.844 5.396 5.391 6.823 5.391 6.849 5.391 8.323 5.391 8.323 3.891 6.849 3.891 6.849 2.484 8.292 2.484 8.323 2.484 9.792 2.484 9.792 0.984 8.323 0.984 8.292 0.984 6.849 0.984 6.823 0.984 5.349 0.984 5.349 2.438 5.349 2.484 5.349 3.891 5.349 3.938 5.349 5.344 3.95 5.344 3.896 5.344 2.538 5.344 2.45 5.344"
		fill="#171717"/>
	<rect x="12.72461" y="5.34375" width="1.5" height="1.5" fill="#171717"/>
	<path
		d="M12.77148,9.75V8.25H11.30811V5.34375H8.32373V6.79688H6.855V8.25H3.89551v2.95313h1.5V9.75H8.32373v1.40625H6.855v1.5H8.32373v1.45313h2.98438v-1.5H9.82373V9.75h1.44775v1.45313h1.45313v1.45312h1.5v-1.5H12.77148ZM9.80811,8.25V9.70313H8.355V6.84375H9.80811Z"
		fill="#171717"/>
	<rect x="5.34863" y="12.60938" width="1.5" height="1.5" fill="#171717"/>
</svg>
