<?xml version="1.0" encoding="UTF-8"?><svg id="a" xmlns="http://www.w3.org/2000/svg" viewBox="0 0 24 24"><path d="M12.46164,19.41732c.18555.19434.27734.43164.27734.71289,0,.27344-.0918.50293-.27734.68945-.18457.18555-.43359.2793-.74609.2793-.32129,0-.56934-.09375-.74609-.2793-.17676-.18652-.26562-.41602-.26562-.68945,0-.28125.08887-.51855.26562-.71289s.4248-.29199.74609-.29199c.3125,0,.56152.09766.74609.29199ZM15.4343,4.03255c-.81836-.82617-1.93457-1.23926-3.34863-1.23926-1.38184,0-2.52051.40527-3.41699,1.21582-.89648.80957-1.35254,1.88867-1.36914,3.2373h1.46777c.0166-.96191.32715-1.72461.93164-2.28809s1.39941-.84473,2.38672-.84473c.97852,0,1.74121.29395,2.28809.88086.54688.58789.82031,1.39453.82031,2.4209,0,.50977-.06348.96387-.19141,1.3623s-.30859.76367-.54297,1.09668c-.23438.33203-.75879.89941-1.57227,1.7002-.81445.80078-1.34473,1.49707-1.5918,2.08887-.24609.5918-.37793,1.37207-.39453,2.34082h1.46777c0-1.48633.46484-2.62012,1.39453-3.40137,1.12598-1.03516,1.89062-1.94043,2.29395-2.7168.40234-.77637.60449-1.6084.60449-2.49609,0-1.41309-.40918-2.53223-1.22754-3.35742Z"/></svg>