<svg xmlns="http://www.w3.org/2000/svg" viewBox="0 0 24 24"><title>Random</title><polygon points="19.384 13.562 20.7 15.843 16.895 15.843 13.056 11.999 16.895 8.156 20.701 8.156 19.384 10.437 20.682 11.187 22.866 7.406 20.682 3.625 19.384 4.375 20.701 6.656 16.274 6.656 11.996 10.939 7.718 6.656 2 6.656 2 8.156 7.097 8.156 10.937 11.999 7.097 15.843 2 15.843 2 17.343 7.718 17.343 11.996 13.06 16.274 17.343 20.701 17.343 19.384 19.625 20.682 20.375 22.866 16.594 20.682 12.812 19.384 13.562" fill="#171717"/></svg>