<svg xmlns="http://www.w3.org/2000/svg" viewBox="0 0 24.75 24.75"><defs><style>.cls-1{fill:none;stroke:#171717;stroke-miterlimit:10;stroke-width:0.75px;}.cls-2{fill:#171717;}</style></defs><title>Random</title><g id="Ebene_2" data-name="Ebene 2"><g id="Ebene_1-2" data-name="Ebene 1"><rect class="cls-1" x="0.375" y="0.375" width="24" height="24"/><polygon class="cls-2" points="18.411 13.614 19.625 15.717 16.202 15.717 12.886 12.375 16.202 9.033 19.625 9.033 18.411 11.136 19.06 11.511 20.708 8.657 19.06 5.803 18.411 6.178 19.626 8.283 15.889 8.283 12.358 11.843 8.827 8.283 4.441 8.283 4.441 9.033 8.515 9.033 11.83 12.375 8.515 15.717 4.441 15.717 4.441 16.467 8.827 16.467 12.358 12.907 15.889 16.467 19.625 16.467 18.411 18.572 19.06 18.947 20.708 16.092 19.06 13.239 18.411 13.614"/></g></g></svg>
