<svg xmlns="http://www.w3.org/2000/svg" viewBox="0 0 24 24"><title>Random</title><polygon points="18.052 13.239 19.267 15.342 15.843 15.342 12.528 12 15.843 8.658 19.266 8.658 18.053 10.761 18.702 11.136 20.35 8.282 18.702 5.428 18.052 5.803 19.267 7.908 15.531 7.908 12 11.468 8.469 7.908 4.083 7.908 4.083 8.658 8.156 8.658 11.472 12 8.156 15.342 4.083 15.342 4.083 16.092 8.469 16.092 12 12.532 15.531 16.092 19.267 16.092 18.053 18.197 18.702 18.572 20.35 15.717 18.702 12.864 18.052 13.239" fill="#171717"/></svg>