<svg xmlns="http://www.w3.org/2000/svg" viewBox="0 0 16.2666 13.14355"><title>Random</title>
	<polygon
		points="13.969 7.811 15.184 9.914 11.76 9.914 8.445 6.572 11.76 3.229 15.183 3.229 13.97 5.333 14.619 5.708 16.267 2.854 14.619 0 13.969 0.375 15.184 2.479 11.448 2.479 7.917 6.039 4.386 2.479 0 2.479 0 3.229 4.073 3.229 7.389 6.572 4.073 9.914 0 9.914 0 10.664 4.386 10.664 7.917 7.104 11.448 10.664 15.184 10.664 13.97 12.769 14.619 13.144 16.267 10.289 14.619 7.436 13.969 7.811"
		fill="#171717"/>
</svg>
