<svg xmlns="http://www.w3.org/2000/svg" viewBox="0 0 24.75 24.75"><defs><style>.cls-1{fill:none;stroke:#000;stroke-miterlimit:10;stroke-width:0.75px;}</style></defs><title>Refresh</title><g id="Ebene_2" data-name="Ebene 2"><g id="Ebene_1-2" data-name="Ebene 1"><path d="M12.35184,19.91675a7.553,7.553,0,0,1-7.12091-5.12061l2.42639.00965.00232-.75073-3.29578-.0116L2.70548,16.89112l.64856.37817,1.20324-2.06848a8.29251,8.29251,0,0,0,15.902-1.078l-.7334-.1582A7.57653,7.57653,0,0,1,12.35184,19.91675Z"/><path d="M12.35184,4.83277a7.56913,7.56913,0,0,1,7.118,5.10656L17.1221,9.942l.00153.75073,3.29584-.00537L22.06314,7.8313l-.65051-.37488L20.16812,9.62134A8.2896,8.2896,0,0,0,4.24735,10.614l.7334.1582A7.579,7.579,0,0,1,12.35184,4.83277Z"/><rect class="cls-1" x="0.375" y="0.375" width="24" height="24"/></g></g></svg>
