<svg xmlns="http://www.w3.org/2000/svg" viewBox="0 0 24 24"><title>Refresh</title><path d="M12,19.54175a7.553,7.553,0,0,1-7.12091-5.12061l2.42639.00965.00232-.75073L4.012,13.66846,2.35364,16.51612l.64856.37817,1.20324-2.06848a8.29251,8.29251,0,0,0,15.902-1.078l-.7334-.1582A7.57653,7.57653,0,0,1,12,19.54175Z" fill="#171717"/><path d="M12,4.45777a7.56913,7.56913,0,0,1,7.118,5.10656L16.77026,9.567l.00153.75073,3.29584-.00537L21.7113,7.4563l-.65051-.37488L19.81628,9.24634A8.2896,8.2896,0,0,0,3.89551,10.239l.7334.1582A7.579,7.579,0,0,1,12,4.45777Z" fill="#171717"/></svg>