<svg xmlns="http://www.w3.org/2000/svg" viewBox="0 0 24 24"><title>Refresh</title><path d="M12.00461,2.74984a9.20167,9.20167,0,0,1,8.45227,5.5H18.23019v1.5h3.74414l1.87305-3.24317-1.29883-.75L21.666,7.28548A10.75227,10.75227,0,0,0,1.738,8.80355l1.43164.44531A9.20741,9.20741,0,0,1,12.00461,2.74984Z" fill="#171717"/><path d="M11.99973,21.24984a9.2009,9.2009,0,0,1-8.45228-5.5H5.76926v-1.5H2.02512L.15207,17.493l1.29883.75.88525-1.5332a10.75226,10.75226,0,0,0,19.93018-1.51367l-1.43164-.44532A9.2104,9.2104,0,0,1,11.99973,21.24984Z" fill="#171717"/></svg>