<svg xmlns="http://www.w3.org/2000/svg" viewBox="0 0 19.35767 16.58398"><title>Refresh</title>
	<path
		d="M9.64636,15.834a7.553,7.553,0,0,1-7.12091-5.1206l2.42639.00964.00232-.75073-3.29577-.0116L0,12.80835l.64856.37817L1.85181,11.118a8.29251,8.29251,0,0,0,15.902-1.078l-.73339-.1582A7.57654,7.57654,0,0,1,9.64636,15.834Z"
		fill="#171717"/>
	<path
		d="M9.64636.75a7.56914,7.56914,0,0,1,7.118,5.10657l-2.34777.00268.00152.75074L17.714,6.60461l1.64368-2.85607-.65052-.37488-1.2445,2.16491a8.28961,8.28961,0,0,0-15.92078.99268l.7334.1582A7.57906,7.57906,0,0,1,9.64636.75Z"
		fill="#171717"/>
</svg>
