<?xml version="1.0" encoding="UTF-8"?><svg id="a" xmlns="http://www.w3.org/2000/svg" viewBox="0 0 24 24"><path d="M3.16965,9.24886l-1.43164-.44531C3.1423,4.28499,7.26828,1.24984,12.00461,1.24984c4.17841,0,7.8833,2.37109,9.66144,6.03564l.88251-1.52881,1.29883.75-1.87305,3.24316h-3.74414v-1.5h2.22668c-1.46722-3.32617-4.74133-5.5-8.45227-5.5-4.0752,0-7.62598,2.61133-8.83496,6.49902ZM11.99973,21.24984c-3.71094,0-6.98505-2.17334-8.45227-5.5h2.2218v-1.5h-3.74414l-1.87305,3.24316,1.29883.75.88525-1.5332c1.77722,3.66699,5.4834,6.04004,9.66357,6.04004,4.73535,0,8.86133-3.03516,10.2666-7.55371l-1.43164-.44531c-1.20996,3.88672-4.76074,6.49902-8.83496,6.49902Z"/></svg>