<svg xmlns="http://www.w3.org/2000/svg" viewBox="0 0 24 24"><title>Rss</title><path d="M18.79758,2.24984H5.20285A2.95618,2.95618,0,0,0,2.24973,5.202v13.5957a2.95618,2.95618,0,0,0,2.95312,2.95215H18.79758a2.95535,2.95535,0,0,0,2.95215-2.95215V5.202A2.95535,2.95535,0,0,0,18.79758,2.24984Zm1.45215,16.54785a1.45372,1.45372,0,0,1-1.45215,1.45215H5.20285a1.45454,1.45454,0,0,1-1.45312-1.45215V5.202A1.45454,1.45454,0,0,1,5.20285,3.74984H18.79758A1.45371,1.45371,0,0,1,20.24973,5.202Z" fill="#171717"/><path d="M5.8718,5.0057v1.5A11.63552,11.63552,0,0,1,17.49387,18.12777h1.5A13.13717,13.13717,0,0,0,5.8718,5.0057Z" fill="#171717"/><path d="M5.42844,14.08675a3.1709,3.1709,0,1,0,4.48437,0A3.24836,3.24836,0,0,0,5.42844,14.08675Zm3.42382,3.42383a1.7121,1.7121,0,0,1-2.36328,0,1.6709,1.6709,0,1,1,2.36328,0Z" fill="#171717"/><path d="M6.56418,9.00179H5.8718v1.5h.69238a6.94159,6.94159,0,0,1,6.93359,6.93457v.69141h1.5v-.69141A8.44386,8.44386,0,0,0,6.56418,9.00179Z" fill="#171717"/></svg>