<svg xmlns="http://www.w3.org/2000/svg" viewBox="0 0 24.75 24.75"><defs><style>.cls-1{fill:none;stroke:#171717;stroke-miterlimit:10;stroke-width:0.75px;}.cls-2{fill:#171717;}</style></defs><title>RSS</title><g id="Ebene_2" data-name="Ebene 2"><g id="Ebene_1-2" data-name="Ebene 1"><rect class="cls-1" x="0.375" y="0.375" width="24" height="24"/><path class="cls-2" d="M17.76929,4.84992H6.96851a2.12722,2.12722,0,0,0-2.125,2.125V17.7757a2.12721,2.12721,0,0,0,2.125,2.125H17.76929a2.12722,2.12722,0,0,0,2.125-2.125V6.97492A2.12723,2.12723,0,0,0,17.76929,4.84992Zm1.375,12.92578a1.37671,1.37671,0,0,1-1.375,1.375H6.96851a1.37671,1.37671,0,0,1-1.375-1.375V6.97492a1.37671,1.37671,0,0,1,1.375-1.375H17.76929a1.37671,1.37671,0,0,1,1.375,1.375Z"/><path class="cls-2" d="M7.66382,10.60871H7.13989v.75h.52393a5.71566,5.71566,0,0,1,5.7085,5.709V17.432h.75V17.0677A6.46616,6.46616,0,0,0,7.66382,10.60871Z"/><path class="cls-2" d="M7.13989,7.26106v.75A9.43161,9.43161,0,0,1,16.5603,17.432h.75A10.18212,10.18212,0,0,0,7.13989,7.26106Z"/><path class="cls-2" d="M8.62866,13.6507a2.292,2.292,0,1,0,2.292,2.292A2.29435,2.29435,0,0,0,8.62866,13.6507Zm0,3.834a1.542,1.542,0,1,1,1.542-1.542A1.54322,1.54322,0,0,1,8.62866,17.48469Z"/></g></g></svg>
