<?xml version="1.0" encoding="UTF-8"?><svg id="a" xmlns="http://www.w3.org/2000/svg" viewBox="0 0 24 24"><path d="M18.79758,2.24984H5.20285c-1.62793,0-2.95312,1.32422-2.95312,2.95215v13.5957c0,1.62793,1.3252,2.95215,2.95312,2.95215h13.59473c1.62793,0,2.95215-1.32422,2.95215-2.95215V5.20199c0-1.62793-1.32422-2.95215-2.95215-2.95215ZM20.24973,18.79769c0,.80078-.65137,1.45215-1.45215,1.45215H5.20285c-.80078,0-1.45312-.65137-1.45312-1.45215V5.20199c0-.80078.65234-1.45215,1.45312-1.45215h13.59473c.80078,0,1.45215.65137,1.45215,1.45215v13.5957ZM18.99387,18.12777h-1.5c0-6.4082-5.21387-11.62207-11.62207-11.62207v-1.5c7.23535,0,13.12207,5.88672,13.12207,13.12207ZM5.42844,14.08675c-.59863.59863-.92871,1.39551-.92871,2.24219s.33008,1.64355.92871,2.24219,1.39551.92871,2.24219.92871,1.64355-.33008,2.24219-.92871.92871-1.39551.92871-2.24219-.33008-1.64355-.92871-2.24219c-1.19727-1.19727-3.28711-1.19727-4.48438,0ZM8.85226,17.51058c-.63086.63086-1.73242.63086-2.36328,0-.31543-.31543-.48926-.73535-.48926-1.18164s.17383-.86621.48926-1.18164.73535-.48926,1.18164-.48926.86621.17383,1.18164.48926.48926.73535.48926,1.18164-.17383.86621-.48926,1.18164ZM14.99777,17.43636v.69141h-1.5v-.69141c0-3.82422-3.11035-6.93457-6.93359-6.93457h-.69238v-1.5h.69238c4.65039,0,8.43359,3.78418,8.43359,8.43457Z"/></svg>