<svg xmlns="http://www.w3.org/2000/svg" viewBox="0 0 15.05078 15.05078"><title>RSS</title>
	<path
		d="M12.92578,0H2.125A2.12723,2.12723,0,0,0,0,2.125V12.92578a2.12722,2.12722,0,0,0,2.125,2.125H12.92578a2.12721,2.12721,0,0,0,2.125-2.125V2.125A2.12722,2.12722,0,0,0,12.92578,0Zm1.375,12.92578a1.37671,1.37671,0,0,1-1.375,1.375H2.125a1.37671,1.37671,0,0,1-1.375-1.375V2.125A1.37671,1.37671,0,0,1,2.125.75H12.92578a1.37671,1.37671,0,0,1,1.375,1.375Z"
		fill="#171717"/>
	<path d="M2.82031,5.75879H2.29639v.75h.52392a5.71566,5.71566,0,0,1,5.7085,5.709V12.582h.75v-.36426A6.46616,6.46616,0,0,0,2.82031,5.75879Z" fill="#171717"/>
	<path d="M2.29639,2.41113v.75A9.43163,9.43163,0,0,1,11.7168,12.582h.75A10.18213,10.18213,0,0,0,2.29639,2.41113Z" fill="#171717"/>
	<path
		d="M3.78516,8.80078a2.292,2.292,0,1,0,2.292,2.292A2.29435,2.29435,0,0,0,3.78516,8.80078Zm0,3.834a1.542,1.542,0,1,1,1.542-1.542A1.54322,1.54322,0,0,1,3.78516,12.63477Z"
		fill="#171717"/>
</svg>
