<svg xmlns="http://www.w3.org/2000/svg" viewBox="0 0 24 24"><title>RSS</title><path d="M17.38379,4.53467H6.583a2.12721,2.12721,0,0,0-2.125,2.125V17.46045a2.12721,2.12721,0,0,0,2.125,2.125H17.38379a2.12722,2.12722,0,0,0,2.125-2.125V6.65967A2.12722,2.12722,0,0,0,17.38379,4.53467Zm1.375,12.92578a1.37671,1.37671,0,0,1-1.375,1.375H6.583a1.37671,1.37671,0,0,1-1.375-1.375V6.65967a1.37671,1.37671,0,0,1,1.375-1.375H17.38379a1.37671,1.37671,0,0,1,1.375,1.375Z" fill="#171717"/><path d="M7.27832,10.29346H6.75439v.75h.52393a5.71566,5.71566,0,0,1,5.7085,5.709v.36426h.75v-.36426A6.46616,6.46616,0,0,0,7.27832,10.29346Z" fill="#171717"/><path d="M6.75439,6.9458v.75a9.43162,9.43162,0,0,1,9.42041,9.4209h.75A10.18213,10.18213,0,0,0,6.75439,6.9458Z" fill="#171717"/><path d="M8.24316,13.33545a2.292,2.292,0,1,0,2.292,2.292A2.29434,2.29434,0,0,0,8.24316,13.33545Zm0,3.834a1.542,1.542,0,1,1,1.542-1.542A1.54322,1.54322,0,0,1,8.24316,17.16944Z" fill="#171717"/></svg>