<?xml version="1.0" encoding="UTF-8"?><svg id="a" xmlns="http://www.w3.org/2000/svg" viewBox="0 0 24 24"><path d="M12,1.25049C6.07227,1.25049,1.25,6.07275,1.25,11.99951c0,5.92773,4.82227,10.75,10.75,10.75s10.75-4.82227,10.75-10.75c0-5.92676-4.82227-10.74902-10.75-10.74902ZM12,21.24951c-5.10059,0-9.25-4.14941-9.25-9.25C2.75,6.8999,6.89941,2.75049,12,2.75049s9.25,4.14941,9.25,9.24902c0,5.10059-4.14941,9.25-9.25,9.25ZM16.90039,18.00049h-1.5c0-1.875-1.52539-3.40039-3.40039-3.40039s-3.40039,1.52539-3.40039,3.40039h-1.5c0-2.70215,2.19824-4.90039,4.90039-4.90039s4.90039,2.19824,4.90039,4.90039ZM8.1651,9.74072c-.86981,0-1.57495-.70508-1.57495-1.5752s.70514-1.5752,1.57495-1.5752c.86987,0,1.57501.70508,1.57501,1.5752s-.70514,1.5752-1.57501,1.5752ZM17.40192,8.16553c0,.87012-.70514,1.5752-1.57495,1.5752-.86987,0-1.57501-.70508-1.57501-1.5752s.70514-1.5752,1.57501-1.5752c.86981,0,1.57495.70508,1.57495,1.5752Z"/></svg>