<svg xmlns="http://www.w3.org/2000/svg" viewBox="0 0 24.75 24.75"><defs><style>.cls-1{fill:none;stroke:#171717;stroke-miterlimit:10;stroke-width:0.75px;}.cls-2{fill:#171717;}</style></defs><title>Save</title><g id="Ebene_2" data-name="Ebene 2"><g id="Ebene_1-2" data-name="Ebene 1"><rect class="cls-1" x="0.375" y="0.375" width="24" height="24"/><path class="cls-2" d="M16.90039,4.70166H4.833V19.90088H19.88379V8.28076Zm-2.81592.75V9.29834h-6.25V5.45166Zm5.04932,13.69922H5.583V5.45166H7.08447v4.59668h7.75V5.45166h1.71436l2.585,3.10059Z"/><path class="cls-2" d="M12.3584,12.30713a2.292,2.292,0,1,0,2.292,2.292A2.29476,2.29476,0,0,0,12.3584,12.30713Zm0,3.834a1.542,1.542,0,1,1,1.542-1.542A1.54363,1.54363,0,0,1,12.3584,16.14112Z"/><rect class="cls-2" x="11.8999" y="6.06836" width="1.53241" height="2.65479"/></g></g></svg>
