<?xml version="1.0" encoding="UTF-8"?><svg id="a" xmlns="http://www.w3.org/2000/svg" viewBox="0 0 24 24"><path d="M5.27003,17.94837h13.5V7.44837h-3.24316l-1.62598-1.89453h-3.74316l-1.625,1.89453h-3.2627v10.5ZM6.77003,8.94837h2.45215l1.625-1.89453h2.36426l1.62598,1.89453h2.43262v7.5H6.77003v-7.5ZM12.02003,9.33606c-1.6543,0-3,1.3457-3,3s1.3457,3,3,3,3-1.3457,3-3-1.3457-3-3-3ZM12.02003,13.83606c-.82715,0-1.5-.67285-1.5-1.5s.67285-1.5,1.5-1.5,1.5.67285,1.5,1.5-.67285,1.5-1.5,1.5ZM21.25049,16.00012h1.5v6.75h-6.75v-1.5h5.25v-5.25ZM2.75049,21.25012h5.25v1.5H1.25049v-6.75h1.5v5.25ZM2.75049,8.00012h-1.5V1.25012h6.75v1.5H2.75049v5.25ZM22.75049,1.25012v6.75h-1.5V2.75012h-5.25v-1.5h6.75Z"/></svg>