<?xml version="1.0" encoding="UTF-8"?><svg id="a" xmlns="http://www.w3.org/2000/svg" viewBox="0 0 24 24"><path d="M7.6882,5.25008h6.96973v1.5h-6.96973v-1.5ZM7.6882,9.75008h6.96973v-1.5h-6.96973v1.5ZM7.6882,12.75008h6.96973v-1.5h-6.96973v1.5ZM7.6882,15.75008h6.96973v-1.5h-6.96973v1.5ZM21.74973,5.42098v1.01953h-1.5v-1.01953c0-.9209-.75-1.6709-1.6709-1.6709s-1.6709.75-1.6709,1.6709v13.1582h.00293c0,1.74805-1.42285,3.1709-3.1709,3.1709H5.42158c-1.749,0-3.17185-1.42285-3.17185-3.1709v-1.58984h3.18848V5.42098c0-1.74805,1.42285-3.1709,3.1709-3.1709h9.96973c1.74805,0,3.1709,1.42285,3.1709,3.1709ZM11.04562,20.25008c-.30176-.48535-.47656-1.05859-.47656-1.6709v-.08984H3.74973v.08984c0,.9209.75,1.6709,1.67185,1.6709h5.62404ZM15.40793,18.57918V5.42098c0-.61475.18353-1.18433.48767-1.6709h-7.2865c-.9209,0-1.6709.75-1.6709,1.6709v11.56836h5.13086v1.58984c0,.9209.75,1.6709,1.6709,1.6709s1.6709-.75,1.6709-1.6709h-.00293Z"/></svg>