<svg xmlns="http://www.w3.org/2000/svg" viewBox="0 0 24 24"><title>Scroll</title><rect x="7.6882" y="5.25008" width="6.96973" height="1.5" fill="#171717"/><rect x="7.6882" y="8.25008" width="6.96973" height="1.5" fill="#171717"/><rect x="7.6882" y="11.25008" width="6.96973" height="1.5" fill="#171717"/><rect x="7.6882" y="14.25008" width="6.96973" height="1.5" fill="#171717"/><path d="M18.57883,2.25008H8.6091A3.175,3.175,0,0,0,5.4382,5.421V16.98934H2.24973v1.58984a3.17519,3.17519,0,0,0,3.17185,3.1709H13.74a3.175,3.175,0,0,0,3.1709-3.1709h-.00293V5.421a1.6709,1.6709,0,1,1,3.3418,0V6.44051h1.5V5.421A3.175,3.175,0,0,0,18.57883,2.25008Zm-13.15725,18a1.67356,1.67356,0,0,1-1.67185-1.6709v-.08984h6.81933v.08984a3.1565,3.1565,0,0,0,.47656,1.6709Zm9.98928-1.6709a1.6709,1.6709,0,1,1-3.3418,0V16.98934H6.9382V5.421a1.67335,1.67335,0,0,1,1.6709-1.6709h7.2865a3.14089,3.14089,0,0,0-.48767,1.6709v13.1582Z" fill="#171717"/></svg>