<svg xmlns="http://www.w3.org/2000/svg" viewBox="0 0 15.05127 15.19922"><title>Scroll</title>
	<path
		d="M12.75928,0H4.86621a2.29476,2.29476,0,0,0-2.292,2.292v9.5752H0v1.04a2.29476,2.29476,0,0,0,2.292,2.292H8.92578a2.29476,2.29476,0,0,0,2.292-2.292V2.292a1.54175,1.54175,0,1,1,3.0835,0v.80762h.75V2.292A2.29476,2.29476,0,0,0,12.75928,0ZM2.292,14.44922a1.54425,1.54425,0,0,1-1.542-1.542v-.29H6.63379v.29a2.2838,2.2838,0,0,0,.59766,1.542ZM10.46777,2.292V12.90723a1.542,1.542,0,0,1-3.084,0v-1.04H3.32422V2.292A1.54425,1.54425,0,0,1,4.86621.75h6.19922A2.28385,2.28385,0,0,0,10.46777,2.292Z"
		fill="#171717"/>
	<rect x="4.07422" y="2.72461" width="5.64307" height="0.75" fill="#171717"/>
	<rect x="4.07422" y="5.00977" width="5.64307" height="0.75" fill="#171717"/>
	<rect x="4.07422" y="7.2959" width="5.64307" height="0.75" fill="#171717"/>
	<rect x="4.07422" y="9.58203" width="5.64307" height="0.75" fill="#171717"/>
</svg>
