<svg xmlns="http://www.w3.org/2000/svg" viewBox="0 0 24 24"><title>Scroll</title><path d="M17.23362,4.32666H9.34055a2.29476,2.29476,0,0,0-2.292,2.292v9.5752H4.47434v1.04a2.29476,2.29476,0,0,0,2.292,2.292h6.63379a2.29476,2.29476,0,0,0,2.292-2.292V6.61865a1.54175,1.54175,0,1,1,3.0835,0v.80762h.75V6.61865A2.29476,2.29476,0,0,0,17.23362,4.32666ZM6.76633,18.77588a1.54425,1.54425,0,0,1-1.542-1.542v-.29h5.88379v.29a2.28384,2.28384,0,0,0,.59765,1.542ZM14.94211,6.61865V17.23389a1.542,1.542,0,0,1-3.084,0v-1.04H7.79856V6.61865a1.54425,1.54425,0,0,1,1.542-1.542h6.19922A2.2838,2.2838,0,0,0,14.94211,6.61865Z" fill="#171717"/><rect x="8.54856" y="7.05127" width="5.64307" height="0.75" fill="#171717"/><rect x="8.54856" y="9.33643" width="5.64307" height="0.75" fill="#171717"/><rect x="8.54856" y="11.62256" width="5.64307" height="0.75" fill="#171717"/><rect x="8.54856" y="13.90869" width="5.64307" height="0.75" fill="#171717"/></svg>