<?xml version="1.0" encoding="UTF-8"?><svg id="a" xmlns="http://www.w3.org/2000/svg" viewBox="0 0 24 24"><path d="M21.53,20.46981l-7.89716-7.89819c.99512-1.23242,1.53778-2.75488,1.53778-4.36157,0-1.8584-.72363-3.60645-2.03809-4.9209s-3.0625-2.03906-4.92188-2.03906-3.60742.72461-4.92188,2.03906-2.03906,3.0625-2.03906,4.9209c0,1.85938.72461,3.60742,2.03906,4.92188s3.0625,2.03906,4.92188,2.03906c1.60681,0,3.12903-.54346,4.36163-1.53882l7.89716,7.89819,1.06055-1.06055ZM4.34933,12.07137c-1.03125-1.03125-1.59961-2.40234-1.59961-3.86133,0-1.45801.56836-2.8291,1.59961-3.86035s2.40234-1.59961,3.86133-1.59961c1.45801,0,2.83008.56836,3.86133,1.59961,2.12891,2.12891,2.12891,5.59277,0,7.72168-1.03125,1.03125-2.40332,1.59961-3.86133,1.59961-1.45898,0-2.83008-.56836-3.86133-1.59961Z"/></svg>