<svg xmlns="http://www.w3.org/2000/svg" viewBox="0 0 24 24"><title>Server</title><path d="M20.291,9.938H3.708v4.125H20.291Zm-.74952,3.375H4.458V10.688H19.5415Z" fill="#171717"/><path d="M18.07538,12.66406a.66456.66456,0,1,0-.69324-.66394A.67954.67954,0,0,0,18.07538,12.66406Zm0-.78881a.128.128,0,0,1,.13037.12487c0,.13831-.26111.13684-.26111,0A.1281.1281,0,0,1,18.07538,11.87525Z" fill="#171717"/><path d="M20.291,5.24072H3.708v4.125H20.291Zm-.74952,3.375H4.458v-2.625H19.5415Z" fill="#171717"/><path d="M18.07538,7.96729a.66462.66462,0,1,0-.69324-.66407A.67957.67957,0,0,0,18.07538,7.96729Zm0-.78894a.128.128,0,0,1,.13037.12487c0,.13831-.26111.137-.26111,0A.1281.1281,0,0,1,18.07538,7.17835Z" fill="#171717"/><path d="M3.71875,14.63428v4.125h16.583v-4.125Zm15.8335,3.375H4.46875v-2.625h15.0835Z" fill="#171717"/><path d="M18.08606,17.36084a.66456.66456,0,1,0-.69324-.66394A.67954.67954,0,0,0,18.08606,17.36084Zm0-.78882a.128.128,0,0,1,.13037.12488c0,.13831-.26111.13684-.26111,0A.12811.12811,0,0,1,18.08606,16.572Z" fill="#171717"/></svg>