<?xml version="1.0" encoding="UTF-8"?><svg id="a" xmlns="http://www.w3.org/2000/svg" viewBox="0 0 24 24"><path d="M1.2507,3.25008v5.2998h21.49902V3.25008H1.2507ZM21.24973,7.04989H2.7507v-2.2998h18.49902v2.2998ZM1.2507,20.75008h21.49902v-5.2998H1.2507v5.2998ZM2.7507,16.95028h18.49902v2.2998H2.7507v-2.2998ZM1.2507,14.65047h21.49902v-5.30078H1.2507v5.30078ZM2.7507,10.84969h18.49902v2.30078H2.7507v-2.30078ZM19.12509,5.89998c0-.41431.33582-.75.75-.75.41425,0,.75.33569.75.75s-.33575.75-.75.75c-.41418,0-.75-.33569-.75-.75ZM20.62509,12.00008c0,.41406-.33575.75-.75.75-.41418,0-.75-.33594-.75-.75,0-.41431.33582-.75.75-.75.41425,0,.75.33569.75.75ZM20.62509,18.09993c0,.41431-.33575.75-.75.75-.41418,0-.75-.33569-.75-.75,0-.41406.33582-.75.75-.75.41425,0,.75.33594.75.75Z"/></svg>