<?xml version="1.0" encoding="UTF-8"?><svg id="a" xmlns="http://www.w3.org/2000/svg" viewBox="0 0 24 24"><path d="M2.24997,3.00106v8.25h19.5V3.00106H2.24997ZM20.24997,9.75106H3.74997v-5.25h16.5v5.25ZM2.24997,21.00399h19.5v-8.25H2.24997v8.25ZM3.74997,14.25399h16.5v5.25H3.74997v-5.25ZM5.37234,7.1263c0-.83154.672-1.50684,1.49927-1.50684.82733,0,1.50073.67529,1.50073,1.50684,0,.8313-.6734,1.50659-1.50073,1.50659-.82727,0-1.49927-.67529-1.49927-1.50659ZM8.37234,16.8785c0,.83154-.6734,1.50684-1.50073,1.50684-.82727,0-1.49927-.67529-1.49927-1.50684,0-.8313.672-1.50684,1.49927-1.50684.82733,0,1.50073.67554,1.50073,1.50684Z"/></svg>