<svg xmlns="http://www.w3.org/2000/svg" viewBox="0 0 16.59375 13.51855"><title>Server</title>
	<path d="M16.583,4.69727H0v4.125H16.583Zm-.74951,3.375H.75v-2.625H15.8335Z" fill="#171717"/>
	<path
		d="M14.36737,7.42334a.66456.66456,0,1,0-.69324-.66394A.67954.67954,0,0,0,14.36737,7.42334Zm0-.78882a.128.128,0,0,1,.13037.12488c0,.13831-.26111.13684-.26111,0A.12811.12811,0,0,1,14.36737,6.63452Z"
		fill="#171717"/>
	<path d="M16.583,0H0V4.125H16.583ZM15.8335,3.375H.75V.75H15.8335Z" fill="#171717"/>
	<path
		d="M14.36737,2.72656a.67956.67956,0,0,0,.69287-.66406.69369.69369,0,0,0-1.38611,0A.67966.67966,0,0,0,14.36737,2.72656Zm0-.78894a.128.128,0,0,1,.13037.12488c0,.13831-.26111.137-.26111,0A.12811.12811,0,0,1,14.36737,1.93762Z"
		fill="#171717"/>
	<path d="M.01074,9.39355v4.125h16.583v-4.125Zm15.8335,3.375H.76074v-2.625h15.0835Z" fill="#171717"/>
	<path
		d="M14.37805,12.12012a.66456.66456,0,1,0-.69324-.66394A.67954.67954,0,0,0,14.37805,12.12012Zm0-.78882a.128.128,0,0,1,.13037.12488c0,.1383-.26111.13684-.26111,0A.12811.12811,0,0,1,14.37805,11.3313Z"
		fill="#171717"/>
</svg>
