<svg xmlns="http://www.w3.org/2000/svg" viewBox="0 0 24.75 24.75"><defs><style>.cls-1{fill:none;stroke:#171717;stroke-miterlimit:10;stroke-width:0.75px;}</style></defs><title>Server</title><g id="Ebene_2" data-name="Ebene 2"><g id="Ebene_1-2" data-name="Ebene 1"><path d="M20.65552,10.336H4.07251v4.125h16.583ZM19.906,13.711H4.82251V11.086H19.906Z"/><path d="M18.43988,13.06208a.66456.66456,0,1,0-.69324-.66394A.67954.67954,0,0,0,18.43988,13.06208Zm0-.78882a.128.128,0,0,1,.13037.12488c0,.1383-.26111.13684-.26111,0A.1281.1281,0,0,1,18.43988,12.27326Z"/><path d="M20.65552,5.63874H4.07251v4.125h16.583Zm-.74952,3.375H4.82251v-2.625H19.906Z"/><path d="M18.43988,8.3653a.66462.66462,0,1,0-.69324-.66406A.67957.67957,0,0,0,18.43988,8.3653Zm0-.78894a.128.128,0,0,1,.13037.12488c0,.1383-.26111.137-.26111,0A.1281.1281,0,0,1,18.43988,7.57636Z"/><path d="M4.08325,15.03229v4.125h16.583v-4.125Zm15.8335,3.375H4.83325v-2.625h15.0835Z"/><path d="M18.45056,17.75886a.66456.66456,0,1,0-.69324-.66394A.67954.67954,0,0,0,18.45056,17.75886Zm0-.78882a.128.128,0,0,1,.13037.12488c0,.1383-.26111.13684-.26111,0A.12811.12811,0,0,1,18.45056,16.97Z"/><rect class="cls-1" x="0.375" y="0.375" width="24" height="24"/></g></g></svg>
