<?xml version="1.0" encoding="UTF-8"?><svg id="a" xmlns="http://www.w3.org/2000/svg" viewBox="0 0 24 24"><path d="M22.76611,9.14795l-2.09375,1.72656c.10254.76855.10254,1.48047,0,2.25098l2.09375,1.72656-2.91406,5.0459-2.54102-.9502c-.5957.45605-1.24902.83203-1.9502,1.12305l-.44824,2.67871h-5.82617l-.44824-2.67871c-.70117-.29102-1.35449-.66699-1.9502-1.12305l-2.54102.9502-2.91309-5.0459,2.09277-1.72656c-.10352-.77051-.10352-1.48242,0-2.25098l-2.09277-1.72656,2.91309-5.0459,2.54102.9502c.5957-.45605,1.24902-.83203,1.9502-1.12305l.44824-2.67871h5.82617l.44824,2.67871c.70117.29102,1.35449.66699,1.9502,1.12305l2.54102-.9502,2.91406,5.0459ZM19.18799,18.04834l1.64453-2.84668-1.78418-1.4707.07812-.43262c.16699-.91504.16602-1.68359,0-2.59668l-.07812-.43262,1.78418-1.4707-1.64453-2.84668-2.16504.81055-.33594-.28613c-.66016-.5625-1.41699-.99805-2.24805-1.2959l-.41406-.14844-.38184-2.28125h-3.28711l-.38184,2.28125-.41406.14844c-.83203.29785-1.58789.73438-2.24805,1.2959l-.33594.28613-2.16504-.81055-1.64355,2.84668,1.7832,1.4707-.07812.43262c-.16504.91309-.16699,1.68164,0,2.59668l.07812.43262-1.7832,1.4707,1.64355,2.84668,2.16504-.81055.33594.28613c.66016.56152,1.41602.99805,2.24805,1.2959l.41406.14844.38184,2.28125h3.28711l.38184-2.28125.41406-.14844c.83105-.29785,1.58789-.7334,2.24805-1.2959l.33594-.28613,2.16504.81055ZM16.8999,12.00049c0,2.70117-2.19824,4.89941-4.90039,4.89941-2.70117,0-4.89941-2.19824-4.89941-4.89941,0-2.70215,2.19824-4.90039,4.89941-4.90039,2.70215,0,4.90039,2.19824,4.90039,4.90039ZM8.6001,12.00049c0,1.87402,1.52539,3.39941,3.39941,3.39941,1.875,0,3.40039-1.52539,3.40039-3.39941,0-1.875-1.52539-3.40039-3.40039-3.40039-1.87402,0-3.39941,1.52539-3.39941,3.40039Z"/></svg>