<svg xmlns="http://www.w3.org/2000/svg" viewBox="0 0 24.75 24.75"><defs><style>.cls-1{fill:none;stroke:#171717;stroke-miterlimit:10;stroke-width:0.75px;}.cls-2{fill:#171717;}</style></defs><title>Share</title><g id="Ebene_2" data-name="Ebene 2"><g id="Ebene_1-2" data-name="Ebene 1"><rect class="cls-1" x="0.375" y="0.375" width="24" height="24"/><path class="cls-2" d="M17.59222,15.3169a2.28292,2.28292,0,0,0-1.82794.92419L9.39733,12.5647c.00531-.06348.01911-.12451.01911-.18921,0-.0625-.01349-.12134-.01843-.18262l6.45361-3.72558a2.27525,2.27525,0,1,0-.38953-.64209L9.20922,11.43494a2.29165,2.29165,0,1,0-.00293,1.88635l6.2146,3.58838a2.26178,2.26178,0,0,0-.12066.69922,2.29175,2.29175,0,1,0,2.292-2.292Zm0-9.86524a1.542,1.542,0,1,1-1.542,1.542A1.54321,1.54321,0,0,1,17.59222,5.45166ZM7.12445,13.91651a1.54151,1.54151,0,1,1,1.542-1.541A1.543,1.543,0,0,1,7.12445,13.91651Zm10.46777,5.23437a1.542,1.542,0,1,1,1.5415-1.542A1.54363,1.54363,0,0,1,17.59222,19.15088Z"/></g></g></svg>
