<svg xmlns="http://www.w3.org/2000/svg" viewBox="0 0 24 24"><title>Share</title><path d="M17.23389,14.9419a2.28294,2.28294,0,0,0-1.82795.92419L9.039,12.1897c.00531-.06348.01911-.12451.01911-.18921,0-.0625-.01349-.12134-.01844-.18262l6.45362-3.72558a2.27533,2.27533,0,1,0-.38953-.64209L8.85089,11.05994A2.29165,2.29165,0,1,0,8.848,12.94629l6.2146,3.58838a2.26149,2.26149,0,0,0-.12067.69922,2.29175,2.29175,0,1,0,2.292-2.292Zm0-9.86524a1.542,1.542,0,1,1-1.542,1.542A1.54322,1.54322,0,0,1,17.23389,5.07666ZM6.76611,13.54151a1.54151,1.54151,0,1,1,1.542-1.541A1.543,1.543,0,0,1,6.76611,13.54151Zm10.46778,5.23437a1.542,1.542,0,1,1,1.5415-1.542A1.54364,1.54364,0,0,1,17.23389,18.77588Z" fill="#171717"/></svg>