<svg xmlns="http://www.w3.org/2000/svg" viewBox="0 0 24 24"><title>Share</title><path d="M20.16379,15.83211a3.146,3.146,0,0,0-3.87042.56128L8.68411,12.00008l7.60926-4.39331a3.14437,3.14437,0,0,0,1.46417.87769,3.19082,3.19082,0,0,0,.82617.10937,3.19024,3.19024,0,1,0-3.04022-2.28589L8.218,10.53743a3.17095,3.17095,0,1,0,0,2.9253l7.3255,4.22949a3.167,3.167,0,1,0,4.6203-1.86011ZM16.96457,4.98836a1.67094,1.67094,0,1,1,.167,1.26856A1.65864,1.65864,0,0,1,16.96457,4.98836ZM5.42158,13.671a1.6709,1.6709,0,1,1,1.67092-1.6709A1.67356,1.67356,0,0,1,5.42158,13.671Zm14.60451,5.74316a1.67286,1.67286,0,1,1-.6123-2.2832A1.66055,1.66055,0,0,1,20.02609,19.41414Z" fill="#171717"/></svg>