<?xml version="1.0" encoding="UTF-8"?><svg id="a" xmlns="http://www.w3.org/2000/svg" viewBox="0 0 24 24"><path d="M20.16379,15.83211c-.73438-.42383-1.58789-.53418-2.40625-.31641-.56989.15308-1.0675.46143-1.46417.87769l-7.60925-4.39331,7.60925-4.39331c.39661.41626.89429.72461,1.46417.87769.27344.07324.55078.10938.82617.10938.54883,0,1.0918-.14355,1.58008-.42578,1.51367-.87402,2.03516-2.81738,1.16113-4.33203-.875-1.51562-2.81738-2.03711-4.33203-1.16016-.7334.42285-1.25879,1.10645-1.47754,1.9248-.15234.56982-.13409,1.15527.02814,1.70728l-7.3255,4.22949c-.53101-1.01025-1.57855-1.70825-2.79641-1.70825-1.749,0-3.17185,1.42285-3.17185,3.1709s1.42285,3.1709,3.17185,3.1709c1.21785,0,2.2654-.69824,2.79641-1.70825l7.3255,4.22949c-.16223.55176-.18048,1.13721-.02814,1.70728.21875.81836.74414,1.50195,1.47754,1.9248.49805.28809,1.04297.4248,1.58105.4248,1.09668,0,2.16406-.56934,2.75098-1.58496.87402-1.51465.35254-3.45801-1.16113-4.33203ZM16.96457,4.98836c.11523-.43066.3916-.79004.77832-1.01367.25781-.14844.54395-.22461.83301-.22461.14551,0,.29102.01855.43555.05762.43066.11523.79102.3916,1.01465.77832.45996.79785.18555,1.82227-.6123,2.2832-.38477.22266-.83594.2832-1.26758.16602-.43164-.11523-.79102-.3916-1.01465-.77832s-.28223-.83691-.16699-1.26855ZM5.42158,13.67098c-.92185,0-1.67185-.75-1.67185-1.6709s.75-1.6709,1.67185-1.6709c.92092,0,1.67092.75,1.67092,1.6709s-.75,1.6709-1.67092,1.6709ZM20.02609,19.41414c-.22363.38672-.58398.66309-1.01465.77832-.43457.11719-.88184.05566-1.26855-.16699-.38672-.22363-.66309-.58301-.77832-1.01367-.11523-.43164-.05664-.88184.16699-1.26855s.58301-.66309,1.01465-.77832c.14355-.03906.29004-.05859.43555-.05859.28906,0,.57422.07617.83203.22461.79785.46094,1.07227,1.48535.6123,2.2832Z"/></svg>