<svg xmlns="http://www.w3.org/2000/svg" viewBox="0 0 15.05078 15.19922"><title>Share</title>
	<path
		d="M12.75928,10.61523a2.28292,2.28292,0,0,0-1.82794.9242L4.56439,7.863c.00531-.06348.01911-.12451.01911-.18921,0-.0625-.01349-.12134-.01844-.18262l6.45362-3.72558A2.27921,2.27921,0,1,0,10.46729,2.292a2.27173,2.27173,0,0,0,.16186.83155L4.37628,6.73328a2.29164,2.29164,0,1,0-.00293,1.88635L10.588,12.208a2.26178,2.26178,0,0,0-.12066.69922,2.29175,2.29175,0,1,0,2.292-2.292Zm0-9.86523a1.542,1.542,0,1,1-1.542,1.542A1.54321,1.54321,0,0,1,12.75928.75ZM2.2915,9.21484a1.5415,1.5415,0,1,1,1.542-1.541A1.543,1.543,0,0,1,2.2915,9.21484Zm10.46778,5.23438a1.542,1.542,0,1,1,1.5415-1.542A1.54363,1.54363,0,0,1,12.75928,14.44922Z"
		fill="#171717"/>
</svg>
