<?xml version="1.0" encoding="UTF-8"?><svg id="a" xmlns="http://www.w3.org/2000/svg" viewBox="0 0 24 24"><path d="M12,1.02662L3.25,4.80494v6.41504c0,2.65918.81152,5.1084,2.41309,7.2793,1.60156,2.1748,3.66211,3.64648,6.12402,4.37402l.21289.06348.21289-.06348c2.46094-.72754,4.52148-2.19922,6.12402-4.37402,1.60156-2.17285,2.41309-4.62207,2.41309-7.2793v-6.41504L12,1.02662ZM19.25,11.21998c0,2.33008-.71387,4.48047-2.12012,6.38867-1.3584,1.84277-3.08301,3.10742-5.12988,3.76172-2.04785-.6543-3.77246-1.91895-5.12988-3.76172-1.40723-1.90723-2.12012-4.05664-2.12012-6.38867v-5.42871l7.25-3.12988,7.25,3.12988v5.42871ZM9.3252,9.33034v1.04297h-1.0752v5.57031h7.5v-5.57031h-1.0752v-1.04297c0-1.45508-1.2002-2.63965-2.6748-2.63965s-2.6748,1.18457-2.6748,2.63965ZM14.25,11.8733v2.57031h-4.5v-2.57031h4.5ZM13.1748,9.33034v1.04297h-2.34961v-1.04297c0-.62793.52734-1.13965,1.1748-1.13965s1.1748.51172,1.1748,1.13965Z"/></svg>