<?xml version="1.0" encoding="UTF-8"?><svg id="a" xmlns="http://www.w3.org/2000/svg" viewBox="0 0 24 24"><path d="M12.00025,1.02701L3.25025,4.80533v6.41504c0,2.65918.81152,5.1084,2.41309,7.2793,1.60254,2.17578,3.66406,3.64746,6.12402,4.375l.21289.0625.21289-.0625c2.45898-.72754,4.52051-2.19922,6.12402-4.375,1.60156-2.17285,2.41309-4.62207,2.41309-7.2793v-6.41504L12.00025,1.02701ZM19.25025,11.22037c0,2.33008-.71387,4.48047-2.12012,6.38867-1.35938,1.84375-3.08398,3.1084-5.12988,3.76172-2.04688-.65332-3.77148-1.91797-5.12988-3.76172-1.40723-1.90723-2.12012-4.05664-2.12012-6.38867v-5.42871l7.25-3.12988,7.25,3.12988v5.42871ZM10.53834,14.34341l5.96387-5.96387,1.06055,1.06055-7.02441,7.02441-3.65039-3.65137,1.06055-1.06055,2.58984,2.59082Z"/></svg>