<svg xmlns="http://www.w3.org/2000/svg" viewBox="0 0 24.75 24.75"><defs><style>.cls-1{fill:none;stroke:#171717;stroke-miterlimit:10;stroke-width:0.75px;}.cls-2{fill:#171717;}</style></defs><title>ShoppingCart</title><g id="Ebene_2" data-name="Ebene 2"><g id="Ebene_1-2" data-name="Ebene 1"><rect class="cls-1" x="0.375" y="0.375" width="24" height="24"/><path class="cls-2" d="M7.76642,16.76811a.92383.92383,0,1,0,.92383.92382A.92482.92482,0,0,0,7.76642,16.76811Zm-.17432.92382a.17408.17408,0,0,1,.34815,0C7.94025,17.88432,7.5921,17.88236,7.5921,17.69193Z"/><path class="cls-2" d="M16.92834,16.76811a.92383.92383,0,1,0,.92383.92382A.92482.92482,0,0,0,16.92834,16.76811Zm-.17431.92382a.17407.17407,0,0,1,.34814,0C17.10217,17.88432,16.754,17.88236,16.754,17.69193Z"/><path class="cls-2" d="M16.92822,13.98087a.37482.37482,0,0,0,.31446-.17089l3.36181-5.18653a.37535.37535,0,0,0-.31494-.5791H8.1958V5.84709a.37509.37509,0,0,0-.375-.375H4.458v.75H7.4458v9.95605a.3751.3751,0,0,0,.375.375H18.85645v-.75H8.1958V13.98087Zm2.67139-5.18652-2.875,4.43652H8.1958V8.79435Z"/></g></g></svg>
