<svg xmlns="http://www.w3.org/2000/svg" viewBox="0 0 24 24"><title>ShoppingCart</title><path d="M7.39142,16.53674a.92383.92383,0,1,0,.92383.92383A.92483.92483,0,0,0,7.39142,16.53674Zm-.17432.92383a.17408.17408,0,0,1,.34815,0C7.56525,17.653,7.2171,17.651,7.2171,17.46057Z" fill="#171717"/><path d="M16.55334,16.53674a.92383.92383,0,1,0,.92383.92383A.92483.92483,0,0,0,16.55334,16.53674Zm-.17431.92383a.17407.17407,0,0,1,.34814,0C16.72717,17.653,16.379,17.651,16.379,17.46057Z" fill="#171717"/><path d="M16.55322,13.74951a.37482.37482,0,0,0,.31446-.17089l3.36181-5.18653a.37535.37535,0,0,0-.31494-.5791H7.8208V5.61572a.3751.3751,0,0,0-.375-.375H4.083v.75H7.0708v9.95606a.3751.3751,0,0,0,.375.375H18.48145v-.75H7.8208V13.74951ZM19.22461,8.563l-2.875,4.43652H7.8208V8.563Z" fill="#171717"/></svg>