<?xml version="1.0" encoding="UTF-8"?><svg id="a" xmlns="http://www.w3.org/2000/svg" viewBox="0 0 24 24"><path d="M6.29038,6.68384v-3.43359H2.00034v1.5h2.79004v12.5918h14.16113v-1.5H6.29038v-1.49902h12.75l3.05957-7.65918H6.29038ZM18.02475,12.84302H6.29038v-4.65918h13.59473l-1.86035,4.65918ZM8.06742,20.02954c0,.88354-.71637,1.59985-1.60004,1.59985-.88361,0-1.59998-.71631-1.59998-1.59985s.71637-1.6001,1.59998-1.6001c.88367,0,1.60004.71655,1.60004,1.6001ZM19.00876,20.02954c0,.88354-.71631,1.59985-1.59998,1.59985s-1.60004-.71631-1.60004-1.59985.71637-1.6001,1.60004-1.6001,1.59998.71655,1.59998,1.6001Z"/></svg>