<svg xmlns="http://www.w3.org/2000/svg" viewBox="0 0 16.20646 13.14368"><title>ShoppingCart</title>
	<path
		d="M3.30841,11.296a.92383.92383,0,1,0,.92383.92383A.92483.92483,0,0,0,3.30841,11.296Zm-.17432.92383a.17408.17408,0,0,1,.34815,0C3.48224,12.41223,3.13409,12.41028,3.13409,12.21985Z"
		fill="#171717"/>
	<path
		d="M12.47034,11.296a.92383.92383,0,1,0,.92383.92383A.92482.92482,0,0,0,12.47034,11.296Zm-.17432.92383a.17408.17408,0,0,1,.34815,0C12.64417,12.41223,12.296,12.41028,12.296,12.21985Z"
		fill="#171717"/>
	<path
		d="M12.47021,8.50879a.3748.3748,0,0,0,.31446-.1709l3.36181-5.18652a.37535.37535,0,0,0-.31494-.5791H3.73779V.375A.3751.3751,0,0,0,3.36279,0H0V.75H2.98779v9.95605a.37509.37509,0,0,0,.375.375H14.39844v-.75H3.73779V8.50879ZM15.1416,3.32227l-2.875,4.43652H3.73779V3.32227Z"
		fill="#171717"/>
</svg>
