<?xml version="1.0" encoding="UTF-8"?><svg id="a" xmlns="http://www.w3.org/2000/svg" viewBox="0 0 24 24"><path d="M4.42136,8.8291c-1.74802,0-3.17088,1.42285-3.17088,3.1709s1.42285,3.1709,3.17088,3.1709,3.17092-1.42285,3.17092-3.1709-1.42285-3.1709-3.17092-3.1709ZM4.42136,13.6709c-.92088,0-1.67088-.75-1.67088-1.6709s.75-1.6709,1.67088-1.6709,1.67092.75,1.67092,1.6709-.75,1.6709-1.67092,1.6709ZM11.99951,8.8291c-1.74805,0-3.1709,1.42285-3.1709,3.1709s1.42285,3.1709,3.1709,3.1709,3.1709-1.42285,3.1709-3.1709-1.42285-3.1709-3.1709-3.1709ZM11.99951,13.6709c-.9209,0-1.6709-.75-1.6709-1.6709s.75-1.6709,1.6709-1.6709,1.6709.75,1.6709,1.6709-.75,1.6709-1.6709,1.6709ZM19.57861,8.8291c-1.74805,0-3.1709,1.42285-3.1709,3.1709s1.42285,3.1709,3.1709,3.1709,3.1709-1.42285,3.1709-3.1709-1.42285-3.1709-3.1709-3.1709ZM19.57861,13.6709c-.9209,0-1.6709-.75-1.6709-1.6709s.75-1.6709,1.6709-1.6709,1.6709.75,1.6709,1.6709-.75,1.6709-1.6709,1.6709Z"/></svg>