<?xml version="1.0" encoding="UTF-8"?><svg id="a" xmlns="http://www.w3.org/2000/svg" viewBox="0 0 24 24"><path d="M21.20541,5.48627l-1.20532,1.20508c.15741.63477.25012,1.29492.25012,1.97754,0,2.22656-.89087,4.24707-2.33008,5.73242l1.06018,1.06055c1.71075-1.75781,2.7699-4.15234,2.7699-6.79297,0-1.11523-.19775-2.18359-.5448-3.18262ZM6.00845,14.32025c-1.39508-1.47754-2.25824-3.46387-2.25824-5.65137,0-2.30078.94922-4.38281,2.47394-5.88086l-1.06195-1.05859c-1.79535,1.76953-2.91199,4.22559-2.91199,6.93945,0,2.60156,1.03137,4.96094,2.69775,6.71191l1.06049-1.06055ZM13.0914,7.23724c-.29633-.25-.67395-.40723-1.09137-.40723-.93915,0-1.70233.76465-1.70233,1.70215,0,.41797.16425.78809.41553,1.08301l2.37817-2.37793ZM7.34598,12.98236l1.06891-1.06836c-.78186-.8623-1.27258-1.99316-1.27258-3.24512,0-1.36816.57294-2.60059,1.4859-3.48438l-1.06458-1.06055c-1.18341,1.15527-1.92133,2.76465-1.92133,4.54492,0,1.66602.65082,3.17871,1.70367,4.31348ZM18.34122,8.35053l-1.71478,1.71484c-.22412.72852-.59625,1.39258-1.10858,1.93359l1.06464,1.06543c1.09668-1.14355,1.77515-2.69043,1.77515-4.39551,0-.10742-.01111-.21191-.01642-.31836ZM11.25021,21.99994h1.5v-8.05859l-1.5,1.5v6.55859ZM20.80848,1.6409L2.98256,19.46681l1.06055,1.06055L21.86902,2.70144l-1.06055-1.06055Z"/></svg>