<svg xmlns="http://www.w3.org/2000/svg" viewBox="0 0 24 24"><title>SignLanguage</title><path d="M20.48019,14.61727a3.79478,3.79478,0,0,0-.23431-.48145,12.19807,12.19807,0,0,0,.44135-4.373c-.083-1.05371-.61719-4.02735-.64356-4.17383A1.65587,1.65587,0,0,0,19.321,4.53231a1.62706,1.62706,0,0,0-1.24023-.22852,1.65351,1.65351,0,0,0-1.28125,1.92285l.26074,1.86426-3.7832-6.02832a1.64781,1.64781,0,0,0-2.27637-.57226,1.689,1.689,0,0,0-.77637,1.13378l-.167-.21191A1.64482,1.64482,0,0,0,7.72629,2.1661,1.66376,1.66376,0,0,0,7.446,4.45418l.07325.1084A1.66308,1.66308,0,0,0,5.94992,7.32625l.61231.70606a1.63518,1.63518,0,0,0-.85938.46191,1.66975,1.66975,0,0,0-.02539,2.32129s.11969.134.32275.356c-.046.02221-.09381.03906-.13818.06592a1.65407,1.65407,0,0,0-.75879,1.03125,1.69925,1.69925,0,0,0,.25586,1.37109l-.28223-.03223a1.65807,1.65807,0,0,0-1.81836,1.4834,1.65034,1.65034,0,0,0,1.41016,1.82031l.12791.02442a1.66865,1.66865,0,0,0-.78416,1.417A1.64939,1.64939,0,0,0,5.614,20.01571h.00293l.91407.05957a1.66749,1.66749,0,0,0,1.32519,2.60351h.002c.7168.03711,1.94239.08594,3.34082.08594,3.15039,0,7.17481-.251,8.21875-1.46191C20.54953,19.98934,21.13547,16.30379,20.48019,14.61727ZM8.67746,3.32625a.12752.12752,0,0,1,.10742-.0332.14084.14084,0,0,1,.09766.05176l3.57129,4.542a.75038.75038,0,0,0,1.26465-.792L11.72824,3.00594a.17309.17309,0,0,1,.05371-.23437.15064.15064,0,0,1,.10938-.01758.16814.16814,0,0,1,.10449.08886l4.35742,6.94141a1.21864,1.21864,0,0,0,1.47949.499A1.4232,1.4232,0,0,0,18.69406,9.214a.77118.77118,0,0,0,.00488-.23731l-.42285-3.00879a.16391.16391,0,0,1,.12012-.19726.13311.13311,0,0,1,.1084.02051.15222.15222,0,0,1,.0664.084c.00586.03027.543,3.02539.62012,4.00488a14.04047,14.04047,0,0,1-.09881,2.69458,15.37391,15.37391,0,0,0-1.36213-1.384C16.93625,10.504,14.4841,8.78328,14.362,8.69735a1.63117,1.63117,0,0,0-2.17651.34326.73736.73736,0,0,0-.11646-.41943L8.654,3.56649A.175.175,0,0,1,8.67746,3.32625ZM6.77121,9.547a.1259.1259,0,0,1,.209,0,.73983.73983,0,0,0,.08887.07714l2.49512,1.8418a.74989.74989,0,0,0,1.01172-1.09472L7.05051,6.30868a.17583.17583,0,0,1,0-.24219c.07226-.07422.12107-.08887.22461.01465l3.65332,3.501a.74307.74307,0,0,0,.94384.06494,1.64407,1.64407,0,0,0,.63916,1.81006l1.51465,1.15332-5.86059-1.321c-.81794-.85571-1.36579-1.469-1.39429-1.49927A.17329.17329,0,0,1,6.77121,9.547ZM18.281,20.32332v.001c-.70606.81934-5.92188,1.081-10.38477.85547a.15979.15979,0,0,1-.15332-.166c0-.13476.14941-.15429.27148-.17578l3.04883-.48633a.74959.74959,0,0,0-.06933-1.48828l-5.32813-.3457a.15953.15953,0,0,1-.15332-.165.16456.16456,0,0,1,.17481-.166l5.02539-.14257a.74992.74992,0,0,0,.11914-1.48633L4.8884,15.42879a.1693.1693,0,0,1-.07715-.29687.145.145,0,0,1,.08887-.03418l.01269.001,5.69336.65039a.75719.75719,0,0,0,.81641-.5791.74915.74915,0,0,0-.48731-.875L6.67355,12.82918a.16562.16562,0,0,1-.11328-.20312.15864.15864,0,0,1,.07422-.10254.15046.15046,0,0,1,.12793-.0127L14.68625,14.296a1.227,1.227,0,0,0,1.39355-.69824,1.44529,1.44529,0,0,0-.12988-1.35254.75614.75614,0,0,0-.1748-.1875l-2.39649-1.82324a.17318.17318,0,0,1-.04687-.23633.1484.1484,0,0,1,.09668-.06836.138.138,0,0,1,.09082.00879c.02539.01758,2.49316,1.749,3.23047,2.38672a10.7481,10.7481,0,0,1,2.332,2.83593A7.60572,7.60572,0,0,1,18.281,20.32332Z" fill="#171717"/></svg>