<svg xmlns="http://www.w3.org/2000/svg" viewBox="0 0 24 24"><title>SignLanguage</title><path d="M18.583,14.1499a3.03629,3.03629,0,0,0-.23346-.44531c.01361-.02759.03247-.05664.04449-.084a9.32317,9.32317,0,0,0,.34131-3.375c-.06592-.82324-.49219-3.167-.51269-3.27735a1.09958,1.09958,0,0,0-2.15625.43164l.32177,2.26856a.33324.33324,0,0,0-.03466.084.34124.34124,0,0,1-.061-.04882L12.81738,4.2417a1.09993,1.09993,0,0,0-2.00976.30078,1.06777,1.06777,0,0,0,.10937.80567l.04.081-.70557-.88476A1.09983,1.09983,0,0,0,8.52393,5.90576L9.25977,6.981l-.38086-.36035A1.10015,1.10015,0,0,0,7.30664,8.15967l.811.9209a1.12671,1.12671,0,0,0-1.01807.2959,1.09772,1.09772,0,0,0-.01367,1.541s.19085.21.48877.52759a1.09789,1.09789,0,0,0-.12793,2.14331l.08349.02832-1.12109-.12695a1.09964,1.09964,0,0,0-1.209.97949,1.09282,1.09282,0,0,0,.94873,1.2041l1.28271.24121-.52539.01465a1.09975,1.09975,0,0,0-.02539,2.19922h.00146l1.22461.0791a1.09957,1.09957,0,0,0,.56885,2.02832h.001c.43408.02149,1.4458.06543,2.64892.06543,2.4375-.001,5.6587-.17871,6.44287-1.07617A6.66578,6.66578,0,0,0,18.583,14.1499ZM7.62939,9.90772c.13282-.13282.31788-.1709.53956.03808l2.00244,1.457a.37541.37541,0,0,0,.50244-.55175L7.85352,7.646A.35.35,0,1,1,8.356,7.15869L11.2876,9.93018A.37514.37514,0,0,0,11.855,9.4458L9.125,5.4585a.35043.35043,0,0,1,.542-.44434l2.8667,3.59571a.3751.3751,0,0,0,.62988-.39942L11.57471,4.98877a.35066.35066,0,0,1,.11963-.48047.35272.35272,0,0,1,.48535.12793l3.49072,5.48633a.75338.75338,0,0,0,.90576.31934.917.917,0,0,0,.56153-.68262.36408.36408,0,0,0,.00293-.124L16.8042,7.269a.35008.35008,0,0,1,.68262-.15527c.00439.02344.438,2.40527.50048,3.19141a10.19215,10.19215,0,0,1-.16986,2.65771,12.1902,12.1902,0,0,0-1.379-1.43994c-.62842-.53613-2.58789-1.8916-2.67969-1.95508A1.09958,1.09958,0,0,0,12.53955,11.398l1.83057,1.375c.0122.03418.01513.07422.03515.085-.01757.00781-.0747.01758-.07714.00879L8.79431,11.63611c-.68573-.70569-1.1499-1.21924-1.16492-1.23523a.34777.34777,0,0,1,0-.49316ZM17.2041,18.731c-.72168.82812-5.59082.90332-8.5083.75488a.35061.35061,0,0,1-.3501-.34961.37391.37391,0,0,1,.40821-.35547l2.44677-.38476a.37469.37469,0,0,0-.03418-.74414L6.90625,17.3794a.35018.35018,0,1,1,.01074-.7002l4.03272-.11328a.37486.37486,0,0,0,.05859-.74316l-4.751-.89063a.3503.3503,0,0,1-.18359-.62012.34289.34289,0,0,1,.21826-.07812.21859.21859,0,0,1,.03565.00195l4.56933.51563a.3754.3754,0,0,0,.1626-.72852L7.65869,12.86963a.35036.35036,0,1,1,.17774-.67773L14.18506,13.603a.75652.75652,0,0,0,.86572-.41406.92048.92048,0,0,0-.08349-.87793.384.384,0,0,0-.08741-.09278l-1.91113-1.43457a.35059.35059,0,0,1-.103-.48437.34589.34589,0,0,1,.22119-.15137.33512.33512,0,0,1,.25391.043c.02.01367,2.01074,1.39062,2.61133,1.90234a8.62847,8.62847,0,0,1,1.93359,2.332A6.14464,6.14464,0,0,1,17.2041,18.731Z" fill="#171717"/></svg>