<?xml version="1.0" encoding="UTF-8"?><svg id="a" xmlns="http://www.w3.org/2000/svg" viewBox="0 0 24 24"><path d="M20.48019,14.72286c-.05981-.15356-.14032-.31519-.23431-.48145.49341-1.1731.51038-3.49048.44135-4.37305-.08301-1.05371-.61719-4.02734-.64355-4.17383-.0918-.43848-.34863-.81348-.72266-1.05664-.37109-.23926-.81055-.32324-1.24023-.22852-.89062.19043-1.46094,1.07617-1.28125,1.92285l.26074,1.86426-3.7832-6.02832c-.22852-.38477-.5918-.65625-1.02344-.76367-.42773-.10742-.87305-.03906-1.25293.19141-.4248.25879-.69238.68359-.77637,1.13379l-.16699-.21191c-.27832-.34863-.6748-.56543-1.11621-.61133-.44434-.04199-.87207.08398-1.21484.36523-.70312.57715-.8125,1.625-.28027,2.28809l.07324.1084c-.54004-.12109-1.1377.04492-1.53711.45117-.63867.64746-.63867,1.7002-.03223,2.3125l.6123.70605c-.32422.0625-.62207.2207-.85938.46191-.63867.64746-.63867,1.70117-.02539,2.32129,0,0,.11969.13403.32275.35596-.04602.02222-.09381.03906-.13818.06592-.38184.22949-.65137.59473-.75879,1.03125-.12109.49316-.00781.99121.25586,1.37109l-.28223-.03223c-.43164-.04004-.86719.08105-1.20898.3584-.34668.2793-.5625.67871-.60938,1.125-.09375.91309.56641,1.7334,1.41016,1.82031l.12791.02441c-.47068.29395-.78416.81934-.78416,1.41699,0,.91699.74023,1.66309,1.60156,1.66309h.00293l.91406.05957c-.18164.26758-.28809.59082-.28809.93848,0,.91797.74023,1.66504,1.61328,1.66504h.00195c.7168.03711,1.94238.08594,3.34082.08594,3.15039,0,7.1748-.25098,8.21875-1.46191,1.13184-1.31348,1.71777-4.99902,1.0625-6.68555ZM8.67746,3.43184c.03906-.03223.0752-.03906.10742-.0332.02832.00293.06836.01465.09766.05176l3.57129,4.54199c.23926.30176.66309.37598.98828.17188.32422-.20312.44336-.61914.27637-.96387l-1.99023-4.08887c-.04785-.08105-.02344-.1875.05371-.23438.04102-.02539.08203-.02246.10938-.01758.02734.00684.06738.02539.10449.08887l4.35742,6.94141c.30078.42773.88965.76953,1.47949.49902.47559-.21582.78906-.60449.86133-1.06934.01367-.07715.01562-.15625.00488-.2373l-.42285-3.00879c-.01855-.09082.03418-.17871.12012-.19727.04688-.0127.08594.00586.1084.02051.02539.0166.05859.04785.06641.08398.00586.03027.54297,3.02539.62012,4.00488.05438.68994.02643,1.81323-.09882,2.69458-.51819-.59277-1.04645-1.11133-1.36212-1.38403-.79395-.68652-3.24609-2.40723-3.36816-2.49316-.37109-.24316-.8125-.3252-1.24609-.23438-.37213.07935-.69287.28564-.93042.57764.00006-.14502-.03021-.29102-.11646-.41943l-3.41504-5.05469c-.05762-.07227-.04688-.18262.02344-.24023ZM6.77121,9.65255c.07227-.07422.13672-.07422.20898,0,.02734.02832.05762.05371.08887.07715l2.49512,1.8418c.30859.22754.7373.1875.99609-.09473.25977-.28027.2666-.71094.01562-1l-3.52539-4.0625c-.06445-.06543-.06445-.17676,0-.24219.07227-.07422.12107-.08887.22461.01465l3.65332,3.50098c.26068.24951.6532.26782.94385.06494-.18762.6792.05756,1.42896.63916,1.81006l1.51465,1.15332-5.8606-1.32104c-.81793-.85571-1.36578-1.46899-1.39429-1.49927-.06641-.06738-.06641-.17578,0-.24316ZM18.28098,20.42891v.00098c-.70605.81934-5.92188,1.08105-10.38477.85547-.08496,0-.15332-.07422-.15332-.16602,0-.13477.14941-.1543.27148-.17578l3.04883-.48633c.37695-.05957.64844-.39355.63086-.77539-.01758-.38086-.31934-.68848-.7002-.71289l-5.32812-.3457c-.08496,0-.15332-.07422-.15332-.16504,0-.0918.06836-.16602.1748-.16602l5.02539-.14258c.38281-.01074.69531-.30859.72656-.69043.03027-.38184-.23145-.72461-.60742-.7959l-5.94336-1.12891c-.08496-.00879-.14746-.0918-.1377-.18262.00586-.05859.03613-.09473.06055-.11426.01953-.01562.05078-.03418.08887-.03418.00391,0,.00781.00098.0127.00098l5.69336.65039c.37402.03906.73242-.20605.81641-.5791.08496-.37305-.125-.75098-.4873-.875l-4.26172-1.46582c-.08496-.02148-.13574-.11328-.11328-.20312.01367-.05664.04785-.08691.07422-.10254.02246-.01465.06152-.03027.12793-.0127l7.92383,1.78516c.50586.08887,1.16504-.09375,1.39355-.69824.18066-.48145.13379-.97168-.12988-1.35254-.0459-.07031-.10449-.13379-.1748-.1875l-2.39648-1.82324c-.07617-.0498-.09766-.1582-.04688-.23633.0293-.0459.06836-.0625.09668-.06836.02637-.00488.06738-.00684.09082.00879.02539.01758,2.49316,1.74902,3.23047,2.38672.75391.65234,2.03809,2.08105,2.33203,2.83594.44629,1.14551-.04004,4.28125-.80078,5.16211Z"/></svg>