<svg xmlns="http://www.w3.org/2000/svg" viewBox="0 0 13.59291 16.59355"><title>SignLanguage</title>
	<path
		d="M13.38892,10.44219a3.03489,3.03489,0,0,0-.23346-.44532c.01361-.02758.03247-.05664.0445-.084a9.32339,9.32339,0,0,0,.34131-3.375c-.06592-.82324-.49219-3.167-.5127-3.27734a1.09958,1.09958,0,0,0-2.15625.43164l.32178,2.26855a.33283.33283,0,0,0-.03467.084.34122.34122,0,0,1-.061-.04883L7.6233.534A1.09995,1.09995,0,0,0,5.61353.83476a1.06777,1.06777,0,0,0,.10938.80567l.04.081L5.05738.83672A1.09984,1.09984,0,0,0,3.32984,2.19805l.73584,1.07519-.38086-.36035A1.10014,1.10014,0,0,0,2.11256,4.452l.811.9209a1.12671,1.12671,0,0,0-1.01807.2959,1.09772,1.09772,0,0,0-.01367,1.541s.19086.21.48877.52759a1.09789,1.09789,0,0,0-.12793,2.14331l.0835.02832L1.2151,9.782a1.09966,1.09966,0,0,0-1.209.97949,1.09283,1.09283,0,0,0,.94873,1.2041l1.28272.24121-.52539.01465a1.09975,1.09975,0,0,0-.0254,2.19922h.00147l1.22461.0791a1.09957,1.09957,0,0,0,.56885,2.02832h.001c.43409.02149,1.4458.06543,2.64893.06543,2.4375-.001,5.65869-.17871,6.44287-1.07617A6.66575,6.66575,0,0,0,13.38892,10.44219ZM2.43531,6.2c.13281-.13281.31787-.1709.53955.03808l2.00244,1.457a.37541.37541,0,0,0,.50244-.55176L2.65943,3.93828a.35.35,0,1,1,.50244-.4873L6.09351,6.22246a.37514.37514,0,0,0,.56739-.48438l-2.73-3.9873a.35043.35043,0,0,1,.542-.44434l2.8667,3.59571a.3751.3751,0,0,0,.62988-.39942L6.38062,1.28105A.35066.35066,0,0,1,6.50025.80058.35272.35272,0,0,1,6.9856.92851l3.49073,5.48633a.75337.75337,0,0,0,.90576.31934.917.917,0,0,0,.56152-.68262.36383.36383,0,0,0,.00293-.124l-.33643-2.36621a.35008.35008,0,0,1,.68262-.15528c.0044.02344.438,2.40528.50049,3.19141a10.193,10.193,0,0,1-.16986,2.65771,12.18935,12.18935,0,0,0-1.379-1.43994C10.616,7.2791,8.6565,5.92363,8.5647,5.86015A1.09958,1.09958,0,0,0,7.34547,7.69023L9.176,9.06523c.01221.03418.01514.07422.03516.085-.01758.00782-.07471.01758-.07715.00879L3.60023,7.92839C2.9145,7.2227,2.45032,6.70915,2.43531,6.69316a.34775.34775,0,0,1,0-.49316ZM12.01,15.02324c-.72168.82813-5.59082.90332-8.5083.75488a.35061.35061,0,0,1-.3501-.34961.3739.3739,0,0,1,.4082-.35546l2.44678-.38477a.37469.37469,0,0,0-.03418-.74414l-4.26025-.27246a.35018.35018,0,1,1,.01074-.7002l4.03271-.11328a.37486.37486,0,0,0,.0586-.74316l-4.751-.89063a.35028.35028,0,0,1-.18359-.62011.3428.3428,0,0,1,.21826-.07813.21847.21847,0,0,1,.03564.00195l4.56934.51563a.3754.3754,0,0,0,.1626-.72852L2.46461,9.16191a.35036.35036,0,1,1,.17773-.67773L8.991,9.89531a.75653.75653,0,0,0,.86573-.41406.92048.92048,0,0,0-.0835-.87793.38376.38376,0,0,0-.0874-.09277L7.77467,7.076a.3506.3506,0,0,1-.103-.48438.3459.3459,0,0,1,.22119-.15137.33513.33513,0,0,1,.25391.043c.02.01367,2.01074,1.39063,2.61132,1.90235a8.62821,8.62821,0,0,1,1.9336,2.332A6.14468,6.14468,0,0,1,12.01,15.02324Z"
		fill="#171717"/>
</svg>
