<?xml version="1.0" encoding="UTF-8"?><svg id="a" xmlns="http://www.w3.org/2000/svg" viewBox="0 0 24 24"><path d="M11.99999,6.83002c-.93909,0-1.70227.76465-1.70227,1.70215,0,.66895.39038,1.24219.95215,1.52148v11.94629h1.5v-11.94629c.56195-.2793.95245-.85254.95245-1.52148,0-.9375-.76318-1.70215-1.70233-1.70215ZM6.22393,2.78803l-1.06189-1.05859c-1.79541,1.76953-2.91217,4.22559-2.91217,6.93945,0,2.64062,1.05908,5.03516,2.7699,6.79297l1.06018-1.06055c-1.43927-1.48535-2.33008-3.50586-2.33008-5.73242,0-2.30078.94922-4.38281,2.47406-5.88086ZM7.56365,4.12396c-1.18329,1.15527-1.9212,2.76465-1.9212,4.54492,0,1.70508.67847,3.25195,1.77515,4.39551l1.0647-1.06543c-.82501-.87109-1.33984-2.03906-1.33984-3.33008,0-1.36816.57294-2.60059,1.48578-3.48438l-1.06458-1.06055ZM16.43645,4.12396l-1.06458,1.06055c.91296.88379,1.4859,2.11621,1.4859,3.48438,0,1.29102-.51483,2.45898-1.3399,3.33008l1.06464,1.06543c1.09674-1.14355,1.77527-2.69043,1.77527-4.39551,0-1.78027-.73792-3.38965-1.92133-4.54492ZM18.83782,1.72943l-1.06189,1.05859c1.52472,1.49805,2.47394,3.58008,2.47394,5.88086,0,2.22656-.89075,4.24707-2.3299,5.73242l1.06012,1.06055c1.71069-1.75781,2.76978-4.15234,2.76978-6.79297,0-2.71387-1.11676-5.16992-2.91205-6.93945Z"/></svg>