<svg xmlns="http://www.w3.org/2000/svg" viewBox="0 0 24 24"><title>Smile</title><path d="M12,16.54151a4.54671,4.54671,0,0,1-4.542-4.541h-.75a5.29175,5.29175,0,0,0,10.58349,0h-.75A4.54629,4.54629,0,0,1,12,16.54151Z" fill="#171717"/><path d="M8.79688,11.06885a2.292,2.292,0,1,0-2.292-2.292A2.29434,2.29434,0,0,0,8.79688,11.06885Zm0-3.834a1.542,1.542,0,1,1-1.542,1.542A1.54321,1.54321,0,0,1,8.79688,7.23487Z" fill="#171717"/><path d="M12,3.7085a8.29151,8.29151,0,1,0,8.291,8.292A8.30132,8.30132,0,0,0,12,3.7085Zm0,15.833a7.54151,7.54151,0,1,1,7.5415-7.541A7.55,7.55,0,0,1,12,19.54151Z" fill="#171717"/><path d="M15.25,6.48487a2.292,2.292,0,1,0,2.2915,2.292A2.29476,2.29476,0,0,0,15.25,6.48487Zm0,3.834a1.542,1.542,0,1,1,1.5415-1.542A1.54363,1.54363,0,0,1,15.25,10.31885Z" fill="#171717"/></svg>