<?xml version="1.0" encoding="UTF-8"?><svg id="a" xmlns="http://www.w3.org/2000/svg" viewBox="0 0 24 24"><path d="M11.99973,1.25008C6.07297,1.25008,1.2507,6.07235,1.2507,12.00008s4.82227,10.75,10.74902,10.75c5.92773,0,10.75-4.82227,10.75-10.75S17.92746,1.25008,11.99973,1.25008ZM11.99973,21.25008c-5.09961,0-9.24902-4.14941-9.24902-9.25S6.90012,2.75008,11.99973,2.75008c5.10059,0,9.25,4.14941,9.25,9.25s-4.14941,9.25-9.25,9.25ZM15.40012,13.85067h1.5c0,2.70215-2.19824,4.90039-4.90039,4.90039s-4.90039-2.19824-4.90039-4.90039h1.5c0,1.875,1.52539,3.40039,3.40039,3.40039s3.40039-1.52539,3.40039-3.40039ZM10.49777,8.16903c0-1.28418-1.04492-2.3291-2.3291-2.3291s-2.32812,1.04492-2.32812,2.3291,1.04395,2.3291,2.32812,2.3291,2.3291-1.04492,2.3291-2.3291ZM7.34055,8.16903c0-.45703.37109-.8291.82812-.8291s.8291.37207.8291.8291-.37207.8291-.8291.8291-.82812-.37207-.82812-.8291ZM15.83078,5.83993c-1.2842,0-2.3291,1.04492-2.3291,2.3291s1.0449,2.3291,2.3291,2.3291,2.3291-1.04492,2.3291-2.3291-1.04492-2.3291-2.3291-2.3291ZM15.83078,8.99813c-.45703,0-.8291-.37207-.8291-.8291s.37207-.8291.8291-.8291.8291.37207.8291.8291-.37207.8291-.8291.8291Z"/></svg>