<svg xmlns="http://www.w3.org/2000/svg" viewBox="0 0 24 24"><title>Smile</title><path d="M11.99973,1.25008a10.75,10.75,0,1,0,10.75,10.75A10.76176,10.76176,0,0,0,11.99973,1.25008Zm0,20a9.25,9.25,0,1,1,9.25-9.25A9.26012,9.26012,0,0,1,11.99973,21.25008Z" fill="#171717"/><path d="M11.99973,17.25106a3.40423,3.40423,0,0,1-3.4004-3.40039h-1.5a4.9004,4.9004,0,0,0,9.80079,0h-1.5A3.40422,3.40422,0,0,1,11.99973,17.25106Z" fill="#171717"/><path d="M10.49777,8.169a2.32861,2.32861,0,1,0-2.3291,2.3291A2.33185,2.33185,0,0,0,10.49777,8.169Zm-3.15722,0a.82861.82861,0,1,1,.82812.8291A.82938.82938,0,0,1,7.34055,8.169Z" fill="#171717"/><path d="M15.83078,5.83993a2.3291,2.3291,0,1,0,2.3291,2.3291A2.33184,2.33184,0,0,0,15.83078,5.83993Zm0,3.1582a.8291.8291,0,1,1,.8291-.8291A.83022.83022,0,0,1,15.83078,8.99813Z" fill="#171717"/></svg>