<svg xmlns="http://www.w3.org/2000/svg" viewBox="0 0 24 24"><title>Stack</title><path d="M17.66113,6.43018V5.0708H16.5625V3.71045H8.6792v.05774L5.28937,8.43311h-.0506v9.13867H6.3374v1.36035H7.43555v1.35938H18.75928V6.43018Zm-.75,0H10.876v.05774l-.34766.47845V5.8208h6.38281ZM9.77832,6.40381V7.99848L8.474,9.79346H7.315ZM10.876,7.76392v3.38891H8.41339ZM15.8125,4.46045V5.0708H9.77832v.05707l-.34912.48041V4.46045Zm-7.1333.58374V6.64038L7.3764,8.43311H6.21661ZM5.98877,16.82178V9.18311h.84259l-.44354.61035H6.3374v7.02832ZM7.0874,18.18213V10.54346H7.929l-.44281.60937h-.0506v7.0293Zm10.92188,1.35938H8.18555V11.90283H11.626V7.18018h6.3833Z" fill="#171717"/></svg>