<svg xmlns="http://www.w3.org/2000/svg" viewBox="0 0 24.75 24.75"><defs><style>.cls-1{fill:none;stroke:#171717;stroke-miterlimit:10;stroke-width:0.75px;}</style></defs><title>Stack</title><g id="Ebene_2" data-name="Ebene 2"><g id="Ebene_1-2" data-name="Ebene 1"><rect class="cls-1" x="0.375" y="0.375" width="24" height="24"/><path d="M18.03613,6.79505V5.43567H16.9375V4.07532H9.0542v.05774L5.66437,8.798h-.0506v9.13867H6.7124V19.297H7.81055v1.35938H19.13428V6.79505Zm-.75,0H11.251v.05774l-.34766.47845V6.18567h6.38281Zm-7.13281-.02637V8.36335L8.849,10.15833H7.69ZM11.251,8.12879V11.5177H8.78839ZM16.1875,4.82532v.61035H10.15332v.05707l-.34912.48041V4.82532Zm-7.1333.58374V7.00525L7.7514,8.798H6.59161ZM6.36377,17.18665V9.548h.84259l-.44354.61035H6.7124v7.02832ZM7.4624,18.547V10.90833H8.304l-.44281.60937h-.0506V18.547Zm10.92188,1.35938H8.56055V12.2677H12.001V7.54505h6.3833Z"/></g></g></svg>
