<?xml version="1.0" encoding="UTF-8"?><svg id="a" xmlns="http://www.w3.org/2000/svg" viewBox="0 0 24 24"><path d="M18.34814,9.47095l4.36475-1.6438L14.1543,2.66992,1.28711,7.51465l4.36444,2.63037-4.36444,1.64404,4.47614,2.69702-4.47614,1.68677,8.55859,5.15723,12.86719-4.84473-4.47699-2.69824,4.47699-1.68555-4.36475-2.63062ZM14.00195,4.33008l5.28516,3.18457-9.28906,3.49805-5.28516-3.18555,9.28906-3.49707ZM7.28888,11.13184l2.55682,1.54102,6.71405-2.52856,2.72736,1.64478-9.28906,3.49707-5.28516-3.18457,2.57599-.96973ZM19.28711,16.17285l-9.28906,3.49707-5.28516-3.18457,2.68781-1.01245,2.44501,1.47339,6.60156-2.4856,2.83984,1.71216Z"/></svg>