<svg xmlns="http://www.w3.org/2000/svg" viewBox="0 0 13.52051 16.58105"><title>Stack</title>
	<path
		d="M12.42236,2.71973V1.36035H11.32373V0H3.44043V.05774L.0506,4.72266H0v9.13867H1.09863v1.36035H2.19678v1.35937H13.52051V2.71973Zm-.75,0H5.63721v.05774l-.34766.47845V2.11035h6.38281ZM4.53955,2.69336V4.288L3.23523,6.083h-1.159ZM5.63721,4.05347V7.44238H3.17462ZM10.57373.75v.61035H4.53955v.05707l-.34912.48041V.75Zm-7.1333.58374V2.92993L2.13763,4.72266H.97784ZM.75,13.11133V5.47266h.84259L1.149,6.083H1.09863v7.02832Zm1.09863,1.36035V6.833h.84156l-.44281.60937h-.0506v7.0293Zm10.92188,1.35937H2.94678V8.19238H6.38721V3.46973h6.3833Z"
		fill="#171717"/>
</svg>
