<?xml version="1.0" encoding="UTF-8"?><svg id="a" xmlns="http://www.w3.org/2000/svg" viewBox="0 0 24 24"><path d="M13.00747,6.42448l2.78577,4.8252H5.78969v1.5h10.0036l-2.78583,4.82617,1.29883.75,3.65234-6.32617-3.65234-6.3252-1.29883.75ZM12.00014,1.24968C6.07241,1.24968,1.25014,6.07194,1.25014,11.99968s4.82227,10.75,10.75,10.75c5.92725,0,10.74951-4.82227,10.74951-10.75S17.92739,1.24968,12.00014,1.24968ZM12.00014,21.24968c-5.10059,0-9.25-4.14941-9.25-9.25S6.89956,2.74968,12.00014,2.74968c5.1001,0,9.24951,4.14941,9.24951,9.25s-4.14941,9.25-9.24951,9.25Z"/></svg>