<svg xmlns="http://www.w3.org/2000/svg" viewBox="0 0 24 24"><title>Stop</title><path d="M19.75754,11.46a1.8472,1.8472,0,0,0-2.48731.751l-1.59082,2.63183L16.85129,5.337a1.87555,1.87555,0,0,0-1.55762-2.12989,1.83907,1.83907,0,0,0-1.376.33985,1.89975,1.89975,0,0,0-.39257.38867l.01367-.793a1.86963,1.86963,0,0,0-1.83692-1.89258h-.02148A1.86226,1.86226,0,0,0,9.82785,3.045l-.05957.66016a1.86663,1.86663,0,0,0-.53711-.72852,1.82981,1.82981,0,0,0-1.35449-.417A1.85975,1.85975,0,0,0,6.2009,4.55282l.04394,1.46A1.84144,1.84144,0,0,0,4.93039,5.629,1.86155,1.86155,0,0,0,3.25558,7.63192c.0879,2.04883.64454,12.34961,2.91407,14.00781a9.16749,9.16749,0,0,0,4.80273,1.1084,7.51328,7.51328,0,0,0,3.2207-.5791,14.40391,14.40391,0,0,0,3.749-3.74707c.72947-1.05664,2.51269-4.28321,2.59863-4.43946A1.8876,1.8876,0,0,0,19.75754,11.46Zm-.54,1.81739c-.01856.03222-1.82227,3.29687-2.50977,4.291A13.27966,13.27966,0,0,1,13.50558,20.836c-1.38867.7168-5.24609.47266-6.45117-.40723-1.12695-.82324-2.05468-7.18652-2.30273-12.89844a.37.37,0,0,1,.32324-.40917.39134.39134,0,0,1,.25391.0791.374.374,0,0,1,.13379.25683.89938.89938,0,0,0,.01953.11426l.93652,3.71973a.74315.74315,0,0,0,.83106.55957.7512.7512,0,0,0,.64648-.76563L7.698,4.461a.36789.36789,0,0,1,.32129-.4082.32367.32367,0,0,1,.25488.0791.39145.39145,0,0,1,.13672.27734l.752,6.20508a.76839.76839,0,0,0,.75586.66016.74988.74988,0,0,0,.73535-.68262l.6709-7.47266a.37675.37675,0,0,1,.11328-.26855.3612.3612,0,0,1,.2461-.10059.366.366,0,0,1,.35449.37207l-.126,7.125a.75019.75019,0,0,0,1.48047.18457l1.26855-5.43066a.36689.36689,0,0,1,.14649-.24707.3508.3508,0,0,1,.25684-.06446.37746.37746,0,0,1,.2998.44532l-1.2334,10.00879a1.33,1.33,0,0,0,.88086,1.44824,1.5733,1.5733,0,0,0,1.48828-.29.75132.75132,0,0,0,.165-.19238l1.91309-3.168a.35969.35969,0,0,1,.21093-.18067.3458.3458,0,0,1,.26465.02442A.37868.37868,0,0,1,19.2175,13.27743Z" fill="#171717"/></svg>