<svg xmlns="http://www.w3.org/2000/svg" viewBox="0 0 24.75 24.75"><defs><style>.cls-1{fill:none;stroke:#171717;stroke-miterlimit:10;stroke-width:0.75px;}.cls-2{fill:#171717;}</style></defs><title>Stop</title><g id="Ebene_2" data-name="Ebene 2"><g id="Ebene_1-2" data-name="Ebene 1"><rect class="cls-1" x="0.375" y="0.375" width="24" height="24"/><path class="cls-2" d="M11.561,20.64892a7.29066,7.29066,0,0,1-3.72754-.8291h0C6.05853,18.54248,5.62933,9.895,5.58636,8.91357A1.26356,1.26356,0,0,1,8.00482,8.311L7.94915,6.48291A1.26313,1.26313,0,0,1,10.46624,6.269l.17481,1.4209.21679-2.374a1.23514,1.23514,0,0,1,.37891-.86036,1.28833,1.28833,0,0,1,.89649-.35937,1.26428,1.26428,0,0,1,1.24951,1.27637l-.03907,2.165.20655-.86914a1.26256,1.26256,0,0,1,2.4917.4082l-.98487,7.87207a.37015.37015,0,0,0,.03028.14551.36744.36744,0,0,0,.23193-.03125l1.47852-2.41114a1.23511,1.23511,0,0,1,.72851-.59765,1.2634,1.2634,0,0,1,1.498,1.79c-.06592.11718-1.49121,2.65918-2.07031,3.48535a11.30667,11.30667,0,0,1-2.92579,2.89062A5.87841,5.87841,0,0,1,11.561,20.64892ZM6.8471,8.30029c-.0166,0-.0332.001-.0498.00195a.51336.51336,0,0,0-.46289.55957c.15771,3.58692.82226,9.54688,1.9375,10.34864h0a7.47056,7.47056,0,0,0,5.4165.34179A10.64258,10.64258,0,0,0,16.33978,16.898c.5581-.794,2.01025-3.38477,2.0249-3.41114a.51226.51226,0,0,0-.22266-.68261A.49893.49893,0,0,0,17.7514,12.77a.50753.50753,0,0,0-.30127.25195l-1.52686,2.49121a.377.377,0,0,1-.084.0957,1.03457,1.03457,0,0,1-.98486.18653.8496.8496,0,0,1-.54346-.9209l.98828-7.90039a.51284.51284,0,0,0-.09326-.38965.50653.50653,0,0,0-.33643-.20312.5141.5141,0,0,0-.584.42968l-1.01465,4.27539a.375.375,0,0,1-.73975-.09375l.10157-5.63086a.51315.51315,0,0,0-.50782-.51562.63319.63319,0,0,0-.36376.14551.5106.5106,0,0,0-.15479.3623l-.53711,5.88867a.37562.37562,0,0,1-.36768.34082.39567.39567,0,0,1-.37792-.3291l-.603-4.90429a.51673.51673,0,0,0-.18555-.3584.5335.5335,0,0,0-.37451-.11524.51336.51336,0,0,0-.46289.55957l.15869,5.22168a.3751.3751,0,0,1-.73828.1045L7.36615,8.82275a.57622.57622,0,0,0-.19385-.40527A.51029.51029,0,0,0,6.8471,8.30029Z"/></g></g></svg>
