<svg xmlns="http://www.w3.org/2000/svg" viewBox="0 0 13.58668 16.55287"><title>Stop</title>
	<path
		d="M5.98,16.55287a7.29073,7.29073,0,0,1-3.72754-.8291h0C.47758,14.44642.04838,5.799.00541,4.81752A1.26356,1.26356,0,0,1,2.42387,4.215L2.3682,2.38685A1.26313,1.26313,0,0,1,4.88529,2.173L5.0601,3.59388l.21679-2.374A1.23508,1.23508,0,0,1,5.6558.35951,1.28827,1.28827,0,0,1,6.55228.00013,1.26429,1.26429,0,0,1,7.8018,1.2765l-.03907,2.165.20655-.86914a1.26256,1.26256,0,0,1,2.4917.4082l-.98487,7.87207a.37007.37007,0,0,0,.03028.14551.36744.36744,0,0,0,.23193-.03125L11.21683,8.5558a1.23517,1.23517,0,0,1,.72852-.59766,1.26341,1.26341,0,0,1,1.49805,1.79c-.06592.11719-1.49121,2.65918-2.07032,3.48535A11.30635,11.30635,0,0,1,8.4473,16.12416,5.87857,5.87857,0,0,1,5.98,16.55287ZM1.26615,4.20424c-.0166,0-.0332.001-.0498.00195a.51335.51335,0,0,0-.46289.55957c.15771,3.58691.82226,9.54687,1.9375,10.34863h0a7.47051,7.47051,0,0,0,5.4165.3418,10.64263,10.64263,0,0,0,2.65137-2.6543c.5581-.79394,2.01025-3.38476,2.0249-3.41113a.51227.51227,0,0,0-.22266-.68262.499.499,0,0,0-.39062-.03418.50758.50758,0,0,0-.30127.252l-1.52686,2.49121a.37741.37741,0,0,1-.084.0957,1.03457,1.03457,0,0,1-.98486.18652A.84959.84959,0,0,1,8.73,10.77846l.98828-7.9004A.51281.51281,0,0,0,9.625,2.48842a.50663.50663,0,0,0-.33643-.20313.51411.51411,0,0,0-.584.42969L7.69,6.99037a.375.375,0,0,1-.73975-.09375L7.0518,1.26576A.51316.51316,0,0,0,6.544.75013a.63331.63331,0,0,0-.36377.14551.51066.51066,0,0,0-.15478.36231L5.48832,7.14662a.37562.37562,0,0,1-.36768.34082.3957.3957,0,0,1-.37793-.3291l-.603-4.9043a.51677.51677,0,0,0-.18555-.3584.53345.53345,0,0,0-.37451-.11523A.51335.51335,0,0,0,3.11674,2.34l.15869,5.22168a.3751.3751,0,0,1-.73828.10449l-.752-2.93945a.57621.57621,0,0,0-.19384-.40528A.51028.51028,0,0,0,1.26615,4.20424Z"
		fill="#171717"/>
</svg>
