<?xml version="1.0" encoding="UTF-8"?><svg id="a" xmlns="http://www.w3.org/2000/svg" viewBox="0 0 24 24"><path d="M19.75754,11.48357c-.44141-.23242-.94238-.28125-1.41699-.12988-.47656.14941-.86621.47852-1.07031.88086l-1.59082,2.63184,1.17188-9.50586c.15039-1.01953-.54785-1.97461-1.55762-2.12988-.49121-.07324-.97754.0459-1.37598.33984-.15234.1123-.28418.24414-.39258.38867l.01367-.79297c.00977-1.03223-.81445-1.88086-1.83691-1.89258h-.02148c-.48535,0-.94336.1875-1.29199.5293-.3584.35059-.55859.82227-.56055,1.26562l-.05957.66016c-.11523-.28027-.29785-.53027-.53711-.72852-.38184-.31445-.85547-.46484-1.35449-.41699-1.01758.09766-1.76855,1.0127-1.67578,1.99316l.04395,1.45996c-.375-.29395-.83398-.42578-1.31445-.38379-1.01758.09766-1.76855,1.0127-1.6748,2.00293.08789,2.04883.64453,12.34961,2.91406,14.00781.97656.71387,2.95996,1.1084,4.80273,1.1084,1.26172,0,2.45703-.18457,3.2207-.5791,1.34668-.69434,3.13867-2.86426,3.74902-3.74707.72947-1.05664,2.5127-4.2832,2.59863-4.43945.46875-.91211.11816-2.04395-.7832-2.52246ZM19.2175,13.30095c-.01855.03223-1.82227,3.29688-2.50977,4.29102-.70703,1.02441-2.30664,2.80566-3.20215,3.26758-1.38867.7168-5.24609.47266-6.45117-.40723-1.12695-.82324-2.05469-7.18652-2.30273-12.89844-.01953-.20605.125-.38965.32324-.40918.11816-.00488.21289.04492.25391.0791.07715.06445.125.15527.13379.25684.00391.03906.01074.07617.01953.11426l.93652,3.71973c.09375.37109.44238.61426.83105.55957.37891-.05273.65723-.38281.64648-.76562l-.19824-6.62402c-.01953-.20703.125-.38965.32129-.4082.12988-.01562.21387.04492.25488.0791.07715.06348.125.15527.13672.27734l.75195,6.20508c.0459.38184.37012.6416.75586.66016.38379-.00586.70117-.30078.73535-.68262l.6709-7.47266c.00098-.10254.04102-.19824.11328-.26855.03906-.03906.17188-.12012.24609-.10059.19727.00195.35645.17188.35449.37207l-.12598,7.125c-.00684.38379.27734.71094.65723.75781.37207.05078.73535-.2002.82324-.57324l1.26855-5.43066c.01953-.13574.09961-.21289.14648-.24707.04395-.03223.13574-.08203.25684-.06445.19727.03027.33203.22168.2998.44531l-1.2334,10.00879c-.04199.58594.21387,1.26172.88086,1.44824.55762.15625,1.09668.0498,1.48828-.29004.06348-.05273.12012-.11719.16504-.19238l1.91309-3.16797c.04492-.08789.12012-.15137.21094-.18066.05176-.01562.15332-.03418.26465.02441.17969.0957.24805.3252.16309.49219Z"/></svg>