<svg xmlns="http://www.w3.org/2000/svg" viewBox="0 0 24 24"><title>Stop</title><path d="M11.20264,20.27392a7.29063,7.29063,0,0,1-3.72754-.8291h0C5.7002,18.16748,5.271,9.52,5.228,8.53857A1.26355,1.26355,0,0,1,7.64648,7.936L7.59082,6.10791A1.26313,1.26313,0,0,1,10.10791,5.894l.1748,1.4209.2168-2.374a1.2351,1.2351,0,0,1,.37891-.86036,1.28831,1.28831,0,0,1,.89648-.35937,1.26427,1.26427,0,0,1,1.24951,1.27637l-.03906,2.165.20654-.86914a1.26256,1.26256,0,0,1,2.4917.4082l-.98486,7.87207a.37.37,0,0,0,.03027.14551.36747.36747,0,0,0,.23194-.03125l1.47851-2.41114a1.23515,1.23515,0,0,1,.72852-.59765,1.2634,1.2634,0,0,1,1.498,1.79c-.06592.11718-1.49122,2.65918-2.07032,3.48535a11.30678,11.30678,0,0,1-2.92578,2.89062A5.87844,5.87844,0,0,1,11.20264,20.27392ZM6.48877,7.92529c-.0166,0-.0332.001-.04981.00195a.51337.51337,0,0,0-.46289.55957c.15772,3.58692.82227,9.54688,1.9375,10.34864h0a7.47059,7.47059,0,0,0,5.41651.34179A10.64258,10.64258,0,0,0,15.98145,16.523c.5581-.794,2.01025-3.38477,2.0249-3.41114a.51226.51226,0,0,0-.22266-.68261.49893.49893,0,0,0-.39062-.03418.5075.5075,0,0,0-.30127.25195l-1.52686,2.49121a.37724.37724,0,0,1-.084.0957,1.03458,1.03458,0,0,1-.98487.18653.84961.84961,0,0,1-.54345-.9209l.98828-7.90039a.51284.51284,0,0,0-.09326-.38965.50658.50658,0,0,0-.33643-.20312.5141.5141,0,0,0-.584.42968L12.9126,10.71142a.375.375,0,0,1-.73975-.09375l.10156-5.63086a.51314.51314,0,0,0-.50781-.51562.63324.63324,0,0,0-.36377.14551.51063.51063,0,0,0-.15478.3623l-.53711,5.88867a.37562.37562,0,0,1-.36768.34082.39569.39569,0,0,1-.37793-.3291L9.3623,5.9751a.51676.51676,0,0,0-.18554-.3584.5335.5335,0,0,0-.37451-.11524.51336.51336,0,0,0-.46289.55957L8.498,11.28271a.3751.3751,0,0,1-.73828.1045l-.752-2.93946A.57622.57622,0,0,0,6.814,8.04248.51024.51024,0,0,0,6.48877,7.92529Z" fill="#171717"/></svg>