<?xml version="1.0" encoding="UTF-8"?><svg id="a" xmlns="http://www.w3.org/2000/svg" viewBox="0 0 24 24"><path d="M5.85519,8.15056c-.26172.26074-.40625.60742-.40625.97754s.14453.7168.4043.97559c.26074.26172.60742.40625.97754.40625s.7168-.14453.97559-.4043c.26172-.26074.40625-.60742.40625-.97754,0-.36914-.14453-.71582-.40527-.97656-.52246-.52246-1.43555-.51953-1.95215-.00098ZM18.56027,9.1281c0-.36914-.14355-.71582-.4043-.97656-.53809-.53809-1.41406-.53906-1.9541,0-.53809.53809-.53809,1.41504,0,1.95312.26953.26953.62305.4043.97656.4043.35449,0,.70801-.13477.97754-.4043.26074-.26074.4043-.60742.4043-.97656ZM6.26437,14.30681c0,.76172-.61914,1.38184-1.38086,1.38184s-1.38184-.62012-1.38184-1.38184.62012-1.38086,1.38184-1.38086,1.38086.61914,1.38086,1.38086ZM19.11789,15.68865c-.76172,0-1.38086-.62012-1.38086-1.38184s.61914-1.38086,1.38086-1.38086,1.38184.61914,1.38184,1.38086-.62012,1.38184-1.38184,1.38184ZM11.99973,8.28728c.76172,0,1.38184-.62012,1.38184-1.38184s-.62012-1.38184-1.38184-1.38184-1.38086.62012-1.38086,1.38184.61914,1.38184,1.38086,1.38184ZM22.74973,14.02361c0,2.34863-.74316,4.5791-2.15039,6.4502l-1.19922-.90039c1.20996-1.61035,1.84961-3.5293,1.84961-5.5498,0-5.10059-4.14941-9.25-9.25-9.25-5.09961,0-9.24902,4.14941-9.24902,9.25,0,2.02148.63965,3.94043,1.84863,5.5498l-1.19922.90039c-1.40625-1.87012-2.14941-4.10156-2.14941-6.4502C1.2507,8.09588,6.07297,3.27361,11.99973,3.27361c5.92773,0,10.75,4.82227,10.75,10.75ZM16.20187,11.16521l-2.87335,2.87427c.08691.4375-.01312.90552-.35028,1.2439-.27051.26953-.625.4043-.97852.4043s-.70703-.13477-.97559-.40234c-.54004-.54004-.54004-1.41602-.00098-1.95508.33868-.33936.80731-.44019,1.24579-.35229l2.87238-2.87329,1.06055,1.06055Z"/></svg>