<svg xmlns="http://www.w3.org/2000/svg" viewBox="0 0 24.75 24.75"><defs><style>.cls-1{fill:none;stroke:#171717;stroke-miterlimit:10;stroke-width:0.75px;}.cls-2{fill:#171717;}</style></defs><title>Tachometer</title><g id="Ebene_2" data-name="Ebene 2"><g id="Ebene_1-2" data-name="Ebene 1"><rect class="cls-1" x="0.375" y="0.375" width="24" height="24"/><path class="cls-2" d="M12.35833,5.61572a8.30133,8.30133,0,0,0-8.292,8.292A8.20035,8.20035,0,0,0,5.8637,19.063l.58692-.4668a7.4582,7.4582,0,0,1-1.63428-4.68847,7.54175,7.54175,0,1,1,15.0835,0,7.46018,7.46018,0,0,1-1.63428,4.68847l.58691.4668a8.20388,8.20388,0,0,0,1.79688-5.15527A8.30081,8.30081,0,0,0,12.35833,5.61572Z"/><path class="cls-2" d="M5.86663,12.98371a.92383.92383,0,1,0,.92383.92382A.92482.92482,0,0,0,5.86663,12.98371Zm-.17431.92382a.17407.17407,0,0,1,.34814,0C6.04046,14.09992,5.69232,14.098,5.69232,13.90753Z"/><path class="cls-2" d="M7.77728,8.40033a.92383.92383,0,1,0,.92383.92383A.92482.92482,0,0,0,7.77728,8.40033ZM7.603,9.32416a.17408.17408,0,0,1,.34815,0C7.95111,9.51654,7.603,9.51459,7.603,9.32416Z"/><path class="cls-2" d="M12.37524,8.33948a.92383.92383,0,1,0-.92432-.92383A.92472.92472,0,0,0,12.37524,8.33948Zm0-1.09766a.17422.17422,0,0,1,.17383.17383c0,.19238-.34815.19043-.34815,0A.17432.17432,0,0,1,12.37524,7.24182Z"/><path class="cls-2" d="M16.94348,8.40033a.92383.92383,0,1,0,.92383.92383A.92482.92482,0,0,0,16.94348,8.40033Zm-.17432.92383a.17408.17408,0,0,1,.34815,0C17.11731,9.51654,16.76916,9.51459,16.76916,9.32416Z"/><path class="cls-2" d="M19.774,13.83368a.92407.92407,0,1,0-.92382.92383A.92472.92472,0,0,0,19.774,13.83368Zm-1.09814,0a.17407.17407,0,0,1,.34814,0C19.024,14.02606,18.6759,14.02411,18.6759,13.83368Z"/><path class="cls-2" d="M15.38079,10.356l-2.69165,2.69122a.90832.90832,0,0,0-.3139-.06347.92383.92383,0,1,0,.92383.92382.91466.91466,0,0,0-.06879-.34l2.68079-2.68036Zm-3.17987,3.55157a.17408.17408,0,0,1,.34815,0C12.54907,14.09992,12.20092,14.098,12.20092,13.90753Z"/></g></g></svg>
