<svg xmlns="http://www.w3.org/2000/svg" viewBox="0 0 24 24"><title>Tachometer</title><path d="M12,5.24072a8.30132,8.30132,0,0,0-8.292,8.292A8.20035,8.20035,0,0,0,5.50537,18.688l.58692-.4668A7.4582,7.4582,0,0,1,4.458,13.53272a7.54175,7.54175,0,1,1,15.08349,0,7.46023,7.46023,0,0,1-1.63427,4.68847l.58691.4668A8.20388,8.20388,0,0,0,20.291,13.53272,8.30081,8.30081,0,0,0,12,5.24072Z" fill="#171717"/><path d="M5.5083,12.60871a.92383.92383,0,1,0,.92383.92382A.92483.92483,0,0,0,5.5083,12.60871Zm-.17432.92382a.17408.17408,0,0,1,.34815,0C5.68213,13.72492,5.334,13.723,5.334,13.53253Z" fill="#171717"/><path d="M7.419,8.02533a.92383.92383,0,1,0,.92382.92383A.92482.92482,0,0,0,7.419,8.02533Zm-.17432.92383a.17407.17407,0,0,1,.34814,0C7.59277,9.14154,7.24463,9.13959,7.24463,8.94916Z" fill="#171717"/><path d="M12.01691,7.96448a.92383.92383,0,1,0-.92432-.92383A.92472.92472,0,0,0,12.01691,7.96448Zm0-1.09766a.17421.17421,0,0,1,.17382.17383c0,.19238-.34814.19043-.34814,0A.17432.17432,0,0,1,12.01691,6.86682Z" fill="#171717"/><path d="M16.58514,8.02533a.92383.92383,0,1,0,.92383.92383A.92482.92482,0,0,0,16.58514,8.02533Zm-.17431.92383a.17407.17407,0,0,1,.34814,0C16.759,9.14154,16.41083,9.13959,16.41083,8.94916Z" fill="#171717"/><path d="M19.41571,13.45868a.92407.92407,0,1,0-.92383.92383A.92472.92472,0,0,0,19.41571,13.45868Zm-1.09814,0a.17407.17407,0,0,1,.34814,0C18.66571,13.65106,18.31757,13.64911,18.31757,13.45868Z" fill="#171717"/><path d="M15.02246,9.981l-2.69165,2.69122a.90842.90842,0,0,0-.3139-.06347.92383.92383,0,1,0,.92382.92382.91485.91485,0,0,0-.06878-.34l2.68078-2.68036Zm-3.17987,3.55157a.17407.17407,0,0,1,.34814,0C12.19073,13.72492,11.84259,13.723,11.84259,13.53253Z" fill="#171717"/></svg>