<svg xmlns="http://www.w3.org/2000/svg" viewBox="0 0 16.58301 13.44727"><title>Tachometer</title>
	<path
		d="M8.292,0A8.30133,8.30133,0,0,0,0,8.292a8.20038,8.20038,0,0,0,1.79736,5.15528l.58692-.4668A7.45823,7.45823,0,0,1,.75,8.292a7.54175,7.54175,0,1,1,15.0835,0,7.46029,7.46029,0,0,1-1.63428,4.68848l.58691.4668A8.2039,8.2039,0,0,0,16.583,8.292,8.30081,8.30081,0,0,0,8.292,0Z"
		fill="#171717"/>
	<path
		d="M1.80029,7.368a.92383.92383,0,1,0,.92383.92383A.92482.92482,0,0,0,1.80029,7.368ZM1.626,8.29181a.17407.17407,0,0,1,.34814,0C1.97412,8.48419,1.626,8.48224,1.626,8.29181Z"
		fill="#171717"/>
	<path
		d="M3.71094,2.78461a.92383.92383,0,1,0,.92383.92383A.92482.92482,0,0,0,3.71094,2.78461Zm-.17432.92383a.17408.17408,0,0,1,.34815,0C3.88477,3.90082,3.53662,3.89886,3.53662,3.70844Z"
		fill="#171717"/>
	<path
		d="M8.3089,2.72375a.92383.92383,0,1,0-.92432-.92382A.92472.92472,0,0,0,8.3089,2.72375Zm0-1.09765a.17421.17421,0,0,1,.17383.17383c0,.19238-.34815.19043-.34815,0A.17432.17432,0,0,1,8.3089,1.6261Z"
		fill="#171717"/>
	<path
		d="M12.87714,2.78461a.92383.92383,0,1,0,.92382.92383A.92482.92482,0,0,0,12.87714,2.78461Zm-.17432.92383a.17407.17407,0,0,1,.34814,0C13.051,3.90082,12.70282,3.89886,12.70282,3.70844Z"
		fill="#171717"/>
	<path
		d="M15.7077,8.218a.92407.92407,0,1,0-.92383.92382A.92472.92472,0,0,0,15.7077,8.218Zm-1.09814,0a.17407.17407,0,0,1,.34814,0C14.9577,8.41034,14.60956,8.40839,14.60956,8.218Z"
		fill="#171717"/>
	<path
		d="M11.31445,4.74023,8.6228,7.43146A.9081.9081,0,0,0,8.3089,7.368a.92383.92383,0,1,0,.92383.92383.91491.91491,0,0,0-.06879-.34l2.68079-2.68036ZM8.13458,8.29181a.17408.17408,0,0,1,.34815,0C8.48273,8.48419,8.13458,8.48224,8.13458,8.29181Z"
		fill="#171717"/>
</svg>
