<svg xmlns="http://www.w3.org/2000/svg" viewBox="0 0 24 24"><title>Tachometer</title><path d="M5.85519,8.127a1.38185,1.38185,0,1,0,1.95215.001A1.41544,1.41544,0,0,0,5.85519,8.127Z" fill="#171717"/><path d="M18.56027,9.10457a1.38033,1.38033,0,1,0-.40429.97657A1.37166,1.37166,0,0,0,18.56027,9.10457Z" fill="#171717"/><path d="M4.88351,12.90243a1.38135,1.38135,0,1,0,1.38086,1.38085A1.38286,1.38286,0,0,0,4.88351,12.90243Z" fill="#171717"/><path d="M20.49973,14.28328a1.38135,1.38135,0,1,0-1.38184,1.38184A1.38286,1.38286,0,0,0,20.49973,14.28328Z" fill="#171717"/><path d="M11.99973,8.26375a1.38184,1.38184,0,1,0-1.38086-1.38183A1.38369,1.38369,0,0,0,11.99973,8.26375Z" fill="#171717"/><path d="M11.99973,3.25008a10.76176,10.76176,0,0,0-10.749,10.75,10.65169,10.65169,0,0,0,2.14942,6.4502l1.19921-.90039a9.25009,9.25009,0,1,1,16.6504-5.54981,9.16833,9.16833,0,0,1-1.84961,5.54981l1.19921.90039a10.64842,10.64842,0,0,0,2.1504-6.4502A10.762,10.762,0,0,0,11.99973,3.25008Z" fill="#171717"/><path d="M15.14133,10.08114,12.269,12.95443a1.3568,1.3568,0,0,0-1.24579.35229,1.38176,1.38176,0,0,0,1.95508,1.95313,1.3609,1.3609,0,0,0,.35028-1.2439l2.87335-2.87427Z" fill="#171717"/></svg>