<svg xmlns="http://www.w3.org/2000/svg" viewBox="0 0 24.75 24.75"><defs><style>.cls-1{fill:none;stroke:#171717;stroke-miterlimit:10;stroke-width:0.75px;}</style></defs><title>Tag</title><g id="Ebene_2" data-name="Ebene 2"><g id="Ebene_1-2" data-name="Ebene 1"><rect class="cls-1" x="0.375" y="0.375" width="24" height="24"/><path d="M9.65374,4.70166H4.83294V9.68115l10.3794,10.37891.26513-.27344c4.292-4.42871,4.30274-4.44043,4.30664-4.44531l.24463-.26465Zm5.54981,14.29L5.58294,9.37061V5.45166H9.3432l9.63964,9.63965C18.22161,15.87744,15.9765,18.19385,15.20355,18.9917Z"/><path d="M7.80267,6.24561a1.5,1.5,0,1,0,1.5,1.5A1.50164,1.50164,0,0,0,7.80267,6.24561Zm0,2a.5.5,0,1,1,.5-.5A.50065.50065,0,0,1,7.80267,8.24561Z"/></g></g></svg>
