<?xml version="1.0" encoding="UTF-8"?><svg id="a" xmlns="http://www.w3.org/2000/svg" viewBox="0 0 24 24"><path d="M8.72922,2.27361H2.24973v6.47949l13.33203,13.33105,6.47852-6.47949L8.72922,2.27361ZM3.74973,8.13201V3.77361h4.3584l11.83105,11.83105-4.35742,4.3584L3.74973,8.13201ZM6.5134,8.5499c-1.11035,0-2.01367-.90332-2.01367-2.01367,0-1.10938.90332-2.0127,2.01367-2.0127,1.10938,0,2.0127.90332,2.0127,2.0127,0,1.11035-.90332,2.01367-2.0127,2.01367ZM6.5134,6.02353c-.2832,0-.51367.23047-.51367.5127,0,.2832.23047.51367.51367.51367.28223,0,.5127-.23047.5127-.51367,0-.28223-.23047-.5127-.5127-.5127Z"/></svg>