<svg xmlns="http://www.w3.org/2000/svg" viewBox="0 0 24 24"><title>Tag</title><path d="M9.29541,4.32666H4.47461V9.30615L14.854,19.68506l.26514-.27344c4.292-4.42871,4.30274-4.44043,4.30664-4.44531l.24463-.26465Zm5.5498,14.29L5.22461,8.99561V5.07666H8.98486l9.63965,9.63965C17.86328,15.50244,15.61816,17.81885,14.84521,18.6167Z" fill="#171717"/><path d="M7.44434,5.87061a1.5,1.5,0,1,0,1.5,1.5A1.50164,1.50164,0,0,0,7.44434,5.87061Zm0,2a.5.5,0,1,1,.5-.5A.50065.50065,0,0,1,7.44434,7.87061Z" fill="#171717"/></svg>