<svg xmlns="http://www.w3.org/2000/svg" viewBox="0 0 15.1958 15.3584"><title>Tag</title>
	<path
		d="M4.8208,0H0V4.97949L10.37939,15.3584l.26514-.27344c4.292-4.42871,4.30274-4.44043,4.30664-4.44531l.24463-.26465Zm5.54981,14.29L.75,4.669V.75H4.51025l9.63965,9.63965C13.38867,11.17578,11.14355,13.49219,10.37061,14.29Z"
		fill="#171717"/>
	<path d="M2.96973,1.544a1.5,1.5,0,1,0,1.5,1.5A1.50164,1.50164,0,0,0,2.96973,1.544Zm0,2a.5.5,0,1,1,.5-.5A.50065.50065,0,0,1,2.96973,3.544Z" fill="#171717"/>
</svg>
