<?xml version="1.0" encoding="UTF-8"?><svg id="a" xmlns="http://www.w3.org/2000/svg" viewBox="0 0 24 24"><path d="M12,1.25C6.07227,1.25,1.25,6.07227,1.25,12c0,5.92725,4.82227,10.74951,10.75,10.74951,5.92725,0,10.74951-4.82227,10.74951-10.74951,0-5.92773-4.82227-10.75-10.74951-10.75ZM21.21149,11.25h-2.29309c-.349-3.23975-2.92865-5.81934-6.1684-6.16846v-2.29346c4.50171.36377,8.0976,3.95996,8.46149,8.46191ZM12,13.6709c-.92139,0-1.67139-.74951-1.67139-1.6709s.75-1.67139,1.67139-1.67139,1.6709.75,1.6709,1.67139-.74951,1.6709-1.6709,1.6709ZM11.25,8.92822c-1.14435.27979-2.04205,1.17773-2.32208,2.32178h-2.33063c.3335-2.41016,2.24231-4.31885,4.65271-4.65234v2.33057ZM8.92798,12.75c.28003,1.14453,1.17773,2.04199,2.32202,2.32178v2.33105c-2.4104-.3335-4.31921-2.24219-4.65271-4.65283h2.33069ZM12.75,15.07178c1.14423-.27979,2.04169-1.17725,2.32159-2.32178h2.33112c-.3335,2.41064-2.24231,4.31934-4.65271,4.65283v-2.33105ZM15.07166,11.25c-.27991-1.14404-1.17743-2.04199-2.32166-2.32178v-2.33057c2.4104.3335,4.31921,2.24219,4.65271,4.65234h-2.33105ZM11.25,2.78809v2.29346c-3.23975.34912-5.8194,2.92871-6.1684,6.16846h-2.29358c.36389-4.50195,3.95978-8.09814,8.46198-8.46191ZM2.78802,12.75h2.29358c.349,3.23975,2.92865,5.81982,6.1684,6.16846v2.29297c-4.50214-.36377-8.09808-3.95947-8.46198-8.46143ZM12.75,21.21143v-2.29297c3.23975-.34863,5.8194-2.92871,6.1684-6.16846h2.29309c-.36389,4.50195-3.95984,8.09766-8.46149,8.46143Z"/></svg>