<svg xmlns="http://www.w3.org/2000/svg" viewBox="0 0 24.75 24.75"><defs><style>.cls-1{fill:none;stroke:#171717;stroke-miterlimit:10;stroke-width:0.75px;}.cls-2{fill:#171717;}</style></defs><title>ThumbsUp</title><g id="Ebene_2" data-name="Ebene 2"><g id="Ebene_1-2" data-name="Ebene 1"><rect class="cls-1" x="0.375" y="0.375" width="24" height="24"/><path class="cls-2" d="M19.88128,13.93115a1.40966,1.40966,0,0,0-.84863-1.377,1.41474,1.41474,0,0,0-.27393-1.8418,1.37247,1.37247,0,0,0-1.00537-.335l-.97754.00879s-.95459.00391-1.54492.00489a17.95441,17.95441,0,0,0,.42285-2.62793c-.00293-.52832-.05761-1.07227-.10205-1.50879L15.52093,5.939a1.31641,1.31641,0,0,0-.50879-.9209,1.4458,1.4458,0,0,0-1.106-.291A1.42711,1.42711,0,0,0,12.75286,5.8833a3.40029,3.40029,0,0,0-.03515.34278c-.01807.2539-.0459.6416-.11865,1.08984a2.99341,2.99341,0,0,1-.7002,1.56543,4.81443,4.81443,0,0,1-1.46875,1.1084,4.1187,4.1187,0,0,1-.47363.15527,4.71625,4.71625,0,0,0-.707.25031V9.9917a.3751.3751,0,0,0-.375-.375H5.20794a.3751.3751,0,0,0-.375.375v9.36817a.3751.3751,0,0,0,.375.375H8.87445a.3751.3751,0,0,0,.375-.375v-.49708a9.42812,9.42812,0,0,0,4.58984.88184,26.78643,26.78643,0,0,0,3.124-.19238,1.41648,1.41648,0,0,0,1.38037-2.15039,1.43451,1.43451,0,0,0,.41456-.20508,1.41522,1.41522,0,0,0,.27148-2.05078A1.4193,1.4193,0,0,0,19.88128,13.93115ZM8.49945,18.98487H5.58294V10.3667H8.49945Zm9.92675-4.47266a.3204.3204,0,0,0-.17236.03027l-.29834.12989a.37518.37518,0,0,0,.08838.71386.66752.66752,0,0,1,.54834.76758.66694.66694,0,0,1-.76758.54785.48781.48781,0,0,0-.1001-.00293l-.4541.04688a.37506.37506,0,0,0-.02246.74316.66683.66683,0,1,1-.21973,1.31543.4541.4541,0,0,0-.10937-.002c-1.7934.2287-6.56482.49249-7.66943-.9101V11.314a1.79,1.79,0,0,1,.91455-.44831,4.89752,4.89752,0,0,0,.5625-.18652A5.48657,5.48657,0,0,0,12.435,9.40576a3.8212,3.8212,0,0,0,.9043-1.96972c.07715-.47559.10693-.88672.12646-1.15528.00831-.11523.0127-.19824.02051-.23925a.65207.65207,0,0,1,1.06348-.4336.57358.57358,0,0,1,.22412.39942l.03174.32226c.04492.44238.0957.94434.09814,1.4375a22.11763,22.11763,0,0,1-.50488,2.91406.37788.37788,0,0,0,.01758.22266c.09668.24121.09765.23633,2.36426.23242l1.00586-.00976a.6523.6523,0,0,1,.48584.15722.66157.66157,0,0,1,.23193.4541.6685.6685,0,0,1-.61231.71877.37542.37542,0,0,0-.34472.39647.39123.39123,0,0,0,.39013.35254l.56885-.02637a.6689.6689,0,0,1,.626.707A.68261.68261,0,0,1,18.4262,14.51221Z"/><path class="cls-2" d="M7.041,17.8335a.875.875,0,1,0-.875-.875A.87606.87606,0,0,0,7.041,17.8335Zm0-1a.12492.12492,0,0,1,.125.125c0,.13867-.25.13867-.25,0A.12492.12492,0,0,1,7.041,16.8335Z"/></g></g></svg>
