<svg xmlns="http://www.w3.org/2000/svg" viewBox="0 0 24.75 24.75"><defs><style>.cls-1{fill:none;stroke:#171717;stroke-miterlimit:10;stroke-width:0.75px;}.cls-2{fill:#171717;}</style></defs><title>ThumbsDown</title><g id="Ebene_2" data-name="Ebene 2"><g id="Ebene_1-2" data-name="Ebene 1"><rect class="cls-1" x="0.375" y="0.375" width="24" height="24"/><path class="cls-2" d="M19.88128,10.51514a1.42178,1.42178,0,0,0-.8501-1.21582c.01905-.02344.03809-.04785.05567-.07324a1.41638,1.41638,0,0,0-.32861-1.97754,1.43377,1.43377,0,0,0-.41553-.20508A1.41564,1.41564,0,0,0,16.9638,4.89307c-.81329-.10144-5.618-.62995-7.71435.67554V5.07666a.3751.3751,0,0,0-.375-.375H5.20794a.3751.3751,0,0,0-.375.375v9.36817a.3751.3751,0,0,0,.375.375H8.87445a.3751.3751,0,0,0,.375-.375v-.39411a4.73208,4.73208,0,0,0,.709.25055,3.91188,3.91188,0,0,1,.47217.1543,4.79466,4.79466,0,0,1,1.46826,1.1084,3.00449,3.00449,0,0,1,.7002,1.5664c.07275.44727.10058.83594.11865,1.08887a3.31656,3.31656,0,0,0,.03515.34375,1.43009,1.43009,0,0,0,1.15381,1.15625,1.409,1.409,0,0,0,.21241.01563,1.45242,1.45242,0,0,0,.894-.30762,1.319,1.319,0,0,0,.50781-.9209l.03076-.31543c.04444-.43652.09912-.98047.10205-1.50879a18.00343,18.00343,0,0,0-.42236-2.627c.59033.001,1.543.00488,1.543.00488l.95264.00684a1.39322,1.39322,0,0,0,1.03173-.334,1.415,1.415,0,0,0,.27832-1.835,1.41732,1.41732,0,0,0,.84424-1.38281ZM8.49945,14.06983H5.58294V5.45166H8.49945Zm10.4663-3.02735a.6517.6517,0,0,1-.42138.22266l-.60742-.02442a.38338.38338,0,0,0-.38965.35254.37544.37544,0,0,0,.34472.39649.66673.66673,0,0,1,.38038,1.17187.64845.64845,0,0,1-.5127.15625l-.981-.00781c-2.2417-.01172-2.24365-.00781-2.34961.20313a.37876.37876,0,0,0-.03027.251,22.11792,22.11792,0,0,1,.50488,2.91406c-.00244.49317-.05322.99512-.09814,1.4375l-.03174.32227a.57356.57356,0,0,1-.22412.39941.695.695,0,0,1-.53174.13965.685.685,0,0,1-.53125-.56933c-.00781-.044-.01269-.127-.021-.24219-.01953-.26856-.04931-.68066-.12646-1.15527a3.81461,3.81461,0,0,0-.9043-1.96973,5.46051,5.46051,0,0,0-1.70849-1.27441,4.93013,4.93013,0,0,0-.56055-.18555,1.79414,1.79414,0,0,1-.9165-.44928V6.55322c1.105-1.40271,5.87555-1.14074,7.66992-.91015a.40411.40411,0,0,0,.1084-.00195.66731.66731,0,0,1,.21972,1.3164.37505.37505,0,0,0,.02393.74317l.4541.04589a.37589.37589,0,0,0,.09912-.00293.6418.6418,0,0,1,.49756.11524.66662.66662,0,0,1-.27783,1.20019A.37522.37522,0,0,0,17.955,9.773l.29834.13086a.29825.29825,0,0,0,.17334.03027.66722.66722,0,0,1,.53906,1.1084Z"/><path class="cls-2" d="M7.041,12.91846a.875.875,0,1,0-.875-.875A.87606.87606,0,0,0,7.041,12.91846Zm0-1a.12492.12492,0,0,1,.125.125c0,.13867-.25.13867-.25,0A.12492.12492,0,0,1,7.041,11.91846Z"/></g></g></svg>
