<svg xmlns="http://www.w3.org/2000/svg" viewBox="0 0 24 24"><title>ThumbsUp</title><path d="M5.30734,19.18368a1.06543,1.06543,0,1,0-1.06543-1.06543A1.06695,1.06695,0,0,0,5.30734,19.18368Z" fill="#171717"/><path d="M21.05637,15.5909a2.05008,2.05008,0,0,0-.28028-3.28222,2.06625,2.06625,0,0,0-.54-2.42383,2.00951,2.00951,0,0,0-1.44824-.48926l-1.22949.01074s-.88184.00391-1.60059.00488a20.18141,20.18141,0,0,0,.46778-3.03613c-.00293-.6748-.07227-1.36328-.12793-1.916l-.04-.40821a1.93586,1.93586,0,0,0-.7461-1.35449A2.11663,2.11663,0,0,0,13.906,2.27352a2.07439,2.07439,0,0,0-1.68165,1.6748,4.363,4.363,0,0,0-.0498.47071c-.02246.31445-.05664.79492-.14551,1.34863a3.5146,3.5146,0,0,1-.80566,1.82519,5.8338,5.8338,0,0,1-1.76074,1.3379,4.93018,4.93018,0,0,1-.56153.18261c-.171.04932-.35278.10352-.53613.16724v-.094a.7502.7502,0,0,0-.75-.75H2.99973a.75019.75019,0,0,0-.75.75V21.00008a.75019.75019,0,0,0,.75.75H7.615a.7502.7502,0,0,0,.75-.75v-.167a13.70239,13.70239,0,0,0,5.56055.92383,33.38431,33.38431,0,0,0,3.87207-.23438,2.01581,2.01581,0,0,0,1.418-.374,2.06422,2.06422,0,0,0,.70312-2.47168,2.11919,2.11919,0,0,0,.29883-.17871,2.06354,2.06354,0,0,0,.584-2.71387A2.08446,2.08446,0,0,0,21.05637,15.5909ZM6.865,20.25008H3.74973V9.9366H6.865Zm13.19531-5.78027a.58889.58889,0,0,1-.40527.13965.78138.78138,0,0,0-.3457.06152l-.376.16406a.75038.75038,0,0,0,.17676,1.42774.56512.56512,0,0,1,.23437,1.01562.53945.53945,0,0,1-.41894.09668.68194.68194,0,0,0-.19922-.00586l-.57129.0586a.75015.75015,0,0,0-.04688,1.48632.56525.56525,0,0,1,.2334,1.01563.5557.5557,0,0,1-.418.09668.74539.74539,0,0,0-.21875-.00391c-3.23553.41529-8.11645.36377-9.33984-.969V10.96224a2.61911,2.61911,0,0,1,.95215-.40747,6.53423,6.53423,0,0,0,.73828-.24609,7.17565,7.17565,0,0,0,2.24119-1.668,5.109,5.109,0,0,0,1.21291-2.63379c.09766-.6084.13672-1.13477.16113-1.47949.00977-.12891.01465-.22559.02051-.26563a.54347.54347,0,0,1,.89453-.38574.446.446,0,0,1,.17774.31152l.041.42188c.05567.54785.11817,1.16992.1211,1.77343a27.16366,27.16366,0,0,1-.62893,3.61133.75261.75261,0,0,0,.06057.501c.21191.42187.208.41992,3.21093.41113l1.28614-.01269a.52226.52226,0,0,1,.4082.13183.56544.56544,0,0,1-.31934.99219.7515.7515,0,0,0-.68945.793.78139.78139,0,0,0,.7793.7041l.68848-.03125a.56531.56531,0,0,1,.33886.98633Z" fill="#171717"/></svg>