<svg xmlns="http://www.w3.org/2000/svg" viewBox="0 0 15.05091 15.03405"><title>ThumbsUp</title>
	<path
		d="M15.04834,9.22058a1.40968,1.40968,0,0,0-.84863-1.377,1.41476,1.41476,0,0,0-.27393-1.84179,1.3724,1.3724,0,0,0-1.00537-.335l-.97754.00879s-.95459.0039-1.54492.00488a17.95576,17.95576,0,0,0,.42285-2.62793c-.00293-.52832-.05762-1.07227-.10205-1.50879L10.688,1.22839a1.31645,1.31645,0,0,0-.50879-.9209,1.44581,1.44581,0,0,0-1.106-.291A1.42709,1.42709,0,0,0,7.91992,1.17273a3.39348,3.39348,0,0,0-.03515.34277c-.01807.25391-.0459.6416-.11866,1.08984a2.99332,2.99332,0,0,1-.70019,1.56543,4.81427,4.81427,0,0,1-1.46875,1.1084,4.11672,4.11672,0,0,1-.47363.15528,4.71555,4.71555,0,0,0-.707.2503V5.28112a.37509.37509,0,0,0-.375-.375H.375a.3751.3751,0,0,0-.375.375v9.36817a.3751.3751,0,0,0,.375.375H4.0415a.37509.37509,0,0,0,.375-.375v-.49707a9.42819,9.42819,0,0,0,4.58985.88183,26.78643,26.78643,0,0,0,3.124-.19238,1.41648,1.41648,0,0,0,1.38037-2.15039,1.43433,1.43433,0,0,0,.41455-.20508,1.41521,1.41521,0,0,0,.27149-2.05078A1.41928,1.41928,0,0,0,15.04834,9.22058ZM3.6665,14.27429H.75V5.65612H3.6665Zm9.92676-4.47266a.32041.32041,0,0,0-.17236.03028l-.29834.12988a.37519.37519,0,0,0,.08838.71387.66751.66751,0,0,1,.54834.76757.667.667,0,0,1-.76758.54786.48644.48644,0,0,0-.1001-.00293l-.4541.04687a.37506.37506,0,0,0-.02246.74317.66682.66682,0,1,1-.21973,1.31542.45461.45461,0,0,0-.10937-.00195c-1.7934.2287-6.56482.49249-7.66944-.91009V6.60345a1.79019,1.79019,0,0,1,.91455-.4483,4.89812,4.89812,0,0,0,.5625-.18653,5.4866,5.4866,0,0,0,1.7085-1.27343,3.82119,3.82119,0,0,0,.9043-1.96973c.07715-.47559.10693-.88672.12646-1.15527.0083-.11524.0127-.19824.02051-.23926A.65207.65207,0,0,1,9.7168.89734a.57356.57356,0,0,1,.22412.39941l.03174.32227c.04492.44238.0957.94433.09814,1.4375a22.11792,22.11792,0,0,1-.50488,2.91406.37784.37784,0,0,0,.01758.22265c.09668.24122.09765.23633,2.36425.23243l1.00586-.00977a.65228.65228,0,0,1,.48584.15723.6615.6615,0,0,1,.23194.4541.6685.6685,0,0,1-.61231.71876.37542.37542,0,0,0-.34472.39647.39123.39123,0,0,0,.39013.35254l.56885-.02637a.66891.66891,0,0,1,.626.707A.68261.68261,0,0,1,13.59326,9.80163Z"
		fill="#171717"/>
	<path
		d="M2.208,13.12292a.875.875,0,1,0-.875-.875A.87606.87606,0,0,0,2.208,13.12292Zm0-1a.12493.12493,0,0,1,.125.125c0,.13867-.25.13867-.25,0A.12493.12493,0,0,1,2.208,12.12292Z"
		fill="#171717"/>
</svg>
