<?xml version="1.0" encoding="UTF-8"?><svg id="a" xmlns="http://www.w3.org/2000/svg" viewBox="0 0 24 24"><path d="M5.30734,19.2072c.58789,0,1.06641-.47754,1.06641-1.06543s-.47852-1.06543-1.06641-1.06543-1.06543.47754-1.06543,1.06543.47754,1.06543,1.06543,1.06543ZM21.05637,15.61443c.41113-.36523.65625-.87012.69043-1.4209.04492-.77051-.33984-1.4707-.9707-1.86133.13965-.30859.20605-.65527.17773-1.01562-.04297-.5498-.29785-1.0498-.71777-1.4082-.41895-.3584-.95117-.5293-1.44824-.48926l-1.22949.01074s-.88184.00391-1.60059.00488c.19922-.95508.47168-2.38086.46777-3.03613-.00293-.6748-.07227-1.36328-.12793-1.91602l-.04004-.4082c-.0498-.53516-.31445-1.0166-.74609-1.35449-.45117-.35352-1.04004-.50684-1.60547-.42285-.83008.12598-1.49023.78223-1.68164,1.6748-.0166.07715-.0332.24023-.0498.4707-.02246.31445-.05664.79492-.14551,1.34863-.12207.75098-.42383,1.43359-.80566,1.8252-.48438.49512-1.07129,1.04102-1.76074,1.33789-.16604.07129-.36133.125-.56152.18262-.17096.04932-.35278.10352-.53613.16724v-.09399c0-.41406-.33594-.75-.75-.75H2.99973c-.41406,0-.75.33594-.75.75v11.81348c0,.41406.33594.75.75.75h4.61523c.41406,0,.75-.33594.75-.75v-.16699c1.48431.71997,3.65033.92383,5.56055.92383,1.79492,0,3.35156-.16992,3.87207-.23438.50098.06055,1.00195-.07617,1.41797-.37402.44727-.32031.74316-.7959.83398-1.33984.06543-.39648.01367-.78613-.13086-1.13184.10352-.05078.20312-.11035.29883-.17871.44727-.32031.74414-.79688.83496-1.34082.08105-.49121-.01855-.97168-.25098-1.37305.08887-.05664.17383-.12207.25488-.19336ZM6.86496,20.27361h-3.11523v-10.31348h3.11523v10.31348ZM20.06027,14.49334c-.1123.09961-.27148.14648-.40527.13965-.12695-.00391-.2373.01465-.3457.06152l-.37598.16406c-.30469.13281-.48535.4502-.44434.7793.04102.33008.29297.59375.62109.64844.30566.05078.51367.3418.46191.64844-.02441.14941-.10547.2793-.22754.36719s-.27051.125-.41895.09668c-.06641-.01172-.13281-.01367-.19922-.00586l-.57129.05859c-.37402.03809-.66211.34668-.67383.72266-.01172.375.25586.70117.62695.76367.30566.05078.5127.3418.46094.64844-.02441.14941-.10547.2793-.22754.36719-.12207.08594-.26758.12207-.41797.09668-.07227-.0127-.14453-.0127-.21875-.00391-3.23553.41528-8.11646.36377-9.33984-.96899v-8.09131c.19238-.18018.58643-.30176.95215-.40747.26367-.07617.51953-.15234.73828-.24609.92871-.39941,1.6543-1.06738,2.24119-1.66797.85061-.87207,1.13186-2.13184,1.21291-2.63379.09766-.6084.13672-1.13477.16113-1.47949.00977-.12891.01465-.22559.02051-.26562.04688-.21875.1875-.4668.43848-.50488.15625-.02734.33008.02051.45605.11914.07324.05762.16406.1582.17773.31152l.04102.42188c.05566.54785.11816,1.16992.12109,1.77344s-.38379,2.53516-.62893,3.61133c-.03807.16895-.01658.34668.06057.50098q.21191.42188,3.21094.41113l1.28613-.0127c.15918-.01855.29492.03613.4082.13184.11426.09766.18359.23438.19531.38574.02539.30957-.20605.58203-.51465.60645-.40723.0332-.71387.38574-.68945.79297.02441.4082.41895.7207.7793.7041l.68848-.03125c.30957.01855.5459.28711.52734.59668-.00879.15137-.07617.28906-.18848.38965Z"/></svg>