<svg xmlns="http://www.w3.org/2000/svg" viewBox="0 0 24 24"><title>ThumbsDown</title><path d="M19.523,10.14014a1.42178,1.42178,0,0,0-.8501-1.21582c.019-.02344.03809-.04785.05567-.07324a1.41637,1.41637,0,0,0-.32862-1.97754,1.43371,1.43371,0,0,0-.41552-.20508,1.41565,1.41565,0,0,0-1.37891-2.15039c-.81329-.10144-5.618-.62995-7.71436.67554V4.70166a.3751.3751,0,0,0-.375-.375H4.84961a.3751.3751,0,0,0-.375.375v9.36817a.3751.3751,0,0,0,.375.375h3.6665a.3751.3751,0,0,0,.375-.375v-.39411a4.73218,4.73218,0,0,0,.709.25055,3.91246,3.91246,0,0,1,.47217.1543,4.79466,4.79466,0,0,1,1.46826,1.1084,3.00441,3.00441,0,0,1,.70019,1.5664c.07276.44727.10059.83594.11866,1.08887a3.31075,3.31075,0,0,0,.03515.34375,1.43006,1.43006,0,0,0,1.15381,1.15625,1.40886,1.40886,0,0,0,.2124.01563,1.45245,1.45245,0,0,0,.89405-.30762,1.319,1.319,0,0,0,.50781-.9209l.03076-.31543c.04443-.43652.09912-.98047.10205-1.50879a18.00479,18.00479,0,0,0-.42236-2.627c.59033.001,1.543.00488,1.543.00488l.95263.00684a1.39324,1.39324,0,0,0,1.03174-.334,1.41506,1.41506,0,0,0,.27832-1.835,1.41732,1.41732,0,0,0,.84424-1.38281ZM8.14111,13.69483H5.22461V5.07666h2.9165Zm10.46631-3.02735a.6517.6517,0,0,1-.42138.22266l-.60743-.02442a.38338.38338,0,0,0-.38965.35254.37546.37546,0,0,0,.34473.39649.66673.66673,0,0,1,.38037,1.17187.64842.64842,0,0,1-.51269.15625l-.981-.00781c-2.2417-.01172-2.24365-.00781-2.34961.20313a.3787.3787,0,0,0-.03027.251,22.11792,22.11792,0,0,1,.50488,2.91406c-.00244.49317-.05322.99512-.09814,1.4375l-.03174.32227a.57356.57356,0,0,1-.22412.39941.695.695,0,0,1-.53174.13965.68493.68493,0,0,1-.53125-.56933c-.00781-.044-.0127-.127-.021-.24219-.01953-.26856-.04931-.68066-.12646-1.15527a3.81461,3.81461,0,0,0-.9043-1.96973,5.46044,5.46044,0,0,0-1.7085-1.27441,4.92994,4.92994,0,0,0-.56054-.18555,1.79418,1.79418,0,0,1-.91651-.44928V6.17822c1.105-1.40271,5.87555-1.14074,7.66993-.91015a.404.404,0,0,0,.10839-.00195.66731.66731,0,0,1,.21973,1.3164.37505.37505,0,0,0,.02393.74317l.4541.04589a.37591.37591,0,0,0,.09912-.00293.6418.6418,0,0,1,.49756.11524A.66663.66663,0,0,1,17.686,8.68408a.37522.37522,0,0,0-.08936.71387l.29834.13086a.29825.29825,0,0,0,.17334.03027.66722.66722,0,0,1,.53906,1.1084Z" fill="#171717"/><path d="M6.68262,12.54346a.875.875,0,1,0-.875-.875A.87606.87606,0,0,0,6.68262,12.54346Zm0-1a.12493.12493,0,0,1,.125.125c0,.13867-.25.13867-.25,0A.12492.12492,0,0,1,6.68262,11.54346Z" fill="#171717"/></svg>