<?xml version="1.0" encoding="UTF-8"?><svg id="a" xmlns="http://www.w3.org/2000/svg" viewBox="0 0 24 24"><path d="M5.30734,13.33709c.58789,0,1.06641-.47754,1.06641-1.06543s-.47852-1.06543-1.06641-1.06543-1.06543.47754-1.06543,1.06543.47754,1.06543,1.06543,1.06543ZM21.7468,9.85174c-.03418-.54883-.2793-1.05371-.69043-1.41895-.08105-.07129-.16602-.13672-.25488-.19336.23242-.40137.33203-.88184.25098-1.37305-.09082-.54395-.3877-1.02051-.83496-1.34082-.0957-.06836-.19531-.12793-.29883-.17871.14453-.3457.19629-.73535.13086-1.13184-.09082-.54395-.38672-1.01953-.83398-1.33984-.41602-.29883-.91897-.43457-1.41797-.37402-1.07361-.13281-6.55267-.71216-9.43262.68042v-.15796c0-.41406-.33594-.75-.75-.75H2.99973c-.41406,0-.75.33594-.75.75v11.81348c0,.41406.33594.75.75.75h4.61523c.41406,0,.75-.33594.75-.75v-.09424c.18335.06372.36517.11816.53613.16748.2002.05762.39549.11133.5625.18359.68848.2959,1.27539.8418,1.75879,1.33594.38281.39258.68457,1.0752.80664,1.8252.08887.55469.12305,1.03516.14551,1.34961.0166.23047.0332.39355.0498.47168.19141.8916.85156,1.54785,1.68262,1.6748.10254.01465.20605.02246.30859.02246.4668,0,.92578-.15625,1.2959-.44629.43164-.33789.69629-.81934.74609-1.35449l.04004-.4082c.05566-.55273.125-1.24121.12793-1.91602.00391-.65527-.26855-2.08105-.46777-3.03613.71777.00098,1.59668.00488,1.59668.00488l1.18066.00879c.54395.03613,1.08105-.12891,1.50098-.4873s.6748-.8584.71777-1.40723c.02832-.35645-.03613-.69922-.17285-1.00488.61816-.38867,1.01172-1.09473.96582-1.875ZM6.86496,14.08709h-3.11523V3.77361h3.11523v10.31348ZM19.79758,10.54021l-.76465-.03125c-.00977-.00098-.02051-.00098-.03125-.00098-.39453,0-.72363.30762-.74805.70508-.02441.40723.28223.75977.68945.79297.30859.02441.54004.29688.51465.60742-.01172.15039-.08105.28711-.19531.38477-.11426.09668-.26465.14258-.46094.12988l-1.2373-.01074q-2.99121-.01074-3.20703.41113c-.07715.15527-.09863.33203-.06057.50098.24514,1.07617.63186,3.00781.62893,3.61133s-.06543,1.22559-.12109,1.77344l-.04102.42188c-.01367.15332-.10449.25391-.17773.31152-.12598.09766-.29492.14062-.45508.12012-.25195-.03906-.39258-.28711-.43652-.49023-.00879-.05566-.01367-.15234-.02344-.28125-.02441-.34473-.06348-.87109-.16113-1.48047-.08105-.50098-.3623-1.76074-1.21387-2.63379-.58594-.59961-1.31152-1.26758-2.23926-1.66602-.21973-.09473-.47559-.1709-.73926-.24707-.36572-.10596-.75977-.22729-.95215-.40747V4.97014c1.22345-1.33276,6.10339-1.38354,9.33984-.96899.07422.00977.14648.00879.21875-.00391.15039-.03027.2959.00977.41797.09668.12207.08789.20312.21777.22754.36719.05176.30664-.15527.59766-.46094.64844-.37109.0625-.63867.38867-.62695.76367.01172.37598.2998.68457.67383.72266l.57129.05859c.06641.00684.13281.00488.19922-.00586.14648-.0293.2959.00879.41895.09668.12207.08789.20312.21777.22754.36719.05176.30664-.15625.59766-.46191.64844-.32812.05469-.58008.31836-.62109.64844-.04102.3291.13965.64648.44434.7793l.37598.16406c.1084.0459.21777.06543.3457.06152.13281-.0127.29297.04004.40527.13965.1123.10059.17969.23828.18848.3877.01855.31152-.21777.58008-.45117.59863Z"/></svg>