<svg xmlns="http://www.w3.org/2000/svg" viewBox="0 0 15.05091 15.0332"><title>ThumbsDown</title>
	<path
		d="M15.04834,5.81348a1.42178,1.42178,0,0,0-.8501-1.21582c.01905-.02344.03809-.04786.05567-.07325a1.41636,1.41636,0,0,0-.32862-1.97753,1.43359,1.43359,0,0,0-.41552-.20508A1.41564,1.41564,0,0,0,12.13086.19141C11.31757.09,6.51288-.43854,4.4165.86694V.375A.37509.37509,0,0,0,4.0415,0H.375A.3751.3751,0,0,0,0,.375V9.74316a.37509.37509,0,0,0,.375.375H4.0415a.37509.37509,0,0,0,.375-.375v-.3941a4.73218,4.73218,0,0,0,.709.25055,3.91188,3.91188,0,0,1,.47217.1543A4.79464,4.79464,0,0,1,7.06592,10.8623a3.00448,3.00448,0,0,1,.70019,1.56641c.07276.44727.10059.83594.11866,1.08887a3.31075,3.31075,0,0,0,.03515.34375,1.43008,1.43008,0,0,0,1.15381,1.15625,1.40885,1.40885,0,0,0,.2124.01562,1.45244,1.45244,0,0,0,.89405-.30761,1.319,1.319,0,0,0,.50781-.9209l.03076-.31543c.04443-.43653.09912-.98047.10205-1.50879a18.00479,18.00479,0,0,0-.42236-2.627c.59033.001,1.543.00488,1.543.00488l.95263.00683a1.39323,1.39323,0,0,0,1.03174-.334,1.41507,1.41507,0,0,0,.27832-1.835,1.41732,1.41732,0,0,0,.84424-1.38281ZM3.6665,9.36816H.75V.75H3.6665ZM14.13281,6.34082a.6517.6517,0,0,1-.42138.22266L13.104,6.53906a.38336.38336,0,0,0-.38964.35254.37545.37545,0,0,0,.34472.39649A.66673.66673,0,0,1,13.43945,8.46a.64842.64842,0,0,1-.51269.15625l-.981-.00781c-2.2417-.01172-2.24365-.00781-2.34961.20312a.37879.37879,0,0,0-.03027.251,22.11763,22.11763,0,0,1,.50488,2.91406c-.00244.49317-.05322.99512-.09814,1.4375l-.03174.32227a.57358.57358,0,0,1-.22412.39941.69511.69511,0,0,1-.53174.13965.68495.68495,0,0,1-.53125-.56934c-.00781-.04394-.0127-.12695-.021-.24218-.01953-.26856-.04931-.68067-.12646-1.15528a3.81462,3.81462,0,0,0-.9043-1.96972,5.46062,5.46062,0,0,0-1.7085-1.27442A4.928,4.928,0,0,0,5.333,8.87891a1.79426,1.79426,0,0,1-.91651-.44928V1.85156C5.52148.44885,10.29205.71082,12.08643.94141a.40362.40362,0,0,0,.10839-.002.66731.66731,0,0,1,.21973,1.31641.375.375,0,0,0,.02393.74316l.4541.0459A.37591.37591,0,0,0,12.9917,3.042a.6418.6418,0,0,1,.49756.11524.66663.66663,0,0,1-.27783,1.20019.37522.37522,0,0,0-.08936.71387l.29834.13086a.29833.29833,0,0,0,.17334.03027.66722.66722,0,0,1,.53906,1.1084Z"
		fill="#171717"/>
	<path
		d="M2.208,8.2168a.875.875,0,1,0-.875-.875A.87606.87606,0,0,0,2.208,8.2168Zm0-1a.12492.12492,0,0,1,.125.125c0,.13867-.25.13867-.25,0A.12492.12492,0,0,1,2.208,7.2168Z"
		fill="#171717"/>
</svg>
