<svg xmlns="http://www.w3.org/2000/svg" viewBox="0 0 24 24"><title>ThumbsDown</title><path d="M5.30734,13.31356a1.06543,1.06543,0,1,0-1.06543-1.06543A1.06695,1.06695,0,0,0,5.30734,13.31356Z" fill="#171717"/><path d="M21.7468,9.82821a2.05828,2.05828,0,0,0-.69043-1.419,2.08446,2.08446,0,0,0-.25489-.19336,2.06354,2.06354,0,0,0-.584-2.71387,2.12014,2.12014,0,0,0-.29883-.17871,2.06423,2.06423,0,0,0-.70312-2.47168,2.01357,2.01357,0,0,0-1.418-.374C16.724,2.34481,11.2449,1.76546,8.365,3.158v-.158a.7502.7502,0,0,0-.75-.75H2.99973a.75019.75019,0,0,0-.75.75V14.81356a.75019.75019,0,0,0,.75.75H7.615a.7502.7502,0,0,0,.75-.75v-.09424c.18335.06372.36517.11816.53613.16748a4.81829,4.81829,0,0,1,.5625.18359,5.81952,5.81952,0,0,1,1.75879,1.33594,3.5147,3.5147,0,0,1,.80664,1.8252c.08887.55468.12305,1.03515.14551,1.34961a4.42277,4.42277,0,0,0,.0498.47168,2.07669,2.07669,0,0,0,1.68262,1.6748,2.18684,2.18684,0,0,0,.3086.02246,2.10553,2.10553,0,0,0,1.29589-.44629,1.93584,1.93584,0,0,0,.7461-1.35449l.04-.4082c.05566-.55274.125-1.24121.12793-1.916a20.1816,20.1816,0,0,0-.46778-3.03613c.71778.001,1.59668.00488,1.59668.00488l1.18067.00879a2.08491,2.08491,0,0,0,1.501-.4873,2.06485,2.06485,0,0,0,.54493-2.41211A2.0705,2.0705,0,0,0,21.7468,9.82821ZM6.865,14.06356H3.74973V3.75008H6.865Zm12.93262-3.54688-.76465-.03125c-.00977-.001-.02051-.001-.03125-.001a.7502.7502,0,0,0-.0586,1.498.56539.56539,0,0,1,.31934.99219.62005.62005,0,0,1-.46094.12988l-1.2373-.01074c-2.99121-.01074-2.99512-.01074-3.207.41113a.75334.75334,0,0,0-.06057.501,27.16366,27.16366,0,0,1,.62893,3.61133c-.00293.60351-.06543,1.22558-.1211,1.77344l-.041.42187a.446.446,0,0,1-.17774.31152.62348.62348,0,0,1-.45508.12012.59256.59256,0,0,1-.43652-.49023c-.00879-.05567-.01367-.15235-.02344-.28125-.02441-.34473-.06347-.8711-.16113-1.48047a5.11071,5.11071,0,0,0-1.21387-2.63379,7.1623,7.1623,0,0,0-2.23925-1.666,6.425,6.425,0,0,0-.73926-.24707,2.62322,2.62322,0,0,1-.95215-.40747V4.94661c1.22345-1.33276,6.10339-1.38354,9.33984-.969a.71329.71329,0,0,0,.21875-.00391.53152.53152,0,0,1,.418.09668.56525.56525,0,0,1-.2334,1.01563A.75015.75015,0,0,0,18.155,6.57235l.57129.05859a.75681.75681,0,0,0,.19922-.00586.5382.5382,0,0,1,.41894.09668.56513.56513,0,0,1-.23437,1.01563.75037.75037,0,0,0-.17676,1.42773l.376.16406a.793.793,0,0,0,.3457.06153.56932.56932,0,0,1,.14258,1.126Z" fill="#171717"/></svg>