<svg xmlns="http://www.w3.org/2000/svg" viewBox="0 0 24 24"><title>ThumbsUp</title><path d="M19.523,13.55615a1.40967,1.40967,0,0,0-.84863-1.377,1.41477,1.41477,0,0,0-.27393-1.8418,1.37249,1.37249,0,0,0-1.00537-.335l-.97754.00879s-.95459.00391-1.54492.00489a17.95576,17.95576,0,0,0,.42285-2.62793c-.00293-.52832-.05762-1.07227-.10205-1.50879L15.1626,5.564a1.31645,1.31645,0,0,0-.50879-.9209,1.44581,1.44581,0,0,0-1.106-.291A1.4271,1.4271,0,0,0,12.39453,5.5083a3.39414,3.39414,0,0,0-.03515.34278c-.01807.2539-.0459.6416-.11866,1.08984a2.99332,2.99332,0,0,1-.70019,1.56543,4.81443,4.81443,0,0,1-1.46875,1.1084A4.11825,4.11825,0,0,1,9.59814,9.77a4.717,4.717,0,0,0-.707.25031V9.6167a.3751.3751,0,0,0-.375-.375H4.84961a.3751.3751,0,0,0-.375.375v9.36817a.3751.3751,0,0,0,.375.375h3.6665a.3751.3751,0,0,0,.375-.375v-.49708a9.42819,9.42819,0,0,0,4.58985.88184,26.78661,26.78661,0,0,0,3.124-.19238,1.41649,1.41649,0,0,0,1.38037-2.15039,1.43446,1.43446,0,0,0,.41455-.20508,1.41521,1.41521,0,0,0,.27149-2.05078A1.4193,1.4193,0,0,0,19.523,13.55615ZM8.14111,18.60987H5.22461V9.9917h2.9165Zm9.92676-4.47266a.3204.3204,0,0,0-.17236.03027l-.29834.12989a.37518.37518,0,0,0,.08838.71386.66752.66752,0,0,1,.54834.76758.66694.66694,0,0,1-.76758.54785.48785.48785,0,0,0-.1001-.00293l-.4541.04688a.37506.37506,0,0,0-.02246.74316.66683.66683,0,1,1-.21973,1.31543.4541.4541,0,0,0-.10937-.002c-1.7934.2287-6.56482.49249-7.66944-.9101V10.939a1.79012,1.79012,0,0,1,.91455-.44831,4.89622,4.89622,0,0,0,.5625-.18652,5.48662,5.48662,0,0,0,1.7085-1.27344A3.8212,3.8212,0,0,0,12.981,7.061c.07715-.47559.10693-.88672.12646-1.15528.0083-.11523.0127-.19824.02051-.23925a.65207.65207,0,0,1,1.06348-.4336.57358.57358,0,0,1,.22412.39942l.03174.32226c.04492.44238.0957.94434.09814,1.4375a22.11763,22.11763,0,0,1-.50488,2.91406.37788.37788,0,0,0,.01758.22266c.09668.24121.09765.23633,2.36425.23242l1.00586-.00976a.65227.65227,0,0,1,.48584.15722.66154.66154,0,0,1,.23194.4541.66851.66851,0,0,1-.61231.71877.37544.37544,0,0,0-.34473.39647.39125.39125,0,0,0,.39014.35254l.56885-.02637a.6689.6689,0,0,1,.626.707A.68261.68261,0,0,1,18.06787,14.13721Z" fill="#171717"/><path d="M6.68262,17.4585a.875.875,0,1,0-.875-.875A.87606.87606,0,0,0,6.68262,17.4585Zm0-1a.12493.12493,0,0,1,.125.125c0,.13867-.25.13867-.25,0A.12492.12492,0,0,1,6.68262,16.4585Z" fill="#171717"/></svg>