<?xml version="1.0" encoding="UTF-8"?><svg id="a" xmlns="http://www.w3.org/2000/svg" viewBox="0 0 24 24"><path d="M22.16867,9.72457l.58105-.13477v-5.33984H1.24973v5.44727l.62109.1084c1.07812.1875,1.86133,1.11719,1.86133,2.20801,0,1.0918-.7832,2.02148-1.86133,2.20898l-.62109.1084v5.41895h21.5v-5.51953l-.58008-.13477c-1.02539-.23828-1.74121-1.13672-1.74121-2.18555,0-1.0498.71582-1.94824,1.74023-2.18555ZM21.24973,15.37203v2.87793H2.74973v-2.71289c1.46973-.52441,2.48242-1.91797,2.48242-3.52344,0-1.60449-1.0127-2.99805-2.48242-3.52246v-2.74121h18.5v2.69727c-1.39258.56836-2.32129,1.91797-2.32129,3.46289,0,1.54395.92871,2.89355,2.32129,3.46191ZM13.5621,6.74996h1.5v1.5h-1.5v-1.5ZM13.5621,9.74996h1.5v1.5h-1.5v-1.5ZM13.5621,12.74996h1.5v1.5h-1.5v-1.5ZM13.5621,15.74996h1.5v1.5h-1.5v-1.5Z"/></svg>