<svg xmlns="http://www.w3.org/2000/svg" viewBox="0 0 15.37061 15.37012"><title>Ticket</title>
	<path
		d="M13.72363,3.833l-.26513.26562a1.57806,1.57806,0,0,1-2.18067-.001,1.5419,1.5419,0,0,1,0-2.18067l.26514-.26465L9.89014,0,0,9.88965l.26563.26465,1.14355,1.14355.24463.24463.26465-.26514a1.57934,1.57934,0,0,1,2.18017.001,1.54267,1.54267,0,0,1,.00489,2.17481c-.09259.09277-.27076.26806-.27076.26806s.3396.33716.82447.82471l.82324.82422,9.89014-9.88965ZM4.874,13.7002A2.29611,2.29611,0,0,0,4.62891,10.748a2.34211,2.34211,0,0,0-2.95411-.24414c-.18115-.18067-.42773-.42774-.61376-.61426l8.8291-8.8291.61377.61328a2.292,2.292,0,0,0,.24365,2.9541,2.34254,2.34254,0,0,0,2.95459.24414l.60791.6084-8.82959,8.8291C5.29492,14.124,5.05029,13.87793,4.874,13.7002Z"
		fill="#171717"/>
	<path
		d="M8.16309,6.29688,6.75977,7.34375l-1.6587-.5625.563,1.6582L4.6167,9.84277l1.751-.02246L7.37891,11.25l.51953-1.67187L9.5708,9.05859,8.14063,8.04785ZM7.29883,8.97852l-.18555.59765-.36084-.50976-.626.00683.37452-.501-.20069-.5918.59229.20117.501-.375-.00781.626L7.896,8.793Z"
		fill="#171717"/>
	<rect x="7.18998" y="3.90057" width="0.74992" height="0.75061" transform="translate(-0.80992 6.59389) rotate(-44.94729)" fill="#171717"/>
	<rect x="8.07377" y="4.78436" width="0.74992" height="0.75061" transform="translate(-1.17386 7.48539) rotate(-45)" fill="#171717"/>
	<rect x="8.95756" y="5.66815" width="0.74992" height="0.75061" transform="translate(-1.53994 8.36918) rotate(-45)" fill="#171717"/>
	<rect x="9.84142" y="6.55194" width="0.75027" height="0.75061" transform="translate(-1.90701 9.24756) rotate(-44.97363)" fill="#171717"/>
	<rect x="10.72528" y="7.43656" width="0.75061" height="0.74992" transform="translate(-2.26799 10.16187) rotate(-45.10552)" fill="#171717"/>
</svg>
