<svg xmlns="http://www.w3.org/2000/svg" viewBox="0 0 24.75 24.75"><defs><style>.cls-1{fill:none;stroke:#171717;stroke-miterlimit:10;stroke-width:0.75px;}.cls-2{fill:#171717;}</style></defs><title>Ticket</title><g id="Ebene_2" data-name="Ebene 2"><g id="Ebene_1-2" data-name="Ebene 1"><rect class="cls-1" x="0.375" y="0.375" width="24" height="24"/><path class="cls-2" d="M10.168,20.0559l-.82324-.82422c-.48488-.48744-.82449-.82447-.82449-.82447s.17819-.17554.27078-.2683h0a1.54267,1.54267,0,0,0-.00488-2.17481,1.57936,1.57936,0,0,0-2.18018-.001l-.26465.26514-.24462-.24464L4.95315,14.84008l-.26562-.26465,9.89013-9.88965,1.65283,1.65235-.26513.26464a1.5419,1.5419,0,0,0,0,2.18067,1.578,1.578,0,0,0,2.18066.001l.26514-.26563,1.647,1.64746ZM9.56155,18.386c.17627.17773.4209.42383.60644.60937l8.82959-8.8291-.60791-.6084a2.34253,2.34253,0,0,1-2.95459-.24414,2.292,2.292,0,0,1-.24365-2.9541l-.61377-.61328-8.8291,8.8291c.186.18652.43262.43359.61377.61426a2.3421,2.3421,0,0,1,2.9541.24414A2.2961,2.2961,0,0,1,9.56155,18.386Z"/><path d="M12.06643,15.93578,11.0552,14.5061l-1.751.02246,1.04737-1.40332L9.7886,11.467l1.65869.5625,1.40332-1.04687-.02246,1.751,1.43018,1.01075-1.67237.51953ZM11.44,13.75219l.36084.50976.18554-.59765.59717-.18555-.51025-.36035.00781-.626-.501.375-.59228-.20117.20068.5918-.37451.501Z"/><rect class="cls-2" x="11.87751" y="8.58636" width="0.74992" height="0.75061" transform="translate(-2.75032 11.27481) rotate(-44.94729)"/><rect class="cls-2" x="12.7613" y="9.47015" width="0.74992" height="0.75061" transform="translate(-3.1164 12.15745) rotate(-44.94729)"/><rect class="cls-2" x="13.64509" y="10.35393" width="0.74992" height="0.75061" transform="translate(-3.48248 13.04009) rotate(-44.94729)"/><rect class="cls-2" x="14.52895" y="11.23772" width="0.75027" height="0.75061" transform="translate(-3.84848 13.9229) rotate(-44.94729)"/><rect class="cls-2" x="15.41281" y="12.12235" width="0.75061" height="0.74992" transform="translate(-4.20838 14.86109) rotate(-45.10552)"/></g></g></svg>
