<svg xmlns="http://www.w3.org/2000/svg" viewBox="0 0 24 24"><title>Ticket</title><path d="M19.59543,6.7618l-.53027.53027a1.66143,1.66143,0,0,1-2.34961-2.34961l.53027-.53027L14.77414,1.93953l-12.835,12.834,2.47265,2.47266.53028-.53028a1.70271,1.70271,0,0,1,2.34961,0,1.66485,1.66485,0,0,1,.00586,2.34375c-.53614.53613-.53418.53809,1.39843,2.4707l.53028.53028,12.834-12.834ZM8.82,19.53035a3.17156,3.17156,0,0,0-.46778-3.875,3.23785,3.23785,0,0,0-3.87793-.46777l-.41406-.41406L14.77414,4.06063l.41406.415a3.16186,3.16186,0,0,0,4.34375,4.34375l.40723.40722L9.22629,19.93856C9.0925,19.80379,8.94894,19.66024,8.82,19.53035Z" fill="#171717"/><polygon points="12.311 10.619 10.893 11.661 9.082 11.007 9.737 12.817 8.698 14.234 10.493 14.256 11.601 15.798 12.11 14.033 13.875 13.524 12.333 12.416 12.311 10.619" fill="#171717"/><rect x="13.50859" y="8.99137" width="1.49984" height="1.49984" transform="translate(-2.71191 12.93545) rotate(-45)" fill="#171717"/><rect x="11.91777" y="7.40055" width="1.49984" height="1.49984" transform="translate(-2.05297 11.34463) rotate(-45)" fill="#171717"/><rect x="15.09941" y="10.58219" width="1.49984" height="1.49984" transform="translate(-3.37085 14.52627) rotate(-45)" fill="#171717"/></svg>