<svg xmlns="http://www.w3.org/2000/svg" viewBox="0 0 24 24"><title>Ticket</title><path d="M18.04239,8.14388l-.26514.26563a1.578,1.578,0,0,1-2.18066-.001,1.5419,1.5419,0,0,1,0-2.18067l.26513-.26464L14.20889,4.31087,4.31876,14.20052l.26562.26465,1.14356,1.14355.24462.24463.26465-.26513a1.57935,1.57935,0,0,1,2.18018.001A1.54267,1.54267,0,0,1,8.42227,17.764c-.09259.09277-.27075.26806-.27075.26806s.3396.33716.82446.82471l.82324.82422,9.89014-9.88965ZM9.19278,18.01107a2.2961,2.2961,0,0,0-.24512-2.95215,2.3421,2.3421,0,0,0-2.9541-.24414c-.18115-.18067-.42773-.42774-.61377-.61426l8.8291-8.8291.61377.61328a2.292,2.292,0,0,0,.24365,2.9541,2.34253,2.34253,0,0,0,2.95459.24414l.60791.6084-8.82959,8.8291C9.61368,18.4349,9.36905,18.1888,9.19278,18.01107Z" fill="#171717"/><path d="M12.48184,10.60775l-1.40332,1.04687-1.65869-.5625.563,1.65821L8.93546,14.15365l1.751-.02247,1.01123,1.42969.51953-1.67187,1.67237-.51953-1.43018-1.01075Zm-.86426,2.68164L11.432,13.887l-.36084-.50976-.626.00683.37451-.501-.20068-.5918.59228.20117.501-.375-.00781.626.51025.36035Z" fill="#171717"/><rect x="11.50874" y="8.21145" width="0.74992" height="0.75061" transform="translate(-2.59323 10.90473) rotate(-44.94729)" fill="#171717"/><rect x="12.39253" y="9.09523" width="0.74992" height="0.75061" transform="translate(-2.95717 11.80183) rotate(-45)" fill="#171717"/><rect x="13.27632" y="9.97902" width="0.74992" height="0.75061" transform="translate(-3.32325 12.68562) rotate(-45)" fill="#171717"/><rect x="14.16018" y="10.86281" width="0.75027" height="0.75061" transform="translate(-3.69033 13.5612) rotate(-44.97363)" fill="#171717"/><rect x="15.04404" y="11.74744" width="0.75061" height="0.74992" transform="translate(-4.05128 14.48955) rotate(-45.10552)" fill="#171717"/></svg>