<?xml version="1.0" encoding="UTF-8"?><svg id="a" xmlns="http://www.w3.org/2000/svg" viewBox="0 0 24 24"><path d="M19.59543,6.78533l-.53027.53027c-.64746.64551-1.7002.64746-2.34961,0-.64746-.64844-.64746-1.70215,0-2.34961l.53027-.53027-2.47168-2.47266L1.93918,14.79705l2.47266,2.47266.53027-.53027c.62695-.62695,1.72266-.62695,2.34961,0,.64453.64453.64746,1.69531.00586,2.34375q-.53613.53613,1.39844,2.4707l.53027.53027,12.83398-12.83398-2.46484-2.46484ZM8.82004,19.55388c.73633-1.21582.5791-2.82812-.46777-3.875-1.01172-1.01172-2.68457-1.19434-3.87793-.46777l-.41406-.41406L14.77414,4.08416l.41406.41504c-.73828,1.21582-.58301,2.82617.4668,3.87695,1.05273,1.05078,2.66309,1.20508,3.87695.4668l.40723.40723-10.71289,10.71191c-.13379-.13477-.27734-.27832-.40625-.4082ZM12.33273,12.43963l1.54199,1.1084-1.76465.50879-.50879,1.76465-1.1084-1.54199-1.79492-.02148,1.03906-1.41699-.65527-1.81055,1.81152.6543,1.41797-1.04199.02148,1.79688ZM15.31906,9.76482l-1.06055,1.06055-1.06055-1.06055,1.06055-1.06055,1.06055,1.06055ZM12.66769,9.23455l-1.06055-1.06055,1.06055-1.06055,1.06055,1.06055-1.06055,1.06055ZM15.84933,10.2951l1.06055,1.06055-1.06055,1.06055-1.06055-1.06055,1.06055-1.06055Z"/></svg>