<?xml version="1.0" encoding="UTF-8"?><svg id="a" xmlns="http://www.w3.org/2000/svg" viewBox="0 0 24 24"><path d="M12.1279,15.08138c-1.63074-.78906-3.11804-1.83105-4.3855-3.09863-1.40515,1.33398-3.05145,2.41406-4.86255,3.17676v-1.65137c1.42291-.6748,2.72803-1.55859,3.85522-2.63379-.87567-1.05566-1.61755-2.22559-2.20331-3.48145h1.6886c.44586.84375.9621,1.64551,1.55823,2.38184.97961-1.14893,1.76575-2.46094,2.35284-3.87549H1.98306v-1.5h5.0752V1.98275h1.5v2.4165h5.13184v1.5h-1.96204c-.6853,1.84473-1.67365,3.54346-2.94678,4.99951,1.13379,1.13965,2.46271,2.07812,3.91949,2.79492l-.57288,1.3877ZM22.01321,21.92806h-1.61359l-1.27069-3.20605h-4.96948l-1.27069,3.20605h-1.61359l4.36267-11.00684h2.0127l4.36267,11.00684ZM18.53433,17.22201l-1.89014-4.76855-1.89014,4.76855h3.78027Z"/></svg>