<svg xmlns="http://www.w3.org/2000/svg" viewBox="0 0 24 24"><title>Truck</title><path d="M15.82129,12.54639a2.292,2.292,0,1,0,2.2915,2.292A2.29476,2.29476,0,0,0,15.82129,12.54639Zm0,3.834a1.542,1.542,0,1,1,1.5415-1.542A1.54362,1.54362,0,0,1,15.82129,16.38037Z" fill="#171717"/><path d="M6.41064,12.54639a2.292,2.292,0,1,0,2.29151,2.292A2.29476,2.29476,0,0,0,6.41064,12.54639Zm0,3.834a1.542,1.542,0,1,1,1.54151-1.542A1.54363,1.54363,0,0,1,6.41064,16.38037Z" fill="#171717"/><path d="M8.59509,13.46338a2.56606,2.56606,0,0,1,.31836.75h4.40467a2.566,2.566,0,0,1,.31835-.75Z" fill="#171717"/><path d="M4.458,7.61963h9.98828v5.03412a2.56539,2.56539,0,0,1,.75-.3183V6.86963H3.708v7.34375h.19946A2.56578,2.56578,0,0,1,4.458,13.15747Z" fill="#171717"/><path d="M17.5249,7.61865H15.44629v4.67a1.88,1.88,0,0,1,.75,0v-3.92h1.06592l.18945.15137H16.44629v2.74121H19.561v3.20215h-1.19a1.88,1.88,0,0,1,0,.75h1.94049V9.84522ZM19.561,10.51123H17.19629V9.27h1.19336l1.17139.93653Z" fill="#171717"/><path d="M8.96039,14.46338a1.88,1.88,0,0,1,0,.75h4.31079a1.88,1.88,0,0,1,0-.75Z" fill="#171717"/></svg>