<svg xmlns="http://www.w3.org/2000/svg" viewBox="0 0 24 24"><title>Truck</title><path d="M17.115,12.93856a3.17139,3.17139,0,1,0,3.16895,3.17187A3.17333,3.17333,0,0,0,17.115,12.93856Zm0,4.84277a1.67139,1.67139,0,1,1,1.66895-1.6709A1.67148,1.67148,0,0,1,17.115,17.78133Z" fill="#171717"/><path d="M4.93918,12.92489a3.1709,3.1709,0,1,0,3.168,3.17089A3.17312,3.17312,0,0,0,4.93918,12.92489Zm0,4.84179a1.6709,1.6709,0,1,1,1.668-1.6709A1.67148,1.67148,0,0,1,4.93918,17.76668Z" fill="#171717"/><path d="M2.7507,13.0931V6.838H14.49094v6.614a3.73013,3.73013,0,0,1,1.5-.89112V5.338H1.2507V14.9786h.14783A3.73075,3.73075,0,0,1,2.7507,13.0931Z" fill="#171717"/><path d="M7.59171,13.4786a3.73,3.73,0,0,1,.89093,1.5h5.09075a3.73042,3.73042,0,0,1,.89081-1.5Z" fill="#171717"/><path d="M8.59872,15.35262a3.74663,3.74663,0,0,1,.00007,1.5h4.85845a3.74663,3.74663,0,0,1,.00007-1.5Z" fill="#171717"/><path d="M19.20969,6.838H16.365v5.60694a3.74808,3.74808,0,0,1,1.5-.00025V8.338h.88965l.55816.374H18.24v3.84912a3.687,3.687,0,0,1,.48761.189h2.52216v2.5957h-.478a3.71879,3.71879,0,0,1,.00256,1.5h1.97541V9.20907Zm2.04,4.41211H19.74V10.212h1.50977Z" fill="#171717"/></svg>