<?xml version="1.0" encoding="UTF-8"?><svg id="a" xmlns="http://www.w3.org/2000/svg" viewBox="0 0 24 24"><path d="M17.11496,12.96209c-1.74707,0-3.16797,1.42285-3.16797,3.17188,0,1.74805,1.4209,3.1709,3.16797,3.1709s3.16895-1.42285,3.16895-3.1709c0-1.74902-1.42188-3.17188-3.16895-3.17188ZM17.11496,17.80486c-.91992,0-1.66797-.75-1.66797-1.6709,0-.92188.74805-1.67188,1.66797-1.67188s1.66895.75,1.66895,1.67188c0,.9209-.74902,1.6709-1.66895,1.6709ZM4.93918,12.94842c-1.74707,0-3.16797,1.42285-3.16797,3.1709s1.4209,3.1709,3.16797,3.1709,3.16797-1.42285,3.16797-3.1709-1.4209-3.1709-3.16797-3.1709ZM4.93918,17.79021c-.91992,0-1.66797-.75-1.66797-1.6709s.74805-1.6709,1.66797-1.6709,1.66797.75,1.66797,1.6709-.74805,1.6709-1.66797,1.6709ZM1.39853,15.00213h-.14783V5.3615h14.74023v7.2229c-.56891.1814-1.08527.48047-1.5.89111v-6.61401H2.7507v6.25513c-.6347.46338-1.10852,1.12109-1.35217,1.8855ZM14.4642,13.50213c-.41058.41479-.70947.93115-.89081,1.5h-5.09076c-.18134-.56885-.48029-1.08521-.89093-1.5h6.8725ZM13.45731,15.37615c-.04962.24243-.07587.49316-.07587.75s.02618.50757.07581.75h-4.85846c.04962-.24243.07581-.49316.07581-.75s-.02625-.50757-.07587-.75h4.85858ZM19.20969,6.8615h-2.84473v5.60693c.24237-.04956.49316-.07593.74994-.07593.25684,0,.50769.02612.75006.07568v-4.10669h.88965l.55817.37402h-1.07281v3.84912c.16779.05347.33099.11328.48761.18896h2.52216v2.5957h-.47797c.0506.24463.0777.49756.0777.75684,0,.25464-.02643.50293-.07513.74316h1.9754v-7.63672l-3.54004-2.37109ZM21.24973,11.27361h-1.50977v-1.03809h1.50977v1.03809Z"/></svg>