<svg xmlns="http://www.w3.org/2000/svg" viewBox="0 0 16.60352 10.26074"><title>Truck</title>
	<path
		d="M12.11328,5.67676a2.292,2.292,0,1,0,2.29151,2.292A2.29476,2.29476,0,0,0,12.11328,5.67676Zm0,3.834a1.542,1.542,0,1,1,1.54151-1.542A1.54362,1.54362,0,0,1,12.11328,9.51074Z"
		fill="#171717"/>
	<path
		d="M2.70264,5.67676a2.292,2.292,0,1,0,2.2915,2.292A2.29476,2.29476,0,0,0,2.70264,5.67676Zm0,3.834a1.542,1.542,0,1,1,1.5415-1.542A1.54363,1.54363,0,0,1,2.70264,9.51074Z"
		fill="#171717"/>
	<path d="M4.88708,6.59375a2.56568,2.56568,0,0,1,.31836.75H9.61011a2.56594,2.56594,0,0,1,.31836-.75Z" fill="#171717"/>
	<path d="M.75.75h9.98828V5.78412a2.56551,2.56551,0,0,1,.75-.3183V0H0V7.34375H.19946A2.56583,2.56583,0,0,1,.75,6.28784Z" fill="#171717"/>
	<path
		d="M13.81689.749H11.73828v4.67a2.56218,2.56218,0,0,1,.37482-.03778,2.56709,2.56709,0,0,1,.37518.03778V1.499H13.5542l.18945.15137H12.73828V4.3916H15.853V7.59375h-1.19a2.56709,2.56709,0,0,1,.03779.37518,2.56218,2.56218,0,0,1-.03779.37482h1.9405V2.97559ZM15.853,3.6416H13.48828V2.40039h1.19336l1.17139.93653Z"
		fill="#171717"/>
	<path
		d="M5.25238,7.59375a2.56709,2.56709,0,0,1,.03778.37518,2.56218,2.56218,0,0,1-.03778.37482H9.56317a2.56218,2.56218,0,0,1-.03778-.37482,2.56709,2.56709,0,0,1,.03778-.37518Z"
		fill="#171717"/>
</svg>
