<svg xmlns="http://www.w3.org/2000/svg" viewBox="0 0 24.75 24.75"><defs><style>.cls-1{fill:none;stroke:#171717;stroke-miterlimit:10;stroke-width:0.75px;}.cls-2{fill:#171717;}</style></defs><title>Truck</title><g id="Ebene_2" data-name="Ebene 2"><g id="Ebene_1-2" data-name="Ebene 1"><rect class="cls-1" x="0.375" y="0.375" width="24" height="24"/><path class="cls-2" d="M16.17962,12.92139a2.292,2.292,0,1,0,2.29151,2.292A2.29476,2.29476,0,0,0,16.17962,12.92139Zm0,3.834a1.542,1.542,0,1,1,1.54151-1.542A1.54362,1.54362,0,0,1,16.17962,16.75537Z"/><path class="cls-2" d="M6.769,12.92139a2.292,2.292,0,1,0,2.2915,2.292A2.29476,2.29476,0,0,0,6.769,12.92139Zm0,3.834a1.542,1.542,0,1,1,1.5415-1.542A1.54362,1.54362,0,0,1,6.769,16.75537Z"/><path class="cls-2" d="M8.95343,13.83838a2.56633,2.56633,0,0,1,.31836.75h4.40466a2.56606,2.56606,0,0,1,.31836-.75Z"/><path class="cls-2" d="M4.81634,7.99463h9.98828v5.03412a2.56551,2.56551,0,0,1,.75-.3183V7.24463H4.06634v7.34375H4.2658a2.5659,2.5659,0,0,1,.55054-1.05591Z"/><path class="cls-2" d="M17.88324,7.99365H15.80462v4.67a1.88,1.88,0,0,1,.75,0v-3.92h1.06592L17.81,8.895H16.80462v2.74121h3.11475v3.20215h-1.19a1.88,1.88,0,0,1,0,.75h1.94049V10.22022Zm2.03613,2.89258H17.55462V9.645H18.748l1.17139.93653Z"/><path class="cls-2" d="M9.31872,14.83838a1.88,1.88,0,0,1,0,.75h4.31079a1.88,1.88,0,0,1,0-.75Z"/></g></g></svg>
