<?xml version="1.0" encoding="UTF-8"?><svg id="a" xmlns="http://www.w3.org/2000/svg" viewBox="0 0 24 24"><path d="M20.74964,12.00016c0,4.83002-3.93005,8.75-8.75,8.75-1.79004,0-3.51001-.53998-4.98004-1.54999-1.08997-.76001-2.01001-1.77997-2.65997-2.92999l1.31-.73999c.53998,.95996,1.29999,1.79999,2.20001,2.42999,1.21997,.84003,2.64996,1.28998,4.13,1.28998,4,0,7.25-3.25,7.25-7.25s-3.25-7.25-7.25-7.25c-2.89001,0-5.45001,1.67999-6.60004,4.26001l3.32001,.01001-.01001,1.5-5.54999-.01001V4.89017h1.5v2.34003c1.58002-2.45001,4.31-3.98004,7.34003-3.98004,4.81995,0,8.75,3.92004,8.75,8.75Z" fill="#171717"/></svg>