<svg xmlns="http://www.w3.org/2000/svg" viewBox="0 0 24 24"><title>University</title><rect x="4.85986" y="18.77588" width="14.30078" height="0.75" fill="#171717"/><rect x="6.06201" y="17.27588" width="12.01465" height="0.75" fill="#171717"/><rect x="6.06201" y="10.10498" width="12.01465" height="0.75" fill="#171717"/><rect x="10.17041" y="11.59619" width="0.75" height="4.92676" fill="#171717"/><rect x="16.27783" y="11.59619" width="0.75" height="4.92676" fill="#171717"/><rect x="13.22412" y="11.59619" width="0.75" height="4.92676" fill="#171717"/><rect x="7.1167" y="11.59229" width="0.75" height="4.92676" fill="#171717"/><path d="M19.34814,8.65479l-1.915-1.10547L11.99951,4.4126,7.3042,7.12354,4.67236,8.64307a.37526.37526,0,0,0,.1875.70019L6.062,9.34412V9.355H18.07666v-.001l1.084.001a.37517.37517,0,0,0,.1875-.70019ZM7.6792,7.77393l4.32031-2.4961,5.0586,2.92188.70019.4043-1.62793-.002V8.605h-8.541V8.59522l-1.332-.001Z" fill="#171717"/></svg>