<svg xmlns="http://www.w3.org/2000/svg" viewBox="0 0 16.58398 16.58301"><title>UniversalAccess</title>
	<path d="M8.292,0a8.29151,8.29151,0,1,0,8.292,8.292A8.30133,8.30133,0,0,0,8.292,0Zm0,15.833a7.54151,7.54151,0,1,1,7.542-7.541A7.55,7.55,0,0,1,8.292,15.833Z"
		  fill="#171717"/>
	<path
		d="M8.27557,4.32922A1.01993,1.01993,0,1,0,7.256,3.3089,1.02162,1.02162,0,0,0,8.27557,4.32922Zm0-1.43988a.41993.41993,0,1,1-.41949.41956A.42031.42031,0,0,1,8.27557,2.88934Z"
		fill="#171717"/>
	<path
		d="M13.93573,4.52917H2.61542a.7.7,0,0,0,0,1.4h3.6203V9.44873h.23449l-.40478,2.29846L5.64905,14.1073v.00079a.89111.89111,0,0,0,.73358,1.02265.91073.91073,0,0,0,.15857.0141.88958.88958,0,0,0,.88049-.72425l.41559-2.36017.439-2.48815.43682,2.4757.41645,2.3609a.86256.86256,0,0,0,.37109.56952.90374.90374,0,0,0,.50543.15473.94827.94827,0,0,0,.16175-.01483.90267.90267,0,0,0,.58825-.37189.86309.86309,0,0,0,.14533-.65082l-.41565-2.36011-.40338-2.28674h.23309V5.9292h3.6203a.7.7,0,0,0,0-1.4Zm-7.70465.80005H2.61542a.1.1,0,0,1,0-.2H6.23108ZM7.2467,11.95575l-.41565,2.36017a.30093.30093,0,0,1-.59136-.10437l.41638-2.35968.42321-2.40314H7.689Zm-.41095-3.107V5.12921h2.8797V8.84875Zm3.475,5.35157a.26683.26683,0,0,1-.04608.20154.31494.31494,0,0,1-.4281.07891.26756.26756,0,0,1-.11646-.17657l-.41638-2.361L8.86353,9.44873h.60974l.42187,2.39142Zm3.625-8.8711h-3.6203v-.2h3.6203a.1.1,0,1,1,0,.2Z"
		fill="#171717"/>
</svg>
