<?xml version="1.0" encoding="UTF-8"?><svg id="a" xmlns="http://www.w3.org/2000/svg" viewBox="0 0 24 24"><path d="M11.99973,1.25008C6.07297,1.25008,1.2507,6.07235,1.2507,12.00008s4.82227,10.75,10.74902,10.75c5.92773,0,10.75-4.82227,10.75-10.75S17.92746,1.25008,11.99973,1.25008ZM11.99973,21.25008c-5.09961,0-9.24902-4.14941-9.24902-9.25S6.90012,2.75008,11.99973,2.75008c5.10059,0,9.25,4.14941,9.25,9.25s-4.14941,9.25-9.25,9.25ZM10.69113,5.67196c0-.72168.58691-1.30859,1.30859-1.30859s1.30859.58691,1.30859,1.30859c0,.7207-.58691,1.30762-1.30859,1.30762s-1.30859-.58691-1.30859-1.30762ZM19.99484,7.91707v1.5h-5.74512v3.48828h-.65594l.51434,2.91699.56152,3.18457-1.47656.25977-.56152-3.18457-.56012-3.17676h-.14343l-.56012,3.17676-.56152,3.18457-1.47656-.25977.56152-3.18457.51434-2.91699h-.65594v-3.48828h-5.74414v-1.5h15.98926Z"/></svg>