<svg xmlns="http://www.w3.org/2000/svg" viewBox="0 0 24.75 24.75"><defs><style>.cls-1{fill:none;stroke:#171717;stroke-miterlimit:10;stroke-width:0.75px;}.cls-2{fill:#171717;}</style></defs><title>UniversalAccess</title><g id="Ebene_2" data-name="Ebene 2"><g id="Ebene_1-2" data-name="Ebene 1"><rect class="cls-1" x="0.375" y="0.375" width="24" height="24"/><path class="cls-2" d="M12.37493,4.0835a8.29151,8.29151,0,1,0,8.292,8.292A8.30132,8.30132,0,0,0,12.37493,4.0835Zm0,15.833a7.54151,7.54151,0,1,1,7.542-7.541A7.55,7.55,0,0,1,12.37493,19.91651Z"/><path class="cls-2" d="M12.35852,8.41272A1.01993,1.01993,0,1,0,11.339,7.3924,1.02161,1.02161,0,0,0,12.35852,8.41272Zm0-1.43988a.41992.41992,0,1,1-.4195.41956A.42031.42031,0,0,1,12.35852,6.97284Z"/><path class="cls-2" d="M18.01867,8.61267H6.69836a.7.7,0,0,0,0,1.4h3.6203v3.51953h.2345l-.40479,2.29846L9.732,18.1908v.00079a.89112.89112,0,0,0,.73358,1.02265.91168.91168,0,0,0,.15857.01409.88956.88956,0,0,0,.88049-.72424l.41559-2.36017.439-2.48816.43683,2.47571.41644,2.3609a.86265.86265,0,0,0,.37109.56952.90381.90381,0,0,0,.50543.15473.94727.94727,0,0,0,.16175-.01484.90262.90262,0,0,0,.58825-.37188.86309.86309,0,0,0,.14533-.65082L14.56866,15.819l-.40338-2.28674h.23309V10.0127h3.6203a.7.7,0,0,0,0-1.4ZM10.314,9.41272H6.69836a.1.1,0,0,1,0-.2H10.314Zm1.01563,6.62653L10.914,18.39942a.30094.30094,0,0,1-.59137-.10437l.41638-2.35968.42322-2.40314h.60968Zm-.411-3.107V9.21271h2.8797v3.71954Zm3.475,5.35157a.26675.26675,0,0,1-.04608.20153.31492.31492,0,0,1-.4281.07892.26754.26754,0,0,1-.11645-.17657l-.41639-2.361-.44018-2.49451h.60974l.42187,2.39142Zm3.625-8.8711h-3.6203v-.2h3.6203a.1.1,0,1,1,0,.2Z"/></g></g></svg>
