<svg xmlns="http://www.w3.org/2000/svg" viewBox="0 0 24.75 24.75"><defs><style>.cls-1{fill:none;stroke:#171717;stroke-miterlimit:10;stroke-width:0.75px;}.cls-2{fill:#171717;}</style></defs><title>University</title><g id="Ebene_2" data-name="Ebene 2"><g id="Ebene_1-2" data-name="Ebene 1"><rect class="cls-1" x="0.375" y="0.375" width="24" height="24"/><rect class="cls-2" x="5.2077" y="19.00724" width="14.30078" height="0.75"/><rect class="cls-2" x="6.40984" y="17.50724" width="12.01465" height="0.75"/><rect class="cls-2" x="6.40984" y="10.33634" width="12.01465" height="0.75"/><rect class="cls-2" x="10.51824" y="11.82755" width="0.75" height="4.92676"/><rect class="cls-2" x="16.62567" y="11.82755" width="0.75" height="4.92676"/><rect class="cls-2" x="13.57195" y="11.82755" width="0.75" height="4.92676"/><rect class="cls-2" x="7.46453" y="11.82365" width="0.75" height="4.92676"/><path class="cls-2" d="M19.696,8.88615l-1.915-1.10547L12.34734,4.644,7.652,7.3549,5.0202,8.87443a.37526.37526,0,0,0,.1875.70019l1.20214.00086v.01086H18.42449v-.001l1.084.001a.37517.37517,0,0,0,.1875-.70019ZM8.027,8.00529l4.32031-2.4961,5.0586,2.92188.70019.4043-1.62793-.002v.00293h-8.541V8.82658l-1.332-.001Z"/></g></g></svg>
