<svg xmlns="http://www.w3.org/2000/svg" viewBox="0 0 24 24"><title>University</title><rect x="2.99973" y="20.25008" width="18" height="1.5" fill="#171717"/><rect x="4.43918" y="18.25008" width="15.12207" height="1.5" fill="#171717"/><rect x="4.43918" y="9.43953" width="15.12207" height="1.5" fill="#171717"/><rect x="9.405" y="11.44442" width="1.5" height="6.2998" fill="#171717"/><rect x="17.0925" y="11.44442" width="1.5" height="6.2998" fill="#171717"/><rect x="13.24875" y="11.44442" width="1.5" height="6.2998" fill="#171717"/><rect x="5.56125" y="11.43953" width="1.5" height="6.2998" fill="#171717"/><path d="M21.3718,7.53817,18.96164,6.16024l-.00012.00024L11.987,2.13387,5.93723,5.62606,2.62473,7.54012a.74986.74986,0,0,0,.375,1.39941h18a.75019.75019,0,0,0,.37207-1.40136ZM5.79658,7.43953l.89065-.51464,5.2998-3.0586,6.19031,3.57324Z" fill="#171717"/></svg>