<svg xmlns="http://www.w3.org/2000/svg" viewBox="0 0 15.05101 15.11328"><title>University</title>
	<rect x="0.37507" y="14.36328" width="14.30078" height="0.75" fill="#171717"/>
	<rect x="1.57722" y="12.86328" width="12.01465" height="0.75" fill="#171717"/>
	<rect x="1.57722" y="5.69238" width="12.01465" height="0.75" fill="#171717"/>
	<rect x="5.68561" y="7.18359" width="0.75" height="4.92676" fill="#171717"/>
	<rect x="11.79304" y="7.18359" width="0.75" height="4.92676" fill="#171717"/>
	<rect x="8.73933" y="7.18359" width="0.75" height="4.92676" fill="#171717"/>
	<rect x="2.6319" y="7.17969" width="0.75" height="4.92676" fill="#171717"/>
	<path
		d="M14.86335,4.24219l-1.915-1.10547L7.51472,0,2.8194,2.71094.18757,4.23047a.37526.37526,0,0,0,.1875.70019l1.20215.00086v.01086H13.59186v-.001l1.084.001a.37517.37517,0,0,0,.1875-.70019ZM3.1944,3.36133,7.51472.86523l5.05859,2.92188.7002.4043-1.62793-.002v.00293h-8.541V4.18262l-1.332-.001Z"
		fill="#171717"/>
</svg>
