<svg xmlns="http://www.w3.org/2000/svg" viewBox="0 0 24 24"><title>UniversalAccess</title><path d="M11.99973,1.25008a10.75,10.75,0,1,0,10.75,10.75A10.76176,10.76176,0,0,0,11.99973,1.25008Zm0,20a9.25,9.25,0,1,1,9.25-9.25A9.26012,9.26012,0,0,1,11.99973,21.25008Z" fill="#171717"/><path d="M11.99973,6.97957A1.30811,1.30811,0,1,0,10.69113,5.672,1.30971,1.30971,0,0,0,11.99973,6.97957Z" fill="#171717"/><polygon points="16.76 7.917 14.25 7.917 13.527 7.917 10.473 7.917 9.75 7.917 7.239 7.917 4.006 7.917 4.006 9.417 7.239 9.417 9.75 9.417 9.75 12.905 10.406 12.905 9.891 15.822 9.33 19.007 10.806 19.267 11.368 16.082 11.928 12.905 12.071 12.905 12.632 16.082 13.193 19.267 14.67 19.007 14.108 15.822 13.594 12.905 14.25 12.905 14.25 9.417 16.76 9.417 19.995 9.417 19.995 7.917 16.76 7.917" fill="#171717"/></svg>