<svg xmlns="http://www.w3.org/2000/svg" viewBox="0 0 24 24"><title>UniversalAccess</title><path d="M12.0166,3.7085a8.29151,8.29151,0,1,0,8.292,8.292A8.30132,8.30132,0,0,0,12.0166,3.7085Zm0,15.833a7.54151,7.54151,0,1,1,7.542-7.541A7.55,7.55,0,0,1,12.0166,19.54151Z" fill="#171717"/><path d="M12.00018,8.03772A1.01993,1.01993,0,1,0,10.98065,7.0174,1.02162,1.02162,0,0,0,12.00018,8.03772Zm0-1.43988a.41992.41992,0,1,1-.41949.41956A.4203.4203,0,0,1,12.00018,6.59784Z" fill="#171717"/><path d="M17.66034,8.23767H6.34a.7.7,0,1,0,0,1.4h3.6203v3.51953h.23449L9.79,15.45569,9.37366,17.8158v.00079a.89111.89111,0,0,0,.73358,1.02265.91168.91168,0,0,0,.15857.01409.88957.88957,0,0,0,.88049-.72424l.41559-2.36017.439-2.48816.43683,2.47571.41645,2.3609a.86258.86258,0,0,0,.37109.56952.90381.90381,0,0,0,.50543.15473.94727.94727,0,0,0,.16175-.01484.90262.90262,0,0,0,.58825-.37188.86309.86309,0,0,0,.14533-.65082L14.21033,15.444,13.807,13.15723H14.04V9.6377h3.6203a.7.7,0,0,0,0-1.4Zm-7.70465.80005H6.34a.1.1,0,0,1,0-.2H9.95569Zm1.01562,6.62653-.41565,2.36017a.30094.30094,0,0,1-.59137-.10437l.41639-2.35968.42321-2.40314h.60968Zm-.411-3.107V8.83771h2.8797v3.71954Zm3.475,5.35157a.2668.2668,0,0,1-.04608.20153.31493.31493,0,0,1-.4281.07892.26756.26756,0,0,1-.11646-.17657l-.41638-2.361-.44019-2.49451h.60975l.42187,2.39142Zm3.625-8.8711H14.04v-.2h3.6203a.1.1,0,1,1,0,.2Z" fill="#171717"/></svg>