<?xml version="1.0" encoding="UTF-8"?><svg id="a" xmlns="http://www.w3.org/2000/svg" viewBox="0 0 24 24"><path d="M16.12375,7.19051l-1.44922-.38867.98047-3.66016,1.44922.38867-.98047,3.66016ZM20.93918,4.19637l-1.06055-1.06055-2.67969,2.67871,1.06055,1.06055,2.67969-2.67871ZM17.19601,9.43172l3.66113-.98047-.38867-1.44922-3.66113.98047.38867,1.44922ZM6.99289,20.47274l1.44922.38867.98145-3.66016-1.44922-.38867-.98145,3.66016ZM3.15793,19.80672l1.06055,1.06055,2.67969-2.67871-1.06055-1.06055-2.67969,2.67871ZM6.90109,14.57137l-3.66016.98047.38867,1.44922,3.66016-.98047-.38867-1.44922ZM20.82236,16.33846l.00159-.00146-3.95508-3.9541c-.64941-.64844-1.55566-.98633-2.46484-.9209l.10352,1.49609c.47559-.04297.95898.14258,1.30078.48535l3.95361,3.95264-.00146.00146c.65137.65137.65137,1.71191,0,2.36328-.65039.65039-1.70898.65039-2.36133,0l-3.9541-3.95312c-.34961-.34961-.52637-.83301-.4834-1.32617l-1.49414-.12891c-.08105.93457.25293,1.85156.91699,2.51562l3.95508,3.9541c.61816.61719,1.42969.92578,2.24121.92578s1.62305-.30957,2.24023-.92676c1.23486-1.23486,1.23621-3.24536.00134-4.48291ZM11.61679,7.13387l.0011-.00098-3.9541-3.9541c-1.23633-1.23633-3.24902-1.23633-4.48535,0s-1.23633,3.24805,0,4.48438l3.95898,3.95898c.59863.59668,1.39746.92383,2.23242.92383.11328,0,.22754-.00586.34277-.01758l-.16016-1.49219c-.51074.05762-.99805-.12012-1.35449-.47559l-3.95898-3.95801c-.65137-.65137-.65137-1.71191,0-2.36328.65137-.64941,1.71094-.65137,2.36426,0l3.95312,3.95312-.00098.00098c.35156.35156.52734.83789.48242,1.33398l1.49414.13477c.0849-.93994-.24872-1.86121-.91516-2.52832Z"/></svg>