<svg xmlns="http://www.w3.org/2000/svg" viewBox="0 0 15.05078 15.05176"><title>Unlink</title>
	<polygon points="11.348 0.762 10.623 0.568 9.846 3.467 10.571 3.66 11.348 0.762" fill="#171717"/>
	<path
		d="M14.44141,11.2041l-3.3418-3.34375a2.28334,2.28334,0,0,0-1.56885-.62109v.75a1.5311,1.5311,0,0,1,1.04688.40918l3.32129,3.32324A1.54221,1.54221,0,0,1,11.73682,13.915L8.51563,10.69238a1.54324,1.54324,0,0,1-.52686-1.16113h-.75a2.2743,2.2743,0,0,0,.76465,1.708L11.21973,14.457a2.29133,2.29133,0,0,0,3.22168-3.25293Z"
		fill="#171717"/>
	<path
		d="M7.20215,3.96484,3.86084.62207A2.2913,2.2913,0,1,0,.76465,4L3.98047,7.21777A2.2855,2.2855,0,0,0,5.52,7.8125v-.75a1.531,1.531,0,0,1-1.02246-.38672L1.27686,3.45313a1.542,1.542,0,1,1,2.062-2.293l3.3208,3.32226A1.53779,1.53779,0,0,1,7.062,5.52051h.75A2.29482,2.29482,0,0,0,7.20215,3.96484Z"
		fill="#171717"/>
	<rect x="11.61491" y="1.612" width="2.99968" height="0.75061" transform="translate(2.42875 9.84577) rotate(-44.94729)" fill="#171717"/>
	<rect x="11.42693" y="4.15468" width="3.00014" height="0.75022" transform="translate(-0.73215 3.50322) rotate(-15.01309)" fill="#171717"/>
	<rect x="3.01532" y="12.56252" width="3.00061" height="0.74996" transform="translate(-9.14872 13.96485) rotate(-75.05897)" fill="#171717"/>
	<rect x="0.49821" y="12.68915" width="2.99968" height="0.75061" transform="translate(-8.64555 5.22953) rotate(-44.94729)" fill="#171717"/>
	<rect x="0.68572" y="10.14686" width="3.00014" height="0.75022" transform="translate(-2.651 0.92536) rotate(-15.01309)" fill="#171717"/>
</svg>
