<svg xmlns="http://www.w3.org/2000/svg" viewBox="0 0 24 24"><title>Unlink</title><rect x="13.99477" y="4.41588" width="3.7892" height="1.50043" transform="translate(6.78363 19.17489) rotate(-74.98691)" fill="#171717"/><rect x="17.17458" y="4.25553" width="3.78896" height="1.49984" transform="translate(2.04581 14.94993) rotate(-45)" fill="#171717"/><rect x="16.93717" y="7.46666" width="3.79015" height="1.50043" transform="translate(-1.48458 5.15139) rotate(-14.99228)" fill="#171717"/><rect x="6.31349" y="18.08678" width="3.78946" height="1.50043" transform="translate(-12.11206 21.88551) rotate(-74.98691)" fill="#171717"/><rect x="3.13357" y="18.24772" width="3.78896" height="1.49984" transform="translate(-11.96068 9.11965) rotate(-45)" fill="#171717"/><rect x="3.37075" y="15.036" width="3.7892" height="1.50043" transform="translate(-3.90541 1.90005) rotate(-14.9961)" fill="#171717"/><path d="M20.82236,16.33846l.00158-.00146-3.95507-3.95411A3.18056,3.18056,0,0,0,14.404,11.462l.10352,1.49609a1.65067,1.65067,0,0,1,1.30078.48535l3.95361,3.95264-.00146.00146a1.6704,1.6704,0,1,1-2.36133,2.36328L13.445,15.8077a1.66721,1.66721,0,0,1-.4834-1.32617l-1.49414-.12891a3.16333,3.16333,0,0,0,.917,2.51563l3.95508,3.9541a3.1702,3.1702,0,0,0,4.48279-4.48389Z" fill="#171717"/><path d="M11.61679,7.13387l.0011-.001-3.9541-3.9541A3.17128,3.17128,0,0,0,3.17844,7.66317l3.959,3.959a3.15241,3.15241,0,0,0,2.23242.92383,3.3861,3.3861,0,0,0,.34278-.01758l-.16016-1.49219A1.64075,1.64075,0,0,1,8.198,10.56063l-3.959-3.958A1.67144,1.67144,0,0,1,6.60324,4.23934l3.95313,3.95312-.001.001a1.66857,1.66857,0,0,1,.48242,1.334l1.49414.13476A3.16482,3.16482,0,0,0,11.61679,7.13387Z" fill="#171717"/></svg>