<svg xmlns="http://www.w3.org/2000/svg" viewBox="0 0 24.75 24.75"><defs><style>.cls-1{fill:none;stroke:#171717;stroke-miterlimit:10;stroke-width:0.75px;}</style></defs><title>Unlink</title><g id="Ebene_2" data-name="Ebene 2"><g id="Ebene_1-2" data-name="Ebene 1"><rect class="cls-1" x="0.375" y="0.375" width="24" height="24"/><polygon points="16.197 5.611 15.473 5.417 14.696 8.316 15.42 8.509 16.197 5.611"/><path d="M19.291,16.05322l-3.3418-3.34375a2.28334,2.28334,0,0,0-1.56885-.62109v.75a1.5311,1.5311,0,0,1,1.04688.40918l3.32129,3.32324a1.54221,1.54221,0,0,1-2.16211,2.19336l-3.2212-3.22265a1.54329,1.54329,0,0,1-.52685-1.16114h-.75a2.27428,2.27428,0,0,0,.76465,1.708l3.21631,3.21777A2.29133,2.29133,0,0,0,19.291,16.05322Z"/><path d="M12.05176,8.814,8.71045,5.47119A2.2913,2.2913,0,1,0,5.61426,8.84912L8.83008,12.0669a2.28549,2.28549,0,0,0,1.53955.59472v-.75a1.531,1.531,0,0,1-1.02246-.38672L6.12646,8.30225a1.542,1.542,0,1,1,2.062-2.293l3.3208,3.32226a1.53785,1.53785,0,0,1,.40234,1.03809h.75A2.2948,2.2948,0,0,0,12.05176,8.814Z"/><rect x="16.46452" y="6.46112" width="2.99968" height="0.75061" transform="translate(0.42032 14.68892) rotate(-44.94729)"/><rect x="16.27654" y="9.0038" width="3.00014" height="0.75022" transform="translate(-1.82273 4.92498) rotate(-15.01309)"/><rect x="7.86493" y="17.41164" width="3.00061" height="0.74996" transform="translate(-10.23464 22.2494) rotate(-75.05897)"/><rect x="5.34782" y="17.53827" width="2.99968" height="0.75061" transform="translate(-10.65397 10.07268) rotate(-44.94729)"/><rect x="5.53533" y="14.99599" width="3.00014" height="0.75022" transform="translate(-3.74158 2.34711) rotate(-15.01309)"/></g></g></svg>
