<svg xmlns="http://www.w3.org/2000/svg" viewBox="0 0 24 24"><title>Unlink</title><polygon points="15.822 5.236 15.098 5.042 14.321 7.941 15.045 8.134 15.822 5.236" fill="#171717"/><path d="M18.916,15.67822l-3.3418-3.34375a2.28334,2.28334,0,0,0-1.56885-.62109v.75a1.5311,1.5311,0,0,1,1.04688.40918l3.32129,3.32324a1.54221,1.54221,0,0,1-2.16211,2.19336l-3.2212-3.22265a1.54329,1.54329,0,0,1-.52685-1.16114h-.75a2.27428,2.27428,0,0,0,.76465,1.708l3.21631,3.21777A2.29133,2.29133,0,0,0,18.916,15.67822Z" fill="#171717"/><path d="M11.67676,8.439,8.33545,5.09619A2.2913,2.2913,0,1,0,5.23926,8.47412L8.45508,11.6919a2.28549,2.28549,0,0,0,1.53955.59472v-.75a1.531,1.531,0,0,1-1.02246-.38672L5.75146,7.92725a1.542,1.542,0,1,1,2.062-2.293l3.3208,3.32226a1.53785,1.53785,0,0,1,.40234,1.03809h.75A2.2948,2.2948,0,0,0,11.67676,8.439Z" fill="#171717"/><rect x="16.08952" y="6.08612" width="2.99968" height="0.75061" transform="translate(0.57565 14.31441) rotate(-44.94729)" fill="#171717"/><rect x="15.90154" y="8.6288" width="3.00014" height="0.75022" transform="translate(-1.73839 4.81504) rotate(-15.01309)" fill="#171717"/><rect x="7.48993" y="17.03664" width="3.00061" height="0.74996" transform="translate(-10.15064 21.60877) rotate(-75.05897)" fill="#171717"/><rect x="4.97282" y="17.16327" width="2.99968" height="0.75061" transform="translate(-10.49864 9.69817) rotate(-44.94729)" fill="#171717"/><rect x="5.16033" y="14.62099" width="3.00014" height="0.75022" transform="translate(-3.65724 2.23717) rotate(-15.01309)" fill="#171717"/></svg>