<svg xmlns="http://www.w3.org/2000/svg" viewBox="0 0 24 24"><title>Unlock</title><path d="M6.51047,8.8536V8.211a5.46049,5.46049,0,0,1,9.8916-3.19141l1.2168-.87695A6.96039,6.96039,0,0,0,5.01047,8.211V8.8536H3.24973V22.75008h17.5V8.8536ZM19.24973,21.25008h-14.5V10.3536h14.5Z" fill="#171717"/><path d="M11.99973,18.97274a3.1709,3.1709,0,1,0-3.1709-3.1709A3.17518,3.17518,0,0,0,11.99973,18.97274Zm0-4.8418a1.6709,1.6709,0,1,1-1.6709,1.6709A1.67356,1.67356,0,0,1,11.99973,14.13094Z" fill="#171717"/></svg>