<svg xmlns="http://www.w3.org/2000/svg" viewBox="0 0 24 24"><title>Unlock</title><path d="M7.43457,9.7124V8.99072a4.54221,4.54221,0,0,1,8.228-2.65429L16.271,5.897A5.29263,5.29263,0,0,0,6.68457,8.99072V9.7124H5.21729V20.27588H18.73584V9.7124Zm10.55127,9.81348H5.96729V10.4624H17.98584Z" fill="#171717"/><path d="M11.97656,17.28565a2.29151,2.29151,0,1,0-2.292-2.292A2.29476,2.29476,0,0,0,11.97656,17.28565Zm0-3.833a1.54151,1.54151,0,1,1-1.542,1.541A1.54341,1.54341,0,0,1,11.97656,13.45264Z" fill="#171717"/></svg>