<svg xmlns="http://www.w3.org/2000/svg" viewBox="0 0 24.75 24.75"><defs><style>.cls-1{fill:none;stroke:#171717;stroke-miterlimit:10;stroke-width:0.75px;}</style></defs><title>Unlock</title><g id="Ebene_2" data-name="Ebene 2"><g id="Ebene_1-2" data-name="Ebene 1"><rect class="cls-1" x="0.375" y="0.375" width="24" height="24"/><path d="M7.82007,10.0874V9.36572a4.54221,4.54221,0,0,1,8.228-2.65429l.6084-.43946A5.29263,5.29263,0,0,0,7.07007,9.36572v.72168H5.60279V20.65088H19.12134V10.0874Zm10.55127,9.81348H6.35279V10.8374H18.37134Z"/><path d="M12.36206,17.66065a2.29151,2.29151,0,1,0-2.292-2.292A2.29476,2.29476,0,0,0,12.36206,17.66065Zm0-3.833a1.54151,1.54151,0,1,1-1.542,1.541A1.54341,1.54341,0,0,1,12.36206,13.82764Z"/></g></g></svg>
