<svg xmlns="http://www.w3.org/2000/svg" viewBox="0 0 13.51855 16.57715"><title>Unlock</title>
	<path
		d="M2.21729,6.01367V5.292a4.54221,4.54221,0,0,1,8.228-2.65429l.6084-.43946A5.29263,5.29263,0,0,0,1.46729,5.292v.72168H0V16.57715H13.51855V6.01367Zm10.55126,9.81348H.75V6.76367H12.76855Z"
		fill="#171717"/>
	<path
		d="M6.75928,13.58691a2.2915,2.2915,0,1,0-2.292-2.292A2.29476,2.29476,0,0,0,6.75928,13.58691Zm0-3.833a1.5415,1.5415,0,1,1-1.542,1.541A1.54341,1.54341,0,0,1,6.75928,9.75391Z"
		fill="#171717"/>
</svg>
