<svg xmlns="http://www.w3.org/2000/svg" viewBox="0 0 17.55762 13.81055"><title>UserCode</title>
	<path
		d="M6.15918,8.01367H2.93359A2.9366,2.9366,0,0,0,0,10.94629v2.86426H.75V10.94629A2.18577,2.18577,0,0,1,2.93359,8.76367H6.15918a2.18577,2.18577,0,0,1,2.18359,2.18262v2.86426h.75V10.94629A2.93659,2.93659,0,0,0,6.15918,8.01367Z"
		fill="#171717"/>
	<path
		d="M4.54688,7.2373A3.28516,3.28516,0,1,0,1.26172,3.95215,3.28877,3.28877,0,0,0,4.54688,7.2373Zm0-5.82031A2.53516,2.53516,0,1,1,2.01172,3.95215,2.53858,2.53858,0,0,1,4.54688,1.417Z"
		fill="#171717"/>
	<polygon points="9.674 3.479 12.048 4.892 12.048 3.972 10.374 3.124 12.048 2.261 12.048 1.341 9.674 2.749 9.674 3.479" fill="#171717"/>
	<polygon points="12.453 5.986 12.994 5.986 14.619 0 14.078 0 12.453 5.986" fill="#171717"/>
	<polygon points="15.107 1.341 15.107 2.245 16.859 3.104 15.107 3.983 15.107 4.888 17.558 3.479 17.558 2.749 15.107 1.341" fill="#171717"/>
</svg>
