<svg xmlns="http://www.w3.org/2000/svg" viewBox="0 0 16.57861 14.72363"><title>UserBrush</title>
	<path
		d="M6.15869,8.92676H2.93359A2.93711,2.93711,0,0,0,0,11.86035v2.86328H.75V11.86035A2.186,2.186,0,0,1,2.93359,9.67676h3.2251a2.186,2.186,0,0,1,2.1836,2.18359v2.86328h.75V11.86035A2.93712,2.93712,0,0,0,6.15869,8.92676Z"
		fill="#171717"/>
	<path
		d="M4.5459,8.15039A3.28516,3.28516,0,1,0,1.26074,4.86523,3.28877,3.28877,0,0,0,4.5459,8.15039Zm0-5.82031A2.53516,2.53516,0,1,1,2.01074,4.86523,2.53825,2.53825,0,0,1,4.5459,2.33008Z"
		fill="#171717"/>
	<path
		d="M15.27783,0l-4.4375,4.4502A1.46507,1.46507,0,0,0,9.83887,5.915c-.00244.07226-.0044.14258-.01807.26172-.00049.10156-.106.332-.09473.36133l-.01367.75c.04639.00195.1001.00293.16016.00293a2.78378,2.78378,0,0,0,1.96875-.65723,1.36742,1.36742,0,0,0,.37012-.94727l4.36718-4.38086Zm-3.9834,6.12012a1.43311,1.43311,0,0,1-.76611.35937.9212.9212,0,0,0,.03857-.24707,2.64535,2.64535,0,0,0,.02149-.28906.69888.69888,0,0,1,.39551-.72363l.47754.48047A.60387.60387,0,0,1,11.29443,6.12012Zm.53565-1.11328L11.5874,4.7627l3.69043-3.7002.24219.24316Z"
		fill="#171717"/>
</svg>
