<svg xmlns="http://www.w3.org/2000/svg" viewBox="0 0 24 24"><title>UserPen</title><path d="M8.25558,11.69149H4.7673a3.52008,3.52008,0,0,0-3.5166,3.5166v4.792h1.5v-4.792a2.01844,2.01844,0,0,1,2.0166-2.0166H8.25558a2.01927,2.01927,0,0,1,2.01758,2.0166v4.792h1.5v-4.792A3.52091,3.52091,0,0,0,8.25558,11.69149Z" fill="#171717"/><path d="M6.51144,11.39071A4.07032,4.07032,0,1,0,2.44113,7.32039,4.07524,4.07524,0,0,0,6.51144,11.39071Zm0-6.64063A2.57032,2.57032,0,1,1,3.94113,7.32039,2.57359,2.57359,0,0,1,6.51144,4.75008Z" fill="#171717"/><path d="M20.04074,2.04207l-7.0332,7.06055L12.65109,11.339l2.27246-.32031,7.03516-7.06641Zm.002,1.41407.502.5-.78656.78979-.50122-.50073ZM14.4509,10.07528l-.59864.084.09278-.58008L18.5513,4.95369l.50122.50074Z" fill="#171717"/></svg>