<?xml version="1.0" encoding="UTF-8"?><svg id="a" xmlns="http://www.w3.org/2000/svg" viewBox="0 0 24 24"><path d="M11.77316,15.20809v4.79199h-1.5v-4.79199c0-1.1123-.90527-2.0166-2.01758-2.0166h-3.48828c-1.1123,0-2.0166.9043-2.0166,2.0166v4.79199h-1.5v-4.79199c0-1.93945,1.57715-3.5166,3.5166-3.5166h3.48828c1.93945,0,3.51758,1.57715,3.51758,3.5166ZM2.44113,7.32039c0-2.24414,1.82617-4.07031,4.07031-4.07031s4.07031,1.82617,4.07031,4.07031-1.82617,4.07031-4.07031,4.07031-4.07031-1.82617-4.07031-4.07031ZM3.94113,7.32039c0,1.41699,1.15332,2.57031,2.57031,2.57031s2.57031-1.15332,2.57031-2.57031-1.15332-2.57031-2.57031-2.57031-2.57031,1.15332-2.57031,2.57031ZM19.43918,6.7491c0,1.20605-.98145,2.18652-2.1875,2.18652s-2.18652-.98047-2.18652-2.18652.98047-2.18652,2.18652-2.18652,2.1875.98047,2.1875,2.18652ZM18.43918,6.7491c0-.6543-.53223-1.18652-1.1875-1.18652-.6543,0-1.18652.53223-1.18652,1.18652s.53223,1.18652,1.18652,1.18652c.65527,0,1.1875-.53223,1.1875-1.18652ZM20.70676,8.212c-.11816.28613-.27051.55566-.45703.80664l.52734.92383-2.53223,1.48047-.52441-.91992c-.30566.04004-.60156.04004-.90723,0l-.53223.93262-2.53223-1.48047.53613-.93945c-.17871-.24121-.3291-.50391-.44531-.77832h-1.08789v-2.95117h1.09473c.11523-.26855.26074-.52246.43652-.75977l-.56152-.9668,2.54102-1.48535.5459.96484c.29297-.03906.57715-.03906.8623-.00781l.54883-.96973,2.53613,1.48145-.53613.93945c.18262.24023.33691.50293.45703.77832h1.0752v2.95117h-1.04492ZM20.75168,7.212v-.95117h-.78418l-.11133-.34668c-.12305-.38184-.33398-.74023-.61035-1.03613l-.25-.26953.40039-.70215-.80566-.46973-.40234.70801-.3584-.07617c-.37988-.08301-.76172-.08203-1.16992.0127l-.3633.08398-.40525-.71582-.80469.46973.41797.7207-.24414.27051c-.27246.30176-.4707.64648-.58889,1.02637l-.11131.35352-.80859-.00391v.95117h.80762l.1084.35352c.11719.38574.31641.73535.59277,1.03906l.24316.26953-.39551.69238.80566.4707.38965-.68359.36133.08301c.40527.09277.79199.09375,1.20508.00098l.36133-.08203.38086.66895.80566-.4707-.38574-.67773.24219-.26855c.28125-.31152.4834-.66992.59961-1.06348l.10645-.35742h.77148Z"/></svg>