<svg xmlns="http://www.w3.org/2000/svg" viewBox="0 0 10.30566 16.375"><title>User</title>
	<path
		d="M7,7.833H3.30566A3.30972,3.30972,0,0,0,0,11.13867V16.375H.75V11.13867A2.55857,2.55857,0,0,1,3.30566,8.583H7a2.55857,2.55857,0,0,1,2.55566,2.55566V16.375h.75V11.13867A3.30972,3.30972,0,0,0,7,7.833Z"
		fill="#171717"/>
	<path
		d="M5.15283,7.417A3.7085,3.7085,0,1,0,1.44434,3.708,3.71294,3.71294,0,0,0,5.15283,7.417Zm0-6.667A2.9585,2.9585,0,1,1,2.19434,3.708,2.96161,2.96161,0,0,1,5.15283.75Z"
		fill="#171717"/>
</svg>
