<?xml version="1.0" encoding="UTF-8"?><svg id="a" xmlns="http://www.w3.org/2000/svg" viewBox="0 0 24 24"><path d="M23.60519,4.38387l-7.07227,7.07227-3.63477-3.63477.70703-.70703,2.92773,2.92773,6.36523-6.36523.70703.70703ZM8.25558,11.69149h-3.48828c-1.93945,0-3.5166,1.57715-3.5166,3.5166v4.79199h1.5v-4.79199c0-1.1123.9043-2.0166,2.0166-2.0166h3.48828c1.1123,0,2.01758.9043,2.01758,2.0166v4.79199h1.5v-4.79199c0-1.93945-1.57812-3.5166-3.51758-3.5166ZM2.44113,7.32039c0-2.24414,1.82617-4.07031,4.07031-4.07031s4.07031,1.82617,4.07031,4.07031-1.82617,4.07031-4.07031,4.07031-4.07031-1.82617-4.07031-4.07031ZM3.94113,7.32039c0,1.41699,1.15332,2.57031,2.57031,2.57031s2.57031-1.15332,2.57031-2.57031-1.15332-2.57031-2.57031-2.57031-2.57031,1.15332-2.57031,2.57031Z"/></svg>