<svg xmlns="http://www.w3.org/2000/svg" viewBox="0 0 24 24"><title>UserBrush</title><path d="M9.86719,12.587H6.64209A2.93711,2.93711,0,0,0,3.7085,15.52063v2.86328h.75V15.52063A2.186,2.186,0,0,1,6.64209,13.337h3.2251a2.186,2.186,0,0,1,2.18359,2.18359v2.86328h.75V15.52063A2.93711,2.93711,0,0,0,9.86719,12.587Z" fill="#171717"/><path d="M8.25439,11.81067A3.28516,3.28516,0,1,0,4.96924,8.52551,3.28877,3.28877,0,0,0,8.25439,11.81067Zm0-5.82031A2.53516,2.53516,0,1,1,5.71924,8.52551,2.53826,2.53826,0,0,1,8.25439,5.99036Z" fill="#171717"/><path d="M18.98633,3.66028l-4.4375,4.4502a1.46509,1.46509,0,0,0-1.00147,1.46484c-.00244.07226-.00439.14258-.01806.26172-.00049.10156-.106.332-.09473.36133l-.01367.75c.04639.00195.1001.00293.16015.00293a2.78376,2.78376,0,0,0,1.96875-.65723,1.36733,1.36733,0,0,0,.37012-.94727l4.36719-4.38086ZM15.00293,9.7804a1.43311,1.43311,0,0,1-.76611.35937.9212.9212,0,0,0,.03857-.24707,2.64784,2.64784,0,0,0,.02149-.28906.69888.69888,0,0,1,.3955-.72363l.47754.48047A.60382.60382,0,0,1,15.00293,9.7804Zm.53564-1.11328L15.2959,8.423l3.69043-3.7002.24219.24316Z" fill="#171717"/></svg>