<?xml version="1.0" encoding="UTF-8"?><svg id="a" xmlns="http://www.w3.org/2000/svg" viewBox="0 0 24 24"><path d="M18.90305,10.14754h-.44244c1.37207-.38721,2.38678-1.63696,2.38678-3.13086,0-1.80078-1.46582-3.2666-3.2666-3.2666s-3.2666,1.46582-3.2666,3.2666c0,1.4939,1.01471,2.74365,2.38678,3.13086h-.44147c-.38281,0-.74255.09546-1.08185.23523-.38123-1.40442-1.65479-2.44617-3.17792-2.44617-1.05548,0-1.98621.50659-2.59167,1.27954-.48053-.35095-1.05371-.5686-1.66711-.5686h-.44244c1.37207-.38721,2.38678-1.63696,2.38678-3.13086,0-1.80078-1.46582-3.2666-3.2666-3.2666s-3.26562,1.46582-3.26562,3.2666c0,1.4939,1.01416,2.74365,2.38593,3.13086h-.44159c-1.57031,0-2.84766,1.27734-2.84766,2.84668v3.63184h1.5v-3.63184c0-.74219.60449-1.34668,1.34766-1.34668h2.64355c.39734,0,.76349.18237,1.01648.47778-.03809.20032-.06238.40564-.06238.61694,0,1.53784,1.06067,2.82324,2.4856,3.19043h-.52271c-1.58789,0-2.87988,1.29199-2.87988,2.87988v3.6875h1.5v-3.6875c0-.76074.61914-1.37988,1.37988-1.37988h2.68457c.76074,0,1.37891.61914,1.37891,1.37988v3.6875h1.5v-3.6875c0-1.58789-1.29102-2.87988-2.87891-2.87988h-.52356c1.08936-.28076,1.95386-1.09949,2.30518-2.15894.24921-.39111.66998-.62622,1.13538-.62622h2.64355c.74219,0,1.34668.60449,1.34668,1.34668v3.63184h1.5v-3.63184c0-1.56934-1.27734-2.84668-2.84668-2.84668ZM15.81418,7.01668c0-.97363.79297-1.7666,1.7666-1.7666s1.7666.79297,1.7666,1.7666-.79297,1.7666-1.7666,1.7666-1.7666-.79297-1.7666-1.7666ZM4.65305,5.51668c0-.97363.79199-1.7666,1.76562-1.7666s1.7666.79297,1.7666,1.7666-.79297,1.7666-1.7666,1.7666-1.76562-.79297-1.76562-1.7666ZM11.99973,13.04793c-.99512,0-1.80469-.80957-1.80469-1.80566s.80957-1.80566,1.80469-1.80566c.99609,0,1.80566.80957,1.80566,1.80566s-.80957,1.80566-1.80566,1.80566Z"/></svg>