<svg xmlns="http://www.w3.org/2000/svg" viewBox="0 0 16.57568 14.70508"><title>UserCog</title>
	<path
		d="M12.98242,2.001a1.72119,1.72119,0,1,0,1.72119,1.72168A1.72336,1.72336,0,0,0,12.98242,2.001Zm0,2.69238a.97119.97119,0,1,1,.97119-.9707A.972.972,0,0,1,12.98242,4.69336Z"
		fill="#171717"/>
	<path
		d="M16.57568,4.84863V2.541h-.86035a3.02115,3.02115,0,0,0-.38232-.64356l.4292-.74414L13.76318,0l-.43847.76367a2.9016,2.9016,0,0,0-.73.00684l-.436-.76074L10.15479,1.167l.4497.76563a2.96254,2.96254,0,0,0-.36474.6289H9.36426V4.86914h.86914a2.93383,2.93383,0,0,0,.37256.64453l-.42871.74317,1.998,1.15332.42383-.73633a2.78887,2.78887,0,0,0,.76514.001l.41845.72364,1.99756-1.15332-.42236-.73047a2.93325,2.93325,0,0,0,.38135-.666Zm-1.37988-.75-.08008.2666a2.20171,2.20171,0,0,1-.49023.85743l-.18506.20312.31543.5459-.69873.40332-.313-.542-.26953.06152a2.1825,2.1825,0,0,1-.98584-.00195l-.27-.06055-.31885.55274-.69824-.40332L11.523,5.4248l-.18457-.20312a2.21034,2.21034,0,0,1-.48486-.83887L10.772,4.11914h-.65771V3.31152l.65967.00391.08349-.26465a2.22674,2.22674,0,0,1,.48145-.8291l.18506-.2041-.33985-.5791.69824-.40332.33155.5791.271-.0625a2.20419,2.20419,0,0,1,.958-.00879l.26709.05664.32959-.57422.69824.40332-.32617.56445.19141.20313a2.24878,2.24878,0,0,1,.49756.83594l.08447.25879h.64014v.80761Z"
		fill="#171717"/>
	<path
		d="M6.15869,8.9082H2.93359A2.93712,2.93712,0,0,0,0,11.8418v2.86328H.75V11.8418A2.186,2.186,0,0,1,2.93359,9.6582h3.2251a2.186,2.186,0,0,1,2.1836,2.1836v2.86328h.75V11.8418A2.93712,2.93712,0,0,0,6.15869,8.9082Z"
		fill="#171717"/>
	<path
		d="M4.5459,8.13184A3.28516,3.28516,0,1,0,1.26074,4.84668,3.28877,3.28877,0,0,0,4.5459,8.13184Zm0-5.82032A2.53516,2.53516,0,1,1,2.01074,4.84668,2.53826,2.53826,0,0,1,4.5459,2.31152Z"
		fill="#171717"/>
</svg>
