<svg xmlns="http://www.w3.org/2000/svg" viewBox="0 0 24 24"><title>UserCode</title><path d="M9.86719,12.58728H6.6416A2.93659,2.93659,0,0,0,3.708,15.5199v2.86426h.75V15.5199A2.18577,2.18577,0,0,1,6.6416,13.33728H9.86719a2.18577,2.18577,0,0,1,2.18359,2.18262v2.86426h.75V15.5199A2.93659,2.93659,0,0,0,9.86719,12.58728Z" fill="#171717"/><path d="M8.25488,11.81091A3.28516,3.28516,0,1,0,4.96973,8.52576,3.28877,3.28877,0,0,0,8.25488,11.81091Zm0-5.82031A2.53516,2.53516,0,1,1,5.71973,8.52576,2.53859,2.53859,0,0,1,8.25488,5.9906Z" fill="#171717"/><polygon points="13.382 8.053 15.756 9.465 15.756 8.545 14.082 7.698 15.756 6.834 15.756 5.914 13.382 7.323 13.382 8.053" fill="#171717"/><polygon points="16.161 10.56 16.702 10.56 18.327 4.574 17.786 4.574 16.161 10.56" fill="#171717"/><polygon points="18.815 5.914 18.815 6.819 20.567 7.678 18.815 8.557 18.815 9.461 21.266 8.053 21.266 7.323 18.815 5.914" fill="#171717"/></svg>