<svg xmlns="http://www.w3.org/2000/svg" viewBox="0 0 24.75 24.75"><defs><style>.cls-1{fill:none;stroke:#000;stroke-miterlimit:10;stroke-width:0.75px;}.cls-2{fill:#171717;}</style></defs><title>UserBrush</title><g id="Ebene_2" data-name="Ebene 2"><g id="Ebene_1-2" data-name="Ebene 1"><rect class="cls-1" x="0.375" y="0.375" width="24" height="24"/><path class="cls-2" d="M10.24219,12.962H7.01709A2.93711,2.93711,0,0,0,4.0835,15.89563v2.86328h.75V15.89563A2.186,2.186,0,0,1,7.01709,13.712h3.2251a2.186,2.186,0,0,1,2.18359,2.18359v2.86328h.75V15.89563A2.93711,2.93711,0,0,0,10.24219,12.962Z"/><path class="cls-2" d="M8.62939,12.18567A3.28516,3.28516,0,1,0,5.34424,8.90051,3.28877,3.28877,0,0,0,8.62939,12.18567Zm0-5.82031A2.53516,2.53516,0,1,1,6.09424,8.90051,2.53826,2.53826,0,0,1,8.62939,6.36536Z"/><path class="cls-2" d="M19.36133,4.03528l-4.4375,4.4502a1.46509,1.46509,0,0,0-1.00147,1.46484c-.00244.07226-.00439.14258-.01806.26172-.00049.10156-.106.332-.09473.36133l-.01367.75c.04639.00195.1001.00293.16015.00293a2.78376,2.78376,0,0,0,1.96875-.65723,1.36733,1.36733,0,0,0,.37012-.94727l4.36719-4.38086Zm-3.9834,6.12012a1.43311,1.43311,0,0,1-.76611.35937.9212.9212,0,0,0,.03857-.24707,2.64784,2.64784,0,0,0,.02149-.28906.69888.69888,0,0,1,.3955-.72363l.47754.48047A.60382.60382,0,0,1,15.37793,10.1554Zm.53564-1.11328L15.6709,8.798l3.69043-3.7002.24219.24316Z"/></g></g></svg>
