<svg xmlns="http://www.w3.org/2000/svg" viewBox="0 0 24 24"><title>UserCode</title><polygon points="13.255 7.763 16.339 9.509 16.339 8.169 14.297 7.208 16.339 6.228 16.339 4.889 13.255 6.634 13.255 7.763" fill="#171717"/><polygon points="16.747 10.761 17.517 10.761 19.437 3.201 18.667 3.201 16.747 10.761" fill="#171717"/><polygon points="19.964 4.894 19.964 6.223 22.045 7.194 19.964 8.179 19.964 9.513 23.084 7.763 23.084 6.639 19.964 4.894" fill="#171717"/><path d="M8.25558,11.69076H4.7673a3.52091,3.52091,0,0,0-3.5166,3.51757v4.792h1.5v-4.792a2.01927,2.01927,0,0,1,2.0166-2.01757H8.25558a2.0201,2.0201,0,0,1,2.01758,2.01757v4.792h1.5v-4.792A3.52174,3.52174,0,0,0,8.25558,11.69076Z" fill="#171717"/><path d="M6.51144,11.391A4.07031,4.07031,0,1,0,2.44113,7.32064,4.07523,4.07523,0,0,0,6.51144,11.391Zm0-6.64062A2.57031,2.57031,0,1,1,3.94113,7.32064,2.573,2.573,0,0,1,6.51144,4.75033Z" fill="#171717"/></svg>