<?xml version="1.0" encoding="UTF-8"?><svg id="a" xmlns="http://www.w3.org/2000/svg" viewBox="0 0 24 24"><path d="M18.38937,16.00985v5.99023h-1.5v-5.99023c0-1.49414-1.21484-2.70898-2.70898-2.70898h-4.36035c-1.49414,0-2.70898,1.21484-2.70898,2.70898v5.99023h-1.5v-5.99023c0-2.32129,1.8877-4.20898,4.20898-4.20898h4.36035c2.32129,0,4.20898,1.8877,4.20898,4.20898ZM7.09933,6.15047c0-2.70215,2.19824-4.90039,4.90039-4.90039s4.90039,2.19824,4.90039,4.90039-2.19824,4.90039-4.90039,4.90039-4.90039-2.19824-4.90039-4.90039ZM8.59933,6.15047c0,1.875,1.52539,3.40039,3.40039,3.40039s3.40039-1.52539,3.40039-3.40039-1.52539-3.40039-3.40039-3.40039-3.40039,1.52539-3.40039,3.40039Z"/></svg>