<svg xmlns="http://www.w3.org/2000/svg" viewBox="0 0 24.75 24.75"><defs><style>.cls-1{fill:none;stroke:#000;stroke-miterlimit:10;stroke-width:0.75px;}</style></defs><title>UserCog</title><g id="Ebene_2" data-name="Ebene 2"><g id="Ebene_1-2" data-name="Ebene 1"><rect class="cls-1" x="0.375" y="0.375" width="24" height="24"/><path d="M17.07684,6.05481A1.72119,1.72119,0,1,0,18.798,7.77649,1.72337,1.72337,0,0,0,17.07684,6.05481Zm0,2.69238a.97119.97119,0,1,1,.9712-.9707A.972.972,0,0,1,17.07684,8.74719Z"/><path d="M20.67011,8.90247V6.59485h-.86036a3.02066,3.02066,0,0,0-.38232-.64355l.4292-.74414-1.999-1.15333-.43848.76368a2.90114,2.90114,0,0,0-.73.00683l-.436-.76074-2.0039,1.15723.4497.76562a2.96321,2.96321,0,0,0-.36474.62891h-.87549V8.923h.86914a2.93469,2.93469,0,0,0,.37256.64453l-.42871.74316,1.998,1.15332.42382-.73633a2.78848,2.78848,0,0,0,.76514.001l.41846.72363L19.8747,10.299l-.42237-.73047a2.93318,2.93318,0,0,0,.38135-.666Zm-1.37989-.75-.08007.2666a2.20182,2.20182,0,0,1-.49024.85742l-.18506.20313.31543.54589-.69873.40332-.313-.542-.26953.06153a2.1825,2.1825,0,0,1-.98584-.002l-.27-.06054-.31884.55273-.69825-.40332.32129-.55664-.18457-.20313a2.21043,2.21043,0,0,1-.48486-.83886L14.8664,8.173h-.65772V7.36536l.65967.0039.08349-.26464a2.22713,2.22713,0,0,1,.48145-.82911l.18506-.2041-.33985-.5791.69825-.40332.33154.5791.271-.0625a2.20429,2.20429,0,0,1,.958-.00879l.26709.05664.32959-.57421.69825.40332L18.506,6.047l.19141.20312a2.24878,2.24878,0,0,1,.49756.83594l.08447.25879h.64014v.80762Z"/><path d="M10.25311,12.962H7.028a2.93712,2.93712,0,0,0-2.9336,2.93359v2.86328h.75V15.89563A2.186,2.186,0,0,1,7.028,13.712h3.22509a2.186,2.186,0,0,1,2.1836,2.18359v2.86328h.75V15.89563A2.93712,2.93712,0,0,0,10.25311,12.962Z"/><path d="M8.64032,12.18567A3.28516,3.28516,0,1,0,5.35516,8.90051,3.28878,3.28878,0,0,0,8.64032,12.18567Zm0-5.82031A2.53516,2.53516,0,1,1,6.10516,8.90051,2.53826,2.53826,0,0,1,8.64032,6.36536Z"/></g></g></svg>
