<?xml version="1.0" encoding="UTF-8"?><svg id="a" xmlns="http://www.w3.org/2000/svg" viewBox="0 0 24 24"><path d="M13.25461,6.63411l3.08398-1.74512v1.33887l-2.04201.98047,2.04201.96094v1.33984l-3.08398-1.74609v-1.12891ZM16.7468,10.76107h.77051l1.91992-7.55957h-.77051l-1.91992,7.55957ZM19.96359,4.89388v1.3291l2.08105.9707-2.08105.98535v1.33398l3.12012-1.75v-1.12402l-3.12012-1.74512ZM8.25558,11.69076h-3.48828c-1.93945,0-3.5166,1.57812-3.5166,3.51758v4.79199h1.5v-4.79199c0-1.1123.9043-2.01758,2.0166-2.01758h3.48828c1.1123,0,2.01758.90527,2.01758,2.01758v4.79199h1.5v-4.79199c0-1.93945-1.57812-3.51758-3.51758-3.51758ZM2.44113,7.32064c0-2.24512,1.82617-4.07031,4.07031-4.07031s4.07031,1.8252,4.07031,4.07031c0,2.24414-1.82617,4.07031-4.07031,4.07031s-4.07031-1.82617-4.07031-4.07031ZM3.94113,7.32064c0,1.41699,1.15332,2.57031,2.57031,2.57031s2.57031-1.15332,2.57031-2.57031c0-1.41797-1.15332-2.57031-2.57031-2.57031s-2.57031,1.15234-2.57031,2.57031Z"/></svg>