<svg xmlns="http://www.w3.org/2000/svg" viewBox="0 0 24 24"><title>User</title><path d="M13.86377,11.66748H10.16943a3.30972,3.30972,0,0,0-3.30566,3.30567v5.23632h.75V14.97315a2.55858,2.55858,0,0,1,2.55566-2.55567h3.69434a2.55858,2.55858,0,0,1,2.55566,2.55567v5.23632h.75V14.97315A3.30972,3.30972,0,0,0,13.86377,11.66748Z" fill="#171717"/><path d="M12.0166,11.25147a3.7085,3.7085,0,1,0-3.70849-3.709A3.71295,3.71295,0,0,0,12.0166,11.25147Zm0-6.667a2.9585,2.9585,0,1,1-2.95849,2.958A2.96161,2.96161,0,0,1,12.0166,4.58447Z" fill="#171717"/></svg>