<svg xmlns="http://www.w3.org/2000/svg" viewBox="0 0 24 24"><title>UserCog</title><path d="M8.25558,11.69149H4.7673a3.52008,3.52008,0,0,0-3.5166,3.5166v4.792h1.5v-4.792a2.01844,2.01844,0,0,1,2.0166-2.0166H8.25558a2.01927,2.01927,0,0,1,2.01758,2.0166v4.792h1.5v-4.792A3.52091,3.52091,0,0,0,8.25558,11.69149Z" fill="#171717"/><path d="M6.51144,11.39071A4.07032,4.07032,0,1,0,2.44113,7.32039,4.07524,4.07524,0,0,0,6.51144,11.39071Zm0-6.64063A2.57032,2.57032,0,1,1,3.94113,7.32039,2.57359,2.57359,0,0,1,6.51144,4.75008Z" fill="#171717"/><path d="M17.25168,4.56258a2.18653,2.18653,0,1,0,2.1875,2.18652A2.18848,2.18848,0,0,0,17.25168,4.56258Zm0,3.37305a1.18653,1.18653,0,1,1,1.1875-1.18653A1.18781,1.18781,0,0,1,17.25168,7.93563Z" fill="#171717"/><path d="M21.75168,8.212V5.26082h-1.0752a3.80066,3.80066,0,0,0-.457-.77832l.53613-.93945L18.21945,2.0616l-.54883.96973a3.54213,3.54213,0,0,0-.8623.00781l-.5459-.96484-2.541,1.48535.56152.9668a3.77255,3.77255,0,0,0-.43652.75976H12.75168V8.23739h1.08789a3.80239,3.80239,0,0,0,.44531.77832l-.53613.93945L16.281,11.43563l.53222-.93262a3.441,3.441,0,0,0,.90723,0l.52441.91992,2.53223-1.48047-.52734-.92382a3.74525,3.74525,0,0,0,.457-.80664Zm-1.77149-1-.10644.35742a2.73385,2.73385,0,0,1-.59961,1.06347l-.24219.26856.38574.67773-.80566.47071-.38086-.66895-.36133.082a2.6435,2.6435,0,0,1-1.20508-.001l-.36132-.083-.38965.68359-.80567-.4707.39551-.69238L15.26047,8.63a2.69968,2.69968,0,0,1-.59278-1.03906l-.10839-.35351h-.80762V6.28621l.80859.00391.11131-.35352a2.735,2.735,0,0,1,.58889-1.02636l.24414-.27051-.418-.7207.80469-.46973.40525.71582.3633-.084a2.60411,2.60411,0,0,1,1.16992-.0127l.3584.07617.40235-.708.80566.46973-.40039.70215.25.26953a2.77614,2.77614,0,0,1,.61035,1.03613l.11133.34668h.78418V7.212Z" fill="#171717"/></svg>