<svg xmlns="http://www.w3.org/2000/svg" viewBox="0 0 24.75 24.75"><defs><style>.cls-1{fill:none;stroke:#171717;stroke-miterlimit:10;stroke-width:0.75px;}</style></defs><title>Users</title><g id="Ebene_2" data-name="Ebene 2"><g id="Ebene_1-2" data-name="Ebene 1"><rect class="cls-1" x="0.375" y="0.375" width="24" height="24"/><path d="M17.73992,10.76258h-.62567a2.375,2.375,0,1,0-.96545,0h-.62519a2.12839,2.12839,0,0,0-.80474.16095,2.55215,2.55215,0,0,0-4.02973-.87714,2.11288,2.11288,0,0,0-1.51709-.64416H8.54638a2.375,2.375,0,1,0-.96545,0H6.95574A2.13577,2.13577,0,0,0,4.822,11.535v3.1416h.75V11.535a1.38463,1.38463,0,0,1,1.38379-1.38281H9.17205a1.37383,1.37383,0,0,1,1.029.45819A2.55083,2.55083,0,0,0,9.8,11.97645a2.575,2.575,0,1,0,5.1499,0,2.52656,2.52656,0,0,0-.03094-.30579,1.365,1.365,0,0,1,.60467-.15808h2.21631a1.38536,1.38536,0,0,1,1.3833,1.38379V16.038h.75v-3.1416A2.13587,2.13587,0,0,0,17.73992,10.76258Zm-2.7334-2.3252a1.625,1.625,0,1,1,1.625,1.625A1.62657,1.62657,0,0,1,15.00652,8.43738ZM6.43865,7.077a1.625,1.625,0,1,1,1.625,1.625A1.62657,1.62657,0,0,1,6.43865,7.077Zm5.936,6.72461a1.82471,1.82471,0,1,1,1.82519-1.82519A1.82662,1.82662,0,0,1,12.37469,13.80164Z"/><path d="M13.59393,14.57215h-2.438a2.311,2.311,0,0,0-2.30908,2.30859v2.64453h.75V16.88074a1.56051,1.56051,0,0,1,1.55908-1.55859h2.438a1.56093,1.56093,0,0,1,1.55957,1.55859v2.64453h.75V16.88074A2.31144,2.31144,0,0,0,13.59393,14.57215Z"/></g></g></svg>
