<svg xmlns="http://www.w3.org/2000/svg" viewBox="0 0 24 24"><title>UserBrush</title><path d="M8.25558,11.69076H4.7673a3.52091,3.52091,0,0,0-3.5166,3.51757v4.792h1.5v-4.792a2.01927,2.01927,0,0,1,2.0166-2.01757H8.25558a2.0201,2.0201,0,0,1,2.01758,2.01757v4.792h1.5v-4.792A3.52174,3.52174,0,0,0,8.25558,11.69076Z" fill="#171717"/><path d="M6.51144,11.391A4.07031,4.07031,0,1,0,2.44113,7.32064,4.07523,4.07523,0,0,0,6.51144,11.391Zm0-6.64062A2.57031,2.57031,0,1,1,3.94113,7.32064,2.573,2.573,0,0,1,6.51144,4.75033Z" fill="#171717"/><path d="M20.26144,2.04329,14.67453,7.59408a1.879,1.879,0,0,0-1.2959,1.88183c-.00293.08985-.00586.17871-.02344.333l-.10351.43652-.01856,1q.09083.00294.20508.00293a3.599,3.599,0,0,0,2.54883-.84863,1.75513,1.75513,0,0,0,.47461-1.20313l5.499-5.46289ZM15.25656,9.71615a1.82848,1.82848,0,0,1-.94726.44726,1.122,1.122,0,0,0,.041-.2793,3.51006,3.51006,0,0,0,.02735-.37011.85558.85558,0,0,1,.48632-.89453l.59766.59375A.74058.74058,0,0,1,15.25656,9.71615Zm.69629-1.42383L15.67158,8.012l4.58986-4.55859.28125.28027Z" fill="#171717"/></svg>