<svg xmlns="http://www.w3.org/2000/svg" viewBox="0 0 24 24"><title>Users</title><path d="M18.90305,10.14754H18.4606a3.26663,3.26663,0,1,0-1.75964,0h-.44147a2.829,2.829,0,0,0-1.08185.23523A3.27841,3.27841,0,0,0,9.40805,9.21615a2.82763,2.82763,0,0,0-1.66711-.56861H7.29849a3.26571,3.26571,0,1,0-1.75952,0H5.09738a2.85053,2.85053,0,0,0-2.84765,2.84668v3.63184h1.5V11.49422a1.34889,1.34889,0,0,1,1.34765-1.34668H7.74094a1.34072,1.34072,0,0,1,1.01648.47779,3.26648,3.26648,0,0,0,2.42321,3.80737h-.5227a2.88325,2.88325,0,0,0-2.87988,2.87988v3.6875h1.5v-3.6875a1.38161,1.38161,0,0,1,1.37988-1.37988H13.3425a1.38078,1.38078,0,0,1,1.37891,1.37988v3.6875h1.5v-3.6875A2.88242,2.88242,0,0,0,13.3425,14.4327h-.52356a3.30031,3.30031,0,0,0,2.30517-2.15894,1.33785,1.33785,0,0,1,1.13538-.62622h2.64356a1.34869,1.34869,0,0,1,1.34668,1.34668v3.63184h1.5V12.99422A2.85033,2.85033,0,0,0,18.90305,10.14754ZM15.81418,7.01668a1.7666,1.7666,0,1,1,1.7666,1.7666A1.76921,1.76921,0,0,1,15.81418,7.01668Zm-11.16113-1.5a1.76611,1.76611,0,1,1,1.76562,1.7666A1.76838,1.76838,0,0,1,4.65305,5.51668Zm7.34668,7.53125a1.80567,1.80567,0,1,1,1.80566-1.80566A1.80693,1.80693,0,0,1,11.99973,13.04793Z" fill="#171717"/></svg>