<svg xmlns="http://www.w3.org/2000/svg" viewBox="0 0 24 24"><title>UserCheckmark</title><path d="M9.86719,12.587H6.64209A2.93711,2.93711,0,0,0,3.7085,15.52063v2.86328h.75V15.52063A2.186,2.186,0,0,1,6.64209,13.337h3.2251a2.186,2.186,0,0,1,2.18359,2.18359v2.86328h.75V15.52063A2.93711,2.93711,0,0,0,9.86719,12.587Z" fill="#171717"/><path d="M8.25439,11.81067A3.28516,3.28516,0,1,0,4.96924,8.52551,3.28877,3.28877,0,0,0,8.25439,11.81067Zm0-5.82031A2.53516,2.53516,0,1,1,5.71924,8.52551,2.53826,2.53826,0,0,1,8.25439,5.99036Z" fill="#171717"/><polygon points="21.271 4.807 16.032 10.046 13.7 7.713 13.169 8.244 16.032 11.107 21.802 5.338 21.271 4.807" fill="#171717"/></svg>