<svg xmlns="http://www.w3.org/2000/svg" viewBox="0 0 24 24"><title>Users</title><path d="M17.39209,10.36731h-.62567a2.375,2.375,0,1,0-.96546,0h-.62518a2.12863,2.12863,0,0,0-.80475.16095,2.55214,2.55214,0,0,0-4.02972-.87714A2.11294,2.11294,0,0,0,8.82422,9.007H8.19855a2.375,2.375,0,1,0-.96546,0H6.60791a2.13576,2.13576,0,0,0-2.13379,2.13281v3.1416h.75v-3.1416A1.38463,1.38463,0,0,1,6.60791,9.757H8.82422a1.37383,1.37383,0,0,1,1.029.45819,2.55075,2.55075,0,0,0-.40112,1.366,2.575,2.575,0,1,0,5.1499,0,2.52858,2.52858,0,0,0-.03094-.30579,1.365,1.365,0,0,1,.60467-.15808h2.21631a1.38536,1.38536,0,0,1,1.3833,1.38379v3.1416h.75V12.5011A2.13587,2.13587,0,0,0,17.39209,10.36731Zm-2.7334-2.32519a1.625,1.625,0,1,1,1.625,1.625A1.62657,1.62657,0,0,1,14.65869,8.04212ZM6.09082,6.68176a1.625,1.625,0,1,1,1.625,1.625A1.62657,1.62657,0,0,1,6.09082,6.68176Zm5.936,6.72461a1.82471,1.82471,0,1,1,1.82519-1.82519A1.82662,1.82662,0,0,1,12.02686,13.40637Z" fill="#171717"/><path d="M13.24609,14.17688h-2.438A2.311,2.311,0,0,0,8.499,16.48548V19.13h.75V16.48548a1.56051,1.56051,0,0,1,1.55909-1.5586h2.438a1.56092,1.56092,0,0,1,1.55957,1.5586V19.13h.75V16.48548A2.31144,2.31144,0,0,0,13.24609,14.17688Z" fill="#171717"/></svg>