<svg xmlns="http://www.w3.org/2000/svg" viewBox="0 0 24.75 24.75"><defs><style>.cls-1{fill:none;stroke:#000;stroke-miterlimit:10;stroke-width:0.75px;}</style></defs><title>User</title><g id="Ebene_2" data-name="Ebene 2"><g id="Ebene_1-2" data-name="Ebene 1"><rect class="cls-1" x="0.375" y="0.375" width="24" height="24"/><path d="M14.22209,11.83288H10.52775a3.30972,3.30972,0,0,0-3.30566,3.30567v5.23632h.75V15.13855a2.55858,2.55858,0,0,1,2.55566-2.55567h3.69434a2.55858,2.55858,0,0,1,2.55566,2.55567v5.23632h.75V15.13855A3.30972,3.30972,0,0,0,14.22209,11.83288Z"/><path d="M12.37492,11.41687a3.7085,3.7085,0,1,0-3.7085-3.709A3.713,3.713,0,0,0,12.37492,11.41687Zm0-6.667a2.9585,2.9585,0,1,1-2.9585,2.958A2.96161,2.96161,0,0,1,12.37492,4.74987Z"/></g></g></svg>
