<svg xmlns="http://www.w3.org/2000/svg" viewBox="0 0 18.09326 13.57715"><title>UserCheckmark</title>
	<path
		d="M6.15869,7.78027H2.93359A2.93712,2.93712,0,0,0,0,10.71387v2.86328H.75V10.71387a2.186,2.186,0,0,1,2.18359-2.1836h3.2251a2.186,2.186,0,0,1,2.1836,2.1836v2.86328h.75V10.71387A2.93712,2.93712,0,0,0,6.15869,7.78027Z"
		fill="#171717"/>
	<path
		d="M4.5459,7.00391A3.28516,3.28516,0,1,0,1.26074,3.71875,3.28877,3.28877,0,0,0,4.5459,7.00391Zm0-5.82032A2.53516,2.53516,0,1,1,2.01074,3.71875,2.53826,2.53826,0,0,1,4.5459,1.18359Z"
		fill="#171717"/>
	<polygon points="17.562 0 12.324 5.239 9.991 2.906 9.461 3.438 12.324 6.3 18.093 0.531 17.562 0" fill="#171717"/>
</svg>
