<svg xmlns="http://www.w3.org/2000/svg" viewBox="0 0 24 24"><title>UserCog</title><path d="M16.69092,5.67981a1.72119,1.72119,0,1,0,1.72119,1.72168A1.72336,1.72336,0,0,0,16.69092,5.67981Zm0,2.69238a.97119.97119,0,1,1,.97119-.9707A.972.972,0,0,1,16.69092,8.37219Z" fill="#171717"/><path d="M20.28418,8.52747V6.21985h-.86035a3.02112,3.02112,0,0,0-.38233-.64355l.4292-.74414-1.999-1.15333-.43848.76368a2.90114,2.90114,0,0,0-.73.00683l-.436-.76074L13.86328,4.84583l.44971.76562a2.96283,2.96283,0,0,0-.36475.62891h-.87549V8.548h.86914a2.93509,2.93509,0,0,0,.37256.64453l-.42871.74316,1.998,1.15332.42383-.73633a2.78841,2.78841,0,0,0,.76513.001l.41846.72363L19.48877,9.924l-.42236-.73047a2.93314,2.93314,0,0,0,.38134-.666Zm-1.37988-.75-.08008.2666a2.20157,2.20157,0,0,1-.49024.85742l-.18505.20313.31543.54589-.69873.40332-.313-.542-.26953.06153a2.1825,2.1825,0,0,1-.98584-.002l-.27-.06054-.31885.55273-.69824-.40332.32129-.55664-.18457-.20313a2.21033,2.21033,0,0,1-.48487-.83886L14.48047,7.798h-.65772V6.99036l.65967.0039.0835-.26464a2.227,2.227,0,0,1,.48144-.82911l.18506-.2041-.33984-.5791.69824-.40332.33154.5791.271-.0625a2.20434,2.20434,0,0,1,.958-.00879l.26709.05664.32959-.57421.69824.40332-.32617.56445.1914.20312a2.24865,2.24865,0,0,1,.49756.83594l.08447.25879h.64014v.80762Z" fill="#171717"/><path d="M9.86719,12.587H6.64209A2.93711,2.93711,0,0,0,3.7085,15.52063v2.86328h.75V15.52063A2.186,2.186,0,0,1,6.64209,13.337h3.2251a2.186,2.186,0,0,1,2.18359,2.18359v2.86328h.75V15.52063A2.93711,2.93711,0,0,0,9.86719,12.587Z" fill="#171717"/><path d="M8.25439,11.81067A3.28516,3.28516,0,1,0,4.96924,8.52551,3.28877,3.28877,0,0,0,8.25439,11.81067Zm0-5.82031A2.53516,2.53516,0,1,1,5.71924,8.52551,2.53826,2.53826,0,0,1,8.25439,5.99036Z" fill="#171717"/></svg>