<svg xmlns="http://www.w3.org/2000/svg" viewBox="0 0 15.05127 14.82324"><title>Users</title>
	<path
		d="M12.918,6.06055H12.2923a2.375,2.375,0,1,0-.96546,0h-.62518a2.1284,2.1284,0,0,0-.80475.16095,2.55214,2.55214,0,0,0-4.02972-.87714A2.1129,2.1129,0,0,0,4.3501,4.7002H3.72443a2.375,2.375,0,1,0-.96546,0H2.13379A2.13576,2.13576,0,0,0,0,6.833v3.1416H.75V6.833A1.38463,1.38463,0,0,1,2.13379,5.4502H4.3501a1.37383,1.37383,0,0,1,1.029.45819,2.55074,2.55074,0,0,0-.40112,1.366,2.575,2.575,0,1,0,5.1499,0,2.52661,2.52661,0,0,0-.03095-.30578,1.3651,1.3651,0,0,1,.60468-.15808H12.918a1.38536,1.38536,0,0,1,1.3833,1.38379v3.1416h.75V8.19434A2.13587,2.13587,0,0,0,12.918,6.06055Zm-2.7334-2.3252a1.625,1.625,0,1,1,1.625,1.625A1.62657,1.62657,0,0,1,10.18457,3.73535ZM1.6167,2.375A1.625,1.625,0,1,1,3.2417,4,1.62657,1.62657,0,0,1,1.6167,2.375Zm5.936,6.72461a1.82471,1.82471,0,1,1,1.8252-1.8252A1.82662,1.82662,0,0,1,7.55273,9.09961Z"
		fill="#171717"/>
	<path
		d="M8.772,9.87012H6.334A2.311,2.311,0,0,0,4.0249,12.17871v2.64453h.75V12.17871A1.56051,1.56051,0,0,1,6.334,10.62012H8.772a1.56092,1.56092,0,0,1,1.55957,1.55859v2.64453h.75V12.17871A2.31143,2.31143,0,0,0,8.772,9.87012Z"
		fill="#171717"/>
</svg>
