<svg xmlns="http://www.w3.org/2000/svg" viewBox="0 0 24.75 24.75"><defs><style>.cls-1{fill:none;stroke:#000;stroke-miterlimit:10;stroke-width:0.75px;}</style></defs><title>UserCode</title><g id="Ebene_2" data-name="Ebene 2"><g id="Ebene_1-2" data-name="Ebene 1"><rect class="cls-1" x="0.375" y="0.375" width="24" height="24"/><path d="M10.24219,12.96228H7.0166A2.93659,2.93659,0,0,0,4.083,15.8949v2.86426h.75V15.8949A2.18577,2.18577,0,0,1,7.0166,13.71228h3.22559a2.18577,2.18577,0,0,1,2.18359,2.18262v2.86426h.75V15.8949A2.93659,2.93659,0,0,0,10.24219,12.96228Z"/><path d="M8.62988,12.18591A3.28516,3.28516,0,1,0,5.34473,8.90076,3.28877,3.28877,0,0,0,8.62988,12.18591Zm0-5.82031A2.53516,2.53516,0,1,1,6.09473,8.90076,2.53859,2.53859,0,0,1,8.62988,6.3656Z"/><polygon points="13.757 8.428 16.131 9.84 16.131 8.92 14.457 8.073 16.131 7.209 16.131 6.289 13.757 7.698 13.757 8.428"/><polygon points="16.536 10.935 17.077 10.935 18.702 4.949 18.161 4.949 16.536 10.935"/><polygon points="19.19 6.289 19.19 7.194 20.942 8.053 19.19 8.932 19.19 9.836 21.641 8.428 21.641 7.698 19.19 6.289"/></g></g></svg>
