<svg xmlns="http://www.w3.org/2000/svg" viewBox="0 0 24.75 24.75"><defs><style>.cls-1{fill:none;stroke:#000;stroke-miterlimit:10;stroke-width:0.75px;}</style></defs><title>UserCheckmark</title><g id="Ebene_2" data-name="Ebene 2"><g id="Ebene_1-2" data-name="Ebene 1"><rect class="cls-1" x="0.375" y="0.375" width="24" height="24"/><path d="M10.24219,12.962H7.01709A2.93711,2.93711,0,0,0,4.0835,15.89563v2.86328h.75V15.89563A2.186,2.186,0,0,1,7.01709,13.712h3.2251a2.186,2.186,0,0,1,2.18359,2.18359v2.86328h.75V15.89563A2.93711,2.93711,0,0,0,10.24219,12.962Z"/><path d="M8.62939,12.18567A3.28516,3.28516,0,1,0,5.34424,8.90051,3.28877,3.28877,0,0,0,8.62939,12.18567Zm0-5.82031A2.53516,2.53516,0,1,1,6.09424,8.90051,2.53826,2.53826,0,0,1,8.62939,6.36536Z"/><polygon points="21.646 5.182 16.407 10.421 14.075 8.088 13.544 8.619 16.407 11.482 22.177 5.713 21.646 5.182"/></g></g></svg>
