<svg xmlns="http://www.w3.org/2000/svg" viewBox="0 0 16.62451 14.72266"><title>UserPen</title>
	<path
		d="M15.15479,0,9.59521,5.583l-.33886,1.7998,1.80615-.332,5.562-5.58594Zm.00195,1.06055.40771.40625-.61273.61529-.40918-.40478ZM10.69629,6.35547l-.50049.0918.09375-.499,3.72382-3.7395.40924.40472Z"
		fill="#171717"/>
	<path
		d="M6.15869,8.92578H2.93359A2.93712,2.93712,0,0,0,0,11.85938v2.86328H.75V11.85938a2.186,2.186,0,0,1,2.18359-2.1836h3.2251a2.186,2.186,0,0,1,2.1836,2.1836v2.86328h.75V11.85938A2.93712,2.93712,0,0,0,6.15869,8.92578Z"
		fill="#171717"/>
	<path
		d="M4.5459,8.14941A3.28516,3.28516,0,1,0,1.26074,4.86426,3.28877,3.28877,0,0,0,4.5459,8.14941Zm0-5.82031A2.53516,2.53516,0,1,1,2.01074,4.86426,2.53826,2.53826,0,0,1,4.5459,2.3291Z"
		fill="#171717"/>
</svg>
