<svg xmlns="http://www.w3.org/2000/svg" viewBox="0 0 24.75 24.75"><defs><style>.cls-1{fill:none;stroke:#000;stroke-miterlimit:10;stroke-width:0.75px;}</style></defs><title>UserPen</title><g id="Ebene_2" data-name="Ebene 2"><g id="Ebene_1-2" data-name="Ebene 1"><rect class="cls-1" x="0.375" y="0.375" width="24" height="24"/><path d="M19.23828,4.03626l-5.55957,5.583-.33887,1.79981,1.80616-.332L20.708,5.5011Zm.002,1.06054.40772.40625-.61273.6153L18.626,5.71356Zm-4.46044,5.29493-.50049.09179.09375-.499L18.09686,6.245l.40924.40472Z"/><path d="M10.24219,12.962H7.01709A2.93711,2.93711,0,0,0,4.0835,15.89563v2.86328h.75V15.89563A2.186,2.186,0,0,1,7.01709,13.712h3.2251a2.186,2.186,0,0,1,2.18359,2.18359v2.86328h.75V15.89563A2.93711,2.93711,0,0,0,10.24219,12.962Z"/><path d="M8.62939,12.18567A3.28516,3.28516,0,1,0,5.34424,8.90051,3.28877,3.28877,0,0,0,8.62939,12.18567Zm0-5.82031A2.53516,2.53516,0,1,1,6.09424,8.90051,2.53826,2.53826,0,0,1,8.62939,6.36536Z"/></g></g></svg>
