<svg xmlns="http://www.w3.org/2000/svg" viewBox="0 0 24 24"><title>User</title><path d="M14.18039,11.80086H9.82a4.21319,4.21319,0,0,0-4.209,4.209v5.99023h1.5V16.00985a2.71155,2.71155,0,0,1,2.709-2.709h4.36035a2.71154,2.71154,0,0,1,2.709,2.709v5.99023h1.5V16.00985A4.21318,4.21318,0,0,0,14.18039,11.80086Z" fill="#171717"/><path d="M11.99973,11.05086a4.90039,4.90039,0,1,0-4.9004-4.90039A4.90586,4.90586,0,0,0,11.99973,11.05086Zm0-8.30078a3.40039,3.40039,0,1,1-3.4004,3.40039A3.40422,3.40422,0,0,1,11.99973,2.75008Z" fill="#171717"/></svg>