<svg xmlns="http://www.w3.org/2000/svg" viewBox="0 0 24 24"><title>Video</title><path d="M9.86789,7.42513v9.14941l4.57519-4.57519Zm1.5,3.62109.9541.95411-.9541.95312Z" fill="#171717"/><path d="M1.2507,3.25033v17.5h21.499v-17.5Zm1.48395,14.959h1.0329V19.6097H2.73465Zm16.031,1.041v.35937h-1.0329V18.20931h1.0329Zm-2.4997,0v.35937h-1.0329V18.20931H16.266Zm-2.49963,0v.35937h-1.033V18.20931h1.033Zm-2.4997,0v.35937h-1.033V18.20931h1.033Zm-2.49969,0v.35937H7.734V18.20931h1.0329Zm-2.4997,0v.35937H5.23434V18.20931h1.0329Zm14.99811.35937h-1.0329V18.20931h1.0329ZM2.7507,17.48861V6.512h18.499V17.48861Zm16.015-12.73828V5.78255h-1.0329V4.38314h1.0329Zm-2.4997,0V5.78255h-1.0329V4.38314H16.266Zm-2.49963,0V5.78255h-1.033V4.38314h1.033Zm-2.4997,0V5.78255h-1.033V4.38314h1.033Zm-2.49969,0V5.78255H7.734V4.38314h1.0329Zm-2.4997,0V5.78255H5.23434V4.38314h1.0329Zm-2.49969,0V5.78255H2.73465V4.38314h1.0329Zm17.4978,1.03222h-1.0329V4.38314h1.0329Z" fill="#171717"/></svg>