<svg xmlns="http://www.w3.org/2000/svg" viewBox="0 0 24.75 24.75"><defs><style>.cls-1{fill:none;stroke:#171717;stroke-miterlimit:10;stroke-width:0.75px;}.cls-2{fill:#171717;}</style></defs><title>Video</title><g id="Ebene_2" data-name="Ebene 2"><g id="Ebene_1-2" data-name="Ebene 1"><rect class="cls-1" x="0.375" y="0.375" width="24" height="24"/><rect class="cls-1" x="0.375" y="0.375" width="24" height="24"/><path class="cls-2" d="M4.06633,5.61536V19.13391h16.584V5.61536Zm14.80945.75h.81781v.99316h-.81781Zm-1.979,0h.81781v.99316h-.81781Zm-1.979,0h.81781v.99316h-.81781Zm-1.979,0h.81781v.99316h-.81781Zm-1.979,0h.81781v.99316h-.81781Zm-1.979,0h.81781v.99316H8.98076Zm-1.979,0h.81781v.99316H7.00175Zm-1.979,0h.81781v.99316H5.02275Zm.81781,12.01855H5.02275V17.3855h.81781Zm1.979,0H7.00175V17.3855h.81781Zm1.979,0H8.98076V17.3855h.81781Zm1.979,0h-.81781V17.3855h.81781Zm1.979,0h-.81781V17.3855h.81781Zm1.979,0h-.81781V17.3855h.81781Zm1.979,0h-.81781V17.3855h.81781Zm1.979,0h-.81781V17.3855h.81781Zm.20672-1.613H4.81633V7.97907h15.084Z"/><path class="cls-2" d="M10.99357,8.76184v7.22461l3.61182-3.61133Zm.75,1.81153,1.80127,1.80175-1.80127,1.80079Z"/></g></g></svg>
