<svg xmlns="http://www.w3.org/2000/svg" viewBox="0 0 16.58398 13.51855"><title>Video</title>
	<path
		d="M0,0V13.51855H16.584V0ZM14.80945.75h.81781v.99316h-.81781Zm-1.979,0h.81781v.99316h-.81781Zm-1.979,0h.81781v.99316h-.81781Zm-1.979,0h.81781v.99316H8.87244Zm-1.979,0h.81781v.99316H6.89343Zm-1.979,0h.81781v.99316H4.91443Zm-1.979,0h.81781v.99316H2.93542Zm-1.979,0h.81781v.99316H.95642Zm.81781,12.01855H.95642v-.99841h.81781Zm1.979,0H2.93542v-.99841h.81781Zm1.979,0H4.91443v-.99841h.81781Zm1.979,0H6.89343v-.99841h.81781Zm1.979,0H8.87244v-.99841h.81781Zm1.979,0h-.81781v-.99841h.81781Zm1.979,0h-.81781v-.99841h.81781Zm1.979,0h-.81781v-.99841h.81781Zm.20672-1.613H.75V2.36371H15.834Z"
		fill="#171717"/>
	<path d="M6.92725,3.14648v7.22461l3.61181-3.61132Zm.75,1.81153L9.47852,6.75977,7.67725,8.56055Z" fill="#171717"/>
</svg>
