<?xml version="1.0" encoding="UTF-8"?><svg id="a" xmlns="http://www.w3.org/2000/svg" viewBox="0 0 24 24"><path d="M9.86789,7.42513v9.14941l4.5752-4.5752-4.5752-4.57422ZM11.36789,11.04622l.9541.9541-.9541.95312v-1.90723ZM1.2507,3.25033v17.5h21.49902V3.25033H1.2507ZM2.73465,18.20931h1.0329v1.40039h-1.0329v-1.40039ZM18.76566,19.25033v.35938h-1.0329v-1.40039h1.0329v1.04102ZM16.26596,19.25033v.35938h-1.0329v-1.40039h1.0329v1.04102ZM13.76633,19.25033v.35938h-1.03296v-1.40039h1.03296v1.04102ZM11.26663,19.25033v.35938h-1.03296v-1.40039h1.03296v1.04102ZM8.76694,19.25033v.35938h-1.0329v-1.40039h1.0329v1.04102ZM6.26724,19.25033v.35938h-1.0329v-1.40039h1.0329v1.04102ZM21.26535,19.6097h-1.0329v-1.40039h1.0329v1.40039ZM2.7507,17.48861V6.51204h18.49902v10.97656H2.7507ZM18.76566,4.75033v1.03223h-1.0329v-1.39941h1.0329v.36719ZM16.26596,4.75033v1.03223h-1.0329v-1.39941h1.0329v.36719ZM13.76633,4.75033v1.03223h-1.03296v-1.39941h1.03296v.36719ZM11.26663,4.75033v1.03223h-1.03296v-1.39941h1.03296v.36719ZM8.76694,4.75033v1.03223h-1.0329v-1.39941h1.0329v.36719ZM6.26724,4.75033v1.03223h-1.0329v-1.39941h1.0329v.36719ZM3.76755,4.75033v1.03223h-1.0329v-1.39941h1.0329v.36719ZM21.26535,5.78255h-1.0329v-1.39941h1.0329v1.39941Z"/></svg>