<svg xmlns="http://www.w3.org/2000/svg" viewBox="0 0 24 24"><title>Video</title><path d="M3.708,5.24036V18.75891H20.292V5.24036Zm14.80945.75h.81781v.99316h-.81781Zm-1.979,0h.81781v.99316h-.81781Zm-1.979,0h.81781v.99316h-.81781Zm-1.979,0h.81781v.99316h-.81781Zm-1.979,0h.81781v.99316h-.81781Zm-1.979,0h.81781v.99316H8.62244Zm-1.979,0h.81781v.99316H6.64343Zm-1.979,0h.81781v.99316H4.66443Zm.81781,12.01855H4.66443V17.0105h.81781Zm1.979,0H6.64343V17.0105h.81781Zm1.979,0H8.62244V17.0105h.81781Zm1.979,0h-.81781V17.0105h.81781Zm1.979,0h-.81781V17.0105h.81781Zm1.979,0h-.81781V17.0105h.81781Zm1.979,0h-.81781V17.0105h.81781Zm1.979,0h-.81781V17.0105h.81781Zm.20672-1.613H4.458V7.60407H19.542Z" fill="#171717"/><path d="M10.63525,8.38684v7.22461l3.61182-3.61133Zm.75,1.81153,1.80127,1.80175-1.80127,1.80079Z" fill="#171717"/></svg>