<?xml version="1.0" encoding="UTF-8"?><svg id="a" xmlns="http://www.w3.org/2000/svg" viewBox="0 0 24 24"><path d="M6.62411,3.125c0-.89746.72754-1.625,1.625-1.625s1.625.72754,1.625,1.625-.72754,1.625-1.625,1.625-1.625-.72754-1.625-1.625ZM20.12741,21.65793l-5.83557-9.80908.17053-.20898-2.76172-2.25488-2.08417-3.25879h-2.98857l-2.8091,3.62402v3.81445h1.5v-3.30078l1.29944-1.67578v.01758l-.09729,8.0083-2.77637,4.04736,1.44336.99023,3.07715-4.48584.03766-3.1167,2.02386,2.43896,1.28711,5.59766,1.70508-.3916-1.37891-6.00293-2.31635-2.79199v-3.97803l.87787,1.37256,3.01172,2.5083.10529-.12891,5.6496,9.49658.85938-.51172Z"/></svg>