<svg xmlns="http://www.w3.org/2000/svg" viewBox="0 0 24.75 24.75"><defs><style>.cls-1{fill:none;stroke:#171717;stroke-miterlimit:10;stroke-width:0.75px;}.cls-2{fill:#171717;}</style></defs><title>Wand</title><g id="Ebene_2" data-name="Ebene 2"><g id="Ebene_1-2" data-name="Ebene 1"><rect class="cls-1" x="0.375" y="0.375" width="24" height="24"/><polygon class="cls-2" points="16.583 12.118 16.053 14.588 13.583 15.118 16.053 15.648 16.583 18.118 17.113 15.648 19.583 15.118 17.113 14.588 16.583 12.118"/><polygon class="cls-2" points="7.761 11.652 8.159 9.8 10.011 9.402 8.159 9.004 7.761 7.152 7.363 9.004 5.511 9.402 7.363 9.8 7.761 11.652"/><polygon class="cls-2" points="10.81 9.577 11.208 7.725 13.06 7.327 11.208 6.929 10.81 5.077 10.412 6.929 8.56 7.327 10.412 7.725 10.81 9.577"/><path class="cls-2" d="M17.59222,4.54151,4.60345,17.53076l2.5249,2.52539L20.11761,7.0669ZM5.664,17.53076l9.56231-9.56268L16.6911,9.43286,7.12835,18.99561Z"/></g></g></svg>
