<?xml version="1.0" encoding="UTF-8"?><svg id="a" xmlns="http://www.w3.org/2000/svg" viewBox="0 0 24 24"><path d="M17.88058,14.76302l3.11938.66992-3.11938.66992-.66986,3.11914-.66986-3.11914-3.11945-.66992,3.11945-.66992.66986-3.11914.66986,3.11914ZM6.31821,11.30501l.50238-2.33984,2.3396-.50195-2.3396-.50293-.50238-2.33887-.50238,2.33887-2.3396.50293,2.3396.50195.50238,2.33984ZM10.16977,8.68392l.50238-2.33984,2.3396-.50195-2.3396-.50293-.50238-2.33887-.50238,2.33887-2.3396.50293,2.3396.50195.50238,2.33984ZM17.8187,9.76107l-12.29944,12.2998-3.58008-3.58008L17.06644,3.35286l1.41376-1.41406,3.58008,3.58105-4.24121,4.24121h-.00037ZM16.75821,8.70052l-1.45898-1.45898-11.23895,11.23926,1.45898,1.45898,11.23895-11.23926Z"/></svg>