<svg xmlns="http://www.w3.org/2000/svg" viewBox="0 0 24 24"><title>Wand</title><polygon points="17.211 11.644 16.541 14.763 13.421 15.433 16.541 16.103 17.211 19.222 17.881 16.103 21 15.433 17.881 14.763 17.211 11.644" fill="#171717"/><polygon points="6.318 11.305 6.821 8.965 9.16 8.463 6.821 7.96 6.318 5.621 5.816 7.96 3.476 8.463 5.816 8.965 6.318 11.305" fill="#171717"/><polygon points="10.17 8.684 10.672 6.344 13.012 5.842 10.672 5.339 10.17 3 9.667 5.339 7.328 5.842 9.667 6.344 10.17 8.684" fill="#171717"/><path d="M17.81906,9.76107l4.24121-4.24121L18.48019,1.9388,17.06644,3.35286,1.93918,18.48079l3.58008,3.58008L17.8187,9.76107ZM5.51926,19.93978l-1.459-1.459L15.29922,7.24154l1.459,1.459Z" fill="#171717"/></svg>