<svg xmlns="http://www.w3.org/2000/svg" viewBox="0 0 15.51416 15.51465"><title>Wand</title>
	<polygon points="11.979 7.577 11.449 10.046 8.979 10.577 11.449 11.107 11.979 13.577 12.51 11.107 14.979 10.577 12.51 10.046 11.979 7.577" fill="#171717"/>
	<polygon points="3.157 7.111 3.555 5.258 5.407 4.861 3.555 4.463 3.157 2.611 2.76 4.463 0.907 4.861 2.76 5.258 3.157 7.111" fill="#171717"/>
	<polygon points="6.207 5.035 6.604 3.183 8.457 2.785 6.604 2.388 6.207 0.535 5.809 2.388 3.957 2.785 5.809 3.183 6.207 5.035" fill="#171717"/>
	<path d="M12.98877,0,0,12.98926l2.5249,2.52539L15.51416,2.52539ZM1.06055,12.98926l9.56231-9.56269,1.46479,1.46479L2.5249,14.4541Z" fill="#171717"/>
</svg>
