<svg xmlns="http://www.w3.org/2000/svg" viewBox="0 0 24 24"><title>Wand</title><polygon points="16.224 11.743 15.694 14.213 13.224 14.743 15.694 15.273 16.224 17.743 16.755 15.273 19.224 14.743 16.755 14.213 16.224 11.743" fill="#171717"/><polygon points="7.403 11.277 7.8 9.425 9.653 9.027 7.8 8.629 7.403 6.777 7.005 8.629 5.153 9.027 7.005 9.425 7.403 11.277" fill="#171717"/><polygon points="10.452 9.202 10.85 7.35 12.702 6.952 10.85 6.554 10.452 4.702 10.054 6.554 8.202 6.952 10.054 7.35 10.452 9.202" fill="#171717"/><path d="M17.23389,4.16651,4.24512,17.15576,6.77,19.68115,19.75928,6.6919ZM5.30566,17.15576,14.868,7.59308l1.46478,1.46478L6.77,18.62061Z" fill="#171717"/></svg>