<?xml version="1.0" encoding="UTF-8"?><svg id="a" xmlns="http://www.w3.org/2000/svg" viewBox="0 0 24 24"><path d="M12.85422,18.53841c0,.22363-.06934.40918-.20703.55664-.1377.14648-.34082.21973-.60645.21973-.2666,0-.46777-.07324-.60352-.21973-.13574-.14746-.20312-.33301-.20312-.55664,0-.22461.06738-.41211.20312-.56445.13574-.15137.33691-.22754.60352-.22754.26562,0,.46875.07617.60645.22754.1377.15234.20703.33984.20703.56445ZM12.61789,16.18001l.10352-7.72168h-1.43555l.0957,7.72168h1.23633ZM22.21359,21.75033H1.78586L11.99973,1.32259l10.21387,20.42773ZM4.21359,20.25033h15.57227l-7.78613-15.57324-7.78613,15.57324Z"/></svg>