<svg xmlns="http://www.w3.org/2000/svg" viewBox="0 0 24 24"><title>WarningTriangle</title><polygon points="12.489 15.335 12.572 9.222 11.435 9.222 11.511 15.335 12.489 15.335" fill="#171717"/><path d="M12.51291,16.75588a.61733.61733,0,0,0-.48047-.18066.60785.60785,0,0,0-.47753.18066.64439.64439,0,0,0-.16114.44629.6695.6695,0,0,0,1.11914.44043.61663.61663,0,0,0,.16407-.44043A.63761.63761,0,0,0,12.51291,16.75588Z" fill="#171717"/><path d="M12.00022,3.85647,4.24582,19.52541H19.75461Zm0,1.69141L18.5466,18.77541H5.45383Z" fill="#171717"/></svg>