<svg xmlns="http://www.w3.org/2000/svg" viewBox="0 0 24.75 24.75"><defs><style>.cls-1{fill:none;stroke:#171717;stroke-miterlimit:10;stroke-width:0.75px;}</style></defs><title>Warning</title><g id="Ebene_2" data-name="Ebene 2"><g id="Ebene_1-2" data-name="Ebene 1"><rect class="cls-1" x="0.375" y="0.375" width="24" height="24"/><path d="M11.36415,18.60742a1.07693,1.07693,0,0,1,.26855-.74414,1.01388,1.01388,0,0,1,.7959-.30078,1.02776,1.02776,0,0,1,.80078.30078,1.06258,1.06258,0,0,1,.27344.74414,1.02716,1.02716,0,0,1-.27344.73438,1.04431,1.04431,0,0,1-.80078.291,1.03,1.03,0,0,1-.7959-.291A1.04075,1.04075,0,0,1,11.36415,18.60742Zm1.82617-3.1123H11.55946L11.43251,5.30664H13.327Z"/></g></g></svg>
