<svg xmlns="http://www.w3.org/2000/svg" viewBox="0 0 24 24"><title>WarningCircle</title><path d="M12.023,15.59619a.69225.69225,0,0,0-.54688.207.74219.74219,0,0,0-.18457.51172A.66617.66617,0,0,0,12.023,17.02a.72171.72171,0,0,0,.55029-.20117.7061.7061,0,0,0,.1875-.50391.73529.73529,0,0,0-.1875-.51172A.70341.70341,0,0,0,12.023,15.59619Z" fill="#171717"/><polygon points="12.546 14.176 12.64 7.174 11.338 7.174 11.426 14.176 12.546 14.176" fill="#171717"/><path d="M12,3.7085a8.29151,8.29151,0,1,0,8.291,8.292A8.30132,8.30132,0,0,0,12,3.7085Zm0,15.833a7.54151,7.54151,0,1,1,7.5415-7.541A7.55,7.55,0,0,1,12,19.54151Z" fill="#171717"/></svg>