<svg xmlns="http://www.w3.org/2000/svg" viewBox="0 0 15.50879 15.66895"><title>WarningTriangle</title>
	<polygon points="8.244 11.479 8.326 5.365 7.189 5.365 7.265 11.479 8.244 11.479" fill="#171717"/>
	<path
		d="M8.26709,12.89941a.61734.61734,0,0,0-.48047-.18066.60786.60786,0,0,0-.47754.18066.64443.64443,0,0,0-.16113.44629.6695.6695,0,0,0,1.11914.44043.61667.61667,0,0,0,.16406-.44043A.63765.63765,0,0,0,8.26709,12.89941Z"
		fill="#171717"/>
	<path d="M7.75439,0,0,15.669H15.50879Zm0,1.69141L14.30078,14.919H1.208Z" fill="#171717"/>
</svg>
