<svg xmlns="http://www.w3.org/2000/svg" viewBox="0 0 24.75 24.75"><defs><style>.cls-1{fill:none;stroke:#171717;stroke-miterlimit:10;stroke-width:0.75px;}</style></defs><title>Warning</title><g id="Ebene_2" data-name="Ebene 2"><g id="Ebene_1-2" data-name="Ebene 1"><path d="M12.39812,15.97119a.69225.69225,0,0,0-.54688.207.74214.74214,0,0,0-.18457.51172.66617.66617,0,0,0,.73145.70508.72171.72171,0,0,0,.55029-.20117.7061.7061,0,0,0,.1875-.50391.73529.73529,0,0,0-.1875-.51172A.70341.70341,0,0,0,12.39812,15.97119Z"/><polygon points="12.922 14.551 13.015 7.549 11.714 7.549 11.801 14.551 12.922 14.551"/><path d="M12.37517,4.0835a8.29151,8.29151,0,1,0,8.291,8.292A8.30132,8.30132,0,0,0,12.37517,4.0835Zm0,15.833a7.54151,7.54151,0,1,1,7.5415-7.541A7.55,7.55,0,0,1,12.37517,19.91651Z"/><rect class="cls-1" x="0.375" y="0.375" width="24" height="24"/></g></g></svg>
