<svg xmlns="http://www.w3.org/2000/svg" viewBox="0 0 24 24"><title>WarningCircle</title><polygon points="12.69 14.749 12.808 5.907 11.164 5.907 11.274 14.749 12.69 14.749" fill="#171717"/><path d="M12.029,16.54329a.87921.87921,0,0,0-.6914.26075.93676.93676,0,0,0-.23243.64648.96869.96869,0,0,0,1.61817.6377.89537.89537,0,0,0,.2373-.6377.92688.92688,0,0,0-.2373-.64648A.89148.89148,0,0,0,12.029,16.54329Z" fill="#171717"/><path d="M11.99973,1.25033a10.74951,10.74951,0,1,0,10.75,10.75A10.76176,10.76176,0,0,0,11.99973,1.25033Zm0,19.999a9.24951,9.24951,0,1,1,9.25-9.249A9.25992,9.25992,0,0,1,11.99973,21.24935Z" fill="#171717"/></svg>