<svg xmlns="http://www.w3.org/2000/svg" viewBox="0 0 16.58301 16.58301"><title>WarningCircle</title>
	<path
		d="M8.31494,11.8877a.69218.69218,0,0,0-.54687.207.74211.74211,0,0,0-.18457.51172.66617.66617,0,0,0,.73144.70507.72169.72169,0,0,0,.55029-.20117.7061.7061,0,0,0,.1875-.5039.73526.73526,0,0,0-.1875-.51172A.70336.70336,0,0,0,8.31494,11.8877Z"
		fill="#171717"/>
	<polygon points="8.838 10.468 8.932 3.466 7.63 3.466 7.718 10.468 8.838 10.468" fill="#171717"/>
	<path
		d="M8.292,0a8.29151,8.29151,0,1,0,8.291,8.292A8.30133,8.30133,0,0,0,8.292,0Zm0,15.833A7.54151,7.54151,0,1,1,15.8335,8.292,7.55,7.55,0,0,1,8.292,15.833Z"
		fill="#171717"/>
</svg>
