<?xml version="1.0" encoding="UTF-8"?><svg id="a" xmlns="http://www.w3.org/2000/svg" viewBox="0 0 24 24"><path d="M18.29367,8.77962h-5.54395v-.28613c1.38635-.33984,2.42185-1.58301,2.42185-3.07227,0-1.74902-1.42283-3.1709-3.17185-3.1709-1.74805,0-3.1709,1.42188-3.1709,3.1709,0,1.48828,1.03528,2.73242,2.4209,3.07227v.28613h-5.54395l-3.7002,12.9707h19.98828l-3.7002-12.9707ZM10.32883,5.42122c0-.92188.75-1.6709,1.6709-1.6709.92185,0,1.67185.74902,1.67185,1.6709,0,.65039-.3776,1.20898-.92185,1.48535v-.75684h-1.5v.75684c-.54358-.27637-.9209-.83496-.9209-1.48535ZM6.83859,10.27962h10.32227l2.84473,9.9707H3.99387l2.84473-9.9707ZM9.61789,14.27376c.25391.37109.38086.89062.38086,1.55859,0,.40625-.06348.76953-.19238,1.08984-.12793.32129-.31152.57031-.55078.74707s-.52148.26562-.84766.26562c-.28418,0-.54883-.07715-.79199-.23047-.24414-.1543-.43652-.37109-.57715-.65039-.1416-.2793-.2168-.59668-.22461-.9541h.9248c.01953.26172.08789.46582.20508.61133s.27148.21777.46094.21777c.21094,0,.37402-.10156.48828-.30469.11426-.20215.1709-.48926.1709-.86133,0-.35645-.06543-.62988-.19727-.82031-.13086-.18945-.31738-.28418-.55859-.28418-.22266,0-.40234.07715-.54004.23242l-.09082.1123-.74414-.24609.27148-3.19434h2.63867v1.04004h-1.87207l-.11621,1.35156c.22168-.1582.45801-.2373.70801-.2373.44824,0,.7998.18555,1.05469.55664ZM12.50266,15.12435l1.37402,2.72461h-1.07324l-.89941-1.87402-.33594.44922v1.4248h-.93457v-6.63184h.93457v3.67383l.18066-.31055.89551-1.40332h1.12207l-1.26367,1.94727ZM16.32101,13.17708l-.03906.44043c-.21289-.35059-.51172-.52637-.89551-.52637-.43359,0-.77832.21875-1.0332.65625-.25586.4375-.38379,1.01465-.38379,1.73145v.05176c0,.72461.12988,1.30664.39062,1.74609.25977.43848.59961.6582,1.01953.6582.35156,0,.63477-.16211.85059-.48828v.25098c0,.3252-.06934.57617-.20703.75293-.1377.17773-.33105.26562-.5791.26562-.33203,0-.61426-.17383-.84668-.52246l-.41406.75977c.125.21582.30957.39258.55273.5293.24414.13672.49414.20508.75098.20508.33789,0,.63379-.0791.88574-.2373s.44727-.38867.58691-.69141c.13867-.30176.20801-.65723.20801-1.06641v-4.51562h-.84668ZM16.23019,16.5013c-.12305.28516-.32617.42773-.61133.42773-.22168,0-.39648-.12012-.52344-.36133-.12695-.24023-.19141-.57227-.19141-.99609,0-.4873.06445-.85352.19336-1.09863.12793-.24512.30371-.36719.52832-.36719.27832,0,.47949.14258.60449.42773v1.96777Z"/></svg>