<svg xmlns="http://www.w3.org/2000/svg" viewBox="0 0 24 24"><title>Weight</title><path d="M16.833,9.69461H12.375V8.8743a2.28419,2.28419,0,1,0-.75-.00293v.82324H7.167L4.35205,19.52567H19.648Zm-6.3584-3.07617A1.542,1.542,0,1,1,12.375,8.11454V7.39383h-.75v.71A1.54086,1.54086,0,0,1,10.47461,6.61844ZM7.73242,10.44461h8.53516l2.38526,8.33106H5.34717Z" fill="#171717"/><path d="M9.395,13.40555a.97864.97864,0,0,0-.62207.21485L8.88526,12.264h1.5083v-.585H8.4834L8.294,14.16043l.3789.12989.12549-.13672a.64988.64988,0,0,1,.48633-.18067.62454.62454,0,0,1,.5415.30176,1.416,1.416,0,0,1,.20362.80176,1.56354,1.56354,0,0,1-.188.83106.58391.58391,0,0,1-.51855.30078.604.604,0,0,1-.48633-.21778,1.15913,1.15913,0,0,1-.228-.64355H8.16065a1.69628,1.69628,0,0,0,.356,1.01172,1.01363,1.01363,0,0,0,.80665.36523,1.00263,1.00263,0,0,0,.86914-.44238,2.07528,2.07528,0,0,0,.311-1.21192,2.16522,2.16522,0,0,0-.29932-1.21484A.9269.9269,0,0,0,9.395,13.40555Z" fill="#171717"/><polygon points="13.238 12.957 12.662 12.957 11.799 14.174 11.545 14.581 11.545 11.406 11.072 11.406 11.072 16.656 11.545 16.656 11.545 15.357 11.843 14.944 12.808 16.656 13.363 16.656 12.16 14.502 13.238 12.957" fill="#171717"/><path d="M15.44678,13.36747a.88061.88061,0,0,0-.791-.47852.89838.89838,0,0,0-.79345.51074,2.71567,2.71567,0,0,0-.29981,1.376,2.86835,2.86835,0,0,0,.30078,1.42578.89356.89356,0,0,0,.7876.52246.88014.88014,0,0,0,.77539-.4375v.31836a1.21,1.21,0,0,1-.19287.73145.63459.63459,0,0,1-.53906.25976.87617.87617,0,0,1-.74512-.50293l-.2456.37988a1.183,1.183,0,0,0,1.02392.63868,1.02594,1.02594,0,0,0,.85645-.41309,1.81358,1.81358,0,0,0,.31885-1.13184V12.95731h-.43262Zm-.02051,2.27636q-.20948.54346-.65771.544a.59088.59088,0,0,1-.5376-.35742,2.09388,2.09388,0,0,1-.19189-.98243,2.28975,2.28975,0,0,1,.19433-1.06347.59606.59606,0,0,1,.54-.3584.70783.70783,0,0,1,.65283.5293Z" fill="#171717"/></svg>