<?xml version="1.0" encoding="UTF-8"?><svg id="a" xmlns="http://www.w3.org/2000/svg" viewBox="0 0 24 24"><path d="M18.29395,8.77962h-5.54395v-.28613c1.38635-.33984,2.42185-1.58301,2.42185-3.07227,0-1.74902-1.42283-3.1709-3.17185-3.1709-1.74805,0-3.1709,1.42188-3.1709,3.1709,0,1.48828,1.03528,2.73242,2.4209,3.07227v.28613h-5.54395l-3.7002,12.9707h19.98828l-3.7002-12.9707ZM10.3291,5.42122c0-.92188.75-1.6709,1.6709-1.6709.92185,0,1.67185.74902,1.67185,1.6709,0,.65039-.3776,1.20898-.92185,1.48535v-.75684h-1.5v.75684c-.54358-.27637-.9209-.83496-.9209-1.48535ZM6.83887,10.27962h10.32227l2.84473,9.9707H3.99414l2.84473-9.9707Z"/></svg>