<svg xmlns="http://www.w3.org/2000/svg" viewBox="0 0 15.2959 15.19824"><title>Weight</title>
	<path
		d="M12.481,5.36719H8.023V4.54688a2.28419,2.28419,0,1,0-.75-.00293v.82324h-4.458L0,15.19824H15.2959ZM6.12256,2.291A1.542,1.542,0,1,1,8.023,3.78711v-.7207h-.75v.71A1.54088,1.54088,0,0,1,6.12256,2.291ZM3.38037,6.11719h8.53516l2.38525,8.33105H.99512Z"
		fill="#171717"/>
	<path
		d="M5.043,9.07813A.97863.97863,0,0,0,4.4209,9.293l.1123-1.35645H6.0415v-.585H4.13135L3.94189,9.833l.37891.12988.12549-.13672a.64984.64984,0,0,1,.48633-.18066.62453.62453,0,0,1,.5415.30176,1.416,1.416,0,0,1,.20361.80175,1.56362,1.56362,0,0,1-.188.83106.58391.58391,0,0,1-.51856.30078.604.604,0,0,1-.48633-.21777,1.1592,1.1592,0,0,1-.228-.64356H3.80859a1.69626,1.69626,0,0,0,.356,1.01172,1.01361,1.01361,0,0,0,.80664.36523,1.00263,1.00263,0,0,0,.86914-.44238,2.07527,2.07527,0,0,0,.311-1.21191,2.16523,2.16523,0,0,0-.29932-1.21485A.92691.92691,0,0,0,5.043,9.07813Z"
		fill="#171717"/>
	<polygon
		points="8.886 8.63 8.31 8.63 7.447 9.847 7.193 10.254 7.193 7.078 6.72 7.078 6.72 12.328 7.193 12.328 7.193 11.029 7.491 10.616 8.456 12.328 9.011 12.328 7.808 10.175 8.886 8.63"
		fill="#171717"/>
	<path
		d="M11.09473,9.04a.88063.88063,0,0,0-.791-.47852.8984.8984,0,0,0-.79346.51075,2.71574,2.71574,0,0,0-.2998,1.376A2.86835,2.86835,0,0,0,9.51123,11.874a.89353.89353,0,0,0,.7876.52246.88013.88013,0,0,0,.77539-.4375v.31836a1.21,1.21,0,0,1-.19287.73145.63461.63461,0,0,1-.53906.25976.87615.87615,0,0,1-.74512-.50292l-.24561.37988a1.183,1.183,0,0,0,1.02393.63867,1.02592,1.02592,0,0,0,.85644-.41309,1.81348,1.81348,0,0,0,.31885-1.13183V8.62988h-.43262Zm-.02051,2.27637q-.20947.54345-.65772.54394a.59088.59088,0,0,1-.53759-.35742,2.09385,2.09385,0,0,1-.1919-.98242A2.28963,2.28963,0,0,1,9.88135,9.457a.59606.59606,0,0,1,.54-.3584.70784.70784,0,0,1,.65283.5293Z"
		fill="#171717"/>
</svg>
