<svg xmlns="http://www.w3.org/2000/svg" viewBox="0 0 24 24"><title>Weight</title><path d="M18.29367,8.77962H12.74973V8.49349a3.17091,3.17091,0,1,0-1.5,0v.28613H5.70578L2.00558,21.75033H21.99387Zm-7.96484-3.3584a1.6714,1.6714,0,1,1,2.4209,1.48536V6.14974h-1.5v.75684A1.6681,1.6681,0,0,1,10.32883,5.42122Zm-3.49024,4.8584H17.16086l2.84472,9.97071H3.99387Z" fill="#171717"/><path d="M8.5632,13.71712a1.1981,1.1981,0,0,0-.708.23731l.11622-1.35157H9.84348v-1.04H7.2048l-.27148,3.19433.74414.2461.09082-.11231a.68666.68666,0,0,1,.54-.23242.63906.63906,0,0,1,.55859.28418,1.4338,1.4338,0,0,1,.19727.82031,1.772,1.772,0,0,1-.1709.86133A.53548.53548,0,0,1,8.405,16.929a.56378.56378,0,0,1-.46094-.21778,1.08543,1.08543,0,0,1-.20508-.61133h-.9248a2.18719,2.18719,0,0,0,.22461.95411,1.60078,1.60078,0,0,0,.57715.65039,1.459,1.459,0,0,0,.792.23047,1.38684,1.38684,0,0,0,.84765-.26563,1.66769,1.66769,0,0,0,.55079-.74707,2.8991,2.8991,0,0,0,.19238-1.08984,2.73591,2.73591,0,0,0-.38086-1.5586A1.21141,1.21141,0,0,0,8.5632,13.71712Z" fill="#171717"/><polygon points="13.766 13.177 12.644 13.177 11.749 14.58 11.568 14.891 11.568 11.217 10.634 11.217 10.634 17.849 11.568 17.849 11.568 16.424 11.904 15.975 12.803 17.849 13.877 17.849 12.503 15.124 13.766 13.177" fill="#171717"/><path d="M16.321,13.17708l-.03906.44043a.9975.9975,0,0,0-.89551-.52636,1.15849,1.15849,0,0,0-1.0332.65625,3.40991,3.40991,0,0,0-.38379,1.73144v.05176a3.40078,3.40078,0,0,0,.39063,1.74609,1.15991,1.15991,0,0,0,1.01953.65821.97969.97969,0,0,0,.85058-.48829v.251a1.2014,1.2014,0,0,1-.207.75293.69023.69023,0,0,1-.5791.26563,1.00631,1.00631,0,0,1-.84668-.52247l-.41406.75977a1.43078,1.43078,0,0,0,.55273.5293,1.51835,1.51835,0,0,0,.751.20508,1.63215,1.63215,0,0,0,.88574-.23731,1.56252,1.56252,0,0,0,.58692-.69141,2.53366,2.53366,0,0,0,.208-1.0664V13.17708Zm-.09082,3.32422a.629.629,0,0,1-.61132.42774.57957.57957,0,0,1-.52344-.36133,2.15458,2.15458,0,0,1-.19141-.9961,2.4366,2.4366,0,0,1,.19336-1.09863.58389.58389,0,0,1,.52832-.36719.62835.62835,0,0,1,.60449.42774Z" fill="#171717"/></svg>