<svg xmlns="http://www.w3.org/2000/svg" viewBox="0 0 13.18176 15.23242"><title>Wheelchair</title>
	<path
		d="M4.35107,14.48242A3.60137,3.60137,0,0,1,3.52,7.377l-.17285-.73047a4.35155,4.35155,0,1,0,5.35449,4.23536h-.75A3.60468,3.60468,0,0,1,4.35107,14.48242Z"
		fill="#171717"/>
	<path
		d="M5.47363,2.92773A1.46387,1.46387,0,1,0,4.00977,1.46387,1.46528,1.46528,0,0,0,5.47363,2.92773Zm0-2.17773a.71387.71387,0,1,1-.71386.71387A.71477.71477,0,0,1,5.47363.75Z"
		fill="#171717"/>
	<path
		d="M13.14111,13.24414,11.77637,8.10645H7.11914v-1.39l1.26709.49646L11.147,7.168a.84616.84616,0,0,0,.79883-.8877.912.912,0,0,0-.27051-.63867.85024.85024,0,0,0-.55664-.22265S9.11523,5.45117,8.7041,5.458l-1.585-.62659V3.3877h-3.291v7.28418H9.8125l.84863,3.22558a1.23175,1.23175,0,0,0,.5752.75391,1.2766,1.2766,0,0,0,.64648.1748,1.33108,1.33108,0,0,0,.3374-.04394A1.26893,1.26893,0,0,0,13.14111,13.24414Zm-1.1123.81348a.53869.53869,0,0,1-.41455-.05371.48347.48347,0,0,1-.22754-.29688l-.99609-3.78515H4.57813V4.1377h1.791v.39721l-.75781-.29956-.27539.69727,3.16162,1.25.13769.02636c.01172-.001,2.49219-.04687,2.51954-.02734a.15882.15882,0,0,1,.041.11035c.00147.082-.04443.126-.061.126l-2.6128.043L5.60889,5.31836l-.27344.69922,1.03369.405V8.85645h4.83008l1.2168,4.58007A.51844.51844,0,0,1,12.02881,14.05762Z"
		fill="#171717"/>
</svg>
