<?xml version="1.0" encoding="UTF-8"?><svg id="a" xmlns="http://www.w3.org/2000/svg" viewBox="0 0 24 24"><path d="M9.56027,4.09993c0-.88184.72852-1.59961,1.625-1.59961s1.625.71777,1.625,1.59961-.72852,1.59961-1.625,1.59961-1.625-.71777-1.625-1.59961ZM17.75949,13.99935h-5.07422v-4.19141l1.98828.82422h4.08691v-1.5h-3.78809l-2.28711-.94727v-.93457h-3v8.25h3v-.00098h3.92383l1.01562,3.79102,1.44922-.3877-1.31445-4.90332ZM10.18332,20.25033c-2.3125,0-4.19336-1.88086-4.19336-4.19238,0-1.74707,1.0882-3.2832,2.6875-3.89941v-1.58496c-2.46741.67578-4.1875,2.91895-4.1875,5.48438,0,3.13867,2.55371,5.69238,5.69336,5.69238,2.86115,0,5.29193-2.18652,5.63654-5.00391h-1.51862c-.33392,1.98535-2.07275,3.50391-4.11792,3.50391Z"/></svg>