<?xml version="1.0" encoding="UTF-8"?><svg id="a" xmlns="http://www.w3.org/2000/svg" viewBox="0 0 24 24"><path d="M19.52371,19.56966l-1.42773.45898-1.45654-4.5293h-6.95312V7.24935h3v.93457l2.28711.94727h3.78857v1.5h-4.0874l-1.98828-.82324v4.19141h5.04639l1.79102,5.57031ZM10.18436,20.24935c-2.31201,0-4.19287-1.87988-4.19287-4.19141,0-1.74805,1.08893-3.28418,2.68964-3.90039v-1.58496c-2.46875.6748-4.18964,2.91895-4.18964,5.48535,0,3.13867,2.55371,5.69141,5.69287,5.69141,2.96442,0,5.39459-2.21777,5.66632-5.16309h-1.51862c-.26288,2.06445-2.04779,3.66309-4.14771,3.66309ZM11.12112,5.8002c.88361,0,1.59998-.7168,1.59998-1.60059s-.71637-1.59961-1.59998-1.59961c-.88367,0-1.60004.71582-1.60004,1.59961s.71637,1.60059,1.60004,1.60059Z"/></svg>