<svg xmlns="http://www.w3.org/2000/svg" viewBox="0 0 24 24"><title>Wheelchair</title><ellipse cx="11.18527" cy="4.09993" rx="1.625" ry="1.59961" fill="#171717"/><polygon points="17.759 13.999 12.685 13.999 12.685 9.808 14.674 10.632 18.76 10.632 18.76 9.132 14.972 9.132 12.685 8.185 12.685 7.25 9.685 7.25 9.685 15.5 12.685 15.5 12.685 15.499 16.609 15.499 17.625 19.29 19.074 18.903 17.759 13.999" fill="#171717"/><path d="M10.18332,20.25033a4.18435,4.18435,0,0,1-1.50586-8.0918v-1.585a5.68841,5.68841,0,1,0,7.14239,6.17285H14.30124A4.20941,4.20941,0,0,1,10.18332,20.25033Z" fill="#171717"/></svg>