<svg xmlns="http://www.w3.org/2000/svg" viewBox="0 0 24 24"><title>Wheelchair</title><path d="M9.74951,18.86633a3.60136,3.60136,0,0,1-.83105-7.10546l-.17285-.73047a4.35154,4.35154,0,1,0,5.35449,4.23535h-.75A3.60469,3.60469,0,0,1,9.74951,18.86633Z" fill="#171717"/><path d="M10.87207,7.31165A1.46387,1.46387,0,1,0,9.4082,5.84778,1.46528,1.46528,0,0,0,10.87207,7.31165Zm0-2.17774a.71387.71387,0,1,1-.71387.71387A.71477.71477,0,0,1,10.87207,5.13391Z" fill="#171717"/><path d="M18.53955,17.62805,17.1748,12.49036H12.51758v-1.39l1.26709.49646,2.76074-.04492a.84615.84615,0,0,0,.79883-.88769.912.912,0,0,0-.27051-.63868.85026.85026,0,0,0-.55664-.22265s-2.00342.03222-2.41455.03906l-1.585-.62659V7.77161h-3.291v7.28418h5.98438l.84863,3.22558a1.23175,1.23175,0,0,0,.5752.75391,1.27657,1.27657,0,0,0,.64648.1748,1.33068,1.33068,0,0,0,.3374-.04394A1.26893,1.26893,0,0,0,18.53955,17.62805Zm-1.1123.81348a.53864.53864,0,0,1-.41455-.05371.48347.48347,0,0,1-.22754-.29688l-.9961-3.78515H9.97656V8.52161h1.791v.39721l-.75781-.29956-.27539.69727,3.16162,1.25.13769.02637c.01172-.001,2.49219-.04688,2.51953-.02735a.1588.1588,0,0,1,.041.11036c.00146.082-.04444.126-.061.126l-2.61279.043L11.00732,9.70227l-.27343.69922,1.03369.405v2.43384h4.83008l1.21679,4.58008A.51843.51843,0,0,1,17.42725,18.44153Z" fill="#171717"/></svg>