<svg xmlns="http://www.w3.org/2000/svg" viewBox="0 0 24.75 24.75"><defs><style>.cls-1{fill:none;stroke:#171717;stroke-miterlimit:10;stroke-width:0.75px;}.cls-2{fill:#171717;}</style></defs><title>Wheelchair</title><g id="Ebene_2" data-name="Ebene 2"><g id="Ebene_1-2" data-name="Ebene 1"><rect class="cls-1" x="0.375" y="0.375" width="24" height="24"/><path class="cls-2" d="M10.10784,19.24125a3.60137,3.60137,0,0,1-.831-7.10547l-.17285-.73047a4.35155,4.35155,0,1,0,5.35449,4.23536h-.75A3.60468,3.60468,0,0,1,10.10784,19.24125Z"/><path class="cls-2" d="M11.2304,7.68656A1.46387,1.46387,0,1,0,9.76654,6.2227,1.46528,1.46528,0,0,0,11.2304,7.68656Zm0-2.17773a.71387.71387,0,1,1-.71386.71387A.71477.71477,0,0,1,11.2304,5.50883Z"/><path class="cls-2" d="M18.89788,18.003l-1.36474-5.1377H12.87591v-1.39l1.26709.49646,2.76074-.04492a.84616.84616,0,0,0,.79883-.8877.91192.91192,0,0,0-.27051-.63867.85026.85026,0,0,0-.55664-.22266s-2.00342.03223-2.41455.03907l-1.585-.62659V8.14652H9.5849V15.4307h5.98437l.84863,3.22559a1.23175,1.23175,0,0,0,.5752.75391,1.2766,1.2766,0,0,0,.64648.1748,1.33121,1.33121,0,0,0,.33741-.04394A1.26893,1.26893,0,0,0,18.89788,18.003Zm-1.1123.81348a.53869.53869,0,0,1-.41455-.05371.48347.48347,0,0,1-.22754-.29688L16.1474,14.6807H10.3349V8.89652h1.791v.39722l-.75781-.29956-.27539.69727,3.16162,1.25.13769.02636c.01172-.001,2.49219-.04687,2.51954-.02734a.15882.15882,0,0,1,.041.11035c.00147.082-.04443.126-.061.126l-2.6128.043-2.91308-1.14258-.27344.69922,1.03369.405v2.43383H16.956l1.2168,4.58008A.51844.51844,0,0,1,17.78558,18.81645Z"/></g></g></svg>
