<?xml version="1.0" encoding="UTF-8"?><svg id="a" xmlns="http://www.w3.org/2000/svg" viewBox="0 0 24 24"><path d="M2.99973,16.71712v-1.5c6.81055,0,12.35059-5.48047,12.35059-12.2168h1.5c0,7.56348-6.21289,13.7168-13.85059,13.7168ZM12.03586,3.00033h-1.5c0,4.1084-3.38086,7.45117-7.53613,7.45117v1.5c4.98242,0,9.03613-4.01562,9.03613-8.95117ZM20.24973,3.00033c0,9.67285-7.57715,17.25-17.25,17.25v1.5c10.51367,0,18.75-8.23633,18.75-18.75h-1.5ZM2.99973,4.38216c0-.76172.62012-1.38184,1.38184-1.38184s1.38086.62012,1.38086,1.38184-.61914,1.38086-1.38086,1.38086-1.38184-.61914-1.38184-1.38086ZM4.26242,4.38216c0,.12988.2373.12988.2373,0,0-.06543-.05273-.11914-.11816-.11914s-.11914.05371-.11914.11914Z"/></svg>