<svg xmlns="http://www.w3.org/2000/svg" viewBox="0 0 24 24"><title>WiFi</title><path d="M4.875,15.51026A10.7952,10.7952,0,0,0,15.6582,4.72705h-.75A10.04469,10.04469,0,0,1,4.875,14.76026Z" fill="#171717"/><path d="M4.875,11.68506a6.96587,6.96587,0,0,0,6.958-6.958h-.75a6.21506,6.21506,0,0,1-6.208,6.208Z" fill="#171717"/><path d="M18.77539,4.70166A13.8518,13.8518,0,0,1,4.84961,18.77588v.75A14.59368,14.59368,0,0,0,19.52539,4.70166Z" fill="#171717"/><path d="M5.77332,6.55005a.92407.92407,0,1,0-.92383-.92383A.92472.92472,0,0,0,5.77332,6.55005Zm0-1.09814a.17407.17407,0,0,1,0,.34814C5.58093,5.80005,5.58289,5.45191,5.77332,5.45191Z" fill="#171717"/></svg>