<svg xmlns="http://www.w3.org/2000/svg" viewBox="0 0 24 24"><title>WiFi</title><path d="M16.85031,3.00033h-1.5A12.29791,12.29791,0,0,1,2.99973,15.21712v1.5A13.79949,13.79949,0,0,0,16.85031,3.00033Z" fill="#171717"/><path d="M12.03586,3.00033h-1.5A7.50273,7.50273,0,0,1,2.99973,10.4515v1.5A9.00431,9.00431,0,0,0,12.03586,3.00033Z" fill="#171717"/><path d="M20.24973,3.00033a17.06655,17.06655,0,0,1-17.25,17.25v1.5a18.551,18.551,0,0,0,18.75-18.75Z" fill="#171717"/><path d="M4.38156,5.763A1.38135,1.38135,0,1,0,2.99973,4.38216,1.382,1.382,0,0,0,4.38156,5.763Zm0-1.5a.11879.11879,0,0,1,.11817.11914c0,.12988-.23731.12988-.23731,0A.11962.11962,0,0,1,4.38156,4.263Z" fill="#171717"/></svg>