<svg xmlns="http://www.w3.org/2000/svg" viewBox="0 0 24.75 24.75"><defs><style>.cls-1{fill:none;stroke:#171717;stroke-miterlimit:10;stroke-width:0.75px;}</style></defs><title>WiFi</title><g id="Ebene_2" data-name="Ebene 2"><g id="Ebene_1-2" data-name="Ebene 1"><rect class="cls-1" x="0.375" y="0.375" width="24" height="24"/><path d="M5.22283,15.74162A10.79521,10.79521,0,0,0,16.006,4.95841h-.75A10.0447,10.0447,0,0,1,5.22283,14.99162Z"/><path d="M5.22283,11.91642a6.96587,6.96587,0,0,0,6.958-6.958h-.75a6.21505,6.21505,0,0,1-6.208,6.208Z"/><path d="M19.12322,4.933A13.8518,13.8518,0,0,1,5.19744,19.00724v.75A14.59368,14.59368,0,0,0,19.87322,4.933Z"/><path d="M6.12115,6.78141a.92407.92407,0,1,0-.92383-.92383A.92472.92472,0,0,0,6.12115,6.78141Zm0-1.09814a.17407.17407,0,0,1,0,.34814C5.92877,6.03141,5.93072,5.68327,6.12115,5.68327Z"/></g></g></svg>
