<svg xmlns="http://www.w3.org/2000/svg" viewBox="0 0 14.6759 14.82422"><title>WiFi</title>
	<path d="M.02551,10.80859A10.7952,10.7952,0,0,0,10.80872.02539h-.75A10.04469,10.04469,0,0,1,.02551,10.05859Z" fill="#171717"/>
	<path d="M.02551,6.9834a6.96588,6.96588,0,0,0,6.958-6.958h-.75a6.21506,6.21506,0,0,1-6.208,6.208Z" fill="#171717"/>
	<path d="M13.9259,0A13.8518,13.8518,0,0,1,.00012,14.07422v.75A14.59368,14.59368,0,0,0,14.6759,0Z" fill="#171717"/>
	<path
		d="M.92383,1.84839A.92408.92408,0,1,0,0,.92456.92472.92472,0,0,0,.92383,1.84839Zm0-1.09815a.17408.17408,0,0,1,0,.34815C.73145,1.09839.7334.75024.92383.75024Z"
		fill="#171717"/>
</svg>
