<?xml version="1.0" encoding="UTF-8"?><svg id="a" xmlns="http://www.w3.org/2000/svg" viewBox="0 0 24 24"><path d="M13.60007,18.37533c0,.88184-.71729,1.59961-1.59998,1.59961-.88275,0-1.60004-.71777-1.60004-1.59961s.71729-1.60059,1.60004-1.60059c.88269,0,1.59998.71875,1.59998,1.60059ZM12.0004,12.22005c-2.02271,0-3.81531.98438-4.93866,2.49414l1.07123,1.07129c.8371-1.24414,2.25781-2.06543,3.86743-2.06543s3.02997.82129,3.86676,2.06641l1.07129-1.07227c-1.12311-1.50977-2.91534-2.49414-4.93805-2.49414ZM12.0004,8.2347c-3.12061,0-5.91418,1.41895-7.77618,3.64258l1.06512,1.06543c1.58588-1.95508,4.00385-3.20801,6.71106-3.20801s5.12488,1.25293,6.71075,3.20703l1.06512-1.06543c-1.862-2.22266-4.65546-3.6416-7.77588-3.6416ZM12.0004,4.25033c-4.21912,0-8.00171,1.86816-10.59265,4.81055l1.06018,1.05957c2.3172-2.6709,5.72693-4.37012,9.53247-4.37012s7.21503,1.69922,9.53192,4.37012l1.06012-1.05957c-2.5907-2.94238-6.37292-4.81055-10.59204-4.81055Z"/></svg>