<?xml version="1.0" encoding="UTF-8"?><svg id="a" xmlns="http://www.w3.org/2000/svg" viewBox="0 0 24 24"><path d="M20.29771,13.38456c-.08203-.08301-.16699-.16113-.25293-.23633l-.00098-.00195c-1.02307-.8877-2.32391-1.26172-3.5918-1.16309l-4.45496-4.45508c.00977-.12695.03699-.25.03699-.37793,0-1.30957-.50977-2.54004-1.43555-3.46484-1.37207-1.37109-3.4248-1.80469-5.23535-1.10645l-1.07227.41504,2.57324,2.58301-1.31055,1.31055-2.57422-2.58496-.41602,1.07715c-.7002,1.80957-.26562,3.86426,1.10547,5.23535.08203.08203.16699.16113.25293.23633l.00098.00098c.91895.79785,2.06445,1.19238,3.20703,1.19238.12671,0,.25159-.02637.37793-.03613l4.46179,4.46191c-.00977.12695-.03699.25-.03699.37891,0,1.30859.50977,2.53906,1.43555,3.46484.93652.93555,2.19141,1.43555,3.46875,1.43555.59375,0,1.19238-.1084,1.7666-.33008l1.07227-.41406-2.57324-2.58301,1.31055-1.31055,2.57422,2.58398.41602-1.07617c.7002-1.81055.26562-3.86523-1.10547-5.23535ZM4.90708,9.72049c-.06055-.05273-.12012-.1084-.17773-.16602-.64062-.64062-.98633-1.49512-.99609-2.36914l1.81836,1.8252,3.43164-3.43164-1.82227-1.8291c.87598.00781,1.73438.35352,2.37695.99609.64258.6416.99609,1.49609.99609,2.4043s-.35352,1.76172-.99609,2.4043c-1.25684,1.25586-3.29199,1.32812-4.63086.16602ZM12.40421,14.78397l-3.21014-3.20996c.50781-.23535.98883-.54395,1.40442-.95898.41095-.41113.7251-.88867.96393-1.40039l3.20569,3.20605c-.50696.23438-.98511.54883-1.40009.96387-.41089.41016-.72498.8877-.96381,1.39941ZM18.41489,14.98905l-3.43164,3.43164,1.82227,1.8291c-.87598-.00781-1.73438-.35449-2.37695-.99609-.64258-.64258-.99609-1.49609-.99609-2.4043s.35352-1.7627.99609-2.4043c.65918-.65918,1.53223-.99316,2.40723-.99316.79297,0,1.58691.27441,2.22363.82715.06055.05273.12012.10742.17773.16602.64062.63965.98633,1.49512.99609,2.36914l-1.81836-1.8252Z"/></svg>