<svg xmlns="http://www.w3.org/2000/svg" viewBox="0 0 16.01172 16.00781"><title>Wrench</title>
	<path
		d="M12.35107,8.68555a3.58974,3.58974,0,0,0-.45227.04565L7.27655,4.10864a3.59882,3.59882,0,0,0,.04523-.44751A3.66554,3.66554,0,0,0,3.66064,0,3.58208,3.58208,0,0,0,2.624.166L2.01953.34473,4.30078,2.626,2.69727,4.22949.39648,1.92969l-.19287.57324A3.59154,3.59154,0,0,0,0,3.66113,3.66512,3.66512,0,0,0,3.66064,7.32227c.109,0,.2118-.02283.31842-.03223l4.74268,4.74219c-.00915.10547-.0318.20678-.0318.31445a3.66554,3.66554,0,0,0,3.66113,3.66113,3.58239,3.58239,0,0,0,1.03663-.166l.60449-.17871-2.28076-2.28125,1.60351-1.60352,2.30127,2.30078.19238-.57422a3.61245,3.61245,0,0,0,.20313-1.1582A3.66512,3.66512,0,0,0,12.35107,8.68555ZM.75,3.66113A2.49329,2.49329,0,0,1,.76855,3.3623L2.69727,5.29,5.36133,2.626,3.4917.75684A2.87522,2.87522,0,0,1,6.57178,3.66113a2.91089,2.91089,0,1,1-5.82178,0ZM4.85571,7.10522A3.65923,3.65923,0,0,0,7.071,4.9646l3.97266,3.973A3.66016,3.66016,0,0,0,8.90594,11.155Zm10.38745,5.54029-1.92822-1.92774-2.66406,2.66407L12.52,15.251a2.8766,2.8766,0,0,1-3.08008-2.9043,2.91089,2.91089,0,1,1,5.82178,0A2.50352,2.50352,0,0,1,15.24316,12.64551Z"
		fill="#171717"/>
</svg>
