<svg xmlns="http://www.w3.org/2000/svg" viewBox="0 0 24.021 24"><title>Wrench</title><path d="M20.32492,13.38509c-.082-.083-.167-.16113-.25293-.23633l-.001-.00195a4.8759,4.8759,0,0,0-3.59179-1.16309l-4.455-4.45507c.00977-.127.037-.25.037-.37793a4.90272,4.90272,0,0,0-6.6709-4.57129l-1.07227.415,2.57325,2.583L5.58078,6.888l-2.57422-2.585-.416,1.07715A4.90466,4.90466,0,0,0,3.696,10.61556c.082.082.167.16113.25293.23633l.001.001a4.87942,4.87942,0,0,0,3.207,1.19239c.12671,0,.25159-.02637.37793-.03614L11.99667,16.471c-.00976.127-.037.25-.037.3789a4.90243,4.90243,0,0,0,6.67089,4.57032l1.07227-.41407-2.57324-2.583,1.31055-1.31055,2.57421,2.584.416-1.07617A4.9039,4.9039,0,0,0,20.32492,13.38509ZM4.9343,9.721c-.06055-.05274-.12012-.1084-.17774-.166a3.402,3.402,0,0,1-.99609-2.36914l1.81836,1.8252L9.01047,5.57943,7.1882,3.75033A3.40044,3.40044,0,1,1,4.9343,9.721Zm7.49713,5.06348-3.21015-3.21a4.84734,4.84734,0,0,0,1.40442-.959,4.88293,4.88293,0,0,0,.96393-1.40039l3.20569,3.206a4.68511,4.68511,0,0,0-2.36389,2.36329Zm6.01068.20507-3.43164,3.43164,1.82226,1.82911a3.399,3.399,0,1,1,2.25391-5.97071c.06055.05274.12012.10742.17773.166a3.40029,3.40029,0,0,1,.9961,2.36914Z" fill="#171717"/></svg>