<svg xmlns="http://www.w3.org/2000/svg" viewBox="0 0 24.75 24.75"><defs><style>.cls-1{fill:none;stroke:#000;stroke-miterlimit:10;stroke-width:0.75px;}</style></defs><title>Wrench</title><g id="Ebene_2" data-name="Ebene 2"><g id="Ebene_1-2" data-name="Ebene 1"><path d="M16.72339,13.05184a3.59122,3.59122,0,0,0-.45227.04565L11.64886,8.47494a3.5992,3.5992,0,0,0,.04523-.44751A3.66554,3.66554,0,0,0,8.033,4.36629a3.58231,3.58231,0,0,0-1.03662.166l-.6045.17871L8.67309,6.99227,7.06958,8.59579,4.7688,6.296l-.19287.57324a3.59135,3.59135,0,0,0-.20362,1.15821A3.66512,3.66512,0,0,0,8.033,11.68856c.109,0,.21179-.02283.31842-.03223l4.74267,4.74219c-.00915.10547-.0318.20679-.0318.31445a3.66554,3.66554,0,0,0,3.66114,3.66114,3.58242,3.58242,0,0,0,1.03662-.166l.60449-.17871-2.28076-2.28125,1.60351-1.60352,2.30127,2.30078.19239-.57421A3.61248,3.61248,0,0,0,20.384,16.713,3.66512,3.66512,0,0,0,16.72339,13.05184ZM5.12231,8.02743a2.491,2.491,0,0,1,.01856-.29883L7.06958,9.65633,9.73364,6.99227,7.864,5.12313a2.87522,2.87522,0,0,1,3.08008,2.9043,2.91089,2.91089,0,1,1-5.82178,0ZM9.228,11.47152A3.65932,3.65932,0,0,0,11.4433,9.33089l3.97265,3.973a3.66013,3.66013,0,0,0-2.13769,2.2174ZM19.61548,17.0118l-1.92823-1.92773-2.66406,2.66406,1.86914,1.86914a2.8766,2.8766,0,0,1-3.08008-2.9043,2.91089,2.91089,0,1,1,5.82178,0A2.50557,2.50557,0,0,1,19.61548,17.0118Z"/><rect class="cls-1" x="0.375" y="0.375" width="24" height="24"/></g></g></svg>
