<svg xmlns="http://www.w3.org/2000/svg" viewBox="0 0 24.021 24"><title>Wrench</title><path d="M16.35889,12.67684a3.59122,3.59122,0,0,0-.45227.04565L11.28436,8.09994a3.5992,3.5992,0,0,0,.04523-.44751A3.66554,3.66554,0,0,0,7.66846,3.99129a3.58231,3.58231,0,0,0-1.03662.166l-.6045.17871L8.30859,6.61727,6.70508,8.22079,4.4043,5.921l-.19287.57324a3.59135,3.59135,0,0,0-.20362,1.15821,3.66512,3.66512,0,0,0,3.66065,3.66113c.109,0,.21179-.02283.31842-.03223l4.74267,4.74219c-.00915.10547-.0318.20679-.0318.31445a3.66554,3.66554,0,0,0,3.66114,3.66114,3.58242,3.58242,0,0,0,1.03662-.166L18,19.65438l-2.28076-2.28125,1.60351-1.60352L19.624,18.07039l.19239-.57421a3.61248,3.61248,0,0,0,.20312-1.15821A3.66512,3.66512,0,0,0,16.35889,12.67684ZM4.75781,7.65243a2.491,2.491,0,0,1,.01856-.29883L6.70508,9.28133,9.36914,6.61727,7.49951,4.74813a2.87522,2.87522,0,0,1,3.08008,2.9043,2.91089,2.91089,0,1,1-5.82178,0Zm4.10572,3.44409A3.65932,3.65932,0,0,0,11.0788,8.95589l3.97265,3.973a3.66013,3.66013,0,0,0-2.13769,2.2174ZM19.251,16.6368l-1.92823-1.92773-2.66406,2.66406,1.86914,1.86914a2.8766,2.8766,0,0,1-3.08008-2.9043,2.91089,2.91089,0,1,1,5.82178,0A2.50557,2.50557,0,0,1,19.251,16.6368Z" fill="#171717"/></svg>