<?xml version="1.0" encoding="UTF-8"?><svg id="a" xmlns="http://www.w3.org/2000/svg" viewBox="0 0 24 24"><path d="M19.25531,21.75561h-5.44482l-4.16455-7.59375c-.36816.64941-.73145,1.29395-1.03809,1.83984l-.21533.38184H3.01947l3.41748-6.18945-2.50684-4.38574h5.46289l2.29736,3.95117c1.23047-2.17578,2.79395-4.95117,4.0166-7.12598l.21484-.38281h5.47314l-6.48926,11.50293,4.34961,8.00195ZM14.69818,20.25561h2.03467l-3.54199-6.51562,5.63574-9.98926h-2.02686c-1.9165,3.40918-4.77979,8.49219-5.66406,10.00879l3.5625,6.49609ZM5.56146,14.88354h1.9541c1.60938-2.8584,2.3374-4.12598,2.68311-4.70508l-1.66895-2.87012h-2.01465l1.64258,2.87402-2.59619,4.70117Z"/></svg>