<?xml version="1.0" encoding="UTF-8"?><svg id="a" xmlns="http://www.w3.org/2000/svg" viewBox="0 0 24 24"><path d="M12,1.25C6.07227,1.25,1.25,6.07227,1.25,12c0,5.92725,4.82227,10.74951,10.75,10.74951,5.92725,0,10.74951-4.82227,10.74951-10.74951,0-5.92773-4.82227-10.75-10.74951-10.75ZM12,21.24951c-5.10059,0-9.25-4.14941-9.25-9.24951C2.75,6.89942,6.89941,2.75,12,2.75c5.1001,0,9.24951,4.14941,9.24951,9.25,0,5.1001-4.14941,9.24951-9.24951,9.24951ZM16.93213,8.14942l-3.86035,3.86035,3.8501,3.8501-1.06055,1.06055-3.8501-3.8501-3.86133,3.86133-1.06055-1.06055,3.86133-3.86133-3.87158-3.87158,1.06055-1.06055,3.87158,3.87158,3.86035-3.86035,1.06055,1.06055Z"/></svg>