<?xml version="1.0" encoding="UTF-8"?><svg id="a" xmlns="http://www.w3.org/2000/svg" viewBox="0 0 24 24"><path d="M10.17289,9.29954l4.67096,2.7002-4.67096,2.7002v-5.40039ZM21.74913,11.96556c-.04248,1.92188-.25,3.43066-.42578,4.53711-.20947,1.19434-1.14893,2.11328-2.4541,2.41016-1.61035.32129-4.24316.51855-6.89062.51855s-5.28027-.19727-6.87109-.51465c-1.29541-.29395-2.25732-1.2334-2.47021-2.39648-.17529-.87793-.38721-2.38672-.38721-4.52051,0-1.56934.11572-3.08496.34375-4.50391.20605-1.19141,1.14551-2.11133,2.45361-2.4082,1.49463-.31641,4.19434-.51953,6.88867-.51953,2.71289,0,5.33301.19824,6.83789.51758,1.28564.29102,2.24658,1.22754,2.46045,2.3877.26758,1.34277.44092,2.85449.51465,4.49219ZM20.2501,11.98216c-.06982-1.51367-.23438-2.95117-.48779-4.2207l-.00244-.0127c-.10352-.57129-.6167-1.04199-1.30762-1.19824-1.37793-.29199-3.93994-.48242-6.51611-.48242-2.59912,0-5.17676.19043-6.56738.48438-.25781.05859-1.14551.3252-1.29492,1.19043-.21436,1.33105-.32373,2.7666-.32373,4.25684,0,2.01074.1958,3.41504.36035,4.23828.10693.58398.62061,1.05469,1.31006,1.21191,2.96387.5918,10.13281.5957,13.13574-.00391.24902-.05762,1.13574-.32324,1.2876-1.19043.1665-1.04785.36523-2.49219.40625-4.27344Z"/></svg>