<?xml version="1.0" encoding="UTF-8"?><svg id="a" xmlns="http://www.w3.org/2000/svg" viewBox="0 0 24 24"><path d="M12.00727,19.04917c-3.79102,0-6.22119-.1416-7.25098-.42188-1.06787-.2959-1.78711-1.01465-2.08301-2.0791-.12744-.46191-.21777-1.06836-.27734-1.85449-.06055-.69434-.0918-1.34863-.0918-1.9375l-.05225-.70215c-.00195-2.03711.14014-3.56641.42041-4.59766.29688-1.06934,1.01611-1.78809,2.08057-2.08301.48633-.13477,1.27295-.2207,2.55127-.27832,1.10596-.06055,2.20654-.09082,3.26465-.09082l1.40234-.05371h.02197c3.79102,0,6.2207.1416,7.25049.42188,1.06787.2959,1.78711,1.01465,2.08301,2.0791v.00098c.12793.46094.21826,1.06738.27734,1.85449.06104.69824.09229,1.35254.09229,1.9375l.05176.70312c.00195,2.03711-.14014,3.56543-.42041,4.5957-.29688,1.06934-1.01611,1.78809-2.08057,2.08301-.48633.13477-1.27295.2207-2.55127.27832-1.11719.06055-2.21777.0918-3.26465.0918l-1.40283.05273h-.021ZM11.99994,6.44956l-1.40234.05371c-1.06006.00098-2.1333.03125-3.21924.08984-1.12061.05078-1.8667.12598-2.2251.22559-.55225.15332-.88086.48242-1.03467,1.03516-.16748.61621-.36865,1.84082-.36865,4.14648l.05225.70215c.00195.59863.03125,1.20996.08887,1.86914.05273.69727.12695,1.20996.22803,1.57617.15332.55078.48193.87988,1.03418,1.0332.50537.13672,2.07129.36914,6.84668.36914l1.40283-.05273c1.04785-.00098,2.12158-.03125,3.21875-.09082,1.12061-.05078,1.8667-.12598,2.2251-.22559.55225-.15332.88086-.48242,1.03467-1.03516.16748-.61621.36865-1.83984.36865-4.14551l-.05176-.70312c-.00195-.59375-.03125-1.20508-.08936-1.86914-.05225-.69727-.12646-1.20996-.22754-1.5752-.15381-.55273-.48291-.88086-1.03467-1.03418-.50537-.13672-2.07129-.36914-6.84668-.36914ZM10.2,14.7l4.671-2.7-4.671-2.7v5.4Z"/></svg>
