<?xml version="1.0" encoding="UTF-8"?><svg id="a" xmlns="http://www.w3.org/2000/svg" viewBox="0 0 24 24"><path d="M21.51362,20.4932l-6.90234-6.89868c.96307-1.19421,1.54297-2.70996,1.54297-4.36011,0-3.83789-3.12207-6.96094-6.95996-6.96094s-6.96094,3.12305-6.96094,6.96094,3.12305,6.95996,6.96094,6.95996c1.64832,0,3.16235-.57861,4.35596-1.53979l6.90283,6.89917,1.06055-1.06055ZM3.73334,9.23441c0-3.01074,2.4502-5.46094,5.46094-5.46094s5.45996,2.4502,5.45996,5.46094-2.44922,5.45996-5.45996,5.45996-5.46094-2.44922-5.46094-5.45996ZM5.36811,8.4639h7.65137v1.5h-7.65137v-1.5Z"/></svg>