<?xml version="1.0" encoding="UTF-8"?><svg id="a" xmlns="http://www.w3.org/2000/svg" viewBox="0 0 24 24"><path d="M21.51382,20.49304l-6.90295-6.89844c.96344-1.19421,1.54358-2.70996,1.54358-4.36035,0-3.83789-3.12305-6.96094-6.96094-6.96094s-6.95996,3.12305-6.95996,6.96094,3.12207,6.95996,6.95996,6.95996c1.64825,0,3.16235-.57861,4.35614-1.53967l6.90363,6.89905,1.06055-1.06055ZM3.73355,9.23425c0-3.01074,2.44922-5.46094,5.45996-5.46094s5.46094,2.4502,5.46094,5.46094-2.4502,5.45996-5.46094,5.45996-5.45996-2.44922-5.45996-5.45996ZM9.94351,8.46375h3.07617v1.5h-3.07617v3.17578h-1.5v-3.17578h-3.0752v-1.5h3.0752v-2.97559h1.5v2.97559Z"/></svg>