<?xml version="1.0" encoding="utf-8"?>
<!-- Generator: Adobe Illustrator 16.0.3, SVG Export Plug-In . SVG Version: 6.00 Build 0)  -->
<!DOCTYPE svg PUBLIC "-//W3C//DTD SVG 1.1//EN" "http://www.w3.org/Graphics/SVG/1.1/DTD/svg11.dtd">
<svg version="1.1" id="Logo" xmlns="http://www.w3.org/2000/svg" xmlns:xlink="http://www.w3.org/1999/xlink" x="0px" y="0px"
	 width="155.99px" height="38.347px" viewBox="8.512 0 155.99 38.347" enable-background="new 8.512 0 155.99 38.347"
	 xml:space="preserve">
<g>
	<g>
		<path d="M38.426,6.538c0.309,0.195,0.667,0.308,1.155,0.308c0.646,0,1.178-0.33,1.178-1.073c0-1.028-2.4-1.156-2.4-2.529
			c0-0.84,0.734-1.366,1.659-1.366c0.255,0,0.667,0.038,1.027,0.172l-0.083,0.473c-0.231-0.128-0.601-0.195-0.953-0.195
			c-0.54,0-1.133,0.225-1.133,0.9c0,1.051,2.401,1.058,2.401,2.589c0,1.058-0.908,1.478-1.718,1.478
			c-0.511,0-0.908-0.105-1.187-0.225L38.426,6.538z"/>
		<path d="M45.344,3.888c-0.255-0.112-0.563-0.195-0.817-0.195c-0.923,0-1.441,0.668-1.441,1.598c0,0.871,0.525,1.599,1.388,1.599
			c0.301,0,0.578-0.068,0.863-0.173l0.045,0.443c-0.322,0.112-0.623,0.135-0.982,0.135c-1.231,0-1.831-0.938-1.831-2.003
			c0-1.178,0.758-2.003,1.891-2.003c0.458,0,0.788,0.105,0.923,0.15L45.344,3.888z"/>
		<path d="M46.77,1.577h0.473v2.446h0.015c0.203-0.42,0.63-0.735,1.193-0.735c1.028,0,1.306,0.683,1.306,1.628v2.289h-0.473V4.924
			c0-0.66-0.127-1.23-0.908-1.23c-0.84,0-1.133,0.795-1.133,1.463v2.048H46.77V1.577z"/>
		<path d="M55.46,7.206h-0.57l-1.043-3.309h-0.015l-1.043,3.309h-0.57l-1.229-3.827h0.518l1.005,3.31h0.016l1.064-3.31h0.57
			l1.013,3.31h0.016l1.058-3.31h0.473L55.46,7.206z"/>
		<path d="M60.517,7.085c-0.33,0.135-0.759,0.21-1.111,0.21c-1.269,0-1.741-0.855-1.741-2.003c0-1.17,0.646-2.003,1.613-2.003
			c1.081,0,1.522,0.871,1.522,1.898v0.24h-2.618c0,0.811,0.436,1.463,1.261,1.463c0.345,0,0.848-0.143,1.073-0.285L60.517,7.085
			L60.517,7.085z M60.284,5.022c0-0.668-0.271-1.328-0.975-1.328c-0.698,0-1.126,0.698-1.126,1.328H60.284z"/>
		<path d="M62.76,2.358h-0.473v-0.63h0.473V2.358z M62.288,3.378h0.473v3.827h-0.473V3.378z"/>
		<path d="M64.187,6.808l2.304-3.024h-2.214V3.379h2.761v0.405l-2.303,3.017h2.303v0.405h-2.851V6.808z"/>
		<path d="M71.022,7.085c-0.33,0.135-0.759,0.21-1.111,0.21c-1.268,0-1.741-0.855-1.741-2.003c0-1.17,0.646-2.003,1.613-2.003
			c1.081,0,1.522,0.871,1.522,1.898v0.24h-2.618c0,0.811,0.436,1.463,1.261,1.463c0.345,0,0.848-0.143,1.073-0.285L71.022,7.085
			L71.022,7.085z M70.789,5.022c0-0.668-0.27-1.328-0.975-1.328c-0.698,0-1.126,0.698-1.126,1.328H70.789z"/>
		<path d="M72.793,4.234c0-0.42,0-0.578-0.03-0.855h0.474v0.735h0.015c0.173-0.427,0.496-0.825,0.983-0.825
			c0.111,0,0.248,0.022,0.33,0.045v0.496c-0.099-0.03-0.226-0.045-0.346-0.045c-0.75,0-0.952,0.841-0.952,1.531v1.891h-0.474V4.234z
			"/>
		<path d="M76.35,2.358h-0.474v-0.63h0.474V2.358z M75.877,3.378h0.474v3.827h-0.474V3.378z"/>
		<path d="M77.836,6.65c0.285,0.143,0.63,0.24,0.998,0.24c0.45,0,0.849-0.248,0.849-0.683c0-0.908-1.839-0.765-1.839-1.876
			c0-0.758,0.615-1.043,1.246-1.043c0.203,0,0.608,0.045,0.945,0.173L79.99,3.875c-0.248-0.113-0.585-0.18-0.848-0.18
			c-0.488,0-0.826,0.15-0.826,0.638c0,0.713,1.883,0.623,1.883,1.876c0,0.811-0.758,1.088-1.335,1.088
			c-0.368,0-0.735-0.045-1.073-0.18L77.836,6.65z"/>
		<path d="M84.123,3.888c-0.255-0.112-0.563-0.195-0.818-0.195c-0.923,0-1.44,0.668-1.44,1.598c0,0.871,0.524,1.599,1.388,1.599
			c0.3,0,0.578-0.068,0.863-0.173L84.16,7.16c-0.323,0.112-0.623,0.135-0.983,0.135c-1.23,0-1.831-0.938-1.831-2.003
			c0-1.178,0.759-2.003,1.892-2.003c0.458,0,0.788,0.105,0.923,0.15L84.123,3.888z"/>
		<path d="M85.549,1.577h0.474v2.446h0.015c0.203-0.42,0.63-0.735,1.193-0.735c1.027,0,1.306,0.683,1.306,1.628v2.289h-0.473V4.924
			c0-0.66-0.127-1.23-0.908-1.23c-0.839,0-1.132,0.795-1.132,1.463v2.048h-0.474V1.577z"/>
		<path d="M92.872,7.085c-0.33,0.135-0.758,0.21-1.111,0.21c-1.268,0-1.74-0.855-1.74-2.003c0-1.17,0.646-2.003,1.612-2.003
			c1.081,0,1.523,0.871,1.523,1.898v0.24h-2.619c0,0.811,0.437,1.463,1.261,1.463c0.346,0,0.849-0.143,1.073-0.285L92.872,7.085
			L92.872,7.085z M92.639,5.022c0-0.668-0.27-1.328-0.975-1.328c-0.698,0-1.126,0.698-1.126,1.328H92.639z"/>
		<path d="M97.142,1.967h2.565v0.45h-2.048v1.869h1.943v0.45h-1.943v2.019h2.139v0.45h-2.656V1.967z"/>
		<path d="M101.9,2.358h-0.474v-0.63h0.474V2.358z M101.426,3.378h0.474v3.827h-0.474V3.378z"/>
		<path d="M106.709,7.206h-0.473V6.597h-0.016c-0.255,0.488-0.646,0.698-1.192,0.698c-1.05,0-1.576-0.87-1.576-2.003
			c0-1.163,0.45-2.003,1.576-2.003c0.75,0,1.125,0.548,1.192,0.735h0.016V1.579h0.473V7.206z M105.104,6.89
			c0.84,0,1.133-0.901,1.133-1.599c0-0.698-0.292-1.598-1.133-1.598c-0.9,0-1.134,0.855-1.134,1.598
			C103.969,6.035,104.202,6.89,105.104,6.89z"/>
		<path d="M111.466,6.89c0,1.065-0.479,1.936-1.793,1.936c-0.503,0-0.96-0.143-1.155-0.203l0.037-0.473
			c0.292,0.15,0.714,0.271,1.125,0.271c1.217,0,1.321-0.886,1.321-1.966h-0.015c-0.255,0.555-0.675,0.75-1.163,0.75
			c-1.223,0-1.613-1.065-1.613-1.914c0-1.163,0.45-2.003,1.576-2.003c0.51,0,0.84,0.067,1.193,0.525h0.015V3.377h0.473L111.466,6.89
			L111.466,6.89z M109.83,6.8c0.855,0,1.163-0.811,1.163-1.508c0-0.923-0.27-1.598-1.133-1.598c-0.9,0-1.133,0.855-1.133,1.598
			C108.728,6.042,109.028,6.8,109.83,6.8z"/>
		<path d="M115.758,7.085c-0.33,0.135-0.758,0.21-1.11,0.21c-1.269,0-1.741-0.855-1.741-2.003c0-1.17,0.646-2.003,1.613-2.003
			c1.081,0,1.522,0.871,1.522,1.898v0.24h-2.619c0,0.811,0.437,1.463,1.262,1.463c0.345,0,0.848-0.143,1.072-0.285L115.758,7.085
			L115.758,7.085z M115.526,5.022c0-0.668-0.271-1.328-0.976-1.328c-0.697,0-1.126,0.698-1.126,1.328H115.526z"/>
		<path d="M117.53,4.279c0-0.293,0-0.593-0.03-0.901h0.458v0.683h0.015c0.157-0.345,0.442-0.773,1.238-0.773
			c0.946,0,1.307,0.63,1.307,1.471v2.446h-0.474V4.879c0-0.72-0.255-1.186-0.908-1.186c-0.862,0-1.133,0.758-1.133,1.396v2.116
			h-0.473V4.279z"/>
		<path d="M123.78,3.289c1.238,0,1.786,0.96,1.786,2.003s-0.548,2.003-1.786,2.003s-1.786-0.96-1.786-2.003
			S122.542,3.289,123.78,3.289z M123.78,6.89c0.826,0,1.268-0.713,1.268-1.599c0-0.885-0.441-1.598-1.268-1.598
			c-0.825,0-1.269,0.713-1.269,1.598C122.511,6.177,122.954,6.89,123.78,6.89z"/>
		<path d="M126.751,6.65c0.285,0.143,0.63,0.24,0.998,0.24c0.45,0,0.848-0.248,0.848-0.683c0-0.908-1.838-0.765-1.838-1.876
			c0-0.758,0.615-1.043,1.246-1.043c0.203,0,0.608,0.045,0.945,0.173l-0.045,0.413c-0.248-0.113-0.585-0.18-0.848-0.18
			c-0.488,0-0.826,0.15-0.826,0.638c0,0.713,1.884,0.623,1.884,1.876c0,0.811-0.758,1.088-1.336,1.088
			c-0.368,0-0.735-0.045-1.073-0.18L126.751,6.65z"/>
		<path d="M130.255,6.65c0.285,0.143,0.63,0.24,0.998,0.24c0.45,0,0.849-0.248,0.849-0.683c0-0.908-1.839-0.765-1.839-1.876
			c0-0.758,0.615-1.043,1.246-1.043c0.203,0,0.608,0.045,0.945,0.173l-0.045,0.413c-0.248-0.113-0.585-0.18-0.848-0.18
			c-0.488,0-0.826,0.15-0.826,0.638c0,0.713,1.884,0.623,1.884,1.876c0,0.811-0.758,1.088-1.336,1.088
			c-0.368,0-0.735-0.045-1.073-0.18L130.255,6.65z"/>
		<path d="M136.618,7.085c-0.33,0.135-0.758,0.21-1.111,0.21c-1.268,0-1.74-0.855-1.74-2.003c0-1.17,0.646-2.003,1.612-2.003
			c1.081,0,1.523,0.871,1.523,1.898v0.24h-2.619c0,0.811,0.436,1.463,1.261,1.463c0.346,0,0.849-0.143,1.073-0.285L136.618,7.085
			L136.618,7.085z M136.385,5.022c0-0.668-0.27-1.328-0.975-1.328c-0.698,0-1.126,0.698-1.126,1.328H136.385z"/>
		<path d="M138.389,4.279c0-0.293,0-0.593-0.029-0.901h0.458v0.683h0.015c0.157-0.345,0.442-0.773,1.238-0.773
			c0.946,0,1.306,0.63,1.306,1.471v2.446h-0.473V4.879c0-0.72-0.255-1.186-0.908-1.186c-0.863,0-1.133,0.758-1.133,1.396v2.116
			h-0.474V4.279L138.389,4.279z"/>
		<path d="M142.855,6.65c0.284,0.143,0.63,0.24,0.998,0.24c0.449,0,0.848-0.248,0.848-0.683c0-0.908-1.838-0.765-1.838-1.876
			c0-0.758,0.615-1.043,1.246-1.043c0.203,0,0.607,0.045,0.944,0.173l-0.045,0.413c-0.248-0.113-0.585-0.18-0.848-0.18
			c-0.488,0-0.826,0.15-0.826,0.638c0,0.713,1.884,0.623,1.884,1.876c0,0.811-0.758,1.088-1.336,1.088
			c-0.367,0-0.734-0.045-1.072-0.18L142.855,6.65z"/>
		<path d="M149.143,3.888c-0.256-0.112-0.563-0.195-0.818-0.195c-0.923,0-1.441,0.668-1.441,1.598c0,0.871,0.525,1.599,1.389,1.599
			c0.3,0,0.578-0.068,0.862-0.173l0.045,0.443c-0.322,0.112-0.622,0.135-0.982,0.135c-1.231,0-1.831-0.938-1.831-2.003
			c0-1.178,0.758-2.003,1.891-2.003c0.458,0,0.788,0.105,0.923,0.15L149.143,3.888z"/>
		<path d="M150.568,1.577h0.473v2.446h0.015c0.203-0.42,0.631-0.735,1.193-0.735c1.028,0,1.306,0.683,1.306,1.628v2.289h-0.473
			V4.924c0-0.66-0.128-1.23-0.908-1.23c-0.84,0-1.133,0.795-1.133,1.463v2.048h-0.473V1.577L150.568,1.577z"/>
		<path d="M157.524,6.59h-0.016c-0.21,0.458-0.742,0.705-1.216,0.705c-1.088,0-1.261-0.735-1.261-1.081
			c0-1.283,1.366-1.343,2.355-1.343h0.091V4.676c0-0.653-0.232-0.983-0.87-0.983c-0.397,0-0.772,0.09-1.126,0.315V3.55
			c0.293-0.143,0.788-0.263,1.126-0.263c0.944,0,1.343,0.428,1.343,1.426v1.689c0,0.308,0,0.54,0.038,0.803h-0.466L157.524,6.59
			L157.524,6.59z M157.479,5.277h-0.136c-0.817,0-1.793,0.083-1.793,0.923c0,0.502,0.359,0.69,0.795,0.69
			c1.11,0,1.134-0.968,1.134-1.381V5.277z"/>
		<path d="M159.985,3.783h-0.772V3.378h0.772V3.101c0-0.803,0.029-1.613,1.014-1.613c0.149,0,0.354,0.022,0.442,0.075l-0.03,0.413
			c-0.098-0.053-0.24-0.083-0.375-0.083c-0.646,0-0.578,0.698-0.578,1.155v0.33h0.863v0.405h-0.863v3.422h-0.473V3.783z"/>
		<path d="M164.397,3.783h-0.87V6.26c0,0.345,0.128,0.63,0.511,0.63c0.18,0,0.3-0.038,0.435-0.09l0.03,0.39
			c-0.111,0.045-0.345,0.105-0.578,0.105c-0.84,0-0.87-0.578-0.87-1.275V3.784h-0.75V3.379h0.75V2.457l0.474-0.165v1.088h0.87
			L164.397,3.783L164.397,3.783z"/>
		<path d="M42.103,12.903c-0.33-0.172-0.804-0.225-1.171-0.225c-1.358,0-2.124,0.96-2.124,2.259c0,1.32,0.742,2.258,2.124,2.258
			c0.345,0,0.87-0.045,1.171-0.225l0.029,0.45c-0.285,0.173-0.87,0.225-1.2,0.225c-1.651,0-2.642-1.088-2.642-2.708
			c0-1.591,1.021-2.709,2.642-2.709c0.308,0,0.931,0.053,1.2,0.195L42.103,12.903z"/>
		<path d="M45.352,13.638c1.237,0,1.785,0.96,1.785,2.003s-0.548,2.003-1.785,2.003c-1.238,0-1.786-0.96-1.786-2.003
			S44.114,13.638,45.352,13.638z M45.352,17.24c0.825,0,1.268-0.713,1.268-1.599c0-0.885-0.442-1.598-1.268-1.598
			s-1.269,0.713-1.269,1.598C44.084,16.527,44.527,17.24,45.352,17.24z"/>
		<path d="M48.616,14.629c0-0.293,0-0.593-0.03-0.901h0.458v0.683h0.016c0.156-0.345,0.441-0.773,1.237-0.773
			c0.946,0,1.307,0.63,1.307,1.471v2.446H51.13v-2.326c0-0.72-0.255-1.186-0.908-1.186c-0.862,0-1.133,0.758-1.133,1.396v2.116
			h-0.473V14.629z"/>
		<path d="M53.696,14.133h-0.773v-0.405h0.773v-0.277c0-0.803,0.03-1.613,1.013-1.613c0.15,0,0.354,0.022,0.443,0.075l-0.03,0.413
			c-0.098-0.053-0.24-0.083-0.375-0.083c-0.645,0-0.578,0.698-0.578,1.155v0.33h0.863v0.405h-0.863v3.422h-0.473V14.133z"/>
		<path d="M59.024,17.436c-0.33,0.135-0.758,0.21-1.111,0.21c-1.268,0-1.741-0.855-1.741-2.003c0-1.17,0.646-2.003,1.613-2.003
			c1.081,0,1.523,0.871,1.523,1.898v0.24h-2.619c0,0.811,0.436,1.463,1.261,1.463c0.345,0,0.848-0.143,1.073-0.285L59.024,17.436
			L59.024,17.436z M58.791,15.373c0-0.668-0.27-1.328-0.975-1.328c-0.698,0-1.126,0.698-1.126,1.328H58.791z M58.004,12.25h0.593
			l-0.944,1.081h-0.345L58.004,12.25z"/>
		<path d="M63.826,17.555h-0.473v-0.608h-0.016c-0.255,0.488-0.646,0.698-1.192,0.698c-1.051,0-1.576-0.87-1.576-2.003
			c0-1.163,0.45-2.003,1.576-2.003c0.75,0,1.125,0.548,1.192,0.735h0.016v-2.446h0.473V17.555z M62.219,17.24
			c0.841,0,1.134-0.901,1.134-1.599c0-0.698-0.292-1.598-1.134-1.598c-0.899,0-1.133,0.855-1.133,1.598
			C61.087,16.385,61.32,17.24,62.219,17.24z"/>
		<path d="M68.118,17.436c-0.33,0.135-0.758,0.21-1.111,0.21c-1.268,0-1.74-0.855-1.74-2.003c0-1.17,0.646-2.003,1.612-2.003
			c1.081,0,1.523,0.871,1.523,1.898v0.24h-2.619c0,0.811,0.436,1.463,1.261,1.463c0.345,0,0.849-0.143,1.073-0.285L68.118,17.436
			L68.118,17.436z M67.885,15.373c0-0.668-0.27-1.328-0.975-1.328c-0.698,0-1.126,0.698-1.126,1.328H67.885z M67.097,12.25h0.594
			l-0.946,1.081H66.4L67.097,12.25z"/>
		<path d="M69.888,14.584c0-0.42,0-0.578-0.029-0.855h0.473v0.736h0.015c0.174-0.428,0.496-0.826,0.983-0.826
			c0.112,0,0.248,0.022,0.33,0.045v0.496c-0.098-0.03-0.225-0.045-0.345-0.045c-0.75,0-0.953,0.84-0.953,1.531v1.891h-0.474V14.584z
			"/>
		<path d="M75.172,16.94h-0.015c-0.21,0.458-0.743,0.705-1.216,0.705c-1.088,0-1.261-0.735-1.261-1.081
			c0-1.283,1.366-1.343,2.356-1.343h0.09v-0.195c0-0.653-0.232-0.983-0.871-0.983c-0.397,0-0.772,0.09-1.125,0.315V13.9
			c0.292-0.143,0.788-0.263,1.125-0.263c0.945,0,1.344,0.428,1.344,1.426v1.688c0,0.308,0,0.54,0.037,0.803h-0.465V16.94z
			 M75.127,15.627h-0.135c-0.818,0-1.793,0.083-1.793,0.923c0,0.502,0.36,0.69,0.795,0.69c1.11,0,1.133-0.968,1.133-1.381V15.627z"
			/>
		<path d="M78.961,14.133H78.09v2.477c0,0.345,0.128,0.63,0.511,0.63c0.18,0,0.3-0.038,0.436-0.09l0.03,0.39
			c-0.112,0.045-0.346,0.105-0.578,0.105c-0.84,0-0.871-0.578-0.871-1.275v-2.236h-0.75v-0.405h0.75v-0.923l0.473-0.165v1.088h0.871
			V14.133z"/>
		<path d="M80.867,12.708h-0.473v-0.63h0.473V12.708z M80.394,13.729h0.473v3.827h-0.473V13.729z"/>
		<path d="M84.137,13.638c1.238,0,1.786,0.96,1.786,2.003s-0.548,2.003-1.786,2.003c-1.237,0-1.785-0.96-1.785-2.003
			S82.9,13.638,84.137,13.638z M84.137,17.24c0.826,0,1.269-0.713,1.269-1.599c0-0.885-0.442-1.598-1.269-1.598
			c-0.824,0-1.268,0.713-1.268,1.598C82.87,16.527,83.313,17.24,84.137,17.24z"/>
		<path d="M87.402,14.629c0-0.293,0-0.593-0.03-0.901h0.458v0.683h0.015c0.157-0.345,0.442-0.773,1.238-0.773
			c0.946,0,1.306,0.63,1.306,1.471v2.446h-0.473v-2.326c0-0.72-0.255-1.186-0.908-1.186c-0.862,0-1.133,0.758-1.133,1.396v2.116
			h-0.473V14.629z"/>
		<path d="M94.463,17c0.285,0.143,0.63,0.24,0.998,0.24c0.45,0,0.849-0.248,0.849-0.683c0-0.908-1.839-0.765-1.839-1.876
			c0-0.758,0.615-1.043,1.246-1.043c0.203,0,0.608,0.045,0.945,0.172l-0.045,0.413c-0.248-0.113-0.585-0.18-0.848-0.18
			c-0.488,0-0.826,0.15-0.826,0.638c0,0.713,1.884,0.623,1.884,1.876c0,0.811-0.758,1.088-1.336,1.088
			c-0.368,0-0.735-0.045-1.073-0.18L94.463,17z"/>
		<path d="M101.246,16.655c0,0.292,0,0.593,0.03,0.9h-0.458v-0.683h-0.016c-0.157,0.345-0.442,0.772-1.237,0.772
			c-0.945,0-1.307-0.63-1.307-1.471v-2.446h0.474v2.326c0,0.721,0.255,1.186,0.908,1.186c0.862,0,1.133-0.758,1.133-1.396v-2.116
			h0.473V16.655z"/>
		<path d="M103.49,12.708h-0.473v-0.63h0.473V12.708z M103.018,13.729h0.473v3.827h-0.473V13.729z"/>
		<path d="M104.976,17c0.284,0.143,0.63,0.24,0.998,0.24c0.449,0,0.848-0.248,0.848-0.683c0-0.908-1.838-0.765-1.838-1.876
			c0-0.758,0.615-1.043,1.246-1.043c0.203,0,0.607,0.045,0.944,0.172l-0.045,0.413c-0.248-0.113-0.585-0.18-0.848-0.18
			c-0.488,0-0.826,0.15-0.826,0.638c0,0.713,1.883,0.623,1.883,1.876c0,0.811-0.758,1.088-1.335,1.088
			c-0.368,0-0.734-0.045-1.073-0.18L104.976,17z"/>
		<path d="M108.481,17c0.285,0.143,0.63,0.24,0.998,0.24c0.449,0,0.848-0.248,0.848-0.683c0-0.908-1.838-0.765-1.838-1.876
			c0-0.758,0.615-1.043,1.246-1.043c0.203,0,0.607,0.045,0.944,0.172l-0.045,0.413c-0.248-0.113-0.585-0.18-0.848-0.18
			c-0.488,0-0.826,0.15-0.826,0.638c0,0.713,1.884,0.623,1.884,1.876c0,0.811-0.758,1.088-1.336,1.088
			c-0.367,0-0.734-0.045-1.072-0.18L108.481,17z"/>
		<path d="M114.842,17.436c-0.33,0.135-0.758,0.21-1.11,0.21c-1.269,0-1.741-0.855-1.741-2.003c0-1.17,0.646-2.003,1.613-2.003
			c1.081,0,1.522,0.871,1.522,1.898v0.24h-2.619c0,0.811,0.437,1.463,1.262,1.463c0.345,0,0.848-0.143,1.072-0.285L114.842,17.436
			L114.842,17.436z M114.61,15.373c0-0.668-0.271-1.328-0.976-1.328c-0.697,0-1.126,0.698-1.126,1.328H114.61z"/>
		<path d="M42.103,23.253c-0.33-0.172-0.804-0.225-1.171-0.225c-1.358,0-2.124,0.96-2.124,2.26c0,1.319,0.742,2.258,2.124,2.258
			c0.345,0,0.87-0.045,1.171-0.226l0.029,0.45c-0.285,0.173-0.87,0.225-1.2,0.225c-1.651,0-2.642-1.088-2.642-2.707
			c0-1.592,1.021-2.709,2.642-2.709c0.308,0,0.931,0.051,1.2,0.194L42.103,23.253z"/>
		<path d="M45.352,23.988c1.237,0,1.785,0.96,1.785,2.003s-0.548,2.003-1.785,2.003c-1.238,0-1.786-0.96-1.786-2.003
			S44.114,23.988,45.352,23.988z M45.352,27.591c0.825,0,1.268-0.713,1.268-1.6c0-0.885-0.442-1.598-1.268-1.598
			s-1.269,0.713-1.269,1.598C44.084,26.878,44.527,27.591,45.352,27.591z"/>
		<path d="M48.616,24.979c0-0.293,0-0.594-0.03-0.9h0.458v0.682h0.016c0.156-0.344,0.441-0.772,1.237-0.772
			c0.946,0,1.307,0.63,1.307,1.472v2.445H51.13v-2.326c0-0.72-0.255-1.186-0.908-1.186c-0.862,0-1.133,0.758-1.133,1.396v2.115
			h-0.473V24.979z"/>
		<path d="M53.696,24.484h-0.773v-0.405h0.773v-0.277c0-0.803,0.03-1.612,1.013-1.612c0.15,0,0.354,0.022,0.443,0.075l-0.03,0.412
			c-0.098-0.053-0.24-0.082-0.375-0.082c-0.645,0-0.578,0.697-0.578,1.154v0.33h0.863v0.405h-0.863v3.422h-0.473V24.484z"/>
		<path d="M59.024,27.785c-0.33,0.136-0.758,0.21-1.111,0.21c-1.268,0-1.741-0.855-1.741-2.003c0-1.17,0.646-2.003,1.613-2.003
			c1.081,0,1.523,0.871,1.523,1.898v0.24h-2.619c0,0.811,0.436,1.463,1.261,1.463c0.345,0,0.848-0.144,1.073-0.285L59.024,27.785
			L59.024,27.785z M58.791,25.722c0-0.668-0.27-1.327-0.975-1.327c-0.698,0-1.126,0.698-1.126,1.327H58.791z"/>
		<path d="M63.826,27.905h-0.473v-0.607h-0.016c-0.255,0.487-0.646,0.697-1.192,0.697c-1.051,0-1.576-0.869-1.576-2.003
			c0-1.163,0.45-2.003,1.576-2.003c0.75,0,1.125,0.549,1.192,0.734h0.016v-2.445h0.473V27.905z M62.219,27.591
			c0.841,0,1.134-0.901,1.134-1.6c0-0.697-0.292-1.598-1.134-1.598c-0.899,0-1.133,0.855-1.133,1.598
			C61.087,26.735,61.32,27.591,62.219,27.591z"/>
		<path d="M68.118,27.785c-0.33,0.136-0.758,0.21-1.111,0.21c-1.268,0-1.74-0.855-1.74-2.003c0-1.17,0.646-2.003,1.612-2.003
			c1.081,0,1.523,0.871,1.523,1.898v0.24h-2.619c0,0.811,0.436,1.463,1.261,1.463c0.345,0,0.849-0.144,1.073-0.285L68.118,27.785
			L68.118,27.785z M67.885,25.722c0-0.668-0.27-1.327-0.975-1.327c-0.698,0-1.126,0.698-1.126,1.327H67.885z"/>
		<path d="M69.888,24.935c0-0.42,0-0.578-0.029-0.855h0.473v0.735h0.015c0.174-0.427,0.496-0.825,0.983-0.825
			c0.112,0,0.248,0.021,0.33,0.045v0.496c-0.098-0.029-0.225-0.045-0.345-0.045c-0.75,0-0.953,0.841-0.953,1.531v1.891h-0.474
			V24.935z"/>
		<path d="M75.172,27.29h-0.015c-0.21,0.459-0.743,0.705-1.216,0.705c-1.088,0-1.261-0.734-1.261-1.08
			c0-1.283,1.366-1.344,2.356-1.344h0.09v-0.195c0-0.652-0.232-0.982-0.871-0.982c-0.397,0-0.772,0.09-1.125,0.314v-0.457
			c0.292-0.144,0.788-0.264,1.125-0.264c0.945,0,1.344,0.428,1.344,1.426v1.688c0,0.309,0,0.541,0.037,0.804h-0.465V27.29z
			 M75.127,25.978h-0.135c-0.818,0-1.793,0.083-1.793,0.923c0,0.502,0.36,0.69,0.795,0.69c1.11,0,1.133-0.969,1.133-1.381V25.978z"
			/>
		<path d="M76.958,27.509l2.304-3.024h-2.214v-0.405h2.762v0.405l-2.304,3.017h2.304v0.405h-2.852V27.509z"/>
		<path d="M81.7,23.058h-0.473v-0.629H81.7V23.058z M81.227,24.079H81.7v3.826h-0.473V24.079z"/>
		<path d="M84.97,23.988c1.238,0,1.786,0.96,1.786,2.003s-0.548,2.003-1.786,2.003c-1.237,0-1.785-0.96-1.785-2.003
			S83.734,23.988,84.97,23.988z M84.97,27.591c0.826,0,1.269-0.713,1.269-1.6c0-0.885-0.442-1.598-1.269-1.598
			c-0.824,0-1.268,0.713-1.268,1.598C83.703,26.878,84.146,27.591,84.97,27.591z"/>
		<path d="M88.235,24.979c0-0.293,0-0.594-0.03-0.9h0.458v0.682h0.015c0.157-0.344,0.442-0.772,1.238-0.772
			c0.946,0,1.306,0.63,1.306,1.472v2.445h-0.473v-2.326c0-0.72-0.255-1.186-0.908-1.186c-0.862,0-1.133,0.758-1.133,1.396v2.115
			h-0.473V24.979z"/>
		<path d="M95.559,27.785c-0.33,0.136-0.759,0.21-1.111,0.21c-1.269,0-1.741-0.855-1.741-2.003c0-1.17,0.646-2.003,1.613-2.003
			c1.081,0,1.522,0.871,1.522,1.898v0.24h-2.618c0,0.811,0.436,1.463,1.261,1.463c0.345,0,0.848-0.144,1.073-0.285L95.559,27.785
			L95.559,27.785z M95.325,25.722c0-0.668-0.271-1.327-0.975-1.327c-0.698,0-1.126,0.698-1.126,1.327H95.325z"/>
		<path d="M99.836,27.237c0.309,0.195,0.667,0.309,1.155,0.309c0.646,0,1.178-0.33,1.178-1.074c0-1.027-2.4-1.155-2.4-2.528
			c0-0.84,0.734-1.366,1.658-1.366c0.256,0,0.667,0.038,1.028,0.172l-0.083,0.473c-0.231-0.127-0.601-0.194-0.953-0.194
			c-0.54,0-1.133,0.226-1.133,0.899c0,1.052,2.401,1.059,2.401,2.59c0,1.058-0.908,1.478-1.719,1.478
			c-0.51,0-0.907-0.104-1.186-0.225L99.836,27.237z"/>
		<path d="M105.59,27.905h-0.555l-1.298-3.826h0.518l1.059,3.309h0.015l1.111-3.309h0.495L105.59,27.905z"/>
		<path d="M108.653,23.058h-0.474v-0.629h0.474V23.058z M108.179,24.079h0.474v3.826h-0.474V24.079z"/>
		<path d="M110.078,27.509l2.304-3.024h-2.214v-0.405h2.761v0.405l-2.303,3.017h2.303v0.405h-2.851V27.509z"/>
		<path d="M113.995,27.509l2.304-3.024h-2.214v-0.405h2.761v0.405l-2.303,3.017h2.303v0.405h-2.851V27.509z"/>
		<path d="M120.83,27.785c-0.33,0.136-0.758,0.21-1.111,0.21c-1.268,0-1.74-0.855-1.74-2.003c0-1.17,0.646-2.003,1.612-2.003
			c1.081,0,1.523,0.871,1.523,1.898v0.24h-2.619c0,0.811,0.437,1.463,1.261,1.463c0.346,0,0.849-0.144,1.073-0.285L120.83,27.785
			L120.83,27.785z M120.597,25.722c0-0.668-0.27-1.327-0.975-1.327c-0.698,0-1.126,0.698-1.126,1.327H120.597z"/>
		<path d="M122.602,24.935c0-0.42,0-0.578-0.03-0.855h0.473v0.735h0.016c0.173-0.427,0.495-0.825,0.982-0.825
			c0.112,0,0.248,0.021,0.33,0.045v0.496c-0.098-0.029-0.225-0.045-0.345-0.045c-0.75,0-0.953,0.841-0.953,1.531v1.891h-0.473
			V24.935z"/>
		<path d="M127.884,27.29h-0.015c-0.21,0.459-0.743,0.705-1.216,0.705c-1.088,0-1.26-0.734-1.26-1.08
			c0-1.283,1.365-1.344,2.355-1.344h0.09v-0.195c0-0.652-0.232-0.982-0.871-0.982c-0.397,0-0.772,0.09-1.125,0.314v-0.457
			c0.292-0.144,0.788-0.264,1.125-0.264c0.945,0,1.344,0.428,1.344,1.426v1.688c0,0.309,0,0.541,0.038,0.804h-0.466V27.29z
			 M127.839,25.978h-0.135c-0.818,0-1.793,0.083-1.793,0.923c0,0.502,0.36,0.69,0.795,0.69c1.11,0,1.133-0.969,1.133-1.381V25.978z"
			/>
		<path d="M42.103,33.604c-0.33-0.173-0.804-0.226-1.171-0.226c-1.358,0-2.124,0.961-2.124,2.26c0,1.32,0.742,2.258,2.124,2.258
			c0.345,0,0.87-0.045,1.171-0.225l0.029,0.449c-0.285,0.174-0.87,0.225-1.2,0.225c-1.651,0-2.642-1.088-2.642-2.707
			c0-1.592,1.021-2.709,2.642-2.709c0.308,0,0.931,0.052,1.2,0.195L42.103,33.604z"/>
		<path d="M45.352,34.339c1.237,0,1.785,0.959,1.785,2.002s-0.548,2.004-1.785,2.004c-1.238,0-1.786-0.961-1.786-2.004
			S44.114,34.339,45.352,34.339z M45.352,37.94c0.825,0,1.268-0.713,1.268-1.6c0-0.885-0.442-1.598-1.268-1.598
			s-1.269,0.713-1.269,1.598C44.084,37.228,44.527,37.94,45.352,37.94z"/>
		<path d="M48.616,35.329c0-0.293,0-0.593-0.03-0.9h0.458v0.683h0.016c0.156-0.345,0.441-0.772,1.237-0.772
			c0.946,0,1.307,0.629,1.307,1.471v2.445H51.13v-2.326c0-0.719-0.255-1.186-0.908-1.186c-0.862,0-1.133,0.758-1.133,1.396v2.115
			h-0.473V35.329z"/>
		<path d="M53.696,34.833h-0.773v-0.404h0.773v-0.277c0-0.803,0.03-1.613,1.013-1.613c0.15,0,0.354,0.022,0.443,0.075l-0.03,0.413
			c-0.098-0.053-0.24-0.083-0.375-0.083c-0.645,0-0.578,0.698-0.578,1.155v0.33h0.863v0.404h-0.863v3.422h-0.473V34.833z"/>
		<path d="M59.024,38.136c-0.33,0.135-0.758,0.209-1.111,0.209c-1.268,0-1.741-0.854-1.741-2.002c0-1.17,0.646-2.004,1.613-2.004
			c1.081,0,1.523,0.871,1.523,1.898v0.24h-2.619c0,0.811,0.436,1.463,1.261,1.463c0.345,0,0.848-0.143,1.073-0.285L59.024,38.136
			L59.024,38.136z M58.791,36.071c0-0.668-0.27-1.328-0.975-1.328c-0.698,0-1.126,0.698-1.126,1.328H58.791z"/>
		<path d="M63.826,38.255h-0.473v-0.607h-0.016c-0.255,0.488-0.646,0.697-1.192,0.697c-1.051,0-1.576-0.869-1.576-2.002
			c0-1.164,0.45-2.004,1.576-2.004c0.75,0,1.125,0.549,1.192,0.735h0.016v-2.446h0.473V38.255z M62.219,37.94
			c0.841,0,1.134-0.9,1.134-1.6c0-0.697-0.292-1.598-1.134-1.598c-0.899,0-1.133,0.855-1.133,1.598
			C61.087,37.085,61.32,37.94,62.219,37.94z"/>
		<path d="M68.118,38.136c-0.33,0.135-0.758,0.209-1.111,0.209c-1.268,0-1.74-0.854-1.74-2.002c0-1.17,0.646-2.004,1.612-2.004
			c1.081,0,1.523,0.871,1.523,1.898v0.24h-2.619c0,0.811,0.436,1.463,1.261,1.463c0.345,0,0.849-0.143,1.073-0.285L68.118,38.136
			L68.118,38.136z M67.885,36.071c0-0.668-0.27-1.328-0.975-1.328c-0.698,0-1.126,0.698-1.126,1.328H67.885z"/>
		<path d="M69.888,35.283c0-0.42,0-0.577-0.029-0.854h0.473v0.734h0.015c0.174-0.427,0.496-0.824,0.983-0.824
			c0.112,0,0.248,0.021,0.33,0.045v0.496c-0.098-0.031-0.225-0.045-0.345-0.045c-0.75,0-0.953,0.84-0.953,1.53v1.892h-0.474V35.283z
			"/>
		<path d="M75.172,37.64h-0.015c-0.21,0.459-0.743,0.705-1.216,0.705c-1.088,0-1.261-0.734-1.261-1.08
			c0-1.283,1.366-1.344,2.356-1.344h0.09v-0.195c0-0.652-0.232-0.982-0.871-0.982c-0.397,0-0.772,0.09-1.125,0.314v-0.457
			c0.292-0.143,0.788-0.264,1.125-0.264c0.945,0,1.344,0.428,1.344,1.426v1.688c0,0.308,0,0.54,0.037,0.804h-0.465V37.64z
			 M75.127,36.326h-0.135c-0.818,0-1.793,0.083-1.793,0.923c0,0.502,0.36,0.69,0.795,0.69c1.11,0,1.133-0.968,1.133-1.382V36.326z"
			/>
		<path d="M76.958,37.858l2.304-3.023h-2.214v-0.406h2.762v0.406l-2.304,3.016h2.304v0.406h-2.852V37.858z"/>
		<path d="M81.7,33.407h-0.473v-0.63H81.7V33.407z M81.227,34.429H81.7v3.826h-0.473V34.429z"/>
		<path d="M86.464,37.355c0,0.292,0,0.593,0.03,0.899h-0.458v-0.683h-0.014c-0.158,0.345-0.443,0.772-1.238,0.772
			c-0.945,0-1.306-0.631-1.306-1.471v-2.447h0.473v2.326c0,0.721,0.255,1.187,0.908,1.187c0.862,0,1.133-0.759,1.133-1.396v-2.117
			h0.473L86.464,37.355L86.464,37.355z"/>
		<path d="M88.235,35.329c0-0.293,0-0.593-0.03-0.9h0.458v0.683h0.015c0.157-0.345,0.442-0.772,1.238-0.772
			c0.946,0,1.306,0.629,1.306,1.471v2.445h-0.473v-2.326c0-0.719-0.255-1.186-0.908-1.186c-0.862,0-1.133,0.758-1.133,1.396v2.115
			h-0.473V35.329z"/>
		<path d="M95.295,37.7c0.285,0.143,0.63,0.24,0.998,0.24c0.45,0,0.849-0.248,0.849-0.684c0-0.908-1.839-0.765-1.839-1.875
			c0-0.758,0.615-1.043,1.246-1.043c0.203,0,0.608,0.045,0.945,0.172l-0.045,0.414c-0.248-0.113-0.585-0.181-0.848-0.181
			c-0.488,0-0.826,0.15-0.826,0.638c0,0.713,1.883,0.623,1.883,1.877c0,0.811-0.758,1.088-1.335,1.088
			c-0.368,0-0.735-0.045-1.073-0.18L95.295,37.7z"/>
		<path d="M100.42,38.255h-0.555l-1.298-3.826h0.518l1.059,3.31h0.015l1.111-3.31h0.494L100.42,38.255z"/>
		<path d="M103.483,33.407h-0.474v-0.63h0.474V33.407z M103.009,34.429h0.474v3.826h-0.474V34.429z"/>
		<path d="M104.908,37.858l2.304-3.023h-2.214v-0.406h2.761v0.406l-2.303,3.016h2.303v0.406h-2.851V37.858z"/>
		<path d="M109.177,35.283c0-0.42,0-0.577-0.029-0.854h0.473v0.734h0.015c0.174-0.427,0.496-0.824,0.983-0.824
			c0.112,0,0.248,0.021,0.33,0.045v0.496c-0.098-0.031-0.225-0.045-0.345-0.045c-0.75,0-0.953,0.84-0.953,1.53v1.892h-0.474V35.283z
			"/>
		<path d="M114.46,37.64h-0.015c-0.21,0.459-0.743,0.705-1.216,0.705c-1.088,0-1.261-0.734-1.261-1.08
			c0-1.283,1.366-1.344,2.356-1.344h0.09v-0.195c0-0.652-0.232-0.982-0.871-0.982c-0.397,0-0.772,0.09-1.125,0.314v-0.457
			c0.292-0.143,0.788-0.264,1.125-0.264c0.945,0,1.343,0.428,1.343,1.426v1.688c0,0.308,0,0.54,0.038,0.804h-0.465V37.64z
			 M114.415,36.326h-0.135c-0.818,0-1.793,0.083-1.793,0.923c0,0.502,0.359,0.69,0.795,0.69c1.11,0,1.133-0.968,1.133-1.382V36.326z
			"/>
	</g>
	<path fill="#E30613" d="M29.778,1.737c0,0-3.969-1.738-10.613-1.738h-0.002C12.518,0,8.549,1.737,8.549,1.737
		S8.194,9.433,9.7,13.785c2.661,7.651,9.462,9.802,9.462,9.802h0.002h0.002c0,0,6.8-2.149,9.462-9.802
		C30.134,9.434,29.778,1.737,29.778,1.737z"/>
	<polygon fill="#FFFFFF" points="26.217,8.373 26.217,12.612 21.27,12.612 21.27,17.561 17.03,17.561 17.03,12.612 12.083,12.612 
		12.083,8.373 17.03,8.373 17.03,3.426 21.269,3.426 21.27,8.373 	"/>
</g>
</svg>
