<?xml version="1.0" encoding="utf-8"?>
<!-- Generator: Adobe Illustrator 16.0.3, SVG Export Plug-In . SVG Version: 6.00 Build 0)  -->
<!DOCTYPE svg PUBLIC "-//W3C//DTD SVG 1.1//EN" "http://www.w3.org/Graphics/SVG/1.1/DTD/svg11.dtd">
<svg version="1.1" id="Logo" xmlns="http://www.w3.org/2000/svg" xmlns:xlink="http://www.w3.org/1999/xlink" x="0px" y="0px"
	 width="21.303px" height="23.586px" viewBox="2.161 0.707 21.303 23.586" enable-background="new 2.161 0.707 21.303 23.586"
	 xml:space="preserve">
<g>
	<path fill="#E30613" d="M23.428,2.444c0,0-3.97-1.737-10.615-1.737h-0.002c-6.646,0-10.614,1.737-10.614,1.737
		S1.843,10.14,3.348,14.492c2.661,7.65,9.461,9.801,9.461,9.801h0.002h0.002c0,0,6.802-2.148,9.464-9.801
		C23.784,10.142,23.428,2.444,23.428,2.444z"/>
	<polygon fill="#FFFFFF" points="19.867,9.081 19.867,13.318 14.92,13.318 14.92,18.267 10.679,18.267 10.679,13.318 5.731,13.318 
		5.731,9.081 10.679,9.081 10.679,4.134 14.919,4.134 14.92,9.081 	"/>
</g>
</svg>
