<svg xmlns="http://www.w3.org/2000/svg" width="155.99" height="38.347" viewBox="8.512 0 155.99 38.347"><path d="M38.426 6.538c.309.195.667.308 1.155.308.646 0 1.178-.33 1.178-1.073 0-1.028-2.4-1.156-2.4-2.529 0-.84.734-1.366 1.659-1.366.255 0 .667.038 1.027.172l-.083.473c-.231-.128-.601-.195-.953-.195-.54 0-1.133.225-1.133.9 0 1.051 2.401 1.058 2.401 2.589 0 1.058-.908 1.478-1.718 1.478-.511 0-.908-.105-1.187-.225l.054-.532zm6.918-2.65a2.182 2.182 0 0 0-.817-.195c-.923 0-1.441.668-1.441 1.598 0 .871.525 1.599 1.388 1.599.301 0 .578-.068.863-.173l.045.443c-.322.112-.623.135-.982.135-1.231 0-1.831-.938-1.831-2.003 0-1.178.758-2.003 1.891-2.003.458 0 .788.105.923.15l-.039.449zm1.426-2.311h.473v2.446h.015c.203-.42.63-.735 1.193-.735 1.028 0 1.306.683 1.306 1.628v2.289h-.473V4.924c0-.66-.127-1.23-.908-1.23-.84 0-1.133.795-1.133 1.463v2.048h-.473V1.577zm8.69 5.629h-.57l-1.043-3.309h-.015l-1.043 3.309h-.57L50.99 3.379h.518l1.005 3.31h.016l1.064-3.31h.57l1.013 3.31h.016l1.058-3.31h.473L55.46 7.206zm5.057-.121c-.33.135-.759.21-1.111.21-1.269 0-1.741-.855-1.741-2.003 0-1.17.646-2.003 1.613-2.003 1.081 0 1.522.871 1.522 1.898v.24h-2.618c0 .811.436 1.463 1.261 1.463.345 0 .848-.143 1.073-.285l.001.48zm-.233-2.063c0-.668-.271-1.328-.975-1.328-.698 0-1.126.698-1.126 1.328h2.101zm2.476-2.664h-.473v-.63h.473v.63zm-.472 1.02h.473v3.827h-.473V3.378zm1.899 3.43l2.304-3.024h-2.214v-.405h2.761v.405l-2.303 3.017h2.303v.405h-2.851v-.398zm6.835.277c-.33.135-.759.21-1.111.21-1.268 0-1.741-.855-1.741-2.003 0-1.17.646-2.003 1.613-2.003 1.081 0 1.522.871 1.522 1.898v.24h-2.618c0 .811.436 1.463 1.261 1.463.345 0 .848-.143 1.073-.285l.001.48zm-.233-2.063c0-.668-.27-1.328-.975-1.328-.698 0-1.126.698-1.126 1.328h2.101zm2.004-.788c0-.42 0-.578-.03-.855h.474v.735h.015c.173-.427.496-.825.983-.825.111 0 .248.022.33.045v.496a1.255 1.255 0 0 0-.346-.045c-.75 0-.952.841-.952 1.531v1.891h-.474V4.234zm3.557-1.876h-.474v-.63h.474v.63zm-.473 1.02h.474v3.827h-.474V3.378zm1.959 3.272c.285.143.63.24.998.24.45 0 .849-.248.849-.683 0-.908-1.839-.765-1.839-1.876 0-.758.615-1.043 1.246-1.043.203 0 .608.045.945.173l-.045.414a2.225 2.225 0 0 0-.848-.18c-.488 0-.826.15-.826.638 0 .713 1.883.623 1.883 1.876 0 .811-.758 1.088-1.335 1.088-.368 0-.735-.045-1.073-.18l.045-.467zm6.287-2.762a2.183 2.183 0 0 0-.818-.195c-.923 0-1.44.668-1.44 1.598 0 .871.524 1.599 1.388 1.599.3 0 .578-.068.863-.173l.044.443c-.323.112-.623.135-.983.135-1.23 0-1.831-.938-1.831-2.003 0-1.178.759-2.003 1.892-2.003.458 0 .788.105.923.15l-.038.449zm1.426-2.311h.474v2.446h.015c.203-.42.63-.735 1.193-.735 1.027 0 1.306.683 1.306 1.628v2.289h-.473V4.924c0-.66-.127-1.23-.908-1.23-.839 0-1.132.795-1.132 1.463v2.048h-.474V1.577zm7.323 5.508c-.33.135-.758.21-1.111.21-1.268 0-1.74-.855-1.74-2.003 0-1.17.646-2.003 1.612-2.003 1.081 0 1.523.871 1.523 1.898v.24h-2.619c0 .811.437 1.463 1.261 1.463.346 0 .849-.143 1.073-.285l.001.48zm-.233-2.063c0-.668-.27-1.328-.975-1.328-.698 0-1.126.698-1.126 1.328h2.101zm4.503-3.055h2.565v.45h-2.048v1.869h1.943v.45h-1.943v2.019h2.139v.45h-2.656V1.967zm4.758.391h-.474v-.63h.474v.63zm-.474 1.02h.474v3.827h-.474V3.378zm5.283 3.828h-.473v-.609h-.016c-.255.488-.646.698-1.192.698-1.05 0-1.576-.87-1.576-2.003 0-1.163.45-2.003 1.576-2.003.75 0 1.125.548 1.192.735h.016V1.579h.473v5.627zm-1.605-.316c.84 0 1.133-.901 1.133-1.599s-.292-1.598-1.133-1.598c-.9 0-1.134.855-1.134 1.598-.001.744.232 1.599 1.134 1.599zm6.362 0c0 1.065-.479 1.936-1.793 1.936-.503 0-.96-.143-1.155-.203l.037-.473c.292.15.714.271 1.125.271 1.217 0 1.321-.886 1.321-1.966h-.015c-.255.555-.675.75-1.163.75-1.223 0-1.613-1.065-1.613-1.914 0-1.163.45-2.003 1.576-2.003.51 0 .84.067 1.193.525h.015v-.436h.473l-.001 3.513zm-1.636-.09c.855 0 1.163-.811 1.163-1.508 0-.923-.27-1.598-1.133-1.598-.9 0-1.133.855-1.133 1.598.001.75.301 1.508 1.103 1.508zm5.928.285c-.33.135-.758.21-1.11.21-1.269 0-1.741-.855-1.741-2.003 0-1.17.646-2.003 1.613-2.003 1.081 0 1.522.871 1.522 1.898v.24h-2.619c0 .811.437 1.463 1.262 1.463.345 0 .848-.143 1.072-.285l.001.48zm-.232-2.063c0-.668-.271-1.328-.976-1.328-.697 0-1.126.698-1.126 1.328h2.102zm2.004-.743c0-.293 0-.593-.03-.901h.458v.683h.015c.157-.345.442-.773 1.238-.773.946 0 1.307.63 1.307 1.471v2.446h-.474V4.879c0-.72-.255-1.186-.908-1.186-.862 0-1.133.758-1.133 1.396v2.116h-.473V4.279zm6.25-.99c1.238 0 1.786.96 1.786 2.003s-.548 2.003-1.786 2.003-1.786-.96-1.786-2.003.548-2.003 1.786-2.003zm0 3.601c.826 0 1.268-.713 1.268-1.599 0-.885-.441-1.598-1.268-1.598-.825 0-1.269.713-1.269 1.598 0 .886.443 1.599 1.269 1.599zm2.971-.24c.285.143.63.24.998.24.45 0 .848-.248.848-.683 0-.908-1.838-.765-1.838-1.876 0-.758.615-1.043 1.246-1.043.203 0 .608.045.945.173l-.045.413a2.225 2.225 0 0 0-.848-.18c-.488 0-.826.15-.826.638 0 .713 1.884.623 1.884 1.876 0 .811-.758 1.088-1.336 1.088-.368 0-.735-.045-1.073-.18l.045-.466zm3.504 0c.285.143.63.24.998.24.45 0 .849-.248.849-.683 0-.908-1.839-.765-1.839-1.876 0-.758.615-1.043 1.246-1.043.203 0 .608.045.945.173l-.045.413a2.225 2.225 0 0 0-.848-.18c-.488 0-.826.15-.826.638 0 .713 1.884.623 1.884 1.876 0 .811-.758 1.088-1.336 1.088-.368 0-.735-.045-1.073-.18l.045-.466zm6.363.435c-.33.135-.758.21-1.111.21-1.268 0-1.74-.855-1.74-2.003 0-1.17.646-2.003 1.612-2.003 1.081 0 1.523.871 1.523 1.898v.24h-2.619c0 .811.436 1.463 1.261 1.463.346 0 .849-.143 1.073-.285l.001.48zm-.233-2.063c0-.668-.27-1.328-.975-1.328-.698 0-1.126.698-1.126 1.328h2.101zm2.004-.743c0-.293 0-.593-.029-.901h.458v.683h.015c.157-.345.442-.773 1.238-.773.946 0 1.306.63 1.306 1.471v2.446h-.473V4.879c0-.72-.255-1.186-.908-1.186-.863 0-1.133.758-1.133 1.396v2.116h-.474V4.279zm4.466 2.371c.284.143.63.24.998.24.449 0 .848-.248.848-.683 0-.908-1.838-.765-1.838-1.876 0-.758.615-1.043 1.246-1.043.203 0 .607.045.944.173l-.045.413a2.225 2.225 0 0 0-.848-.18c-.488 0-.826.15-.826.638 0 .713 1.884.623 1.884 1.876 0 .811-.758 1.088-1.336 1.088-.367 0-.734-.045-1.072-.18l.045-.466zm6.288-2.762c-.256-.112-.563-.195-.818-.195-.923 0-1.441.668-1.441 1.598 0 .871.525 1.599 1.389 1.599.3 0 .578-.068.862-.173l.045.443c-.322.112-.622.135-.982.135-1.231 0-1.831-.938-1.831-2.003 0-1.178.758-2.003 1.891-2.003.458 0 .788.105.923.15l-.038.449zm1.425-2.311h.473v2.446h.015a1.3 1.3 0 0 1 1.193-.735c1.028 0 1.306.683 1.306 1.628v2.289h-.473V4.924c0-.66-.128-1.23-.908-1.23-.84 0-1.133.795-1.133 1.463v2.048h-.473V1.577zm6.956 5.013h-.016c-.21.458-.742.705-1.216.705-1.088 0-1.261-.735-1.261-1.081 0-1.283 1.366-1.343 2.355-1.343h.091v-.195c0-.653-.232-.983-.87-.983-.397 0-.772.09-1.126.315V3.55a3.01 3.01 0 0 1 1.126-.263c.944 0 1.343.428 1.343 1.426v1.689c0 .308 0 .54.038.803h-.466l.002-.615zm-.045-1.313h-.136c-.817 0-1.793.083-1.793.923 0 .502.359.69.795.69 1.11 0 1.134-.968 1.134-1.381v-.232zm2.506-1.494h-.772v-.405h.772v-.277c0-.803.029-1.613 1.014-1.613.149 0 .354.022.442.075l-.03.413a.832.832 0 0 0-.375-.083c-.646 0-.578.698-.578 1.155v.33h.863v.405h-.863v3.422h-.473V3.783zm4.412 0h-.87V6.26c0 .345.128.63.511.63.18 0 .3-.038.435-.09l.03.39a1.718 1.718 0 0 1-.578.105c-.84 0-.87-.578-.87-1.275V3.784h-.75v-.405h.75v-.922l.474-.165V3.38h.87l-.002.403zm-122.294 9.12c-.33-.172-.804-.225-1.171-.225-1.358 0-2.124.96-2.124 2.259 0 1.32.742 2.258 2.124 2.258.345 0 .87-.045 1.171-.225l.029.45c-.285.173-.87.225-1.2.225-1.651 0-2.642-1.088-2.642-2.708 0-1.591 1.021-2.709 2.642-2.709.308 0 .931.053 1.2.195l-.029.48zm3.249.735c1.237 0 1.785.96 1.785 2.003s-.548 2.003-1.785 2.003c-1.238 0-1.786-.96-1.786-2.003s.548-2.003 1.786-2.003zm0 3.602c.825 0 1.268-.713 1.268-1.599 0-.885-.442-1.598-1.268-1.598s-1.269.713-1.269 1.598c.001.886.444 1.599 1.269 1.599zm3.264-2.611c0-.293 0-.593-.03-.901h.458v.683h.016c.156-.345.441-.773 1.237-.773.946 0 1.307.63 1.307 1.471v2.446h-.474v-2.326c0-.72-.255-1.186-.908-1.186-.862 0-1.133.758-1.133 1.396v2.116h-.473v-2.926zm5.08-.496h-.773v-.405h.773v-.277c0-.803.03-1.613 1.013-1.613.15 0 .354.022.443.075l-.03.413a.832.832 0 0 0-.375-.083c-.645 0-.578.698-.578 1.155v.33h.863v.405h-.863v3.422h-.473v-3.422zm5.328 3.303c-.33.135-.758.21-1.111.21-1.268 0-1.741-.855-1.741-2.003 0-1.17.646-2.003 1.613-2.003 1.081 0 1.523.871 1.523 1.898v.24h-2.619c0 .811.436 1.463 1.261 1.463.345 0 .848-.143 1.073-.285l.001.48zm-.233-2.063c0-.668-.27-1.328-.975-1.328-.698 0-1.126.698-1.126 1.328h2.101zm-.787-3.123h.593l-.944 1.081h-.345l.696-1.081zm5.822 5.305h-.473v-.608h-.016c-.255.488-.646.698-1.192.698-1.051 0-1.576-.87-1.576-2.003 0-1.163.45-2.003 1.576-2.003.75 0 1.125.548 1.192.735h.016v-2.446h.473v5.627zm-1.607-.315c.841 0 1.134-.901 1.134-1.599s-.292-1.598-1.134-1.598c-.899 0-1.133.855-1.133 1.598.001.744.234 1.599 1.133 1.599zm5.899.196c-.33.135-.758.21-1.111.21-1.268 0-1.74-.855-1.74-2.003 0-1.17.646-2.003 1.612-2.003 1.081 0 1.523.871 1.523 1.898v.24h-2.619c0 .811.436 1.463 1.261 1.463.345 0 .849-.143 1.073-.285l.001.48zm-.233-2.063c0-.668-.27-1.328-.975-1.328-.698 0-1.126.698-1.126 1.328h2.101zm-.788-3.123h.594l-.946 1.081H66.4l.697-1.081zm2.791 2.334c0-.42 0-.578-.029-.855h.473v.736h.015c.174-.428.496-.826.983-.826.112 0 .248.022.33.045v.496a1.242 1.242 0 0 0-.345-.045c-.75 0-.953.84-.953 1.531v1.891h-.474v-2.973zm5.284 2.356h-.015c-.21.458-.743.705-1.216.705-1.088 0-1.261-.735-1.261-1.081 0-1.283 1.366-1.343 2.356-1.343h.09v-.195c0-.653-.232-.983-.871-.983-.397 0-.772.09-1.125.315V13.9a3.004 3.004 0 0 1 1.125-.263c.945 0 1.344.428 1.344 1.426v1.688c0 .308 0 .54.037.803h-.465v-.614zm-.045-1.313h-.135c-.818 0-1.793.083-1.793.923 0 .502.36.69.795.69 1.11 0 1.133-.968 1.133-1.381v-.232zm3.834-1.494h-.871v2.477c0 .345.128.63.511.63.18 0 .3-.038.436-.09l.03.39a1.729 1.729 0 0 1-.578.105c-.84 0-.871-.578-.871-1.275v-2.236h-.75v-.405h.75v-.923l.473-.165v1.088h.871v.404zm1.906-1.425h-.473v-.63h.473v.63zm-.473 1.021h.473v3.827h-.473v-3.827zm3.743-.091c1.238 0 1.786.96 1.786 2.003s-.548 2.003-1.786 2.003c-1.237 0-1.785-.96-1.785-2.003s.548-2.003 1.785-2.003zm0 3.602c.826 0 1.269-.713 1.269-1.599 0-.885-.442-1.598-1.269-1.598-.824 0-1.268.713-1.268 1.598.001.886.444 1.599 1.268 1.599zm3.265-2.611c0-.293 0-.593-.03-.901h.458v.683h.015c.157-.345.442-.773 1.238-.773.946 0 1.306.63 1.306 1.471v2.446h-.473v-2.326c0-.72-.255-1.186-.908-1.186-.862 0-1.133.758-1.133 1.396v2.116h-.473v-2.926zM94.463 17c.285.143.63.24.998.24.45 0 .849-.248.849-.683 0-.908-1.839-.765-1.839-1.876 0-.758.615-1.043 1.246-1.043.203 0 .608.045.945.172l-.045.413a2.225 2.225 0 0 0-.848-.18c-.488 0-.826.15-.826.638 0 .713 1.884.623 1.884 1.876 0 .811-.758 1.088-1.336 1.088-.368 0-.735-.045-1.073-.18l.045-.465zm6.783-.345c0 .292 0 .593.03.9h-.458v-.683h-.016c-.157.345-.442.772-1.237.772-.945 0-1.307-.63-1.307-1.471v-2.446h.474v2.326c0 .721.255 1.186.908 1.186.862 0 1.133-.758 1.133-1.396v-2.116h.473v2.928zm2.244-3.947h-.473v-.63h.473v.63zm-.472 1.021h.473v3.827h-.473v-3.827zM104.976 17c.284.143.63.24.998.24.449 0 .848-.248.848-.683 0-.908-1.838-.765-1.838-1.876 0-.758.615-1.043 1.246-1.043.203 0 .607.045.944.172l-.045.413a2.225 2.225 0 0 0-.848-.18c-.488 0-.826.15-.826.638 0 .713 1.883.623 1.883 1.876 0 .811-.758 1.088-1.335 1.088-.368 0-.734-.045-1.073-.18l.046-.465zm3.505 0c.285.143.63.24.998.24.449 0 .848-.248.848-.683 0-.908-1.838-.765-1.838-1.876 0-.758.615-1.043 1.246-1.043.203 0 .607.045.944.172l-.045.413a2.225 2.225 0 0 0-.848-.18c-.488 0-.826.15-.826.638 0 .713 1.884.623 1.884 1.876 0 .811-.758 1.088-1.336 1.088-.367 0-.734-.045-1.072-.18l.045-.465zm6.361.436c-.33.135-.758.21-1.11.21-1.269 0-1.741-.855-1.741-2.003 0-1.17.646-2.003 1.613-2.003 1.081 0 1.522.871 1.522 1.898v.24h-2.619c0 .811.437 1.463 1.262 1.463.345 0 .848-.143 1.072-.285l.001.48zm-.232-2.063c0-.668-.271-1.328-.976-1.328-.697 0-1.126.698-1.126 1.328h2.102zm-72.507 7.88c-.33-.172-.804-.225-1.171-.225-1.358 0-2.124.96-2.124 2.26 0 1.319.742 2.258 2.124 2.258.345 0 .87-.045 1.171-.226l.029.45c-.285.173-.87.225-1.2.225-1.651 0-2.642-1.088-2.642-2.707 0-1.592 1.021-2.709 2.642-2.709.308 0 .931.051 1.2.194l-.029.48zm3.249.735c1.237 0 1.785.96 1.785 2.003s-.548 2.003-1.785 2.003c-1.238 0-1.786-.96-1.786-2.003s.548-2.003 1.786-2.003zm0 3.603c.825 0 1.268-.713 1.268-1.6 0-.885-.442-1.598-1.268-1.598s-1.269.713-1.269 1.598c.001.887.444 1.6 1.269 1.6zm3.264-2.612c0-.293 0-.594-.03-.9h.458v.682h.016c.156-.344.441-.772 1.237-.772.946 0 1.307.63 1.307 1.472v2.445h-.474V25.58c0-.72-.255-1.186-.908-1.186-.862 0-1.133.758-1.133 1.396v2.115h-.473v-2.926zm5.08-.495h-.773v-.405h.773v-.277c0-.803.03-1.612 1.013-1.612.15 0 .354.022.443.075l-.03.412a.832.832 0 0 0-.375-.082c-.645 0-.578.697-.578 1.154v.33h.863v.405h-.863v3.422h-.473v-3.422zm5.328 3.301c-.33.136-.758.21-1.111.21-1.268 0-1.741-.855-1.741-2.003 0-1.17.646-2.003 1.613-2.003 1.081 0 1.523.871 1.523 1.898v.24h-2.619c0 .811.436 1.463 1.261 1.463.345 0 .848-.144 1.073-.285l.001.48zm-.233-2.063c0-.668-.27-1.327-.975-1.327-.698 0-1.126.698-1.126 1.327h2.101zm5.035 2.183h-.473v-.607h-.016c-.255.487-.646.697-1.192.697-1.051 0-1.576-.869-1.576-2.003 0-1.163.45-2.003 1.576-2.003.75 0 1.125.549 1.192.734h.016v-2.445h.473v5.627zm-1.607-.314c.841 0 1.134-.901 1.134-1.6 0-.697-.292-1.598-1.134-1.598-.899 0-1.133.855-1.133 1.598.001.744.234 1.6 1.133 1.6zm5.899.194c-.33.136-.758.21-1.111.21-1.268 0-1.74-.855-1.74-2.003 0-1.17.646-2.003 1.612-2.003 1.081 0 1.523.871 1.523 1.898v.24h-2.619c0 .811.436 1.463 1.261 1.463.345 0 .849-.144 1.073-.285l.001.48zm-.233-2.063c0-.668-.27-1.327-.975-1.327-.698 0-1.126.698-1.126 1.327h2.101zm2.003-.787c0-.42 0-.578-.029-.855h.473v.735h.015c.174-.427.496-.825.983-.825.112 0 .248.021.33.045v.496a1.28 1.28 0 0 0-.345-.045c-.75 0-.953.841-.953 1.531v1.891h-.474v-2.973zm5.284 2.355h-.015c-.21.459-.743.705-1.216.705-1.088 0-1.261-.734-1.261-1.08 0-1.283 1.366-1.344 2.356-1.344h.09v-.195c0-.652-.232-.982-.871-.982-.397 0-.772.09-1.125.314v-.457a2.986 2.986 0 0 1 1.125-.264c.945 0 1.344.428 1.344 1.426v1.688c0 .309 0 .541.037.804h-.465v-.615zm-.045-1.312h-.135c-.818 0-1.793.083-1.793.923 0 .502.36.69.795.69 1.11 0 1.133-.969 1.133-1.381v-.232zm1.831 1.531l2.304-3.024h-2.214v-.405h2.762v.405l-2.304 3.017h2.304v.405h-2.852v-.398zm4.742-4.451h-.473v-.629h.473v.629zm-.473 1.021h.473v3.826h-.473v-3.826zm3.743-.091c1.238 0 1.786.96 1.786 2.003s-.548 2.003-1.786 2.003c-1.237 0-1.785-.96-1.785-2.003s.549-2.003 1.785-2.003zm0 3.603c.826 0 1.269-.713 1.269-1.6 0-.885-.442-1.598-1.269-1.598-.824 0-1.268.713-1.268 1.598.001.887.444 1.6 1.268 1.6zm3.265-2.612c0-.293 0-.594-.03-.9h.458v.682h.015c.157-.344.442-.772 1.238-.772.946 0 1.306.63 1.306 1.472v2.445h-.473V25.58c0-.72-.255-1.186-.908-1.186-.862 0-1.133.758-1.133 1.396v2.115h-.473v-2.926zm7.324 2.806a3.12 3.12 0 0 1-1.111.21c-1.269 0-1.741-.855-1.741-2.003 0-1.17.646-2.003 1.613-2.003 1.081 0 1.522.871 1.522 1.898v.24h-2.618c0 .811.436 1.463 1.261 1.463.345 0 .848-.144 1.073-.285l.001.48zm-.234-2.063c0-.668-.271-1.327-.975-1.327-.698 0-1.126.698-1.126 1.327h2.101zm4.511 1.515c.309.195.667.309 1.155.309.646 0 1.178-.33 1.178-1.074 0-1.027-2.4-1.155-2.4-2.528 0-.84.734-1.366 1.658-1.366.256 0 .667.038 1.028.172l-.083.473c-.231-.127-.601-.194-.953-.194-.54 0-1.133.226-1.133.899 0 1.052 2.401 1.059 2.401 2.59 0 1.058-.908 1.478-1.719 1.478-.51 0-.907-.104-1.186-.225l.054-.534zm5.754.668h-.555l-1.298-3.826h.518l1.059 3.309h.015l1.111-3.309h.495l-1.345 3.826zm3.063-4.847h-.474v-.629h.474v.629zm-.474 1.021h.474v3.826h-.474v-3.826zm1.899 3.43l2.304-3.024h-2.214v-.405h2.761v.405l-2.303 3.017h2.303v.405h-2.851v-.398zm3.917 0l2.304-3.024h-2.214v-.405h2.761v.405l-2.303 3.017h2.303v.405h-2.851v-.398zm6.835.276c-.33.136-.758.21-1.111.21-1.268 0-1.74-.855-1.74-2.003 0-1.17.646-2.003 1.612-2.003 1.081 0 1.523.871 1.523 1.898v.24h-2.619c0 .811.437 1.463 1.261 1.463.346 0 .849-.144 1.073-.285l.001.48zm-.233-2.063c0-.668-.27-1.327-.975-1.327-.698 0-1.126.698-1.126 1.327h2.101zm2.005-.787c0-.42 0-.578-.03-.855h.473v.735h.016c.173-.427.495-.825.982-.825.112 0 .248.021.33.045v.496a1.28 1.28 0 0 0-.345-.045c-.75 0-.953.841-.953 1.531v1.891h-.473v-2.973zm5.282 2.355h-.015c-.21.459-.743.705-1.216.705-1.088 0-1.26-.734-1.26-1.08 0-1.283 1.365-1.344 2.355-1.344h.09v-.195c0-.652-.232-.982-.871-.982-.397 0-.772.09-1.125.314v-.457a2.986 2.986 0 0 1 1.125-.264c.945 0 1.344.428 1.344 1.426v1.688c0 .309 0 .541.038.804h-.466v-.615zm-.045-1.312h-.135c-.818 0-1.793.083-1.793.923 0 .502.36.69.795.69 1.11 0 1.133-.969 1.133-1.381v-.232zm-85.736 7.626c-.33-.173-.804-.226-1.171-.226-1.358 0-2.124.961-2.124 2.26 0 1.32.742 2.258 2.124 2.258.345 0 .87-.045 1.171-.225l.029.449c-.285.174-.87.225-1.2.225-1.651 0-2.642-1.088-2.642-2.707 0-1.592 1.021-2.709 2.642-2.709.308 0 .931.052 1.2.195l-.029.48zm3.249.735c1.237 0 1.785.959 1.785 2.002s-.548 2.004-1.785 2.004c-1.238 0-1.786-.961-1.786-2.004s.548-2.002 1.786-2.002zm0 3.601c.825 0 1.268-.713 1.268-1.6 0-.885-.442-1.598-1.268-1.598s-1.269.713-1.269 1.598c.001.888.444 1.6 1.269 1.6zm3.264-2.611c0-.293 0-.593-.03-.9h.458v.683h.016c.156-.345.441-.772 1.237-.772.946 0 1.307.629 1.307 1.471v2.445h-.474V35.93c0-.719-.255-1.186-.908-1.186-.862 0-1.133.758-1.133 1.396v2.115h-.473v-2.926zm5.08-.496h-.773v-.404h.773v-.277c0-.803.03-1.613 1.013-1.613.15 0 .354.022.443.075l-.03.413a.832.832 0 0 0-.375-.083c-.645 0-.578.698-.578 1.155v.33h.863v.404h-.863v3.422h-.473v-3.422zm5.328 3.303c-.33.135-.758.209-1.111.209-1.268 0-1.741-.854-1.741-2.002 0-1.17.646-2.004 1.613-2.004 1.081 0 1.523.871 1.523 1.898v.24h-2.619c0 .811.436 1.463 1.261 1.463.345 0 .848-.143 1.073-.285l.001.481zm-.233-2.065c0-.668-.27-1.328-.975-1.328-.698 0-1.126.698-1.126 1.328h2.101zm5.035 2.184h-.473v-.607h-.016c-.255.488-.646.697-1.192.697-1.051 0-1.576-.869-1.576-2.002 0-1.164.45-2.004 1.576-2.004.75 0 1.125.549 1.192.735h.016v-2.446h.473v5.627zm-1.607-.315c.841 0 1.134-.9 1.134-1.6 0-.697-.292-1.598-1.134-1.598-.899 0-1.133.855-1.133 1.598.001.745.234 1.6 1.133 1.6zm5.899.196c-.33.135-.758.209-1.111.209-1.268 0-1.74-.854-1.74-2.002 0-1.17.646-2.004 1.612-2.004 1.081 0 1.523.871 1.523 1.898v.24h-2.619c0 .811.436 1.463 1.261 1.463.345 0 .849-.143 1.073-.285l.001.481zm-.233-2.065c0-.668-.27-1.328-.975-1.328-.698 0-1.126.698-1.126 1.328h2.101zm2.003-.788c0-.42 0-.577-.029-.854h.473v.734h.015c.174-.427.496-.824.983-.824.112 0 .248.021.33.045v.496a1.206 1.206 0 0 0-.345-.045c-.75 0-.953.84-.953 1.53v1.892h-.474v-2.974zm5.284 2.357h-.015c-.21.459-.743.705-1.216.705-1.088 0-1.261-.734-1.261-1.08 0-1.283 1.366-1.344 2.356-1.344h.09v-.195c0-.652-.232-.982-.871-.982-.397 0-.772.09-1.125.314v-.457a3.005 3.005 0 0 1 1.125-.264c.945 0 1.344.428 1.344 1.426v1.688c0 .308 0 .54.037.804h-.465v-.615zm-.045-1.314h-.135c-.818 0-1.793.083-1.793.923 0 .502.36.69.795.69 1.11 0 1.133-.968 1.133-1.382v-.231zm1.831 1.532l2.304-3.023h-2.214v-.406h2.762v.406l-2.304 3.016h2.304v.406h-2.852v-.399zm4.742-4.451h-.473v-.63h.473v.63zm-.473 1.022h.473v3.826h-.473v-3.826zm5.237 2.926c0 .292 0 .593.03.899h-.458v-.683h-.014c-.158.345-.443.772-1.238.772-.945 0-1.306-.631-1.306-1.471v-2.447h.473v2.326c0 .721.255 1.187.908 1.187.862 0 1.133-.759 1.133-1.396v-2.117h.473l-.001 2.93zm1.771-2.026c0-.293 0-.593-.03-.9h.458v.683h.015c.157-.345.442-.772 1.238-.772.946 0 1.306.629 1.306 1.471v2.445h-.473V35.93c0-.719-.255-1.186-.908-1.186-.862 0-1.133.758-1.133 1.396v2.115h-.473v-2.926zm7.06 2.371c.285.143.63.24.998.24.45 0 .849-.248.849-.684 0-.908-1.839-.765-1.839-1.875 0-.758.615-1.043 1.246-1.043.203 0 .608.045.945.172l-.045.414a2.227 2.227 0 0 0-.848-.181c-.488 0-.826.15-.826.638 0 .713 1.883.623 1.883 1.877 0 .811-.758 1.088-1.335 1.088-.368 0-.735-.045-1.073-.18l.045-.466zm5.125.555h-.555l-1.298-3.826h.518l1.059 3.31h.015l1.111-3.31h.494l-1.344 3.826zm3.063-4.848h-.474v-.63h.474v.63zm-.474 1.022h.474v3.826h-.474v-3.826zm1.899 3.429l2.304-3.023h-2.214v-.406h2.761v.406l-2.303 3.016h2.303v.406h-2.851v-.399zm4.269-2.575c0-.42 0-.577-.029-.854h.473v.734h.015c.174-.427.496-.824.983-.824.112 0 .248.021.33.045v.496a1.206 1.206 0 0 0-.345-.045c-.75 0-.953.84-.953 1.53v1.892h-.474v-2.974zm5.283 2.357h-.015c-.21.459-.743.705-1.216.705-1.088 0-1.261-.734-1.261-1.08 0-1.283 1.366-1.344 2.356-1.344h.09v-.195c0-.652-.232-.982-.871-.982-.397 0-.772.09-1.125.314v-.457a3.005 3.005 0 0 1 1.125-.264c.945 0 1.343.428 1.343 1.426v1.688c0 .308 0 .54.038.804h-.465v-.615zm-.045-1.314h-.135c-.818 0-1.793.083-1.793.923 0 .502.359.69.795.69 1.11 0 1.133-.968 1.133-1.382v-.231z"/><path fill="#E30613" d="M29.778 1.737S25.809-.001 19.165-.001h-.002C12.518 0 8.549 1.737 8.549 1.737S8.194 9.433 9.7 13.785c2.661 7.651 9.462 9.802 9.462 9.802h.004s6.8-2.149 9.462-9.802c1.506-4.351 1.15-12.048 1.15-12.048z"/><path fill="#FFF" d="M26.217 8.373v4.239H21.27v4.949h-4.24v-4.949h-4.947V8.373h4.947V3.426h4.239l.001 4.947z"/></svg>