<svg width="24" height="24" viewBox="0 0 24 24" fill="none" xmlns="http://www.w3.org/2000/svg">
<g id="Icon/CheckmarkCircle">
<g id="Vector">
<path d="M10.7718 16.443L7.46888 13.141L7.99988 12.61L10.7718 15.383L17.1538 9L17.6848 9.531L10.7718 16.443Z" fill="#065F46"/>
<path d="M12.375 4.0835C10.735 4.0833 9.13172 4.56945 7.76797 5.48046C6.40423 6.39148 5.34127 7.68644 4.71351 9.20159C4.08576 10.7167 3.92141 12.384 4.24124 13.9926C4.56108 15.6011 5.35073 17.0787 6.51035 18.2385C7.66997 19.3982 9.14746 20.1881 10.756 20.5081C12.3645 20.8281 14.0318 20.664 15.547 20.0364C17.0622 19.4088 18.3573 18.346 19.2685 16.9824C20.1797 15.6188 20.666 14.0155 20.666 12.3755C20.6636 10.1773 19.7893 8.06973 18.235 6.51524C16.6807 4.96076 14.5733 4.08623 12.375 4.0835ZM12.375 19.9175C10.8833 19.9176 9.42513 19.4753 8.18479 18.6467C6.94445 17.818 5.97769 16.6402 5.40678 15.262C4.83587 13.8839 4.68644 12.3675 4.97739 10.9044C5.26835 9.44139 5.98661 8.09749 7.04136 7.04267C8.09611 5.98786 9.43996 5.2695 10.903 4.97845C12.366 4.6874 13.8825 4.83673 15.2606 5.40755C16.6388 5.97837 17.8167 6.94505 18.6454 8.18533C19.4742 9.42562 19.9165 10.8838 19.9165 12.3755C19.9142 14.375 19.1189 16.2919 17.7051 17.7057C16.2913 19.1196 14.3745 19.915 12.375 19.9175Z" fill="#065F46"/>
</g>
</g>
</svg>
