<svg width="20" height="20" viewBox="0 0 20 20" fill="none" xmlns="http://www.w3.org/2000/svg">
<path id="Vector" fill-rule="evenodd" clip-rule="evenodd" d="M10 0.246582C4.475 0.246582 0 4.72158 0 10.2466C0 14.6716 2.8625 18.4091 6.8375 19.7341C7.3375 19.8216 7.525 19.5216 7.525 19.2591C7.525 19.0216 7.5125 18.2341 7.5125 17.3966C5 17.8591 4.35 16.7841 4.15 16.2216C4.0375 15.9341 3.55 15.0466 3.125 14.8091C2.775 14.6216 2.275 14.1591 3.1125 14.1466C3.9 14.1341 4.4625 14.8716 4.65 15.1716C5.55 16.6841 6.9875 16.2591 7.5625 15.9966C7.65 15.3466 7.9125 14.9091 8.2 14.6591C5.975 14.4091 3.65 13.5466 3.65 9.72158C3.65 8.63408 4.0375 7.73408 4.675 7.03408C4.575 6.78408 4.225 5.75908 4.775 4.38408C4.775 4.38408 5.6125 4.12158 7.525 5.40908C8.325 5.18408 9.175 5.07158 10.025 5.07158C10.875 5.07158 11.725 5.18408 12.525 5.40908C14.4375 4.10908 15.275 4.38408 15.275 4.38408C15.825 5.75908 15.475 6.78408 15.375 7.03408C16.0125 7.73408 16.4 8.62158 16.4 9.72158C16.4 13.5591 14.0625 14.4091 11.8375 14.6591C12.2 14.9716 12.5125 15.5716 12.5125 16.5091C12.5125 17.8466 12.5 18.9216 12.5 19.2591C12.5 19.5216 12.6875 19.8341 13.1875 19.7341C17.1375 18.4091 20 14.6591 20 10.2466C20 4.72158 15.525 0.246582 10 0.246582Z" fill="#1B1F23"/>
</svg>
