<svg width="24" height="24" viewBox="0 0 24 24" fill="none" xmlns="http://www.w3.org/2000/svg">
<g id="Icon/Stop">
<path id="Vector" d="M11.561 20.6489C10.2669 20.7086 8.98027 20.4224 7.83348 19.8198C6.05855 18.5425 5.62935 9.895 5.58638 8.91357C5.56303 8.61555 5.64608 8.31891 5.82079 8.07635C5.99549 7.83379 6.25054 7.66103 6.5406 7.58876C6.83066 7.51649 7.13695 7.54939 7.40504 7.68163C7.67312 7.81386 7.88565 8.03686 8.00484 8.311L7.94917 6.48291C7.92388 6.15078 8.03079 5.82211 8.24664 5.56843C8.46249 5.31475 8.76981 5.15659 9.1017 5.12839C9.43359 5.10018 9.76318 5.20421 10.0187 5.41783C10.2743 5.63145 10.4352 5.93737 10.4663 6.269L10.6411 7.6899L10.8579 5.3159C10.8658 4.99038 11.002 4.68117 11.2368 4.45554C11.4777 4.22403 11.7991 4.09517 12.1333 4.09617C12.4681 4.10006 12.7877 4.23664 13.022 4.47594C13.2562 4.71523 13.386 5.03768 13.3828 5.37254L13.3437 7.53754L13.5503 6.6684C13.6081 6.34141 13.7925 6.05038 14.0634 5.85835C14.3343 5.66631 14.6699 5.58873 14.9976 5.64242C15.3253 5.6961 15.6187 5.87673 15.8141 6.14516C16.0096 6.4136 16.0915 6.74824 16.042 7.0766L15.0571 14.9487C15.0572 14.9987 15.0675 15.0482 15.0874 15.0942C15.166 15.1093 15.2475 15.0983 15.3193 15.0629L16.7978 12.6518C16.9521 12.3641 17.2141 12.1493 17.5263 12.0541C17.7647 11.9794 18.0199 11.977 18.2596 12.0473C18.4993 12.1175 18.7128 12.2573 18.8731 12.4489C19.0334 12.6404 19.1334 12.8752 19.1603 13.1236C19.1872 13.3719 19.1399 13.6227 19.0243 13.8441C18.9584 13.9613 17.5331 16.5033 16.954 17.3295C16.1637 18.4638 15.172 19.4435 14.0282 20.2201C13.2462 20.5386 12.4047 20.6848 11.561 20.6489ZM6.84712 8.30029C6.83052 8.30029 6.81392 8.30129 6.79732 8.30224C6.73018 8.30857 6.66494 8.32806 6.60534 8.35961C6.54573 8.39116 6.49293 8.43415 6.44994 8.48611C6.40695 8.53808 6.37463 8.59801 6.35481 8.66247C6.33499 8.72693 6.32807 8.79467 6.33443 8.86181C6.49214 12.4487 7.15669 18.4087 8.27193 19.2104C9.97074 19.9994 11.9039 20.1214 13.6884 19.5522C14.7224 18.8315 15.6202 17.9328 16.3398 16.898C16.8979 16.104 18.3501 13.5132 18.3647 13.4869C18.4245 13.3666 18.4346 13.2277 18.393 13.1C18.3513 12.9723 18.2612 12.8661 18.142 12.8042C18.0826 12.7725 18.0174 12.753 17.9502 12.7471C17.8831 12.7413 17.8155 12.749 17.7514 12.77C17.687 12.7899 17.6272 12.8224 17.5754 12.8656C17.5237 12.9089 17.4811 12.962 17.4502 13.0219L15.9233 15.5132C15.9009 15.5496 15.8725 15.582 15.8393 15.6089C15.7044 15.7209 15.5432 15.7967 15.371 15.8294C15.1987 15.862 15.021 15.8503 14.8544 15.7954C14.6721 15.7274 14.5186 15.5988 14.4197 15.4312C14.3207 15.2635 14.2824 15.067 14.311 14.8745L15.2993 6.9741C15.3107 6.90621 15.3083 6.83673 15.2923 6.76979C15.2762 6.70284 15.2469 6.63981 15.206 6.58445C15.1663 6.52988 15.1161 6.48381 15.0583 6.44893C15.0005 6.41405 14.9363 6.39106 14.8696 6.38133C14.7352 6.36125 14.5984 6.39518 14.4889 6.47569C14.3795 6.5562 14.3064 6.67675 14.2856 6.81101L13.2709 11.0864C13.2495 11.1764 13.1956 11.2553 13.1196 11.3079C13.0435 11.3606 12.9507 11.3832 12.859 11.3716C12.7672 11.36 12.683 11.3149 12.6225 11.2449C12.562 11.175 12.5295 11.0851 12.5312 10.9926L12.6327 5.36179C12.6334 5.22618 12.5804 5.09583 12.4852 4.99921C12.39 4.9026 12.2605 4.84757 12.1249 4.84617C11.9913 4.85499 11.864 4.90594 11.7612 4.99168C11.7126 5.03881 11.674 5.0951 11.6474 5.1573C11.6208 5.21949 11.6069 5.28635 11.6064 5.35398L11.0693 11.2426C11.0607 11.3348 11.0184 11.4205 10.9506 11.4834C10.8827 11.5463 10.7941 11.5819 10.7016 11.5835C10.6103 11.5807 10.5228 11.5464 10.4539 11.4864C10.385 11.4264 10.339 11.3444 10.3237 11.2544L9.72065 6.35008C9.71535 6.28094 9.69619 6.21359 9.66432 6.15201C9.63244 6.09044 9.5885 6.03591 9.5351 5.99168C9.4294 5.90715 9.29553 5.86596 9.16059 5.87644C9.09345 5.88277 9.02821 5.90226 8.96861 5.93381C8.909 5.96536 8.8562 6.00835 8.81321 6.06031C8.77022 6.11228 8.7379 6.17221 8.71808 6.23667C8.69826 6.30113 8.69134 6.36887 8.69771 6.43601L8.85639 11.6577C8.85919 11.75 8.82785 11.8401 8.76837 11.9107C8.70889 11.9813 8.62546 12.0275 8.53404 12.0404C8.44262 12.0534 8.34963 12.0322 8.27289 11.9808C8.19615 11.9295 8.14104 11.8516 8.11811 11.7622L7.36617 8.82275C7.36265 8.74566 7.34367 8.67006 7.31037 8.60044C7.27707 8.53082 7.23013 8.46861 7.17232 8.41748C7.08086 8.34177 6.96586 8.30033 6.84712 8.30029Z" fill="#FF0000"/>
</g>
</svg>
