<svg height="64" width="259" viewBox="0 0 259 64" xmlns="http://www.w3.org/2000/svg"><g clip-rule="evenodd" fill-rule="evenodd"><path d="m49.6 10.9c.5.4 1.1.5 1.9.5 1.1 0 1.9-.5 1.9-1.8 0-1.7-4-1.9-4-4.2 0-1.4 1.2-2.3 2.7-2.3.5 0 1.1.1 1.7.3l-.2.8c-.4-.3-.9-.4-1.6-.4-.9 0-1.9.4-1.9 1.5 0 1.7 4 1.7 4 4.3 0 1.7-1.5 2.5-2.8 2.5-.8 0-1.5-.2-2-.4z"/><path d="m61.1 6.5c-.5-.2-.9-.4-1.4-.4-1.6 0-2.4 1.1-2.4 2.6s.9 2.6 2.3 2.6c.5 0 1-.1 1.5-.3l.1.7c-.5.2-1 .2-1.6.2-2 0-3-1.5-3-3.4 0-2 1.3-3.4 3.1-3.4.7 0 1.3.2 1.6.3z"/><path d="m63.5 2.6h.8v4.1c.4-.7 1-1.2 2-1.2 1.7 0 2.2 1.2 2.2 2.7v3.8h-.8v-3.7c0-1.1-.2-2.1-1.5-2.1-1.4 0-1.9 1.4-1.9 2.5v3.5h-.8z"/><path d="m77.9 12.1h-.9l-1.7-5.5-1.8 5.5h-.9l-2-6.4h.8l1.6 5.5 1.7-5.5h.9l1.6 5.5 1.8-5.5h.8z"/><path d="m85.9 8.5c0-1.1-.5-2.2-1.6-2.2-1.2 0-1.8 1.2-1.8 2.2zm.3 3.3c-.5.2-1.3.4-1.8.4-2.1 0-2.9-1.5-2.9-3.4s1.1-3.4 2.7-3.4c1.8 0 2.6 1.5 2.6 3.2v.4h-4.4c0 1.4.7 2.5 2.1 2.5.5 0 1.4-.3 1.7-.5z"/><path d="m89.2 12.1h.8v-6.4h-.8zm0-8.1h.8v-1.1h-.8z"/><path d="m92.3 11.4 3.8-5h-3.7v-.8h4.6v.6l-3.8 5h3.8v.8h-4.8z"/><path d="m103.3 8.5c0-1.1-.5-2.2-1.6-2.2-1.2 0-1.8 1.2-1.8 2.2zm.4 3.3c-.5.2-1.3.4-1.8.4-2.1 0-2.9-1.5-2.9-3.4s1.1-3.4 2.7-3.4c1.8 0 2.6 1.5 2.6 3.2v.4h-4.4c0 1.4.7 2.5 2.1 2.5.5 0 1.4-.3 1.7-.5z"/><path d="m106.6 7.1c0-.7 0-1-.1-1.5h.8v1.2c.3-.7.8-1.4 1.6-1.4.2 0 .4 0 .5.1v.8c-.2-.1-.4-.1-.5-.1-1.3 0-1.6 1.4-1.6 2.5v3.3h-.8z"/><path d="m111.7 12.1h.8v-6.4h-.8zm0-8.1h.8v-1.1h-.8z"/><path d="m115 11.1c.5.3 1 .4 1.6.4.7 0 1.4-.5 1.4-1.2 0-1.5-3-1.3-3-3.1 0-1.3 1-1.7 2.1-1.7.4 0 1 .1 1.6.3l-.1.7c-.4-.2-1-.3-1.4-.3-.8 0-1.4.3-1.4 1.1 0 1.2 3.1 1 3.1 3.1 0 1.4-1.3 1.8-2.2 1.8-.6 0-1.2-.1-1.7-.3z"/><path d="m125.4 6.5c-.5-.2-.9-.4-1.4-.4-1.6 0-2.4 1.1-2.4 2.6s.9 2.6 2.3 2.6c.5 0 .9-.1 1.5-.3l.1.7c-.5.2-1 .2-1.6.2-2 0-3-1.5-3-3.4 0-2 1.3-3.4 3.1-3.4.7 0 1.3.2 1.6.3z"/><path d="m127.8 2.6h.8v4.1c.4-.7 1-1.2 2-1.2 1.7 0 2.2 1.2 2.2 2.7v3.8h-.8v-3.7c0-1.1-.2-2.1-1.5-2.1-1.4 0-1.9 1.4-1.9 2.5v3.5h-.8z"/><path d="m139.5 8.5c0-1.1-.5-2.2-1.6-2.2-1.2 0-1.8 1.2-1.8 2.2zm.4 3.3c-.5.2-1.3.4-1.8.4-2.1 0-2.9-1.5-2.9-3.4s1.1-3.4 2.7-3.4c1.8 0 2.6 1.5 2.6 3.2v.4h-4.5c0 1.4.7 2.5 2.1 2.5.5 0 1.4-.3 1.7-.5z"/><path d="m147 3.4h4.3v.7h-3.4v3.1h3.2v.7h-3.2v3.4h3.6v.8h-4.4z"/><path d="m154.1 12.1h.8v-6.4h-.8zm0-8.1h.8v-1.1h-.8z"/><path d="m160.2 11.5c1.4 0 1.9-1.5 1.9-2.6 0-1.2-.5-2.6-1.9-2.6s-1.9 1.5-1.9 2.6c.1 1.2.4 2.6 1.9 2.6zm2.6.6h-.8v-1c-.5.8-1.1 1.2-2 1.2-1.7 0-2.7-1.5-2.7-3.4s.7-3.4 2.7-3.4c1.3 0 1.8.9 2 1.2v-4.1h.8z"/><path d="m168 11.4c1.5 0 1.9-1.4 1.9-2.5 0-1.5-.5-2.6-1.9-2.6s-1.9 1.5-1.9 2.6c.1 1.2.6 2.5 1.9 2.5zm2.8.1c0 1.8-.8 3.2-3 3.2-.8 0-1.6-.3-1.9-.4l.1-.8c.5.3 1.2.5 1.8.5 2 0 2.2-1.5 2.2-3.3-.5.9-1.1 1.3-1.9 1.3-2 0-2.7-1.8-2.7-3.2 0-1.9.7-3.4 2.7-3.4.8 0 1.4.1 2 .9v-.7h.8z"/><path d="m177.5 8.5c0-1.1-.5-2.2-1.6-2.2-1.2 0-1.8 1.2-1.8 2.2zm.4 3.3c-.5.2-1.3.4-1.8.4-2.1 0-2.9-1.5-2.9-3.4s1.1-3.4 2.7-3.4c1.8 0 2.6 1.5 2.6 3.2v.4h-4.5c0 1.4.7 2.5 2.1 2.5.5 0 1.4-.3 1.7-.5z"/><path d="m180.8 7.2c0-.5 0-1-.1-1.5h.7v1.2c.3-.5.7-1.3 2-1.3 1.6 0 2.2 1.1 2.2 2.5v4.1h-.8v-4c0-1.2-.5-2-1.5-2-1.5 0-1.9 1.3-1.9 2.4v3.5h-.8v-4.9z"/><path d="m191.2 11.5c1.4 0 2.1-1.2 2.1-2.6 0-1.5-.7-2.6-2.1-2.6s-2.1 1.2-2.1 2.6c0 1.5.7 2.6 2.1 2.6zm0-6c2 0 2.9 1.6 2.9 3.4 0 1.7-.9 3.4-2.9 3.4s-2.9-1.6-2.9-3.4.9-3.4 2.9-3.4z"/><path d="m196.1 11.1c.5.3 1 .4 1.6.4.7 0 1.4-.5 1.4-1.2 0-1.5-3-1.3-3-3.1 0-1.3 1-1.7 2.1-1.7.4 0 1 .1 1.6.3l-.1.7c-.4-.2-1-.3-1.4-.3-.8 0-1.4.3-1.4 1.1 0 1.2 3.1 1 3.1 3.1 0 1.4-1.3 1.8-2.2 1.8-.6 0-1.2-.1-1.7-.3z"/><path d="m202 11.1c.5.3 1 .4 1.6.4.7 0 1.4-.5 1.4-1.2 0-1.5-3-1.3-3-3.1 0-1.3 1-1.7 2.1-1.7.4 0 1 .1 1.6.3l-.1.7c-.4-.2-1-.3-1.4-.3-.8 0-1.4.3-1.4 1.1 0 1.2 3.1 1 3.1 3.1 0 1.4-1.3 1.8-2.2 1.8-.6 0-1.2-.1-1.7-.3z"/><path d="m212.1 8.5c0-1.1-.5-2.2-1.6-2.2-1.2 0-1.8 1.2-1.8 2.2zm.4 3.3c-.5.2-1.3.4-1.8.4-2.1 0-2.9-1.5-2.9-3.4s1.1-3.4 2.7-3.4c1.8 0 2.6 1.5 2.6 3.2v.4h-4.4c0 1.4.7 2.5 2.1 2.5.5 0 1.4-.3 1.7-.5z"/><path d="m215.4 7.2c0-.5 0-1-.1-1.5h.7v1.2c.3-.5.7-1.3 2-1.3 1.6 0 2.2 1.1 2.2 2.5v4.1h-.8v-4c0-1.2-.5-2-1.5-2-1.5 0-1.9 1.3-1.9 2.4v3.5h-.8v-4.9z"/><path d="m222.8 11.1c.5.3 1 .4 1.6.4.7 0 1.4-.5 1.4-1.2 0-1.5-3-1.3-3-3.1 0-1.3 1-1.7 2.1-1.7.4 0 1 .1 1.6.3l-.1.7c-.4-.2-1-.3-1.4-.3-.8 0-1.4.3-1.4 1.1 0 1.2 3.1 1 3.1 3.1 0 1.4-1.3 1.8-2.2 1.8-.6 0-1.2-.1-1.7-.3z"/><path d="m233.2 6.5c-.5-.2-.9-.4-1.4-.4-1.6 0-2.4 1.1-2.4 2.6s.9 2.6 2.3 2.6c.5 0 .9-.1 1.5-.3l.1.7c-.5.2-1 .2-1.6.2-2 0-3-1.5-3-3.4 0-2 1.3-3.4 3.1-3.4.7 0 1.3.2 1.6.3z"/><path d="m235.6 2.6h.8v4.1c.4-.7 1-1.2 2-1.2 1.7 0 2.2 1.2 2.2 2.7v3.8h-.8v-3.7c0-1.1-.2-2.1-1.5-2.1-1.4 0-1.9 1.4-1.9 2.5v3.5h-.8z"/><path d="m247 8.8h-.2c-1.4 0-3 .2-3 1.5 0 .8.6 1.2 1.3 1.2 1.8 0 1.9-1.6 1.9-2.3zm.1 2.2c-.4.7-1.3 1.2-2 1.2-1.8 0-2.1-1.2-2.1-1.8 0-2.2 2.3-2.3 3.9-2.3h.2v-.4c0-1.1-.4-1.6-1.5-1.6-.6 0-1.3.2-1.8.5v-.6c.5-.3 1.3-.5 1.8-.5 1.6 0 2.2.7 2.2 2.4v2.8c0 .5 0 .9.1 1.4h-.7z"/><path d="m251.2 6.4h-1.2v-.8h1.3v-.4c0-1.4.1-2.7 1.6-2.7.3 0 .5 0 .7.1l-.1.7c-.2-.1-.4-.2-.6-.2-1.1 0-.9 1.2-.9 1.9v.5h1.5v.6h-1.5v5.9h-.8z"/><path d="m258.6 6.4h-1.5v4.1c0 .5.2 1.1.8 1.1.3 0 .5-.1.7-.2l.1.6c-.2.1-.5.2-.9.2-1.4 0-1.5-1-1.5-2.1v-3.7h-1.3v-.8h1.3v-1.4l.8-.3v1.8h1.5z"/><path d="m55.7 21.5c-.5-.3-1.4-.4-1.9-.4-2.3 0-3.6 1.6-3.6 3.7 0 2.2 1.2 3.7 3.6 3.7.5 0 1.5-.1 1.9-.4l.1.7c-.5.3-1.5.4-2 .4-2.7 0-4.4-1.8-4.4-4.5 0-2.6 1.7-4.5 4.4-4.5.5 0 1.6.1 2 .4z"/><path d="m61.1 28.8c1.4 0 2.1-1.2 2.1-2.6 0-1.5-.7-2.6-2.1-2.6s-2.1 1.2-2.1 2.6.7 2.6 2.1 2.6zm0-6c2 0 2.9 1.6 2.9 3.4s-.9 3.4-2.9 3.4-2.9-1.6-2.9-3.4.9-3.4 2.9-3.4z"/><path d="m66.6 24.5c0-.5 0-1-.1-1.5h.7v1.2c.3-.5.7-1.3 2-1.3 1.6 0 2.2 1.1 2.2 2.5v4.1h-.8v-3.9c0-1.2-.5-2-1.5-2-1.5 0-1.9 1.3-1.9 2.4v3.5h-.8v-4.9z"/><path d="m75 23.6h-1.3v-.6h1.3v-.5c0-1.4.1-2.7 1.6-2.7.3 0 .5 0 .7.1l-.1.7c-.2-.1-.4-.2-.6-.2-1.1 0-.9 1.2-.9 1.9v.5h1.5v.6h-1.5v5.7h-.7z"/><path d="m82.1 20.5h1l-1.6 1.8h-.5zm1.3 5.1c0-1.1-.5-2.2-1.6-2.2s-1.8 1.2-1.8 2.2zm.3 3.5c-.5.2-1.3.4-1.8.4-2.1 0-2.9-1.5-2.9-3.4s1.1-3.4 2.7-3.4c1.8 0 2.6 1.5 2.6 3.2v.4h-4.4c0 1.4.7 2.5 2.1 2.5.5 0 1.4-.3 1.7-.5z"/><path d="m89.1 28.8c1.4 0 1.9-1.5 1.9-2.6 0-1.2-.5-2.6-1.9-2.6-1.5 0-1.9 1.5-1.9 2.6 0 1.2.4 2.6 1.9 2.6zm2.6.5h-.8v-1c-.5.8-1.1 1.2-2 1.2-1.7 0-2.7-1.5-2.7-3.4s.7-3.4 2.7-3.4c1.3 0 1.8.9 2 1.2v-4.1h.8z"/><path d="m97.2 20.5h1l-1.6 1.8h-.6zm1.3 5.1c0-1.1-.5-2.2-1.6-2.2-1.2 0-1.8 1.2-1.8 2.2zm.3 3.5c-.5.2-1.3.4-1.8.4-2.1 0-2.9-1.5-2.9-3.4s1.1-3.4 2.7-3.4c1.8 0 2.6 1.5 2.6 3.2v.4h-4.4c0 1.4.7 2.5 2.1 2.5.5 0 1.4-.3 1.7-.5z"/><path d="m101.8 24.4c0-.7 0-1-.1-1.5h.8v1.2c.3-.7.8-1.4 1.6-1.4.2 0 .4 0 .5.1v.8c-.2-.1-.4-.1-.5-.1-1.3 0-1.6 1.4-1.6 2.5v3.2h-.8v-4.8z"/><path d="m110.4 26.1h-.2c-1.4 0-3 .2-3 1.5 0 .8.6 1.2 1.3 1.2 1.8 0 1.9-1.6 1.9-2.3zm.1 2.2c-.4.7-1.3 1.2-2 1.2-1.8 0-2.1-1.2-2.1-1.8 0-2.2 2.3-2.3 3.9-2.3h.2v-.4c0-1.1-.4-1.6-1.5-1.6-.6 0-1.3.2-1.8.5v-.7c.5-.3 1.3-.5 1.8-.5 1.6 0 2.2.7 2.2 2.4v2.8c0 .5 0 .9.1 1.4h-.7z"/><path d="m116.8 23.6h-1.5v4.1c0 .5.2 1.1.8 1.1.3 0 .5-.1.7-.2l.1.6c-.2.1-.5.2-.9.2-1.4 0-1.5-1-1.5-2.1v-3.7h-1.3v-.6h1.3v-1.5l.8-.3v1.8h1.5z"/><path d="m119.2 29.3h.8v-6.4h-.8zm0-8.1h.8v-1.1h-.8z"/><path d="m125.4 28.8c1.4 0 2.1-1.2 2.1-2.6 0-1.5-.7-2.6-2.1-2.6s-2.1 1.2-2.1 2.6.8 2.6 2.1 2.6zm0-6c2 0 2.9 1.6 2.9 3.4s-.9 3.4-2.9 3.4-2.9-1.6-2.9-3.4.8-3.4 2.9-3.4z"/><path d="m130.8 24.5c0-.5 0-1-.1-1.5h.7v1.2c.3-.5.7-1.3 2-1.3 1.6 0 2.2 1.1 2.2 2.5v4.1h-.8v-3.9c0-1.2-.5-2-1.5-2-1.5 0-1.9 1.3-1.9 2.4v3.5h-.8v-4.9z"/><path d="m142.5 28.4c.5.3 1 .4 1.6.4.7 0 1.4-.5 1.4-1.2 0-1.5-3-1.3-3-3.1 0-1.3 1-1.7 2.1-1.7.4 0 1 .1 1.6.3l-.1.7c-.4-.2-1-.3-1.4-.3-.8 0-1.4.3-1.4 1.1 0 1.2 3.1 1 3.1 3.1 0 1.4-1.3 1.8-2.2 1.8-.6 0-1.2-.1-1.7-.3z"/><path d="m153.8 27.8c0 .5 0 1 .1 1.5h-.7v-1.2c-.3.5-.7 1.3-2 1.3-1.6 0-2.2-1.1-2.2-2.5v-4.1h.8v3.9c0 1.2.5 2 1.5 2 1.5 0 1.9-1.3 1.9-2.4v-3.5h.8v4.9h-.2z"/><path d="m156.7 29.3h.8v-6.4h-.8zm0-8.1h.8v-1.1h-.8z"/><path d="m160 28.4c.5.3 1 .4 1.6.4.7 0 1.4-.5 1.4-1.2 0-1.5-3-1.3-3-3.1 0-1.3 1-1.7 2.1-1.7.4 0 1 .1 1.6.3l-.1.7c-.4-.2-1-.3-1.4-.3-.8 0-1.4.3-1.4 1.1 0 1.2 3.1 1 3.1 3.1 0 1.4-1.3 1.8-2.2 1.8-.6 0-1.2-.1-1.7-.3z"/><path d="m165.9 28.4c.5.3 1 .4 1.6.4.7 0 1.4-.5 1.4-1.2 0-1.5-3-1.3-3-3.1 0-1.3 1-1.7 2.1-1.7.4 0 1 .1 1.6.3l-.1.7c-.4-.2-1-.3-1.4-.3-.8 0-1.4.3-1.4 1.1 0 1.2 3.1 1 3.1 3.1 0 1.4-1.3 1.8-2.2 1.8-.6 0-1.2-.1-1.7-.3z"/><path d="m176 25.6c0-1.1-.5-2.2-1.6-2.2-1.2 0-1.8 1.2-1.8 2.2zm.4 3.5c-.5.2-1.3.4-1.8.4-2.1 0-2.9-1.5-2.9-3.4s1.1-3.4 2.7-3.4c1.8 0 2.6 1.5 2.6 3.2v.4h-4.4c0 1.4.7 2.5 2.1 2.5.5 0 1.4-.3 1.7-.5z"/><path d="m55.7 38.8c-.5-.3-1.4-.4-1.9-.4-2.3 0-3.6 1.6-3.6 3.7 0 2.2 1.2 3.7 3.6 3.7.5 0 1.5-.1 1.9-.4l.1.7c-.5.3-1.5.4-2 .4-2.7 0-4.4-1.8-4.4-4.5 0-2.6 1.7-4.5 4.4-4.5.5 0 1.6.1 2 .4z"/><path d="m61.1 46c1.4 0 2.1-1.2 2.1-2.6 0-1.5-.7-2.6-2.1-2.6s-2.1 1.2-2.1 2.6.7 2.6 2.1 2.6zm0-6c2 0 2.9 1.6 2.9 3.4 0 1.7-.9 3.4-2.9 3.4s-2.9-1.6-2.9-3.4c-.1-1.8.9-3.4 2.9-3.4z"/><path d="m66.6 41.6c0-.5 0-1-.1-1.5h.7v1.2c.3-.5.7-1.3 2-1.3 1.6 0 2.2 1.1 2.2 2.5v4.1h-.8v-3.9c0-1.2-.5-2-1.5-2-1.5 0-1.9 1.3-1.9 2.4v3.5h-.8v-4.9h.2z"/><path d="m75 40.8h-1.3v-.6h1.3v-.5c0-1.4.1-2.7 1.6-2.7.3 0 .5 0 .7.1l-.1.7c-.2-.1-.4-.2-.6-.2-1.1 0-.9 1.2-.9 1.9v.5h1.5v.6h-1.5v5.7h-.7z"/><path d="m83.4 42.9c0-1.1-.5-2.2-1.6-2.2s-1.8 1.2-1.8 2.2zm.3 3.5c-.5.2-1.3.4-1.8.4-2.1 0-2.9-1.5-2.9-3.4s1.1-3.4 2.7-3.4c1.8 0 2.6 1.5 2.6 3.2v.4h-4.4c0 1.4.7 2.5 2.1 2.5.5 0 1.4-.3 1.7-.5z"/><path d="m89.1 46c1.4 0 1.9-1.5 1.9-2.6 0-1.2-.5-2.6-1.9-2.6-1.5 0-1.9 1.5-1.9 2.6 0 1.2.4 2.6 1.9 2.6zm2.6.5h-.8v-1c-.5.8-1.1 1.2-2 1.2-1.7 0-2.7-1.5-2.7-3.4s.7-3.4 2.7-3.4c1.3 0 1.8.9 2 1.2v-4.1h.8z"/><path d="m98.5 42.9c0-1.1-.5-2.2-1.6-2.2-1.2 0-1.8 1.2-1.8 2.2zm.3 3.5c-.5.2-1.3.4-1.8.4-2.1 0-2.9-1.5-2.9-3.4s1.1-3.4 2.7-3.4c1.8 0 2.6 1.5 2.6 3.2v.4h-4.4c0 1.4.7 2.5 2.1 2.5.5 0 1.4-.3 1.7-.5z"/><path d="m101.8 41.6c0-.7 0-1-.1-1.5h.8v1.2c.3-.7.8-1.4 1.6-1.4.2 0 .4 0 .5.1v.8c-.2-.1-.4-.1-.5-.1-1.3 0-1.6 1.4-1.6 2.5v3.2h-.8v-4.8z"/><path d="m110.4 43.4h-.2c-1.4 0-3 .2-3 1.5 0 .8.6 1.2 1.3 1.2 1.8 0 1.9-1.6 1.9-2.3zm.1 2.1c-.4.7-1.3 1.2-2 1.2-1.8 0-2.1-1.2-2.1-1.8 0-2.2 2.3-2.3 3.9-2.3h.2v-.4c0-1.1-.4-1.6-1.5-1.6-.6 0-1.3.2-1.8.5v-.7c.5-.3 1.3-.5 1.8-.5 1.6 0 2.2.7 2.2 2.4v2.8c0 .5 0 .9.1 1.4h-.7z"/><path d="m113.6 45.9 3.8-5h-3.7v-.6h4.6v.6l-3.8 5h3.8v.6h-4.8v-.6z"/><path d="m120.6 46.5h.8v-6.4h-.8zm0-8h.8v-1.1h-.8z"/><path d="m126.8 46c1.4 0 2.1-1.2 2.1-2.6 0-1.5-.7-2.6-2.1-2.6s-2.1 1.2-2.1 2.6.7 2.6 2.1 2.6zm0-6c2 0 2.9 1.6 2.9 3.4 0 1.7-.9 3.4-2.9 3.4s-2.9-1.6-2.9-3.4.9-3.4 2.9-3.4z"/><path d="m132.2 41.6c0-.5 0-1-.1-1.5h.7v1.2c.3-.5.7-1.3 2-1.3 1.6 0 2.2 1.1 2.2 2.5v4.1h-.8v-3.9c0-1.2-.5-2-1.5-2-1.5 0-1.9 1.3-1.9 2.4v3.5h-.8v-4.9h.2z"/><path d="m144 42.9c0-1.1-.5-2.2-1.6-2.2-1.2 0-1.8 1.2-1.8 2.2zm.4 3.5c-.5.2-1.3.4-1.8.4-2.1 0-2.9-1.5-2.9-3.4s1.1-3.4 2.7-3.4c1.8 0 2.6 1.5 2.6 3.2v.4h-4.4c0 1.4.7 2.5 2.1 2.5.5 0 1.4-.3 1.7-.5z"/><path d="m151.5 45.5c.5.4 1.1.5 1.9.5 1.1 0 1.9-.5 1.9-1.8 0-1.7-4-1.9-4-4.2 0-1.4 1.2-2.3 2.7-2.3.5 0 1.1.1 1.7.3l-.1.8c-.4-.2-1-.4-1.6-.4-.9 0-1.9.4-1.9 1.5 0 1.7 4 1.7 4 4.3 0 1.7-1.5 2.5-2.8 2.5-.8 0-1.5-.2-2-.4z"/><path d="m161 46.5h-.9l-2.2-6.4h.8l1.7 5.5 1.8-5.5h.8z"/><path d="m165.3 46.5h.8v-6.4h-.8zm0-8h.8v-1.1h-.8z"/><path d="m168.5 45.9 3.8-5h-3.7v-.6h4.6v.6l-3.8 5h3.8v.6h-4.8v-.6z"/><path d="m175 45.9 3.8-5h-3.7v-.6h4.6v.6l-3.8 5h3.8v.6h-4.7z"/><path d="m185.9 42.9c0-1.1-.5-2.2-1.6-2.2-1.2 0-1.8 1.2-1.8 2.2zm.4 3.5c-.5.2-1.3.4-1.8.4-2.1 0-2.9-1.5-2.9-3.4s1.1-3.4 2.7-3.4c1.8 0 2.6 1.5 2.6 3.2v.4h-4.4c0 1.4.7 2.5 2.1 2.5.5 0 1.4-.3 1.7-.5z"/><path d="m189.3 41.6c0-.7 0-1-.1-1.5h.8v1.2c.3-.7.8-1.4 1.6-1.4.2 0 .4 0 .5.1v.8c-.2-.1-.4-.1-.5-.1-1.3 0-1.6 1.4-1.6 2.5v3.2h-.8v-4.8z"/><path d="m197.9 43.4h-.2c-1.4 0-3 .2-3 1.5 0 .8.6 1.2 1.3 1.2 1.8 0 1.9-1.6 1.9-2.3zm.1 2.1c-.4.7-1.3 1.2-2 1.2-1.8 0-2.1-1.2-2.1-1.8 0-2.2 2.3-2.3 3.9-2.3h.2v-.4c0-1.1-.4-1.6-1.5-1.6-.6 0-1.3.2-1.8.5v-.7c.5-.3 1.3-.5 1.8-.5 1.6 0 2.2.7 2.2 2.4v2.8c0 .5 0 .9.1 1.4h-.7z"/><path d="m55.7 56.1c-.5-.3-1.4-.4-1.9-.4-2.3 0-3.6 1.6-3.6 3.7 0 2.2 1.2 3.7 3.6 3.7.5 0 1.5-.1 1.9-.4l.1.7c-.5.3-1.5.4-2 .4-2.7 0-4.4-1.8-4.4-4.5 0-2.6 1.7-4.5 4.4-4.5.5 0 1.6.1 2 .4z"/><path d="m61.1 63.3c1.4 0 2.1-1.2 2.1-2.6s-.8-2.7-2.1-2.7c-1.4 0-2.1 1.2-2.1 2.6s.7 2.7 2.1 2.7zm0-6c2 0 2.9 1.6 2.9 3.4s-.9 3.3-2.9 3.3-2.9-1.6-2.9-3.4.9-3.3 2.9-3.3z"/><path d="m66.6 58.9c0-.5 0-1-.1-1.5h.7v1.2c.3-.5.7-1.3 2-1.3 1.6 0 2.2 1.1 2.2 2.5v4.1h-.8v-3.9c0-1.2-.5-2-1.5-2-1.5 0-1.9 1.3-1.9 2.4v3.5h-.8v-4.9h.2z"/><path d="m75 58.1h-1.3v-.6h1.3v-.5c0-1.4.1-2.7 1.6-2.7.3 0 .5 0 .7.1l-.1.7c-.2-.1-.4-.2-.6-.2-1.1 0-.9 1.2-.9 1.9v.5h1.5v.7h-1.5v5.7h-.7z"/><path d="m83.4 60.2c0-1.1-.5-2.2-1.6-2.2s-1.8 1.2-1.8 2.2zm.3 3.4c-.5.2-1.3.4-1.8.4-2.1 0-2.9-1.5-2.9-3.4s1.1-3.4 2.7-3.4c1.8 0 2.6 1.5 2.6 3.2v.4h-4.4c0 1.4.7 2.5 2.1 2.5.5 0 1.4-.3 1.7-.5z"/><path d="m89.1 63.3c1.4 0 1.9-1.5 1.9-2.6 0-1.2-.5-2.6-1.9-2.6-1.5 0-1.9 1.5-1.9 2.6s.4 2.6 1.9 2.6zm2.6.5h-.8v-1c-.5.8-1.1 1.2-2 1.2-1.7 0-2.7-1.5-2.7-3.4s.7-3.4 2.7-3.4c1.3 0 1.8.9 2 1.2v-4.1h.8z"/><path d="m98.5 60.2c0-1.1-.5-2.2-1.6-2.2-1.2 0-1.8 1.2-1.8 2.2zm.3 3.4c-.5.2-1.2.4-1.8.4-2.1 0-2.9-1.5-2.9-3.4s1.1-3.4 2.7-3.4c1.8 0 2.6 1.5 2.6 3.2v.4h-4.4c0 1.4.7 2.5 2.1 2.5.5 0 1.4-.3 1.7-.5z"/><path d="m101.8 58.8c0-.7 0-1-.1-1.5h.8v1.2c.3-.7.8-1.4 1.6-1.4.2 0 .4 0 .5.1v.8c-.2-.1-.4-.1-.5-.1-1.3 0-1.6 1.4-1.6 2.5v3.2h-.8v-4.8z"/><path d="m110.4 60.5h-.2c-1.4 0-3 .2-3 1.5 0 .8.6 1.2 1.3 1.2 1.8 0 1.9-1.6 1.9-2.3zm.1 2.3c-.4.7-1.3 1.2-2 1.2-1.8 0-2.1-1.2-2.1-1.8 0-2.2 2.3-2.3 3.9-2.3h.2v-.4c0-1.1-.4-1.6-1.5-1.6-.6 0-1.3.2-1.8.5v-.7c.5-.3 1.3-.5 1.8-.5 1.6 0 2.2.7 2.2 2.4v2.8c0 .5 0 .9.1 1.4h-.7z"/><path d="m175.3 60.5h-.2c-1.4 0-3 .2-3 1.5 0 .8.6 1.2 1.3 1.2 1.8 0 1.9-1.6 1.9-2.3zm.1 2.3c-.4.7-1.3 1.2-2 1.2-1.8 0-2.1-1.2-2.1-1.8 0-2.2 2.3-2.3 3.9-2.3h.2v-.4c0-1.1-.4-1.6-1.5-1.6-.6 0-1.3.2-1.8.5v-.7c.5-.3 1.3-.5 1.8-.5 1.6 0 2.2.7 2.2 2.4v2.8c0 .5 0 .9.1 1.4h-.7z"/><path d="m113.6 63.2 3.8-5h-3.7v-.6h4.6v.6l-3.8 5h3.8v.6h-4.8v-.6z"/><path d="m120.6 63.8h.8v-6.4h-.8zm0-8.1h.8v-1.1h-.8z"/><path d="m129.3 62.3c0 .5 0 1 .1 1.5h-.7v-1.2c-.3.5-.7 1.3-2 1.3-1.6 0-2.2-1.1-2.2-2.5v-4.1h.8v3.9c0 1.2.5 2 1.5 2 1.5 0 1.9-1.3 1.9-2.4v-3.5h.8v4.9h-.2z"/><path d="m132.2 58.9c0-.5 0-1-.1-1.5h.7v1.2c.3-.5.7-1.3 2-1.3 1.6 0 2.2 1.1 2.2 2.5v4.1h-.8v-3.9c0-1.2-.5-2-1.5-2-1.5 0-1.9 1.3-1.9 2.4v3.5h-.8v-4.9h.2z"/><path d="m143.9 62.9c.5.3 1 .4 1.6.4.7 0 1.4-.5 1.4-1.2 0-1.5-3-1.3-3-3.1 0-1.3 1-1.7 2.1-1.7.4 0 1 .1 1.6.3l-.1.7c-.4-.2-1-.3-1.4-.3-.8 0-1.4.3-1.4 1.1 0 1.2 3.1 1 3.1 3.1 0 1.4-1.3 1.8-2.2 1.8-.6 0-1.2-.1-1.7-.3z"/><path d="m152.4 63.8h-.9l-2.2-6.4h.8l1.7 5.5 1.8-5.5h.8z"/><path d="m156.7 63.8h.8v-6.4h-.8zm0-8.1h.8v-1.1h-.8z"/><path d="m159.9 63.2 3.8-5h-3.7v-.6h4.6v.6l-3.8 5h3.8v.6h-4.8v-.6z"/><path d="m166.9 58.8c0-.7 0-1-.1-1.5h.8v1.2c.3-.7.8-1.4 1.6-1.4.2 0 .4 0 .5.1v.8c-.2-.1-.4-.1-.5-.1-1.3 0-1.6 1.4-1.6 2.5v3.2h-.8v-4.8z"/><path d="m35.3 2.9s-6.6-2.9-17.6-2.9c-11 0-17.6 2.9-17.6 2.9s-.7 12.8 1.9 20.1c4.4 12.7 15.7 16.4 15.7 16.4s11.3-3.6 15.7-16.4c2.4-7.3 1.9-20.1 1.9-20.1z" fill="#d8232a"/><path d="m29.3 14v7.1h-8.2v8.3h-7v-8.3h-8.3v-7.1h8.2v-8.3h7v8.3z" fill="#fffffe"/></g></svg>
